<svg width="136" height="52" viewBox="0 0 136 52" fill="none" xmlns="http://www.w3.org/2000/svg">
<rect y="6" width="136" height="46" rx="20" fill="#9ED4F6"/>
<rect width="136" height="46" rx="20" fill="#E9F7FF"/>
<path d="M44.24 31.24C44.0933 31.2533 43.8667 31.26 43.56 31.26C41.76 31.26 40.16 30.8733 38.76 30.1V27.16C39.4933 27.6133 40.3 27.9933 41.18 28.3C42.06 28.6067 42.86 28.76 43.58 28.76C44.1667 28.76 44.6267 28.6133 44.96 28.32C45.3067 28.0267 45.48 27.6933 45.48 27.32C45.48 26.8 45.28 26.3267 44.88 25.9C44.48 25.46 43.84 25.1067 42.96 24.84C41.9467 24.52 41.1533 24.2 40.58 23.88C40.02 23.5467 39.5933 23.1333 39.3 22.64C39.02 22.1467 38.88 21.52 38.88 20.76C38.88 20.04 39.0533 19.3867 39.4 18.8C39.7467 18.2 40.2533 17.72 40.92 17.36C41.6 17 42.4067 16.8 43.34 16.76C43.46 16.7467 43.6467 16.74 43.9 16.74C44.5933 16.74 45.2867 16.8133 45.98 16.96C46.6867 17.0933 47.28 17.2667 47.76 17.48V20.06C47.24 19.8333 46.6333 19.6467 45.94 19.5C45.2467 19.3533 44.6333 19.28 44.1 19.28C43.42 19.28 42.9 19.4 42.54 19.64C42.18 19.88 42 20.2133 42 20.64C42 21.0267 42.1933 21.3733 42.58 21.68C42.9667 21.9867 43.5667 22.28 44.38 22.56C45.3533 22.84 46.1467 23.16 46.76 23.52C47.3733 23.8667 47.8533 24.3267 48.2 24.9C48.5467 25.46 48.72 26.1667 48.72 27.02C48.72 27.8333 48.5333 28.5533 48.16 29.18C47.7867 29.8067 47.26 30.3 46.58 30.66C45.9133 31.0067 45.1333 31.2 44.24 31.24ZM49.7072 17H60.2272V19.7H56.6272V31H53.3072V19.7H49.7072V17ZM69.0425 27.04H64.5625L63.5025 31H60.0025L64.0625 17H69.5625L73.6225 31H70.1025L69.0425 27.04ZM68.4025 24.64L66.8225 18.78H66.7825L65.2025 24.64H68.4025ZM81.7347 17C83.148 17 84.2614 17.3667 85.0747 18.1C85.9014 18.82 86.3147 19.84 86.3147 21.16C86.3147 22.2533 86.028 23.1467 85.4547 23.84C84.8947 24.5333 84.1014 24.98 83.0747 25.18C83.848 26.0333 84.5347 26.92 85.1347 27.84C85.7347 28.76 86.308 29.8133 86.8547 31H83.8147C83.188 29.7333 82.608 28.6867 82.0747 27.86C81.5414 27.0333 80.848 26.1867 79.9947 25.32H78.5547V31H75.2547V17H81.7347ZM81.4947 23.02C82.1747 23.02 82.7014 22.84 83.0747 22.48C83.448 22.12 83.6347 21.68 83.6347 21.16C83.6347 20.6267 83.4414 20.1867 83.0547 19.84C82.6814 19.48 82.1614 19.3 81.4947 19.3H78.5547V23.02H81.4947ZM87.5978 17H98.1178V19.7H94.5178V31H91.1978V19.7H87.5978V17Z" fill="#558AA4"/>
</svg>
