<svg width="136" height="52" viewBox="0 0 136 52" fill="none" xmlns="http://www.w3.org/2000/svg">
<rect y="6" width="136" height="46" rx="20" fill="#9ED4F6"/>
<rect width="136" height="46" rx="20" fill="#E9F7FF"/>
<path d="M33.728 32.8C34.592 31.732 35.24 30.634 35.672 29.506C36.104 28.378 36.38 27.184 36.5 25.924H32.846V23.602H36.572V19.282H33.962V16.942H48.038V19.282H45.662V23.602H49.154V25.924H45.662V32.8H43.322V25.924H38.858C38.774 27.244 38.564 28.45 38.228 29.542C37.892 30.622 37.388 31.708 36.716 32.8H33.728ZM43.322 23.602V19.282H38.912V23.602H43.322ZM55.238 30.298C54.806 31.162 54.344 31.996 53.852 32.8H51.008C52.04 31.312 52.832 30.022 53.384 28.93L50.954 27.112L51.854 20.974H50.9V18.634H52.196L52.502 16.6H54.986L54.716 18.634H57.416C57.416 20.77 57.332 22.552 57.164 23.98C56.996 25.408 56.66 26.794 56.156 28.138L57.344 29.056V31.882L55.238 30.298ZM54.302 26.716C54.818 25.12 55.13 23.206 55.238 20.974H54.05L53.348 25.978L54.302 26.716ZM57.686 21.568H58.658L60.8 16.528H63.32L61.178 21.568H64.256L63.626 19.588H66.02L67.37 23.8H57.686V21.568ZM58.208 25.114H66.704V32.656H58.208V25.114ZM64.616 30.496V27.274H60.296V30.496H64.616ZM73.706 30.496C74.954 29.86 75.8 29.17 76.244 28.426C76.688 27.67 76.928 26.89 76.964 26.086L74.246 27.958V26.176L72.95 26.518V32.8H69.314V30.622H70.61V27.112L68.828 27.562V25.06L70.61 24.61V21.28H69.008V19.012H70.61V16.51H72.95V19.012H74.3V21.28H72.95V24.016L74.48 23.62V25.366L76.964 23.656V16.51H79.124V25.6C79.124 26.608 79.004 27.562 78.764 28.462C78.524 29.362 78.002 30.226 77.198 31.054C76.406 31.882 75.242 32.524 73.706 32.98V30.496ZM76.262 17.248L76.856 22.666H75.002L74.408 17.248H76.262ZM80.384 16.51H82.544V24.088L85.208 26.05V28.552L82.544 26.59V30.442H85.46V32.746H80.384V16.51ZM83.408 17.248H85.262L84.578 22.666H82.724L83.408 17.248ZM103.28 33.124C101.468 32.584 100.058 31.69 99.05 30.442C98.582 30.898 98.06 31.282 97.484 31.594C96.92 31.918 96.284 32.218 95.576 32.494V29.848C96.524 29.476 97.286 28.984 97.862 28.372C97.274 26.896 96.98 25.042 96.98 22.81H95.342V20.614H96.944V16.51H99.086V20.614H102.578V22.81H99.122C99.134 23.602 99.158 24.274 99.194 24.826C99.23 25.378 99.302 25.888 99.41 26.356C99.734 25.696 99.986 24.922 100.166 24.034H102.164C101.84 25.738 101.282 27.274 100.49 28.642C101.114 29.41 102.044 30.034 103.28 30.514V33.124ZM87.242 23.908H89.672V16.51H91.976V18.814H95.108V21.154H91.976V23.908H94.676V32.62H87.242V23.908ZM92.444 30.298V26.23H89.474V30.298H92.444ZM101.354 16.906L102.002 20.038H100.04L99.41 16.906H101.354Z" fill="#558AA4"/>
</svg>

