<svg width="263" height="73" viewBox="0 0 263 73" fill="none" xmlns="http://www.w3.org/2000/svg">
<path d="M58.796 0.52H62.62V2.712H61.116V9.16H58.796V0.52ZM66.444 12.408C68.4173 11.6293 69.9587 10.4987 71.068 9.016C72.1773 7.52267 72.732 5.704 72.732 3.56L72.716 0.151999H74.924V3.56C74.924 5.704 75.4733 7.52267 76.572 9.016C77.6813 10.4987 79.2227 11.6293 81.196 12.408V14.792C79.436 14.2267 77.932 13.4213 76.684 12.376C75.4467 11.3307 74.492 10.0987 73.82 8.68C73.148 10.0987 72.188 11.3307 70.94 12.376C69.7027 13.4213 68.204 14.2267 66.444 14.792V12.408ZM88.108 14.76C88.7267 13.5227 89.1693 12.3493 89.436 11.24C89.7133 10.12 89.852 8.88267 89.852 7.528V0.615999H96.284V12.504H97.708V14.6H94.22V2.76H91.916V7.528C91.916 8.904 91.7987 10.1467 91.564 11.256C91.34 12.3653 90.9507 13.5333 90.396 14.76H88.108ZM82.828 13.768C83.404 10.888 83.692 7.79467 83.692 4.488H85.404C85.404 8.01867 85.1533 11.112 84.652 13.768H82.828ZM83.26 1.848H85.964V0.119999H87.98V1.848H89.5V3.832H87.98V5.784L89.244 6.568V8.984L87.98 8.2V14.6H85.964V3.832H83.26V1.848ZM114.14 9.816C112.647 9.528 111.319 9.05867 110.156 8.408V8.952H107.804V9.688H112.556V11.4H111.548L111.212 12.536H113.836V14.44H99.724V12.536H102.348L102.012 11.4H101.004V9.688H105.756V8.952H103.404V8.408C102.241 9.05867 100.913 9.528 99.42 9.816V7.704C100.412 7.45867 101.292 7.144 102.06 6.76C102.828 6.36533 103.516 5.88533 104.124 5.32H103.036V0.039999H105.1V4.584H105.708V2.552C106.775 1.99733 107.516 1.24 107.932 0.28H113.692V2.296H109.084C108.327 3.42667 107.26 4.18933 105.884 4.584H108.716C109.388 5.352 110.161 5.992 111.036 6.504C111.911 7.016 112.945 7.416 114.14 7.704V9.816ZM99.9 0.424H101.9V4.792H99.9V0.424ZM104.204 12.536H105.756V11.4H103.868L104.204 12.536ZM108.636 7.4C108.305 7.144 107.969 6.83467 107.628 6.472H105.932C105.591 6.83467 105.255 7.144 104.924 7.4H108.636ZM109.356 12.536L109.692 11.4H107.804V12.536H109.356ZM111.868 2.824L112.828 5.592H110.812L109.852 2.824H111.868ZM130.172 0.2V14.6H126.028V12.536H128.172V0.2H130.172ZM115.804 14.6C116.903 13 117.676 11.4107 118.124 9.832H116.044V7.848H118.508C118.572 7.336 118.604 6.81867 118.604 6.296H116.364V0.36H123.788V6.296H120.604C120.604 6.648 120.583 7.16533 120.54 7.848H124.188V14.6H120.924V12.616H122.156V9.832H120.236C119.895 11.4533 119.233 13.0427 118.252 14.6H115.804ZM121.756 4.328V2.328H118.396V4.328H121.756ZM124.94 1.08H126.908V11.032H124.94V1.08ZM138.284 14.28H134.46V12.088H135.964V5.64H138.284V14.28ZM154.444 6.504C155.468 6.216 156.513 5.74667 157.58 5.096C157.121 4.59467 156.721 4.04 156.38 3.432C155.847 3.83733 155.265 4.16267 154.636 4.408V2.2C155.436 1.752 156.028 1.096 156.412 0.231999H163.26C163.1 1.11733 162.801 1.976 162.364 2.808C161.937 3.64 161.383 4.41333 160.7 5.128C161.639 5.672 162.588 6.07733 163.548 6.344V8.536C161.767 8.01333 160.289 7.33067 159.116 6.488C158.572 6.88267 157.937 7.256 157.212 7.608L161.788 8.968V10.984L157.02 9.56V7.688C156.188 8.05067 155.329 8.33333 154.444 8.536V6.504ZM151.372 0.2H153.484L151.372 4.776L151.932 5.096L152.556 3.736H154.588L152.316 8.76H154.444V10.824H149.052L150.78 7.032L148.748 5.928L151.372 0.2ZM149.02 12.44L154.524 11.912V13.976L149.02 14.504V12.44ZM155.548 10.696L162.94 12.664V14.76L155.548 12.808V10.696ZM157.884 2.216C158.257 2.824 158.721 3.416 159.276 3.992C159.777 3.448 160.183 2.856 160.492 2.216H157.884ZM177.58 12.664C177.281 13.3893 176.988 14.0347 176.7 14.6H174.348C175.041 13.4053 175.644 12.184 176.156 10.936L174.204 9.4C173.959 11.192 173.489 12.9253 172.796 14.6H170.54C171.255 13.1813 171.756 11.7413 172.044 10.28C172.343 8.808 172.492 7.25067 172.492 5.608V2.296H171.644V3.832H170.22V5.688L171.644 6.568V8.984L170.22 8.104V14.6H168.172V3.832H165.516V1.848H167.996V0.119999H170.108V1.848H171.484V0.36H178.748L177.9 4.168H179.932C179.751 5.608 179.537 6.87733 179.292 7.976C179.079 8.92533 178.812 9.90133 178.492 10.904L180.22 12.28V14.76L177.58 12.664ZM165.228 13.768C165.505 12.4027 165.697 10.9627 165.804 9.448C165.921 7.92267 165.98 6.26933 165.98 4.488H167.676C167.676 6.33333 167.633 7.992 167.548 9.464C167.473 10.9253 167.303 12.36 167.036 13.768H165.228ZM177.036 9.112C177.324 8.16267 177.564 7.15467 177.756 6.088H175.516L176.348 2.296H174.444V5.608C174.444 5.93867 174.433 6.41333 174.412 7.032L177.036 9.112ZM186.252 12.552C187.361 11.9867 188.113 11.3733 188.508 10.712C188.903 10.04 189.116 9.34667 189.148 8.632L186.732 10.296V8.712L185.58 9.016V14.6H182.348V12.664H183.5V9.544L181.916 9.944V7.72L183.5 7.32V4.36H182.076V2.344H183.5V0.119999H185.58V2.344H186.78V4.36H185.58V6.792L186.94 6.44V7.992L189.148 6.472V0.119999H191.068V8.2C191.068 9.096 190.961 9.944 190.748 10.744C190.535 11.544 190.071 12.312 189.356 13.048C188.652 13.784 187.617 14.3547 186.252 14.76V12.552ZM188.524 0.775999L189.052 5.592H187.404L186.876 0.775999H188.524ZM192.188 0.119999H194.108V6.856L196.476 8.6V10.824L194.108 9.08V12.504H196.7V14.552H192.188V0.119999ZM194.876 0.775999H196.524L195.916 5.592H194.268L194.876 0.775999ZM213.02 14.888C211.409 14.408 210.156 13.6133 209.26 12.504C208.844 12.9093 208.38 13.2507 207.868 13.528C207.367 13.816 206.801 14.0827 206.172 14.328V11.976C207.015 11.6453 207.692 11.208 208.204 10.664C207.681 9.352 207.42 7.704 207.42 5.72H205.964V3.768H207.388V0.119999H209.292V3.768H212.396V5.72H209.324C209.335 6.424 209.356 7.02133 209.388 7.512C209.42 8.00267 209.484 8.456 209.58 8.872C209.868 8.28533 210.092 7.59733 210.252 6.808H212.028C211.74 8.32267 211.244 9.688 210.54 10.904C211.095 11.5867 211.921 12.1413 213.02 12.568V14.888ZM198.764 6.696H200.924V0.119999H202.972V2.168H205.756V4.248H202.972V6.696H205.372V14.44H198.764V6.696ZM203.388 12.376V8.76H200.748V12.376H203.388ZM211.308 0.471999L211.884 3.256H210.14L209.58 0.471999H211.308ZM15.02 35.072C13.356 34.1013 12.1133 32.8 11.292 31.168H10.62C9.79867 32.8 8.556 34.1013 6.892 35.072V32.672C8.108 31.7653 8.94534 30.608 9.404 29.2H12.508C12.9667 30.608 13.804 31.7653 15.02 32.672V35.072ZM0.460004 40.96L0.972004 40.848V31.2H0.460004V29.36H7.036V31.2H6.524V43.6H4.684V42.048L0.460004 42.912V40.96ZM4.684 40.096V38.512H2.812V40.48L4.684 40.096ZM4.684 36.672V34.864H2.812V36.672H4.684ZM4.684 33.024V31.2H2.812V33.024H4.684ZM7.228 36.384H14.764L12.588 41.136C13.004 41.2533 13.548 41.4453 14.22 41.712V43.76C12.972 43.2693 11.7987 42.8907 10.7 42.624C9.612 42.368 8.492 42.2027 7.34 42.128V40.128C8.50267 40.2347 9.60134 40.3947 10.636 40.608L11.676 38.352H7.228V36.384ZM11.868 32.88L12.348 35.584H10.364L9.884 32.88H11.868ZM22.332 42.32H17.1V29.68H22.332V42.32ZM20.444 40.208V31.792H18.988V40.208H20.444ZM21.9 43.6C22.4973 42.5333 22.9027 41.4827 23.116 40.448C23.34 39.4133 23.452 38.2507 23.452 36.96V29.6C24.8173 29.6 26.0493 29.568 27.148 29.504C28.2467 29.44 29.516 29.3387 30.956 29.2V31.248C28.9187 31.4507 27.1 31.5733 25.5 31.616V33.52H31.5V35.488H29.74V43.6H27.692V35.488H25.5V36.96C25.5 38.1973 25.4093 39.36 25.228 40.448C25.0467 41.5253 24.748 42.576 24.332 43.6H21.9ZM40.14 34.656H42.108L43.308 39.552H41.34L40.14 34.656ZM33.564 30.224H39.788L39.676 31.952C39.612 33.296 39.4413 34.5227 39.164 35.632C38.8867 36.7307 38.4867 37.76 37.964 38.72C38.4973 39.4667 39.1853 40.1707 40.028 40.832V43.504C38.7373 42.544 37.6653 41.5253 36.812 40.448C35.9373 41.536 34.86 42.5547 33.58 43.504V40.832C34.4227 40.1707 35.1107 39.4667 35.644 38.72C35.1213 37.7813 34.7213 36.768 34.444 35.68C34.1773 34.592 34.0067 33.392 33.932 32.08H33.564V30.224ZM35.9 32.08C35.9747 33.8187 36.2787 35.3387 36.812 36.64C37.3347 35.328 37.6333 33.808 37.708 32.08H35.9ZM40.076 31.056H44.444V29.2H46.492V31.056H47.9V33.104H46.492L46.476 43.6H42.86V41.52H44.444V33.104H40.076V31.056ZM63.932 43.44H55.452V37.12H58.636V35.168H54.972V33.248H58.652V31.376C57.5747 31.4187 56.4867 31.44 55.388 31.44V29.52C56.6573 29.52 58.1773 29.4827 59.948 29.408C61.7293 29.3333 63.0787 29.232 63.996 29.104V31.024C63.228 31.1413 62.1347 31.232 60.716 31.296V33.248H64.412V35.168H60.7V37.12H63.932V43.44ZM49.66 33.76H53.276V40.512L54.828 39.984V42.368L51.18 43.6V35.888H49.66V33.76ZM52.636 29.2L53.74 32.672H51.564L50.46 29.2H52.636ZM61.852 41.504V39.056H57.532V41.504H61.852ZM68.812 39.376H71.276L69.26 44.112H67.388L68.812 39.376ZM83.426 43.6C84.3007 42.288 84.898 40.9493 85.218 39.584H82.482V37.568H85.522C85.5647 37.0987 85.586 36.5493 85.586 35.92V35.568H82.818V33.552H85.618V29.2H87.634V33.552H90.434V35.568H87.666V35.92C87.666 36.5493 87.6447 37.0987 87.602 37.568H90.77V39.584H87.33C87.0527 40.9707 86.5993 42.3093 85.97 43.6H83.426ZM84.306 29.616L84.914 32.72H83.218L82.61 29.616H84.306ZM88.946 29.616H90.642L90.034 32.72H88.338L88.946 29.616ZM91.474 30.08H93.426V40.032H91.474V30.08ZM92.594 41.536H94.754V29.2H96.738V43.6H92.594V41.536ZM99.362 29.2H101.282V41.296H106.354V42.992C106.663 42.128 106.877 41.264 106.994 40.4C107.111 39.5253 107.17 38.5227 107.17 37.392V29.52C109.335 29.52 111.394 29.3813 113.346 29.104V31.152C112.119 31.3333 110.722 31.4613 109.154 31.536V33.664H113.65V35.712H112.498V43.6H110.546V35.712H109.154V37.392C109.154 38.5227 109.085 39.5947 108.946 40.608C108.807 41.6107 108.589 42.608 108.29 43.6H106.13L106.226 43.344H99.362V29.2ZM101.362 40.464C101.682 38.64 101.847 36.96 101.858 35.424H103.01C102.978 37.1733 102.829 38.8533 102.562 40.464H101.362ZM101.554 32.976H103.298V29.2H104.898V32.976H106.642V34.992H104.898V40.752H103.298V34.992H101.554V32.976ZM102.69 29.376L102.978 32.576H101.826L101.554 29.376H102.69ZM106.322 35.424C106.333 36.96 106.498 38.64 106.818 40.464H105.618C105.351 38.8533 105.202 37.1733 105.17 35.424H106.322ZM105.506 29.376H106.642L106.37 32.576H105.218L105.506 29.376ZM115.25 43.6C116.839 40.4213 118.21 37.12 119.362 33.696H115.874L117.186 29.312H119.298L118.578 31.696H120.018C120.253 30.9707 120.535 30.032 120.866 28.88H123.122C123.026 29.2213 122.93 29.5413 122.834 29.84C122.738 30.1387 122.653 30.416 122.578 30.672L122.258 31.696H129.97V33.696H121.602C121.495 34.0373 121.362 34.4267 121.202 34.864L121.09 35.168H129.074C128.701 37.2693 127.751 39.0347 126.226 40.464C127.303 41.0293 128.519 41.4667 129.874 41.776V43.792C127.751 43.3333 125.97 42.656 124.53 41.76C123.09 42.656 121.309 43.3333 119.186 43.792V41.776C120.541 41.4667 121.757 41.0293 122.834 40.464C121.746 39.44 120.957 38.2613 120.466 36.928C119.591 39.2853 118.669 41.5093 117.698 43.6H115.25ZM122.706 37.088C123.154 37.9413 123.762 38.688 124.53 39.328C125.298 38.688 125.906 37.9413 126.354 37.088H122.706ZM127.362 29.12L127.986 31.376H125.906L125.282 29.12H127.362ZM145.57 38.016V43.472H132.93V38.016H145.57ZM131.922 29.856H138.194V28.976H140.306V29.856H146.578V31.808H131.922V29.856ZM133.314 35.344H145.186V37.152H133.314V35.344ZM133.314 32.672H145.186V34.48H133.314V32.672ZM143.49 41.584V39.856H135.01V41.584H143.49ZM153.042 39.072H159.922V38.176H153.042V39.072ZM148.21 39.664C149.373 38.224 150.226 36.8213 150.77 35.456H148.53V33.504H154.578V32.32H149.906V30.336H154.578V29.04H156.658V30.336H159.474V32.08L160.514 29.6H162.674L161.042 33.504H162.93V35.456H153.01C152.861 35.8613 152.738 36.1653 152.642 36.368H161.97V43.504H150.994V39.376L150.802 39.664H148.21ZM159.922 41.712V40.8H153.042V41.712H159.922ZM158.882 33.504L159.378 32.32H156.658V33.504H158.882ZM177.986 29.328V35.456H166.434V29.328H177.986ZM164.898 43.6C165.559 42.7787 166.029 41.936 166.306 41.072C166.594 40.1973 166.754 39.248 166.786 38.224H168.818C168.786 39.1413 168.706 39.904 168.578 40.512C168.941 40.832 169.33 41.0773 169.746 41.248C170.173 41.408 170.663 41.5147 171.218 41.568V37.824H165.362V36.048H179.218V37.824H173.298V38.704H178.098V40.496H173.298V41.6H179.41V43.488H172.098C171.106 43.488 170.301 43.4027 169.682 43.232C169.074 43.0613 168.525 42.7627 168.034 42.336C167.874 42.7307 167.655 43.152 167.378 43.6H164.898ZM175.922 33.792V33.104H168.498V33.792H175.922ZM175.922 31.696V30.992H168.498V31.696H175.922ZM181.314 41.408C183.287 40.6293 184.829 39.4987 185.938 38.016C187.047 36.5227 187.602 34.704 187.602 32.56L187.586 29.152H189.794V32.56C189.794 34.704 190.343 36.5227 191.442 38.016C192.551 39.4987 194.093 40.6293 196.066 41.408V43.792C194.306 43.2267 192.802 42.4213 191.554 41.376C190.317 40.3307 189.362 39.0987 188.69 37.68C188.018 39.0987 187.058 40.3307 185.81 41.376C184.573 42.4213 183.074 43.2267 181.314 43.792V41.408ZM212.37 43.664C209.181 43.4187 206.781 42.5067 205.17 40.928C203.559 42.5067 201.159 43.4187 197.97 43.664V41.664C200.391 41.472 202.327 40.7467 203.778 39.488H198.194V37.52H204.114V36.576H206.226V37.52H212.146V39.488H206.562C208.013 40.7467 209.949 41.472 212.37 41.664V43.664ZM197.97 31.968H204.13V29.12H206.21V31.968H212.37V33.952H210.098C210.525 34.848 211.069 35.7387 211.73 36.624H209.282C208.781 35.8987 208.317 35.008 207.89 33.952H206.21V36.032H204.13V33.952H202.45C202.023 35.008 201.559 35.8987 201.058 36.624H198.61C199.271 35.7387 199.815 34.848 200.242 33.952H197.97V31.968ZM201.538 29.264L202.594 31.456H200.402L199.33 29.264H201.538ZM208.802 29.264H211.01L209.938 31.456H207.746L208.802 29.264ZM218.418 35.888C219.357 35.376 220.157 34.768 220.818 34.064C221.479 33.36 222.034 32.5227 222.482 31.552H218.754V29.568H228.514V31.552H224.562C224.317 32.2133 224.045 32.816 223.746 33.36H224.514V40.912H222.482L222.466 35.216C221.389 36.4853 220.039 37.488 218.418 38.224V35.888ZM214.13 33.76H218.098C218.098 35.1147 218.05 36.336 217.954 37.424C217.858 38.5013 217.698 39.5787 217.474 40.656C217.943 40.9227 218.466 41.1147 219.042 41.232C219.629 41.3387 220.338 41.392 221.17 41.392H229.01V43.44H221.17C220.189 43.44 219.373 43.3813 218.722 43.264C218.071 43.1573 217.485 42.9707 216.962 42.704C216.887 42.96 216.834 43.1253 216.802 43.2C216.749 43.4027 216.711 43.536 216.69 43.6H214.482C214.983 42.2027 215.351 40.9067 215.586 39.712C215.821 38.5173 215.965 37.2267 216.018 35.84H214.13V33.76ZM216.946 29.2L218.05 32.672H215.89L214.786 29.2H216.946ZM225.154 34.064L228.85 35.904V38.112L225.154 36.288V34.064ZM243.906 29.328V35.456H232.354V29.328H243.906ZM230.818 43.6C231.479 42.7787 231.949 41.936 232.226 41.072C232.514 40.1973 232.674 39.248 232.706 38.224H234.738C234.706 39.1413 234.626 39.904 234.498 40.512C234.861 40.832 235.25 41.0773 235.666 41.248C236.093 41.408 236.583 41.5147 237.138 41.568V37.824H231.282V36.048H245.138V37.824H239.218V38.704H244.018V40.496H239.218V41.6H245.33V43.488H238.018C237.026 43.488 236.221 43.4027 235.602 43.232C234.994 43.0613 234.445 42.7627 233.954 42.336C233.794 42.7307 233.575 43.152 233.298 43.6H230.818ZM241.842 33.792V33.104H234.418V33.792H241.842ZM241.842 31.696V30.992H234.418V31.696H241.842ZM254.194 38.832H250.61L249.762 42H246.962L250.21 30.8H254.61L257.858 42H255.042L254.194 38.832ZM253.682 36.912L252.418 32.224H252.386L251.122 36.912H253.682ZM259.692 30.8H262.332V42H259.692V30.8ZM57.855 63.496C59.0923 62.0773 59.9563 60.312 60.447 58.2H62.543C62.2763 59.704 61.871 61.0533 61.327 62.248V72.6H59.279V65.416C58.895 65.8533 58.4203 66.312 57.855 66.792V63.496ZM61.935 71.928C62.735 69.6667 63.135 67.4 63.135 65.128H65.023C65.023 67.432 64.703 69.6987 64.063 71.928H61.935ZM62.335 63.624C63.0923 61.8107 63.5457 60.0027 63.695 58.2H65.807L65.711 59.16H72.607C72.4577 60.6533 72.143 62.136 71.663 63.608H69.519C69.7857 62.8933 70.031 62.088 70.255 61.192H65.343C65.151 62.024 64.8897 62.8347 64.559 63.624H62.335ZM65.247 70.616H66.495V62.456H68.479V72.6H65.247V70.616ZM71.535 65.112C72.1217 67.32 72.415 69.5867 72.415 71.912H70.527C70.527 69.6187 70.1857 67.352 69.503 65.112H71.535ZM74.815 63.928H81.791V72.6H79.775V71.096H76.831V72.6H74.815V63.928ZM74.495 61.24H75.247L76.975 58.136H79.391L77.663 61.24H79.727L79.199 59.416H81.231L82.303 63.16H74.495V61.24ZM79.775 69.384V68.456H76.831V69.384H79.775ZM79.775 66.744V65.768H76.831V66.744H79.775ZM82.847 65.4H84.911V67.288C86.1483 66.936 87.423 66.4347 88.735 65.784V67.896C87.5403 68.504 86.2657 68.968 84.911 69.288V70.408H88.895V72.472H82.847V65.4ZM82.847 58.2H84.911V60.152C86.1163 59.8213 87.391 59.3413 88.735 58.712V60.76C87.5617 61.3573 86.287 61.8107 84.911 62.12V62.952H88.895V64.968H82.847V58.2ZM92.223 64.888H90.735V62.76H94.351V69.496L95.983 69.016V71.4L92.223 72.52V64.888ZM94.063 58.2L95.167 61.672H92.943L91.839 58.2H94.063ZM96.287 70.184H99.327L99.311 58.04H101.423V62.312H105.055V64.392H101.423V70.184H105.695V72.264H96.287V70.184ZM114.239 67.832H110.655L109.807 71H107.007L110.255 59.8H114.655L117.903 71H115.087L114.239 67.832ZM113.727 65.912L112.463 61.224H112.431L111.167 65.912H113.727ZM119.737 59.8H122.377V71H119.737V59.8ZM130.585 67.8V58.472H138.617V67.8H136.697V60.552H132.505V67.8H130.585ZM124.585 69.832V71.88L130.345 71V68.952L128.425 69.24V65.72H129.993V63.704H128.425V60.616H130.121V58.568H124.665V60.616H126.441V63.704H124.889V65.72H126.441V69.544L124.585 69.832ZM132.809 72.6H130.153C131.433 71.2773 132.329 69.9867 132.841 68.728C133.364 67.4587 133.625 66.0133 133.625 64.392V61.24H135.513V64.392C135.513 65.7573 135.358 67.0267 135.049 68.2L134.889 68.712V68.2H136.713V70.648H139.225V72.6H134.889V68.712C134.452 70.0773 133.758 71.3733 132.809 72.6ZM141.465 66.008H143.545V70.312H147.305V64.856H141.977V58.744H144.041V62.792H147.305V57.96H149.385V62.792H152.649V58.744H154.713V64.856H149.385V70.312H153.145V66.008H155.225V72.392H141.465V66.008ZM172.025 58.36V60.296H167.289V61.16H171.097V67.672H167.353V72.6H165.481V67.672H161.609V61.16H165.305V60.296H160.329V64.776C160.329 66.2693 160.26 67.6453 160.121 68.904C159.993 70.1627 159.774 71.3947 159.465 72.6H157.305C157.678 71.3307 157.94 70.0987 158.089 68.904C158.238 67.6987 158.313 66.3227 158.313 64.776V58.36H172.025ZM161.113 72.456C161.614 70.9733 161.865 69.5547 161.865 68.2H163.721C163.721 69.6827 163.518 71.1013 163.113 72.456H161.113ZM169.081 66.008V65.176H163.625V66.008H169.081ZM169.081 63.672V62.84H163.625V63.672H169.081ZM170.969 68.2C170.969 69.5547 171.22 70.9733 171.721 72.456H169.721C169.316 71.1013 169.113 69.6827 169.113 68.2H170.969ZM174.009 72.6C174.521 71.512 174.878 70.4507 175.081 69.416C175.284 68.3813 175.385 67.2027 175.385 65.88H173.945V63.832H175.385V60.424H174.361V58.376H182.137V60.424H181.177V63.832H182.553V65.88H181.177V72.6H179.161V65.88H177.401C177.401 67.1173 177.31 68.2747 177.129 69.352C176.958 70.4187 176.686 71.5013 176.313 72.6H174.009ZM179.161 63.832V60.424H177.401V63.832H179.161ZM182.233 70.696C183.31 70.44 184.228 69.9867 184.985 69.336C185.742 68.6747 186.345 67.7893 186.793 66.68H188.825C187.908 70.072 185.71 72.0987 182.233 72.76V70.696ZM182.649 65.816C184.26 65.1973 185.518 64.152 186.425 62.68H188.681C187.518 65.304 185.508 67.096 182.649 68.056V65.816ZM182.649 61.352C184.217 60.712 185.444 59.6613 186.329 58.2H188.505C187.396 60.8027 185.444 62.5893 182.649 63.56V61.352ZM195.817 71.624H190.681V58.92H195.817V71.624ZM193.897 69.512V61.032H192.601V69.512H193.897ZM196.281 67.576H201.865V69.544H196.281V67.576ZM196.377 58.44H204.281L203.753 64.296H205.129L204.761 72.6H200.073V70.584H202.777L202.953 66.2H196.777L197.497 60.424H196.377V58.44ZM201.721 64.296L202.089 60.424H199.529L199.065 64.296H201.721Z" fill="#919191"/>
</svg>
