<svg width="250" height="75" viewBox="0 0 250 75" fill="none" xmlns="http://www.w3.org/2000/svg">
<path d="M71.7869 1.8V10.84H76.3149V13H69.1469V1.8H71.7869ZM80.5942 4.36V13H78.0342V4.36H80.5942ZM78.0342 0.695999H80.5942V3.256H78.0342V0.695999ZM86.3564 13.192C85.7057 13.224 85.0444 13.1707 84.3724 13.032C83.711 12.904 83.135 12.7013 82.6444 12.424V10.12C83.0817 10.44 83.6044 10.7067 84.2124 10.92C84.831 11.1227 85.375 11.208 85.8444 11.176C86.175 11.1547 86.415 11.0853 86.5644 10.968C86.7137 10.84 86.799 10.712 86.8204 10.584C86.8737 10.2533 86.7937 10.0027 86.5804 9.832C86.367 9.66133 85.967 9.496 85.3804 9.336C84.7297 9.15467 84.2124 8.94667 83.8284 8.712C83.4444 8.46667 83.151 8.19467 82.9484 7.896C82.7564 7.58667 82.6604 7.19733 82.6604 6.728C82.6604 6.23733 82.7884 5.8 83.0444 5.416C83.3004 5.02133 83.7057 4.712 84.2604 4.488C84.815 4.264 85.4124 4.152 86.0524 4.152C86.5324 4.152 87.0177 4.2 87.5084 4.296C87.999 4.38133 88.4097 4.49867 88.7404 4.648V6.712C88.399 6.54133 87.9937 6.392 87.5244 6.264C87.0657 6.12533 86.6657 6.056 86.3244 6.056C85.599 6.056 85.2044 6.248 85.1404 6.632C85.1084 6.856 85.2097 7.05333 85.4444 7.224C85.6897 7.39467 86.0364 7.54933 86.4844 7.688C87.1244 7.89067 87.647 8.09867 88.0524 8.312C88.4684 8.52533 88.7937 8.80267 89.0284 9.144C89.263 9.48533 89.3804 9.92267 89.3804 10.456C89.3804 11.2453 89.0977 11.8907 88.5324 12.392C87.967 12.8827 87.2417 13.1493 86.3564 13.192ZM91.6926 4.36V1.896H94.0926V4.36H95.7566V6.312H94.0926V10.024C94.0926 10.3333 94.114 10.568 94.1566 10.728C94.21 10.888 94.3006 11 94.4286 11.064C94.5566 11.1173 94.7433 11.144 94.9886 11.144C95.1486 11.144 95.282 11.1387 95.3886 11.128C95.506 11.1173 95.6073 11.1013 95.6926 11.08V13.048C95.2446 13.1013 94.8286 13.128 94.4446 13.128C93.7086 13.128 93.1593 13.0533 92.7966 12.904C92.434 12.7547 92.1566 12.4987 91.9646 12.136C91.7833 11.7627 91.6926 11.2347 91.6926 10.552V6.312H90.4446V4.36H91.6926ZM105.216 12.536C104.811 12.7813 104.336 12.9627 103.792 13.08C103.259 13.1973 102.741 13.256 102.24 13.256C100.533 13.256 99.2373 12.8507 98.352 12.04C97.4773 11.2293 97.04 10.0933 97.04 8.632C97.04 7.18133 97.4293 6.072 98.208 5.304C98.9973 4.52533 100.069 4.136 101.424 4.136C102.768 4.136 103.829 4.52533 104.608 5.304C105.397 6.072 105.792 7.18133 105.792 8.632C105.792 8.792 105.781 9.02133 105.76 9.32H99.536C99.7707 10.696 100.672 11.384 102.24 11.384C103.339 11.384 104.331 11.0587 105.216 10.408V12.536ZM103.376 7.528C103.237 6.99467 102.997 6.6 102.656 6.344C102.315 6.088 101.904 5.96 101.424 5.96C100.976 5.96 100.592 6.09333 100.272 6.36C99.9627 6.62667 99.744 7.016 99.616 7.528H103.376ZM110.119 4.328V5.368C110.513 5.02667 110.961 4.76 111.463 4.568C111.975 4.376 112.481 4.28 112.983 4.28C113.804 4.28 114.455 4.52 114.935 5C115.425 5.48 115.671 6.104 115.671 6.872V12.968H113.111V7.304C113.111 6.99467 112.983 6.744 112.727 6.552C112.471 6.34933 112.167 6.248 111.815 6.248C111.591 6.248 111.308 6.32267 110.967 6.472C110.636 6.62133 110.353 6.80267 110.119 7.016V12.968H107.559V4.328H110.119ZM123.066 4.36V1.896H125.466V4.36H127.13V6.312H125.466V10.024C125.466 10.3333 125.487 10.568 125.53 10.728C125.583 10.888 125.674 11 125.802 11.064C125.93 11.1173 126.116 11.144 126.362 11.144C126.522 11.144 126.655 11.1387 126.762 11.128C126.879 11.1173 126.98 11.1013 127.066 11.08V13.048C126.618 13.1013 126.202 13.128 125.818 13.128C125.082 13.128 124.532 13.0533 124.17 12.904C123.807 12.7547 123.53 12.4987 123.338 12.136C123.156 11.7627 123.066 11.2347 123.066 10.552V6.312H121.818V4.36H123.066ZM132.957 13.208C132.05 13.208 131.25 13.0213 130.557 12.648C129.874 12.2747 129.346 11.7467 128.973 11.064C128.6 10.3707 128.413 9.55467 128.413 8.616C128.413 7.176 128.818 6.072 129.629 5.304C130.44 4.536 131.549 4.152 132.957 4.152C134.354 4.152 135.458 4.536 136.269 5.304C137.08 6.072 137.485 7.176 137.485 8.616C137.485 9.55467 137.298 10.3707 136.925 11.064C136.552 11.7467 136.024 12.2747 135.341 12.648C134.658 13.0213 133.864 13.208 132.957 13.208ZM130.941 8.616C130.941 9.43733 131.128 10.0987 131.501 10.6C131.874 11.1013 132.36 11.352 132.957 11.352C133.554 11.352 134.034 11.1013 134.397 10.6C134.77 10.0987 134.957 9.43733 134.957 8.616C134.957 7.76267 134.776 7.11733 134.413 6.68C134.061 6.232 133.576 6.008 132.957 6.008C132.338 6.008 131.848 6.232 131.485 6.68C131.122 7.11733 130.941 7.76267 130.941 8.616ZM151.737 12.536C151.331 12.7813 150.857 12.9627 150.313 13.08C149.779 13.1973 149.262 13.256 148.761 13.256C147.054 13.256 145.758 12.8507 144.873 12.04C143.998 11.2293 143.561 10.0933 143.561 8.632C143.561 7.18133 143.95 6.072 144.729 5.304C145.518 4.52533 146.59 4.136 147.945 4.136C149.289 4.136 150.35 4.52533 151.129 5.304C151.918 6.072 152.313 7.18133 152.313 8.632C152.313 8.792 152.302 9.02133 152.281 9.32H146.057C146.291 10.696 147.193 11.384 148.761 11.384C149.859 11.384 150.851 11.0587 151.737 10.408V12.536ZM149.897 7.528C149.758 6.99467 149.518 6.6 149.177 6.344C148.835 6.088 148.425 5.96 147.945 5.96C147.497 5.96 147.113 6.09333 146.793 6.36C146.483 6.62667 146.265 7.016 146.137 7.528H149.897ZM157.759 13.208C156.949 13.208 156.239 13.016 155.631 12.632C155.034 12.248 154.57 11.72 154.239 11.048C153.919 10.376 153.759 9.592 153.759 8.696C153.759 7.81067 153.919 7.02667 154.239 6.344C154.57 5.65067 155.029 5.112 155.615 4.728C156.213 4.344 156.906 4.152 157.695 4.152C158.058 4.152 158.421 4.22133 158.783 4.36C159.157 4.488 159.503 4.66933 159.823 4.904V4.36H162.383V10.984C162.383 11.848 162.49 12.52 162.703 13H160.303C160.229 12.8507 160.165 12.6587 160.111 12.424C159.45 12.9467 158.666 13.208 157.759 13.208ZM156.207 8.696C156.207 9.18667 156.303 9.63467 156.495 10.04C156.698 10.4453 156.959 10.7707 157.279 11.016C157.61 11.2507 157.957 11.368 158.319 11.368C158.575 11.368 158.863 11.3147 159.183 11.208C159.503 11.0907 159.781 10.8453 160.015 10.472V6.888C159.781 6.51467 159.503 6.27467 159.183 6.168C158.874 6.06133 158.586 6.008 158.319 6.008C157.957 6.008 157.61 6.12533 157.279 6.36C156.959 6.59467 156.698 6.92 156.495 7.336C156.303 7.74133 156.207 8.19467 156.207 8.696ZM171.666 12.712C170.844 13.0427 170.002 13.208 169.138 13.208C168.231 13.208 167.394 13.0267 166.626 12.664C165.868 12.2907 165.266 11.768 164.818 11.096C164.37 10.4133 164.146 9.62933 164.146 8.744C164.146 7.816 164.359 7.00533 164.786 6.312C165.212 5.61867 165.794 5.09067 166.53 4.728C167.276 4.35467 168.108 4.168 169.026 4.168C169.858 4.168 170.7 4.31733 171.554 4.616V6.584C170.903 6.30667 170.236 6.168 169.554 6.168C168.711 6.168 168.012 6.37067 167.458 6.776C166.903 7.17067 166.626 7.82667 166.626 8.744C166.626 9.26667 166.77 9.70933 167.058 10.072C167.346 10.4347 167.719 10.712 168.178 10.904C168.636 11.0853 169.122 11.176 169.634 11.176C170.028 11.176 170.402 11.1227 170.754 11.016C171.116 10.8987 171.42 10.7387 171.666 10.536V12.712ZM175.99 0.712V5.288C176.374 4.968 176.801 4.72267 177.27 4.552C177.739 4.37067 178.214 4.28 178.694 4.28C179.515 4.28 180.166 4.52 180.646 5C181.137 5.48 181.382 6.104 181.382 6.872V13H178.822V7.304C178.822 6.99467 178.694 6.744 178.438 6.552C178.182 6.34933 177.878 6.248 177.526 6.248C177.323 6.248 177.073 6.312 176.774 6.44C176.475 6.568 176.214 6.728 175.99 6.92V13H173.43V0.712H175.99ZM8.19844 41.712C7.37711 42.0427 6.53444 42.208 5.67044 42.208C4.76377 42.208 3.92644 42.0267 3.15844 41.664C2.40111 41.2907 1.79844 40.768 1.35044 40.096C0.902441 39.4133 0.678441 38.6293 0.678441 37.744C0.678441 36.816 0.891774 36.0053 1.31844 35.312C1.74511 34.6187 2.32644 34.0907 3.06244 33.728C3.80911 33.3547 4.64111 33.168 5.55844 33.168C6.39044 33.168 7.23311 33.3173 8.08644 33.616V35.584C7.43577 35.3067 6.76911 35.168 6.08644 35.168C5.24377 35.168 4.54511 35.3707 3.99044 35.776C3.43577 36.1707 3.15844 36.8267 3.15844 37.744C3.15844 38.2667 3.30244 38.7093 3.59044 39.072C3.87844 39.4347 4.25177 39.712 4.71044 39.904C5.16911 40.0853 5.65444 40.176 6.16644 40.176C6.56111 40.176 6.93444 40.1227 7.28644 40.016C7.64911 39.8987 7.95311 39.7387 8.19844 39.536V41.712ZM14.1868 42.208C13.2801 42.208 12.4801 42.0213 11.7868 41.648C11.1041 41.2747 10.5761 40.7467 10.2028 40.064C9.82948 39.3707 9.64282 38.5547 9.64282 37.616C9.64282 36.176 10.0481 35.072 10.8588 34.304C11.6695 33.536 12.7788 33.152 14.1868 33.152C15.5841 33.152 16.6881 33.536 17.4988 34.304C18.3095 35.072 18.7148 36.176 18.7148 37.616C18.7148 38.5547 18.5281 39.3707 18.1548 40.064C17.7815 40.7467 17.2535 41.2747 16.5708 41.648C15.8881 42.0213 15.0935 42.208 14.1868 42.208ZM12.1708 37.616C12.1708 38.4373 12.3575 39.0987 12.7308 39.6C13.1041 40.1013 13.5895 40.352 14.1868 40.352C14.7841 40.352 15.2641 40.1013 15.6268 39.6C16.0001 39.0987 16.1868 38.4373 16.1868 37.616C16.1868 36.7627 16.0055 36.1173 15.6428 35.68C15.2908 35.232 14.8055 35.008 14.1868 35.008C13.5681 35.008 13.0775 35.232 12.7148 35.68C12.3521 36.1173 12.1708 36.7627 12.1708 37.616ZM23.0341 33.328V34.368C23.4287 34.0267 23.8767 33.76 24.3781 33.568C24.8901 33.376 25.3967 33.28 25.8981 33.28C26.7194 33.28 27.3701 33.52 27.8501 34C28.3407 34.48 28.5861 35.104 28.5861 35.872V41.968H26.0261V36.304C26.0261 35.9947 25.8981 35.744 25.6421 35.552C25.3861 35.3493 25.0821 35.248 24.7301 35.248C24.5061 35.248 24.2234 35.3227 23.8821 35.472C23.5514 35.6213 23.2687 35.8027 23.0341 36.016V41.968H20.4741V33.328H23.0341ZM29.9528 33.36H32.5448L34.6088 40.432H34.6888L36.7688 33.36H39.3448L36.6088 42H32.6888L29.9528 33.36ZM48.2432 41.536C47.8379 41.7813 47.3632 41.9627 46.8192 42.08C46.2859 42.1973 45.7685 42.256 45.2672 42.256C43.5605 42.256 42.2645 41.8507 41.3792 41.04C40.5045 40.2293 40.0672 39.0933 40.0672 37.632C40.0672 36.1813 40.4565 35.072 41.2352 34.304C42.0245 33.5253 43.0965 33.136 44.4512 33.136C45.7952 33.136 46.8565 33.5253 47.6352 34.304C48.4245 35.072 48.8192 36.1813 48.8192 37.632C48.8192 37.792 48.8085 38.0213 48.7872 38.32H42.5632C42.7979 39.696 43.6992 40.384 45.2672 40.384C46.3659 40.384 47.3579 40.0587 48.2432 39.408V41.536ZM46.4032 36.528C46.2645 35.9947 46.0245 35.6 45.6832 35.344C45.3419 35.088 44.9312 34.96 44.4512 34.96C44.0032 34.96 43.6192 35.0933 43.2992 35.36C42.9899 35.6267 42.7712 36.016 42.6432 36.528H46.4032ZM53.1459 33.36V34.288C53.4233 33.9893 53.7539 33.76 54.1379 33.6C54.5326 33.4293 54.9219 33.344 55.3059 33.344C55.5726 33.344 55.8233 33.3813 56.0579 33.456V35.424C55.7593 35.3493 55.4766 35.312 55.2099 35.312C54.8046 35.312 54.4206 35.3813 54.0579 35.52C53.6953 35.648 53.3913 35.856 53.1459 36.144V42H50.5859V33.36H53.1459ZM61.0692 42.192C60.4185 42.224 59.7572 42.1707 59.0852 42.032C58.4239 41.904 57.8479 41.7013 57.3572 41.424V39.12C57.7945 39.44 58.3172 39.7067 58.9252 39.92C59.5439 40.1227 60.0879 40.208 60.5572 40.176C60.8879 40.1547 61.1279 40.0853 61.2772 39.968C61.4265 39.84 61.5119 39.712 61.5332 39.584C61.5865 39.2533 61.5065 39.0027 61.2932 38.832C61.0799 38.6613 60.6799 38.496 60.0932 38.336C59.4425 38.1547 58.9252 37.9467 58.5412 37.712C58.1572 37.4667 57.8639 37.1947 57.6612 36.896C57.4692 36.5867 57.3732 36.1973 57.3732 35.728C57.3732 35.2373 57.5012 34.8 57.7572 34.416C58.0132 34.0213 58.4185 33.712 58.9732 33.488C59.5279 33.264 60.1252 33.152 60.7652 33.152C61.2452 33.152 61.7305 33.2 62.2212 33.296C62.7119 33.3813 63.1225 33.4987 63.4532 33.648V35.712C63.1119 35.5413 62.7065 35.392 62.2372 35.264C61.7785 35.1253 61.3785 35.056 61.0372 35.056C60.3119 35.056 59.9172 35.248 59.8532 35.632C59.8212 35.856 59.9225 36.0533 60.1572 36.224C60.4025 36.3947 60.7492 36.5493 61.1972 36.688C61.8372 36.8907 62.3599 37.0987 62.7652 37.312C63.1812 37.5253 63.5065 37.8027 63.7412 38.144C63.9759 38.4853 64.0932 38.9227 64.0932 39.456C64.0932 40.2453 63.8105 40.8907 63.2452 41.392C62.6799 41.8827 61.9545 42.1493 61.0692 42.192ZM69.4134 42.208C68.6028 42.208 67.8934 42.016 67.2854 41.632C66.6881 41.248 66.2241 40.72 65.8934 40.048C65.5734 39.376 65.4134 38.592 65.4134 37.696C65.4134 36.8107 65.5734 36.0267 65.8934 35.344C66.2241 34.6507 66.6828 34.112 67.2694 33.728C67.8668 33.344 68.5601 33.152 69.3494 33.152C69.7121 33.152 70.0748 33.2213 70.4374 33.36C70.8108 33.488 71.1574 33.6693 71.4774 33.904V33.36H74.0374V39.984C74.0374 40.848 74.1441 41.52 74.3574 42H71.9574C71.8828 41.8507 71.8188 41.6587 71.7654 41.424C71.1041 41.9467 70.3201 42.208 69.4134 42.208ZM67.8614 37.696C67.8614 38.1867 67.9574 38.6347 68.1494 39.04C68.3521 39.4453 68.6134 39.7707 68.9334 40.016C69.2641 40.2507 69.6108 40.368 69.9734 40.368C70.2294 40.368 70.5174 40.3147 70.8374 40.208C71.1574 40.0907 71.4348 39.8453 71.6694 39.472V35.888C71.4348 35.5147 71.1574 35.2747 70.8374 35.168C70.5281 35.0613 70.2401 35.008 69.9734 35.008C69.6108 35.008 69.2641 35.1253 68.9334 35.36C68.6134 35.5947 68.3521 35.92 68.1494 36.336C67.9574 36.7413 67.8614 37.1947 67.8614 37.696ZM76.7917 33.36V30.896H79.1917V33.36H80.8557V35.312H79.1917V39.024C79.1917 39.3333 79.213 39.568 79.2557 39.728C79.309 39.888 79.3997 40 79.5277 40.064C79.6557 40.1173 79.8424 40.144 80.0877 40.144C80.2477 40.144 80.381 40.1387 80.4877 40.128C80.605 40.1173 80.7064 40.1013 80.7917 40.08V42.048C80.3437 42.1013 79.9277 42.128 79.5437 42.128C78.8077 42.128 78.2584 42.0533 77.8957 41.904C77.533 41.7547 77.2557 41.4987 77.0637 41.136C76.8824 40.7627 76.7917 40.2347 76.7917 39.552V35.312H75.5437V33.36H76.7917ZM85.2271 33.36V42H82.6671V33.36H85.2271ZM82.6671 29.696H85.2271V32.256H82.6671V29.696ZM91.7412 42.208C90.8345 42.208 90.0345 42.0213 89.3412 41.648C88.6585 41.2747 88.1305 40.7467 87.7572 40.064C87.3839 39.3707 87.1972 38.5547 87.1972 37.616C87.1972 36.176 87.6025 35.072 88.4132 34.304C89.2239 33.536 90.3332 33.152 91.7412 33.152C93.1385 33.152 94.2425 33.536 95.0532 34.304C95.8639 35.072 96.2692 36.176 96.2692 37.616C96.2692 38.5547 96.0825 39.3707 95.7092 40.064C95.3359 40.7467 94.8079 41.2747 94.1252 41.648C93.4425 42.0213 92.6479 42.208 91.7412 42.208ZM89.7252 37.616C89.7252 38.4373 89.9119 39.0987 90.2852 39.6C90.6585 40.1013 91.1439 40.352 91.7412 40.352C92.3385 40.352 92.8185 40.1013 93.1812 39.6C93.5545 39.0987 93.7412 38.4373 93.7412 37.616C93.7412 36.7627 93.5599 36.1173 93.1972 35.68C92.8452 35.232 92.3599 35.008 91.7412 35.008C91.1225 35.008 90.6319 35.232 90.2692 35.68C89.9065 36.1173 89.7252 36.7627 89.7252 37.616ZM100.588 33.328V34.368C100.983 34.0267 101.431 33.76 101.932 33.568C102.444 33.376 102.951 33.28 103.452 33.28C104.274 33.28 104.924 33.52 105.404 34C105.895 34.48 106.14 35.104 106.14 35.872V41.968H103.58V36.304C103.58 35.9947 103.452 35.744 103.196 35.552C102.94 35.3493 102.636 35.248 102.284 35.248C102.06 35.248 101.778 35.3227 101.436 35.472C101.106 35.6213 100.823 35.8027 100.588 36.016V41.968H98.0284V33.328H100.588ZM116.543 42.208C115.733 42.208 115.023 42.016 114.415 41.632C113.818 41.248 113.354 40.72 113.023 40.048C112.703 39.376 112.543 38.592 112.543 37.696C112.543 36.8107 112.703 36.0267 113.023 35.344C113.354 34.6507 113.813 34.112 114.399 33.728C114.997 33.344 115.69 33.152 116.479 33.152C116.842 33.152 117.205 33.2213 117.567 33.36C117.941 33.488 118.287 33.6693 118.607 33.904V33.36H121.167V39.984C121.167 40.848 121.274 41.52 121.487 42H119.087C119.013 41.8507 118.949 41.6587 118.895 41.424C118.234 41.9467 117.45 42.208 116.543 42.208ZM114.991 37.696C114.991 38.1867 115.087 38.6347 115.279 39.04C115.482 39.4453 115.743 39.7707 116.063 40.016C116.394 40.2507 116.741 40.368 117.103 40.368C117.359 40.368 117.647 40.3147 117.967 40.208C118.287 40.0907 118.565 39.8453 118.799 39.472V35.888C118.565 35.5147 118.287 35.2747 117.967 35.168C117.658 35.0613 117.37 35.008 117.103 35.008C116.741 35.008 116.394 35.1253 116.063 35.36C115.743 35.5947 115.482 35.92 115.279 36.336C115.087 36.7413 114.991 37.1947 114.991 37.696ZM125.81 33.328V34.368C126.204 34.0267 126.652 33.76 127.154 33.568C127.666 33.376 128.172 33.28 128.674 33.28C129.495 33.28 130.146 33.52 130.626 34C131.116 34.48 131.362 35.104 131.362 35.872V41.968H128.802V36.304C128.802 35.9947 128.674 35.744 128.418 35.552C128.162 35.3493 127.858 35.248 127.506 35.248C127.282 35.248 126.999 35.3227 126.658 35.472C126.327 35.6213 126.044 35.8027 125.81 36.016V41.968H123.25V33.328H125.81ZM137.064 42.208C136.275 42.208 135.582 42.0213 134.984 41.648C134.387 41.264 133.928 40.7307 133.608 40.048C133.288 39.3653 133.128 38.5867 133.128 37.712C133.128 36.8267 133.288 36.0427 133.608 35.36C133.939 34.6667 134.398 34.128 134.984 33.744C135.582 33.36 136.275 33.168 137.064 33.168C137.427 33.168 137.79 33.232 138.152 33.36C138.526 33.488 138.872 33.6747 139.192 33.92V29.696H141.752V40C141.752 40.8533 141.859 41.52 142.072 42H139.672C139.598 41.8507 139.534 41.6587 139.48 41.424C138.808 41.9467 138.003 42.208 137.064 42.208ZM135.576 37.712C135.576 38.2027 135.672 38.6507 135.864 39.056C136.067 39.4613 136.328 39.7867 136.648 40.032C136.979 40.2667 137.326 40.384 137.688 40.384C137.976 40.384 138.291 40.3147 138.632 40.176C138.984 40.0373 139.272 39.7493 139.496 39.312V36.096C139.272 35.648 138.984 35.3547 138.632 35.216C138.291 35.0773 137.976 35.008 137.688 35.008C137.326 35.008 136.979 35.1253 136.648 35.36C136.328 35.5947 136.067 35.92 135.864 36.336C135.672 36.752 135.576 37.2107 135.576 37.712ZM152.087 42.208C151.298 42.208 150.604 42.0213 150.007 41.648C149.41 41.264 148.951 40.7307 148.631 40.048C148.311 39.3653 148.151 38.5867 148.151 37.712C148.151 36.8267 148.311 36.0427 148.631 35.36C148.962 34.6667 149.42 34.128 150.007 33.744C150.604 33.36 151.298 33.168 152.087 33.168C152.45 33.168 152.812 33.232 153.175 33.36C153.548 33.488 153.895 33.6747 154.215 33.92V29.696H156.775V40C156.775 40.8533 156.882 41.52 157.095 42H154.695C154.62 41.8507 154.556 41.6587 154.503 41.424C153.831 41.9467 153.026 42.208 152.087 42.208ZM150.599 37.712C150.599 38.2027 150.695 38.6507 150.887 39.056C151.09 39.4613 151.351 39.7867 151.671 40.032C152.002 40.2667 152.348 40.384 152.711 40.384C152.999 40.384 153.314 40.3147 153.655 40.176C154.007 40.0373 154.295 39.7493 154.519 39.312V36.096C154.295 35.648 154.007 35.3547 153.655 35.216C153.314 35.0773 152.999 35.008 152.711 35.008C152.348 35.008 152.002 35.1253 151.671 35.36C151.351 35.5947 151.09 35.92 150.887 36.336C150.695 36.752 150.599 37.2107 150.599 37.712ZM166.713 41.536C166.308 41.7813 165.833 41.9627 165.289 42.08C164.756 42.1973 164.239 42.256 163.737 42.256C162.031 42.256 160.735 41.8507 159.849 41.04C158.975 40.2293 158.537 39.0933 158.537 37.632C158.537 36.1813 158.927 35.072 159.705 34.304C160.495 33.5253 161.567 33.136 162.921 33.136C164.265 33.136 165.327 33.5253 166.105 34.304C166.895 35.072 167.289 36.1813 167.289 37.632C167.289 37.792 167.279 38.0213 167.257 38.32H161.033C161.268 39.696 162.169 40.384 163.737 40.384C164.836 40.384 165.828 40.0587 166.713 39.408V41.536ZM164.873 36.528C164.735 35.9947 164.495 35.6 164.153 35.344C163.812 35.088 163.401 34.96 162.921 34.96C162.473 34.96 162.089 35.0933 161.769 35.36C161.46 35.6267 161.241 36.016 161.113 36.528H164.873ZM176.256 41.712C175.435 42.0427 174.592 42.208 173.728 42.208C172.821 42.208 171.984 42.0267 171.216 41.664C170.459 41.2907 169.856 40.768 169.408 40.096C168.96 39.4133 168.736 38.6293 168.736 37.744C168.736 36.816 168.949 36.0053 169.376 35.312C169.803 34.6187 170.384 34.0907 171.12 33.728C171.867 33.3547 172.699 33.168 173.616 33.168C174.448 33.168 175.291 33.3173 176.144 33.616V35.584C175.493 35.3067 174.827 35.168 174.144 35.168C173.301 35.168 172.603 35.3707 172.048 35.776C171.493 36.1707 171.216 36.8267 171.216 37.744C171.216 38.2667 171.36 38.7093 171.648 39.072C171.936 39.4347 172.309 39.712 172.768 39.904C173.227 40.0853 173.712 40.176 174.224 40.176C174.619 40.176 174.992 40.1227 175.344 40.016C175.707 39.8987 176.011 39.7387 176.256 39.536V41.712ZM180.788 33.36V42H178.228V33.36H180.788ZM178.228 29.696H180.788V32.256H178.228V29.696ZM186.694 42.208C185.905 42.208 185.212 42.0213 184.614 41.648C184.017 41.264 183.558 40.7307 183.238 40.048C182.918 39.3653 182.758 38.5867 182.758 37.712C182.758 36.8267 182.918 36.0427 183.238 35.36C183.569 34.6667 184.028 34.128 184.614 33.744C185.212 33.36 185.905 33.168 186.694 33.168C187.057 33.168 187.42 33.232 187.782 33.36C188.156 33.488 188.502 33.6747 188.822 33.92V29.696H191.382V40C191.382 40.8533 191.489 41.52 191.702 42H189.302C189.228 41.8507 189.164 41.6587 189.11 41.424C188.438 41.9467 187.633 42.208 186.694 42.208ZM185.206 37.712C185.206 38.2027 185.302 38.6507 185.494 39.056C185.697 39.4613 185.958 39.7867 186.278 40.032C186.609 40.2667 186.956 40.384 187.318 40.384C187.606 40.384 187.921 40.3147 188.262 40.176C188.614 40.0373 188.902 39.7493 189.126 39.312V36.096C188.902 35.648 188.614 35.3547 188.262 35.216C187.921 35.0773 187.606 35.008 187.318 35.008C186.956 35.008 186.609 35.1253 186.278 35.36C185.958 35.5947 185.697 35.92 185.494 36.336C185.302 36.752 185.206 37.2107 185.206 37.712ZM201.321 41.536C200.915 41.7813 200.441 41.9627 199.897 42.08C199.363 42.1973 198.846 42.256 198.345 42.256C196.638 42.256 195.342 41.8507 194.457 41.04C193.582 40.2293 193.145 39.0933 193.145 37.632C193.145 36.1813 193.534 35.072 194.313 34.304C195.102 33.5253 196.174 33.136 197.529 33.136C198.873 33.136 199.934 33.5253 200.713 34.304C201.502 35.072 201.897 36.1813 201.897 37.632C201.897 37.792 201.886 38.0213 201.865 38.32H195.641C195.875 39.696 196.777 40.384 198.345 40.384C199.443 40.384 200.435 40.0587 201.321 39.408V41.536ZM199.481 36.528C199.342 35.9947 199.102 35.6 198.761 35.344C198.419 35.088 198.009 34.96 197.529 34.96C197.081 34.96 196.697 35.0933 196.377 35.36C196.067 35.6267 195.849 36.016 195.721 36.528H199.481ZM211.068 33.36V42H208.508V33.36H211.068ZM208.508 29.696H211.068V32.256H208.508V29.696ZM214.19 35.312H212.67V33.36H214.19V32.224C214.19 31.5413 214.28 31.0187 214.462 30.656C214.654 30.2827 214.974 30.0213 215.422 29.872C215.88 29.7227 216.478 29.648 217.214 29.648C217.438 29.648 217.678 29.6587 217.934 29.68C218.19 29.6907 218.419 29.7067 218.622 29.728V31.664C218.536 31.6427 218.392 31.6267 218.19 31.616C217.987 31.6053 217.806 31.6 217.646 31.6C217.4 31.6 217.214 31.632 217.086 31.696C216.958 31.7493 216.867 31.856 216.814 32.016C216.771 32.176 216.75 32.4107 216.75 32.72V33.36H218.862V35.312H216.75V42H214.19V35.312ZM225.552 33.36V30.896H227.952V33.36H229.616V35.312H227.952V39.024C227.952 39.3333 227.974 39.568 228.016 39.728C228.07 39.888 228.16 40 228.288 40.064C228.416 40.1173 228.603 40.144 228.848 40.144C229.008 40.144 229.142 40.1387 229.248 40.128C229.366 40.1173 229.467 40.1013 229.552 40.08V42.048C229.104 42.1013 228.688 42.128 228.304 42.128C227.568 42.128 227.019 42.0533 226.656 41.904C226.294 41.7547 226.016 41.4987 225.824 41.136C225.643 40.7627 225.552 40.2347 225.552 39.552V35.312H224.304V33.36H225.552ZM233.78 29.712V34.288C234.164 33.968 234.59 33.7227 235.06 33.552C235.529 33.3707 236.004 33.28 236.484 33.28C237.305 33.28 237.956 33.52 238.436 34C238.926 34.48 239.172 35.104 239.172 35.872V42H236.612V36.304C236.612 35.9947 236.484 35.744 236.228 35.552C235.972 35.3493 235.668 35.248 235.316 35.248C235.113 35.248 234.862 35.312 234.564 35.44C234.265 35.568 234.004 35.728 233.78 35.92V42H231.22V29.712H233.78ZM249.103 41.536C248.697 41.7813 248.223 41.9627 247.679 42.08C247.145 42.1973 246.628 42.256 246.127 42.256C244.42 42.256 243.124 41.8507 242.239 41.04C241.364 40.2293 240.927 39.0933 240.927 37.632C240.927 36.1813 241.316 35.072 242.095 34.304C242.884 33.5253 243.956 33.136 245.311 33.136C246.655 33.136 247.716 33.5253 248.495 34.304C249.284 35.072 249.679 36.1813 249.679 37.632C249.679 37.792 249.668 38.0213 249.647 38.32H243.423C243.657 39.696 244.559 40.384 246.127 40.384C247.225 40.384 248.217 40.0587 249.103 39.408V41.536ZM247.263 36.528C247.124 35.9947 246.884 35.6 246.543 35.344C246.201 35.088 245.791 34.96 245.311 34.96C244.863 34.96 244.479 35.0933 244.159 35.36C243.849 35.6267 243.631 36.016 243.503 36.528H247.263ZM38.3023 71.192C37.6516 71.224 36.9903 71.1707 36.3183 71.032C35.657 70.904 35.081 70.7013 34.5903 70.424V68.12C35.0276 68.44 35.5503 68.7067 36.1583 68.92C36.777 69.1227 37.321 69.208 37.7903 69.176C38.121 69.1547 38.361 69.0853 38.5103 68.968C38.6596 68.84 38.745 68.712 38.7663 68.584C38.8196 68.2533 38.7396 68.0027 38.5263 67.832C38.313 67.6613 37.913 67.496 37.3263 67.336C36.6756 67.1547 36.1583 66.9467 35.7743 66.712C35.3903 66.4667 35.097 66.1947 34.8943 65.896C34.7023 65.5867 34.6063 65.1973 34.6063 64.728C34.6063 64.2373 34.7343 63.8 34.9903 63.416C35.2463 63.0213 35.6516 62.712 36.2063 62.488C36.761 62.264 37.3583 62.152 37.9983 62.152C38.4783 62.152 38.9636 62.2 39.4543 62.296C39.945 62.3813 40.3556 62.4987 40.6863 62.648V64.712C40.345 64.5413 39.9396 64.392 39.4703 64.264C39.0116 64.1253 38.6116 64.056 38.2703 64.056C37.545 64.056 37.1503 64.248 37.0863 64.632C37.0543 64.856 37.1556 65.0533 37.3903 65.224C37.6356 65.3947 37.9823 65.5493 38.4303 65.688C39.0703 65.8907 39.593 66.0987 39.9983 66.312C40.4143 66.5253 40.7396 66.8027 40.9743 67.144C41.209 67.4853 41.3263 67.9227 41.3263 68.456C41.3263 69.2453 41.0436 69.8907 40.4783 70.392C39.913 70.8827 39.1876 71.1493 38.3023 71.192ZM42.6466 74.648C42.7746 74.2853 42.8599 73.7787 42.9026 73.128C42.9452 72.4773 42.9666 71.8853 42.9666 71.352V62.36H45.5266V63.16C45.8786 62.84 46.2626 62.5947 46.6786 62.424C47.1052 62.2427 47.5319 62.152 47.9586 62.152C48.7479 62.152 49.4359 62.344 50.0226 62.728C50.6199 63.112 51.0786 63.6507 51.3986 64.344C51.7292 65.0267 51.8946 65.8107 51.8946 66.696C51.8946 67.5813 51.7346 68.3653 51.4146 69.048C51.0946 69.72 50.6359 70.248 50.0386 70.632C49.4412 71.016 48.7479 71.208 47.9586 71.208C46.9986 71.208 46.1879 70.9307 45.5266 70.376V71.352C45.5266 71.9173 45.4946 72.52 45.4306 73.16C45.3772 73.8107 45.3026 74.3067 45.2066 74.648H42.6466ZM45.5266 68.296C45.7506 68.7333 46.0332 69.0213 46.3746 69.16C46.7266 69.2987 47.0466 69.368 47.3346 69.368C47.6972 69.368 48.0386 69.2507 48.3586 69.016C48.6892 68.7707 48.9506 68.4453 49.1426 68.04C49.3452 67.6347 49.4466 67.1867 49.4466 66.696C49.4466 66.1947 49.3452 65.7413 49.1426 65.336C48.9506 64.92 48.6892 64.5947 48.3586 64.36C48.0386 64.1253 47.6972 64.008 47.3346 64.008C47.0466 64.008 46.7266 64.0773 46.3746 64.216C46.0332 64.3547 45.7506 64.6427 45.5266 65.08V68.296ZM61.4276 70.536C61.0222 70.7813 60.5476 70.9627 60.0036 71.08C59.4702 71.1973 58.9529 71.256 58.4516 71.256C56.7449 71.256 55.4489 70.8507 54.5636 70.04C53.6889 69.2293 53.2516 68.0933 53.2516 66.632C53.2516 65.1813 53.6409 64.072 54.4196 63.304C55.2089 62.5253 56.2809 62.136 57.6356 62.136C58.9796 62.136 60.0409 62.5253 60.8196 63.304C61.6089 64.072 62.0036 65.1813 62.0036 66.632C62.0036 66.792 61.9929 67.0213 61.9716 67.32H55.7476C55.9822 68.696 56.8836 69.384 58.4516 69.384C59.5502 69.384 60.5422 69.0587 61.4276 68.408V70.536ZM59.5876 65.528C59.4489 64.9947 59.2089 64.6 58.8676 64.344C58.5262 64.088 58.1156 63.96 57.6356 63.96C57.1876 63.96 56.8036 64.0933 56.4836 64.36C56.1742 64.6267 55.9556 65.016 55.8276 65.528H59.5876ZM67.4503 71.208C66.6396 71.208 65.9303 71.016 65.3223 70.632C64.725 70.248 64.261 69.72 63.9303 69.048C63.6103 68.376 63.4503 67.592 63.4503 66.696C63.4503 65.8107 63.6103 65.0267 63.9303 64.344C64.261 63.6507 64.7196 63.112 65.3063 62.728C65.9036 62.344 66.597 62.152 67.3863 62.152C67.749 62.152 68.1116 62.2213 68.4743 62.36C68.8476 62.488 69.1943 62.6693 69.5143 62.904V62.36H72.0743V68.984C72.0743 69.848 72.181 70.52 72.3943 71H69.9943C69.9196 70.8507 69.8556 70.6587 69.8023 70.424C69.141 70.9467 68.357 71.208 67.4503 71.208ZM65.8983 66.696C65.8983 67.1867 65.9943 67.6347 66.1863 68.04C66.389 68.4453 66.6503 68.7707 66.9703 69.016C67.301 69.2507 67.6476 69.368 68.0103 69.368C68.2663 69.368 68.5543 69.3147 68.8743 69.208C69.1943 69.0907 69.4716 68.8453 69.7063 68.472V64.888C69.4716 64.5147 69.1943 64.2747 68.8743 64.168C68.565 64.0613 68.277 64.008 68.0103 64.008C67.6476 64.008 67.301 64.1253 66.9703 64.36C66.6503 64.5947 66.389 64.92 66.1863 65.336C65.9943 65.7413 65.8983 66.1947 65.8983 66.696ZM74.1566 71V58.696H76.7166V65.176H77.1006L79.0846 62.36H81.7566L78.9886 66.136C79.5752 66.6907 80.1032 67.3627 80.5726 68.152C81.0419 68.9413 81.5112 69.8907 81.9806 71H79.5646C79.0952 69.976 78.7006 69.1973 78.3806 68.664C78.0712 68.12 77.6659 67.624 77.1646 67.176H76.7166V71H74.1566ZM90.9613 70.536C90.556 70.7813 90.0813 70.9627 89.5373 71.08C89.004 71.1973 88.4866 71.256 87.9853 71.256C86.2786 71.256 84.9826 70.8507 84.0973 70.04C83.2226 69.2293 82.7853 68.0933 82.7853 66.632C82.7853 65.1813 83.1746 64.072 83.9533 63.304C84.7426 62.5253 85.8146 62.136 87.1693 62.136C88.5133 62.136 89.5746 62.5253 90.3533 63.304C91.1426 64.072 91.5373 65.1813 91.5373 66.632C91.5373 66.792 91.5266 67.0213 91.5053 67.32H85.2813C85.516 68.696 86.4173 69.384 87.9853 69.384C89.084 69.384 90.076 69.0587 90.9613 68.408V70.536ZM89.1213 65.528C88.9826 64.9947 88.7426 64.6 88.4013 64.344C88.06 64.088 87.6493 63.96 87.1693 63.96C86.7213 63.96 86.3373 64.0933 86.0173 64.36C85.708 64.6267 85.4893 65.016 85.3613 65.528H89.1213ZM95.8641 62.36V63.288C96.1414 62.9893 96.4721 62.76 96.8561 62.6C97.2507 62.4293 97.6401 62.344 98.0241 62.344C98.2907 62.344 98.5414 62.3813 98.7761 62.456V64.424C98.4774 64.3493 98.1947 64.312 97.9281 64.312C97.5227 64.312 97.1387 64.3813 96.7761 64.52C96.4134 64.648 96.1094 64.856 95.8641 65.144V71H93.3041V62.36H95.8641ZM107.72 62.36V71H105.16V62.36H107.72ZM105.16 58.696H107.72V61.256H105.16V58.696ZM113.482 71.192C112.831 71.224 112.17 71.1707 111.498 71.032C110.836 70.904 110.26 70.7013 109.77 70.424V68.12C110.207 68.44 110.73 68.7067 111.338 68.92C111.956 69.1227 112.5 69.208 112.97 69.176C113.3 69.1547 113.54 69.0853 113.69 68.968C113.839 68.84 113.924 68.712 113.946 68.584C113.999 68.2533 113.919 68.0027 113.706 67.832C113.492 67.6613 113.092 67.496 112.506 67.336C111.855 67.1547 111.338 66.9467 110.954 66.712C110.57 66.4667 110.276 66.1947 110.074 65.896C109.882 65.5867 109.786 65.1973 109.786 64.728C109.786 64.2373 109.914 63.8 110.17 63.416C110.426 63.0213 110.831 62.712 111.386 62.488C111.94 62.264 112.538 62.152 113.178 62.152C113.658 62.152 114.143 62.2 114.634 62.296C115.124 62.3813 115.535 62.4987 115.866 62.648V64.712C115.524 64.5413 115.119 64.392 114.65 64.264C114.191 64.1253 113.791 64.056 113.45 64.056C112.724 64.056 112.33 64.248 112.266 64.632C112.234 64.856 112.335 65.0533 112.57 65.224C112.815 65.3947 113.162 65.5493 113.61 65.688C114.25 65.8907 114.772 66.0987 115.178 66.312C115.594 66.5253 115.919 66.8027 116.154 67.144C116.388 67.4853 116.506 67.9227 116.506 68.456C116.506 69.2453 116.223 69.8907 115.658 70.392C115.092 70.8827 114.367 71.1493 113.482 71.192ZM125.342 58.712V63.288C125.726 62.968 126.153 62.7227 126.622 62.552C127.092 62.3707 127.566 62.28 128.046 62.28C128.868 62.28 129.518 62.52 129.998 63C130.489 63.48 130.734 64.104 130.734 64.872V71H128.174V65.304C128.174 64.9947 128.046 64.744 127.79 64.552C127.534 64.3493 127.23 64.248 126.878 64.248C126.676 64.248 126.425 64.312 126.126 64.44C125.828 64.568 125.566 64.728 125.342 64.92V71H122.782V58.712H125.342ZM138.825 71.016C138.654 70.696 138.553 70.3547 138.521 69.992C138.126 70.344 137.652 70.6373 137.097 70.872C136.553 71.096 136.014 71.208 135.481 71.208C134.66 71.208 134.004 70.968 133.513 70.488C133.033 70.008 132.793 69.3893 132.793 68.632V62.36H135.353V68.2C135.353 68.5093 135.454 68.7653 135.657 68.968C135.87 69.16 136.148 69.256 136.489 69.256C136.713 69.256 137.012 69.176 137.385 69.016C137.769 68.856 138.089 68.68 138.345 68.488V62.36H140.905V69.352C140.905 69.704 140.926 70.0027 140.969 70.248C141.012 70.4827 141.097 70.7387 141.225 71.016H138.825ZM145.552 62.344V63.256C145.936 62.9467 146.363 62.7067 146.832 62.536C147.302 62.3653 147.776 62.28 148.256 62.28C148.736 62.28 149.152 62.3707 149.504 62.552C149.856 62.7227 150.134 62.9627 150.336 63.272C150.731 62.952 151.163 62.7067 151.632 62.536C152.102 62.3653 152.576 62.28 153.056 62.28C153.867 62.28 154.491 62.52 154.928 63C155.366 63.48 155.584 64.104 155.584 64.872V71H153.024V65.304C153.024 64.9947 152.918 64.744 152.704 64.552C152.502 64.3493 152.23 64.248 151.888 64.248C151.739 64.248 151.563 64.28 151.36 64.344C151.158 64.408 150.96 64.4933 150.768 64.6C150.779 64.664 150.784 64.7547 150.784 64.872V71H148.224V65.304C148.224 64.9947 148.118 64.744 147.904 64.552C147.702 64.3493 147.43 64.248 147.088 64.248C146.886 64.248 146.635 64.3067 146.336 64.424C146.038 64.5413 145.776 64.696 145.552 64.888V71H142.992V62.344H145.552ZM161.34 71.208C160.529 71.208 159.82 71.016 159.212 70.632C158.614 70.248 158.15 69.72 157.82 69.048C157.5 68.376 157.34 67.592 157.34 66.696C157.34 65.8107 157.5 65.0267 157.82 64.344C158.15 63.6507 158.609 63.112 159.196 62.728C159.793 62.344 160.486 62.152 161.276 62.152C161.638 62.152 162.001 62.2213 162.364 62.36C162.737 62.488 163.084 62.6693 163.404 62.904V62.36H165.964V68.984C165.964 69.848 166.07 70.52 166.284 71H163.884C163.809 70.8507 163.745 70.6587 163.692 70.424C163.03 70.9467 162.246 71.208 161.34 71.208ZM159.788 66.696C159.788 67.1867 159.884 67.6347 160.076 68.04C160.278 68.4453 160.54 68.7707 160.86 69.016C161.19 69.2507 161.537 69.368 161.9 69.368C162.156 69.368 162.444 69.3147 162.764 69.208C163.084 69.0907 163.361 68.8453 163.596 68.472V64.888C163.361 64.5147 163.084 64.2747 162.764 64.168C162.454 64.0613 162.166 64.008 161.9 64.008C161.537 64.008 161.19 64.1253 160.86 64.36C160.54 64.5947 160.278 64.92 160.076 65.336C159.884 65.7413 159.788 66.1947 159.788 66.696ZM170.606 62.328V63.368C171.001 63.0267 171.449 62.76 171.95 62.568C172.462 62.376 172.969 62.28 173.47 62.28C174.291 62.28 174.942 62.52 175.422 63C175.913 63.48 176.158 64.104 176.158 64.872V70.968H173.598V65.304C173.598 64.9947 173.47 64.744 173.214 64.552C172.958 64.3493 172.654 64.248 172.302 64.248C172.078 64.248 171.795 64.3227 171.454 64.472C171.123 64.6213 170.841 64.8027 170.606 65.016V70.968H168.046V62.328H170.606ZM187.105 71.208C186.198 71.208 185.398 71.0213 184.705 70.648C184.022 70.2747 183.494 69.7467 183.121 69.064C182.748 68.3707 182.561 67.5547 182.561 66.616C182.561 65.176 182.966 64.072 183.777 63.304C184.588 62.536 185.697 62.152 187.105 62.152C188.502 62.152 189.606 62.536 190.417 63.304C191.228 64.072 191.633 65.176 191.633 66.616C191.633 67.5547 191.446 68.3707 191.073 69.064C190.7 69.7467 190.172 70.2747 189.489 70.648C188.806 71.0213 188.012 71.208 187.105 71.208ZM185.089 66.616C185.089 67.4373 185.276 68.0987 185.649 68.6C186.022 69.1013 186.508 69.352 187.105 69.352C187.702 69.352 188.182 69.1013 188.545 68.6C188.918 68.0987 189.105 67.4373 189.105 66.616C189.105 65.7627 188.924 65.1173 188.561 64.68C188.209 64.232 187.724 64.008 187.105 64.008C186.486 64.008 185.996 64.232 185.633 64.68C185.27 65.1173 185.089 65.7627 185.089 66.616ZM195.952 62.36V63.288C196.23 62.9893 196.56 62.76 196.944 62.6C197.339 62.4293 197.728 62.344 198.112 62.344C198.379 62.344 198.63 62.3813 198.864 62.456V64.424C198.566 64.3493 198.283 64.312 198.016 64.312C197.611 64.312 197.227 64.3813 196.864 64.52C196.502 64.648 196.198 64.856 195.952 65.144V71H193.392V62.36H195.952ZM211.824 67.832H208.24L207.392 71H204.592L207.84 59.8H212.24L215.488 71H212.672L211.824 67.832ZM211.312 65.912L210.048 61.224H210.016L208.752 65.912H211.312ZM217.321 59.8H219.961V71H217.321V59.8Z" fill="#919191"/>
</svg>
