<svg width="339" height="339" viewBox="0 0 339 339" fill="none" xmlns="http://www.w3.org/2000/svg">
<g clip-path="url(#clip0_139_475)">
<path d="M102.784 211.333L104.752 209.379L117.584 206.834L102.784 211.333Z" fill="#FDF5E8" stroke="#E7E1DB"/>
<path d="M103.981 107.122L106.734 104.793L92.1526 79.605L86.5 89.0655L84.8355 95.7689L84.0321 102.853L85.1078 110.072L87.0513 116.248L93.3376 129.515L97.215 130.675L100.967 132.367L106.496 136.056L111.349 139.593L103.786 129.06L100.324 118.24L101.764 113.457L103.981 107.122Z" fill="#14AEEC" stroke="#14AEEC"/>
<path d="M91.7761 226.582L91.2221 222.666L71.1634 209.937L69.7099 210.074L67.407 211.165L68.1608 214.435L69.4701 219.035C69.7567 220.042 70.126 221.024 70.5744 221.97L73.2566 227.631L75.3607 229.63L83.404 233.939L87.8434 235.068L90.5006 233.809L91.9552 231.385L91.7761 226.582Z" fill="#8BE2F6" stroke="#8EE4FB"/>
<path d="M98.0632 233.03L99.7791 228.511L100.302 215.408L96.2474 219.301L93.7208 219.237L91.1666 218.475L89.3051 214.547L86.5322 214.441L84.2607 212.521L82.2676 210.389L79.6539 209.183L75.7191 207.105L74.4591 206.361L72.2391 206.624L68.9511 204.633L66.8293 203.667L66.1656 207.215L67.0715 211.202L68.8919 210.339C69.4572 210.072 70.1154 210.084 70.6705 210.372L75.1076 212.678L86.5398 219.406L90.7479 222.059C91.2893 222.401 91.6345 222.981 91.6767 223.619L92.0946 229.948C92.1534 230.837 91.9132 231.721 91.4122 232.459L91.0596 232.978C90.6589 233.568 90.1079 234.04 89.4635 234.345L88.5922 234.758C87.7177 235.172 86.7225 235.256 85.7912 234.992L84.5603 234.644C84.1903 234.54 83.8295 234.405 83.4816 234.241L77.6254 231.482C76.8169 231.101 76.0498 230.638 75.3363 230.1L73.5842 228.778L72.6301 228.52L72.2308 234.861L76.1873 238.901L80.9496 241.928L88.9314 241.853L91.2212 239.821L95.7042 236.672L98.0632 233.03Z" fill="#01363F" stroke="#01363F"/>
<path d="M77.6043 239.018L82.1218 241.688L83.0211 241.67L89.7046 241.25L99.3779 288.163L92.6926 287.782L88.2752 286.127L84.0132 278.882L71.5925 239.58L73.1952 232.905L77.6043 239.018Z" fill="#8DE3F9" stroke="#8EE4FB"/>
<path d="M91.2009 79.6869L129.569 48.1013C129.569 48.1013 117.873 53.791 112.05 58.0585C103.642 64.744 94.0924 72.5085 90.4627 77.1362C89.9457 77.7953 89.4319 78.4534 88.8974 79.0984C86.4954 81.9971 84.1335 86.2501 82.5433 89.3789C81.1822 92.0569 80.5122 95.0168 80.3878 98.0183L80.1989 102.577L80.6806 109.688C80.7545 110.779 80.9657 111.856 81.3092 112.894L83.7699 120.33L86.3989 126.836L89.3722 130.238L92.1749 130.566L89.7962 125.226L86.828 118.962C86.3459 117.944 85.9426 116.891 85.6216 115.812L84.5715 112.28C84.3191 111.431 84.1376 110.563 84.0289 109.685L83.5933 106.164C83.4583 105.072 83.4183 103.972 83.4737 102.874L83.694 98.505C83.763 97.1354 83.9802 95.7773 84.3416 94.4544L84.7914 92.8082C85.0688 91.7929 85.4523 90.8095 85.9356 89.8745L91.2009 79.6869Z" fill="#FDE55A" stroke="#FEE457"/>
<path d="M208.96 91.6882L210.12 86.2562L203.676 82.3799L199.471 77.3634L191.998 67.1235L185.957 58.567L185.446 54.0055L179.331 52.9656L177.562 52.9079L173.416 50.8786L175.308 54.8716L175.08 58.9172L176.939 62.8401L181.252 69.9312L196.517 89.2367L203.51 94.2706L206.215 95.1155L208.96 91.6882Z" fill="#8CE2F9" stroke="#8CE2F9"/>
<path d="M209.642 82.2141L210.268 86.7281L203.752 83.0333L196.733 75.0822L189.876 65.2401L185.809 58.4133L185.768 54.0165L188.445 54.7193L191.515 57.2078L208.452 79.7024L209.642 82.2141Z" fill="#14AEEC"/>
<path d="M209.256 92.2547L210.268 86.7281M210.268 86.7281L209.642 82.2141L208.452 79.7024L192.032 57.8942C191.689 57.4383 191.291 57.0261 190.848 56.6667L188.948 55.1264C188.617 54.8581 188.232 54.6634 187.82 54.5552L185.768 54.0165L185.809 58.4133L189.876 65.2401L196.733 75.0822L203.752 83.0333L210.268 86.7281Z" stroke="#14AEEC"/>
<path d="M164.198 106.507C163.346 106.911 162.436 106.777 162.166 106.208C161.896 105.639 162.369 104.85 163.222 104.446C164.075 104.042 164.985 104.176 165.254 104.745C165.524 105.314 165.051 106.103 164.198 106.507Z" fill="#D9D9D9"/>
<path d="M94.5968 81.7711C93.6395 80.6154 93.6835 78.9301 94.6998 77.8259L106.635 64.8581C108.245 63.1085 110.045 61.5439 112.002 60.1932L131.72 46.5826L136.612 56.9073L139.905 63.8553L101.298 89.8612L94.5968 81.7711Z" fill="#8CE4FA" stroke="#8DE4F7"/>
<path d="M203.208 93.3883C203.931 93.9194 204.281 94.2537 205.153 94.0425C206.852 93.631 209.866 93.382 210.615 94.9619L212.016 97.9201C212.356 98.6364 212.538 99.4172 212.55 100.21L212.66 107.15C212.69 109.063 212.416 110.968 211.846 112.794L210.62 116.725C209.902 119.027 208.752 121.172 207.232 123.044L201.629 129.945L197.67 134.073C195.288 136.557 191.327 136.589 188.904 134.145C187.98 133.212 186.779 132.601 185.481 132.403L184.28 132.22C182.907 132.01 181.505 132.095 180.168 132.468L178.414 132.957C177.173 133.303 176.012 133.885 174.992 134.672L155.098 150.02C153.875 150.963 152.912 152.202 152.301 153.62L152.154 153.96C151.822 154.729 151.63 155.552 151.587 156.389L151.541 157.284C151.484 158.391 151.827 159.483 152.507 160.359C154.51 162.942 153.278 166.732 150.138 167.642L144.826 169.183C143.585 169.543 142.319 169.809 141.038 169.981L139.068 170.245C134.756 170.823 130.565 168.547 128.703 164.616L128.594 164.386L124.854 157.719L116.679 146.531L109.74 138.942C109.315 138.478 109.859 137.772 110.417 138.065C110.467 138.092 110.513 138.126 110.554 138.167L117.776 145.426C119.982 147.643 123.098 148.7 126.198 148.283L127.833 148.063L135.535 147.597C137.332 147.488 139.066 146.896 140.554 145.884L169.986 125.865L182.474 115.185C183.371 114.418 184.125 113.498 184.702 112.468L186.664 108.961C187.405 107.636 187.835 106.158 187.921 104.642L188.021 102.858C188.086 101.706 187.951 100.55 187.622 99.444L186.589 95.9714C186.256 94.8508 185.729 93.7973 185.032 92.8587L174.854 79.1591C174.432 78.5913 173.951 78.0698 173.419 77.6035L172.907 77.1542C172.152 76.4925 171.302 75.9482 170.386 75.5396L165.688 73.4458C164.776 73.0391 163.808 72.7714 162.816 72.6516L161.192 72.4554C160.185 72.3338 159.166 72.366 158.169 72.551L155.614 73.025C155.042 73.1312 154.486 73.3112 153.96 73.5604C150.867 75.0256 147.168 73.9381 145.361 71.0326L135.279 54.8255C135.254 54.7858 135.234 54.7434 135.219 54.6992L132.481 46.8749C132.461 46.8194 132.378 46.842 132.389 46.8997C132.391 46.9058 132.389 46.9131 132.394 46.9105C132.63 46.7988 149.721 38.7322 156.166 40.2043C160.178 40.8272 165.89 43.7867 169.101 45.5966C170.738 46.5191 172.22 47.6832 173.572 48.9885L175.278 50.6359C176.267 51.5906 176.481 53.0946 175.798 54.2875C175.506 54.7983 175.37 55.3829 175.41 55.97C175.492 57.1933 175.642 59.3591 175.753 60.4967C175.913 62.1387 181.503 70.2827 181.503 70.2827L196.462 88.0806C196.973 88.6889 197.555 89.234 198.195 89.7045L203.208 93.3883Z" fill="#14AEEC" stroke="#14AEEC"/>
<path d="M140.271 82.2722L150.057 76.6622L142.055 62.5305L137.411 55.6478L136.156 52.9986L133.959 45.443L132.122 46.3133L130.349 47.39L138.354 64.2842L118.689 77.2519L101.532 89.6794L92.9476 74.44L90.9238 76.6924L93.6577 82.4621L103.574 99.6606L107.966 106.338L110.977 103.776L140.271 82.2722Z" fill="#3F7B8D"/>
<path d="M150.009 76.5603L140.223 82.1703L110.929 103.674M150.009 76.5603L147.813 77.6006L138.306 64.1823M150.009 76.5603L138.618 58.1951L137.83 54.8161M150.009 76.5603L142.007 62.4286L137.83 54.8161M110.929 103.674L101.484 89.5775M110.929 103.674L107.918 106.236L103.525 99.5587L93.6094 82.3602L90.8755 76.5904L92.8993 74.3381L101.484 89.5775M138.306 64.1823L118.641 77.15L101.484 89.5775M138.306 64.1823L130.301 47.288L132.074 46.2114L133.911 45.3411L136.462 51.9289L137.83 54.8161" stroke="#3F7B8D"/>
<path d="M165.164 160.507L186.647 144.817C189.069 143.047 191.296 141.023 193.287 138.78L193.76 138.247L188.937 134.076C188.123 133.373 187.201 132.805 186.207 132.395L184.854 131.837C183.584 131.314 182.173 131.242 180.856 131.634L179.656 131.991C177.876 132.521 176.209 133.376 174.741 134.515L155.534 149.409C154.051 150.559 152.8 152.004 152.133 153.758C151.556 155.273 151.022 157.127 151.241 158.394C151.672 160.88 156.821 165.679 156.821 165.679L165.164 160.507Z" fill="#8CE2F9" stroke="#8CE2F9"/>
<path d="M199.766 144.857C199.062 144.662 193.259 145.969 193.259 145.969L167.622 165.451L165.902 164.216L162.284 166.955L159.833 170.403C159.833 170.403 159.544 171.201 160.133 172.154C160.068 172.973 161.018 174.022 161.018 174.022L163.882 174.478L171.479 170.878L172.776 170.264L182.726 164.445L190.58 158.673C191.649 157.72 193.395 156.186 194.778 155.021L196.799 153.44C197.392 153.159 200.579 149.073 202.098 147.065L200.874 145.279C200.874 145.279 200.471 145.052 199.766 144.857Z" fill="#0282B2" fill-opacity="0.78"/>
<path d="M196.799 153.44C197.392 153.159 200.579 149.073 202.098 147.065L200.874 145.279C200.874 145.279 200.471 145.052 199.766 144.857C199.062 144.662 193.259 145.969 193.259 145.969L167.622 165.451M196.799 153.44C196.206 153.721 192.406 157.046 190.58 158.673L182.726 164.445M196.799 153.44L182.726 164.445M167.622 165.451L165.902 164.216L162.284 166.955L159.833 170.403C159.833 170.403 159.544 171.201 160.133 172.154C160.068 172.973 161.018 174.022 161.018 174.022L163.882 174.478L171.479 170.878M167.622 165.451L171.479 170.878M182.726 164.445L172.776 170.264L171.479 170.878" stroke="#0682B3"/>
<path d="M198.037 152.222L192.917 146.525L167.713 165.644L171.725 171.078L182.292 165.124L190.394 159.077L198.037 152.222Z" fill="#013038" fill-opacity="0.8" stroke="#01303A" stroke-opacity="0.63"/>
<path d="M217.283 142.078L221.927 137.354L211.509 139.423C209.288 139.864 207.114 140.514 205.016 141.364L193.32 146.098L199.49 144.752L201.181 145.449C201.181 145.449 201.759 146.346 201.914 146.994C202.068 147.643 198.688 151.52 198.688 151.52L193.364 156.566L183.467 164.252C179.563 166.654 170.434 171.673 164.532 173.776C162.526 174.491 161.323 174.666 160.225 172.347C158.509 168.727 165.995 164.093 165.995 164.093L165.903 163.899L165.419 162.079L153.164 173.248C153.164 173.248 148.369 177.176 147.126 179.342C145.979 181.343 150.629 181.468 150.629 181.468C150.629 181.468 155.286 194.009 157.129 195.185C158.972 196.362 159.717 195.221 159.717 195.221L203.712 171.063L207.747 158.347L212.321 148.845L217.283 142.078Z" fill="#8CE2F9" stroke="#89E4F9"/>
<path d="M190.294 144.099L192.499 146.965L179.846 157.455L167.777 166.258L165.718 163.699L164.692 161.533L174.378 155.176L190.294 144.099Z" fill="#012126" fill-opacity="0.9" stroke="#012327" stroke-opacity="0.74"/>
<path d="M254.557 183.09L258.579 181.184L258.3 180.595L256.247 179.727L252.808 177.914L252.494 177.581L251.738 177.14L249.891 174.892L246.98 171.389L242.939 164.016L241.328 160.616L240.642 156.857L240.803 151.257L242.284 146.793L238.836 148.426L236.756 149.812L235.149 151.534L233.188 156.306L232.613 162.023L233.873 168.312L237.467 175.896L240.761 179.218L244.444 181.877L248.841 183.237L253.344 183.664L254.557 183.09Z" fill="#012D38" stroke="#012D38"/>
<path d="M262.272 182.273L260.12 181.084L258.396 180.797L256.605 181.646L255.495 182.172C254.112 182.827 252.597 183.157 251.067 183.134L250.589 183.127C249.771 183.115 248.958 182.992 248.174 182.761L247.359 182.52C246.642 182.309 245.959 181.998 245.328 181.597L243.049 180.147C242.173 179.59 241.362 178.938 240.631 178.202L238.77 176.329C238.051 175.604 237.459 174.762 237.022 173.839L235.323 170.253C234.621 168.772 234.125 167.202 233.848 165.586L233.509 163.607C233.215 161.893 233.202 160.142 233.472 158.424L233.821 156.2C233.994 155.102 234.331 154.037 234.823 153.04L234.916 152.851C235.633 151.398 236.717 150.156 238.061 149.25C238.527 148.935 239.016 148.656 239.525 148.415L241.603 147.431L244.329 144.404L242.299 143.473L238.416 143.42L235.824 144.333L233.846 145.586L232.42 147.366L230.496 150.17C230.496 150.17 229.846 152.434 229.579 153.922C229.312 155.408 229.185 158.114 229.088 160.215L229.088 160.228C228.989 162.33 228.984 163.741 228.984 163.741L229.861 167.505L232.577 173.237L234.682 177.681L240.446 183.94L246.778 187.406L253.953 188.502L258.339 186.424L262.272 182.273Z" fill="#0181B3" stroke="#017CAA"/>
<path d="M318.535 196.938L316.334 199.794L300.17 216.602L299.305 217.011L289.485 208.1L288.137 206.531L307.798 186.568L318.535 196.938Z" fill="#11AEF1" stroke="#11AEF1"/>
<path d="M288.369 204.574L306.73 186.152L289.542 171.316L271.872 189.411L288.369 204.574Z" fill="black" stroke="black"/>
<path d="M267.558 244.988L258.686 217.804L242.254 225.905L233.148 229.195L229.606 228.744L221.459 224.797L217.702 224.211L192.956 237.593L191.35 238.354L190.658 247.909L188.602 252.668L182.695 257.123L198.431 279.477L203.402 283.904L207.156 285.122L210.64 284.812L213.543 283.436L212.794 274.809C212.728 274.053 212.807 273.291 213.025 272.564L213.136 272.196C213.464 271.103 214.016 270.09 214.756 269.221C215.427 268.432 216.241 267.777 217.155 267.289L234.384 258.1C236.083 257.194 237.962 256.676 239.886 256.585L239.923 256.583L240.851 256.625C242.131 256.684 243.371 257.093 244.435 257.807L247.765 260.044L252.653 262.538L254.939 261.456L260.992 258.587L265.665 254.402L267.753 249.39L267.558 244.988Z" fill="#89E5F9" stroke="#89E5F9"/>
<path d="M272.702 192.473L285.712 204.446L306.054 182.937L292.642 172.499L291.601 173.876L283.632 182.071L273.24 192.298L272.702 192.473Z" fill="#11AEF1"/>
<path d="M289.818 169.694L270.094 190.002" stroke="#11AEF1"/>
<path d="M289.788 169.63C283.027 163.215 280.689 159.474 280.047 161.215L280.122 160.724C280.122 160.724 280.081 160.957 280.013 161.318C279.967 161.473 279.931 161.661 279.904 161.886C279.691 162.992 279.366 164.578 279.146 165.208C278.571 166.861 277.186 169.213 277.186 169.213L274.396 172.743L272.661 174.827L270.991 176.091L266.666 178.456L265.368 179.071L260 180.511L260.059 180.956L261.686 182.314L270.002 189.967L289.788 169.63Z" fill="#11AEF1"/>
<path d="M289.788 169.63C281.983 162.224 280.072 158.382 279.861 162.425L280.122 160.724C280.122 160.724 279.499 164.196 279.146 165.208C278.571 166.861 277.186 169.213 277.186 169.213L274.396 172.743L272.661 174.827L270.991 176.091L266.666 178.456L265.368 179.071L260 180.511L260.059 180.956L261.686 182.314L270.002 189.967L289.788 169.63Z" stroke="#11AEF1"/>
<path d="M325.632 214.789L328.649 215.568L328.509 212.558L326.864 208.29L324.292 204.777L319.9 201.733L316.976 200.831L316.427 199.672L300.139 216.695L301.79 219.383L308.49 216.602L317.156 215.256L321.626 214.794L325.632 214.789Z" fill="#01363F" stroke="#01363F"/>
<path d="M320.855 234.717L321.397 237.457L336.1 230.176L334.109 221.025L332.028 217.752L328.679 215.632L325.786 214.953L321.41 214.818L317.279 215.356L320.855 234.717Z" fill="#8CE4FA"/>
<path d="M336.098 230.492L321.397 237.457M321.397 237.457L320.855 234.717L317.279 215.356L321.41 214.818L325.786 214.953L328.679 215.632L332.028 217.752L334.109 221.025L336.1 230.176L321.397 237.457Z" stroke="#8CE4FA"/>
<path d="M300.52 247.35L321.274 237.516L321.308 236.79L320.762 234.84L319.048 225.795L317.666 218.09L317.125 215.192L308.798 216.614L301.851 219.511L298.54 222.579L297.348 226.929L298.378 237.403L299.391 244.967L300.52 247.35Z" fill="#0FAFEF" stroke="#0FAFEF"/>
<path d="M280.448 156.942L280.643 159.394C280.725 160.428 280.549 161.467 280.13 162.416L279.491 163.862L278.885 165.831C278.457 167.221 277.852 168.551 277.085 169.787L277.057 169.832C276.646 170.495 276.176 171.12 275.652 171.699L273.538 174.037C272.402 175.293 271.074 176.361 269.604 177.201L266.463 178.995C265.714 179.422 264.913 179.751 264.08 179.973L262.047 180.515C260.471 180.935 258.805 180.864 257.271 180.311L255.982 179.845C254.894 179.453 253.893 178.855 253.032 178.084L250.513 175.829C250.259 175.601 250.022 175.355 249.803 175.093L247.178 171.94C246.574 171.215 246.04 170.434 245.583 169.608L242.603 164.228L241.733 162.392L240.863 160.557L240.14 158.331C239.856 157.454 239.747 156.53 239.82 155.611L240.023 153.066C240.119 151.871 240.379 150.696 240.796 149.573L240.959 149.133C241.446 147.823 242.178 146.618 243.116 145.581L245.073 143.421L248.408 141.84L252.882 140.152C254.252 139.635 255.701 139.353 257.166 139.318L260.381 139.242C261.544 139.215 262.706 139.344 263.834 139.625L268.278 140.734C268.278 140.734 269.397 141.122 273.452 143.932C277.507 146.743 278.763 150.471 279.515 152.1C280.268 153.729 280.448 156.942 280.448 156.942Z" fill="#8DE4F8" stroke="#8DE4F8"/>
<path d="M268.543 159.113C266.496 160.083 263.881 158.851 262.701 156.361C261.521 153.871 262.224 151.066 264.271 150.097C266.318 149.127 268.933 150.359 270.113 152.849C271.293 155.339 270.59 158.143 268.543 159.113Z" fill="#8CE6FB"/>
<path d="M270.379 161.871C266.797 163.568 262.24 161.455 260.201 157.151C258.162 152.847 259.412 147.982 262.994 146.285C266.576 144.588 271.133 146.701 273.172 151.005C275.212 155.309 273.961 160.173 270.379 161.871Z" fill="#11AEF1"/>
<path d="M268.976 158.75C266.998 159.688 264.396 158.343 263.166 155.746C261.936 153.15 262.542 150.285 264.521 149.347C266.499 148.41 269.101 149.755 270.331 152.351C271.561 154.948 270.955 157.812 268.976 158.75Z" fill="#8CE4FA"/>
<path d="M263.663 191.754L262.07 183.125L259.856 185.611C259.232 186.311 258.474 186.879 257.626 187.281L257.524 187.329C255.815 188.139 253.895 188.39 252.035 188.046L248.264 187.349C246.944 187.105 245.662 186.685 244.453 186.1L243.723 185.746L242.875 185.272C241.867 184.708 240.938 184.013 240.114 183.204L238.104 181.232L236.425 179.175C235.505 178.048 234.725 176.814 234.102 175.499L231.529 170.069C230.7 168.32 230.124 166.461 229.817 164.55C229.686 163.736 229.62 162.914 229.62 162.09L229.617 158.533C229.617 157.894 229.678 157.257 229.799 156.63L230.501 152.994C230.813 151.379 231.482 149.855 232.461 148.534L233.23 147.495C234.111 146.305 235.272 145.351 236.61 144.717L236.899 144.58C238.009 144.054 239.226 143.79 240.454 143.81L241.483 143.827L242.735 143.999L245.158 141.967L241.808 140.361L234.016 137.679C232.467 137.146 230.866 136.773 229.24 136.567C227.912 136.399 226.57 136.387 225.239 136.531L224.392 136.622C223.119 136.76 221.947 137.38 221.118 138.356L214.756 145.845L210.253 153.42L206.45 162.793L203.637 171.223L160.444 195.317C160.444 195.317 158.294 195.506 157.026 194.807C155.757 194.109 153.053 187.7 153.053 187.7L149.885 179.737L146.709 186.762L145.422 191.868L144.067 198.108L144.003 205.315L144.957 212.277L147.642 217.944L152.998 229.763L163.518 243.149L178.318 254.59L175.705 233.432L176.778 228.034L179.847 224.135L205.12 210.109L211.667 207.007L218.225 208.395L243.089 225.146L259.194 218.398L261.828 213.506C262.797 211.705 263.388 209.725 263.564 207.687L264.079 201.731L263.663 191.754Z" fill="#14AEEC" stroke="#14AEEC"/>
<path d="M215.49 207.796C216.21 207.917 216.906 208.15 217.554 208.486L246.794 223.675L243.283 225.339L215.202 210.96L211.897 210.66C210.652 210.547 209.4 210.77 208.271 211.305L183.972 224.714C182.606 225.467 181.417 226.503 180.482 227.751L178.806 229.989L179.984 243.143L180.914 254.816L177.393 253.437L175.296 235.012C175.122 233.477 175.222 231.924 175.592 230.425L175.607 230.362C176.028 228.658 176.818 227.066 177.921 225.7L178.369 225.145C179.008 224.354 179.791 223.692 180.678 223.194L201.084 211.739L209.013 207.982C210.308 207.369 211.76 207.167 213.173 207.405L215.49 207.796Z" fill="#FFF6F6" stroke="#FFF6F6"/>
<path d="M230.312 229.277C232.868 229.722 242.539 225.613 242.539 225.613C242.919 225.433 242.911 224.872 242.525 224.678L215.349 211.052C214.874 210.814 213.653 210.115 213.136 210.171C212.403 210.1 211.663 210.227 210.996 210.539C210.186 210.919 209.173 211.395 208.985 211.498L183.208 225.539C182.905 225.704 182.636 225.928 182.416 226.199L179.723 229.534C179.277 230.084 179.061 230.796 179.119 231.522L180.543 249.389L181.093 254.355C181.21 255.403 181.88 256.315 182.832 256.729L184.101 257.277C184.245 257.34 184.366 257.456 184.435 257.603C184.64 258.034 185.206 258.113 185.491 257.749L191.771 249.725C192.196 249.181 191.866 247.142 191.928 246.439C192.094 244.533 191.29 240.534 192.395 238.805C193.5 237.076 197.125 235.539 197.125 235.539L216.831 225.073C217.448 224.745 218.171 224.677 218.858 224.858C219.671 225.072 220.892 225.372 222.317 225.652C224.921 226.165 227.757 228.832 230.312 229.277Z" fill="#14AEEC" stroke="#14AEEC"/>
<path d="M210.346 286.854C211.764 286.503 212.816 285.309 212.986 283.858L210.664 284.546C209.27 284.959 207.797 285.028 206.371 284.748L206.096 284.693C204.694 284.418 203.392 283.772 202.324 282.823L199.904 280.672L190.933 268.125L185.289 259.427C184.395 258.049 183.174 256.913 181.736 256.118L181.16 255.8L177.226 253.563L166.204 244.827L161.604 240.775L158.809 237.68L154.652 232.579L150.281 225.812L147.654 220.269C147.126 219.154 146.681 218.001 146.323 216.821L145.295 213.432C144.957 212.318 144.7 211.181 144.527 210.029L143.98 206.384L143.845 200.743C143.815 199.465 143.921 198.187 144.161 196.931L145.758 188.586L148.687 181.52L149.746 179.126L155.33 171.275L149.718 176.135C149.17 176.61 148.662 177.13 148.2 177.689L147.809 178.164C146.827 179.354 145.986 180.654 145.303 182.038L144.603 183.456L142.495 189.728L140.741 196.746L139.649 210.521L141.82 220.341L143.711 224.334L146.482 226.728L151.969 234.735L158.147 242.413L162.772 247.111C164.039 248.397 165.397 249.589 166.838 250.677L172.585 255.017L179.557 259.174C180.405 259.68 181.137 260.36 181.704 261.17L197.101 283.142C197.8 284.139 198.693 284.983 199.727 285.625L201.104 286.479C201.777 286.897 202.526 287.177 203.308 287.304L204.757 287.538C205.884 287.721 207.037 287.673 208.146 287.399L210.346 286.854Z" fill="#F6E567" stroke="#F5E663"/>
<path d="M148.077 107.6C151.902 115.674 161.751 119.022 170.075 115.078C178.399 111.134 182.045 101.392 178.22 93.3177C174.394 85.2436 164.545 81.8955 156.221 85.8396C147.897 89.7836 144.251 99.5263 148.077 107.6Z" fill="#FAC32B"/>
<rect width="88.6689" height="55.1781" rx="13" transform="matrix(-0.814383 0.580328 0.568609 0.822608 164.834 62.4742)" fill="#010101"/>
<path d="M70.1539 191.619C52.5133 173.665 44.9321 156.794 59.5494 141.529C74.168 126.263 91.8941 121.689 109.536 139.643C127.178 157.596 143.198 186.178 128.581 201.443C113.963 216.709 87.7957 209.573 70.1539 191.619Z" fill="#EFBEAA"/>
<path d="M50.248 170.503C49.9098 169.069 49.7166 167.604 49.6714 166.131L49.5543 162.321C49.4986 160.506 49.8555 158.701 50.5983 157.044L53.9965 149.463L52.3605 157.088C52.0463 158.553 51.9876 160.06 52.1869 161.545L52.3704 162.912C52.4932 163.827 52.6951 164.73 52.9738 165.611L54.2577 169.668L55.8861 173.104C56.3953 174.179 57.0098 175.2 57.7205 176.154L65.0688 186.012L73.4763 194.148L70.8022 198.112L67.3632 195.029C64.7494 192.685 62.3131 190.15 60.0742 187.446L56.2731 182.854L52.7665 177.605C51.9038 176.314 51.2794 174.878 50.923 173.367L50.248 170.503Z" fill="#FDF5E8"/>
<path d="M107.148 174.184C108.392 175.243 108.869 176.953 108.351 178.504C108.174 179.035 107.887 179.523 107.51 179.937L103.565 184.258C103.038 184.836 102.345 185.238 101.582 185.408C100.348 185.683 99.0573 185.329 98.1376 184.461L96.8241 183.222C96.4923 182.909 96.191 182.565 95.9242 182.195L91.9163 176.639L87.0747 170.091C86.9342 169.902 86.8126 169.698 86.7114 169.485L86.3291 168.678C85.9824 167.946 86.0713 167.082 86.56 166.437C86.771 166.158 87.0462 165.934 87.3623 165.784L88.3441 165.319C89.8283 164.616 91.5843 164.826 92.8602 165.86L97.4133 168.977C98.7781 169.911 100.223 170.722 101.731 171.401L105.684 173.182C106.087 173.363 106.462 173.6 106.798 173.886L107.148 174.184Z" fill="#E4A890"/>
<path d="M93.7016 148.221C94.3466 147.738 95.0382 147.321 95.7662 146.976L98.0511 145.893C98.5075 145.677 98.8974 145.342 99.1803 144.924L99.7198 144.126C99.9446 143.794 99.9771 143.368 99.8053 143.005C99.537 142.439 98.8606 142.198 98.2945 142.466L98.0224 142.595L96.4267 143.351C94.6543 144.191 92.9774 145.219 91.4248 146.417L90.2387 147.333C89.4139 147.969 88.6628 148.696 87.9993 149.499L86.0452 151.866C85.8068 152.155 85.6462 152.5 85.5787 152.868L85.4561 153.538C85.3995 153.847 85.5023 154.164 85.7297 154.381C86.0092 154.648 86.4242 154.715 86.7733 154.549L87.6265 154.145C87.9437 153.995 88.2224 153.774 88.4414 153.5L89.6274 152.014L92.6614 148.999L93.7016 148.221Z" fill="#E3A58D"/>
<path d="M66.4346 176.691C66.4948 176.476 66.5749 176.266 66.6738 176.066L67.1904 175.018C68.0262 173.324 69.1533 171.789 70.5203 170.485L73.8708 167.287L75.1258 166.193C75.5548 165.819 75.6827 165.205 75.439 164.691C75.275 164.345 74.9635 164.091 74.5913 164L74.4075 163.956C73.9221 163.837 73.4092 163.943 73.01 164.244L70.263 166.311C69.8765 166.602 69.5143 166.924 69.1799 167.274L68.5446 167.938C67.2857 169.254 66.2103 170.734 65.3476 172.339L63.1942 176.343C63.0328 176.643 62.9475 176.978 62.946 177.319L62.9435 177.846C62.9415 178.274 63.1709 178.67 63.5432 178.881C63.8781 179.07 64.2845 179.085 64.6323 178.92L65.0967 178.7C65.6655 178.431 66.0895 177.928 66.2587 177.321L66.4346 176.691Z" fill="#DFA38D"/>
<path d="M76.3471 158.307L78.3675 156.22C78.7101 155.866 78.981 155.449 79.1651 154.992L79.6442 153.804C79.7374 153.573 79.7297 153.314 79.623 153.089C79.4121 152.643 78.8802 152.454 78.435 152.665L78.2482 152.753C78.1287 152.81 78.0204 152.887 77.9285 152.982L76.2405 154.73L74.2886 156.746C73.905 157.142 73.6413 157.639 73.528 158.178L73.3415 159.067C73.2897 159.313 73.3452 159.57 73.4939 159.773C73.8195 160.218 74.4673 160.261 74.8493 159.864L76.3471 158.307Z" fill="#E0A68E"/>
<path d="M68.6563 155.484L70.8102 152.834C71.6665 151.781 72.6046 150.797 73.6159 149.891L75.9935 147.762C76.2618 147.522 76.5632 147.321 76.8886 147.167L78.427 146.438C78.9154 146.207 79.2087 145.696 79.1626 145.158C79.1366 144.855 79.0051 144.571 78.7911 144.356L78.779 144.344C78.3782 143.94 77.7666 143.833 77.2527 144.077L75.8164 144.757C75.454 144.929 75.1229 145.16 74.8369 145.441L71.0896 149.126L65.8526 154.796C65.5509 155.123 65.3482 155.529 65.2681 155.966L65.1521 156.6C65.1028 156.869 65.1731 157.146 65.3446 157.359C65.6174 157.698 66.087 157.806 66.4801 157.619L66.7841 157.475C66.9562 157.394 67.1094 157.277 67.2339 157.133L68.6563 155.484Z" fill="#E0A48B"/>
<path d="M73.0663 141.486L75.2652 140.002C75.3654 139.934 75.4706 139.874 75.5799 139.822L76.2246 139.517C76.6383 139.321 76.908 138.91 76.9237 138.453L76.9272 138.351C76.9316 138.223 76.9051 138.095 76.8499 137.978C76.7483 137.764 76.5576 137.605 76.3283 137.544L75.9165 137.434C75.5215 137.329 75.102 137.367 74.7326 137.542L73.4961 138.128C73.0161 138.356 72.5718 138.652 72.1774 139.008L68.904 141.96L60.8668 150.902C60.5466 151.259 60.2622 151.645 60.0175 152.057L58.1277 155.237C57.9114 155.602 57.913 156.055 58.1318 156.418C58.3467 156.773 58.737 156.985 59.1525 156.972L59.3934 156.964C59.9362 156.946 60.4308 156.647 60.6989 156.175L62.0263 153.836C62.1998 153.53 62.3983 153.239 62.6199 152.966L65.2004 149.787L67.6841 146.696C68.7535 145.364 69.9468 144.138 71.2479 143.032L73.0663 141.486Z" fill="#DFA891"/>
<path d="M105.083 187.986L109.22 184.028C109.618 183.647 109.972 183.222 110.275 182.762L110.336 182.67C111.033 181.609 112.009 180.761 113.155 180.218L113.481 180.064C114.026 179.806 114.613 179.649 115.214 179.601C117.76 179.4 120.042 181.163 120.491 183.676L120.558 184.055C120.686 184.768 120.668 185.5 120.506 186.206L120.248 187.331C119.756 189.476 118.635 191.425 117.028 192.929L116.606 193.323C115.027 194.8 113.104 195.858 111.011 196.401L107.695 197.26C106.677 197.524 105.595 197.412 104.652 196.947C103.241 196.251 102.309 194.849 102.217 193.279C102.202 193.029 102.209 192.778 102.237 192.53L102.25 192.411C102.421 190.91 103.173 189.537 104.345 188.585L105.083 187.986Z" fill="#E4A890"/>
<path d="M105.669 194.49C106.249 195.186 109.973 192.778 113.527 189.429C117.033 186.385 118.478 182.846 117.899 182.15C117.32 181.454 114.073 183.995 110.566 187.039C107.06 190.083 105.09 193.795 105.669 194.49Z" fill="black"/>
<path d="M92.4896 160.264C93.6603 161.94 97.816 161.289 101.003 158.438C104.285 156.074 105.108 152.099 103.937 150.424C102.766 148.749 98.9103 149.519 95.6285 151.884C92.3467 154.248 91.3177 158.589 92.4896 160.264Z" fill="black"/>
<path d="M71.4297 182.376C72.7387 184.121 76.9405 183.424 80.0083 180.432C83.2036 177.949 83.7797 173.795 82.4707 172.051C81.1629 170.306 76.9978 170.822 74.235 174.103C71.0397 176.586 70.1207 180.632 71.4297 182.376Z" fill="black"/>
<path d="M143.279 244.333L151.398 234.561L145.441 226.669L144.742 226.669L130.591 216.277L130.218 216.769L121.818 227.295L143.279 244.333Z" fill="#0280B2" stroke="#0381B1"/>
<path d="M130.128 260.109L143.279 244.333L122.097 226.926L110.531 243.763L130.128 260.109Z" fill="black" stroke="black"/>
<path d="M118.871 229.205L142.602 247.127L134.276 258.143L123.615 249.937L111.579 240.615L114.708 234.712L118.871 229.205Z" fill="#0280B2"/>
<path d="M131.032 260.468L109.63 243.874L108.843 247.48L112.811 262.24L114.65 271.069L117.073 273.47L118.935 277.398L128.676 263.477L131.032 260.468Z" fill="#0283B4"/>
<path d="M108.843 247.48L109.63 243.874L131.032 260.468L128.676 263.477M108.843 247.48L128.676 263.477M108.843 247.48L112.811 262.24L114.65 271.069L117.073 273.47L118.935 277.398L128.676 263.477" stroke="#0381B1"/>
<path d="M113.248 280.881L114.288 275.893L114.988 271.303L112.786 260.911L108.238 245.086L105.568 237.796C105.118 236.567 104.535 235.39 103.829 234.287L101.621 230.835C101.282 230.305 100.769 229.911 100.171 229.72C99.8125 229.605 99.4237 229.767 99.2517 230.101L97.426 233.654C96.8624 234.751 96.1007 235.734 95.1795 236.554L93.5407 238.012L89.4994 240.47L99.616 289.943L107.674 286.835L113.248 280.881Z" fill="#14AEEC"/>
<path d="M114.491 274.985C114.528 274.485 114.637 273.148 114.777 271.802L114.904 270.858L116.339 272.728C116.856 273.402 117.3 274.128 117.663 274.895L118.797 277.288L118.916 278.17C119.092 279.481 119.028 280.813 118.727 282.101C118.538 282.912 118.24 283.694 117.841 284.425L117.251 285.508C116.742 286.442 116.087 287.289 115.311 288.017L114.418 288.854C113.283 289.919 111.988 290.8 110.581 291.467L108.187 292.602L104.056 293.009C102.49 293.163 100.91 293.033 99.3912 292.623L99.3435 292.61C98.1103 292.277 96.9186 291.806 95.7909 291.206L94.7361 290.645C93.4446 289.958 92.2471 289.107 91.1733 288.114L89.1965 286.285L91.418 286.96C92.6121 287.323 93.839 287.567 95.0809 287.689L98.2801 288.004C99.591 288.133 100.914 287.973 102.156 287.534L105.479 286.362C107.031 285.814 108.464 284.977 109.704 283.895L110.496 283.203C111.63 282.214 112.534 280.99 113.148 279.616C113.734 278.305 114.155 276.926 114.4 275.511L114.491 274.985Z" fill="#01363F" stroke="#01363F"/>
<path d="M131.687 216.945L146.132 227.778L142.712 220.56L141.352 215.901L140.796 214.146C140.035 211.74 139.59 209.244 139.475 206.723L139.358 204.174L139.358 201.509L139.649 197.244L136.414 199.634C135.808 200.081 135.242 200.581 134.722 201.127L133.957 201.931C132.805 203.141 131.827 204.505 131.051 205.984L130.619 206.809C130.257 207.499 129.97 208.225 129.762 208.975L129.3 210.641C128.964 211.851 128.896 213.119 129.101 214.358L129.234 215.164C129.263 215.344 129.318 215.518 129.396 215.683C129.54 215.987 129.796 216.224 130.11 216.344L131.687 216.945Z" fill="#4CA3C6" stroke="#49A1C0"/>
<path d="M71.6121 227.733L72.9728 232.392L72.1528 236.671C71.7437 238.806 71.8765 241.01 72.5393 243.08L83.4966 277.313L84.7783 280.018L88.8465 286.529L87.2944 285.493C85.0438 283.992 83.184 281.975 81.8697 279.611L81.4056 278.776L78.6244 272.139L69.2215 244.713C68.7607 243.369 68.481 241.97 68.3897 240.552L68.3185 239.446C68.1909 237.465 68.3747 235.476 68.863 233.552L69.0435 232.841C69.4527 231.228 70.1677 229.709 71.1496 228.366L71.6121 227.733Z" fill="#F6E567" stroke="#F6E567"/>
<path d="M96.3047 220.22L99.1215 217.545L105.479 208.934L104.197 206.229L101.618 204.296L99.0642 203.377L99.6036 200.046L96.3178 197.581L93.816 197.888L93.1875 194.806L90.823 193.008L88.4541 192.159L85.6128 193.505L85.7176 190.853L82.4623 188.452L78.8551 188.821L70.5843 198.024L66.6454 203.439L71.5917 206.694L74.704 206.718L75.1312 207.62L77.5894 209.136L82.1433 210.606L85.9137 214.892L89.3959 214.898L91.0743 218.44L93.6858 220.121L96.3047 220.22Z" fill="#0280B2"/>
<path d="M82.1433 210.606L85.9137 214.892L89.3959 214.898L91.0743 218.44L93.6858 220.121L96.3047 220.22L99.1215 217.545L105.479 208.934L104.197 206.229L101.618 204.296L99.0642 203.377L99.6036 200.046L96.3178 197.581L93.1727 197.967L91.8982 199.427M82.1433 210.606L77.5894 209.136L75.1312 207.62L74.704 206.718L71.5917 206.694L66.6454 203.439L70.5843 198.024L78.8551 188.821L82.4623 188.452L85.7176 190.853L85.6128 193.505L88.4541 192.159L90.823 193.008L93.1875 194.806L93.816 197.888L91.8982 199.427M82.1433 210.606L84.3982 208.022L88.2485 203.218L91.8982 199.427" stroke="#03597B"/>
<path d="M85.8285 127.309L83.0924 121.535L81.8144 123.226C81.2929 123.916 81.0091 124.756 81.0055 125.621L80.9963 127.831L85.8285 127.309Z" fill="#8CE2F9" stroke="#8CE2F9"/>
<ellipse cx="15.3009" cy="15.9745" rx="15.3009" ry="15.9745" transform="matrix(-0.903687 0.428194 0.428194 0.903687 166.736 76.9772)" fill="#EBBA48"/>
<path d="M154.706 87.3196C149.132 89.9607 146.788 96.8617 149.591 102.778C152.394 108.694 159.22 111.251 164.794 108.61C170.367 105.969 172.71 99.0675 169.907 93.1514C167.104 87.2356 160.279 84.679 154.706 87.3196Z" fill="#EBBA48" stroke="#F1EACD" stroke-width="2"/>
<ellipse cx="2.29892" cy="3.19006" rx="2.29892" ry="3.19006" transform="matrix(-0.800054 0.599928 0.586892 0.809665 155.241 98.3333)" fill="#EEE8D8"/>
<ellipse cx="0.765044" cy="0.798724" rx="0.765044" ry="0.798724" transform="matrix(-0.903687 0.428194 0.428194 0.903687 159.72 105.05)" fill="#EFE8DC"/>
<ellipse cx="15.3009" cy="15.9745" rx="15.3009" ry="15.9745" transform="matrix(-0.903687 0.428194 0.428194 0.903687 133.889 101.885)" fill="#EBBA48"/>
<path d="M121.858 112.227C116.285 114.868 113.941 121.769 116.744 127.686C119.547 133.602 126.373 136.159 131.947 133.518C137.52 130.877 139.863 123.975 137.06 118.059C134.257 112.143 127.432 109.587 121.858 112.227Z" fill="#EBBA48" stroke="#F1EACD" stroke-width="2"/>
<ellipse cx="2.29891" cy="3.19006" rx="2.29891" ry="3.19006" transform="matrix(-0.800054 0.599928 0.586892 0.809665 122.394 123.241)" fill="#EEE8D8"/>
<ellipse cx="0.765044" cy="0.798724" rx="0.765044" ry="0.798724" transform="matrix(-0.903687 0.428194 0.428194 0.903687 126.873 129.957)" fill="#EFE8DC"/>
</g>
<path d="M267.895 275.193C274.337 292.08 268.392 289.803 253.509 299.663C237.752 305.675 229.968 302.312 212.704 286.804C210.428 271.729 216.407 262.706 232.164 256.694C247.921 250.682 261.452 258.306 267.895 275.193Z" fill="#14AEEC"/>
<path d="M261.642 264.588L258.582 259.887L252.899 262.58L245.756 258.017L212.171 275.609L212.704 283.605L214.389 286.978L261.642 264.588Z" fill="#01363F" stroke="#01363F"/>
<defs>
<clipPath id="clip0_139_475">
<rect width="253.995" height="253.995" fill="white" transform="matrix(-0.903687 0.428194 0.428194 0.903687 229.532 1.52588e-05)"/>
</clipPath>
</defs>
</svg>

