<svg width="164" height="164" viewBox="0 0 164 164" fill="none" xmlns="http://www.w3.org/2000/svg">
<g clip-path="url(#clip0_103_866)">
<path d="M132.386 88.2689L130.697 87.673L122.506 89.7359L132.386 88.2689Z" fill="#FDF5E8" stroke="#E7E1DB"/>
<path d="M102.875 27.7935L100.624 27.1953L102.169 8.4669L108.083 12.4243L110.907 15.8754L113.335 19.7868L114.703 24.2963L115.277 28.4377V37.917L113.335 39.6656L111.614 41.6902L109.407 45.3715L107.553 48.7767L109.054 40.5398L108.083 33.2694L105.92 30.8766L102.875 27.7935Z" fill="#14AEEC" stroke="#14AEEC"/>
<path d="M143.025 94.1231L142.265 91.685L150.45 78.712L151.336 78.3899H152.981L153.446 80.5061L153.862 83.0026C154.034 84.0354 154.121 85.0806 154.121 86.1276V89.6148L153.446 91.3629L149.944 96.1013L147.665 97.9874H145.767L144.248 96.9754L143.025 94.1231Z" fill="#8BE2F6" stroke="#8EE4FB"/>
<path d="M141.139 99.624L138.888 97.4613L134.96 89.9607L138.403 91.1111L139.859 90.3749L141.139 89.2245V86.4175L142.728 85.5892L143.522 83.8406L144.096 82.046L145.287 80.6195L147.009 78.3187L147.538 77.5365L148.906 77.0763L150.275 75.0056L151.245 73.8552L152.614 75.7419L153.187 78.3187H152.239C151.613 78.3187 151.023 78.6115 150.645 79.1099L148.906 81.4018L144.096 88.4882L142.568 90.8953C142.225 91.4356 142.161 92.1075 142.396 92.7027L143.686 95.9646C143.952 96.6363 144.434 97.2 145.057 97.5662V97.5662C145.554 97.859 146.122 98.0135 146.699 98.0135H146.782C147.639 98.0135 148.468 97.7026 149.114 97.1385L149.31 96.9671C149.599 96.7141 149.868 96.4377 150.112 96.1406L152.334 93.4379C152.901 92.7475 153.396 92.0004 153.81 91.2085L154.247 90.3749L154.732 89.9607L156.718 93.55L155.526 97.0011L153.585 100.084L148.906 102.247L147.009 101.695L143.522 101.097L141.139 99.624Z" fill="#01363F" stroke="#01363F"/>
<path d="M154.732 97.4613L152.834 100.268L152.305 100.507L148.289 102.109L155.615 132.157L159.41 130.086L161.53 127.899L162.014 122.494L158.395 96.1268L155.615 92.6757L154.732 97.4613Z" fill="#8DE3F9" stroke="#8EE4FB"/>
<path d="M102.747 8.25158L71.6265 0.429504C71.6265 0.429504 80.0241 0.515732 84.6017 1.39583C91.1017 2.91282 98.4949 4.72047 102.07 6.36662C102.831 6.71693 103.581 7.09121 104.33 7.46548C105.942 8.27037 107.7 9.45088 109.192 10.5444C111.615 12.3204 113.476 14.7249 114.874 17.3841L115.495 18.566L116.967 22.3058C117.367 23.3231 117.637 24.3869 117.771 25.4719L118.32 29.912L118.584 34.4351L117.79 37.2421L116.245 38.2084L116.157 34.4351V30.5588C116.157 29.4327 116.071 28.3083 115.899 27.1955L115.699 25.9026C115.563 25.0275 115.355 24.1652 115.077 23.3246L114.69 22.153C114.345 21.1092 113.91 20.0974 113.389 19.1288L112.625 17.7056C112.01 16.5604 111.273 15.4852 110.426 14.4988V14.4988C109.776 13.7416 109.049 13.055 108.255 12.4502L102.747 8.25158Z" fill="#FDE55A" stroke="#FEE457"/>
<path d="M37.353 47.8121L35.1743 44.9632L37.8629 40.9197L38.9292 36.8302L40.4589 28.7889L41.6178 22.1262L40.655 19.3233L43.9356 17.0258L44.9516 16.5032L46.8097 14.1728V17.0258L48.0613 19.3233V22.1262L47.505 27.4564L43.9356 42.9414L41.247 47.8121L39.9026 49.0528L37.353 47.8121Z" fill="#8CE2F9" stroke="#8CE2F9"/>
<path d="M34.3359 42.4725L35.2186 45.2795L37.999 41.3221L39.8968 34.7419L41.1766 27.1033L41.6621 21.9955L40.4705 19.4186L39.1024 20.569L37.999 22.8698L34.3359 40.6779V42.4725Z" fill="#14AEEC"/>
<path d="M37.337 48.2245L35.2186 45.2795M35.2186 45.2795L34.3359 42.4725V40.6779L37.8259 23.7115C37.9409 23.1525 38.1238 22.6096 38.3706 22.095L38.8228 21.1519C39.0071 20.7677 39.271 20.4272 39.5972 20.153L40.4705 19.4186L41.6621 21.9955L41.1766 27.1033L39.8968 34.7419L37.999 41.3221L35.2186 45.2795Z" stroke="#14AEEC"/>
<path d="M67.5684 44.0831C68.1778 44.0831 68.6718 43.7534 68.6718 43.3468C68.6718 42.9402 68.1778 42.6106 67.5684 42.6106C66.9591 42.6106 66.4651 42.9402 66.4651 43.3468C66.4651 43.7534 66.9591 44.0831 67.5684 44.0831Z" fill="#D9D9D9"/>
<path d="M101.113 11.3062C101.483 9.85184 100.722 8.34768 99.3304 7.78497L90.8167 4.3415C88.6124 3.44995 86.3157 2.80685 83.9689 2.42413L69.9517 0.138054V7.51502V12.4794L99.6685 16.9798L101.113 11.3062Z" fill="#8CE4FA" stroke="#8DE4F7"/>
<path d="M41.1794 47.2137C40.9046 47.7234 40.7924 48.0154 40.2254 48.1332V48.1332C39.1202 48.3628 37.2927 49.0509 37.2927 50.1797V52.2933C37.2927 52.8051 37.4023 53.311 37.6142 53.777L39.0456 56.9257C39.8372 58.6669 40.9013 60.2708 42.1977 61.6771L42.4297 61.9287C44.0645 63.7019 46.022 65.1477 48.1976 66.1888L52.208 68.1079L55.6593 69.4219C57.7359 70.2125 60.056 69.1365 60.7938 67.0405V67.0405C61.0755 66.2405 61.607 65.5523 62.3099 65.0776L62.9601 64.6384C63.7031 64.1365 64.5444 63.7983 65.428 63.6462L66.0488 63.5394C67.2234 63.3372 68.426 63.3637 69.5905 63.6176L84.9088 66.9564C85.8831 67.1687 86.7873 67.6255 87.5363 68.2838L87.7158 68.4416C88.1223 68.7988 88.4618 69.2257 88.7182 69.7022L88.9925 70.2118C89.3319 70.8423 89.4336 71.5737 89.2792 72.2728V72.2728C88.8242 74.334 90.5911 76.2047 92.6749 75.8679L96.2007 75.298C97.0243 75.1649 97.8368 74.9705 98.6316 74.7166L99.6977 74.3759C102.466 73.4911 104.346 70.9179 104.346 68.0112V68.0112L104.685 63.0876L106.362 54.2986L108.312 47.9525C108.431 47.5639 107.919 47.3028 107.675 47.6278V47.6278C107.653 47.6573 107.635 47.69 107.623 47.7247L105.771 52.9533C104.873 55.4894 102.84 57.4591 100.277 58.2767V58.2767L96.558 59.7707C94.8877 60.4417 93.0672 60.6494 91.2887 60.3719L69.5432 56.9789L59.9137 54.3651C58.7747 54.0559 57.6994 53.5476 56.7376 52.8635L55.674 52.1071C54.5224 51.2881 53.5725 50.2175 52.8965 48.9766V48.9766C52.3827 48.0336 52.0361 47.0087 51.872 45.9474L51.6861 44.7452C51.5075 43.5897 51.5328 42.4119 51.761 41.2652L53.7543 31.2499C53.8671 30.6836 54.0395 30.1308 54.2689 29.6008V29.6008C54.5944 28.8488 55.0312 28.1502 55.5646 27.5282L57.2171 25.6018C57.8632 24.8485 58.6185 24.1964 59.4579 23.667V23.667C60.31 23.1295 61.239 22.7247 62.213 22.4666L63.3201 22.1732C63.6835 22.0769 64.0577 22.0282 64.4336 22.0282V22.0282C66.643 22.0282 68.501 20.3708 68.7523 18.1757L70.1539 5.93169C70.1574 5.90165 70.1575 5.87132 70.1543 5.84126L69.5885 0.518857C69.5845 0.48108 69.6393 0.471281 69.6486 0.508106V0.508106C69.6496 0.511973 69.6528 0.515727 69.6488 0.51573C69.4802 0.515856 57.2778 0.534122 53.9239 3.17509C51.7553 4.6477 49.2408 7.95369 47.8672 9.89773C47.167 10.8886 46.6245 11.9775 46.1966 13.1128L45.6565 14.5458C45.3435 15.3762 45.6342 16.3131 46.3623 16.8204V16.8204C46.6741 17.0377 46.915 17.3412 47.0544 17.6947C47.3447 18.4311 47.8557 19.7365 48.1054 20.431C48.4659 21.4334 47.4562 27.7306 47.4562 27.7306L43.6718 42.162C43.5261 42.7177 43.3146 43.2541 43.0419 43.7598L41.1794 47.2137Z" fill="#14AEEC" stroke="#14AEEC"/>
<path d="M74.8294 23.3269L67.5684 22.7591L68.3303 12.301L69.1371 7.001V5.10814L68.3303 0.0920372H69.6426L70.9748 0.230084V12.301L86.0347 14.4305L99.4813 16.9386L100.277 5.67296L102.081 6.42765V10.5501L101.05 23.3269L100.333 28.4377L97.8678 27.7752L74.8294 23.3269Z" fill="#3F7B8D"/>
<path d="M67.5684 22.6863L74.8294 23.2541L97.8678 27.7024M67.5684 22.6863H69.1371L70.9748 12.2282M67.5684 22.6863L69.1371 8.82105L68.6627 6.63159M67.5684 22.6863L68.3303 12.2282L68.6627 6.63159M97.8678 27.7024L99.4813 16.8658M97.8678 27.7024L100.333 28.3649L101.05 23.2541L102.081 10.4773V6.35484L100.277 5.60015L99.4813 16.8658M70.9748 12.2282L86.0347 14.3577L99.4813 16.8658M70.9748 12.2282V0.157269L69.6426 0.0192223H68.3303L68.6627 4.5687V6.63159" stroke="#3F7B8D"/>
<path d="M81.935 75.8587L65.5136 72.7293C63.3104 72.3095 61.1585 71.6547 59.0947 70.7763V70.7763L60.5908 67.3839C60.9805 66.5003 61.5102 65.6853 62.1595 64.9704L62.2854 64.8317C63.0331 64.0085 64.0406 63.4668 65.1396 63.2969V63.2969C66.6257 63.0673 68.1415 63.1157 69.6099 63.4396L83.4998 66.5035C85.3323 66.9077 87.1255 67.6426 88.3754 69.0423C88.8815 69.609 89.3212 70.2248 89.4744 70.7763C89.9105 72.346 88.2326 76.5702 88.2326 76.5702L81.935 75.8587Z" fill="#8CE2F9" stroke="#8CE2F9"/>
<path d="M57.4177 76.2941C57.7748 75.9855 61.5222 75.1437 61.5222 75.1437L81.8677 79.4231L82.5297 78.2267L85.3984 78.8249L87.7816 80.1594C87.7816 80.1594 88.1709 80.5451 88.0905 81.2638C88.3553 81.7239 88.0905 82.5982 88.0905 82.5982L86.5458 83.6566H81.1174H80.1906L72.7762 83.0123L66.5975 81.8159C65.7103 81.5555 64.2674 81.1425 63.1386 80.845L61.5222 80.4815C61.0985 80.4815 58.1091 78.9783 56.6675 78.2267L56.8881 76.8462C56.8881 76.8462 57.0607 76.6026 57.4177 76.2941Z" fill="#0282B2" fill-opacity="0.78"/>
<path d="M61.5222 80.4815C61.0985 80.4815 58.1091 78.9783 56.6675 78.2267L56.8881 76.8462C56.8881 76.8462 57.0607 76.6026 57.4177 76.2941C57.7748 75.9855 61.5222 75.1437 61.5222 75.1437L81.8677 79.4231M61.5222 80.4815C61.9458 80.4815 65.0822 81.3712 66.5975 81.8159L72.7762 83.0123M61.5222 80.4815L72.7762 83.0123M81.8677 79.4231L82.5297 78.2267L85.3984 78.8249L87.7816 80.1594C87.7816 80.1594 88.1709 80.5451 88.0905 81.2638C88.3553 81.7239 88.0905 82.5982 88.0905 82.5982L86.5458 83.6566H81.1174M81.8677 79.4231L81.1174 83.6566M72.7762 83.0123L80.1906 83.6566H81.1174" stroke="#0682B3"/>
<path d="M60.4629 80.1134L61.8752 75.3737L81.8676 79.5612L81.0291 83.8406L73.2175 83.2885L66.8181 82L60.4629 80.1134Z" fill="#013038" fill-opacity="0.8" stroke="#01303A" stroke-opacity="0.63"/>
<path d="M46.4285 79.5152L42.4124 78.0427L47.8942 76.664C50.0898 76.1118 52.3326 75.768 54.5927 75.6371L61.5221 75.2357L57.5501 76.156L56.7557 77.0303C56.7557 77.0303 56.6665 77.7135 56.7557 78.1347C56.845 78.5558 59.8892 79.8833 59.8892 79.8833L64.3908 81.3558L72.2907 83.1044C75.2329 83.4265 81.9471 83.8314 85.9721 83.4265C87.3402 83.2888 88.0905 83.0584 88.0905 81.4018C88.0905 78.8151 82.4414 78.1807 82.4414 78.1807V78.0427L82.2207 76.8462L92.4597 79.9753C92.4597 79.9753 96.3435 80.9416 97.6675 81.862C98.89 82.712 96.2111 84.0707 96.2111 84.0707C96.2111 84.0707 96.9613 92.6756 96.2111 93.8721C95.4608 95.0685 94.7105 94.6083 94.7105 94.6083L62.3607 92.6756L56.4909 86.3715L51.1949 82.092L46.4285 79.5152Z" fill="#8CE2F9" stroke="#89E4F9"/>
<path d="M62.7349 73.2327L62.241 75.5144L72.5241 78.1373L82 79.9371L82.494 77.8742V76.3271L75.0843 75.2956L62.7349 73.2327Z" fill="#012126" fill-opacity="0.9" stroke="#012327" stroke-opacity="0.74"/>
<path d="M36.0182 113.751H33.1443V113.33L34.1022 112.256L35.6076 110.247L35.6988 109.967L36.0182 109.5L36.4743 107.678L37.2042 104.828L37.5235 99.4096V96.98L36.8849 94.5973L35.2427 91.3741L33.1443 89.1785H35.6076L37.2042 89.412L38.6183 89.9726L41.0816 92.2146L42.9975 95.3915L44.0011 99.4096V104.828L42.9975 107.678L41.5834 110.247L39.3939 112.256L36.8849 113.751H36.0182Z" fill="#012D38" stroke="#012D38"/>
<path d="M31.2905 115.407L32.2173 114.119L33.1441 113.475H34.424H35.0152C36.1361 113.475 37.242 113.218 38.2478 112.723V112.723C38.7854 112.458 39.2845 112.122 39.7313 111.723L39.8652 111.603C40.3545 111.166 40.78 110.662 41.1295 110.107L41.6247 109.32C42.1774 108.442 42.6307 107.505 42.9764 106.527L43.1779 105.957C43.5182 104.994 43.692 103.98 43.692 102.958V101.571C43.692 100.096 43.4905 98.6276 43.0931 97.2069V97.2069C42.6714 95.6993 42.0067 94.2706 41.1251 92.977L40.6867 92.3336C40.28 91.7368 39.7852 91.2051 39.2191 90.7565L39.1183 90.6766C38.2979 90.0266 37.3221 89.6019 36.2873 89.4445V89.4445C35.9283 89.3899 35.5657 89.3625 35.2025 89.3625H33.7179L31.2905 88.3502L32.2173 87.2458L34.4681 86.1414L36.2335 85.9574L37.734 86.1414L39.058 86.7856L40.9558 87.89C40.9558 87.89 41.9608 89.0314 42.5284 89.826C43.095 90.6189 43.9168 92.163 44.5548 93.3622L44.5585 93.3696C45.197 94.5687 45.5898 95.3906 45.5898 95.3906L46.1194 97.8294V101.925V105.1L44.4864 110.346L41.7502 114.119L37.8664 116.742H34.7329L31.2905 115.407Z" fill="#0181B3" stroke="#017CAA"/>
<path d="M2.51562 139.52L4.5899 140.578L18.6685 145.916H19.2863L22.5522 138.001L22.9053 136.713L5.9139 130.501L2.51562 139.52Z" fill="#11AEF1" stroke="#11AEF1"/>
<path d="M22.2291 135.635L6.42188 129.962L12.3496 116.553L27.6628 122.226L22.2291 135.635Z" fill="black" stroke="black"/>
<path d="M45.5456 153.462L43.2065 135.148L55.0343 135.332L61.2571 134.734L63.199 133.492L66.8621 128.936L68.8922 127.556L87.0311 128.522H88.1786L91.2238 133.906L93.7394 136.114L98.4175 137.081L95.4164 154.475L93.7394 158.432L91.8858 160.181L89.7674 160.963H87.6931L85.7643 155.774C85.5807 155.281 85.3051 154.826 84.952 154.435L84.8228 154.292C84.3291 153.745 83.7272 153.306 83.0553 153.004V153.004C82.4454 152.729 81.7892 152.572 81.1211 152.54L68.552 151.943C67.294 151.883 66.0384 152.103 64.8761 152.588V152.588V152.588C63.7987 153.16 62.8991 154.017 62.2753 155.065L61.2571 156.776L59.0946 159.582H57.4617H53.1366L49.2528 158.432L46.649 156.085L45.5456 153.462Z" fill="#89E5F9" stroke="#89E5F9"/>
<path d="M28.0248 124.242L23.7439 134.826L5.92773 127.899L10.8675 118.101L11.8554 118.616L18.7711 121.195L27.6627 124.289L28.0248 124.242Z" fill="#11AEF1"/>
<path d="M11.7395 115.684L28.8633 122.08" stroke="#11AEF1"/>
<path d="M11.7395 115.638C13.9108 110.025 14.2411 107.196 15.097 108.035L14.9171 107.769C14.9171 107.769 15.0056 107.893 15.1453 108.085C15.2147 108.163 15.2877 108.263 15.3655 108.386C15.7959 108.973 16.4241 109.808 16.7266 110.116C17.5194 110.921 18.9774 111.91 18.9774 111.91L21.5813 113.199L23.1701 113.935L24.4941 114.211L27.6717 114.395H28.5985L32.1292 113.751L32.2174 114.027L31.6437 115.269L28.9074 122.034L11.7395 115.638Z" fill="#11AEF1"/>
<path d="M11.7395 115.638C14.2463 109.158 14.2992 106.388 15.5402 108.689L14.9171 107.769C14.9171 107.769 16.2411 109.622 16.7266 110.116C17.5194 110.921 18.9774 111.91 18.9774 111.91L21.5813 113.199L23.1701 113.935L24.4941 114.211L27.6717 114.395H28.5985L32.1292 113.751L32.2174 114.027L31.6437 115.269L28.9074 122.034L11.7395 115.638Z" stroke="#11AEF1"/>
<path d="M3.31004 151.898L1.76537 153.186L1.0151 151.392L0.794434 148.447L1.32404 145.686L3.04524 142.695L4.50165 141.36V140.532L18.7126 145.962L18.492 147.987L13.8138 148.217L8.38539 149.827L5.64912 150.793L3.31004 151.898Z" fill="#01363F" stroke="#01363F"/>
<path d="M11.6072 162.205L12.0486 163.954L1.45652 163.77L0.0883789 157.88L0.397313 155.395L1.76545 153.232L3.26599 152.036L5.7816 150.747L8.34134 149.919L11.6072 162.205Z" fill="#8CE4FA"/>
<path d="M1.54478 163.954H12.0486M12.0486 163.954L11.6072 162.205L8.34134 149.919L5.7816 150.747L3.26599 152.036L1.76545 153.232L0.397313 155.395L0.0883789 157.88L1.45652 163.77L12.0486 163.954Z" stroke="#8CE4FA"/>
<path d="M26.9654 163.954H12.1366L11.9159 163.54L11.6953 162.251L10.1947 156.499L8.87072 151.622L8.38525 149.781L13.6371 148.309L18.4918 148.079L21.2722 148.953L23.17 151.162L25.4649 157.558L26.9654 162.251V163.954Z" fill="#0FAFEF" stroke="#0FAFEF"/>
<path d="M13.6815 105.652L14.2457 107.137C14.4837 107.763 14.8737 108.32 15.3806 108.758V108.758L16.1529 109.425L17.0363 110.39C17.6805 111.094 18.4123 111.712 19.2138 112.229V112.229C19.6438 112.507 20.098 112.745 20.5707 112.941L21.6035 113.37C23.1676 114.018 24.8248 114.415 26.5132 114.544L27.48 114.618C28.3398 114.684 29.2045 114.638 30.0526 114.482L30.4236 114.414C31.7927 114.162 33.0522 113.498 34.0333 112.51V112.51C34.7287 111.81 35.2828 110.982 35.6652 110.073L36.2999 108.563C36.4321 108.249 36.5411 107.925 36.6261 107.595L37.1158 105.692C37.351 104.778 37.4994 103.844 37.5591 102.902L37.7783 99.44V98.1285V96.8171L37.6482 95.8091C37.5302 94.8949 37.2327 94.013 36.773 93.214L36.2669 92.3346C35.8349 91.5839 35.3012 90.8965 34.6809 90.292V90.292C33.9574 89.5868 33.106 89.0259 32.1725 88.6394L30.5846 87.9821H28.2014L25.9061 88.1698C24.4457 88.2892 23.016 88.6546 21.6774 89.2507L21.0643 89.5237C20.0015 89.997 19.0071 90.6108 18.1076 91.3486L16.3015 92.8302C16.3015 92.8302 15.7557 93.3659 14.1667 96.1268C12.5779 98.8878 12.8753 101.41 12.8871 102.569C12.8987 103.728 13.6815 105.652 13.6815 105.652Z" fill="#8DE4F8" stroke="#8DE4F8"/>
<path d="M21.2281 103.627C22.6905 103.627 23.8761 102.185 23.8761 100.406C23.8761 98.6273 22.6905 97.1852 21.2281 97.1852C19.7656 97.1852 18.5801 98.6273 18.5801 100.406C18.5801 102.185 19.7656 103.627 21.2281 103.627Z" fill="#8CE6FB"/>
<path d="M20.9192 105.744C23.4785 105.744 25.5532 103.251 25.5532 100.176C25.5532 97.1011 23.4785 94.6083 20.9192 94.6083C18.3599 94.6083 16.2852 97.1011 16.2852 100.176C16.2852 103.251 18.3599 105.744 20.9192 105.744Z" fill="#11AEF1"/>
<path d="M20.8752 103.535C22.2889 103.535 23.4349 102.031 23.4349 100.176C23.4349 98.321 22.2889 96.8171 20.8752 96.8171C19.4615 96.8171 18.3154 98.321 18.3154 100.176C18.3154 102.031 19.4615 103.535 20.8752 103.535Z" fill="#8CE4FA"/>
<path d="M33.1002 121.324L31.6438 115.848L33.6013 116.678C34.1735 116.92 34.7885 117.045 35.4099 117.045V117.045C36.6627 117.045 37.8837 116.65 38.8995 115.917L40.4425 114.803C41.4276 114.092 42.3128 113.252 43.0743 112.305V112.305V112.305C43.744 111.364 44.2914 110.329 44.6899 109.245L45.1045 108.118L45.3294 107.207C45.6784 105.795 45.8548 104.345 45.8548 102.89V99.7868C45.8548 98.5368 45.6774 97.2932 45.328 96.093V96.093C45.1792 95.5821 44.9902 95.0838 44.7627 94.6028L43.9263 92.8344C43.6532 92.257 43.3254 91.7071 42.9474 91.1923L41.9934 89.8927C41.1942 88.8041 40.1612 87.9085 38.9704 87.2718L38.7207 87.1383C37.8123 86.6525 36.7981 86.3984 35.7679 86.3984V86.3984C34.913 86.3984 34.0696 86.5953 33.3031 86.9739L32.7912 87.2267L32.1085 87.673L30.1326 87.1572L31.6438 85.294L35.4484 81.5751C36.2053 80.8352 37.0363 80.1753 37.9283 79.6056V79.6056C38.6563 79.1406 39.4363 78.7622 40.2522 78.4783L40.7282 78.3126C41.5371 78.0311 42.4231 78.0707 43.2037 78.4231L48.9441 81.0146L53.6664 84.1897L58.4769 88.6072L62.4489 92.7486L94.3133 94.8653C94.3133 94.8653 95.6197 94.3812 96.1669 93.6229C96.7142 92.8645 96.52 88.3771 96.52 88.3771L96.1669 82.8552L99.9624 86.0763L102.125 88.6992L104.641 91.9663L106.671 96.1538L108.039 100.479V104.529L107.73 113.18L105.744 123.625L100.271 134.393L95.9463 121.324L93.8279 118.471L90.9592 117.045L72.3348 115.848H67.6567L64.2143 118.471L54.3374 135.12L43.0743 135.635L41.0696 134.16C39.4224 132.947 38.0406 131.411 37.0089 129.645L35.6158 127.26L33.1002 121.324Z" fill="#14AEEC" stroke="#14AEEC"/>
<path d="M65.9641 117.142C65.3656 117.56 64.836 118.069 64.3948 118.65L51.7686 135.286H54.2774L66.6867 119.132L68.5326 118.043C69.2276 117.634 70.0197 117.417 70.8265 117.417V117.417L87.8757 118.471C89.4321 118.568 90.9503 118.994 92.3296 119.721L93.1852 120.173L96.1342 128.174L98.8193 135.242L100.492 133.464L96.6278 122.152C96.3013 121.196 95.8072 120.306 95.1685 119.524V119.524C94.4424 118.634 93.53 117.915 92.4956 117.416L92.2524 117.299C91.5607 116.966 90.8118 116.767 90.0458 116.714L75.1399 115.684H70.2551C68.8221 115.684 67.4236 116.123 66.2486 116.944L65.9641 117.142Z" fill="#FFF6F6" stroke="#FFF6F6"/>
<path d="M62.9343 133.998C61.5661 134.964 54.7874 135.24 54.7874 135.24C54.5153 135.24 54.3651 134.911 54.5371 134.691L66.6266 119.227C66.8381 118.956 67.3569 118.211 67.6746 118.101V118.101C68.0826 117.856 68.5491 117.726 69.0245 117.724C69.6021 117.721 70.3251 117.719 70.4632 117.728L89.3861 118.793C89.6085 118.806 89.8275 118.862 90.0305 118.96L92.524 120.161C92.9362 120.359 93.2593 120.714 93.4261 121.154L97.5349 131.973L98.5871 135.023C98.8086 135.666 98.67 136.384 98.2287 136.888L97.64 137.559C97.5729 137.636 97.5349 137.737 97.5349 137.842C97.5349 138.15 97.226 138.353 96.9594 138.219L91.0764 135.273C90.6783 135.074 90.3067 133.793 90.0764 133.4C89.4523 132.333 88.8159 129.777 87.6932 129.074C86.5704 128.371 84.0301 128.476 84.0301 128.476L69.6382 127.818C69.1875 127.797 68.747 127.957 68.3961 128.252C67.9808 128.602 67.3513 129.115 66.5974 129.672C65.2199 130.691 64.3024 133.031 62.9343 133.998Z" fill="#14AEEC" stroke="#14AEEC"/>
<path d="M54.4165 163.264L54.902 159.675H58.9623L63.229 155.233L84.9639 156.264L88.1786 161.055V163.264H54.4165Z" fill="#01363F" stroke="#01363F"/>
<path d="M91.7352 161.758C90.9938 161.87 90.2362 161.798 89.5292 161.548L88.1345 161.055L89.5894 160.829C90.5761 160.675 91.5109 160.285 92.3138 159.691V159.691C93.1027 159.108 93.7211 158.324 94.1047 157.421L94.8869 155.579L96.6523 145.778L97.4847 139.564C97.6626 138.236 98.1649 136.972 98.9472 135.884V135.884L100.624 133.492L104.64 125.347L106.205 121.711L106.98 119.132L107.995 115.006L108.675 109.849V106.545C108.675 105.311 108.583 104.079 108.401 102.859L108.252 101.86C108.081 100.708 107.826 99.5707 107.489 98.4561L106.98 96.7711L105.775 94.065C105.256 92.8967 104.613 91.7871 103.858 90.755L101.021 86.8777L97.3584 83.5645L96.0785 82.4602L90.6501 79.4231L95.1456 80.673C95.6784 80.8212 96.1978 81.0136 96.6984 81.2484V81.2484C97.7633 81.7478 98.7668 82.3687 99.6888 83.0988L100.277 83.5645L103.241 86.6415L106.205 90.2516L110.65 97.9874L112.099 104.318V107.171L111.144 109.333L110.156 115.522L108.675 121.711L107.59 124.823C106.997 126.528 106.279 128.187 105.443 129.787L103.735 133.057L101.112 136.969C100.561 137.79 100.191 138.717 100.025 139.692L97.3118 155.621C97.1096 156.808 96.6688 157.941 96.0161 158.953L95.9 159.133C95.5517 159.673 95.1 160.138 94.5708 160.503L94.1147 160.817C93.4031 161.307 92.5895 161.628 91.7352 161.758V161.758Z" fill="#F6E567" stroke="#F5E663"/>
<path d="M77.2776 40.2638C77.2776 46.0327 72.4564 50.7093 66.509 50.7093C60.5617 50.7093 55.7405 46.0327 55.7405 40.2638C55.7405 34.4949 60.5617 29.8182 66.509 29.8182C72.4564 29.8182 77.2776 34.4949 77.2776 40.2638Z" fill="#FAC32B"/>
<rect width="57.252" height="35.6275" rx="13" transform="matrix(0.98444 0.175721 -0.161609 0.986855 55.0234 18.566)" fill="#010101"/>
<path d="M145.975 67.7447C151.304 52.3911 151.063 40.4507 138.313 35.5849C125.563 30.7193 113.955 32.9512 108.625 48.3047C103.295 63.6581 101.849 84.7645 114.598 89.6302C127.349 94.4963 140.645 83.0982 145.975 67.7447Z" fill="#EFBEAA"/>
<path d="M151.916 50.6877C151.607 49.2466 151.155 47.8401 150.565 46.4895L150.285 45.8498C149.558 44.1855 148.463 42.7079 147.082 41.5283L143.747 38.6793L146.474 42.2382C147.285 43.2958 147.906 44.4854 148.311 45.7547V45.7547C148.561 46.5373 148.743 47.3401 148.854 48.1541L149.181 50.5409V52.3627C149.181 53.5519 149.063 54.7383 148.829 55.9043L147.392 63.067L144.735 70.1384L147.392 71.7125L147.823 70.6852C149.181 67.4478 150.297 64.1141 151.163 60.7116L151.651 58.7925L152.124 55.5835C152.351 54.0471 152.3 52.4824 151.975 50.9637L151.916 50.6877Z" fill="#FDF5E8"/>
<path d="M119.568 67.7989C119.135 68.7614 119.33 69.8906 120.06 70.6523V70.6523C120.311 70.9134 120.613 71.119 120.948 71.256L124.444 72.6869C124.912 72.8783 125.427 72.921 125.919 72.8093V72.8093C126.716 72.6289 127.37 72.0651 127.667 71.3046L128.091 70.2183C128.198 69.9439 128.279 69.6601 128.332 69.3705L129.134 65.0202L130.149 59.8614C130.179 59.7117 130.194 59.5596 130.194 59.407V58.8306C130.194 58.3077 129.903 57.8282 129.439 57.5865V57.5865C129.239 57.4821 129.016 57.4276 128.791 57.4276H128.089C127.029 57.4276 126.062 58.036 125.604 58.9921V58.9921L123.937 61.8496C123.313 62.9182 122.597 63.9295 121.795 64.8716L120.145 66.8096C119.96 67.0267 119.807 67.2689 119.69 67.5289L119.568 67.7989Z" fill="#E4A890"/>
<path d="M120.236 48.9321C119.726 48.8287 119.207 48.7767 118.687 48.7767H117.054C116.728 48.7767 116.408 48.6892 116.128 48.5233L115.592 48.207C115.369 48.0752 115.232 47.8355 115.232 47.5764V47.5764C115.232 47.1719 115.56 46.844 115.965 46.844H116.159H117.299C118.566 46.844 119.828 46.9802 121.066 47.2502L122.011 47.4564C122.668 47.5999 123.307 47.8163 123.917 48.1017L125.711 48.9423C125.93 49.0449 126.119 49.2018 126.26 49.3981L126.517 49.7551C126.636 49.9199 126.663 50.1332 126.591 50.3227V50.3227C126.501 50.5556 126.278 50.7093 126.028 50.7093H125.419C125.192 50.7093 124.968 50.6576 124.765 50.5581L123.662 50.0191L121.058 49.0988L120.236 48.9321Z" fill="#E3A58D"/>
<path d="M144.017 58.0058C143.923 57.8967 143.818 57.7966 143.705 57.7069L143.114 57.2386C142.158 56.4809 141.076 55.8971 139.917 55.5139L137.078 54.5746L136.044 54.283C135.69 54.1833 135.446 53.8607 135.446 53.4932V53.4932C135.446 53.2458 135.557 53.0116 135.749 52.8558L135.844 52.7789C136.095 52.5757 136.423 52.4956 136.739 52.5606L138.914 53.0076C139.22 53.0705 139.52 53.1582 139.812 53.2697L140.366 53.4816C141.465 53.9016 142.501 54.468 143.448 55.1656L145.812 56.9067C145.989 57.0372 146.131 57.2093 146.227 57.4077L146.374 57.7144C146.493 57.9636 146.469 58.2578 146.31 58.4838V58.4838C146.167 58.6871 145.934 58.8081 145.685 58.8081H145.353C144.947 58.8081 144.561 58.6318 144.294 58.3248L144.017 58.0058Z" fill="#DFA38D"/>
<path d="M133.151 50.0191L131.395 49.36C131.097 49.2483 130.824 49.0799 130.59 48.8643L129.982 48.3035C129.864 48.1945 129.796 48.041 129.796 47.8801V47.8801C129.796 47.562 130.054 47.3042 130.372 47.3042H130.506C130.591 47.3042 130.676 47.3196 130.756 47.3497L132.224 47.9024L133.92 48.5391C134.253 48.6642 134.545 48.8811 134.76 49.1647L135.114 49.6316C135.213 49.7611 135.251 49.9262 135.221 50.0859V50.0859C135.154 50.4354 134.788 50.6398 134.455 50.5137L133.151 50.0191Z" fill="#E0A68E"/>
<path d="M136.858 46.2458L134.868 45.2951C134.078 44.9171 133.258 44.6023 132.418 44.3535L130.442 43.7684C130.219 43.7024 129.987 43.6689 129.755 43.6689H128.656C128.307 43.6689 127.994 43.4521 127.872 43.1251V43.1251C127.804 42.9413 127.802 42.7393 127.867 42.5544L127.871 42.544C127.993 42.1978 128.321 41.9663 128.688 41.9663H129.714C129.973 41.9663 130.23 42.0098 130.475 42.0948L133.68 43.2088L138.304 45.0693C138.57 45.1765 138.8 45.3572 138.968 45.5903L139.211 45.928C139.314 46.0713 139.35 46.2525 139.309 46.4243V46.4243C139.243 46.6974 138.999 46.89 138.718 46.89H138.501C138.378 46.89 138.256 46.8643 138.144 46.8146L136.858 46.2458Z" fill="#E0A48B"/>
<path d="M130.414 39.2974L128.721 39.039C128.644 39.0273 128.566 39.0213 128.488 39.0213H128.027C127.731 39.0213 127.461 38.8564 127.325 38.5937L127.295 38.5356C127.257 38.4617 127.237 38.3797 127.237 38.2965V38.2965C127.237 38.1433 127.304 37.9979 127.421 37.8989L127.631 37.721C127.832 37.5504 128.088 37.4568 128.352 37.4568H129.235C129.578 37.4568 129.919 37.5069 130.248 37.6054L132.974 38.4231L140.136 41.4188C140.421 41.5381 140.694 41.6851 140.951 41.8577L142.933 43.191C143.16 43.3436 143.284 43.6087 143.257 43.8807V43.8807C143.23 44.1478 143.061 44.3794 142.814 44.4863L142.672 44.5483C142.35 44.6881 141.979 44.6504 141.692 44.4488L140.271 43.4508C140.085 43.3203 139.888 43.2055 139.684 43.1075L137.299 41.9663L135.814 41.2459C134.277 40.5008 132.674 39.9031 131.024 39.4609L130.414 39.2974Z" fill="#DFA891"/>
<path d="M124.589 75.2817L121.081 74.1161C120.743 74.0039 120.419 73.8539 120.115 73.669L120.054 73.6319C119.354 73.2061 118.551 72.9809 117.731 72.9809H117.499C117.109 72.9809 116.723 73.0519 116.359 73.1903V73.1903C114.819 73.7764 113.974 75.4361 114.407 77.0266L114.473 77.2667C114.596 77.718 114.808 78.1399 115.098 78.5071L115.559 79.0921C116.439 80.2076 117.633 81.035 118.986 81.4681L119.341 81.5817C120.671 82.0072 122.085 82.0928 123.456 81.8307L125.629 81.4154C126.296 81.2879 126.896 80.9234 127.318 80.391V80.391C127.949 79.595 128.105 78.5193 127.725 77.5777V77.5777C127.665 77.4278 127.591 77.2834 127.506 77.146L127.465 77.0804C126.951 76.252 126.133 75.6584 125.185 75.4273L124.589 75.2817Z" fill="#E4A890"/>
<path d="M126.045 79.2391C125.9 79.8051 123.061 79.4296 120.061 78.458C117.174 77.6513 115.352 75.9858 115.497 75.4198C115.643 74.8538 118.24 75.4384 121.128 76.2451C124.015 77.0518 126.191 78.6731 126.045 79.2391Z" fill="black"/>
<path d="M124.273 55.6244C124.053 56.9259 121.448 57.6951 118.8 56.9128C116.232 56.4406 114.653 54.349 114.872 53.0475C115.093 51.7461 117.556 51.13 120.124 51.6022C122.693 52.0743 124.493 54.3229 124.273 55.6244Z" fill="black"/>
<path d="M142.675 62.7041C142.393 64.0838 139.749 64.8387 137.132 63.9414C134.581 63.3761 133.096 61.1114 133.378 59.7317C133.658 58.3521 136.231 57.5017 138.75 58.6521C141.301 59.2174 142.956 61.3245 142.675 62.7041Z" fill="black"/>
<path d="M117.881 118.721L111.145 115.522L112.143 109.057V108.818L117.528 98.8418L117.881 99.0258L125.692 102.845L117.881 118.721Z" fill="#0280B2" stroke="#0381B1"/>
<path d="M129.916 124.289L117.881 118.721L125.427 102.707L136.831 109.333L129.916 124.289Z" fill="black" stroke="black"/>
<path d="M127.94 103.145L119.048 120.164L126.952 124.289L130.904 116.553L135.349 107.786L131.891 105.208L127.94 103.145Z" fill="#0280B2"/>
<path d="M129.488 124.749L137.387 109.149L138.844 111.036L140.609 120.745L141.977 126.405L141.227 128.476V131.283L131.694 125.853L129.488 124.749Z" fill="#0283B4"/>
<path d="M138.844 111.036L137.387 109.149L129.488 124.749L131.694 125.853M138.844 111.036L131.694 125.853M138.844 111.036L140.609 120.745L141.977 126.405L141.227 128.476V131.283L131.694 125.853" stroke="#0381B1"/>
<path d="M145.508 131.743L143.522 129.12L141.845 126.635L140.256 119.963L138.535 109.471L138.141 105.175C138.022 103.871 138.045 102.558 138.21 101.259L138.456 99.3264C138.507 98.924 138.697 98.5521 138.994 98.275V98.275C139.171 98.109 139.443 98.0957 139.636 98.2435L141.158 99.4099C142.137 100.16 143.247 100.722 144.43 101.068L145.155 101.281L148.193 101.597L155.968 133.262L150.407 133.676L145.508 131.743Z" fill="#14AEEC"/>
<path d="M143.153 128.646C142.993 128.364 142.559 127.615 142.106 126.868L141.771 126.352L141.546 127.398C141.367 128.228 141.277 129.074 141.277 129.924V131.18L141.452 131.728C141.711 132.542 142.117 133.301 142.648 133.97V133.97C142.983 134.39 143.373 134.764 143.808 135.081L144.412 135.521C144.994 135.944 145.639 136.272 146.324 136.492L146.583 136.575C147.836 136.978 149.144 137.182 150.46 137.182H151.702L154.208 136.284C155.176 135.937 156.072 135.418 156.853 134.751V134.751C157.488 134.21 158.06 133.599 158.558 132.93L158.763 132.653C159.49 131.675 160.088 130.608 160.542 129.478L161.036 128.246L160.419 128.807C159.495 129.646 158.491 130.392 157.421 131.035L156.819 131.396C155.689 132.074 154.425 132.496 153.115 132.631L151.774 132.77C150.574 132.895 149.361 132.79 148.199 132.462L147.756 132.337C146.821 132.073 145.955 131.609 145.217 130.977V130.977C144.512 130.374 143.886 129.686 143.351 128.928L143.153 128.646Z" fill="#01363F" stroke="#01363F"/>
<path d="M117.072 99.5346L111.638 109.849V104.692L111.144 101.597L111.034 100.787C110.779 98.925 110.344 97.0922 109.734 95.3145L109.319 94.1021L108.657 92.6296L107.193 90.2516L109.348 90.696C109.945 90.8192 110.531 90.9912 111.101 91.2103L111.214 91.2539C112.475 91.7392 113.661 92.3976 114.741 93.2102V93.2102C115.244 93.589 115.705 94.0202 116.117 94.4965L116.722 95.196C117.253 95.8092 117.643 96.5306 117.866 97.3101L118.011 97.8169C118.044 97.9301 118.06 98.0471 118.06 98.1648V98.1648C118.06 98.3819 117.976 98.5907 117.826 98.7475L117.072 99.5346Z" fill="#4CA3C6" stroke="#49A1C0"/>
<path d="M155.108 89.2201L155.602 92.3145L156.571 93.6372C157.855 95.3916 158.678 97.44 158.966 99.595L161.882 121.435V123.368L161.308 128.292L161.61 127.788C162.717 125.942 163.367 123.858 163.506 121.711V121.711L163.294 117.069L161.231 98.7628C161.106 97.6546 160.834 96.5681 160.423 95.5317L160.364 95.3831C159.827 94.0333 159.083 92.7759 158.157 91.6567V91.6567C157.381 90.7188 156.433 89.9386 155.363 89.3583L155.108 89.2201Z" fill="#F6E567" stroke="#F6E567"/>
<path d="M138.623 91.6633L136.24 90.881L130.15 87.6139V85.6813L131.121 83.8406L132.356 82.5982L131.121 80.8036L132.356 78.4568L133.901 77.9444L133.416 75.9719L134.298 74.2694L135.446 73.119H137.476L136.681 71.6005L137.917 69.2997L140.124 68.5174L147.494 71.6005L151.29 73.6712L149.304 76.9383L147.494 77.8126V78.4568L146.479 80.0213L144.228 82.1381L143.213 85.6813L141.183 86.6476V89.1785L140.124 90.881L138.623 91.6633Z" fill="#0280B2"/>
<path d="M144.228 82.1381L143.213 85.6813L141.183 86.6476V89.1785L140.124 90.881L138.623 91.6633L136.24 90.881L130.15 87.6139V85.6813L131.121 83.8406L132.356 82.5982L131.121 80.8036L132.356 78.4568L134.298 77.8126L135.446 78.3124M144.228 82.1381L146.479 80.0213L147.494 78.4568V77.8126L149.304 76.9383L151.29 73.6712L147.494 71.6005L140.124 68.5174L137.917 69.2997L136.681 71.6005L137.476 73.119H135.446L134.298 74.2694L133.416 75.9719L133.901 77.9444L135.446 78.3124M144.228 82.1381L142.198 81.2537L138.623 79.5152L135.446 78.3124" stroke="#03597B"/>
<path d="M119.048 34.5535V30.4277L119.843 30.8426C120.61 31.2428 121.226 31.8807 121.599 32.6608L122.012 33.522L119.048 34.5535Z" fill="#8CE2F9" stroke="#8CE2F9"/>
<ellipse cx="67.1808" cy="38.1635" rx="9.87952" ry="10.3145" fill="#EBBA48"/>
<path d="M67.1804 30.412C71.2492 30.412 74.5847 33.8623 74.5847 38.1639C74.5845 42.4653 71.2491 45.9149 67.1804 45.9149C63.1119 45.9147 59.7773 42.4652 59.7771 38.1639C59.7771 33.8624 63.1117 30.4121 67.1804 30.412Z" fill="#EBBA48" stroke="#F1EACD"/>
<ellipse cx="1.48437" cy="2.05977" rx="1.48437" ry="2.05977" transform="matrix(0.979884 0.199569 -0.183673 0.982987 69.9131 37.1321)" fill="#EEE8D8"/>
<ellipse cx="69.6507" cy="42.805" rx="0.493976" ry="0.515723" fill="#EFE8DC"/>
<ellipse cx="93.8553" cy="43.3208" rx="9.87952" ry="10.3145" fill="#EBBA48"/>
<path d="M93.855 35.5692C97.9238 35.5692 101.259 39.0195 101.259 43.3211C101.259 47.6226 97.9237 51.0721 93.855 51.0721C89.7864 51.072 86.4519 47.6225 86.4517 43.3211C86.4517 39.0197 89.7863 35.5694 93.855 35.5692Z" fill="#EBBA48" stroke="#F1EACD"/>
<ellipse cx="1.48437" cy="2.05977" rx="1.48437" ry="2.05977" transform="matrix(0.979884 0.199569 -0.183673 0.982987 96.5876 42.2893)" fill="#EEE8D8"/>
<ellipse cx="96.3253" cy="47.9623" rx="0.493976" ry="0.515723" fill="#EFE8DC"/>
</g>
<defs>
<clipPath id="clip0_103_866">
<rect width="164" height="164" fill="white"/>
</clipPath>
</defs>
</svg>

