<svg width="241" height="63" viewBox="0 0 241 63" fill="none" xmlns="http://www.w3.org/2000/svg">
<path opacity="0.4" d="M0 31.4361C0 31.4361 6.94319 17.5902 16.4956 17.4713C26.3797 17.3376 25.9375 31.763 35.7774 31.4361C56.3638 30.7379 43.2955 0.134109 63.9482 0.000403167C84.601 -0.133303 73.9429 30.6933 94.7504 31.4361C104.347 31.7778 105.077 18.0655 114.651 18.0655C124.226 18.0655 124.16 31.4361 133.668 31.4361C139.594 31.4361 139.129 22.9235 145.055 23.0127C150.982 23.1018 148.881 31.6144 154.586 31.4361C171.944 30.8716 156.244 4.30871 173.646 4.32356C191.049 4.33842 175.681 29.5791 192.398 31.4361C201.242 32.4612 209.512 20.7991 218.733 21.0368C227.268 21.1705 241 31.4361 241 31.4361H0Z" fill="#4B95FA" fill-opacity="0.76"/>
<mask id="mask0_15_718" style="mask-type:alpha" maskUnits="userSpaceOnUse" x="0" y="-1" width="241" height="33">
<path opacity="0.4" d="M194.636 31.4366C194.03 31.5023 193.422 31.5186 192.812 31.4747L192.397 31.4366H194.636ZM95.1934 31.4415L94.75 31.4366H95.3477C95.2965 31.4379 95.2451 31.441 95.1934 31.4415ZM16.4961 17.4718C26.1872 17.3411 25.951 31.2043 35.2139 31.4366H0C0 31.4366 6.94366 17.5906 16.4961 17.4718ZM63.9482 9.15527e-05C84.6008 -0.133613 73.943 30.6934 94.75 31.4366H35.7773C56.3637 30.7384 43.2955 0.133801 63.9482 9.15527e-05ZM114.651 18.0655C124.226 18.0656 124.16 31.4366 133.668 31.4366H95.3477C104.382 31.2012 105.279 18.0655 114.651 18.0655ZM145.056 23.0128C150.872 23.1004 148.956 31.3029 154.278 31.4366H133.668C139.594 31.4364 139.13 22.9237 145.056 23.0128ZM173.646 4.32333C191.049 4.33823 175.681 29.5796 192.397 31.4366H154.586C171.944 30.872 156.244 4.30848 173.646 4.32333ZM218.733 21.0372C227.269 21.1712 241 31.4366 241 31.4366H194.636C202.651 30.5675 210.294 20.8197 218.733 21.0372Z" fill="#4B95FA" fill-opacity="0.76"/>
</mask>
<g mask="url(#mask0_15_718)">
<g opacity="0.5">
<path d="M17.2729 31.4522C17.2729 31.4522 23.2254 21.0705 31.4127 20.9201C39.6001 20.7696 39.4894 31.6629 47.9202 31.4522C65.6226 30.9256 54.3594 7.96551 72.0618 7.87523C89.7642 7.78496 80.6917 30.8955 98.3941 31.4522C106.626 31.708 107.245 21.4016 115.477 21.4317C123.708 21.4617 123.642 31.4974 131.785 31.4522C136.875 31.4522 136.454 25.0728 141.544 25.1329C146.633 25.1931 144.819 31.5877 149.709 31.4522C164.579 31.031 151.125 11.0951 166.039 11.1101C180.954 11.1252 167.765 30.0078 182.082 31.4522C189.694 32.2196 196.731 23.4779 204.63 23.5983C211.955 23.7036 223.727 31.4522 223.727 31.4522H17.2729Z" fill="#1E33B9" fill-opacity="0.42" style="mix-blend-mode:lighten"/>
</g>
</g>
<path opacity="0.1" d="M0 31.5639C0 31.5639 6.94319 45.4164 16.4956 45.5353C26.3797 45.6691 25.9375 31.2221 35.7774 31.5639C56.3638 32.2625 43.2955 62.8807 63.9482 62.9996C84.601 63.1185 73.9429 32.3071 94.7504 31.5639C104.347 31.2221 105.077 44.9408 114.651 44.9408C124.226 44.9408 124.16 31.5639 133.668 31.5639C139.594 31.5639 139.129 40.0657 145.055 39.9914C150.982 39.9171 148.881 31.3707 154.586 31.5639C171.944 32.1139 156.244 58.7042 173.646 58.6893C191.049 58.6744 175.681 33.4218 192.398 31.5639C201.242 30.5383 209.512 42.1911 218.733 42.0425C227.268 41.8939 241 31.5639 241 31.5639H0Z" fill="#4B95FA"/>
</svg>
