<svg width="375" height="116" viewBox="0 0 375 116" fill="none" xmlns="http://www.w3.org/2000/svg">
<path d="M52 87.2901C72.3333 83.7901 95.9458 74.0049 129.5 79.7901C173 87.2901 175.5 103.295 223 109.29C274.5 115.79 301.5 105.123 324 102.29" stroke="#D5F0FF" stroke-width="9"/>
<path d="M82.8141 61.004L82.4781 62.81C82.1981 64.07 81.5541 65.05 80.5461 65.75C79.5661 66.45 78.4461 66.716 77.1861 66.548C75.7861 66.352 74.3861 66.254 72.9861 66.254C68.1701 66.254 64.4321 67.626 61.7721 70.37C59.1121 73.142 57.7821 76.376 57.7821 80.072C57.7821 82.984 58.7061 85.308 60.5541 87.044C62.3741 88.752 64.8381 89.606 67.9461 89.606C69.8501 89.606 71.8801 89.27 74.0361 88.598C75.6601 88.15 77.0601 88.416 78.2361 89.396C79.4401 90.348 79.9581 91.664 79.7901 93.344V93.386C75.5621 95.262 71.3901 96.2 67.2741 96.2C62.1221 96.2 57.9501 94.688 54.7581 91.664C51.5661 88.668 49.9701 84.748 49.9701 79.904C49.9701 73.996 52.1261 69.152 56.4381 65.372C60.7501 61.592 66.3221 59.702 73.1541 59.702C76.1501 59.702 79.3701 60.136 82.8141 61.004ZM108.221 63.692C108.417 62.572 108.907 61.662 109.691 60.962C110.503 60.262 111.469 59.898 112.589 59.87C113.261 59.87 113.891 59.87 114.479 59.87C115.067 59.87 115.543 59.87 115.907 59.87C116.299 59.87 116.495 59.87 116.495 59.87L111.665 96.158C111.637 96.158 111.231 96.158 110.447 96.158C109.691 96.158 108.809 96.158 107.801 96.158C106.793 96.186 105.897 96.2 105.113 96.2C104.329 96.2 103.937 96.2 103.937 96.2L105.869 80.66H91.6312L89.4472 96.2C89.4472 96.2 89.0552 96.2 88.2712 96.2C87.5152 96.2 86.6332 96.2 85.6252 96.2C84.6172 96.2 83.7352 96.2 82.9792 96.2C82.2232 96.2 81.8032 96.2 81.7192 96.2C81.7192 96.2 81.7192 96.186 81.7192 96.158C81.7192 96.158 81.9012 94.856 82.2652 92.252C82.6292 89.648 83.0632 86.484 83.5672 82.76C84.0992 79.036 84.6172 75.354 85.1212 71.714C85.6532 68.074 86.0732 65.12 86.3812 62.852C86.5212 61.984 86.9132 61.27 87.5572 60.71C88.2012 60.15 88.9572 59.87 89.8252 59.87H94.5292L92.5552 73.982H106.793L108.221 63.692ZM125.201 88.64L123.101 93.218C121.981 95.206 120.413 96.2 118.397 96.2H113.231C113.231 96.2 113.819 95.024 114.995 92.672C116.171 90.348 117.613 87.478 119.321 84.062C121.057 80.618 122.807 77.146 124.571 73.646C126.335 70.118 127.861 67.08 129.149 64.532C130.969 61.424 133.475 59.87 136.667 59.87H140.699C140.727 59.982 141.021 61.228 141.581 63.608C142.141 65.988 142.827 68.942 143.639 72.47C144.479 75.998 145.319 79.54 146.159 83.096C146.999 86.652 147.713 89.662 148.301 92.126C148.525 93.19 148.301 94.128 147.629 94.94C146.985 95.78 146.131 96.2 145.067 96.2H140.741L139.313 88.64H125.201ZM135.281 66.59L127.721 82.718H138.347L135.323 66.59H135.281ZM158.724 90.026H173.466L172.122 96.242H152.592C151.948 96.242 151.444 96.046 151.08 95.654C150.716 95.29 150.59 94.688 150.702 93.848L155.028 62.726C155.168 61.858 155.546 61.144 156.162 60.584C156.806 60.024 157.562 59.744 158.43 59.744H162.924L158.724 90.026ZM182.999 90.026H197.741L196.397 96.242H176.867C176.223 96.242 175.719 96.046 175.355 95.654C174.991 95.29 174.865 94.688 174.977 93.848L179.303 62.726C179.443 61.858 179.821 61.144 180.437 60.584C181.081 60.024 181.837 59.744 182.705 59.744H187.199L182.999 90.026ZM198.874 96.242L203.326 64.826C203.55 63.37 204.194 62.18 205.258 61.256C206.35 60.304 207.624 59.828 209.08 59.828H230.962L230.584 62.474C230.472 63.202 230.15 63.804 229.618 64.28C229.086 64.728 228.47 64.952 227.77 64.952H211.18L209.878 74.36H226.804L225.964 80.324H209.038L207.484 90.32H226.678L226.468 92.378C226.3 93.498 225.81 94.422 224.998 95.15C224.186 95.878 223.234 96.242 222.142 96.242H198.874ZM258.767 86.582L263.051 59.996H270.989L265.235 96.158H254.945L243.731 67.43L239.951 96.158H232.139L236.927 59.828H244.235C246.811 59.828 248.757 61.144 250.073 63.776C251.081 66.352 252.243 69.362 253.559 72.806C254.875 76.25 256.037 79.33 257.045 82.046C258.053 84.734 258.613 86.246 258.725 86.582H258.767ZM298.359 60.374C300.067 60.878 301.453 61.438 302.517 62.054C303.609 62.642 304.155 62.936 304.155 62.936L303.399 64.826C302.979 65.778 302.321 66.436 301.425 66.8C300.529 67.164 299.605 67.164 298.653 66.8C298.037 66.548 297.463 66.352 296.931 66.212C295.755 65.876 294.369 65.708 292.773 65.708C291.065 65.708 289.483 66.002 288.027 66.59C286.571 67.178 285.283 68.018 284.163 69.11C283.015 70.174 282.077 71.476 281.349 73.016C280.593 74.528 280.089 76.194 279.837 78.014C279.557 80.03 279.571 81.808 279.879 83.348C280.215 84.888 280.789 86.176 281.601 87.212C282.413 88.248 283.463 89.018 284.751 89.522C286.039 90.054 287.495 90.32 289.119 90.32C289.903 90.32 290.701 90.236 291.513 90.068C292.325 89.872 293.095 89.592 293.823 89.228L295.251 81.08H288.573L289.245 77.888C289.385 77.244 289.707 76.712 290.211 76.292C290.743 75.872 291.345 75.662 292.017 75.662H301.215C301.495 75.662 301.747 75.704 301.971 75.788C302.195 75.9 302.377 76.054 302.517 76.25C302.657 76.446 302.755 76.684 302.811 76.964C302.867 77.244 302.867 77.566 302.811 77.93L300.417 93.638C300.417 93.638 300.249 93.694 299.913 93.806C299.605 93.946 299.199 94.1 298.695 94.268C298.191 94.464 297.673 94.66 297.141 94.856C296.665 95.024 296.091 95.192 295.419 95.36C294.775 95.528 294.187 95.654 293.655 95.738C292.703 95.934 291.751 96.074 290.799 96.158C289.819 96.242 288.853 96.284 287.901 96.284C285.073 96.284 282.609 95.878 280.509 95.066C278.409 94.254 276.687 93.092 275.343 91.58C274.027 90.04 273.117 88.164 272.613 85.952C272.109 83.74 272.053 81.234 272.445 78.434C272.837 75.55 273.635 72.96 274.839 70.664C276.015 68.368 277.527 66.422 279.375 64.826C281.027 63.37 282.917 62.222 285.045 61.382C285.101 61.354 285.143 61.34 285.171 61.34C285.339 61.256 285.507 61.186 285.675 61.13C287.635 60.29 290.001 59.87 292.773 59.87C293.557 59.87 294.481 59.912 295.545 59.996C296.609 60.052 297.547 60.178 298.359 60.374ZM306.81 96.242L311.262 64.826C311.486 63.37 312.13 62.18 313.194 61.256C314.286 60.304 315.56 59.828 317.016 59.828H338.898L338.52 62.474C338.408 63.202 338.086 63.804 337.554 64.28C337.022 64.728 336.406 64.952 335.706 64.952H319.116L317.814 74.36H334.74L333.9 80.324H316.974L315.42 90.32H334.614L334.404 92.378C334.236 93.498 333.746 94.422 332.934 95.15C332.122 95.878 331.17 96.242 330.078 96.242H306.81Z" fill="#292929"/>
<path d="M69.4691 10.372L69.7211 9.196C69.9731 7.964 70.5611 6.956 71.4851 6.172C72.4371 5.388 73.5291 4.996 74.7611 4.996H99.3731L99.1211 6.55C98.9251 7.67 98.4071 8.594 97.5671 9.322C96.7551 10.022 95.7891 10.372 94.6691 10.372H88.0751L84.5471 35.488C84.2951 37.168 83.5531 38.54 82.3211 39.604C81.0891 40.668 79.6471 41.2 77.9951 41.2H75.9371L80.2631 10.372H69.4691ZM126.719 4.828L123.569 27.172C122.281 36.496 116.779 41.158 107.063 41.158C101.967 41.158 98.0471 40.01 95.3031 37.714C92.5591 35.39 91.1871 32.184 91.1871 28.096C91.1871 27.172 91.2571 26.22 91.3971 25.24L93.7911 8.734C93.9871 7.586 94.5051 6.648 95.3451 5.92C96.1851 5.192 97.1651 4.828 98.2851 4.828H101.981L99.0831 25.156C98.9991 25.828 98.9571 26.458 98.9571 27.046C98.9571 29.51 99.7131 31.372 101.225 32.632C102.709 33.892 104.655 34.522 107.063 34.522C109.527 34.522 111.557 33.85 113.153 32.506C114.749 31.134 115.715 29.146 116.051 26.542L118.571 8.776C118.739 7.628 119.243 6.69 120.083 5.962C120.951 5.206 121.945 4.828 123.065 4.828H126.719ZM129.55 41.2L133.918 9.616C134.142 8.216 134.758 7.068 135.766 6.172C136.802 5.276 138.02 4.828 139.42 4.828H152.02C153.756 4.828 155.128 5.122 156.136 5.71C157.144 6.27 157.83 6.788 158.194 7.264C158.922 8.132 159.44 9.154 159.748 10.33C160.028 11.506 160.056 12.85 159.832 14.362C159.664 15.65 159.342 16.826 158.866 17.89C158.39 18.954 157.774 19.906 157.018 20.746C156.262 21.558 155.38 22.272 154.372 22.888C153.364 23.504 152.23 24.008 150.97 24.4C151.502 24.68 152.006 25.016 152.482 25.408C152.93 25.8 153.336 26.276 153.7 26.836C154.064 27.396 154.386 28.04 154.666 28.768C154.974 29.496 155.254 30.308 155.506 31.204L157.858 39.352C157.97 39.828 157.886 40.248 157.606 40.612C157.326 41.004 156.948 41.2 156.472 41.2H149.668L147.442 32.548C147.162 31.568 146.868 30.714 146.56 29.986C146.28 29.23 145.93 28.6 145.51 28.096C145.09 27.592 144.586 27.2 143.998 26.92C143.41 26.668 142.696 26.542 141.856 26.542H139.42L137.362 41.2H129.55ZM141.772 9.826L140.26 20.704H144.208C145.328 20.704 146.322 20.564 147.19 20.284C148.058 20.032 148.8 19.668 149.416 19.192C150.06 18.688 150.564 18.1 150.928 17.428C151.292 16.756 151.53 16 151.642 15.16C151.838 13.9 151.712 12.836 151.264 11.968C150.788 11.1 149.934 10.484 148.702 10.12C148.31 10.036 147.862 9.966 147.358 9.91C146.854 9.854 146.168 9.826 145.3 9.826H141.772ZM161.455 41.242L166.117 8.188C166.257 7.208 166.691 6.41 167.419 5.794C168.175 5.15 169.043 4.828 170.023 4.828H174.433L169.855 37.294C169.687 38.442 169.169 39.38 168.301 40.108C167.461 40.864 166.467 41.242 165.319 41.242H161.455ZM206.501 31.582L210.785 4.996H218.723L212.969 41.158H202.679L191.465 12.43L187.685 41.158H179.873L184.661 4.828H191.969C194.545 4.828 196.491 6.144 197.807 8.776C198.815 11.352 199.977 14.362 201.293 17.806C202.609 21.25 203.771 24.33 204.779 27.046C205.787 29.734 206.347 31.246 206.459 31.582H206.501ZM246.092 5.374C247.8 5.878 249.186 6.438 250.25 7.054C251.342 7.642 251.888 7.936 251.888 7.936L251.132 9.826C250.712 10.778 250.054 11.436 249.158 11.8C248.262 12.164 247.338 12.164 246.386 11.8C245.77 11.548 245.196 11.352 244.664 11.212C243.488 10.876 242.102 10.708 240.506 10.708C238.798 10.708 237.216 11.002 235.76 11.59C234.304 12.178 233.016 13.018 231.896 14.11C230.748 15.174 229.81 16.476 229.082 18.016C228.326 19.528 227.822 21.194 227.57 23.014C227.29 25.03 227.304 26.808 227.612 28.348C227.948 29.888 228.522 31.176 229.334 32.212C230.146 33.248 231.196 34.018 232.484 34.522C233.772 35.054 235.228 35.32 236.852 35.32C237.636 35.32 238.434 35.236 239.246 35.068C240.058 34.872 240.828 34.592 241.556 34.228L242.984 26.08H236.306L236.978 22.888C237.118 22.244 237.44 21.712 237.944 21.292C238.476 20.872 239.078 20.662 239.75 20.662H248.948C249.228 20.662 249.48 20.704 249.704 20.788C249.928 20.9 250.11 21.054 250.25 21.25C250.39 21.446 250.488 21.684 250.544 21.964C250.6 22.244 250.6 22.566 250.544 22.93L248.15 38.638C248.15 38.638 247.982 38.694 247.646 38.806C247.338 38.946 246.932 39.1 246.428 39.268C245.924 39.464 245.406 39.66 244.874 39.856C244.398 40.024 243.824 40.192 243.152 40.36C242.508 40.528 241.92 40.654 241.388 40.738C240.436 40.934 239.484 41.074 238.532 41.158C237.552 41.242 236.586 41.284 235.634 41.284C232.806 41.284 230.342 40.878 228.242 40.066C226.142 39.254 224.42 38.092 223.076 36.58C221.76 35.04 220.85 33.164 220.346 30.952C219.842 28.74 219.786 26.234 220.178 23.434C220.57 20.55 221.368 17.96 222.572 15.664C223.748 13.368 225.26 11.422 227.108 9.826C228.76 8.37 230.65 7.222 232.778 6.382C232.834 6.354 232.876 6.34 232.904 6.34C233.072 6.256 233.24 6.186 233.408 6.13C235.368 5.29 237.734 4.87 240.506 4.87C241.29 4.87 242.214 4.912 243.278 4.996C244.342 5.052 245.28 5.178 246.092 5.374Z" fill="#292929"/>
</svg>
