<svg width="278" height="86" viewBox="0 0 278 86" fill="none" xmlns="http://www.w3.org/2000/svg">
<g filter="url(#filter0_d_109_898)">
<mask id="path-1-outside-1_109_898" maskUnits="userSpaceOnUse" x="4" y="0" width="270" height="78" fill="black">
<rect fill="white" x="4" width="270" height="78"/>
<path d="M60.876 34.438V7.804H52.182V3.526H78.034V7.804H69.34V34.438H60.876ZM79.902 3.572H88.366V30.114H100.142V3.572H108.652V34.392H79.902V3.572ZM140.99 3.526V21.144H137.494L141.68 34.438H133.446L129.214 21.144H120.75V34.438H112.24V3.526H140.99ZM120.75 16.866H132.48V7.804H120.75V16.866ZM147.614 30.114V7.804H143.75V3.526H159.988V7.804H156.124V30.114H159.988V34.392H143.75V30.114H147.614ZM182.946 3.526H191.134V34.392H180.738L170.572 13.646V34.392H162.384V3.526H173.194L182.946 24.548V3.526ZM195.044 3.526H223.794V7.804H203.554V30.114H215.284V21.282H206.912V17.05H223.794V34.392H195.044V3.526ZM15.7601 70.16H36.0001V74.438H7.25007V43.48H36.0001V47.758H15.7601V70.16ZM38.414 74.438V43.572H46.924V56.268H58.654V43.572H67.164V74.438H58.654V60.638H46.924V74.438H38.414ZM100.79 74.438H92.51L90.762 69.286H79.032L77.284 74.438H69.004L80.274 43.48H89.52L100.79 74.438ZM80.458 65.008H89.29L84.874 51.944L80.458 65.008ZM101.23 74.392V43.526H109.74V70.114H125.242V74.392H101.23ZM125.489 74.392V43.526H133.999V70.114H149.501V74.392H125.489ZM158.259 56.544H176.429V60.776H158.259V70.16H177.165V74.438H149.795V43.48H177.165V47.758H158.259V56.544ZM200.13 43.526H208.318V74.392H197.922L187.756 53.646V74.392H179.568V43.526H190.378L200.13 64.548V43.526ZM212.227 43.526H240.977V47.804H220.737V70.114H232.467V61.282H224.095V57.05H240.977V74.392H212.227V43.526ZM251.972 56.544H270.142V60.776H251.972V70.16H270.878V74.438H243.508V43.48H270.878V47.758H251.972V56.544Z"/>
</mask>
<path d="M60.876 34.438V7.804H52.182V3.526H78.034V7.804H69.34V34.438H60.876ZM79.902 3.572H88.366V30.114H100.142V3.572H108.652V34.392H79.902V3.572ZM140.99 3.526V21.144H137.494L141.68 34.438H133.446L129.214 21.144H120.75V34.438H112.24V3.526H140.99ZM120.75 16.866H132.48V7.804H120.75V16.866ZM147.614 30.114V7.804H143.75V3.526H159.988V7.804H156.124V30.114H159.988V34.392H143.75V30.114H147.614ZM182.946 3.526H191.134V34.392H180.738L170.572 13.646V34.392H162.384V3.526H173.194L182.946 24.548V3.526ZM195.044 3.526H223.794V7.804H203.554V30.114H215.284V21.282H206.912V17.05H223.794V34.392H195.044V3.526ZM15.7601 70.16H36.0001V74.438H7.25007V43.48H36.0001V47.758H15.7601V70.16ZM38.414 74.438V43.572H46.924V56.268H58.654V43.572H67.164V74.438H58.654V60.638H46.924V74.438H38.414ZM100.79 74.438H92.51L90.762 69.286H79.032L77.284 74.438H69.004L80.274 43.48H89.52L100.79 74.438ZM80.458 65.008H89.29L84.874 51.944L80.458 65.008ZM101.23 74.392V43.526H109.74V70.114H125.242V74.392H101.23ZM125.489 74.392V43.526H133.999V70.114H149.501V74.392H125.489ZM158.259 56.544H176.429V60.776H158.259V70.16H177.165V74.438H149.795V43.48H177.165V47.758H158.259V56.544ZM200.13 43.526H208.318V74.392H197.922L187.756 53.646V74.392H179.568V43.526H190.378L200.13 64.548V43.526ZM212.227 43.526H240.977V47.804H220.737V70.114H232.467V61.282H224.095V57.05H240.977V74.392H212.227V43.526ZM251.972 56.544H270.142V60.776H251.972V70.16H270.878V74.438H243.508V43.48H270.878V47.758H251.972V56.544Z" fill="black"/>
<path d="M60.876 34.438H57.876V37.438H60.876V34.438ZM60.876 7.804H63.876V4.804H60.876V7.804ZM52.182 7.804H49.182V10.804H52.182V7.804ZM52.182 3.526V0.525999H49.182V3.526H52.182ZM78.034 3.526H81.034V0.525999H78.034V3.526ZM78.034 7.804V10.804H81.034V7.804H78.034ZM69.34 7.804V4.804H66.34V7.804H69.34ZM69.34 34.438V37.438H72.34V34.438H69.34ZM60.876 34.438H63.876V7.804H60.876H57.876V34.438H60.876ZM60.876 7.804V4.804H52.182V7.804V10.804H60.876V7.804ZM52.182 7.804H55.182V3.526H52.182H49.182V7.804H52.182ZM52.182 3.526V6.526H78.034V3.526V0.525999H52.182V3.526ZM78.034 3.526H75.034V7.804H78.034H81.034V3.526H78.034ZM78.034 7.804V4.804H69.34V7.804V10.804H78.034V7.804ZM69.34 7.804H66.34V34.438H69.34H72.34V7.804H69.34ZM69.34 34.438V31.438H60.876V34.438V37.438H69.34V34.438ZM79.902 3.572V0.571999H76.902V3.572H79.902ZM88.366 3.572H91.366V0.571999H88.366V3.572ZM88.366 30.114H85.366V33.114H88.366V30.114ZM100.142 30.114V33.114H103.142V30.114H100.142ZM100.142 3.572V0.571999H97.142V3.572H100.142ZM108.652 3.572H111.652V0.571999H108.652V3.572ZM108.652 34.392V37.392H111.652V34.392H108.652ZM79.902 34.392H76.902V37.392H79.902V34.392ZM79.902 3.572V6.572H88.366V3.572V0.571999H79.902V3.572ZM88.366 3.572H85.366V30.114H88.366H91.366V3.572H88.366ZM88.366 30.114V33.114H100.142V30.114V27.114H88.366V30.114ZM100.142 30.114H103.142V3.572H100.142H97.142V30.114H100.142ZM100.142 3.572V6.572H108.652V3.572V0.571999H100.142V3.572ZM108.652 3.572H105.652V34.392H108.652H111.652V3.572H108.652ZM108.652 34.392V31.392H79.902V34.392V37.392H108.652V34.392ZM79.902 34.392H82.902V3.572H79.902H76.902V34.392H79.902ZM140.99 3.526H143.99V0.525999H140.99V3.526ZM140.99 21.144V24.144H143.99V21.144H140.99ZM137.494 21.144V18.144H133.404L134.633 22.045L137.494 21.144ZM141.68 34.438V37.438H145.77L144.542 33.537L141.68 34.438ZM133.446 34.438L130.587 35.348L131.253 37.438H133.446V34.438ZM129.214 21.144L132.073 20.234L131.407 18.144H129.214V21.144ZM120.75 21.144V18.144H117.75V21.144H120.75ZM120.75 34.438V37.438H123.75V34.438H120.75ZM112.24 34.438H109.24V37.438H112.24V34.438ZM112.24 3.526V0.525999H109.24V3.526H112.24ZM120.75 16.866H117.75V19.866H120.75V16.866ZM132.48 16.866V19.866H135.48V16.866H132.48ZM132.48 7.804H135.48V4.804H132.48V7.804ZM120.75 7.804V4.804H117.75V7.804H120.75ZM140.99 3.526H137.99V21.144H140.99H143.99V3.526H140.99ZM140.99 21.144V18.144H137.494V21.144V24.144H140.99V21.144ZM137.494 21.144L134.633 22.045L138.819 35.339L141.68 34.438L144.542 33.537L140.356 20.243L137.494 21.144ZM141.68 34.438V31.438H133.446V34.438V37.438H141.68V34.438ZM133.446 34.438L136.305 33.528L132.073 20.234L129.214 21.144L126.355 22.054L130.587 35.348L133.446 34.438ZM129.214 21.144V18.144H120.75V21.144V24.144H129.214V21.144ZM120.75 21.144H117.75V34.438H120.75H123.75V21.144H120.75ZM120.75 34.438V31.438H112.24V34.438V37.438H120.75V34.438ZM112.24 34.438H115.24V3.526H112.24H109.24V34.438H112.24ZM112.24 3.526V6.526H140.99V3.526V0.525999H112.24V3.526ZM120.75 16.866V19.866H132.48V16.866V13.866H120.75V16.866ZM132.48 16.866H135.48V7.804H132.48H129.48V16.866H132.48ZM132.48 7.804V4.804H120.75V7.804V10.804H132.48V7.804ZM120.75 7.804H117.75V16.866H120.75H123.75V7.804H120.75ZM147.614 30.114V33.114H150.614V30.114H147.614ZM147.614 7.804H150.614V4.804H147.614V7.804ZM143.75 7.804H140.75V10.804H143.75V7.804ZM143.75 3.526V0.525999H140.75V3.526H143.75ZM159.988 3.526H162.988V0.525999H159.988V3.526ZM159.988 7.804V10.804H162.988V7.804H159.988ZM156.124 7.804V4.804H153.124V7.804H156.124ZM156.124 30.114H153.124V33.114H156.124V30.114ZM159.988 30.114H162.988V27.114H159.988V30.114ZM159.988 34.392V37.392H162.988V34.392H159.988ZM143.75 34.392H140.75V37.392H143.75V34.392ZM143.75 30.114V27.114H140.75V30.114H143.75ZM147.614 30.114H150.614V7.804H147.614H144.614V30.114H147.614ZM147.614 7.804V4.804H143.75V7.804V10.804H147.614V7.804ZM143.75 7.804H146.75V3.526H143.75H140.75V7.804H143.75ZM143.75 3.526V6.526H159.988V3.526V0.525999H143.75V3.526ZM159.988 3.526H156.988V7.804H159.988H162.988V3.526H159.988ZM159.988 7.804V4.804H156.124V7.804V10.804H159.988V7.804ZM156.124 7.804H153.124V30.114H156.124H159.124V7.804H156.124ZM156.124 30.114V33.114H159.988V30.114V27.114H156.124V30.114ZM159.988 30.114H156.988V34.392H159.988H162.988V30.114H159.988ZM159.988 34.392V31.392H143.75V34.392V37.392H159.988V34.392ZM143.75 34.392H146.75V30.114H143.75H140.75V34.392H143.75ZM143.75 30.114V33.114H147.614V30.114V27.114H143.75V30.114ZM182.946 3.526V0.525999H179.946V3.526H182.946ZM191.134 3.526H194.134V0.525999H191.134V3.526ZM191.134 34.392V37.392H194.134V34.392H191.134ZM180.738 34.392L178.044 35.7121L178.867 37.392H180.738V34.392ZM170.572 13.646L173.266 12.3259L167.572 13.646H170.572ZM170.572 34.392V37.392H173.572V34.392H170.572ZM162.384 34.392H159.384V37.392H162.384V34.392ZM162.384 3.526V0.525999H159.384V3.526H162.384ZM173.194 3.526L175.915 2.26354L175.109 0.525999H173.194V3.526ZM182.946 24.548L180.225 25.8105L185.946 24.548H182.946ZM182.946 3.526V6.526H191.134V3.526V0.525999H182.946V3.526ZM191.134 3.526H188.134V34.392H191.134H194.134V3.526H191.134ZM191.134 34.392V31.392H180.738V34.392V37.392H191.134V34.392ZM180.738 34.392L183.432 33.0719L173.266 12.3259L170.572 13.646L167.878 14.9661L178.044 35.7121L180.738 34.392ZM170.572 13.646H167.572V34.392H170.572H173.572V13.646H170.572ZM170.572 34.392V31.392H162.384V34.392V37.392H170.572V34.392ZM162.384 34.392H165.384V3.526H162.384H159.384V34.392H162.384ZM162.384 3.526V6.526H173.194V3.526V0.525999H162.384V3.526ZM173.194 3.526L170.473 4.78846L180.225 25.8105L182.946 24.548L185.667 23.2855L175.915 2.26354L173.194 3.526ZM182.946 24.548H185.946V3.526H182.946H179.946V24.548H182.946ZM195.044 3.526V0.525999H192.044V3.526H195.044ZM223.794 3.526H226.794V0.525999H223.794V3.526ZM223.794 7.804V10.804H226.794V7.804H223.794ZM203.554 7.804V4.804H200.554V7.804H203.554ZM203.554 30.114H200.554V33.114H203.554V30.114ZM215.284 30.114V33.114H218.284V30.114H215.284ZM215.284 21.282H218.284V18.282H215.284V21.282ZM206.912 21.282H203.912V24.282H206.912V21.282ZM206.912 17.05V14.05H203.912V17.05H206.912ZM223.794 17.05H226.794V14.05H223.794V17.05ZM223.794 34.392V37.392H226.794V34.392H223.794ZM195.044 34.392H192.044V37.392H195.044V34.392ZM195.044 3.526V6.526H223.794V3.526V0.525999H195.044V3.526ZM223.794 3.526H220.794V7.804H223.794H226.794V3.526H223.794ZM223.794 7.804V4.804H203.554V7.804V10.804H223.794V7.804ZM203.554 7.804H200.554V30.114H203.554H206.554V7.804H203.554ZM203.554 30.114V33.114H215.284V30.114V27.114H203.554V30.114ZM215.284 30.114H218.284V21.282H215.284H212.284V30.114H215.284ZM215.284 21.282V18.282H206.912V21.282V24.282H215.284V21.282ZM206.912 21.282H209.912V17.05H206.912H203.912V21.282H206.912ZM206.912 17.05V20.05H223.794V17.05V14.05H206.912V17.05ZM223.794 17.05H220.794V34.392H223.794H226.794V17.05H223.794ZM223.794 34.392V31.392H195.044V34.392V37.392H223.794V34.392ZM195.044 34.392H198.044V3.526H195.044H192.044V34.392H195.044ZM15.7601 70.16H12.7601V73.16H15.7601V70.16ZM36.0001 70.16H39.0001V67.16H36.0001V70.16ZM36.0001 74.438V77.438H39.0001V74.438H36.0001ZM7.25007 74.438H4.25007V77.438H7.25007V74.438ZM7.25007 43.48V40.48H4.25007V43.48H7.25007ZM36.0001 43.48H39.0001V40.48H36.0001V43.48ZM36.0001 47.758V50.758H39.0001V47.758H36.0001ZM15.7601 47.758V44.758H12.7601V47.758H15.7601ZM15.7601 70.16V73.16H36.0001V70.16V67.16H15.7601V70.16ZM36.0001 70.16H33.0001V74.438H36.0001H39.0001V70.16H36.0001ZM36.0001 74.438V71.438H7.25007V74.438V77.438H36.0001V74.438ZM7.25007 74.438H10.2501V43.48H7.25007H4.25007V74.438H7.25007ZM7.25007 43.48V46.48H36.0001V43.48V40.48H7.25007V43.48ZM36.0001 43.48H33.0001V47.758H36.0001H39.0001V43.48H36.0001ZM36.0001 47.758V44.758H15.7601V47.758V50.758H36.0001V47.758ZM15.7601 47.758H12.7601V70.16H15.7601H18.7601V47.758H15.7601ZM38.414 74.438H35.414V77.438H38.414V74.438ZM38.414 43.572V40.572H35.414V43.572H38.414ZM46.924 43.572H49.924V40.572H46.924V43.572ZM46.924 56.268H43.924V59.268H46.924V56.268ZM58.654 56.268V59.268H61.654V56.268H58.654ZM58.654 43.572V40.572H55.654V43.572H58.654ZM67.164 43.572H70.164V40.572H67.164V43.572ZM67.164 74.438V77.438H70.164V74.438H67.164ZM58.654 74.438H55.654V77.438H58.654V74.438ZM58.654 60.638H61.654V57.638H58.654V60.638ZM46.924 60.638V57.638H43.924V60.638H46.924ZM46.924 74.438V77.438H49.924V74.438H46.924ZM38.414 74.438H41.414V43.572H38.414H35.414V74.438H38.414ZM38.414 43.572V46.572H46.924V43.572V40.572H38.414V43.572ZM46.924 43.572H43.924V56.268H46.924H49.924V43.572H46.924ZM46.924 56.268V59.268H58.654V56.268V53.268H46.924V56.268ZM58.654 56.268H61.654V43.572H58.654H55.654V56.268H58.654ZM58.654 43.572V46.572H67.164V43.572V40.572H58.654V43.572ZM67.164 43.572H64.164V74.438H67.164H70.164V43.572H67.164ZM67.164 74.438V71.438H58.654V74.438V77.438H67.164V74.438ZM58.654 74.438H61.654V60.638H58.654H55.654V74.438H58.654ZM58.654 60.638V57.638H46.924V60.638V63.638H58.654V60.638ZM46.924 60.638H43.924V74.438H46.924H49.924V60.638H46.924ZM46.924 74.438V71.438H38.414V74.438V77.438H46.924V74.438ZM100.79 74.438V77.438H105.075L103.609 73.4118L100.79 74.438ZM92.51 74.438L89.669 75.4019L90.3599 77.438H92.51V74.438ZM90.762 69.286L93.6029 68.3221L92.9121 66.286H90.762V69.286ZM79.032 69.286V66.286H76.8819L76.191 68.3221L79.032 69.286ZM77.284 74.438V77.438H79.4341L80.1249 75.4019L77.284 74.438ZM69.004 74.438L66.185 73.4118L64.7193 77.438H69.004V74.438ZM80.274 43.48V40.48H78.1735L77.455 42.4538L80.274 43.48ZM89.52 43.48L92.339 42.4538L91.6205 40.48H89.52V43.48ZM80.458 65.008L77.616 64.0473L76.2771 68.008H80.458V65.008ZM89.29 65.008V68.008H93.4708L92.132 64.0473L89.29 65.008ZM84.874 51.944L87.716 50.9833L84.874 42.5757L82.032 50.9833L84.874 51.944ZM100.79 74.438V71.438H92.51V74.438V77.438H100.79V74.438ZM92.51 74.438L95.3509 73.4741L93.6029 68.3221L90.762 69.286L87.921 70.2499L89.669 75.4019L92.51 74.438ZM90.762 69.286V66.286H79.032V69.286V72.286H90.762V69.286ZM79.032 69.286L76.191 68.3221L74.443 73.4741L77.284 74.438L80.1249 75.4019L81.8729 70.2499L79.032 69.286ZM77.284 74.438V71.438H69.004V74.438V77.438H77.284V74.438ZM69.004 74.438L71.823 75.4642L83.093 44.5062L80.274 43.48L77.455 42.4538L66.185 73.4118L69.004 74.438ZM80.274 43.48V46.48H89.52V43.48V40.48H80.274V43.48ZM89.52 43.48L86.701 44.5062L97.971 75.4642L100.79 74.438L103.609 73.4118L92.339 42.4538L89.52 43.48ZM80.458 65.008V68.008H89.29V65.008V62.008H80.458V65.008ZM89.29 65.008L92.132 64.0473L87.716 50.9833L84.874 51.944L82.032 52.9047L86.448 65.9687L89.29 65.008ZM84.874 51.944L82.032 50.9833L77.616 64.0473L80.458 65.008L83.3 65.9687L87.716 52.9047L84.874 51.944ZM101.23 74.392H98.2299V77.392H101.23V74.392ZM101.23 43.526V40.526H98.2299V43.526H101.23ZM109.74 43.526H112.74V40.526H109.74V43.526ZM109.74 70.114H106.74V73.114H109.74V70.114ZM125.242 70.114H128.242V67.114H125.242V70.114ZM125.242 74.392V77.392H128.242V74.392H125.242ZM101.23 74.392H104.23V43.526H101.23H98.2299V74.392H101.23ZM101.23 43.526V46.526H109.74V43.526V40.526H101.23V43.526ZM109.74 43.526H106.74V70.114H109.74H112.74V43.526H109.74ZM109.74 70.114V73.114H125.242V70.114V67.114H109.74V70.114ZM125.242 70.114H122.242V74.392H125.242H128.242V70.114H125.242ZM125.242 74.392V71.392H101.23V74.392V77.392H125.242V74.392ZM125.489 74.392H122.489V77.392H125.489V74.392ZM125.489 43.526V40.526H122.489V43.526H125.489ZM133.999 43.526H136.999V40.526H133.999V43.526ZM133.999 70.114H130.999V73.114H133.999V70.114ZM149.501 70.114H152.501V67.114H149.501V70.114ZM149.501 74.392V77.392H152.501V74.392H149.501ZM125.489 74.392H128.489V43.526H125.489H122.489V74.392H125.489ZM125.489 43.526V46.526H133.999V43.526V40.526H125.489V43.526ZM133.999 43.526H130.999V70.114H133.999H136.999V43.526H133.999ZM133.999 70.114V73.114H149.501V70.114V67.114H133.999V70.114ZM149.501 70.114H146.501V74.392H149.501H152.501V70.114H149.501ZM149.501 74.392V71.392H125.489V74.392V77.392H149.501V74.392ZM158.259 56.544H155.259V59.544H158.259V56.544ZM176.429 56.544H179.429V53.544H176.429V56.544ZM176.429 60.776V63.776H179.429V60.776H176.429ZM158.259 60.776V57.776H155.259V60.776H158.259ZM158.259 70.16H155.259V73.16H158.259V70.16ZM177.165 70.16H180.165V67.16H177.165V70.16ZM177.165 74.438V77.438H180.165V74.438H177.165ZM149.795 74.438H146.795V77.438H149.795V74.438ZM149.795 43.48V40.48H146.795V43.48H149.795ZM177.165 43.48H180.165V40.48H177.165V43.48ZM177.165 47.758V50.758H180.165V47.758H177.165ZM158.259 47.758V44.758H155.259V47.758H158.259ZM158.259 56.544V59.544H176.429V56.544V53.544H158.259V56.544ZM176.429 56.544H173.429V60.776H176.429H179.429V56.544H176.429ZM176.429 60.776V57.776H158.259V60.776V63.776H176.429V60.776ZM158.259 60.776H155.259V70.16H158.259H161.259V60.776H158.259ZM158.259 70.16V73.16H177.165V70.16V67.16H158.259V70.16ZM177.165 70.16H174.165V74.438H177.165H180.165V70.16H177.165ZM177.165 74.438V71.438H149.795V74.438V77.438H177.165V74.438ZM149.795 74.438H152.795V43.48H149.795H146.795V74.438H149.795ZM149.795 43.48V46.48H177.165V43.48V40.48H149.795V43.48ZM177.165 43.48H174.165V47.758H177.165H180.165V43.48H177.165ZM177.165 47.758V44.758H158.259V47.758V50.758H177.165V47.758ZM158.259 47.758H155.259V56.544H158.259H161.259V47.758H158.259ZM200.13 43.526V40.526H197.13V43.526H200.13ZM208.318 43.526H211.318V40.526H208.318V43.526ZM208.318 74.392V77.392H211.318V74.392H208.318ZM197.922 74.392L195.228 75.7121L196.051 77.392H197.922V74.392ZM187.756 53.646L190.449 52.3259L184.756 53.646H187.756ZM187.756 74.392V77.392H190.756V74.392H187.756ZM179.568 74.392H176.568V77.392H179.568V74.392ZM179.568 43.526V40.526H176.568V43.526H179.568ZM190.378 43.526L193.099 42.2635L192.293 40.526H190.378V43.526ZM200.13 64.548L197.408 65.8105L203.13 64.548H200.13ZM200.13 43.526V46.526H208.318V43.526V40.526H200.13V43.526ZM208.318 43.526H205.318V74.392H208.318H211.318V43.526H208.318ZM208.318 74.392V71.392H197.922V74.392V77.392H208.318V74.392ZM197.922 74.392L200.615 73.0719L190.449 52.3259L187.756 53.646L185.062 54.9661L195.228 75.7121L197.922 74.392ZM187.756 53.646H184.756V74.392H187.756H190.756V53.646H187.756ZM187.756 74.392V71.392H179.568V74.392V77.392H187.756V74.392ZM179.568 74.392H182.568V43.526H179.568H176.568V74.392H179.568ZM179.568 43.526V46.526H190.378V43.526V40.526H179.568V43.526ZM190.378 43.526L187.656 44.7885L197.408 65.8105L200.13 64.548L202.851 63.2855L193.099 42.2635L190.378 43.526ZM200.13 64.548H203.13V43.526H200.13H197.13V64.548H200.13ZM212.227 43.526V40.526H209.227V43.526H212.227ZM240.977 43.526H243.977V40.526H240.977V43.526ZM240.977 47.804V50.804H243.977V47.804H240.977ZM220.737 47.804V44.804H217.737V47.804H220.737ZM220.737 70.114H217.737V73.114H220.737V70.114ZM232.467 70.114V73.114H235.467V70.114H232.467ZM232.467 61.282H235.467V58.282H232.467V61.282ZM224.095 61.282H221.095V64.282H224.095V61.282ZM224.095 57.05V54.05H221.095V57.05H224.095ZM240.977 57.05H243.977V54.05H240.977V57.05ZM240.977 74.392V77.392H243.977V74.392H240.977ZM212.227 74.392H209.227V77.392H212.227V74.392ZM212.227 43.526V46.526H240.977V43.526V40.526H212.227V43.526ZM240.977 43.526H237.977V47.804H240.977H243.977V43.526H240.977ZM240.977 47.804V44.804H220.737V47.804V50.804H240.977V47.804ZM220.737 47.804H217.737V70.114H220.737H223.737V47.804H220.737ZM220.737 70.114V73.114H232.467V70.114V67.114H220.737V70.114ZM232.467 70.114H235.467V61.282H232.467H229.467V70.114H232.467ZM232.467 61.282V58.282H224.095V61.282V64.282H232.467V61.282ZM224.095 61.282H227.095V57.05H224.095H221.095V61.282H224.095ZM224.095 57.05V60.05H240.977V57.05V54.05H224.095V57.05ZM240.977 57.05H237.977V74.392H240.977H243.977V57.05H240.977ZM240.977 74.392V71.392H212.227V74.392V77.392H240.977V74.392ZM212.227 74.392H215.227V43.526H212.227H209.227V74.392H212.227ZM251.972 56.544H248.972V59.544H251.972V56.544ZM270.142 56.544H273.142V53.544H270.142V56.544ZM270.142 60.776V63.776H273.142V60.776H270.142ZM251.972 60.776V57.776H248.972V60.776H251.972ZM251.972 70.16H248.972V73.16H251.972V70.16ZM270.878 70.16H273.878V67.16H270.878V70.16ZM270.878 74.438V77.438H273.878V74.438H270.878ZM243.508 74.438H240.508V77.438H243.508V74.438ZM243.508 43.48V40.48H240.508V43.48H243.508ZM270.878 43.48H273.878V40.48H270.878V43.48ZM270.878 47.758V50.758H273.878V47.758H270.878ZM251.972 47.758V44.758H248.972V47.758H251.972ZM251.972 56.544V59.544H270.142V56.544V53.544H251.972V56.544ZM270.142 56.544H267.142V60.776H270.142H273.142V56.544H270.142ZM270.142 60.776V57.776H251.972V60.776V63.776H270.142V60.776ZM251.972 60.776H248.972V70.16H251.972H254.972V60.776H251.972ZM251.972 70.16V73.16H270.878V70.16V67.16H251.972V70.16ZM270.878 70.16H267.878V74.438H270.878H273.878V70.16H270.878ZM270.878 74.438V71.438H243.508V74.438V77.438H270.878V74.438ZM243.508 74.438H246.508V43.48H243.508H240.508V74.438H243.508ZM243.508 43.48V46.48H270.878V43.48V40.48H243.508V43.48ZM270.878 43.48H267.878V47.758H270.878H273.878V43.48H270.878ZM270.878 47.758V44.758H251.972V47.758V50.758H270.878V47.758ZM251.972 47.758H248.972V56.544H251.972H254.972V47.758H251.972Z" fill="white" mask="url(#path-1-outside-1_109_898)"/>
</g>
<defs>
<filter id="filter0_d_109_898" x="0.25" y="0.526001" width="277.627" height="84.912" filterUnits="userSpaceOnUse" color-interpolation-filters="sRGB">
<feFlood flood-opacity="0" result="BackgroundImageFix"/>
<feColorMatrix in="SourceAlpha" type="matrix" values="0 0 0 0 0 0 0 0 0 0 0 0 0 0 0 0 0 0 127 0" result="hardAlpha"/>
<feOffset dy="4"/>
<feGaussianBlur stdDeviation="2"/>
<feComposite in2="hardAlpha" operator="out"/>
<feColorMatrix type="matrix" values="0 0 0 0 0 0 0 0 0 0 0 0 0 0 0 0 0 0 0.25 0"/>
<feBlend mode="normal" in2="BackgroundImageFix" result="effect1_dropShadow_109_898"/>
<feBlend mode="normal" in="SourceGraphic" in2="effect1_dropShadow_109_898" result="shape"/>
</filter>
</defs>
</svg>
