<svg width="329" height="84" viewBox="0 0 329 84" fill="none" xmlns="http://www.w3.org/2000/svg">
<path d="M30 54.5001C50.3333 51.0001 71.5 45 107.5 47.0001C151.574 49.4487 153.5 70.505 201 76.5001C252.5 83 279.5 72.3334 302 69.5001" stroke="#D5F0FF" stroke-width="9"/>
<path d="M181.901 67.8C182.061 66.68 182.525 65.752 183.293 65.016C184.061 64.312 184.957 63.96 185.981 63.96H188.765C189.181 63.96 189.549 63.784 189.869 63.432C190.221 63.08 190.429 62.664 190.493 62.184L195.389 24.84C195.485 24.168 195.757 23.624 196.205 23.208C196.685 22.76 197.245 22.536 197.885 22.536H205.037L199.901 61.896C199.805 62.728 199.581 63.496 199.229 64.2C198.877 64.904 198.429 65.512 197.885 66.024C197.373 66.568 196.797 67 196.157 67.32C195.517 67.64 194.845 67.8 194.141 67.8H181.901ZM182.717 61.464L185.981 42.456H191.837L189.581 55.368C189.229 57.192 188.413 58.664 187.133 59.784C185.853 60.904 184.381 61.464 182.717 61.464ZM193.085 29.496L192.077 40.44H186.269L187.853 23.448H187.997C189.501 23.448 190.749 24.04 191.741 25.224C192.765 26.376 193.213 27.8 193.085 29.496ZM206.717 67.8C206.013 67.8 205.373 67.64 204.797 67.32C204.253 67 203.789 66.568 203.405 66.024C203.021 65.512 202.749 64.904 202.589 64.2C202.397 63.496 202.365 62.728 202.493 61.896L207.341 24.84C207.437 24.168 207.709 23.624 208.157 23.208C208.637 22.76 209.181 22.536 209.789 22.536H216.989L211.805 62.184C211.741 62.664 211.837 63.08 212.093 63.432C212.349 63.784 212.669 63.96 213.053 63.96H215.837C216.797 63.96 217.581 64.328 218.189 65.064C218.797 65.832 219.053 66.744 218.957 67.8H206.717ZM224.669 23.448L221.837 40.44H215.981L217.901 29.16C218.221 27.464 218.973 26.088 220.157 25.032C221.341 23.976 222.717 23.448 224.285 23.448H224.669ZM214.589 55.32L215.741 42.456H221.549L219.821 61.464C218.285 61.464 217.005 60.872 215.981 59.688C214.957 58.472 214.493 57.016 214.589 55.32ZM182.765 49.512C182.413 49.8 182.013 49.976 181.565 50.04L180.413 50.184L178.973 60.312C178.813 62.36 178.109 64.12 176.861 65.592C175.581 67.064 174.125 67.8 172.493 67.8H164.045L164.525 63.288H166.781C167.165 63.288 167.501 63.256 167.789 63.192C168.109 63.096 168.397 62.888 168.653 62.568C168.941 62.28 169.165 61.976 169.325 61.656C169.453 61.336 169.549 60.952 169.613 60.504L170.909 51.48L165.677 52.152L166.589 48.312C166.653 47.96 166.813 47.672 167.069 47.448C167.357 47.192 167.661 47.048 167.981 47.016L171.581 46.488L173.837 31.08H168.845L169.661 27.384C169.757 27.064 169.933 26.776 170.189 26.52C170.413 26.232 170.701 26.088 171.053 26.088H174.461L174.797 24.408C175.053 23.16 175.709 22.536 176.765 22.536H184.301L183.773 26.088H186.605L186.125 29.544C186.061 29.928 185.885 30.28 185.597 30.6C185.245 30.92 184.877 31.08 184.493 31.08H183.101L181.133 45.24L183.821 44.856L183.293 48.36C183.229 48.808 183.053 49.192 182.765 49.512ZM284.803 28.008H279.139L278.419 23.16H281.539C282.243 23.16 282.819 23.368 283.267 23.784C283.715 24.2 284.003 24.76 284.131 25.464L284.803 28.008ZM277.171 28.008H286.915L286.675 30.936C286.643 31.448 286.451 31.896 286.099 32.28C285.747 32.664 285.315 32.856 284.803 32.856H277.891L279.427 48.936L285.955 47.4C285.955 48.52 285.523 49.736 284.659 51.048C283.827 52.36 282.851 53.176 281.731 53.496L279.955 54.024L281.683 67.8H278.851H274.867C273.811 67.8 272.883 67.432 272.083 66.696C271.283 65.992 270.771 65.064 270.547 63.912L269.731 56.232L254.899 60.072L255.427 58.344C256.131 56.04 257.587 54.568 259.795 53.928L269.155 51.336L267.427 32.856H259.315L260.083 29.736C260.371 28.584 260.963 28.008 261.859 28.008H266.947L266.659 24.168C266.595 23.752 266.675 23.416 266.899 23.16C267.155 22.872 267.475 22.728 267.859 22.728H276.643L277.171 28.008ZM256.915 29.784H249.091L247.891 39.48H257.011L253.939 61.752C253.811 62.552 253.555 63.32 253.171 64.056C252.787 64.76 252.307 65.384 251.731 65.928C251.155 66.44 250.531 66.856 249.859 67.176C249.187 67.496 248.483 67.656 247.747 67.656H231.043C230.307 67.656 229.635 67.496 229.027 67.176C228.451 66.856 227.939 66.44 227.491 65.928C227.107 65.416 226.819 64.792 226.627 64.056C226.499 63.352 226.499 62.584 226.627 61.752L229.699 39.48H237.571L234.499 61.656C234.435 62.072 234.515 62.44 234.739 62.76C234.931 63.08 235.203 63.24 235.555 63.24H243.907C244.291 63.24 244.675 63.08 245.059 62.76C245.379 62.472 245.587 62.104 245.683 61.656L248.275 43.416H237.907L238.387 39.48H238.819L240.739 24.024C240.803 23.672 240.963 23.368 241.219 23.112C241.507 22.856 241.811 22.728 242.131 22.728H250.003L249.619 25.8H258.691L258.355 28.392C258.291 28.776 258.115 29.112 257.827 29.4C257.571 29.656 257.267 29.784 256.915 29.784Z" fill="#292929"/>
<path d="M59.0134 1.536H102.597L97.0774 42.048C96.8854 43.36 96.2774 44.48 95.2534 45.408C94.2294 46.336 93.0774 46.8 91.7974 46.8H46.3414C45.0614 46.8 44.0374 46.336 43.2694 45.408C42.5014 44.48 42.1974 43.36 42.3574 42.048L47.8774 1.536H57.3814L56.8534 5.376L56.5654 7.296L51.9574 41.136C51.8934 41.616 52.0214 42.032 52.3414 42.384C52.6294 42.736 52.9974 42.912 53.4454 42.912H85.8934C86.3734 42.912 86.8054 42.736 87.1894 42.384C87.6054 42.032 87.8454 41.616 87.9094 41.136L92.7574 5.376H58.4854L59.0134 1.536ZM54.5974 37.92C54.7254 37.152 55.0614 36.544 55.6054 36.096C56.1494 35.616 56.7894 35.392 57.5254 35.424L86.0854 36.96L85.8934 38.496C85.7654 39.264 85.4294 39.872 84.8854 40.32C84.3414 40.768 83.7014 40.992 82.9654 40.992L54.4054 39.504L54.5974 37.92ZM59.9254 26.832L86.2774 28.128L86.0374 29.712C85.9094 30.48 85.5734 31.104 85.0294 31.584C84.4854 32.032 83.8454 32.24 83.1094 32.208L56.6134 30.912L56.8054 29.52C56.9334 28.688 57.2854 28.032 57.8614 27.552C58.4374 27.04 59.1254 26.8 59.9254 26.832ZM63.0454 7.296H70.1014L69.3814 8.688H90.1654L89.5414 13.44L80.2294 18.432L85.8454 20.976C86.2294 21.168 86.6934 21.296 87.2374 21.36C87.7494 21.456 88.2934 21.504 88.8694 21.504H89.3974L88.9174 25.008H83.0134C81.2534 25.008 79.7654 24.88 78.5494 24.624C77.3014 24.368 76.1174 23.968 74.9974 23.424L72.2134 22.128L69.3814 23.424C68.7734 23.68 68.1974 23.904 67.6534 24.096C67.1094 24.32 66.5494 24.496 65.9734 24.624C65.3974 24.752 64.7734 24.848 64.1014 24.912C63.4294 24.976 62.6614 25.008 61.7974 25.008H55.9414L56.4214 21.504H56.9014C58.1174 21.504 59.1894 21.328 60.1174 20.976L65.3494 18.864L63.3334 17.904H56.9014L60.5014 8.976C61.1094 7.856 61.9574 7.296 63.0454 7.296ZM78.5974 12.528H68.6614L73.4614 15.552L78.5974 12.528ZM159.18 46.8H150.972C150.14 46.8 149.34 46.672 148.572 46.416C147.804 46.16 147.148 45.744 146.604 45.168L133.644 36.96L117.708 45.552C117.004 46.096 116.268 46.448 115.5 46.608C114.764 46.736 113.964 46.8 113.1 46.8H104.46L104.844 44.016C104.876 43.696 105.004 43.424 105.228 43.2C105.452 43.008 105.708 42.912 105.996 42.912H106.236C106.812 42.912 107.356 42.8 107.868 42.576C108.348 42.352 108.828 42.064 109.308 41.712L129.276 30.096L130.188 23.04C130.284 22.56 130.492 22.176 130.812 21.888C131.132 21.568 131.516 21.408 131.964 21.408H139.836L138.3 33.264L136.188 34.944H143.196L156.252 42.48C156.444 42.704 156.652 42.832 156.876 42.864C157.1 42.896 157.372 42.912 157.692 42.912H157.836C158.316 42.912 158.7 43.104 158.988 43.488C159.308 43.872 159.452 44.336 159.42 44.88L159.18 46.8ZM112.86 1.536H164.556L162.828 14.688C162.636 16.192 161.996 17.472 160.908 18.528C159.82 19.552 158.572 20.064 157.164 20.064H108.636L108.876 18.192C108.94 17.616 109.164 17.136 109.548 16.752C109.964 16.368 110.444 16.176 110.988 16.176H151.02C151.66 16.176 152.22 15.952 152.7 15.504C153.18 15.056 153.468 14.48 153.564 13.776L154.62 5.424H110.7L110.94 3.312C111.036 2.768 111.26 2.336 111.612 2.016C111.964 1.696 112.38 1.536 112.86 1.536ZM112.908 8.592H151.068L150.54 12.48H110.556L110.796 10.608C110.892 10 111.132 9.52 111.516 9.168C111.9 8.784 112.364 8.592 112.908 8.592ZM109.116 35.328L109.212 28.368C109.244 26.768 109.756 25.44 110.748 24.384C111.772 23.296 113.004 22.752 114.444 22.752H118.524L118.332 33.888C118.3 34.304 118.156 34.656 117.9 34.944C117.644 35.2 117.34 35.328 116.988 35.328H109.116ZM148.284 35.328L151.116 23.904C151.18 23.552 151.34 23.28 151.596 23.088C151.852 22.864 152.14 22.752 152.46 22.752H160.62L159.036 29.088C157.532 33.248 155.02 35.328 151.5 35.328H148.284Z" fill="#292929"/>
</svg>



