<svg width="242" height="54" viewBox="0 0 242 54" fill="none" xmlns="http://www.w3.org/2000/svg">
<g filter="url(#filter0_d_16_1087)">
<mask id="path-1-outside-1_16_1087" maskUnits="userSpaceOnUse" x="4" y="0" width="234" height="46" fill="black">
<rect fill="white" x="4" width="234" height="46"/>
<path d="M7.964 4.278H58.4V41.916H7.964V4.278ZM48.68 37.056V9.138H17.684V37.056H48.68ZM21.194 9.894H30.374L29.888 11.244H47.276V17.454L40.472 20.208L47.978 22.962V25.392H38.906L33.128 23.124L27.512 25.392H18.44V22.962L25.784 20.262L22.922 19.128H18.116L21.194 9.894ZM47.006 36.624L19.358 35.328V31.116L47.006 32.466V36.624ZM46.196 31.44L20.168 30.198V25.986L46.196 27.228V31.44ZM28.268 15.564V15.618L33.236 17.508L38.42 15.564H28.268ZM115.046 3.792V22.53H66.554V17.67H105.38V15.672H67.418V10.812H105.38V8.652H66.554V3.792H115.046ZM96.038 23.556V29.496L117.368 39.702V42.078H104.03L91.232 35.922L78.38 42.078H65.096V39.702L86.318 29.604V23.556H96.038ZM115.64 24.636L113.426 32.52H103.76L105.974 24.636H115.64ZM76.382 24.636L78.596 32.52H68.93L66.77 24.636H76.382ZM174.068 19.722H167.534V22.152H174.176L176.444 35.544H169.64L167.534 23.124V37.002H176.498V41.916H158.192V3.522H167.534V18.48L169.208 5.412H175.904L174.068 19.722ZM140.426 22.152H146.69L146.798 19.722H140.318L138.644 5.412H145.34L146.852 18.318L147.392 3.468H156.518L155.06 41.916H145.988L146.582 25.716L144.476 37.218H137.672L140.426 22.152ZM138.104 24.582V29.442L135.08 29.82V36.948L133.406 42.024H124.172L125.9 37.056V30.9L122.822 31.224V26.418L125.9 26.04V13.35H122.822V8.544H125.9V3.414H135.08V8.544H138.104V13.35H135.08V24.96L138.104 24.582ZM190.592 3.468H200.258V7.896H210.302V12.756H200.258V19.452H209.87V41.808H181.52V19.452H190.592V3.468ZM234.44 21.45V27.498L230.066 29.928L231.74 37.164H234.224V42.024H222.182L220.616 35.166L211.706 40.134V34.086L219.428 29.82L216.512 16.806H211.706V11.946H215.432L213.542 3.576H223.964L225.908 11.946H234.44V16.806H227.042L228.824 24.582L234.44 21.45ZM200.15 36.948V24.258H191.24V36.948H200.15ZM227.906 10.704L226.124 3.576H232.226L234.008 10.704H227.906Z"/>
</mask>
<path d="M7.964 4.278H58.4V41.916H7.964V4.278ZM48.68 37.056V9.138H17.684V37.056H48.68ZM21.194 9.894H30.374L29.888 11.244H47.276V17.454L40.472 20.208L47.978 22.962V25.392H38.906L33.128 23.124L27.512 25.392H18.44V22.962L25.784 20.262L22.922 19.128H18.116L21.194 9.894ZM47.006 36.624L19.358 35.328V31.116L47.006 32.466V36.624ZM46.196 31.44L20.168 30.198V25.986L46.196 27.228V31.44ZM28.268 15.564V15.618L33.236 17.508L38.42 15.564H28.268ZM115.046 3.792V22.53H66.554V17.67H105.38V15.672H67.418V10.812H105.38V8.652H66.554V3.792H115.046ZM96.038 23.556V29.496L117.368 39.702V42.078H104.03L91.232 35.922L78.38 42.078H65.096V39.702L86.318 29.604V23.556H96.038ZM115.64 24.636L113.426 32.52H103.76L105.974 24.636H115.64ZM76.382 24.636L78.596 32.52H68.93L66.77 24.636H76.382ZM174.068 19.722H167.534V22.152H174.176L176.444 35.544H169.64L167.534 23.124V37.002H176.498V41.916H158.192V3.522H167.534V18.48L169.208 5.412H175.904L174.068 19.722ZM140.426 22.152H146.69L146.798 19.722H140.318L138.644 5.412H145.34L146.852 18.318L147.392 3.468H156.518L155.06 41.916H145.988L146.582 25.716L144.476 37.218H137.672L140.426 22.152ZM138.104 24.582V29.442L135.08 29.82V36.948L133.406 42.024H124.172L125.9 37.056V30.9L122.822 31.224V26.418L125.9 26.04V13.35H122.822V8.544H125.9V3.414H135.08V8.544H138.104V13.35H135.08V24.96L138.104 24.582ZM190.592 3.468H200.258V7.896H210.302V12.756H200.258V19.452H209.87V41.808H181.52V19.452H190.592V3.468ZM234.44 21.45V27.498L230.066 29.928L231.74 37.164H234.224V42.024H222.182L220.616 35.166L211.706 40.134V34.086L219.428 29.82L216.512 16.806H211.706V11.946H215.432L213.542 3.576H223.964L225.908 11.946H234.44V16.806H227.042L228.824 24.582L234.44 21.45ZM200.15 36.948V24.258H191.24V36.948H200.15ZM227.906 10.704L226.124 3.576H232.226L234.008 10.704H227.906Z" fill="black"/>
<path d="M7.964 4.278V1.278H4.964V4.278H7.964ZM58.4 4.278H61.4V1.278H58.4V4.278ZM58.4 41.916V44.916H61.4V41.916H58.4ZM7.964 41.916H4.964V44.916H7.964V41.916ZM48.68 37.056V40.056H51.68V37.056H48.68ZM48.68 9.138H51.68V6.138H48.68V9.138ZM17.684 9.138V6.138H14.684V9.138H17.684ZM17.684 37.056H14.684V40.056H17.684V37.056ZM21.194 9.894V6.894H19.0317L18.3479 8.94531L21.194 9.894ZM30.374 9.894L33.1967 10.9102L34.6425 6.894H30.374V9.894ZM29.888 11.244L27.0653 10.2278L25.6195 14.244H29.888V11.244ZM47.276 11.244H50.276V8.244H47.276V11.244ZM47.276 17.454L48.4016 20.2348L50.276 19.4761V17.454H47.276ZM40.472 20.208L39.3464 17.4272L32.1368 20.3453L39.4386 23.0244L40.472 20.208ZM47.978 22.962H50.978V20.8672L49.0114 20.1456L47.978 22.962ZM47.978 25.392V28.392H50.978V25.392H47.978ZM38.906 25.392L37.8098 28.1846L38.3383 28.392H38.906V25.392ZM33.128 23.124L34.2241 20.3314L33.1122 19.895L32.0046 20.3423L33.128 23.124ZM27.512 25.392V28.392H28.0949L28.6354 28.1737L27.512 25.392ZM18.44 25.392H15.44V28.392H18.44V25.392ZM18.44 22.962L17.4048 20.1463L15.44 20.8686V22.962H18.44ZM25.784 20.262L26.8192 23.0777L34.1928 20.3669L26.8891 17.473L25.784 20.262ZM22.922 19.128L24.0271 16.339L23.4947 16.128H22.922V19.128ZM18.116 19.128L15.2699 18.1793L13.9537 22.128H18.116V19.128ZM47.006 36.624L46.8655 39.6207L50.006 39.7679V36.624H47.006ZM19.358 35.328H16.358V38.1907L19.2175 38.3247L19.358 35.328ZM19.358 31.116L19.5043 28.1196L16.358 27.9659V31.116H19.358ZM47.006 32.466H50.006V29.6089L47.1523 29.4696L47.006 32.466ZM46.196 31.44L46.053 34.4366L49.196 34.5866V31.44H46.196ZM20.168 30.198H17.168V33.0583L20.025 33.1946L20.168 30.198ZM20.168 25.986L20.311 22.9894L17.168 22.8394V25.986H20.168ZM46.196 27.228H49.196V24.3677L46.339 24.2314L46.196 27.228ZM28.268 15.564V12.564H25.268V15.564H28.268ZM28.268 15.618H25.268V17.6865L27.2013 18.4219L28.268 15.618ZM33.236 17.508L32.1693 20.3119L33.2284 20.7149L34.2894 20.317L33.236 17.508ZM38.42 15.564L39.4734 18.373L38.42 12.564V15.564ZM7.964 4.278V7.278H58.4V4.278V1.278H7.964V4.278ZM58.4 4.278H55.4V41.916H58.4H61.4V4.278H58.4ZM58.4 41.916V38.916H7.964V41.916V44.916H58.4V41.916ZM7.964 41.916H10.964V4.278H7.964H4.964V41.916H7.964ZM48.68 37.056H51.68V9.138H48.68H45.68V37.056H48.68ZM48.68 9.138V6.138H17.684V9.138V12.138H48.68V9.138ZM17.684 9.138H14.684V37.056H17.684H20.684V9.138H17.684ZM17.684 37.056V40.056H48.68V37.056V34.056H17.684V37.056ZM21.194 9.894V12.894H30.374V9.894V6.894H21.194V9.894ZM30.374 9.894L27.5513 8.87784L27.0653 10.2278L29.888 11.244L32.7107 12.2602L33.1967 10.9102L30.374 9.894ZM29.888 11.244V14.244H47.276V11.244V8.244H29.888V11.244ZM47.276 11.244H44.276V17.454H47.276H50.276V11.244H47.276ZM47.276 17.454L46.1504 14.6732L39.3464 17.4272L40.472 20.208L41.5976 22.9888L48.4016 20.2348L47.276 17.454ZM40.472 20.208L39.4386 23.0244L46.9446 25.7784L47.978 22.962L49.0114 20.1456L41.5054 17.3916L40.472 20.208ZM47.978 22.962H44.978V25.392H47.978H50.978V22.962H47.978ZM47.978 25.392V22.392H38.906V25.392V28.392H47.978V25.392ZM38.906 25.392L40.0021 22.5994L34.2241 20.3314L33.128 23.124L32.0318 25.9166L37.8098 28.1846L38.906 25.392ZM33.128 23.124L32.0046 20.3423L26.3886 22.6103L27.512 25.392L28.6354 28.1737L34.2514 25.9057L33.128 23.124ZM27.512 25.392V22.392H18.44V25.392V28.392H27.512V25.392ZM18.44 25.392H21.44V22.962H18.44H15.44V25.392H18.44ZM18.44 22.962L19.4752 25.7777L26.8192 23.0777L25.784 20.262L24.7488 17.4463L17.4048 20.1463L18.44 22.962ZM25.784 20.262L26.8891 17.473L24.0271 16.339L22.922 19.128L21.8169 21.917L24.6789 23.051L25.784 20.262ZM22.922 19.128V16.128H18.116V19.128V22.128H22.922V19.128ZM18.116 19.128L20.962 20.0767L24.04 10.8427L21.194 9.894L18.3479 8.94531L15.2699 18.1793L18.116 19.128ZM47.006 36.624L47.1465 33.6273L19.4985 32.3313L19.358 35.328L19.2175 38.3247L46.8655 39.6207L47.006 36.624ZM19.358 35.328H22.358V31.116H19.358H16.358V35.328H19.358ZM19.358 31.116L19.2117 34.1124L46.8597 35.4624L47.006 32.466L47.1523 29.4696L19.5043 28.1196L19.358 31.116ZM47.006 32.466H44.006V36.624H47.006H50.006V32.466H47.006ZM46.196 31.44L46.339 28.4434L20.311 27.2014L20.168 30.198L20.025 33.1946L46.053 34.4366L46.196 31.44ZM20.168 30.198H23.168V25.986H20.168H17.168V30.198H20.168ZM20.168 25.986L20.025 28.9826L46.053 30.2246L46.196 27.228L46.339 24.2314L20.311 22.9894L20.168 25.986ZM46.196 27.228H43.196V31.44H46.196H49.196V27.228H46.196ZM28.268 15.564H25.268V15.618H28.268H31.268V15.564H28.268ZM28.268 15.618L27.2013 18.4219L32.1693 20.3119L33.236 17.508L34.3027 14.7041L29.3347 12.8141L28.268 15.618ZM33.236 17.508L34.2894 20.317L39.4734 18.373L38.42 15.564L37.3666 12.755L32.1826 14.699L33.236 17.508ZM38.42 15.564V12.564H28.268V15.564V18.564H38.42V15.564ZM115.046 3.792H118.046V0.791999H115.046V3.792ZM115.046 22.53V25.53H118.046V22.53H115.046ZM66.554 22.53H63.554V25.53H66.554V22.53ZM66.554 17.67V14.67H63.554V17.67H66.554ZM105.38 17.67V20.67H108.38V17.67H105.38ZM105.38 15.672H108.38V12.672H105.38V15.672ZM67.418 15.672H64.418V18.672H67.418V15.672ZM67.418 10.812V7.812H64.418V10.812H67.418ZM105.38 10.812V13.812H108.38V10.812H105.38ZM105.38 8.652H108.38V5.652H105.38V8.652ZM66.554 8.652H63.554V11.652H66.554V8.652ZM66.554 3.792V0.791999H63.554V3.792H66.554ZM96.038 23.556H99.038V20.556H96.038V23.556ZM96.038 29.496H93.038V31.3863L94.7431 32.2022L96.038 29.496ZM117.368 39.702H120.368V37.8117L118.663 36.9958L117.368 39.702ZM117.368 42.078V45.078H120.368V42.078H117.368ZM104.03 42.078L102.73 44.7815L103.346 45.078H104.03V42.078ZM91.232 35.922L92.5324 33.2185L91.2347 32.5943L89.936 33.2164L91.232 35.922ZM78.38 42.078V45.078H79.0614L79.676 44.7836L78.38 42.078ZM65.096 42.078H62.096V45.078H65.096V42.078ZM65.096 39.702L63.807 36.993L62.096 37.8072V39.702H65.096ZM86.318 29.604L87.607 32.313L89.318 31.4988V29.604H86.318ZM86.318 23.556V20.556H83.318V23.556H86.318ZM115.64 24.636L118.528 25.4471L119.599 21.636H115.64V24.636ZM113.426 32.52V35.52H115.7L116.314 33.3311L113.426 32.52ZM103.76 32.52L100.872 31.7089L99.8015 35.52H103.76V32.52ZM105.974 24.636V21.636H103.7L103.086 23.8249L105.974 24.636ZM76.382 24.636L79.2703 23.8249L78.6556 21.636H76.382V24.636ZM78.596 32.52V35.52H82.5545L81.4843 31.7089L78.596 32.52ZM68.93 32.52L66.0366 33.3127L66.6414 35.52H68.93V32.52ZM66.77 24.636V21.636H62.8375L63.8766 25.4287L66.77 24.636ZM115.046 3.792H112.046V22.53H115.046H118.046V3.792H115.046ZM115.046 22.53V19.53H66.554V22.53V25.53H115.046V22.53ZM66.554 22.53H69.554V17.67H66.554H63.554V22.53H66.554ZM66.554 17.67V20.67H105.38V17.67V14.67H66.554V17.67ZM105.38 17.67H108.38V15.672H105.38H102.38V17.67H105.38ZM105.38 15.672V12.672H67.418V15.672V18.672H105.38V15.672ZM67.418 15.672H70.418V10.812H67.418H64.418V15.672H67.418ZM67.418 10.812V13.812H105.38V10.812V7.812H67.418V10.812ZM105.38 10.812H108.38V8.652H105.38H102.38V10.812H105.38ZM105.38 8.652V5.652H66.554V8.652V11.652H105.38V8.652ZM66.554 8.652H69.554V3.792H66.554H63.554V8.652H66.554ZM66.554 3.792V6.792H115.046V3.792V0.791999H66.554V3.792ZM96.038 23.556H93.038V29.496H96.038H99.038V23.556H96.038ZM96.038 29.496L94.7431 32.2022L116.073 42.4082L117.368 39.702L118.663 36.9958L97.3328 26.7898L96.038 29.496ZM117.368 39.702H114.368V42.078H117.368H120.368V39.702H117.368ZM117.368 42.078V39.078H104.03V42.078V45.078H117.368V42.078ZM104.03 42.078L105.33 39.3745L92.5324 33.2185L91.232 35.922L89.9316 38.6255L102.73 44.7815L104.03 42.078ZM91.232 35.922L89.936 33.2164L77.084 39.3724L78.38 42.078L79.676 44.7836L92.528 38.6276L91.232 35.922ZM78.38 42.078V39.078H65.096V42.078V45.078H78.38V42.078ZM65.096 42.078H68.096V39.702H65.096H62.096V42.078H65.096ZM65.096 39.702L66.385 42.411L87.607 32.313L86.318 29.604L85.029 26.895L63.807 36.993L65.096 39.702ZM86.318 29.604H89.318V23.556H86.318H83.318V29.604H86.318ZM86.318 23.556V26.556H96.038V23.556V20.556H86.318V23.556ZM115.64 24.636L112.752 23.8249L110.538 31.7089L113.426 32.52L116.314 33.3311L118.528 25.4471L115.64 24.636ZM113.426 32.52V29.52H103.76V32.52V35.52H113.426V32.52ZM103.76 32.52L106.648 33.3311L108.862 25.4471L105.974 24.636L103.086 23.8249L100.872 31.7089L103.76 32.52ZM105.974 24.636V27.636H115.64V24.636V21.636H105.974V24.636ZM76.382 24.636L73.4937 25.4471L75.7077 33.3311L78.596 32.52L81.4843 31.7089L79.2703 23.8249L76.382 24.636ZM78.596 32.52V29.52H68.93V32.52V35.52H78.596V32.52ZM68.93 32.52L71.8234 31.7273L69.6634 23.8433L66.77 24.636L63.8766 25.4287L66.0366 33.3127L68.93 32.52ZM66.77 24.636V27.636H76.382V24.636V21.636H66.77V24.636ZM174.068 19.722V22.722H176.708L177.044 20.1038L174.068 19.722ZM167.534 19.722V16.722H164.534V19.722H167.534ZM167.534 22.152H164.534V25.152H167.534V22.152ZM174.176 22.152L177.134 21.6511L176.711 19.152H174.176V22.152ZM176.444 35.544V38.544H179.995L179.402 35.0431L176.444 35.544ZM169.64 35.544L166.682 36.0455L167.106 38.544H169.64V35.544ZM167.534 23.124L170.492 22.6225L164.534 23.124H167.534ZM167.534 37.002H164.534V40.002H167.534V37.002ZM176.498 37.002H179.498V34.002H176.498V37.002ZM176.498 41.916V44.916H179.498V41.916H176.498ZM158.192 41.916H155.192V44.916H158.192V41.916ZM158.192 3.522V0.522H155.192V3.522H158.192ZM167.534 3.522H170.534V0.522H167.534V3.522ZM167.534 18.48H164.534L170.51 18.8612L167.534 18.48ZM169.208 5.412V2.412H166.568L166.232 5.03081L169.208 5.412ZM175.904 5.412L178.88 5.79377L179.313 2.412H175.904V5.412ZM140.426 22.152V19.152H137.925L137.475 21.6126L140.426 22.152ZM146.69 22.152V25.152H149.56L149.687 22.2852L146.69 22.152ZM146.798 19.722L149.795 19.8552L149.934 16.722H146.798V19.722ZM140.318 19.722L137.338 20.0706L137.648 22.722H140.318V19.722ZM138.644 5.412V2.412H135.273L135.664 5.76056L138.644 5.412ZM145.34 5.412L148.32 5.06292L148.009 2.412H145.34V5.412ZM146.852 18.318L143.872 18.6671L149.85 18.427L146.852 18.318ZM147.392 3.468V0.467997H144.499L144.394 3.35898L147.392 3.468ZM156.518 3.468L159.516 3.58168L159.634 0.467997H156.518V3.468ZM155.06 41.916V44.916H157.948L158.058 42.0297L155.06 41.916ZM145.988 41.916L142.99 41.8061L142.876 44.916H145.988V41.916ZM146.582 25.716L149.58 25.8259L143.631 25.1757L146.582 25.716ZM144.476 37.218V40.218H146.977L147.427 37.7583L144.476 37.218ZM137.672 37.218L134.721 36.6786L134.074 40.218H137.672V37.218ZM138.104 24.582H141.104V21.1837L137.732 21.6052L138.104 24.582ZM138.104 29.442L138.476 32.4188L141.104 32.0903V29.442H138.104ZM135.08 29.82L134.708 26.8432L132.08 27.1717V29.82H135.08ZM135.08 36.948L137.929 37.8876L138.08 37.4299V36.948H135.08ZM133.406 42.024V45.024H135.576L136.255 42.9636L133.406 42.024ZM124.172 42.024L121.339 41.0384L119.952 45.024H124.172V42.024ZM125.9 37.056L128.733 38.0416L128.9 37.5628V37.056H125.9ZM125.9 30.9H128.9V27.5676L125.586 27.9165L125.9 30.9ZM122.822 31.224H119.822V34.5564L123.136 34.2075L122.822 31.224ZM122.822 26.418L122.456 23.4404L119.822 23.7639V26.418H122.822ZM125.9 26.04L126.266 29.0176L128.9 28.6941V26.04H125.9ZM125.9 13.35H128.9V10.35H125.9V13.35ZM122.822 13.35H119.822V16.35H122.822V13.35ZM122.822 8.544V5.544H119.822V8.544H122.822ZM125.9 8.544V11.544H128.9V8.544H125.9ZM125.9 3.414V0.413998H122.9V3.414H125.9ZM135.08 3.414H138.08V0.413998H135.08V3.414ZM135.08 8.544H132.08V11.544H135.08V8.544ZM138.104 8.544H141.104V5.544H138.104V8.544ZM138.104 13.35V16.35H141.104V13.35H138.104ZM135.08 13.35V10.35H132.08V13.35H135.08ZM135.08 24.96H132.08V28.3583L135.452 27.9368L135.08 24.96ZM174.068 19.722V16.722H167.534V19.722V22.722H174.068V19.722ZM167.534 19.722H164.534V22.152H167.534H170.534V19.722H167.534ZM167.534 22.152V25.152H174.176V22.152V19.152H167.534V22.152ZM174.176 22.152L171.218 22.6529L173.486 36.0449L176.444 35.544L179.402 35.0431L177.134 21.6511L174.176 22.152ZM176.444 35.544V32.544H169.64V35.544V38.544H176.444V35.544ZM169.64 35.544L172.598 35.0425L170.492 22.6225L167.534 23.124L164.576 23.6255L166.682 36.0455L169.64 35.544ZM167.534 23.124H164.534V37.002H167.534H170.534V23.124H167.534ZM167.534 37.002V40.002H176.498V37.002V34.002H167.534V37.002ZM176.498 37.002H173.498V41.916H176.498H179.498V37.002H176.498ZM176.498 41.916V38.916H158.192V41.916V44.916H176.498V41.916ZM158.192 41.916H161.192V3.522H158.192H155.192V41.916H158.192ZM158.192 3.522V6.522H167.534V3.522V0.522H158.192V3.522ZM167.534 3.522H164.534V18.48H167.534H170.534V3.522H167.534ZM167.534 18.48L170.51 18.8612L172.184 5.79318L169.208 5.412L166.232 5.03081L164.558 18.0988L167.534 18.48ZM169.208 5.412V8.412H175.904V5.412V2.412H169.208V5.412ZM175.904 5.412L172.928 5.03022L171.092 19.3402L174.068 19.722L177.044 20.1038L178.88 5.79377L175.904 5.412ZM140.426 22.152V25.152H146.69V22.152V19.152H140.426V22.152ZM146.69 22.152L149.687 22.2852L149.795 19.8552L146.798 19.722L143.801 19.5888L143.693 22.0188L146.69 22.152ZM146.798 19.722V16.722H140.318V19.722V22.722H146.798V19.722ZM140.318 19.722L143.298 19.3734L141.624 5.06343L138.644 5.412L135.664 5.76056L137.338 20.0706L140.318 19.722ZM138.644 5.412V8.412H145.34V5.412V2.412H138.644V5.412ZM145.34 5.412L142.36 5.76107L143.872 18.6671L146.852 18.318L149.832 17.9689L148.32 5.06292L145.34 5.412ZM146.852 18.318L149.85 18.427L150.39 3.57702L147.392 3.468L144.394 3.35898L143.854 18.209L146.852 18.318ZM147.392 3.468V6.468H156.518V3.468V0.467997H147.392V3.468ZM156.518 3.468L153.52 3.35431L152.062 41.8023L155.06 41.916L158.058 42.0297L159.516 3.58168L156.518 3.468ZM155.06 41.916V38.916H145.988V41.916V44.916H155.06V41.916ZM145.988 41.916L148.986 42.0259L149.58 25.8259L146.582 25.716L143.584 25.6061L142.99 41.8061L145.988 41.916ZM146.582 25.716L143.631 25.1757L141.525 36.6777L144.476 37.218L147.427 37.7583L149.533 26.2563L146.582 25.716ZM144.476 37.218V34.218H137.672V37.218V40.218H144.476V37.218ZM137.672 37.218L140.623 37.7574L143.377 22.6914L140.426 22.152L137.475 21.6126L134.721 36.6786L137.672 37.218ZM138.104 24.582H135.104V29.442H138.104H141.104V24.582H138.104ZM138.104 29.442L137.732 26.4652L134.708 26.8432L135.08 29.82L135.452 32.7968L138.476 32.4188L138.104 29.442ZM135.08 29.82H132.08V36.948H135.08H138.08V29.82H135.08ZM135.08 36.948L132.231 36.0084L130.557 41.0844L133.406 42.024L136.255 42.9636L137.929 37.8876L135.08 36.948ZM133.406 42.024V39.024H124.172V42.024V45.024H133.406V42.024ZM124.172 42.024L127.005 43.0096L128.733 38.0416L125.9 37.056L123.067 36.0704L121.339 41.0384L124.172 42.024ZM125.9 37.056H128.9V30.9H125.9H122.9V37.056H125.9ZM125.9 30.9L125.586 27.9165L122.508 28.2405L122.822 31.224L123.136 34.2075L126.214 33.8835L125.9 30.9ZM122.822 31.224H125.822V26.418H122.822H119.822V31.224H122.822ZM122.822 26.418L123.188 29.3956L126.266 29.0176L125.9 26.04L125.534 23.0624L122.456 23.4404L122.822 26.418ZM125.9 26.04H128.9V13.35H125.9H122.9V26.04H125.9ZM125.9 13.35V10.35H122.822V13.35V16.35H125.9V13.35ZM122.822 13.35H125.822V8.544H122.822H119.822V13.35H122.822ZM122.822 8.544V11.544H125.9V8.544V5.544H122.822V8.544ZM125.9 8.544H128.9V3.414H125.9H122.9V8.544H125.9ZM125.9 3.414V6.414H135.08V3.414V0.413998H125.9V3.414ZM135.08 3.414H132.08V8.544H135.08H138.08V3.414H135.08ZM135.08 8.544V11.544H138.104V8.544V5.544H135.08V8.544ZM138.104 8.544H135.104V13.35H138.104H141.104V8.544H138.104ZM138.104 13.35V10.35H135.08V13.35V16.35H138.104V13.35ZM135.08 13.35H132.08V24.96H135.08H138.08V13.35H135.08ZM135.08 24.96L135.452 27.9368L138.476 27.5588L138.104 24.582L137.732 21.6052L134.708 21.9832L135.08 24.96ZM190.592 3.468V0.467997H187.592V3.468H190.592ZM200.258 3.468H203.258V0.467997H200.258V3.468ZM200.258 7.896H197.258V10.896H200.258V7.896ZM210.302 7.896H213.302V4.896H210.302V7.896ZM210.302 12.756V15.756H213.302V12.756H210.302ZM200.258 12.756V9.756H197.258V12.756H200.258ZM200.258 19.452H197.258V22.452H200.258V19.452ZM209.87 19.452H212.87V16.452H209.87V19.452ZM209.87 41.808V44.808H212.87V41.808H209.87ZM181.52 41.808H178.52V44.808H181.52V41.808ZM181.52 19.452V16.452H178.52V19.452H181.52ZM190.592 19.452V22.452H193.592V19.452H190.592ZM234.44 21.45H237.44V16.3419L232.979 18.8299L234.44 21.45ZM234.44 27.498L235.897 30.1205L237.44 29.2632V27.498H234.44ZM230.066 29.928L228.609 27.3055L226.634 28.4028L227.143 30.6042L230.066 29.928ZM231.74 37.164L228.817 37.8402L229.355 40.164H231.74V37.164ZM234.224 37.164H237.224V34.164H234.224V37.164ZM234.224 42.024V45.024H237.224V42.024H234.224ZM222.182 42.024L219.257 42.6918L219.79 45.024H222.182V42.024ZM220.616 35.166L223.541 34.4982L222.65 30.5971L219.155 32.5458L220.616 35.166ZM211.706 40.134H208.706V45.2416L213.167 42.7542L211.706 40.134ZM211.706 34.086L210.255 31.4601L208.706 32.316V34.086H211.706ZM219.428 29.82L220.879 32.4459L222.847 31.3585L222.355 29.1641L219.428 29.82ZM216.512 16.806L219.439 16.1501L218.914 13.806H216.512V16.806ZM211.706 16.806H208.706V19.806H211.706V16.806ZM211.706 11.946V8.946H208.706V11.946H211.706ZM215.432 11.946V14.946H219.185L218.358 11.2852L215.432 11.946ZM213.542 3.576V0.575999H209.789L210.616 4.23678L213.542 3.576ZM223.964 3.576L226.886 2.89729L226.347 0.575999H223.964V3.576ZM225.908 11.946L222.986 12.6247L223.525 14.946H225.908V11.946ZM234.44 11.946H237.44V8.946H234.44V11.946ZM234.44 16.806V19.806H237.44V16.806H234.44ZM227.042 16.806V13.806H223.277L224.118 17.4761L227.042 16.806ZM228.824 24.582L225.9 25.2521L226.793 29.1497L230.285 27.2021L228.824 24.582ZM200.15 36.948V39.948H203.15V36.948H200.15ZM200.15 24.258H203.15V21.258H200.15V24.258ZM191.24 24.258V21.258H188.24V24.258H191.24ZM191.24 36.948H188.24V39.948H191.24V36.948ZM227.906 10.704L224.996 11.4316L225.564 13.704H227.906V10.704ZM226.124 3.576V0.575999H222.282L223.214 4.30361L226.124 3.576ZM232.226 3.576L235.136 2.84839L234.568 0.575999H232.226V3.576ZM234.008 10.704V13.704H237.85L236.918 9.97639L234.008 10.704ZM190.592 3.468V6.468H200.258V3.468V0.467997H190.592V3.468ZM200.258 3.468H197.258V7.896H200.258H203.258V3.468H200.258ZM200.258 7.896V10.896H210.302V7.896V4.896H200.258V7.896ZM210.302 7.896H207.302V12.756H210.302H213.302V7.896H210.302ZM210.302 12.756V9.756H200.258V12.756V15.756H210.302V12.756ZM200.258 12.756H197.258V19.452H200.258H203.258V12.756H200.258ZM200.258 19.452V22.452H209.87V19.452V16.452H200.258V19.452ZM209.87 19.452H206.87V41.808H209.87H212.87V19.452H209.87ZM209.87 41.808V38.808H181.52V41.808V44.808H209.87V41.808ZM181.52 41.808H184.52V19.452H181.52H178.52V41.808H181.52ZM181.52 19.452V22.452H190.592V19.452V16.452H181.52V19.452ZM190.592 19.452H193.592V3.468H190.592H187.592V19.452H190.592ZM234.44 21.45H231.44V27.498H234.44H237.44V21.45H234.44ZM234.44 27.498L232.983 24.8755L228.609 27.3055L230.066 29.928L231.523 32.5505L235.897 30.1205L234.44 27.498ZM230.066 29.928L227.143 30.6042L228.817 37.8402L231.74 37.164L234.663 36.4878L232.989 29.2518L230.066 29.928ZM231.74 37.164V40.164H234.224V37.164V34.164H231.74V37.164ZM234.224 37.164H231.224V42.024H234.224H237.224V37.164H234.224ZM234.224 42.024V39.024H222.182V42.024V45.024H234.224V42.024ZM222.182 42.024L225.107 41.3562L223.541 34.4982L220.616 35.166L217.691 35.8338L219.257 42.6918L222.182 42.024ZM220.616 35.166L219.155 32.5458L210.245 37.5138L211.706 40.134L213.167 42.7542L222.077 37.7862L220.616 35.166ZM211.706 40.134H214.706V34.086H211.706H208.706V40.134H211.706ZM211.706 34.086L213.157 36.7119L220.879 32.4459L219.428 29.82L217.977 27.1941L210.255 31.4601L211.706 34.086ZM219.428 29.82L222.355 29.1641L219.439 16.1501L216.512 16.806L213.585 17.4619L216.501 30.4759L219.428 29.82ZM216.512 16.806V13.806H211.706V16.806V19.806H216.512V16.806ZM211.706 16.806H214.706V11.946H211.706H208.706V16.806H211.706ZM211.706 11.946V14.946H215.432V11.946V8.946H211.706V11.946ZM215.432 11.946L218.358 11.2852L216.468 2.91522L213.542 3.576L210.616 4.23678L212.506 12.6068L215.432 11.946ZM213.542 3.576V6.576H223.964V3.576V0.575999H213.542V3.576ZM223.964 3.576L221.042 4.25471L222.986 12.6247L225.908 11.946L228.83 11.2673L226.886 2.89729L223.964 3.576ZM225.908 11.946V14.946H234.44V11.946V8.946H225.908V11.946ZM234.44 11.946H231.44V16.806H234.44H237.44V11.946H234.44ZM234.44 16.806V13.806H227.042V16.806V19.806H234.44V16.806ZM227.042 16.806L224.118 17.4761L225.9 25.2521L228.824 24.582L231.748 23.9119L229.966 16.1359L227.042 16.806ZM228.824 24.582L230.285 27.2021L235.901 24.0701L234.44 21.45L232.979 18.8299L227.363 21.9619L228.824 24.582ZM200.15 36.948H203.15V24.258H200.15H197.15V36.948H200.15ZM200.15 24.258V21.258H191.24V24.258V27.258H200.15V24.258ZM191.24 24.258H188.24V36.948H191.24H194.24V24.258H191.24ZM191.24 36.948V39.948H200.15V36.948V33.948H191.24V36.948ZM227.906 10.704L230.816 9.97639L229.034 2.84839L226.124 3.576L223.214 4.30361L224.996 11.4316L227.906 10.704ZM226.124 3.576V6.576H232.226V3.576V0.575999H226.124V3.576ZM232.226 3.576L229.316 4.30361L231.098 11.4316L234.008 10.704L236.918 9.97639L235.136 2.84839L232.226 3.576ZM234.008 10.704V7.704H227.906V10.704V13.704H234.008V10.704Z" fill="white" mask="url(#path-1-outside-1_16_1087)"/>
</g>
<defs>
<filter id="filter0_d_16_1087" x="0.964111" y="0.414001" width="240.886" height="52.8275" filterUnits="userSpaceOnUse" color-interpolation-filters="sRGB">
<feFlood flood-opacity="0" result="BackgroundImageFix"/>
<feColorMatrix in="SourceAlpha" type="matrix" values="0 0 0 0 0 0 0 0 0 0 0 0 0 0 0 0 0 0 127 0" result="hardAlpha"/>
<feOffset dy="4"/>
<feGaussianBlur stdDeviation="2"/>
<feComposite in2="hardAlpha" operator="out"/>
<feColorMatrix type="matrix" values="0 0 0 0 0 0 0 0 0 0 0 0 0 0 0 0 0 0 0.25 0"/>
<feBlend mode="normal" in2="BackgroundImageFix" result="effect1_dropShadow_16_1087"/>
<feBlend mode="normal" in="SourceGraphic" in2="effect1_dropShadow_16_1087" result="shape"/>
</filter>
</defs>
</svg>

