<svg width="222" height="13" viewBox="0 0 222 13" fill="none" xmlns="http://www.w3.org/2000/svg">
<path d="M4.74642 10.156C3.86642 10.156 3.10642 9.992 2.46642 9.664C1.82642 9.328 1.33042 8.84 0.978422 8.2C0.634422 7.56 0.462422 6.792 0.462422 5.896C0.462422 4.984 0.634422 4.192 0.978422 3.52C1.33042 2.848 1.82642 2.336 2.46642 1.984C3.11442 1.624 3.87442 1.444 4.74642 1.444C5.61842 1.444 6.37442 1.624 7.01442 1.984C7.65442 2.336 8.14642 2.848 8.49042 3.52C8.84242 4.192 9.01842 4.984 9.01842 5.896C9.01842 6.8 8.84242 7.572 8.49042 8.212C8.14642 8.844 7.65842 9.328 7.02642 9.664C6.39442 9.992 5.63442 10.156 4.74642 10.156ZM2.56242 5.896C2.56242 6.76 2.75442 7.444 3.13842 7.948C3.52242 8.444 4.05842 8.692 4.74642 8.692C5.42642 8.692 5.95842 8.444 6.34242 7.948C6.72642 7.444 6.91842 6.76 6.91842 5.896C6.91842 5.328 6.83442 4.82 6.66642 4.372C6.49842 3.924 6.24642 3.572 5.91042 3.316C5.58242 3.06 5.19442 2.932 4.74642 2.932C4.29842 2.932 3.91042 3.06 3.58242 3.316C3.25442 3.572 3.00242 3.924 2.82642 4.372C2.65042 4.82 2.56242 5.328 2.56242 5.896ZM9.55805 3.52H11.502L13.05 8.824H13.11L14.67 3.52H16.602L14.55 10H11.61L9.55805 3.52ZM22.9158 9.652C22.6118 9.836 22.2558 9.972 21.8478 10.06C21.4478 10.148 21.0598 10.192 20.6838 10.192C19.4038 10.192 18.4318 9.888 17.7678 9.28C17.1118 8.672 16.7838 7.82 16.7838 6.724C16.7838 5.636 17.0758 4.804 17.6598 4.228C18.2518 3.644 19.0558 3.352 20.0718 3.352C21.0798 3.352 21.8758 3.644 22.4598 4.228C23.0518 4.804 23.3478 5.636 23.3478 6.724C23.3478 6.844 23.3398 7.016 23.3238 7.24H18.6558C18.8318 8.272 19.5078 8.788 20.6838 8.788C21.5078 8.788 22.2518 8.544 22.9158 8.056V9.652ZM21.5358 5.896C21.4318 5.496 21.2518 5.2 20.9958 5.008C20.7398 4.816 20.4318 4.72 20.0718 4.72C19.7358 4.72 19.4478 4.82 19.2078 5.02C18.9758 5.22 18.8118 5.512 18.7158 5.896H21.5358ZM26.2329 3.52V4.216C26.4409 3.992 26.6889 3.82 26.9769 3.7C27.2729 3.572 27.5649 3.508 27.8529 3.508C28.0529 3.508 28.2409 3.536 28.4169 3.592V5.068C28.1929 5.012 27.9809 4.984 27.7809 4.984C27.4769 4.984 27.1889 5.036 26.9169 5.14C26.6449 5.236 26.4169 5.392 26.2329 5.608V10H24.3129V3.52H26.2329ZM34.9205 3.892L33.3725 4.54V2.788L35.4365 1.612H36.6965V10H34.9205V3.892ZM42.3466 10.156C40.3386 10.156 39.3346 8.704 39.3346 5.8C39.3346 2.896 40.3386 1.444 42.3466 1.444C44.3546 1.444 45.3586 2.896 45.3586 5.8C45.3586 8.704 44.3546 10.156 42.3466 10.156ZM41.0986 5.8C41.0986 6.736 41.1946 7.424 41.3866 7.864C41.5866 8.304 41.9066 8.524 42.3466 8.524C42.7866 8.524 43.1026 8.304 43.2946 7.864C43.4946 7.424 43.5946 6.736 43.5946 5.8C43.5946 4.872 43.4946 4.188 43.2946 3.748C43.1026 3.308 42.7866 3.088 42.3466 3.088C41.9066 3.088 41.5866 3.308 41.3866 3.748C41.1946 4.188 41.0986 4.872 41.0986 5.8ZM47.2768 8.032H49.0168L47.6368 11.584H46.2328L47.2768 8.032ZM53.374 10.156C51.366 10.156 50.362 8.704 50.362 5.8C50.362 2.896 51.366 1.444 53.374 1.444C55.382 1.444 56.386 2.896 56.386 5.8C56.386 8.704 55.382 10.156 53.374 10.156ZM52.126 5.8C52.126 6.736 52.222 7.424 52.414 7.864C52.614 8.304 52.934 8.524 53.374 8.524C53.814 8.524 54.13 8.304 54.322 7.864C54.522 7.424 54.622 6.736 54.622 5.8C54.622 4.872 54.522 4.188 54.322 3.748C54.13 3.308 53.814 3.088 53.374 3.088C52.934 3.088 52.614 3.308 52.414 3.748C52.222 4.188 52.126 4.872 52.126 5.8ZM60.4521 10.156C58.4441 10.156 57.4401 8.704 57.4401 5.8C57.4401 2.896 58.4441 1.444 60.4521 1.444C62.4601 1.444 63.4641 2.896 63.4641 5.8C63.4641 8.704 62.4601 10.156 60.4521 10.156ZM59.2041 5.8C59.2041 6.736 59.3001 7.424 59.4921 7.864C59.6921 8.304 60.0121 8.524 60.4521 8.524C60.8921 8.524 61.2081 8.304 61.4001 7.864C61.6001 7.424 61.7001 6.736 61.7001 5.8C61.7001 4.872 61.6001 4.188 61.4001 3.748C61.2081 3.308 60.8921 3.088 60.4521 3.088C60.0121 3.088 59.6921 3.308 59.4921 3.748C59.3001 4.188 59.2041 4.872 59.2041 5.8ZM67.5302 10.156C65.5222 10.156 64.5182 8.704 64.5182 5.8C64.5182 2.896 65.5222 1.444 67.5302 1.444C69.5382 1.444 70.5422 2.896 70.5422 5.8C70.5422 8.704 69.5382 10.156 67.5302 10.156ZM66.2822 5.8C66.2822 6.736 66.3782 7.424 66.5702 7.864C66.7702 8.304 67.0902 8.524 67.5302 8.524C67.9702 8.524 68.2862 8.304 68.4782 7.864C68.6782 7.424 68.7782 6.736 68.7782 5.8C68.7782 4.872 68.6782 4.188 68.4782 3.748C68.2862 3.308 67.9702 3.088 67.5302 3.088C67.0902 3.088 66.7702 3.308 66.5702 3.748C66.3782 4.188 66.2822 4.872 66.2822 5.8ZM74.5455 12.736C74.6415 12.464 74.7055 12.084 74.7375 11.596C74.7695 11.108 74.7855 10.664 74.7855 10.264V3.52H76.7055V4.12C76.9695 3.88 77.2575 3.696 77.5695 3.568C77.8895 3.432 78.2095 3.364 78.5295 3.364C79.1215 3.364 79.6375 3.508 80.0775 3.796C80.5255 4.084 80.8695 4.488 81.1095 5.008C81.3575 5.52 81.4815 6.108 81.4815 6.772C81.4815 7.436 81.3615 8.024 81.1215 8.536C80.8815 9.04 80.5375 9.436 80.0895 9.724C79.6415 10.012 79.1215 10.156 78.5295 10.156C77.8095 10.156 77.2015 9.948 76.7055 9.532V10.264C76.7055 10.688 76.6815 11.14 76.6335 11.62C76.5935 12.108 76.5375 12.48 76.4655 12.736H74.5455ZM76.7055 7.972C76.8735 8.3 77.0855 8.516 77.3415 8.62C77.6055 8.724 77.8455 8.776 78.0615 8.776C78.3335 8.776 78.5895 8.688 78.8295 8.512C79.0775 8.328 79.2735 8.084 79.4175 7.78C79.5695 7.476 79.6455 7.14 79.6455 6.772C79.6455 6.396 79.5695 6.056 79.4175 5.752C79.2735 5.44 79.0775 5.196 78.8295 5.02C78.5895 4.844 78.3335 4.756 78.0615 4.756C77.8455 4.756 77.6055 4.808 77.3415 4.912C77.0855 5.016 76.8735 5.232 76.7055 5.56V7.972ZM88.2713 9.652C87.9673 9.836 87.6113 9.972 87.2033 10.06C86.8033 10.148 86.4153 10.192 86.0393 10.192C84.7593 10.192 83.7873 9.888 83.1233 9.28C82.4673 8.672 82.1393 7.82 82.1393 6.724C82.1393 5.636 82.4313 4.804 83.0153 4.228C83.6073 3.644 84.4113 3.352 85.4273 3.352C86.4353 3.352 87.2313 3.644 87.8153 4.228C88.4073 4.804 88.7033 5.636 88.7033 6.724C88.7033 6.844 88.6953 7.016 88.6793 7.24H84.0113C84.1873 8.272 84.8633 8.788 86.0393 8.788C86.8633 8.788 87.6073 8.544 88.2713 8.056V9.652ZM86.8913 5.896C86.7873 5.496 86.6073 5.2 86.3513 5.008C86.0953 4.816 85.7873 4.72 85.4273 4.72C85.0913 4.72 84.8033 4.82 84.5633 5.02C84.3313 5.22 84.1673 5.512 84.0713 5.896H86.8913ZM92.8364 10.156C92.1564 10.156 91.5564 10.016 91.0364 9.736C90.5244 9.456 90.1284 9.06 89.8484 8.548C89.5684 8.028 89.4284 7.416 89.4284 6.712C89.4284 5.632 89.7324 4.804 90.3404 4.228C90.9484 3.652 91.7804 3.364 92.8364 3.364C93.8844 3.364 94.7124 3.652 95.3204 4.228C95.9284 4.804 96.2324 5.632 96.2324 6.712C96.2324 7.416 96.0924 8.028 95.8124 8.548C95.5324 9.06 95.1364 9.456 94.6244 9.736C94.1124 10.016 93.5164 10.156 92.8364 10.156ZM91.3244 6.712C91.3244 7.328 91.4644 7.824 91.7444 8.2C92.0244 8.576 92.3884 8.764 92.8364 8.764C93.2844 8.764 93.6444 8.576 93.9164 8.2C94.1964 7.824 94.3364 7.328 94.3364 6.712C94.3364 6.072 94.2004 5.588 93.9284 5.26C93.6644 4.924 93.3004 4.756 92.8364 4.756C92.3724 4.756 92.0044 4.924 91.7324 5.26C91.4604 5.588 91.3244 6.072 91.3244 6.712ZM96.9518 12.736C97.0478 12.464 97.1118 12.084 97.1438 11.596C97.1758 11.108 97.1918 10.664 97.1918 10.264V3.52H99.1118V4.12C99.3758 3.88 99.6638 3.696 99.9758 3.568C100.296 3.432 100.616 3.364 100.936 3.364C101.528 3.364 102.044 3.508 102.484 3.796C102.932 4.084 103.276 4.488 103.516 5.008C103.764 5.52 103.888 6.108 103.888 6.772C103.888 7.436 103.768 8.024 103.528 8.536C103.288 9.04 102.944 9.436 102.496 9.724C102.048 10.012 101.528 10.156 100.936 10.156C100.216 10.156 99.6078 9.948 99.1118 9.532V10.264C99.1118 10.688 99.0878 11.14 99.0398 11.62C98.9998 12.108 98.9438 12.48 98.8718 12.736H96.9518ZM99.1118 7.972C99.2798 8.3 99.4918 8.516 99.7478 8.62C100.012 8.724 100.252 8.776 100.468 8.776C100.74 8.776 100.996 8.688 101.236 8.512C101.484 8.328 101.68 8.084 101.824 7.78C101.976 7.476 102.052 7.14 102.052 6.772C102.052 6.396 101.976 6.056 101.824 5.752C101.68 5.44 101.484 5.196 101.236 5.02C100.996 4.844 100.74 4.756 100.468 4.756C100.252 4.756 100.012 4.808 99.7478 4.912C99.4918 5.016 99.2798 5.232 99.1118 5.56V7.972ZM106.97 10.096C106.25 10.096 105.706 9.896 105.338 9.496C104.97 9.088 104.786 8.492 104.786 7.708V0.771999H106.706V7.228C106.706 7.548 106.73 7.792 106.778 7.96C106.826 8.128 106.906 8.256 107.018 8.344C107.106 8.416 107.202 8.464 107.306 8.488C107.418 8.504 107.61 8.512 107.882 8.512V10.096H106.97ZM114.498 9.652C114.194 9.836 113.838 9.972 113.43 10.06C113.03 10.148 112.642 10.192 112.266 10.192C110.986 10.192 110.014 9.888 109.35 9.28C108.694 8.672 108.366 7.82 108.366 6.724C108.366 5.636 108.658 4.804 109.242 4.228C109.834 3.644 110.638 3.352 111.654 3.352C112.662 3.352 113.458 3.644 114.042 4.228C114.634 4.804 114.93 5.636 114.93 6.724C114.93 6.844 114.922 7.016 114.906 7.24H110.238C110.414 8.272 111.09 8.788 112.266 8.788C113.09 8.788 113.834 8.544 114.498 8.056V9.652ZM113.118 5.896C113.014 5.496 112.834 5.2 112.578 5.008C112.322 4.816 112.014 4.72 111.654 4.72C111.318 4.72 111.03 4.82 110.79 5.02C110.558 5.22 110.394 5.512 110.298 5.896H113.118ZM120.932 0.784V4.216C121.22 3.976 121.54 3.792 121.892 3.664C122.244 3.528 122.6 3.46 122.96 3.46C123.576 3.46 124.064 3.64 124.424 4C124.792 4.36 124.976 4.828 124.976 5.404V10H123.056V5.728C123.056 5.496 122.96 5.308 122.768 5.164C122.576 5.012 122.348 4.936 122.084 4.936C121.932 4.936 121.744 4.984 121.52 5.08C121.296 5.176 121.1 5.296 120.932 5.44V10H119.012V0.784H120.932ZM128.932 10.156C128.324 10.156 127.792 10.012 127.336 9.724C126.888 9.436 126.54 9.04 126.292 8.536C126.052 8.032 125.932 7.444 125.932 6.772C125.932 6.108 126.052 5.52 126.292 5.008C126.54 4.488 126.884 4.084 127.324 3.796C127.772 3.508 128.292 3.364 128.884 3.364C129.156 3.364 129.428 3.416 129.7 3.52C129.98 3.616 130.24 3.752 130.48 3.928V3.52H132.4V8.488C132.4 9.136 132.48 9.64 132.64 10H130.84C130.784 9.888 130.736 9.744 130.696 9.568C130.2 9.96 129.612 10.156 128.932 10.156ZM127.768 6.772C127.768 7.14 127.84 7.476 127.984 7.78C128.136 8.084 128.332 8.328 128.572 8.512C128.82 8.688 129.08 8.776 129.352 8.776C129.544 8.776 129.76 8.736 130 8.656C130.24 8.568 130.448 8.384 130.624 8.104V5.416C130.448 5.136 130.24 4.956 130 4.876C129.768 4.796 129.552 4.756 129.352 4.756C129.08 4.756 128.82 4.844 128.572 5.02C128.332 5.196 128.136 5.44 127.984 5.752C127.84 6.056 127.768 6.396 127.768 6.772ZM133.062 3.52H135.006L136.554 8.824H136.614L138.174 3.52H140.106L138.054 10H135.114L133.062 3.52ZM146.42 9.652C146.116 9.836 145.76 9.972 145.352 10.06C144.952 10.148 144.564 10.192 144.188 10.192C142.908 10.192 141.936 9.888 141.272 9.28C140.616 8.672 140.288 7.82 140.288 6.724C140.288 5.636 140.58 4.804 141.164 4.228C141.756 3.644 142.56 3.352 143.576 3.352C144.584 3.352 145.38 3.644 145.964 4.228C146.556 4.804 146.852 5.636 146.852 6.724C146.852 6.844 146.844 7.016 146.828 7.24H142.16C142.336 8.272 143.012 8.788 144.188 8.788C145.012 8.788 145.756 8.544 146.42 8.056V9.652ZM145.04 5.896C144.936 5.496 144.756 5.2 144.5 5.008C144.244 4.816 143.936 4.72 143.576 4.72C143.24 4.72 142.952 4.82 142.712 5.02C142.48 5.22 142.316 5.512 142.22 5.896H145.04ZM150.694 12.736C150.79 12.464 150.854 12.084 150.886 11.596C150.918 11.108 150.934 10.664 150.934 10.264V3.52H152.854V4.12C153.118 3.88 153.406 3.696 153.718 3.568C154.038 3.432 154.358 3.364 154.678 3.364C155.27 3.364 155.786 3.508 156.226 3.796C156.674 4.084 157.018 4.488 157.258 5.008C157.506 5.52 157.63 6.108 157.63 6.772C157.63 7.436 157.51 8.024 157.27 8.536C157.03 9.04 156.686 9.436 156.238 9.724C155.79 10.012 155.27 10.156 154.678 10.156C153.958 10.156 153.35 9.948 152.854 9.532V10.264C152.854 10.688 152.83 11.14 152.782 11.62C152.742 12.108 152.686 12.48 152.614 12.736H150.694ZM152.854 7.972C153.022 8.3 153.234 8.516 153.49 8.62C153.754 8.724 153.994 8.776 154.21 8.776C154.482 8.776 154.738 8.688 154.978 8.512C155.226 8.328 155.422 8.084 155.566 7.78C155.718 7.476 155.794 7.14 155.794 6.772C155.794 6.396 155.718 6.056 155.566 5.752C155.422 5.44 155.226 5.196 154.978 5.02C154.738 4.844 154.482 4.756 154.21 4.756C153.994 4.756 153.754 4.808 153.49 4.912C153.234 5.016 153.022 5.232 152.854 5.56V7.972ZM161.288 10.156C160.68 10.156 160.148 10.012 159.692 9.724C159.244 9.436 158.896 9.04 158.648 8.536C158.408 8.032 158.288 7.444 158.288 6.772C158.288 6.108 158.408 5.52 158.648 5.008C158.896 4.488 159.24 4.084 159.68 3.796C160.128 3.508 160.648 3.364 161.24 3.364C161.512 3.364 161.784 3.416 162.056 3.52C162.336 3.616 162.596 3.752 162.836 3.928V3.52H164.756V8.488C164.756 9.136 164.836 9.64 164.996 10H163.196C163.14 9.888 163.092 9.744 163.052 9.568C162.556 9.96 161.968 10.156 161.288 10.156ZM160.124 6.772C160.124 7.14 160.196 7.476 160.34 7.78C160.492 8.084 160.688 8.328 160.928 8.512C161.176 8.688 161.436 8.776 161.708 8.776C161.9 8.776 162.116 8.736 162.356 8.656C162.596 8.568 162.804 8.384 162.98 8.104V5.416C162.804 5.136 162.596 4.956 162.356 4.876C162.124 4.796 161.908 4.756 161.708 4.756C161.436 4.756 161.176 4.844 160.928 5.02C160.688 5.196 160.492 5.44 160.34 5.752C160.196 6.056 160.124 6.396 160.124 6.772ZM167.877 3.52V4.216C168.085 3.992 168.333 3.82 168.621 3.7C168.917 3.572 169.209 3.508 169.497 3.508C169.697 3.508 169.885 3.536 170.061 3.592V5.068C169.837 5.012 169.625 4.984 169.425 4.984C169.121 4.984 168.833 5.036 168.561 5.14C168.289 5.236 168.061 5.392 167.877 5.608V10H165.957V3.52H167.877ZM171.36 3.52V1.672H173.16V3.52H174.408V4.984H173.16V7.768C173.16 8 173.176 8.176 173.208 8.296C173.248 8.416 173.316 8.5 173.412 8.548C173.508 8.588 173.648 8.608 173.832 8.608C173.952 8.608 174.052 8.604 174.132 8.596C174.22 8.588 174.296 8.576 174.36 8.56V10.036C174.024 10.076 173.712 10.096 173.424 10.096C172.872 10.096 172.46 10.04 172.188 9.928C171.916 9.816 171.708 9.624 171.564 9.352C171.428 9.072 171.36 8.676 171.36 8.164V4.984H170.424V3.52H171.36ZM177.326 3.52V10H175.406V3.52H177.326ZM175.406 0.771999H177.326V2.692H175.406V0.771999ZM184.084 9.784C183.468 10.032 182.836 10.156 182.188 10.156C181.508 10.156 180.88 10.02 180.304 9.748C179.736 9.468 179.284 9.076 178.948 8.572C178.612 8.06 178.444 7.472 178.444 6.808C178.444 6.112 178.604 5.504 178.924 4.984C179.244 4.464 179.68 4.068 180.232 3.796C180.792 3.516 181.416 3.376 182.104 3.376C182.728 3.376 183.36 3.488 184 3.712V5.188C183.512 4.98 183.012 4.876 182.5 4.876C181.868 4.876 181.344 5.028 180.928 5.332C180.512 5.628 180.304 6.12 180.304 6.808C180.304 7.2 180.412 7.532 180.628 7.804C180.844 8.076 181.124 8.284 181.468 8.428C181.812 8.564 182.176 8.632 182.56 8.632C182.856 8.632 183.136 8.592 183.4 8.512C183.672 8.424 183.9 8.304 184.084 8.152V9.784ZM187.123 3.52V10H185.203V3.52H187.123ZM185.203 0.771999H187.123V2.692H185.203V0.771999ZM188.241 12.736C188.337 12.464 188.401 12.084 188.433 11.596C188.465 11.108 188.481 10.664 188.481 10.264V3.52H190.401V4.12C190.665 3.88 190.953 3.696 191.265 3.568C191.585 3.432 191.905 3.364 192.225 3.364C192.817 3.364 193.333 3.508 193.773 3.796C194.221 4.084 194.565 4.488 194.805 5.008C195.053 5.52 195.177 6.108 195.177 6.772C195.177 7.436 195.057 8.024 194.817 8.536C194.577 9.04 194.233 9.436 193.785 9.724C193.337 10.012 192.817 10.156 192.225 10.156C191.505 10.156 190.897 9.948 190.401 9.532V10.264C190.401 10.688 190.377 11.14 190.329 11.62C190.289 12.108 190.233 12.48 190.161 12.736H188.241ZM190.401 7.972C190.569 8.3 190.781 8.516 191.037 8.62C191.301 8.724 191.541 8.776 191.757 8.776C192.029 8.776 192.285 8.688 192.525 8.512C192.773 8.328 192.969 8.084 193.113 7.78C193.265 7.476 193.341 7.14 193.341 6.772C193.341 6.396 193.265 6.056 193.113 5.752C192.969 5.44 192.773 5.196 192.525 5.02C192.285 4.844 192.029 4.756 191.757 4.756C191.541 4.756 191.301 4.808 191.037 4.912C190.781 5.016 190.569 5.232 190.401 5.56V7.972ZM198.835 10.156C198.227 10.156 197.695 10.012 197.239 9.724C196.791 9.436 196.443 9.04 196.195 8.536C195.955 8.032 195.835 7.444 195.835 6.772C195.835 6.108 195.955 5.52 196.195 5.008C196.443 4.488 196.787 4.084 197.227 3.796C197.675 3.508 198.195 3.364 198.787 3.364C199.059 3.364 199.331 3.416 199.603 3.52C199.883 3.616 200.143 3.752 200.383 3.928V3.52H202.303V8.488C202.303 9.136 202.383 9.64 202.543 10H200.743C200.687 9.888 200.639 9.744 200.599 9.568C200.103 9.96 199.515 10.156 198.835 10.156ZM197.671 6.772C197.671 7.14 197.743 7.476 197.887 7.78C198.039 8.084 198.235 8.328 198.475 8.512C198.723 8.688 198.983 8.776 199.255 8.776C199.447 8.776 199.663 8.736 199.903 8.656C200.143 8.568 200.351 8.384 200.527 8.104V5.416C200.351 5.136 200.143 4.956 199.903 4.876C199.671 4.796 199.455 4.756 199.255 4.756C198.983 4.756 198.723 4.844 198.475 5.02C198.235 5.196 198.039 5.44 197.887 5.752C197.743 6.056 197.671 6.396 197.671 6.772ZM204.008 3.52V1.672H205.808V3.52H207.056V4.984H205.808V7.768C205.808 8 205.824 8.176 205.856 8.296C205.896 8.416 205.964 8.5 206.06 8.548C206.156 8.588 206.296 8.608 206.48 8.608C206.6 8.608 206.7 8.604 206.78 8.596C206.868 8.588 206.944 8.576 207.008 8.56V10.036C206.672 10.076 206.36 10.096 206.072 10.096C205.52 10.096 205.108 10.04 204.836 9.928C204.564 9.816 204.356 9.624 204.212 9.352C204.076 9.072 204.008 8.676 204.008 8.164V4.984H203.072V3.52H204.008ZM213.791 9.652C213.487 9.836 213.131 9.972 212.723 10.06C212.323 10.148 211.935 10.192 211.559 10.192C210.279 10.192 209.307 9.888 208.643 9.28C207.987 8.672 207.659 7.82 207.659 6.724C207.659 5.636 207.951 4.804 208.535 4.228C209.127 3.644 209.931 3.352 210.947 3.352C211.955 3.352 212.751 3.644 213.335 4.228C213.927 4.804 214.223 5.636 214.223 6.724C214.223 6.844 214.215 7.016 214.199 7.24H209.531C209.707 8.272 210.383 8.788 211.559 8.788C212.383 8.788 213.127 8.544 213.791 8.056V9.652ZM212.411 5.896C212.307 5.496 212.127 5.2 211.871 5.008C211.615 4.816 211.307 4.72 210.947 4.72C210.611 4.72 210.323 4.82 210.083 5.02C209.851 5.22 209.687 5.512 209.591 5.896H212.411ZM217.9 10.156C217.308 10.156 216.788 10.016 216.34 9.736C215.892 9.448 215.548 9.048 215.308 8.536C215.068 8.024 214.948 7.44 214.948 6.784C214.948 6.12 215.068 5.532 215.308 5.02C215.556 4.5 215.9 4.096 216.34 3.808C216.788 3.52 217.308 3.376 217.9 3.376C218.172 3.376 218.444 3.424 218.716 3.52C218.996 3.616 219.256 3.756 219.496 3.94V0.771999H221.416V8.5C221.416 9.14 221.496 9.64 221.656 10H219.856C219.8 9.888 219.752 9.744 219.712 9.568C219.208 9.96 218.604 10.156 217.9 10.156ZM216.784 6.784C216.784 7.152 216.856 7.488 217 7.792C217.152 8.096 217.348 8.34 217.588 8.524C217.836 8.7 218.096 8.788 218.368 8.788C218.584 8.788 218.82 8.736 219.076 8.632C219.34 8.528 219.556 8.312 219.724 7.984V5.572C219.556 5.236 219.34 5.016 219.076 4.912C218.82 4.808 218.584 4.756 218.368 4.756C218.096 4.756 217.836 4.844 217.588 5.02C217.348 5.196 217.152 5.44 217 5.752C216.856 6.064 216.784 6.408 216.784 6.784Z" fill="#B5B5B5"/>
</svg>
