<svg width="147" height="12" viewBox="0 0 147 12" fill="none" xmlns="http://www.w3.org/2000/svg">
<path d="M0.746078 3.4H2.33008V4.708H8.18608V2.224H0.506078V0.676H9.77008V6.244H2.33008V9.508H10.7301V11.056H0.746078V3.4ZM13.5021 6.424C12.9661 6.952 12.3741 7.4 11.7261 7.768V5.8C12.8861 4.944 13.7461 3.88 14.3061 2.608H11.9301V1.096H14.8461C14.9341 0.72 15.0021 0.408 15.0501 0.159999H16.5741C16.5421 0.44 16.4861 0.752 16.4061 1.096H22.7301V2.608H15.9621C15.8741 2.856 15.7581 3.132 15.6141 3.436H21.9381V11.26H20.4021V9.772H15.0381V11.26H13.5021V6.424ZM20.4021 8.296V7.348H15.0381V8.308L20.4021 8.296ZM20.4021 5.884V4.924H15.0381V5.884H20.4021ZM34.8501 9.592V11.08H28.7301C27.9061 11.08 27.2301 11.024 26.7021 10.912C26.1821 10.808 25.7061 10.624 25.2741 10.36C25.2101 10.728 25.1581 11.008 25.1181 11.2H23.6901C23.9141 10.272 24.0621 9.416 24.1341 8.632C24.2141 7.84 24.2541 6.896 24.2541 5.8H25.6221C25.6061 7.048 25.5621 8.028 25.4901 8.74C25.7461 8.924 25.9821 9.064 26.1981 9.16V5.236H23.9301V3.856H25.6941V2.788H24.1341V1.42H25.6941V0.4H27.2301V1.42H28.7421V2.788H27.2301V3.856H28.9461V5.236H27.7101V6.448H28.7901V7.852H27.7101V9.544C27.9901 9.576 28.3301 9.592 28.7301 9.592H34.8501ZM29.0661 4.732C29.7221 3.836 30.1381 2.904 30.3141 1.936H29.3301V0.58H34.5621L34.4781 4.732H32.1381V3.352H33.0741L33.1101 1.936H31.7421C31.5981 2.968 31.2541 3.9 30.7101 4.732H29.0661ZM29.5581 5.164H34.4421V9.028H29.5581V5.164ZM32.9661 7.708V6.484H31.0341V7.708H32.9661ZM40.9701 11.08C40.2341 11.08 39.6221 11.036 39.1341 10.948C38.6461 10.868 38.2061 10.728 37.8141 10.528C37.7581 10.72 37.7181 10.844 37.6941 10.9C37.6541 11.052 37.6261 11.152 37.6101 11.2H35.9541C36.3301 10.152 36.6061 9.18 36.7821 8.284C36.9581 7.388 37.0661 6.42 37.1061 5.38H35.6901V3.82H38.6661C38.6661 4.836 38.6301 5.752 38.5581 6.568C38.4861 7.376 38.3661 8.184 38.1981 8.992C38.5501 9.192 38.9421 9.336 39.3741 9.424C39.8141 9.504 40.3461 9.544 40.9701 9.544H46.8501V11.08H40.9701ZM37.8021 0.4L38.6301 3.004H37.0101L36.1821 0.4H37.8021ZM39.2421 1.276H44.0661V0.159999H45.6021V1.276H46.7301V2.8H45.6021V8.992H42.7821V7.468H44.0661V2.8H39.2421V1.276ZM41.4741 3.376L42.7461 6.796H41.1621L39.8901 3.376H41.4741ZM50.5221 3.892L48.9741 4.54V2.788L51.0381 1.612H52.2981V10H50.5221V3.892ZM57.9482 10.156C55.9402 10.156 54.9362 8.704 54.9362 5.8C54.9362 2.896 55.9402 1.444 57.9482 1.444C59.9562 1.444 60.9602 2.896 60.9602 5.8C60.9602 8.704 59.9562 10.156 57.9482 10.156ZM56.7002 5.8C56.7002 6.736 56.7962 7.424 56.9882 7.864C57.1882 8.304 57.5082 8.524 57.9482 8.524C58.3882 8.524 58.7042 8.304 58.8962 7.864C59.0962 7.424 59.1962 6.736 59.1962 5.8C59.1962 4.872 59.0962 4.188 58.8962 3.748C58.7042 3.308 58.3882 3.088 57.9482 3.088C57.5082 3.088 57.1882 3.308 56.9882 3.748C56.7962 4.188 56.7002 4.872 56.7002 5.8ZM62.8783 8.032H64.6183L63.2383 11.584H61.8343L62.8783 8.032ZM68.9755 10.156C66.9675 10.156 65.9635 8.704 65.9635 5.8C65.9635 2.896 66.9675 1.444 68.9755 1.444C70.9835 1.444 71.9875 2.896 71.9875 5.8C71.9875 8.704 70.9835 10.156 68.9755 10.156ZM67.7275 5.8C67.7275 6.736 67.8235 7.424 68.0155 7.864C68.2155 8.304 68.5355 8.524 68.9755 8.524C69.4155 8.524 69.7315 8.304 69.9235 7.864C70.1235 7.424 70.2235 6.736 70.2235 5.8C70.2235 4.872 70.1235 4.188 69.9235 3.748C69.7315 3.308 69.4155 3.088 68.9755 3.088C68.5355 3.088 68.2155 3.308 68.0155 3.748C67.8235 4.188 67.7275 4.872 67.7275 5.8ZM76.0537 10.156C74.0457 10.156 73.0417 8.704 73.0417 5.8C73.0417 2.896 74.0457 1.444 76.0537 1.444C78.0617 1.444 79.0657 2.896 79.0657 5.8C79.0657 8.704 78.0617 10.156 76.0537 10.156ZM74.8057 5.8C74.8057 6.736 74.9017 7.424 75.0937 7.864C75.2937 8.304 75.6137 8.524 76.0537 8.524C76.4937 8.524 76.8097 8.304 77.0017 7.864C77.2017 7.424 77.3017 6.736 77.3017 5.8C77.3017 4.872 77.2017 4.188 77.0017 3.748C76.8097 3.308 76.4937 3.088 76.0537 3.088C75.6137 3.088 75.2937 3.308 75.0937 3.748C74.9017 4.188 74.8057 4.872 74.8057 5.8ZM83.1318 10.156C81.1238 10.156 80.1198 8.704 80.1198 5.8C80.1198 2.896 81.1238 1.444 83.1318 1.444C85.1398 1.444 86.1438 2.896 86.1438 5.8C86.1438 8.704 85.1398 10.156 83.1318 10.156ZM81.8838 5.8C81.8838 6.736 81.9798 7.424 82.1718 7.864C82.3718 8.304 82.6918 8.524 83.1318 8.524C83.5718 8.524 83.8878 8.304 84.0798 7.864C84.2798 7.424 84.3798 6.736 84.3798 5.8C84.3798 4.872 84.2798 4.188 84.0798 3.748C83.8878 3.308 83.5718 3.088 83.1318 3.088C82.6918 3.088 82.3718 3.308 82.1718 3.748C81.9798 4.188 81.8838 4.872 81.8838 5.8ZM87.1379 9.556C88.6179 8.972 89.7739 8.124 90.6059 7.012C91.4379 5.892 91.8539 4.528 91.8539 2.92L91.8419 0.364H93.4979V2.92C93.4979 4.528 93.9099 5.892 94.7339 7.012C95.5659 8.124 96.7219 8.972 98.2019 9.556V11.344C96.8819 10.92 95.7539 10.316 94.8179 9.532C93.8899 8.748 93.1739 7.824 92.6699 6.76C92.1659 7.824 91.4459 8.748 90.5099 9.532C89.5819 10.316 88.4579 10.92 87.1379 11.344V9.556ZM99.3899 9.928C102.942 9.672 106.458 9.248 109.938 8.656V10.06C106.858 10.66 103.342 11.08 99.3899 11.32V9.928ZM99.1499 6.532C99.9259 6.212 100.518 5.736 100.926 5.104H99.2699V3.664H103.878V3.088H99.8339V1.696H101.238L102.762 0.159999H104.838L103.314 1.696H106.842L106.278 0.868H108.198L109.71 3.088H105.462V3.664H110.07V5.104H108.486C108.878 5.68 109.446 6.12 110.19 6.424V8.092C109.79 7.956 109.406 7.78 109.038 7.564V8.104C106.278 8.592 103.242 8.956 99.9299 9.196V7.876C102.634 7.676 105.37 7.36 108.138 6.928C107.77 6.6 107.458 6.24 107.202 5.848V6.496C105.498 6.792 103.566 7.024 101.406 7.192V6.748C100.806 7.324 100.054 7.772 99.1499 8.092V6.532ZM102.138 5.848C103.994 5.664 105.574 5.464 106.878 5.248L106.806 5.104H102.534C102.43 5.336 102.298 5.584 102.138 5.848ZM117.342 9.664H119.946L120.15 5.656H112.242L112.722 0.304H114.294L114.222 1.144H121.71V2.656H114.078L113.946 4.144H121.77L121.41 11.2H117.342V9.664ZM111.03 7.036H119.07V8.56H111.03V7.036ZM126.474 9.664C127.306 9.24 127.87 8.78 128.166 8.284C128.462 7.78 128.622 7.26 128.646 6.724L126.834 7.972V6.784L125.97 7.012V11.2H123.546V9.748H124.41V7.408L123.222 7.708V6.04L124.41 5.74V3.52H123.342V2.008H124.41V0.339999H125.97V2.008H126.87V3.52H125.97V5.344L126.99 5.08V6.244L128.646 5.104V0.339999H130.086V6.4C130.086 7.072 130.006 7.708 129.846 8.308C129.686 8.908 129.338 9.484 128.802 10.036C128.274 10.588 127.498 11.016 126.474 11.32V9.664ZM128.178 0.831999L128.574 4.444H127.338L126.942 0.831999H128.178ZM130.926 0.339999H132.366V5.392L134.142 6.7V8.368L132.366 7.06V9.628H134.31V11.164H130.926V0.339999ZM132.942 0.831999H134.178L133.722 4.444H132.486L132.942 0.831999ZM146.19 11.416C144.982 11.056 144.042 10.46 143.37 9.628C143.058 9.932 142.71 10.188 142.326 10.396C141.95 10.612 141.526 10.812 141.054 10.996V9.232C141.686 8.984 142.194 8.656 142.578 8.248C142.186 7.264 141.99 6.028 141.99 4.54H140.898V3.076H141.966V0.339999H143.394V3.076H145.722V4.54H143.418C143.426 5.068 143.442 5.516 143.466 5.884C143.49 6.252 143.538 6.592 143.61 6.904C143.826 6.464 143.994 5.948 144.114 5.356H145.446C145.23 6.492 144.858 7.516 144.33 8.428C144.746 8.94 145.366 9.356 146.19 9.676V11.416ZM135.498 5.272H137.118V0.339999H138.654V1.876H140.742V3.436H138.654V5.272H140.454V11.08H135.498V5.272ZM138.966 9.532V6.82H136.986V9.532H138.966ZM144.906 0.603999L145.338 2.692H144.03L143.61 0.603999H144.906Z" fill="#B5B5B5"/>
</svg>
