<!-- 此处用户将粘贴背景波浪SVG代码 --> 
<svg width="375" height="607" viewBox="0 0 375 607" fill="none" xmlns="http://www.w3.org/2000/svg">
<g opacity="0.095">
<path d="M112.906 565.02C103.481 567.545 94.3269 569.766 85.4917 571.665C36.9855 582.1 -0.362922 582.748 -25.5165 573.592C-51.2508 564.227 -63.4864 544.689 -61.8877 515.518C-57.0297 426.96 -44.3782 369.489 -36.0067 331.463C-32.2388 314.347 -29.2623 300.826 -28.4142 290.6C-27.0052 273.58 -8.58176 246.55 19.6626 220.055C50.0591 191.544 84.9757 169.855 115.464 160.55C157.512 147.717 200.35 123.152 228.88 104.804C262.115 83.4304 295.606 57.7358 318.466 36.0699C333.223 22.0827 350.818 17.027 369.345 21.4479C401.423 29.1048 432.145 64.1227 449.52 112.832C457.754 135.919 466.27 159.795 473.024 183.226C480.494 209.132 484.935 231.695 486.605 252.202C488.596 276.687 486.796 298.967 481.104 320.307C474.747 344.134 463.714 366.28 447.374 388.012C419.467 425.128 329.904 480.991 229.577 523.86C188.534 541.395 148.753 555.411 112.905 565.017L112.906 565.02ZM343.657 22.6698C334.943 25.0049 326.708 29.7591 319.215 36.8621C296.307 58.5746 262.757 84.3149 229.47 105.721C200.882 124.104 157.95 148.724 115.781 161.593C85.4491 170.852 50.6839 192.448 20.405 220.852C-7.65078 247.17 -25.9434 273.932 -27.3312 290.695C-28.1851 300.998 -31.1689 314.547 -34.945 331.703C-43.31 369.697 -55.9466 427.112 -60.8016 515.583C-62.3715 544.218 -50.3756 563.393 -25.1433 572.578C-0.185996 581.659 36.9602 580.997 85.2651 570.609C127.628 561.499 177.382 544.99 229.15 522.869C329.322 480.068 418.703 424.348 446.507 387.368C462.762 365.748 473.735 343.727 480.056 320.034C485.717 298.814 487.508 276.657 485.525 252.296C481.809 206.592 464.873 159.117 448.499 113.204C431.249 64.8349 400.823 30.0825 369.094 22.5117C360.333 20.4196 351.785 20.4957 343.658 22.6733L343.657 22.6698Z" fill="#3061F6"/>
<path d="M114.011 545.803C106.556 547.801 99.2946 549.586 92.2513 551.147C47.8318 560.992 13.6394 561.833 -9.3835 553.645C-32.6557 545.367 -43.8275 527.938 -42.5897 501.842C-39.4309 422.993 -28.709 368.355 -21.6161 332.203C-18.286 315.231 -15.6572 301.826 -14.8549 291.484C-13.5525 274.767 3.32943 248.967 29.2033 224.148C56.9087 197.572 89.3163 177.098 118.117 167.973C156.852 155.945 196.374 133.572 222.705 116.926C253.64 97.3672 283.795 74.7958 305.437 54.9924C319.097 42.4978 335.316 38.1257 352.346 42.3482C381.907 49.6758 410.158 81.8975 426.074 126.446C441.13 168.461 456.7 211.906 460.127 254.725C461.933 277.279 460.267 297.817 455.035 317.514C449.2 339.484 439.091 359.914 424.142 379.97C398.587 414.485 316.402 466.509 224.287 506.484C185.42 523.35 147.758 536.765 114.008 545.808L114.011 545.803ZM327.964 43.3741C320.201 45.4542 312.851 49.5964 306.129 55.7435C284.445 75.5845 254.238 98.1998 223.254 117.786C196.868 134.466 157.265 156.883 118.426 168.946C89.7709 178.025 57.5086 198.412 29.914 224.883C4.213 249.535 -12.5483 275.086 -13.8328 291.562C-14.6376 301.965 -17.2747 315.395 -20.6079 332.398C-27.6968 368.522 -38.4064 423.108 -41.562 501.885C-42.7756 527.484 -31.8334 544.574 -9.03406 552.682C13.8024 560.804 47.8074 559.95 92.0361 550.148C130.903 541.536 176.496 526.108 223.889 505.542C315.856 465.632 397.867 413.745 423.329 379.356C438.205 359.406 448.255 339.09 454.056 317.248C459.259 297.664 460.914 277.241 459.116 254.801C455.699 212.115 440.153 168.733 425.117 126.781C409.314 82.5509 381.338 50.5774 352.103 43.3311C343.794 41.2717 335.673 41.3045 327.963 43.3706L327.964 43.3741Z" fill="#3061F6"/>
<path d="M115.189 526.605C109.668 528.085 104.273 529.429 99.0062 530.638C58.6743 539.898 27.6337 540.928 6.74841 533.707C-14.0617 526.515 -24.1672 511.191 -23.2851 488.161C-21.8007 418.513 -13.2895 368.651 -7.07412 332.248C-4.25299 315.727 -2.02774 302.677 -1.28654 292.359C-0.0719971 275.692 14.8962 251.72 38.7532 228.232C63.7788 203.592 93.6774 184.333 120.779 175.389C184.981 155.047 258.595 103.555 292.414 73.91C304.978 62.9081 319.828 59.2177 335.364 63.2408C362.403 70.24 388.179 99.6709 402.635 140.048C415.713 176.331 430.531 217.458 433.658 257.24C435.276 277.861 433.747 296.659 428.978 314.71C423.662 334.826 414.484 353.537 400.92 371.918C389.274 387.93 365.244 407.83 331.429 429.461C298.949 450.239 259.018 471.421 219.002 489.108C182.335 505.313 146.804 518.134 115.192 526.605L115.189 526.605ZM312.244 64.067C305.44 65.8903 298.981 69.423 293.041 74.6262C259.164 104.324 185.407 155.91 121.071 176.296C94.1073 185.196 64.3444 204.373 39.419 228.911C15.7253 252.239 0.861459 275.985 -0.338381 292.428C-1.08233 302.791 -3.31339 315.861 -6.13846 332.41C-12.3464 368.785 -20.8494 418.606 -22.3358 488.191C-23.1992 510.759 -13.3098 525.767 7.0585 532.808C27.7741 539.969 58.6353 538.927 98.7904 529.707C134.159 521.586 175.597 507.246 218.611 488.235C258.586 470.566 298.468 449.409 330.909 428.656C364.622 407.09 388.563 387.278 400.143 371.355C413.639 353.071 422.766 334.462 428.047 314.469C432.788 296.522 434.311 277.828 432.7 257.316C429.585 217.662 414.787 176.598 401.728 140.373C387.377 100.29 361.854 71.0877 335.117 64.165C327.24 62.1246 319.542 62.1116 312.241 64.0679L312.244 64.067Z" fill="#3061F6"/>
<path d="M116.456 507.432C112.821 508.406 109.254 509.313 105.744 510.153C69.4993 518.823 41.6157 520.049 22.8646 513.796C4.52075 507.678 -4.51232 494.453 -3.98598 474.489C-4.18303 413.399 2.63348 365.861 7.61201 331.153C9.75722 316.195 11.6096 303.279 12.2755 293.24C13.3851 276.866 26.8516 254.091 48.2932 232.322C70.6549 209.621 98.0426 191.571 123.434 182.808C148.831 174.568 178.887 160.167 210.364 141.161C235.629 125.905 260.785 108.288 279.388 92.8286C290.854 83.3122 304.342 80.3051 318.391 84.1385C342.901 90.8225 366.196 117.46 379.187 153.658C392.961 191.614 404.573 225.799 407.179 259.764C408.614 278.453 407.216 295.514 402.909 311.92C398.115 330.176 389.865 347.175 377.686 363.881C367.148 378.682 345.456 397.026 314.955 416.929C285.774 435.969 249.813 455.443 213.695 471.764C179.254 487.324 145.887 499.557 116.451 507.445L116.456 507.432ZM296.494 84.742C290.655 86.3065 285.1 89.2375 279.953 93.509C261.32 108.996 236.122 126.642 210.823 141.918C179.287 160.96 149.168 175.392 123.715 183.647C98.4582 192.366 71.1948 210.334 48.9281 232.942C27.6308 254.564 14.2583 277.131 13.1646 293.298C12.4966 303.371 10.641 316.303 8.49258 331.277C3.51799 365.957 -3.2939 413.456 -3.09503 474.498C-3.61082 494.039 5.21712 506.974 23.1484 512.952C41.7431 519.153 69.4631 517.918 105.543 509.289C137.421 501.657 174.695 488.403 213.336 470.942C249.414 454.64 285.333 435.192 314.475 416.174C344.884 396.333 366.492 378.067 376.97 363.349C389.086 346.731 397.288 329.832 402.055 311.685C406.335 295.376 407.725 278.41 406.299 259.823C403.701 225.973 392.109 191.85 378.358 153.952C365.461 118.02 342.396 91.5949 318.161 84.9869C310.706 82.9534 303.406 82.8862 296.5 84.7366L296.494 84.742Z" fill="#3061F6"/>
<path d="M117.839 488.303C116.031 488.787 114.243 489.252 112.468 489.697C80.3108 497.782 55.5799 499.201 38.962 493.912C23.086 488.86 15.127 477.726 15.3122 460.813C13.3466 407.48 18.5985 361.632 22.4335 328.156C23.9539 314.883 25.2691 303.418 25.834 294.122C26.8564 277.786 38.5211 256.752 57.8332 236.412C77.552 215.644 102.427 198.811 126.087 190.231C173.312 174.471 231.902 138.499 266.358 111.748C276.738 103.707 288.869 101.385 301.437 105.035C323.405 111.415 344.215 135.256 355.741 167.262C367.575 199.6 378.386 231.201 380.702 262.276C381.951 279.029 380.688 294.354 376.844 309.115C372.573 325.515 365.249 340.793 354.459 355.826C345.029 369.416 325.671 386.214 298.483 404.394C272.602 421.699 240.605 439.466 208.388 454.423C176.21 469.358 145.043 481.014 117.84 488.306L117.839 488.303ZM280.7 105.395C275.844 106.696 271.199 109.035 266.864 112.392C232.355 139.183 173.665 175.215 126.36 191C102.828 199.535 78.0671 216.293 58.4338 236.974C39.2503 257.179 27.6704 278.025 26.6606 294.17C26.0934 303.486 24.7775 314.962 23.2564 328.246C19.4218 361.696 14.1755 407.509 16.1378 460.802C15.9585 477.331 23.7225 488.199 39.2169 493.128C55.6873 498.37 80.267 496.947 112.273 488.899C140.656 481.755 173.777 469.583 208.044 453.672C240.222 438.734 272.18 420.991 298.029 403.706C325.134 385.582 344.415 368.862 353.791 355.35C364.528 340.398 371.808 325.207 376.053 308.907C379.876 294.234 381.129 278.999 379.889 262.337C377.582 231.364 366.787 199.823 354.976 167.541C343.537 135.779 322.941 112.131 301.217 105.824C294.158 103.774 287.241 103.65 280.706 105.401L280.7 105.395Z" fill="#3061F6"/>
<path d="M119.382 469.224L119.183 469.278C91.114 476.78 69.5357 478.392 55.052 474.072C41.6411 470.075 34.7654 461.011 34.6173 447.136C30.6386 400.648 34.5051 355.227 37.3289 322.063C38.213 311.676 38.9784 302.708 39.4054 294.996C40.3243 278.932 50.5246 259.066 67.3826 240.496C84.484 221.658 106.853 206.036 128.751 197.643C149.1 190.617 172.402 179.765 198.026 165.391C217.3 154.577 237.459 141.918 253.34 130.657C262.64 124.085 273.421 122.451 284.527 125.934C303.947 132.023 322.253 153.07 332.302 180.863C342.292 207.873 352.21 236.604 354.232 264.791C355.293 279.612 354.166 293.192 350.784 306.315C347.034 320.856 340.639 334.42 331.232 347.776C314.734 372.322 263.226 408.229 203.068 437.116C173.209 451.456 144.277 462.554 119.382 469.224ZM264.834 126.015C260.975 127.049 257.265 128.807 253.772 131.275C237.872 142.549 217.684 155.227 198.39 166.05C172.731 180.445 149.384 191.312 129.005 198.35C107.226 206.7 84.9637 222.245 67.9384 241.002C51.1933 259.449 41.0675 279.145 40.1555 295.038C39.7269 302.759 38.9634 311.734 38.0767 322.125C35.2533 355.262 31.3914 400.644 35.3677 447.096C35.5146 460.63 42.2088 469.451 55.2657 473.344C69.6143 477.622 91.0537 476.009 118.986 468.543L119.186 468.49C144.035 461.832 172.919 450.75 202.738 436.429C262.786 407.593 314.169 371.792 330.606 347.34C339.963 334.054 346.321 320.572 350.048 306.119C353.409 293.08 354.53 279.577 353.476 264.839C351.462 236.752 341.56 208.081 331.59 181.117C321.617 153.54 303.497 132.668 284.3 126.651C277.606 124.552 271.028 124.351 264.84 126.009L264.834 126.015Z" fill="#3061F6"/>
<path d="M121.038 450.269C99.4035 456.066 82.6247 457.426 71.118 454.309C60.177 451.343 54.3898 444.341 53.9151 433.487C47.329 392.968 50.096 345.613 52.116 311.031C52.4317 305.604 52.7313 300.481 52.964 295.877C53.797 279.829 62.3064 261.615 76.9227 244.586C91.6631 227.418 111.011 213.381 131.403 205.062C145.665 199.922 184.801 184.239 240.314 149.575C248.546 144.462 258.001 143.517 267.657 146.853C284.499 152.669 300.285 170.915 308.852 194.467C317.095 216.453 326.032 242.026 327.751 267.308C329.572 294.027 323.11 317.713 307.999 339.727C300.776 350.916 286.082 364.632 265.517 379.388C245.93 393.441 222.491 407.435 197.735 419.857C172.169 432.683 147.321 442.736 125.878 448.923C124.239 449.396 122.623 449.844 121.034 450.27L121.038 450.269ZM248.871 146.582C246.037 147.341 243.294 148.537 240.68 150.159C231.798 155.705 213.686 166.713 192.174 178.116C169.589 190.091 149.23 199.371 131.654 205.703C111.373 213.977 92.1191 227.944 77.4511 245.032C62.9348 261.945 54.4835 280.012 53.6585 295.909C53.4258 300.512 53.1271 305.638 52.8125 311.069C50.7928 345.625 48.0279 392.946 54.6067 433.395L54.61 433.436C55.0618 443.966 60.6778 450.763 71.3028 453.641C83.3593 456.907 102.168 455.048 125.692 448.258C147.097 442.08 171.901 432.047 197.43 419.238C222.153 406.833 245.563 392.857 265.123 378.827C285.619 364.123 300.247 350.469 307.432 339.347C322.457 317.461 328.877 293.913 327.071 267.359C325.358 242.169 316.439 216.651 308.213 194.713C299.714 171.345 284.092 153.262 267.44 147.511C261.06 145.305 254.767 145.009 248.879 146.587L248.871 146.582Z" fill="#3061F6"/>
<path d="M123.405 431.355C108.044 435.472 95.633 436.62 87.1722 434.669C78.6752 432.708 73.9818 427.717 73.2181 419.829C62.5963 384.708 65.3517 323.077 66.5252 296.755C68.0507 263.867 95.822 229.211 134.058 212.481C164.878 200.761 200.034 182.581 221.039 171.723C223.269 170.571 225.364 169.489 227.298 168.491C234.483 164.816 242.644 164.582 250.883 167.806C265.113 173.375 278.339 188.803 285.408 208.073C292.857 227.578 299.934 248.558 301.276 269.827C302.707 292.522 297.311 312.753 284.77 331.68C272.729 351.335 236.474 379.198 192.407 402.657C171.217 413.936 150.529 422.926 132.578 428.658C129.417 429.666 126.356 430.569 123.403 431.36L123.405 431.355ZM232.737 167.06C230.971 167.533 229.251 168.196 227.582 169.048C225.647 170.042 223.556 171.123 221.327 172.279C200.312 183.144 165.137 201.336 134.296 213.061C96.2816 229.695 68.6673 264.125 67.1521 296.785C65.9755 323.082 63.2229 384.667 73.8271 419.681L73.843 419.74C74.566 427.35 79.0967 432.168 87.3132 434.062C97.2926 436.363 112.882 434.287 132.392 428.063C150.309 422.344 170.965 413.371 192.117 402.109C236.089 378.698 272.251 350.924 284.246 331.349C312.094 289.322 299.801 247.519 284.827 208.3C277.816 189.187 264.724 173.898 250.658 168.395C244.505 165.986 238.407 165.548 232.743 167.066L232.737 167.06Z" fill="#3061F6"/>
<path d="M126.157 412.77C116.767 415.286 108.939 416.184 103.263 415.263C97.1501 414.267 93.5387 411.214 92.5301 406.191C86.9243 397.36 83.0825 380.769 81.1057 356.879C79.6663 339.473 79.295 317.88 80.0907 297.634C81.4156 265.145 102.584 236.088 136.718 219.902C148.872 214.94 161.454 209.52 173.623 204.277C189.362 197.497 204.228 191.097 214.285 187.406C222.761 184.333 232.456 186.411 241.582 193.253C250.234 199.739 257.659 210.098 261.965 221.675C272.303 248.042 274.255 262.602 274.803 272.343C275.851 291.004 271.512 307.782 261.544 323.629C251.674 340.934 223.167 364.66 187.148 385.536C164.14 398.872 142.72 408.336 126.158 412.773L126.157 412.77ZM216.318 187.352C215.699 187.518 215.087 187.712 214.479 187.931C204.434 191.615 189.579 198.012 173.847 204.79C161.675 210.034 149.088 215.452 136.944 220.411C103.017 236.5 81.965 265.377 80.6507 297.653C79.8572 317.879 80.2255 339.447 81.6628 356.831C83.6335 380.671 87.4609 397.194 93.031 405.933L93.0581 405.978L93.0712 406.027C94.0128 410.829 97.4692 413.75 103.351 414.711C118.917 417.25 150.919 405.884 186.864 385.05C222.802 364.222 251.233 340.577 261.062 323.343C270.973 307.589 275.281 290.921 274.242 272.377C273.206 253.914 266.857 235.691 261.439 221.88C257.172 210.394 249.813 200.126 241.245 193.703C232.931 187.471 224.156 185.256 216.319 187.356L216.318 187.352Z" fill="#3061F6"/>
<path d="M129.703 394.81C125.82 395.851 122.447 396.376 119.71 396.334C115.706 396.268 113.071 395.011 111.879 392.592C103.396 389.061 98.9332 370.558 96.6812 355.632C94.1426 338.797 93.011 317.446 93.651 298.508C94.2225 282.211 98.1126 268.588 105.546 256.855C113.139 244.874 124.203 235.214 139.372 227.317C162.729 216.795 187.028 208.557 201.285 206.325C208.235 205.268 215.976 207.877 223.08 213.665C229.725 219.082 235.353 226.959 238.516 235.279C247.426 257.102 255.455 285.945 238.313 315.576C230.682 330.419 209.739 350.159 182.298 368.361C162.245 381.666 142.993 391.249 129.699 394.811L129.703 394.81ZM189.202 209.492C175.264 213.226 157.161 219.845 139.592 227.76C124.514 235.606 113.514 245.211 105.969 257.116C98.5822 268.773 94.7153 282.315 94.1493 298.52C92.9466 333.914 97.7395 386.366 112.155 392.166L112.243 392.202L112.285 392.288C113.368 394.579 115.869 395.771 119.718 395.834C131.739 396.029 156.197 385.081 182.029 367.943C209.402 349.785 230.286 330.117 237.884 315.332C254.923 285.878 246.928 257.171 238.06 235.454L238.058 235.447C234.924 227.205 229.349 219.4 222.768 214.038C215.773 208.336 208.171 205.769 201.361 206.803C197.86 207.352 193.751 208.265 189.2 209.485L189.202 209.492Z" fill="#3061F6"/>
<path d="M135.379 378.562C133.704 379.011 132.342 379.147 131.352 378.937C128.665 380.091 126.093 379.855 123.708 378.246C116.729 373.537 112.723 358.209 110.589 346.173C108.05 331.856 106.794 314.363 107.222 299.379C107.716 282.428 110.145 270.575 115.101 260.941C120.384 250.669 128.947 242.339 142.041 234.728C157.206 226.828 175.366 223.108 188.309 225.249C199.925 227.22 211.043 238.808 215.078 248.872C224.115 269.485 224.119 289.216 215.095 307.512C211.891 314.867 206.063 323.202 197.783 332.281C190.613 340.14 181.784 348.321 172.242 355.935C157.307 367.857 143.067 376.494 135.381 378.554L135.379 378.562ZM131.307 378.492L131.375 378.507C132.327 378.728 133.649 378.598 135.283 378.161C152.202 373.627 202.292 335.816 214.7 307.341C223.671 289.153 223.663 269.546 214.676 249.051L214.675 249.044C210.683 239.088 199.7 227.625 188.23 225.679C175.372 223.553 157.317 227.255 142.237 235.11C129.224 242.673 120.716 250.943 115.469 261.142C110.546 270.715 108.132 282.512 107.638 299.394C107.211 314.353 108.469 331.811 111.001 346.104C113.121 358.057 117.085 373.273 123.937 377.896C126.212 379.43 128.668 379.641 131.236 378.518L131.299 378.49L131.307 378.492Z" fill="#3061F6"/>
<path d="M143.821 369.848C142.145 370.297 140.511 370.203 138.928 369.556C134.959 367.941 129.314 361.972 124.945 342.727C122.017 329.826 120.46 313.953 120.778 300.265C121.153 284.088 121.601 273.642 124.638 265.051C127.78 256.161 133.588 249.529 144.693 242.162C150.812 238.102 157.334 236.935 164.074 238.692C178.649 242.497 189.674 258.68 191.623 262.482C195.262 269.584 196.262 278.297 194.591 288.38C193.153 297.06 189.745 306.774 184.459 317.261C174.906 336.211 160.77 354.431 150.728 365.162C148.364 367.687 146.054 369.254 143.822 369.852L143.821 369.848ZM152.382 239.008C149.828 239.692 147.331 240.841 144.893 242.461C133.862 249.781 128.091 256.359 124.978 265.17C121.962 273.714 121.513 284.13 121.14 300.273C120.56 325.23 126.609 364.146 139.064 369.224C142.6 370.666 146.434 369.216 150.46 364.915C160.484 354.204 174.596 336.017 184.131 317.098C189.399 306.646 192.797 296.965 194.227 288.321C195.884 278.315 194.897 269.678 191.296 262.648C189.363 258.876 178.422 242.813 163.978 239.044C160.023 238.013 156.143 238.004 152.375 239.013L152.382 239.008Z" fill="#3061F6"/>
</g>
</svg>
