<svg width="532" height="88" viewBox="0 0 532 88" fill="none" xmlns="http://www.w3.org/2000/svg">
<g filter="url(#filter0_i_364_1353)">
<rect width="532" height="88" rx="28" fill="#747FF0"/>
</g>
<path d="M234.363 32.2215H225.011V28.4135H250.771V32.2215H238.227V52.8295H234.363V32.2215ZM244.135 35.8335L249.231 47.7895H245.255L240.159 35.8335H244.135ZM253.291 37.3455H278.491V41.2095H253.291V37.3455ZM283.251 49.4415C287.264 49.0682 291.109 48.1535 294.787 46.6975C298.464 45.2229 302.057 43.2255 305.567 40.7055V45.0455C299.127 49.7495 291.688 52.4375 283.251 53.1095V49.4415ZM280.787 46.6135C282.56 44.4109 283.932 42.2175 284.903 40.0335H289.019C288.141 42.1989 286.909 44.3922 285.323 46.6135H280.787ZM281.291 34.9655H284.707V28.4695H288.319V34.9655H292.687V27.0695H296.299V28.9455H305.091V32.4735H296.299V34.9655H306.491V38.5495H296.299V44.2335H292.687V38.5495H281.291V34.9655Z" fill="white"/>
<defs>
<filter id="filter0_i_364_1353" x="0" y="0" width="532" height="88" filterUnits="userSpaceOnUse" color-interpolation-filters="sRGB">
<feFlood flood-opacity="0" result="BackgroundImageFix"/>
<feBlend mode="normal" in="SourceGraphic" in2="BackgroundImageFix" result="shape"/>
<feColorMatrix in="SourceAlpha" type="matrix" values="0 0 0 0 0 0 0 0 0 0 0 0 0 0 0 0 0 0 127 0" result="hardAlpha"/>
<feOffset dy="-12"/>
<feComposite in2="hardAlpha" operator="arithmetic" k2="-1" k3="1"/>
<feColorMatrix type="matrix" values="0 0 0 0 0 0 0 0 0 0 0 0 0 0 0 0 0 0 0.13 0"/>
<feBlend mode="normal" in2="shape" result="effect1_innerShadow_364_1353"/>
</filter>
</defs>
</svg>
