<svg width="532" height="88" viewBox="0 0 532 88" fill="none" xmlns="http://www.w3.org/2000/svg">
<g filter="url(#filter0_i_424_1481)">
<rect width="532" height="88" rx="28" fill="#747FF0"/>
</g>
<g filter="url(#filter1_i_424_1481)">
<rect width="532" height="88" rx="28" fill="#747FF0"/>
</g>
<path d="M208.839 30.4295C210.893 30.4295 212.507 30.9802 213.683 32.0815C214.878 33.1829 215.475 34.7509 215.475 36.7855C215.475 38.8015 214.878 40.3602 213.683 41.4615C212.507 42.5629 210.893 43.1135 208.839 43.1135H204.079V50.0295H199.459V30.4295H208.839ZM208.419 39.4175C209.353 39.4175 210.071 39.1655 210.575 38.6615C211.079 38.1575 211.331 37.5322 211.331 36.7855C211.331 36.0202 211.079 35.3855 210.575 34.8815C210.071 34.3775 209.353 34.1255 208.419 34.1255H204.079V39.4175H208.419ZM222.618 30.4295V46.2495H230.542V50.0295H217.998V30.4295H222.618ZM244.493 44.4855H238.221L236.737 50.0295H231.837L237.521 30.4295H245.221L250.905 50.0295H245.977L244.493 44.4855ZM243.597 41.1255L241.385 32.9215H241.329L239.117 41.1255H243.597ZM250.122 30.4295H255.218L258.858 37.8495H258.97L262.61 30.4295H267.706L261.238 42.0775V50.0295H256.618V42.1335L250.122 30.4295ZM288.543 44.4855H282.271L280.787 50.0295H275.887L281.571 30.4295H289.271L294.955 50.0295H290.027L288.543 44.4855ZM287.647 41.1255L285.435 32.9215H285.379L283.167 41.1255H287.647ZM313.872 49.1895C313.014 49.6002 312.09 49.8989 311.1 50.0855C310.111 50.2909 308.963 50.3935 307.656 50.3935C305.51 50.3935 303.615 49.9922 301.972 49.1895C300.33 48.3869 299.032 47.2482 298.08 45.7735C297.147 44.2802 296.68 42.5349 296.68 40.5375C296.68 38.5215 297.138 36.7295 298.052 35.1615C298.986 33.5749 300.264 32.3335 301.888 31.4375C303.531 30.5229 305.407 30.0655 307.516 30.0655C308.543 30.0655 309.579 30.1682 310.624 30.3735C311.688 30.5789 312.584 30.8309 313.312 31.1295V34.4895C311.427 33.8549 309.672 33.5375 308.048 33.5375C306.032 33.5375 304.399 34.1162 303.148 35.2735C301.898 36.4309 301.272 38.1855 301.272 40.5375C301.272 41.8069 301.571 42.9362 302.168 43.9255C302.784 44.8962 303.596 45.6055 304.604 46.0535C305.631 46.5015 306.732 46.7255 307.908 46.7255C308.692 46.7255 309.383 46.6975 309.98 46.6415V42.3295H307.768V38.8295H313.872V49.1895ZM328.547 44.4855H322.275L320.791 50.0295H315.891L321.575 30.4295H329.275L334.959 50.0295H330.031L328.547 44.4855ZM327.651 41.1255L325.439 32.9215H325.383L323.171 41.1255H327.651ZM337.328 30.4295H341.948V50.0295H337.328V30.4295ZM350.097 34.7975H349.929V50.0295H345.393V30.4295H352.757L357.433 45.9135H357.797V30.4295H362.333V50.0295H354.801L350.097 34.7975Z" fill="white"/>
<path d="M172.333 27C164.979 27 159 32.9792 159 40.3333C159 47.6875 164.979 53.6667 172.333 53.6667C179.688 53.6667 185.667 47.6875 185.667 40.3333H183C183 46.2135 178.214 51 172.333 51C166.453 51 161.667 46.2135 161.667 40.3333C161.667 34.4531 166.453 29.6667 172.333 29.6667C175.276 29.6667 177.938 30.8698 179.87 32.8021L176.333 36.3333H185.667V27L181.75 30.9167C179.333 28.5 176.01 27 172.333 27Z" fill="white"/>
<defs>
<filter id="filter0_i_424_1481" x="0" y="0" width="532" height="88" filterUnits="userSpaceOnUse" color-interpolation-filters="sRGB">
<feFlood flood-opacity="0" result="BackgroundImageFix"/>
<feBlend mode="normal" in="SourceGraphic" in2="BackgroundImageFix" result="shape"/>
<feColorMatrix in="SourceAlpha" type="matrix" values="0 0 0 0 0 0 0 0 0 0 0 0 0 0 0 0 0 0 127 0" result="hardAlpha"/>
<feOffset dy="-12"/>
<feComposite in2="hardAlpha" operator="arithmetic" k2="-1" k3="1"/>
<feColorMatrix type="matrix" values="0 0 0 0 0 0 0 0 0 0 0 0 0 0 0 0 0 0 0.13 0"/>
<feBlend mode="normal" in2="shape" result="effect1_innerShadow_424_1481"/>
</filter>
<filter id="filter1_i_424_1481" x="0" y="0" width="532" height="88" filterUnits="userSpaceOnUse" color-interpolation-filters="sRGB">
<feFlood flood-opacity="0" result="BackgroundImageFix"/>
<feBlend mode="normal" in="SourceGraphic" in2="BackgroundImageFix" result="shape"/>
<feColorMatrix in="SourceAlpha" type="matrix" values="0 0 0 0 0 0 0 0 0 0 0 0 0 0 0 0 0 0 127 0" result="hardAlpha"/>
<feOffset dy="-12"/>
<feComposite in2="hardAlpha" operator="arithmetic" k2="-1" k3="1"/>
<feColorMatrix type="matrix" values="0 0 0 0 0 0 0 0 0 0 0 0 0 0 0 0 0 0 0.13 0"/>
<feBlend mode="normal" in2="shape" result="effect1_innerShadow_424_1481"/>
</filter>
</defs>
</svg>
