<svg width="532" height="88" viewBox="0 0 532 88" fill="none" xmlns="http://www.w3.org/2000/svg">
<g filter="url(#filter0_i_424_1443)">
<rect width="532" height="88" rx="28" fill="#747FF0"/>
</g>
<g filter="url(#filter1_i_424_1443)">
<rect width="532" height="88" rx="28" fill="#747FF0"/>
</g>
<path d="M239.503 49.3295H243.283V47.7895H228.499V52.8295H224.915V47.7895H222.731V44.3735H224.915V33.0055H234.099V31.2415H223.291V27.8255H248.491V31.2415H237.683V33.0055H246.867V44.3735H249.051V47.7895H246.867V52.8295H239.503V49.3295ZM234.099 44.3735V41.9655H228.499V44.3735H234.099ZM234.099 38.7735V36.4215H228.499V38.7735H234.099ZM243.283 44.3735V41.9655H237.683V44.3735H243.283ZM243.283 38.7735V36.4215H237.683V38.7735H243.283ZM276.491 52.9135C273.784 51.9802 271.665 50.5989 270.135 48.7695C268.623 46.9402 267.661 44.6349 267.251 41.8535H265.711V52.8295H262.099V41.8535H260.531C260.12 44.6349 259.149 46.9402 257.619 48.7695C256.107 50.5989 253.997 51.9802 251.291 52.9135V49.1335C254.464 47.8269 256.396 45.4002 257.087 41.8535H251.067V38.3535H262.071V32.2495H252.075V28.7495H262.071V27.0695H265.711V28.7495H275.707V32.2495H265.711V38.3535H276.715V41.8535H270.695C271.385 45.4002 273.317 47.8269 276.491 49.1335V52.9135ZM257.199 33.0335L258.683 37.4855H255.099L253.615 33.0335H257.199ZM270.583 33.0335H274.167L272.683 37.4855H269.099L270.583 33.0335ZM279.291 37.3455H304.491V41.2095H279.291V37.3455ZM320.535 36.8415C319.601 37.7375 318.724 38.4562 317.903 38.9975V41.9375H315.719V45.0175L318.519 44.5135V47.7335L315.719 48.2375V52.8295H312.135V48.8535L307.011 49.7495V46.5295L312.135 45.6335V41.9375H306.955L309.251 32.6975H307.291V29.6175H310.007L310.511 27.6295H314.235L313.759 29.6175H317.903V32.6975H312.723L311.239 38.8575H312.527V34.6295H315.719V38.8575H317.455V34.7695C318.463 33.8735 319.443 32.8002 320.395 31.5495C321.347 30.2802 322.084 28.9735 322.607 27.6295H327.899C328.403 28.8242 329.093 30.0655 329.971 31.3535C330.867 32.6415 331.893 33.7802 333.051 34.7695V39.3055C331.763 38.4469 330.465 37.3175 329.159 35.9175C327.852 34.5175 326.741 32.9682 325.827 31.2695H324.623C323.484 33.3975 322.14 35.2362 320.591 36.7855H324.175V40.7615C326.489 40.3695 328.72 39.4829 330.867 38.1015V41.7135C330.157 42.1989 329.215 42.6749 328.039 43.1415C326.881 43.6082 325.593 43.9815 324.175 44.2615V48.9095H332.771V52.5495H320.535V36.8415Z" fill="white"/>
<path d="M197.333 27C189.979 27 184 32.9792 184 40.3333C184 47.6875 189.979 53.6667 197.333 53.6667C204.688 53.6667 210.667 47.6875 210.667 40.3333H208C208 46.2135 203.214 51 197.333 51C191.453 51 186.667 46.2135 186.667 40.3333C186.667 34.4531 191.453 29.6667 197.333 29.6667C200.276 29.6667 202.938 30.8698 204.87 32.8021L201.333 36.3333H210.667V27L206.75 30.9167C204.333 28.5 201.01 27 197.333 27Z" fill="white"/>
<defs>
<filter id="filter0_i_424_1443" x="0" y="0" width="532" height="88" filterUnits="userSpaceOnUse" color-interpolation-filters="sRGB">
<feFlood flood-opacity="0" result="BackgroundImageFix"/>
<feBlend mode="normal" in="SourceGraphic" in2="BackgroundImageFix" result="shape"/>
<feColorMatrix in="SourceAlpha" type="matrix" values="0 0 0 0 0 0 0 0 0 0 0 0 0 0 0 0 0 0 127 0" result="hardAlpha"/>
<feOffset dy="-12"/>
<feComposite in2="hardAlpha" operator="arithmetic" k2="-1" k3="1"/>
<feColorMatrix type="matrix" values="0 0 0 0 0 0 0 0 0 0 0 0 0 0 0 0 0 0 0.13 0"/>
<feBlend mode="normal" in2="shape" result="effect1_innerShadow_424_1443"/>
</filter>
<filter id="filter1_i_424_1443" x="0" y="0" width="532" height="88" filterUnits="userSpaceOnUse" color-interpolation-filters="sRGB">
<feFlood flood-opacity="0" result="BackgroundImageFix"/>
<feBlend mode="normal" in="SourceGraphic" in2="BackgroundImageFix" result="shape"/>
<feColorMatrix in="SourceAlpha" type="matrix" values="0 0 0 0 0 0 0 0 0 0 0 0 0 0 0 0 0 0 127 0" result="hardAlpha"/>
<feOffset dy="-12"/>
<feComposite in2="hardAlpha" operator="arithmetic" k2="-1" k3="1"/>
<feColorMatrix type="matrix" values="0 0 0 0 0 0 0 0 0 0 0 0 0 0 0 0 0 0 0.13 0"/>
<feBlend mode="normal" in2="shape" result="effect1_innerShadow_424_1443"/>
</filter>
</defs>
</svg>
