<svg width="176" height="44" viewBox="0 0 176 44" fill="none" xmlns="http://www.w3.org/2000/svg">
<path d="M0.487807 8.25069C0.281393 7.95138 0.495644 7.54337 0.859221 7.54337H40.2285V44.0004H0.859222C0.495645 44.0004 0.281393 43.5924 0.487808 43.2931L11.5115 27.3088C12.1496 26.3835 12.1496 25.1603 11.5115 24.235L0.487807 8.25069Z" fill="#C0C0C0"/>
<path d="M40.2286 44.0012L18.8572 36.4584H40.2286V44.0012Z" fill="#9D9D9D"/>
<path d="M175.512 8.25069C175.719 7.95138 175.504 7.54337 175.141 7.54337H135.772V44.0004H175.141C175.504 44.0004 175.719 43.5924 175.512 43.2931L164.489 27.3088C163.85 26.3835 163.85 25.1603 164.489 24.235L175.512 8.25069Z" fill="#C0C0C0"/>
<path d="M135.771 44.0012L157.142 36.4584H135.771V44.0012Z" fill="#9D9D9D"/>
<path d="M18.8567 1.8047C18.8567 0.807993 19.6647 0 20.6614 0H155.337C156.334 0 157.142 0.807991 157.142 1.8047V36.4571H18.8567V1.8047Z" fill="#CDCDCD"/>
<path d="M39.7762 12H46.2162C47.5095 12 48.5295 12.32 49.2762 12.96C50.0228 13.5867 50.3962 14.4867 50.3962 15.66C50.3962 16.18 50.2295 16.6867 49.8962 17.18C49.5628 17.6733 49.1162 18.1 48.5562 18.46C49.3695 18.8067 50.0228 19.2933 50.5162 19.92C51.0095 20.5467 51.2562 21.22 51.2562 21.94C51.2562 23.18 50.8428 24.1667 50.0162 24.9C49.1895 25.6333 48.0762 26 46.6762 26H39.7762V12ZM45.8162 23.58C46.4828 23.58 46.9962 23.3933 47.3562 23.02C47.7295 22.6333 47.9162 22.1267 47.9162 21.5C47.9162 20.9933 47.6895 20.58 47.2362 20.26C46.7962 19.94 46.1295 19.78 45.2362 19.78H43.0762V23.58H45.8162ZM45.3362 17.84C45.8828 17.84 46.3095 17.6533 46.6162 17.28C46.9228 16.8933 47.0762 16.4733 47.0762 16.02C47.0762 15.4867 46.9162 15.0333 46.5962 14.66C46.2762 14.2733 45.7362 14.08 44.9762 14.08H43.0762V17.84H45.3362ZM53.2527 12H63.0927V14.72H56.5527V17.72H62.2327V20.26H56.5527V23.28H63.0927V26H53.2527V12ZM76.7734 25.4C76.16 25.6933 75.5 25.9067 74.7934 26.04C74.0867 26.1867 73.2667 26.26 72.3334 26.26C70.8 26.26 69.4467 25.9733 68.2734 25.4C67.1 24.8267 66.1734 24.0133 65.4934 22.96C64.8267 21.8933 64.4934 20.6467 64.4934 19.22C64.4934 17.78 64.82 16.5 65.4734 15.38C66.14 14.2467 67.0534 13.36 68.2134 12.72C69.3867 12.0667 70.7267 11.74 72.2334 11.74C72.9667 11.74 73.7067 11.8133 74.4534 11.96C75.2134 12.1067 75.8534 12.2867 76.3734 12.5V14.9C75.0267 14.4467 73.7734 14.22 72.6134 14.22C71.1734 14.22 70.0067 14.6333 69.1134 15.46C68.22 16.2867 67.7734 17.54 67.7734 19.22C67.7734 20.1267 67.9867 20.9333 68.4134 21.64C68.8534 22.3333 69.4334 22.84 70.1534 23.16C70.8867 23.48 71.6734 23.64 72.5134 23.64C73.0734 23.64 73.5667 23.62 73.9934 23.58V20.5H72.4134V18H76.7734V25.4ZM79.0354 12H82.3354V26H79.0354V12ZM88.1557 15.12H88.0357V26H84.7957V12H90.0557L93.3957 23.06H93.6557V12H96.8957V26H91.5157L88.1557 15.12ZM102.648 15.12H102.528V26H99.2879V12H104.548L107.888 23.06H108.148V12H111.388V26H106.008L102.648 15.12ZM113.78 12H123.62V14.72H117.08V17.72H122.76V20.26H117.08V23.28H123.62V26H113.78V12ZM131.901 12C133.314 12 134.427 12.3667 135.241 13.1C136.067 13.82 136.481 14.84 136.481 16.16C136.481 17.2533 136.194 18.1467 135.621 18.84C135.061 19.5333 134.267 19.98 133.241 20.18C134.014 21.0333 134.701 21.92 135.301 22.84C135.901 23.76 136.474 24.8133 137.021 26H133.981C133.354 24.7333 132.774 23.6867 132.241 22.86C131.707 22.0333 131.014 21.1867 130.161 20.32H128.721V26H125.421V12H131.901ZM131.661 18.02C132.341 18.02 132.867 17.84 133.241 17.48C133.614 17.12 133.801 16.68 133.801 16.16C133.801 15.6267 133.607 15.1867 133.221 14.84C132.847 14.48 132.327 14.3 131.661 14.3H128.721V18.02H131.661Z" fill="white"/>
</svg>

