<svg width="176" height="44" viewBox="0 0 176 44" fill="none" xmlns="http://www.w3.org/2000/svg">
<path d="M0.487807 8.25069C0.281393 7.95138 0.495644 7.54337 0.859221 7.54337H40.2285V44.0004H0.859222C0.495645 44.0004 0.281393 43.5924 0.487808 43.2931L11.5115 27.3088C12.1496 26.3835 12.1496 25.1603 11.5115 24.235L0.487807 8.25069Z" fill="#C0C0C0"/>
<path d="M40.2286 44.0012L18.8572 36.4584H40.2286V44.0012Z" fill="#9D9D9D"/>
<path d="M175.512 8.25069C175.719 7.95138 175.504 7.54337 175.141 7.54337H135.772V44.0004H175.141C175.504 44.0004 175.719 43.5924 175.512 43.2931L164.489 27.3088C163.85 26.3835 163.85 25.1603 164.489 24.235L175.512 8.25069Z" fill="#C0C0C0"/>
<path d="M135.771 44.0012L157.142 36.4584H135.771V44.0012Z" fill="#9D9D9D"/>
<path d="M18.8567 1.8047C18.8567 0.807993 19.6647 0 20.6614 0H155.337C156.334 0 157.142 0.807991 157.142 1.8047V36.4571H18.8567V1.8047Z" fill="#CDCDCD"/>
<path d="M65.96 27.82H49.04V10.2H65.96V27.82ZM63.44 25.34V12.68H51.56V25.34H63.44ZM51.98 18.92C53.26 18.6133 54.4067 18.22 55.42 17.74C54.9533 17.3267 54.52 16.88 54.12 16.4C53.5867 16.76 52.92 17.0733 52.12 17.34V15.2C53.0133 14.7467 53.68 14.1067 54.12 13.28H62.34C61.9667 14.9733 61.0467 16.46 59.58 17.74C60.5933 18.22 61.74 18.6133 63.02 18.92V21.2C60.9133 20.7067 59.0733 20.0267 57.5 19.16C57.0067 19.4267 56.48 19.68 55.92 19.92L60.44 20.62V22.5L54.96 21.66V20.32C54.0133 20.6533 53.02 20.9467 51.98 21.2V18.92ZM53.04 21.98L61.96 23.28V25.28L53.04 23.98V21.98ZM56 15.38C56.4267 15.9 56.9267 16.3333 57.5 16.68C58.06 16.3067 58.56 15.8733 59 15.38H56ZM69.26 16.64H82.56V15.56H70.86V13.42H82.56V12.36H69.26V10.2H85.2V18.78H69.26V16.64ZM68.5 25.78C70.8733 25.5267 72.7067 24.8933 74 23.88C75.3067 22.8533 76.1533 21.3 76.54 19.22H79.14C78.9533 20.4733 78.6267 21.5933 78.16 22.58L86.5 25.52V28.12L76.82 24.64C74.98 26.7467 72.2067 27.9067 68.5 28.12V25.78ZM72.48 19.94L73.74 23.18H71.04L69.78 19.94H72.48ZM82.52 19.94H85.22L83.96 23.18H81.26L82.52 19.94ZM105.78 14.84V28H103.22V25.3H99.34C99.1267 26.2067 98.8267 27.1067 98.44 28H95.46C96.18 26.7467 96.68 25.5267 96.96 24.34C97.24 23.14 97.38 21.7667 97.38 20.22V14.84H105.78ZM88.8 15.12H96.08V26.68L88.8 26.66V15.12ZM88.8 10.76H92.62V9.8H95.18V10.76H99.82V9.8H102.38V10.76H106.2V13.26H102.38V14.52H99.82V13.26H95.18V14.52H92.62V13.26H88.8V10.76ZM93.56 24.2V21.96H91.32V24.2H93.56ZM93.56 19.58V17.6L91.32 17.58V19.56L93.56 19.58ZM103.22 23V21.32H99.92C99.9067 21.72 99.86 22.28 99.78 23H103.22ZM103.22 18.98V17.36H99.94V18.98H103.22ZM117.3 28C117.5 27.4667 117.613 27.16 117.64 27.08H115.7C115.66 25.4267 115.347 23.78 114.76 22.14H116.92C117.36 23.4467 117.633 24.9867 117.74 26.76C118.06 25.76 118.28 24.7467 118.4 23.72C118.533 22.6933 118.6 21.5333 118.6 20.24V10.4C121.307 10.4 123.88 10.2267 126.32 9.88V12.44C124.787 12.6667 123.053 12.8267 121.12 12.92V15.3H126.7V17.86H125.3V28H122.78V17.86H121.12V20.24C121.12 21.6533 121.033 22.9933 120.86 24.26C120.687 25.5133 120.413 26.76 120.04 28H117.3ZM108.12 27.76C108.787 25.92 109.147 24.0467 109.2 22.14H111.3C111.207 24.3 110.893 26.1733 110.36 27.76H108.12ZM108.38 15.64H110.12L109.7 13.24H108.74V11H111.78V10H114.34V11H117.58V13.24H116.64L116.22 15.64H117.94V17.88H114.44V19.24H117.7V21.48H114.38V28H111.94V21.48H108.62V19.24H111.88V17.88H108.38V15.64ZM112.4 15.64H113.94L114.36 13.24H111.98L112.4 15.64Z" fill="white"/>
</svg>

