<svg width="32" height="32" viewBox="0 0 32 32" fill="none" xmlns="http://www.w3.org/2000/svg">
<path opacity="0.1" d="M32 16C32 24.8366 24.8366 32 16 32C7.16344 32 0 24.8366 0 16C0 7.16344 7.16344 0 16 0C24.8366 0 32 7.16344 32 16Z" fill="#A5ADAB"/>
<path d="M11.1515 11.1515C11.6201 10.6828 12.3799 10.6828 12.8486 11.1515L16.0001 14.3029L19.1515 11.1515C19.6201 10.6829 20.3799 10.6829 20.8486 11.1515C21.3172 11.6201 21.3172 12.3799 20.8486 12.8485L17.6971 16L20.8485 19.1514C21.3172 19.6201 21.3172 20.3799 20.8485 20.8485C20.3799 21.3171 19.6201 21.3171 19.1515 20.8485L16.0001 17.6971L12.8486 20.8485C12.38 21.3171 11.6202 21.3171 11.1516 20.8485C10.6829 20.3799 10.6829 19.6201 11.1516 19.1515L14.303 16L11.1515 12.8485C10.6829 12.3799 10.6829 11.6201 11.1515 11.1515Z" fill="#A5ADAB"/>
</svg>
