<svg width="217" height="88" viewBox="0 0 217 88" fill="none" xmlns="http://www.w3.org/2000/svg">
<g filter="url(#filter0_i_366_1361)">
<rect width="217" height="88" rx="32" fill="#F5F0F0"/>
</g>
<path d="M72.4334 49.416C70.0014 49.416 67.836 48.968 65.9374 48.072C64.06 47.176 62.5774 45.8747 61.4894 44.168C60.4227 42.4613 59.8894 40.4347 59.8894 38.088C59.8894 35.6133 60.412 33.4907 61.4574 31.72C62.5027 29.928 63.964 28.5627 65.8414 27.624C67.7187 26.664 69.8627 26.184 72.2734 26.184C73.468 26.184 74.6734 26.3013 75.8894 26.536C77.1054 26.7707 78.108 27.0693 78.8974 27.432V31.4C76.7427 30.6107 74.7374 30.216 72.8814 30.216C70.6627 30.216 68.86 30.8667 67.4734 32.168C66.108 33.4693 65.4254 35.4427 65.4254 38.088C65.4254 39.496 65.7667 40.744 66.4494 41.832C67.132 42.8987 68.028 43.7307 69.1374 44.328C70.2467 44.9253 71.4414 45.2667 72.7214 45.352L73.4254 45.384C74.4067 45.384 75.3774 45.2453 76.3374 44.968C77.2974 44.6907 78.1507 44.3173 78.8974 43.848V48.264C77.98 48.6907 76.9987 48.9893 75.9534 49.16C74.9294 49.3307 73.756 49.416 72.4334 49.416ZM87.6844 26.6V44.68H96.7404V49H82.4044V26.6H87.6844ZM109.907 49.416C107.56 49.416 105.534 48.9787 103.827 48.104C102.12 47.208 100.798 45.9067 99.8591 44.2C98.9418 42.4933 98.4831 40.4453 98.4831 38.056C98.4831 35.624 98.9418 33.512 99.8591 31.72C100.798 29.928 102.12 28.5627 103.827 27.624C105.555 26.664 107.582 26.184 109.907 26.184C112.232 26.184 114.248 26.664 115.955 27.624C117.662 28.5627 118.974 29.928 119.891 31.72C120.83 33.512 121.299 35.624 121.299 38.056C121.299 40.4667 120.83 42.5253 119.891 44.232C118.974 45.9173 117.672 47.208 115.987 48.104C114.302 48.9787 112.275 49.416 109.907 49.416ZM104.083 38.056C104.083 40.36 104.595 42.184 105.619 43.528C106.643 44.8507 108.072 45.512 109.907 45.512C111.72 45.512 113.139 44.8507 114.163 43.528C115.187 42.184 115.699 40.36 115.699 38.056C115.699 36.5413 115.475 35.1867 115.027 33.992C114.579 32.7973 113.907 31.8587 113.011 31.176C112.136 30.4933 111.102 30.152 109.907 30.152C108.712 30.152 107.678 30.4933 106.803 31.176C105.928 31.8587 105.256 32.7973 104.787 33.992C104.318 35.1867 104.083 36.5413 104.083 38.056ZM132.562 49.384C132.327 49.4053 131.965 49.416 131.474 49.416C128.594 49.416 126.034 48.7973 123.794 47.56V42.856C124.967 43.5813 126.258 44.1893 127.666 44.68C129.074 45.1707 130.354 45.416 131.506 45.416C132.445 45.416 133.181 45.1813 133.714 44.712C134.269 44.2427 134.546 43.7093 134.546 43.112C134.546 42.28 134.226 41.5227 133.586 40.84C132.946 40.136 131.922 39.5707 130.514 39.144C128.893 38.632 127.623 38.12 126.706 37.608C125.81 37.0747 125.127 36.4133 124.658 35.624C124.21 34.8347 123.986 33.832 123.986 32.616C123.986 31.464 124.263 30.4187 124.818 29.48C125.373 28.52 126.183 27.752 127.25 27.176C128.338 26.6 129.629 26.28 131.122 26.216C131.314 26.1947 131.613 26.184 132.018 26.184C133.127 26.184 134.237 26.3013 135.346 26.536C136.477 26.7493 137.426 27.0267 138.194 27.368V31.496C137.362 31.1333 136.391 30.8347 135.282 30.6C134.173 30.3653 133.191 30.248 132.338 30.248C131.25 30.248 130.418 30.44 129.842 30.824C129.266 31.208 128.978 31.7413 128.978 32.424C128.978 33.0427 129.287 33.5973 129.906 34.088C130.525 34.5787 131.485 35.048 132.786 35.496C134.343 35.944 135.613 36.456 136.594 37.032C137.575 37.5867 138.343 38.3227 138.898 39.24C139.453 40.136 139.73 41.2667 139.73 42.632C139.73 43.9333 139.431 45.0853 138.834 46.088C138.237 47.0907 137.394 47.88 136.306 48.456C135.239 49.0107 133.991 49.32 132.562 49.384ZM142.686 26.6H158.43V30.952H147.966V35.752H157.054V39.816H147.966V44.648H158.43V49H142.686V26.6Z" fill="#737373"/>
<defs>
<filter id="filter0_i_366_1361" x="0" y="0" width="217" height="88" filterUnits="userSpaceOnUse" color-interpolation-filters="sRGB">
<feFlood flood-opacity="0" result="BackgroundImageFix"/>
<feBlend mode="normal" in="SourceGraphic" in2="BackgroundImageFix" result="shape"/>
<feColorMatrix in="SourceAlpha" type="matrix" values="0 0 0 0 0 0 0 0 0 0 0 0 0 0 0 0 0 0 127 0" result="hardAlpha"/>
<feOffset dy="-14"/>
<feComposite in2="hardAlpha" operator="arithmetic" k2="-1" k3="1"/>
<feColorMatrix type="matrix" values="0 0 0 0 0 0 0 0 0 0 0 0 0 0 0 0 0 0 0.11 0"/>
<feBlend mode="normal" in2="shape" result="effect1_innerShadow_366_1361"/>
</filter>
</defs>
</svg>
