<svg width="14" height="14" viewBox="0 0 14 14" fill="none" xmlns="http://www.w3.org/2000/svg">
<mask id="mask0_719_3096" style="mask-type:luminance" maskUnits="userSpaceOnUse" x="0" y="0" width="14" height="14">
<path fill-rule="evenodd" clip-rule="evenodd" d="M0 0H14V13.827H0V0Z" fill="white"/>
</mask>
<g mask="url(#mask0_719_3096)">
<path fill-rule="evenodd" clip-rule="evenodd" d="M0 6.9135C0 3.09534 3.13403 0 6.99992 0C10.866 0 14 3.09534 14 6.9135C14 10.7317 10.866 13.827 6.99992 13.827C3.13403 13.827 0 10.7317 0 6.9135Z" fill="#FFD715"/>
</g>
<path fill-rule="evenodd" clip-rule="evenodd" d="M1.05957 6.91344C1.05957 3.67295 3.71928 1.0459 7.00028 1.0459C10.2815 1.0459 12.9412 3.67295 12.9412 6.91344C12.9412 10.1539 10.2815 12.781 7.00028 12.781C3.71928 12.781 1.05957 10.1539 1.05957 6.91344Z" fill="#FFCC01"/>
<path fill-rule="evenodd" clip-rule="evenodd" d="M10.1085 1.90527C10.7 2.81754 11.043 3.90204 11.043 5.06572C11.043 8.30621 8.38332 10.9331 5.10215 10.9331C3.96277 10.9331 2.89829 10.616 1.99414 10.0667C3.05001 11.6946 4.89752 12.7738 7.00029 12.7738C10.2813 12.7738 12.941 10.1467 12.941 6.90622C12.941 4.79104 11.8078 2.93769 10.1085 1.90527Z" fill="#FCBD11"/>
<path fill-rule="evenodd" clip-rule="evenodd" d="M2.09975 7.45052C2.09975 4.58993 4.44759 2.27108 7.34394 2.27108C9.03691 2.27108 10.5421 3.06353 11.501 4.29319C10.5954 2.74058 8.89821 1.69531 6.95366 1.69531C4.05731 1.69531 1.70947 4.01417 1.70947 6.87475C1.70947 8.06309 2.11505 9.15801 2.79663 10.0321C2.35326 9.27209 2.09975 8.39056 2.09975 7.45052Z" fill="#FFDB53"/>
</svg>
