<svg width="80" height="80" viewBox="0 0 80 80" fill="none" xmlns="http://www.w3.org/2000/svg">
<g filter="url(#filter0_d_464_1301)">
<circle cx="40" cy="36" r="32" fill="url(#paint0_linear_464_1301)"/>
</g>
<g filter="url(#filter1_d_464_1301)">
<path d="M54.2827 23.1161L51.5917 21.2793C50.8475 20.7783 49.8294 20.9692 49.3293 21.7087L36.1362 41.1977L30.0754 35.1268C29.4444 34.4887 28.4084 34.4887 27.7773 35.1268L25.4733 37.4347C24.8422 38.0668 24.8422 39.0985 25.4733 39.7426L34.7966 49.0816C35.3146 49.6004 36.1362 50 36.8744 50C37.6186 50 38.3628 49.5348 38.8391 48.8371L54.7173 25.3763C55.2234 24.6368 55.0329 23.617 54.2827 23.1161Z" fill="#F5F5F5"/>
</g>
<defs>
<filter id="filter0_d_464_1301" x="0.5" y="0.5" width="79" height="79" filterUnits="userSpaceOnUse" color-interpolation-filters="sRGB">
<feFlood flood-opacity="0" result="BackgroundImageFix"/>
<feColorMatrix in="SourceAlpha" type="matrix" values="0 0 0 0 0 0 0 0 0 0 0 0 0 0 0 0 0 0 127 0" result="hardAlpha"/>
<feOffset dy="4"/>
<feGaussianBlur stdDeviation="3.75"/>
<feComposite in2="hardAlpha" operator="out"/>
<feColorMatrix type="matrix" values="0 0 0 0 0.137255 0 0 0 0 0.776471 0 0 0 0 0.556863 0 0 0 0.17 0"/>
<feBlend mode="normal" in2="BackgroundImageFix" result="effect1_dropShadow_464_1301"/>
<feBlend mode="normal" in="SourceGraphic" in2="effect1_dropShadow_464_1301" result="shape"/>
</filter>
<filter id="filter1_d_464_1301" x="18" y="18" width="44" height="43" filterUnits="userSpaceOnUse" color-interpolation-filters="sRGB">
<feFlood flood-opacity="0" result="BackgroundImageFix"/>
<feColorMatrix in="SourceAlpha" type="matrix" values="0 0 0 0 0 0 0 0 0 0 0 0 0 0 0 0 0 0 127 0" result="hardAlpha"/>
<feOffset dy="4"/>
<feGaussianBlur stdDeviation="3.5"/>
<feComposite in2="hardAlpha" operator="out"/>
<feColorMatrix type="matrix" values="0 0 0 0 0 0 0 0 0 0 0 0 0 0 0 0 0 0 0.1 0"/>
<feBlend mode="normal" in2="BackgroundImageFix" result="effect1_dropShadow_464_1301"/>
<feBlend mode="normal" in="SourceGraphic" in2="effect1_dropShadow_464_1301" result="shape"/>
</filter>
<linearGradient id="paint0_linear_464_1301" x1="16" y1="15" x2="61.5" y2="56" gradientUnits="userSpaceOnUse">
<stop stop-color="#16BD85"/>
<stop offset="1" stop-color="#2ECE95"/>
</linearGradient>
</defs>
</svg>
