<svg width="176" height="44" viewBox="0 0 176 44" fill="none" xmlns="http://www.w3.org/2000/svg">
<path d="M0.487807 8.25069C0.281393 7.95138 0.495644 7.54337 0.859221 7.54337H40.2285V44.0004H0.859222C0.495645 44.0004 0.281393 43.5924 0.487808 43.2931L11.5115 27.3088C12.1496 26.3835 12.1496 25.1603 11.5115 24.235L0.487807 8.25069Z" fill="#5D91D0"/>
<path d="M40.2286 44.0012L18.8572 36.4584H40.2286V44.0012Z" fill="#4C7AB2"/>
<path d="M175.512 8.25069C175.719 7.95138 175.504 7.54337 175.141 7.54337H135.772V44.0004H175.141C175.504 44.0004 175.719 43.5924 175.512 43.2931L164.489 27.3088C163.85 26.3835 163.85 25.1603 164.489 24.235L175.512 8.25069Z" fill="#5D91D0"/>
<path d="M135.771 44.0012L157.142 36.4584H135.771V44.0012Z" fill="#4C7AB2"/>
<path d="M18.8567 1.8047C18.8567 0.807993 19.6647 0 20.6614 0H155.337C156.334 0 157.142 0.807991 157.142 1.8047V36.4571H18.8567V1.8047Z" fill="#6CA4E8"/>
<path d="M36.7762 12H46.6162V14.72H40.0762V17.72H45.7562V20.26H40.0762V23.28H46.6162V26H36.7762V12ZM54.5568 21.54H54.4768L51.4368 26H47.6168L52.4968 19.06L47.5168 12H51.2968L54.4768 16.58H54.5568L57.7368 12H61.5168L56.5568 19.06L61.4368 26H57.5968L54.5568 21.54ZM69.7262 12C71.1928 12 72.3462 12.3933 73.1862 13.18C74.0395 13.9667 74.4662 15.0867 74.4662 16.54C74.4662 17.98 74.0395 19.0933 73.1862 19.88C72.3462 20.6667 71.1928 21.06 69.7262 21.06H66.3262V26H63.0262V12H69.7262ZM69.4262 18.42C70.0928 18.42 70.6062 18.24 70.9662 17.88C71.3262 17.52 71.5062 17.0733 71.5062 16.54C71.5062 15.9933 71.3262 15.54 70.9662 15.18C70.6062 14.82 70.0928 14.64 69.4262 14.64H66.3262V18.42H69.4262ZM79.5684 12V23.3H85.2284V26H76.2684V12H79.5684ZM93.4576 26.26C91.9909 26.26 90.7242 25.9867 89.6576 25.44C88.5909 24.88 87.7642 24.0667 87.1776 23C86.6042 21.9333 86.3176 20.6533 86.3176 19.16C86.3176 17.64 86.6042 16.32 87.1776 15.2C87.7642 14.08 88.5909 13.2267 89.6576 12.64C90.7376 12.04 92.0042 11.74 93.4576 11.74C94.9109 11.74 96.1709 12.04 97.2376 12.64C98.3042 13.2267 99.1242 14.08 99.6976 15.2C100.284 16.32 100.578 17.64 100.578 19.16C100.578 20.6667 100.284 21.9533 99.6976 23.02C99.1242 24.0733 98.3109 24.88 97.2576 25.44C96.2042 25.9867 94.9376 26.26 93.4576 26.26ZM89.8176 19.16C89.8176 20.6 90.1376 21.74 90.7776 22.58C91.4176 23.4067 92.3109 23.82 93.4576 23.82C94.5909 23.82 95.4776 23.4067 96.1176 22.58C96.7576 21.74 97.0776 20.6 97.0776 19.16C97.0776 18.2133 96.9376 17.3667 96.6576 16.62C96.3776 15.8733 95.9576 15.2867 95.3976 14.86C94.8509 14.4333 94.2042 14.22 93.4576 14.22C92.7109 14.22 92.0642 14.4333 91.5176 14.86C90.9709 15.2867 90.5509 15.8733 90.2576 16.62C89.9642 17.3667 89.8176 18.2133 89.8176 19.16ZM109.057 12C110.47 12 111.584 12.3667 112.397 13.1C113.224 13.82 113.637 14.84 113.637 16.16C113.637 17.2533 113.35 18.1467 112.777 18.84C112.217 19.5333 111.424 19.98 110.397 20.18C111.17 21.0333 111.857 21.92 112.457 22.84C113.057 23.76 113.63 24.8133 114.177 26H111.137C110.51 24.7333 109.93 23.6867 109.397 22.86C108.864 22.0333 108.17 21.1867 107.317 20.32H105.877V26H102.577V12H109.057ZM108.817 18.02C109.497 18.02 110.024 17.84 110.397 17.48C110.77 17.12 110.957 16.68 110.957 16.16C110.957 15.6267 110.764 15.1867 110.377 14.84C110.004 14.48 109.484 14.3 108.817 14.3H105.877V18.02H108.817ZM115.78 12H125.62V14.72H119.08V17.72H124.76V20.26H119.08V23.28H125.62V26H115.78V12ZM133.901 12C135.314 12 136.427 12.3667 137.241 13.1C138.067 13.82 138.481 14.84 138.481 16.16C138.481 17.2533 138.194 18.1467 137.621 18.84C137.061 19.5333 136.267 19.98 135.241 20.18C136.014 21.0333 136.701 21.92 137.301 22.84C137.901 23.76 138.474 24.8133 139.021 26H135.981C135.354 24.7333 134.774 23.6867 134.241 22.86C133.707 22.0333 133.014 21.1867 132.161 20.32H130.721V26H127.421V12H133.901ZM133.661 18.02C134.341 18.02 134.867 17.84 135.241 17.48C135.614 17.12 135.801 16.68 135.801 16.16C135.801 15.6267 135.607 15.1867 135.221 14.84C134.847 14.48 134.327 14.3 133.661 14.3H130.721V18.02H133.661Z" fill="white"/>
</svg>
