<svg width="176" height="44" viewBox="0 0 176 44" fill="none" xmlns="http://www.w3.org/2000/svg">
<path d="M0.487807 8.25069C0.281393 7.95138 0.495644 7.54337 0.859221 7.54337H40.2285V44.0004H0.859222C0.495645 44.0004 0.281393 43.5924 0.487808 43.2931L11.5115 27.3088C12.1496 26.3835 12.1496 25.1603 11.5115 24.235L0.487807 8.25069Z" fill="#5D91D0"/>
<path d="M40.2286 44.0012L18.8572 36.4584H40.2286V44.0012Z" fill="#4C7AB2"/>
<path d="M175.512 8.25069C175.719 7.95138 175.504 7.54337 175.141 7.54337H135.772V44.0004H175.141C175.504 44.0004 175.719 43.5924 175.512 43.2931L164.489 27.3088C163.85 26.3835 163.85 25.1603 164.489 24.235L175.512 8.25069Z" fill="#5D91D0"/>
<path d="M135.771 44.0012L157.142 36.4584H135.771V44.0012Z" fill="#4C7AB2"/>
<path d="M18.8567 1.8047C18.8567 0.807993 19.6647 0 20.6614 0H155.337C156.334 0 157.142 0.807991 157.142 1.8047V36.4571H18.8567V1.8047Z" fill="#6CA4E8"/>
<path d="M38.3 25.1H43.8V9.8H46.36V25.1H48.64V9.8H51.2V25.1H56.7V27.68H38.3V25.1ZM41.28 11.68L42.88 22.38H40.28L38.68 11.68H41.28ZM53.72 11.68H56.32L54.72 22.38H52.12L53.72 11.68ZM76.7 18.12C75.0733 17.6133 73.5933 16.8267 72.26 15.76V17.34H69.02V18.92H76.24V21.48H69.02V28H64.4V25.48H66.42V21.48H58.76V18.92H66.42V17.34H62.74V15.76C61.4067 16.8267 59.9267 17.6133 58.3 18.12V15.42C59.6467 14.8067 60.7867 14.0533 61.72 13.16C62.6533 12.2533 63.42 11.2 64.02 10H70.98C71.58 11.2 72.3467 12.2533 73.28 13.16C74.2133 14.0533 75.3533 14.8067 76.7 15.42V18.12ZM58.5 25.38C60.0733 24.58 61.24 23.4467 62 21.98H64.64C63.4933 24.7533 61.4467 26.7933 58.5 28.1V25.38ZM71.24 14.86C70.4667 14.1 69.8467 13.3067 69.38 12.48H65.62C65.1533 13.3067 64.5333 14.1 63.76 14.86H71.24ZM73 21.98C73.76 23.4467 74.9267 24.58 76.5 25.38V28.1C73.5533 26.7933 71.5067 24.7533 70.36 21.98H73ZM79.02 25.62H80.56V21.6L78.48 22.12V19.42L80.56 18.9V15.16H78.68V12.72H80.56V9.94H83.04V12.72H84.64V15.16H83.04V18.3L84.84 17.86V20.56L83.04 21V27.96H79.02V25.62ZM84.5 27.96C85.7133 25.6133 86.4133 23.3067 86.6 21.04H85.18V18.66H89.48V17.04H91.84V18.66H96.14V21.04H94.68C94.76 23.28 95.4733 25.5867 96.82 27.96H94.04C93.16 25.96 92.5933 23.6533 92.34 21.04H91.84V28.16H89.48V21.04H88.98C88.7667 23.6533 88.2 25.96 87.28 27.96H84.5ZM85.52 15.48C86.3467 15.3333 87.1133 15.1067 87.82 14.8C88.54 14.4933 89.3 14.08 90.1 13.56V16C89.4467 16.4533 88.76 16.8267 88.04 17.12C87.3333 17.4 86.4933 17.6133 85.52 17.76V15.48ZM85.52 10.32H95.8V14.24H93.32V12.7H88V14.24H85.52V10.32ZM91.22 13.54C92.18 14.1133 92.98 14.5467 93.62 14.84C94.2733 15.12 95 15.3333 95.8 15.48V17.76C94.88 17.6133 94.0933 17.4067 93.44 17.14C92.7867 16.8733 92.0467 16.4933 91.22 16V13.54ZM98.4 13.52H106.18V12.64H99.5V10.36H106.18V9.6H108.82V10.36H115.5V12.64H108.82V13.52H116.6V17.2H114V15.78H101V17.2H98.4V13.52ZM98.46 28C99.5 26.7067 100.28 25.44 100.8 24.2H103.58C103.087 25.4667 102.387 26.7333 101.48 28H98.46ZM99.06 21.4H104.3L105.24 20.72L100.04 19.82V17.4L102.94 17.94L105.16 16.36H109L105.9 18.48L108.1 18.9L109.78 17.7H113.9L108.74 21.4H112.8L112 19.6H114.7L116.56 23.8H108.8V28H106.2V23.8H99.06V21.4ZM114.2 24.2C114.72 25.44 115.5 26.7067 116.54 28H113.52C112.613 26.7333 111.913 25.4667 111.42 24.2H114.2ZM124.14 22.34H132.74V21.22H124.14V22.34ZM118.1 23.08C119.553 21.28 120.62 19.5267 121.3 17.82H118.5V15.38H126.06V13.9H120.22V11.42H126.06V9.8H128.66V11.42H132.18V13.6L133.48 10.5H136.18L134.14 15.38H136.5V17.82H124.1C123.913 18.3267 123.76 18.7067 123.64 18.96H135.3V27.88H121.58V22.72L121.34 23.08H118.1ZM132.74 25.64V24.5H124.14V25.64H132.74ZM131.44 15.38L132.06 13.9H128.66V15.38H131.44Z" fill="white"/>
</svg>
