<svg width="176" height="44" viewBox="0 0 176 44" fill="none" xmlns="http://www.w3.org/2000/svg">
<path d="M0.487808 8.25047C0.281394 7.95117 0.495644 7.54315 0.859221 7.54315H40.2273V43.9992H0.859224C0.495647 43.9992 0.281393 43.5912 0.487808 43.2919L11.5111 27.3081C12.1492 26.3828 12.1492 25.1595 11.5111 24.2343L0.487808 8.25047Z" fill="#9445F1"/>
<path d="M40.2275 44L18.8567 36.4574H40.2275V44Z" fill="#8033D9"/>
<path d="M175.507 8.25047C175.714 7.95117 175.499 7.54315 175.136 7.54315H135.768V43.9992H175.136C175.499 43.9992 175.714 43.5912 175.507 43.2919L164.484 27.3081C163.846 26.3828 163.846 25.1595 164.484 24.2343L175.507 8.25047Z" fill="#9445F1"/>
<path d="M135.767 44L157.138 36.4574H135.767V44Z" fill="#8033D9"/>
<path d="M18.8562 1.8047C18.8562 0.807989 19.6642 0 20.6609 0H155.333C156.33 0 157.138 0.807991 157.138 1.8047V36.456H18.8562V1.8047Z" fill="#A95EFF"/>
<path d="M40.9932 18.34H45.8732V16.2C48.2199 15.52 49.6066 14.3533 50.0332 12.7H52.5132C52.4332 13.1533 52.2999 13.6133 52.1132 14.08L56.9132 16.1V18.74L50.7532 16.16C49.7932 17.1467 48.4466 17.8733 46.7132 18.34H55.5132V23.98H52.9332V20.54H43.5732V23.98H40.9932V18.34ZM39.2532 25.72C43.5866 25.3867 46.3266 23.8 47.4732 20.96H50.2532C49.9732 21.8267 49.5932 22.62 49.1132 23.34L57.2532 25.72V28.2L47.3332 25.32C46.3599 26.1333 45.1932 26.78 43.8332 27.26C42.4866 27.74 40.9599 28.0267 39.2532 28.12V25.72ZM39.2532 15.8L44.2732 14.56V17.08L39.2532 18.34V15.8ZM39.6532 10L44.2732 11.12V13.64L39.6532 12.5V10ZM45.2132 14.06C45.5732 13.3667 45.8532 12.7267 46.0532 12.14C46.2666 11.54 46.4332 10.8867 46.5532 10.18H56.9132V13.94H54.4332V12.28H48.6532C48.4666 12.8933 48.2599 13.4867 48.0332 14.06H45.2132ZM64.6332 10.28H76.9132V14.28H74.3132V12.74H67.2332V14.28H64.6332V10.28ZM59.0732 28C60.2066 25.2133 60.9666 22.3733 61.3532 19.48H63.9732C63.5599 22.8 62.8799 25.64 61.9332 28H59.0732ZM59.2532 14.76L64.0332 15.94V18.56L59.2532 17.42V14.76ZM59.6532 10L63.9932 11.12V13.78L59.6532 12.66V10ZM64.0332 27.8C64.4599 26.9333 64.8266 25.88 65.1332 24.64C65.4399 23.3867 65.6466 22.2 65.7532 21.08H64.4332V18.62H69.4732V17H72.0332V18.62H77.3532V21.08H75.7532C75.8599 22.2 76.0666 23.3867 76.3732 24.64C76.6799 25.88 77.0466 26.9333 77.4732 27.8H74.7732C74.4132 27 74.1132 25.98 73.8732 24.74C73.6332 23.4867 73.4666 22.2667 73.3732 21.08H71.9932V28H69.5132V21.08H68.1332C68.0399 22.2667 67.8732 23.4867 67.6332 24.74C67.3932 25.98 67.0932 27 66.7332 27.8H64.0332ZM64.4932 15.44C66.2799 15.1467 68.0466 14.4867 69.7932 13.46V16.02C68.3532 16.8733 66.5866 17.4733 64.4932 17.82V15.44ZM71.7132 13.46C73.4599 14.4867 75.2266 15.1467 77.0132 15.44V17.82C74.9199 17.4733 73.1532 16.8733 71.7132 16.02V13.46ZM97.4532 22.02C95.5866 21.66 93.9266 21.0733 92.4732 20.26V20.94H89.5332V21.86H95.4732V24H94.2132L93.7932 25.42H97.0732V27.8H79.4332V25.42H82.7132L82.2932 24H81.0332V21.86H86.9732V20.94H84.0332V20.26C82.5799 21.0733 80.9199 21.66 79.0532 22.02V19.38C80.2932 19.0733 81.3932 18.68 82.3532 18.2C83.3132 17.7067 84.1732 17.1067 84.9332 16.4H83.5732V9.8H86.1532V15.48H86.9132V12.94C88.2466 12.2467 89.1732 11.3 89.6932 10.1H96.8932V12.62H91.1332C90.1866 14.0333 88.8532 14.9867 87.1332 15.48H90.6732C91.5132 16.44 92.4799 17.24 93.5732 17.88C94.6666 18.52 95.9599 19.02 97.4532 19.38V22.02ZM79.6532 10.28H82.1532V15.74H79.6532V10.28ZM85.0332 25.42H86.9732V24H84.6132L85.0332 25.42ZM90.5732 19C90.1599 18.68 89.7399 18.2933 89.3132 17.84H87.1932C86.7666 18.2933 86.3466 18.68 85.9332 19H90.5732ZM91.4732 25.42L91.8932 24H89.5332V25.42H91.4732ZM94.6132 13.28L95.8132 16.74H93.2932L92.0932 13.28H94.6132ZM116.893 10V28H111.713V25.42H114.393V10H116.893ZM98.9332 28C100.307 26 101.273 24.0133 101.833 22.04H99.2332V19.56H102.313C102.393 18.92 102.433 18.2733 102.433 17.62H99.6332V10.2H108.913V17.62H104.933C104.933 18.06 104.907 18.7067 104.853 19.56H109.413V28H105.333V25.52H106.873V22.04H104.473C104.047 24.0667 103.22 26.0533 101.993 28H98.9332ZM106.373 15.16V12.66H102.173V15.16H106.373ZM110.353 11.1H112.813V23.54H110.353V11.1ZM126.453 14.66H130.373V12.84H125.993V10.28H137.373V12.84H132.933V14.66H136.893V26.08H134.453V17.22H132.913V28H130.393V17.22H128.893V26.08H126.453V14.66ZM119.353 11.72H121.693V22.9H119.353V11.72ZM120.553 28C121.34 26.4133 121.913 24.86 122.273 23.34C122.647 21.82 122.833 20.18 122.833 18.42V10H125.313V18.42C125.313 20.22 125.16 21.88 124.853 23.4C124.56 24.92 124.08 26.4533 123.413 28H120.553Z" fill="white"/>
</svg>
