<svg width="176" height="44" viewBox="0 0 176 44" fill="none" xmlns="http://www.w3.org/2000/svg">
<path d="M0.487808 8.25047C0.281394 7.95117 0.495644 7.54315 0.859221 7.54315H40.2273V43.9992H0.859224C0.495647 43.9992 0.281393 43.5912 0.487808 43.2919L11.5111 27.3081C12.1492 26.3828 12.1492 25.1595 11.5111 24.2343L0.487808 8.25047Z" fill="#9445F1"/>
<path d="M40.2275 44L18.8567 36.4574H40.2275V44Z" fill="#8033D9"/>
<path d="M175.507 8.25047C175.714 7.95117 175.499 7.54315 175.136 7.54315H135.768V43.9992H175.136C175.499 43.9992 175.714 43.5912 175.507 43.2919L164.484 27.3081C163.846 26.3828 163.846 25.1595 164.484 24.2343L175.507 8.25047Z" fill="#9445F1"/>
<path d="M135.767 44L157.138 36.4574H135.767V44Z" fill="#8033D9"/>
<path d="M18.8562 1.8047C18.8562 0.807989 19.6642 0 20.6609 0H155.333C156.33 0 157.138 0.807991 157.138 1.8047V36.456H18.8562V1.8047Z" fill="#A95EFF"/>
<path d="M37.1304 12H40.4304V26H37.1304V12ZM42.8907 12H48.2107C50.4107 12 52.0841 12.62 53.2307 13.86C54.3774 15.1 54.9507 16.82 54.9507 19.02C54.9507 21.3 54.3774 23.0333 53.2307 24.22C52.0841 25.4067 50.3841 26 48.1307 26H42.8907V12ZM48.2507 23.52C48.8107 23.52 49.3441 23.34 49.8507 22.98C50.3574 22.62 50.7641 22.1 51.0707 21.42C51.3907 20.74 51.5507 19.9467 51.5507 19.04C51.5507 18.1733 51.3974 17.4 51.0907 16.72C50.7974 16.0267 50.3974 15.48 49.8907 15.08C49.3841 14.68 48.8374 14.48 48.2507 14.48H46.1907V23.52H48.2507ZM56.9532 12H66.7932V14.72H60.2532V17.72H65.9332V20.26H60.2532V23.28H66.7932V26H56.9532V12ZM71.9539 15.12H71.8339V26H68.5939V12H73.8539L77.1939 23.06H77.4539V12H80.6939V26H75.3139L71.9539 15.12ZM82.226 12H92.746V14.7H89.146V26H85.826V14.7H82.226V12ZM94.3375 12H97.6375V26H94.3375V12ZM100.098 12H109.378V14.7H103.398V17.74H108.558V20.26H103.398V26H100.098V12ZM111.232 12H114.532V26H111.232V12ZM116.992 12H126.832V14.72H120.292V17.72H125.972V20.26H120.292V23.28H126.832V26H116.992V12ZM135.113 12C136.526 12 137.64 12.3667 138.453 13.1C139.28 13.82 139.693 14.84 139.693 16.16C139.693 17.2533 139.406 18.1467 138.833 18.84C138.273 19.5333 137.48 19.98 136.453 20.18C137.226 21.0333 137.913 21.92 138.513 22.84C139.113 23.76 139.686 24.8133 140.233 26H137.193C136.566 24.7333 135.986 23.6867 135.453 22.86C134.92 22.0333 134.226 21.1867 133.373 20.32H131.933V26H128.633V12H135.113ZM134.873 18.02C135.553 18.02 136.08 17.84 136.453 17.48C136.826 17.12 137.013 16.68 137.013 16.16C137.013 15.6267 136.82 15.1867 136.433 14.84C136.06 14.48 135.54 14.3 134.873 14.3H131.933V18.02H134.873Z" fill="white"/>
</svg>
