<svg width="176" height="44" viewBox="0 0 176 44" fill="none" xmlns="http://www.w3.org/2000/svg">
<path d="M0.487808 8.25047C0.281394 7.95117 0.495644 7.54315 0.859221 7.54315H40.2273V43.9992H0.859224C0.495647 43.9992 0.281393 43.5912 0.487808 43.2919L11.5111 27.3081C12.1492 26.3828 12.1492 25.1595 11.5111 24.2343L0.487808 8.25047Z" fill="#FF8239"/>
<path d="M40.2275 44L18.8567 36.4574H40.2275V44Z" fill="#F26F28"/>
<path d="M175.507 8.25047C175.714 7.95117 175.499 7.54315 175.136 7.54315H135.768V43.9992H175.136C175.499 43.9992 175.714 43.5912 175.507 43.2919L164.484 27.3081C163.846 26.3828 163.846 25.1595 164.484 24.2343L175.507 8.25047Z" fill="#FF8239"/>
<path d="M135.767 44L157.138 36.4574H135.767V44Z" fill="#F26F28"/>
<path d="M18.8562 1.8047C18.8562 0.807989 19.6642 0 20.6609 0H155.333C156.33 0 157.138 0.807991 157.138 1.8047V36.456H18.8562V1.8047Z" fill="#FF9022"/>
<path d="M66.7132 27.82H49.7932V10.2H66.7132V27.82ZM64.1932 25.34V12.68H52.3132V25.34H64.1932ZM52.7332 18.92C54.0132 18.6133 55.1599 18.22 56.1732 17.74C55.7066 17.3267 55.2732 16.88 54.8732 16.4C54.3399 16.76 53.6732 17.0733 52.8732 17.34V15.2C53.7666 14.7467 54.4332 14.1067 54.8732 13.28H63.0932C62.7199 14.9733 61.7999 16.46 60.3332 17.74C61.3466 18.22 62.4932 18.6133 63.7732 18.92V21.2C61.6666 20.7067 59.8266 20.0267 58.2532 19.16C57.7599 19.4267 57.2332 19.68 56.6732 19.92L61.1932 20.62V22.5L55.7132 21.66V20.32C54.7666 20.6533 53.7732 20.9467 52.7332 21.2V18.92ZM53.7932 21.98L62.7132 23.28V25.28L53.7932 23.98V21.98ZM56.7532 15.38C57.1799 15.9 57.6799 16.3333 58.2532 16.68C58.8132 16.3067 59.3132 15.8733 59.7532 15.38H56.7532ZM70.0132 16.64H83.3132V15.56H71.6132V13.42H83.3132V12.36H70.0132V10.2H85.9532V18.78H70.0132V16.64ZM69.2532 25.78C71.6266 25.5267 73.4599 24.8933 74.7532 23.88C76.0599 22.8533 76.9066 21.3 77.2932 19.22H79.8932C79.7066 20.4733 79.3799 21.5933 78.9132 22.58L87.2532 25.52V28.12L77.5732 24.64C75.7332 26.7467 72.9599 27.9067 69.2532 28.12V25.78ZM73.2332 19.94L74.4932 23.18H71.7932L70.5332 19.94H73.2332ZM83.2732 19.94H85.9732L84.7132 23.18H82.0132L83.2732 19.94ZM107.293 28.2C104.933 27.4533 103.033 26.4933 101.593 25.32C100.167 24.1333 99.0599 22.66 98.2732 20.9C97.4732 22.66 96.3532 24.1333 94.9132 25.32C93.4866 26.4933 91.5932 27.4533 89.2332 28.2V25.34C90.6732 24.7533 91.8666 24.1133 92.8132 23.42C93.7732 22.7267 94.5799 21.8667 95.2332 20.84C95.8999 19.8133 96.4666 18.52 96.9332 16.96H89.2532V14.36H96.9532L96.9332 9.8H99.5732V14.36H107.253V16.96H99.5932C100.06 18.52 100.62 19.8133 101.273 20.84C101.94 21.8667 102.747 22.7267 103.693 23.42C104.653 24.1133 105.853 24.7533 107.293 25.34V28.2ZM116.453 14.66H120.373V12.84H115.993V10.28H127.373V12.84H122.933V14.66H126.893V26.08H124.453V17.22H122.913V28H120.393V17.22H118.893V26.08H116.453V14.66ZM109.353 11.72H111.693V22.9H109.353V11.72ZM110.553 28C111.34 26.4133 111.913 24.86 112.273 23.34C112.647 21.82 112.833 20.18 112.833 18.42V10H115.313V18.42C115.313 20.22 115.16 21.88 114.853 23.4C114.56 24.92 114.08 26.4533 113.413 28H110.553Z" fill="white"/>
</svg>
