<svg width="176" height="44" viewBox="0 0 176 44" fill="none" xmlns="http://www.w3.org/2000/svg">
<path d="M0.487808 8.25047C0.281394 7.95117 0.495644 7.54315 0.859221 7.54315H40.2273V43.9992H0.859224C0.495647 43.9992 0.281393 43.5912 0.487808 43.2919L11.5111 27.3081C12.1492 26.3828 12.1492 25.1595 11.5111 24.2343L0.487808 8.25047Z" fill="#FF8239"/>
<path d="M40.2275 44L18.8567 36.4574H40.2275V44Z" fill="#F26F28"/>
<path d="M175.507 8.25047C175.714 7.95117 175.499 7.54315 175.136 7.54315H135.768V43.9992H175.136C175.499 43.9992 175.714 43.5912 175.507 43.2919L164.484 27.3081C163.846 26.3828 163.846 25.1595 164.484 24.2343L175.507 8.25047Z" fill="#FF8239"/>
<path d="M135.767 44L157.138 36.4574H135.767V44Z" fill="#F26F28"/>
<path d="M18.8562 1.8047C18.8562 0.807989 19.6642 0 20.6609 0H155.333C156.33 0 157.138 0.807991 157.138 1.8047V36.456H18.8562V1.8047Z" fill="#FF9022"/>
<path d="M52.989 14.48H52.809V26H49.629V12H55.369L57.269 22.02L57.309 22.22L57.349 22.02L59.249 12H64.989V26H61.809V14.48H61.649L59.249 26H55.369L52.989 14.48ZM75.6629 22.04H71.1829L70.1229 26H66.6229L70.6829 12H76.1829L80.2429 26H76.7229L75.6629 22.04ZM75.0229 19.64L73.4429 13.78H73.4029L71.8229 19.64H75.0229ZM86.9151 26.24C86.7684 26.2533 86.5418 26.26 86.2351 26.26C84.4351 26.26 82.8351 25.8733 81.4351 25.1V22.16C82.1684 22.6133 82.9751 22.9933 83.8551 23.3C84.7351 23.6067 85.5351 23.76 86.2551 23.76C86.8418 23.76 87.3018 23.6133 87.6351 23.32C87.9818 23.0267 88.1551 22.6933 88.1551 22.32C88.1551 21.8 87.9551 21.3267 87.5551 20.9C87.1551 20.46 86.5151 20.1067 85.6351 19.84C84.6218 19.52 83.8284 19.2 83.2551 18.88C82.6951 18.5467 82.2684 18.1333 81.9751 17.64C81.6951 17.1467 81.5551 16.52 81.5551 15.76C81.5551 15.04 81.7284 14.3867 82.0751 13.8C82.4218 13.2 82.9284 12.72 83.5951 12.36C84.2751 12 85.0818 11.8 86.0151 11.76C86.1351 11.7467 86.3218 11.74 86.5751 11.74C87.2684 11.74 87.9618 11.8133 88.6551 11.96C89.3618 12.0933 89.9551 12.2667 90.4351 12.48V15.06C89.9151 14.8333 89.3084 14.6467 88.6151 14.5C87.9218 14.3533 87.3084 14.28 86.7751 14.28C86.0951 14.28 85.5751 14.4 85.2151 14.64C84.8551 14.88 84.6751 15.2133 84.6751 15.64C84.6751 16.0267 84.8684 16.3733 85.2551 16.68C85.6418 16.9867 86.2418 17.28 87.0551 17.56C88.0284 17.84 88.8218 18.16 89.4351 18.52C90.0484 18.8667 90.5284 19.3267 90.8751 19.9C91.2218 20.46 91.3951 21.1667 91.3951 22.02C91.3951 22.8333 91.2084 23.5533 90.8351 24.18C90.4618 24.8067 89.9351 25.3 89.2551 25.66C88.5884 26.0067 87.8084 26.2 86.9151 26.24ZM92.3823 12H102.902V14.7H99.3023V26H95.9823V14.7H92.3823V12ZM104.434 12H114.274V14.72H107.734V17.72H113.414V20.26H107.734V23.28H114.274V26H104.434V12ZM122.554 12C123.968 12 125.081 12.3667 125.894 13.1C126.721 13.82 127.134 14.84 127.134 16.16C127.134 17.2533 126.848 18.1467 126.274 18.84C125.714 19.5333 124.921 19.98 123.894 20.18C124.668 21.0333 125.354 21.92 125.954 22.84C126.554 23.76 127.128 24.8133 127.674 26H124.634C124.008 24.7333 123.428 23.6867 122.894 22.86C122.361 22.0333 121.668 21.1867 120.814 20.32H119.374V26H116.074V12H122.554ZM122.314 18.02C122.994 18.02 123.521 17.84 123.894 17.48C124.268 17.12 124.454 16.68 124.454 16.16C124.454 15.6267 124.261 15.1867 123.874 14.84C123.501 14.48 122.981 14.3 122.314 14.3H119.374V18.02H122.314Z" fill="white"/>
</svg>
