<svg width="176" height="44" viewBox="0 0 176 44" fill="none" xmlns="http://www.w3.org/2000/svg">
<path d="M0.487808 8.25047C0.281394 7.95117 0.495644 7.54315 0.859221 7.54315H40.2273V43.9992H0.859224C0.495647 43.9992 0.281393 43.5912 0.487808 43.2919L11.5111 27.3081C12.1492 26.3828 12.1492 25.1595 11.5111 24.2343L0.487808 8.25047Z" fill="#EF6EC2"/>
<path d="M40.2275 44L18.8567 36.4574H40.2275V44Z" fill="#D74FA7"/>
<path d="M175.507 8.25047C175.714 7.95117 175.499 7.54315 175.136 7.54315H135.768V43.9992H175.136C175.499 43.9992 175.714 43.5912 175.507 43.2919L164.484 27.3081C163.846 26.3828 163.846 25.1595 164.484 24.2343L175.507 8.25047Z" fill="#EF6EC2"/>
<path d="M135.767 44L157.138 36.4574H135.767V44Z" fill="#D74FA7"/>
<path d="M18.8562 1.8047C18.8562 0.807989 19.6642 0 20.6609 0H155.333C156.33 0 157.138 0.807991 157.138 1.8047V36.456H18.8562V1.8047Z" fill="#FF7BD1"/>
<path d="M57.4532 25.32V27.8H47.2532C45.8799 27.8 44.7532 27.7067 43.8732 27.52C43.0066 27.3467 42.2132 27.04 41.4932 26.6C41.3866 27.2133 41.2999 27.68 41.2332 28H38.8532C39.2266 26.4533 39.4732 25.0267 39.5932 23.72C39.7266 22.4 39.7932 20.8267 39.7932 19H42.0732C42.0466 21.08 41.9732 22.7133 41.8532 23.9C42.2799 24.2067 42.6732 24.44 43.0332 24.6V18.06H39.2532V15.76H42.1932V13.98H39.5932V11.7H42.1932V10H44.7532V11.7H47.2732V13.98H44.7532V15.76H47.6132V18.06H45.5532V20.08H47.3532V22.42H45.5532V25.24C46.0199 25.2933 46.5866 25.32 47.2532 25.32H57.4532ZM47.8132 17.22C48.9066 15.7267 49.5999 14.1733 49.8932 12.56H48.2532V10.3H56.9732L56.8332 17.22H52.9332V14.92H54.4932L54.5532 12.56H52.2732C52.0332 14.28 51.4599 15.8333 50.5532 17.22H47.8132ZM48.6332 17.94H56.7732V24.38H48.6332V17.94ZM54.3132 22.18V20.14H51.0932V22.18H54.3132ZM70.1132 28C70.9666 26.5333 71.6799 25.1067 72.2532 23.72L69.8732 21.82C69.5532 23.9133 68.9799 25.9733 68.1532 28H65.2532C65.4666 27.5733 65.6199 27.2533 65.7132 27.04L59.2532 27.84V25.28L65.9732 24.44V26.42C66.5999 24.9 67.0399 23.36 67.2932 21.8C67.5599 20.2267 67.6932 18.5467 67.6932 16.76V12.62H66.1332V10.2H75.6132L74.5532 14.96H77.0932C76.8932 16.6 76.6466 18.1 76.3532 19.46C76.0732 20.82 75.7199 22.1267 75.2932 23.38L77.4532 25.1V28.2L74.1532 25.58C73.9132 26.1933 73.5466 27 73.0532 28H70.1132ZM62.0532 10H64.7332L62.2932 15.72L63.2132 16.18L64.1732 13.84H66.7732L63.8932 20.76H66.0932V23.24H59.6732L61.6532 18.48L59.0532 17.16L62.0532 10ZM73.3932 21.38C73.7932 20.1667 74.1266 18.8267 74.3932 17.36H71.5732L72.6132 12.62H70.2132V16.76C70.2132 17.4533 70.1932 18.1333 70.1532 18.8L73.3932 21.38ZM97.4532 22.02C95.5866 21.66 93.9266 21.0733 92.4732 20.26V20.94H89.5332V21.86H95.4732V24H94.2132L93.7932 25.42H97.0732V27.8H79.4332V25.42H82.7132L82.2932 24H81.0332V21.86H86.9732V20.94H84.0332V20.26C82.5799 21.0733 80.9199 21.66 79.0532 22.02V19.38C80.2932 19.0733 81.3932 18.68 82.3532 18.2C83.3132 17.7067 84.1732 17.1067 84.9332 16.4H83.5732V9.8H86.1532V15.48H86.9132V12.94C88.2466 12.2467 89.1732 11.3 89.6932 10.1H96.8932V12.62H91.1332C90.1866 14.0333 88.8532 14.9867 87.1332 15.48H90.6732C91.5132 16.44 92.4799 17.24 93.5732 17.88C94.6666 18.52 95.9599 19.02 97.4532 19.38V22.02ZM79.6532 10.28H82.1532V15.74H79.6532V10.28ZM85.0332 25.42H86.9732V24H84.6132L85.0332 25.42ZM90.5732 19C90.1599 18.68 89.7399 18.2933 89.3132 17.84H87.1932C86.7666 18.2933 86.3466 18.68 85.9332 19H90.5732ZM91.4732 25.42L91.8932 24H89.5332V25.42H91.4732ZM94.6132 13.28L95.8132 16.74H93.2932L92.0932 13.28H94.6132ZM116.893 10V28H111.713V25.42H114.393V10H116.893ZM98.9332 28C100.307 26 101.273 24.0133 101.833 22.04H99.2332V19.56H102.313C102.393 18.92 102.433 18.2733 102.433 17.62H99.6332V10.2H108.913V17.62H104.933C104.933 18.06 104.907 18.7067 104.853 19.56H109.413V28H105.333V25.52H106.873V22.04H104.473C104.047 24.0667 103.22 26.0533 101.993 28H98.9332ZM106.373 15.16V12.66H102.173V15.16H106.373ZM110.353 11.1H112.813V23.54H110.353V11.1ZM124.893 22.34H133.493V21.22H124.893V22.34ZM118.853 23.08C120.307 21.28 121.373 19.5267 122.053 17.82H119.253V15.38H126.813V13.9H120.973V11.42H126.813V9.8H129.413V11.42H132.933V13.6L134.233 10.5H136.933L134.893 15.38H137.253V17.82H124.853C124.667 18.3267 124.513 18.7067 124.393 18.96H136.053V27.88H122.333V22.72L122.093 23.08H118.853ZM133.493 25.64V24.5H124.893V25.64H133.493ZM132.193 15.38L132.813 13.9H129.413V15.38H132.193Z" fill="white"/>
</svg>
