<svg width="176" height="44" viewBox="0 0 176 44" fill="none" xmlns="http://www.w3.org/2000/svg">
<path d="M0.487808 8.25047C0.281394 7.95117 0.495644 7.54315 0.859221 7.54315H40.2273V43.9992H0.859224C0.495647 43.9992 0.281393 43.5912 0.487808 43.2919L11.5111 27.3081C12.1492 26.3828 12.1492 25.1595 11.5111 24.2343L0.487808 8.25047Z" fill="#EF6EC2"/>
<path d="M40.2275 44L18.8567 36.4573H40.2275V44Z" fill="#D74FA7"/>
<path d="M175.507 8.25047C175.714 7.95117 175.499 7.54315 175.136 7.54315H135.768V43.9992H175.136C175.499 43.9992 175.714 43.5912 175.507 43.2919L164.484 27.3081C163.846 26.3828 163.846 25.1595 164.484 24.2343L175.507 8.25047Z" fill="#EF6EC2"/>
<path d="M135.767 44L157.138 36.4573H135.767V44Z" fill="#D74FA7"/>
<path d="M18.8562 1.8047C18.8562 0.807989 19.6642 0 20.6609 0H155.333C156.33 0 157.138 0.807991 157.138 1.8047V36.456H18.8562V1.8047Z" fill="#FF7BD1"/>
<path d="M44.9718 26.24C44.8251 26.2533 44.5984 26.26 44.2918 26.26C42.4918 26.26 40.8918 25.8733 39.4918 25.1V22.16C40.2251 22.6133 41.0318 22.9933 41.9118 23.3C42.7918 23.6067 43.5918 23.76 44.3118 23.76C44.8984 23.76 45.3584 23.6133 45.6918 23.32C46.0384 23.0267 46.2118 22.6933 46.2118 22.32C46.2118 21.8 46.0118 21.3267 45.6118 20.9C45.2118 20.46 44.5718 20.1067 43.6918 19.84C42.6784 19.52 41.8851 19.2 41.3118 18.88C40.7518 18.5467 40.3251 18.1333 40.0318 17.64C39.7518 17.1467 39.6118 16.52 39.6118 15.76C39.6118 15.04 39.7851 14.3867 40.1318 13.8C40.4784 13.2 40.9851 12.72 41.6518 12.36C42.3318 12 43.1384 11.8 44.0718 11.76C44.1918 11.7467 44.3784 11.74 44.6318 11.74C45.3251 11.74 46.0184 11.8133 46.7118 11.96C47.4184 12.0933 48.0118 12.2667 48.4918 12.48V15.06C47.9718 14.8333 47.3651 14.6467 46.6718 14.5C45.9784 14.3533 45.3651 14.28 44.8318 14.28C44.1518 14.28 43.6318 14.4 43.2718 14.64C42.9118 14.88 42.7318 15.2133 42.7318 15.64C42.7318 16.0267 42.9251 16.3733 43.3118 16.68C43.6984 16.9867 44.2984 17.28 45.1118 17.56C46.0851 17.84 46.8784 18.16 47.4918 18.52C48.1051 18.8667 48.5851 19.3267 48.9318 19.9C49.2784 20.46 49.4518 21.1667 49.4518 22.02C49.4518 22.8333 49.2651 23.5533 48.8918 24.18C48.5184 24.8067 47.9918 25.3 47.3118 25.66C46.6451 26.0067 45.8651 26.2 44.9718 26.24ZM57.4589 26.26C55.5789 26.26 54.0789 25.7533 52.9589 24.74C51.8523 23.7267 51.2989 22.3333 51.2989 20.56V12H54.5989V20.56C54.5989 21.1467 54.7256 21.6533 54.9789 22.08C55.2456 22.5067 55.5989 22.84 56.0389 23.08C56.4789 23.3067 56.9523 23.42 57.4589 23.42C57.9789 23.42 58.4523 23.3067 58.8789 23.08C59.3189 22.84 59.6656 22.5067 59.9189 22.08C60.1723 21.64 60.2989 21.1333 60.2989 20.56V12H63.5989V20.56C63.5989 22.3333 63.0389 23.7267 61.9189 24.74C60.8123 25.7533 59.3256 26.26 57.4589 26.26ZM72.706 12C74.1726 12 75.326 12.3933 76.166 13.18C77.0193 13.9667 77.446 15.0867 77.446 16.54C77.446 17.98 77.0193 19.0933 76.166 19.88C75.326 20.6667 74.1726 21.06 72.706 21.06H69.306V26H66.006V12H72.706ZM72.406 18.42C73.0726 18.42 73.586 18.24 73.946 17.88C74.306 17.52 74.486 17.0733 74.486 16.54C74.486 15.9933 74.306 15.54 73.946 15.18C73.586 14.82 73.0726 14.64 72.406 14.64H69.306V18.42H72.406ZM79.2482 12H89.0882V14.72H82.5482V17.72H88.2282V20.26H82.5482V23.28H89.0882V26H79.2482V12ZM97.3688 12C98.7821 12 99.8954 12.3667 100.709 13.1C101.535 13.82 101.949 14.84 101.949 16.16C101.949 17.2533 101.662 18.1467 101.089 18.84C100.529 19.5333 99.7354 19.98 98.7088 20.18C99.4821 21.0333 100.169 21.92 100.769 22.84C101.369 23.76 101.942 24.8133 102.489 26H99.4488C98.8221 24.7333 98.2421 23.6867 97.7088 22.86C97.1754 22.0333 96.4821 21.1867 95.6288 20.32H94.1888V26H90.8888V12H97.3688ZM97.1288 18.02C97.8088 18.02 98.3354 17.84 98.7088 17.48C99.0821 17.12 99.2688 16.68 99.2688 16.16C99.2688 15.6267 99.0754 15.1867 98.6888 14.84C98.3154 14.48 97.7954 14.3 97.1288 14.3H94.1888V18.02H97.1288ZM104.152 12H107.452V26H104.152V12ZM116.652 26.26C115.186 26.26 113.919 25.9867 112.852 25.44C111.786 24.88 110.959 24.0667 110.372 23C109.799 21.9333 109.512 20.6533 109.512 19.16C109.512 17.64 109.799 16.32 110.372 15.2C110.959 14.08 111.786 13.2267 112.852 12.64C113.932 12.04 115.199 11.74 116.652 11.74C118.106 11.74 119.366 12.04 120.432 12.64C121.499 13.2267 122.319 14.08 122.892 15.2C123.479 16.32 123.772 17.64 123.772 19.16C123.772 20.6667 123.479 21.9533 122.892 23.02C122.319 24.0733 121.506 24.88 120.452 25.44C119.399 25.9867 118.132 26.26 116.652 26.26ZM113.012 19.16C113.012 20.6 113.332 21.74 113.972 22.58C114.612 23.4067 115.506 23.82 116.652 23.82C117.786 23.82 118.672 23.4067 119.312 22.58C119.952 21.74 120.272 20.6 120.272 19.16C120.272 18.2133 120.132 17.3667 119.852 16.62C119.572 15.8733 119.152 15.2867 118.592 14.86C118.046 14.4333 117.399 14.22 116.652 14.22C115.906 14.22 115.259 14.4333 114.712 14.86C114.166 15.2867 113.746 15.8733 113.452 16.62C113.159 17.3667 113.012 18.2133 113.012 19.16ZM132.252 12C133.665 12 134.778 12.3667 135.592 13.1C136.418 13.82 136.832 14.84 136.832 16.16C136.832 17.2533 136.545 18.1467 135.972 18.84C135.412 19.5333 134.618 19.98 133.592 20.18C134.365 21.0333 135.052 21.92 135.652 22.84C136.252 23.76 136.825 24.8133 137.372 26H134.332C133.705 24.7333 133.125 23.6867 132.592 22.86C132.058 22.0333 131.365 21.1867 130.512 20.32H129.072V26H125.772V12H132.252ZM132.012 18.02C132.692 18.02 133.218 17.84 133.592 17.48C133.965 17.12 134.152 16.68 134.152 16.16C134.152 15.6267 133.958 15.1867 133.572 14.84C133.198 14.48 132.678 14.3 132.012 14.3H129.072V18.02H132.012Z" fill="white"/>
</svg>
