<svg width="532" height="88" viewBox="0 0 532 88" fill="none" xmlns="http://www.w3.org/2000/svg">
<g filter="url(#filter0_i_363_1347)">
<rect width="532" height="88" rx="28" fill="#747FF0"/>
</g>
<path d="M235.515 49.7898C235.28 49.8111 234.918 49.8218 234.427 49.8218C231.547 49.8218 228.987 49.2031 226.747 47.9658V43.2618C227.92 43.9871 229.211 44.5951 230.619 45.0858C232.027 45.5764 233.307 45.8218 234.459 45.8218C235.398 45.8218 236.134 45.5871 236.667 45.1178C237.222 44.6484 237.499 44.1151 237.499 43.5178C237.499 42.6858 237.179 41.9284 236.539 41.2458C235.899 40.5418 234.875 39.9764 233.467 39.5498C231.846 39.0378 230.576 38.5258 229.659 38.0138C228.763 37.4804 228.08 36.8191 227.611 36.0298C227.163 35.2404 226.939 34.2378 226.939 33.0218C226.939 31.8698 227.216 30.8244 227.771 29.8858C228.326 28.9258 229.136 28.1578 230.203 27.5818C231.291 27.0058 232.582 26.6858 234.075 26.6218C234.267 26.6004 234.566 26.5898 234.971 26.5898C236.08 26.5898 237.19 26.7071 238.299 26.9418C239.43 27.1551 240.379 27.4324 241.147 27.7738V31.9018C240.315 31.5391 239.344 31.2404 238.235 31.0058C237.126 30.7711 236.144 30.6538 235.291 30.6538C234.203 30.6538 233.371 30.8458 232.795 31.2298C232.219 31.6138 231.931 32.1471 231.931 32.8298C231.931 33.4484 232.24 34.0031 232.859 34.4938C233.478 34.9844 234.438 35.4538 235.739 35.9018C237.296 36.3498 238.566 36.8618 239.547 37.4378C240.528 37.9924 241.296 38.7284 241.851 39.6458C242.406 40.5418 242.683 41.6724 242.683 43.0378C242.683 44.3391 242.384 45.4911 241.787 46.4938C241.19 47.4964 240.347 48.2858 239.259 48.8618C238.192 49.4164 236.944 49.7258 235.515 49.7898ZM258.887 43.0698H251.719L250.023 49.4058H244.423L250.919 27.0058H259.719L266.215 49.4058H260.583L258.887 43.0698ZM257.863 39.2298L255.335 29.8538H255.271L252.743 39.2298H257.863ZM264.976 27.0058H270.704L276.08 45.8538H276.208L281.584 27.0058H287.312L280.4 49.4058H271.888L264.976 27.0058ZM289.545 27.0058H305.289V31.3578H294.825V36.1578H303.913V40.2218H294.825V45.0538H305.289V49.4058H289.545V27.0058Z" fill="white"/>
<defs>
<filter id="filter0_i_363_1347" x="0" y="0" width="532" height="88" filterUnits="userSpaceOnUse" color-interpolation-filters="sRGB">
<feFlood flood-opacity="0" result="BackgroundImageFix"/>
<feBlend mode="normal" in="SourceGraphic" in2="BackgroundImageFix" result="shape"/>
<feColorMatrix in="SourceAlpha" type="matrix" values="0 0 0 0 0 0 0 0 0 0 0 0 0 0 0 0 0 0 127 0" result="hardAlpha"/>
<feOffset dy="-14"/>
<feComposite in2="hardAlpha" operator="arithmetic" k2="-1" k3="1"/>
<feColorMatrix type="matrix" values="0 0 0 0 0 0 0 0 0 0 0 0 0 0 0 0 0 0 0.13 0"/>
<feBlend mode="normal" in2="shape" result="effect1_innerShadow_363_1347"/>
</filter>
</defs>
</svg>
