<svg width="532" height="88" viewBox="0 0 532 88" fill="none" xmlns="http://www.w3.org/2000/svg">
<g filter="url(#filter0_i_363_1343)">
<rect width="532" height="88" rx="28" fill="#747FF0"/>
</g>
<path d="M263.091 27.9095V38.0455H257.295V40.6495H264.575V44.1775H261.691C262.325 46.9962 263.417 49.8802 264.967 52.8295H261.215C259.945 50.0855 259.021 47.2015 258.443 44.1775H257.295V52.8575H253.767V44.1775H252.759C252.18 47.2015 251.256 50.0855 249.987 52.8295H246.263C247.812 49.8802 248.904 46.9962 249.539 44.1775H246.655V40.6495H253.767V38.0455H247.971V27.9095H263.091ZM238.955 36.8975C241.12 34.4149 242.632 31.3255 243.491 27.6295H247.159C246.711 30.1682 246.011 32.5015 245.059 34.6295V52.8295H241.447V40.2295C240.719 41.0695 239.888 41.8815 238.955 42.6655V36.8975ZM259.479 34.7695V31.2135H251.583V34.7695H259.479ZM267.011 40.3135C269.997 38.2975 272.191 35.7495 273.591 32.6695H267.291V29.0855H274.851C275.019 28.4322 275.159 27.7602 275.271 27.0695H278.715C278.659 27.8162 278.565 28.4882 278.435 29.0855H292.491V32.6695H277.483C276.549 35.2269 275.233 37.4949 273.535 39.4735V52.8295H269.923V42.8335C268.952 43.5242 267.981 44.1215 267.011 44.6255V40.3135ZM275.159 41.7415H283.755C284.408 40.7522 285.099 39.5762 285.827 38.2135H278.267V34.7415H291.035C290.101 37.2615 288.981 39.5949 287.675 41.7415H292.799V45.2695H286.835V52.8295H279.639V49.3015H283.223V45.2695H275.159V41.7415Z" fill="white"/>
<defs>
<filter id="filter0_i_363_1343" x="0" y="0" width="532" height="88" filterUnits="userSpaceOnUse" color-interpolation-filters="sRGB">
<feFlood flood-opacity="0" result="BackgroundImageFix"/>
<feBlend mode="normal" in="SourceGraphic" in2="BackgroundImageFix" result="shape"/>
<feColorMatrix in="SourceAlpha" type="matrix" values="0 0 0 0 0 0 0 0 0 0 0 0 0 0 0 0 0 0 127 0" result="hardAlpha"/>
<feOffset dy="-12"/>
<feComposite in2="hardAlpha" operator="arithmetic" k2="-1" k3="1"/>
<feColorMatrix type="matrix" values="0 0 0 0 0 0 0 0 0 0 0 0 0 0 0 0 0 0 0.13 0"/>
<feBlend mode="normal" in2="shape" result="effect1_innerShadow_363_1343"/>
</filter>
</defs>
</svg>
