<?xml version="1.0" standalone="no"?><!DOCTYPE svg PUBLIC "-//W3C//DTD SVG 1.1//EN" "http://www.w3.org/Graphics/SVG/1.1/DTD/svg11.dtd"><svg t="1749715289061" class="icon" viewBox="0 0 1024 1024" version="1.1" xmlns="http://www.w3.org/2000/svg" p-id="14960" xmlns:xlink="http://www.w3.org/1999/xlink" width="200" height="200"><path d="M748.77 816.18H274.25a66.72 66.72 0 0 1-66.64-66.64V275a66.72 66.72 0 0 1 66.64-66.64h474.52A66.71 66.71 0 0 1 815.4 275v474.54a66.71 66.71 0 0 1-66.63 66.64zM274.25 252.81A22.25 22.25 0 0 0 252 275v474.54a22.25 22.25 0 0 0 22.22 22.22h474.55A22.24 22.24 0 0 0 771 749.54V275a22.24 22.24 0 0 0-22.21-22.22z" fill="#ffffff" p-id="14961"></path><path d="M419.42 382.92h62.66l91.52 258.73h-57.31L498.79 589h-98.13l-16.94 52.63H327.9z m-3.76 161.57h68.69L450 440.47zM604.05 382.92h54v258.73h-54z" fill="#ffffff" p-id="14962"></path><path d="M268.32 70.82m19 0l0 0q19 0 19 19l0 89.47q0 19-19 19l0 0q-19 0-19-19l0-89.47q0-19 19-19Z" fill="#ffffff" p-id="14963"></path><path d="M343.05 70.82m19 0l0 0q19 0 19 19l0 89.47q0 19-19 19l0 0q-19 0-19-19l0-89.47q0-19 19-19Z" fill="#ffffff" p-id="14964"></path><path d="M417.78 70.82m19 0l0 0q19 0 19 19l0 89.47q0 19-19 19l0 0q-19 0-19-19l0-89.47q0-19 19-19Z" fill="#ffffff" p-id="14965"></path><path d="M492.51 70.82m19 0l0 0q19 0 19 19l0 89.47q0 19-19 19l0 0q-19 0-19-19l0-89.47q0-19 19-19Z" fill="#ffffff" p-id="14966"></path><path d="M567.24 70.82m19 0l0 0q19 0 19 19l0 89.47q0 19-19 19l0 0q-19 0-19-19l0-89.47q0-19 19-19Z" fill="#ffffff" p-id="14967"></path><path d="M641.97 70.82m19 0l0 0q19 0 19 19l0 89.47q0 19-19 19l0 0q-19 0-19-19l0-89.47q0-19 19-19Z" fill="#ffffff" p-id="14968"></path><path d="M716.7 70.82m19 0l0 0q19 0 19 19l0 89.47q0 19-19 19l0 0q-19 0-19-19l0-89.47q0-19 19-19Z" fill="#ffffff" p-id="14969"></path><path d="M268.32 825.71m19 0l0 0q19 0 19 19l0 89.47q0 19-19 19l0 0q-19 0-19-19l0-89.47q0-19 19-19Z" fill="#ffffff" p-id="14970"></path><path d="M343.05 825.71m19 0l0 0q19 0 19 19l0 89.47q0 19-19 19l0 0q-19 0-19-19l0-89.47q0-19 19-19Z" fill="#ffffff" p-id="14971"></path><path d="M417.78 825.71m19 0l0 0q19 0 19 19l0 89.47q0 19-19 19l0 0q-19 0-19-19l0-89.47q0-19 19-19Z" fill="#ffffff" p-id="14972"></path><path d="M492.51 825.71m19 0l0 0q19 0 19 19l0 89.47q0 19-19 19l0 0q-19 0-19-19l0-89.47q0-19 19-19Z" fill="#ffffff" p-id="14973"></path><path d="M567.24 825.71m19 0l0 0q19 0 19 19l0 89.47q0 19-19 19l0 0q-19 0-19-19l0-89.47q0-19 19-19Z" fill="#ffffff" p-id="14974"></path><path d="M641.97 825.71m19 0l0 0q19 0 19 19l0 89.47q0 19-19 19l0 0q-19 0-19-19l0-89.47q0-19 19-19Z" fill="#ffffff" p-id="14975"></path><path d="M716.7 825.71m19 0l0 0q19 0 19 19l0 89.47q0 19-19 19l0 0q-19 0-19-19l0-89.47q0-19 19-19Z" fill="#ffffff" p-id="14976"></path><path d="M64.6 755.47m0-19l0 0q0-19 19-19l89.47 0q19 0 19 19l0 0q0 19-19 19l-89.47 0q-19 0-19-19Z" fill="#ffffff" p-id="14977"></path><path d="M64.6 680.74m0-19l0 0q0-19 19-19l89.47 0q19 0 19 19l0 0q0 19-19 19l-89.47 0q-19 0-19-19Z" fill="#ffffff" p-id="14978"></path><path d="M64.6 606.01m0-19l0 0q0-19 19-19l89.47 0q19 0 19 19l0 0q0 19-19 19l-89.47 0q-19 0-19-19Z" fill="#ffffff" p-id="14979"></path><path d="M64.6 531.28m0-19l0 0q0-19 19-19l89.47 0q19 0 19 19l0 0q0 19-19 19l-89.47 0q-19 0-19-19Z" fill="#ffffff" p-id="14980"></path><path d="M64.6 456.55m0-19l0 0q0-19 19-19l89.47 0q19 0 19 19l0 0q0 19-19 19l-89.47 0q-19 0-19-19Z" fill="#ffffff" p-id="14981"></path><path d="M64.6 381.82m0-19l0 0q0-19 19-19l89.47 0q19 0 19 19l0 0q0 19-19 19l-89.47 0q-19 0-19-19Z" fill="#ffffff" p-id="14982"></path><path d="M64.6 307.09m0-19l0 0q0-19 19-19l89.47 0q19 0 19 19l0 0q0 19-19 19l-89.47 0q-19 0-19-19Z" fill="#ffffff" p-id="14983"></path><path d="M831.93 755.48m0-19l0 0q0-19 19-19l89.47 0q19 0 19 19l0 0q0 19-19 19l-89.47 0q-19 0-19-19Z" fill="#ffffff" p-id="14984"></path><path d="M831.93 680.75m0-19l0 0q0-19 19-19l89.47 0q19 0 19 19l0 0q0 19-19 19l-89.47 0q-19 0-19-19Z" fill="#ffffff" p-id="14985"></path><path d="M831.93 606.02m0-19l0 0q0-19 19-19l89.47 0q19 0 19 19l0 0q0 19-19 19l-89.47 0q-19 0-19-19Z" fill="#ffffff" p-id="14986"></path><path d="M831.93 531.29m0-19l0 0q0-19 19-19l89.47 0q19 0 19 19l0 0q0 19-19 19l-89.47 0q-19 0-19-19Z" fill="#ffffff" p-id="14987"></path><path d="M831.93 456.56m0-19l0 0q0-19 19-19l89.47 0q19 0 19 19l0 0q0 19-19 19l-89.47 0q-19 0-19-19Z" fill="#ffffff" p-id="14988"></path><path d="M831.93 381.83m0-19l0 0q0-19 19-19l89.47 0q19 0 19 19l0 0q0 19-19 19l-89.47 0q-19 0-19-19Z" fill="#ffffff" p-id="14989"></path><path d="M831.93 307.1m0-19l0 0q0-19 19-19l89.47 0q19 0 19 19l0 0q0 19-19 19l-89.47 0q-19 0-19-19Z" fill="#ffffff" p-id="14990"></path></svg>