<?xml version="1.0" standalone="no"?><!DOCTYPE svg PUBLIC "-//W3C//DTD SVG 1.1//EN" "http://www.w3.org/Graphics/SVG/1.1/DTD/svg11.dtd"><svg t="1749715392778" class="icon" viewBox="0 0 1024 1024" version="1.1" xmlns="http://www.w3.org/2000/svg" p-id="16282" xmlns:xlink="http://www.w3.org/1999/xlink" width="200" height="200"><path d="M938.666667 455.573333c0 116.272-58.554667 174.032-115.178667 229.893334-48.064 47.413333-48.064 111.445333-48.064 145.845333V938.666667h-42.666667v-107.354667c0-37.744 0-116.277333 60.768-176.218667C846.224 603.104 896 554 896 455.573333c0-88.64-31.898667-170.346667-89.824-230.053333C744.277333 161.722667 658.688 128 558.656 128c-235.162667 0-285.509333 111.744-302.053333 148.458667-27.392 60.810667-25.354667 177.504-25.333334 178.666666l0.133334 6.432-100.448 158.544c-5.290667 8.352-2.176 15.952-0.592 18.826667 1.653333 3.013333 6.645333 10.016 17.178666 10.016h83.733334v128.693333c0 22.442667 6.08 40.170667 17.114666 49.925334 9.36 8.282667 22.752 11.477333 39.84 9.504l160.709334-31.706667V938.666667h-42.666667v-81.402667l-112.090667 22.058667c-29.674667 3.658667-55.274667-3.184-74.058666-19.792-20.613333-18.229333-31.509333-46.549333-31.509334-81.893334v-86.026666h-41.066666c-22.762667 0-43.669333-12.304-54.565334-32.106667-10.917333-19.84-10.192-43.104 1.930667-62.24l93.637333-147.786667c-0.08-26.997333 1.525333-129.216 29.152-190.544C270.330667 142.117333 381.866667 85.333333 558.666667 85.333333 808.133333 85.333333 938.666667 271.584 938.666667 455.573333z m-192.298667 174.133334c0 26.229333-21.397333 47.626667-47.701333 47.626666a47.445333 47.445333 0 0 1-33.301334-13.546666c-5.381333-5.242667-9.397333-12.016-11.936-20.117334l-29.728-95.024a7.114667 7.114667 0 0 0-1.813333-1.749333l-40.122667-26.746667a4.464 4.464 0 0 0-5.632 0.554667l-2.357333 2.362667c-0.789333 0.784-1.626667 1.493333-2.442667 2.234666-2.170667 2.72-4.912 4.768-7.946666 6.128-21.429333 14-49.776 14.394667-71.722667-0.234666l-25.210667-16.805334a0.661333 0.661333 0 0 0-0.586666-0.08l-1.610667 0.533334-29.173333 4.8c-29.333333 8.917333-61.386667-2.469333-78.474667-28.096l-13.696-20.549334c-1.248-1.877333-3.189333-2.794667-5.6-2.965333l-12.554667 0.106667h-0.421333c-23.072 0.005333-42.954667-16.96-46.341333-39.621334a59.962667 59.962667 0 0 1 8.448-40.629333l4.64-7.424c-15.050667-42.133333 0.448-89.717333 38.016-114.762667l5.685333-3.792c1.386667-0.922667 2.56-2.101333 3.493333-3.493333l7.738667-11.610667c23.168-34.746667 72.341333-51.605333 111.952-38.416 3.472 1.168 7.2 0.266667 9.776-2.304l15.216-15.216c27.616-27.610667 71.242667-31.930667 103.733333-10.272l16.4 10.933334a2.778667 2.778667 0 0 0 1.546667 0.469333h35.968a102.373333 102.373333 0 0 1 99.466667 77.653333 19.349333 19.349333 0 0 0 7.136 10.752l44.709333 33.536c33.664 25.248 41.749333 72.453333 18.410667 107.466667l-2.677334 4.021333c-2.4 3.589333-2.986667 8-1.626666 12.090667 12.394667 37.162667-1.717333 78.293333-34.314667 100.026667l-1.914667 1.269333L746.666667 547.893333l-0.293334 81.813334z m3.376-128.853334a44.533333 44.533333 0 0 0 15.808-49.84 56.192 56.192 0 0 1 6.592-49.248l2.682667-4.021333a36.677333 36.677333 0 0 0-8.506667-49.669333l-37.728-28.298667c-17.034667 3.2-28.922667 9.888-32.624 18.432-1.568 3.616-1.024 6.336-0.650667 7.28a21.333333 21.333333 0 0 1-24.48 34.933333c-14.442667-9.632-21.466667-29.024-17.482666-48.266666 2.298667-11.12 11.408-35.413333 46.4-48.522667-0.378667-1.2-0.768-2.4-1.077334-3.626667A59.776 59.776 0 0 0 640.608 234.666667h-35.973333c-0.32 0-0.624-0.064-0.944-0.069334-24.405333 16.624-27.322667 36.032-27.386667 43.92-0.08 10.32 4.016 19.050667 10.954667 23.36a21.333333 21.333333 0 1 1-22.517334 36.24c-19.669333-12.218667-31.296-34.624-31.098666-59.930666 0.176-22.901333 10.106667-45.12 27.456-63.136-15.397333-9.056-35.210667-6.768-47.968 5.989333l-15.216 15.216a51.936 51.936 0 0 1-53.44 12.613333c-21.162667-7.04-50.581333 3.04-62.954667 21.6l-7.744 11.616a54.997333 54.997333 0 0 1-15.333333 15.333334l-5.68 3.786666a55.664 55.664 0 0 0-20.464 67.584 33.066667 33.066667 0 0 1-2.474667 30.197334l-7.2 11.52a17.264 17.264 0 0 0-2.432 11.701333c0.277333 1.856 2.026667 3.253333 4.181333 3.269333l12.554667-0.112c16.533333-0.032 32.213333 8.064 41.482667 21.957334l13.696 20.554666a27.269333 27.269333 0 0 0 31.253333 10.72l1.610667-0.533333 2.005333-0.330667c1.557333-34.816 9.344-65.546667 21.573333-88.981333l-0.042666-0.122667c-5.509333-24.8-12.394667-30.058667-14.368-31.077333-3.6-1.861333-10.88-0.64-20.501334 3.434667a21.333333 21.333333 0 1 1-16.602666-39.306667c22.426667-9.477333 40.965333-10.149333 56.661333-2.048 13.205333 6.810667 21.696 18.581333 27.381333 31.109333C490.581333 344.661333 500.981333 341.333333 512 341.333333a21.333333 21.333333 0 0 1 0 42.666667c-15.648 0-37.6 33.685333-41.872 87.824a43.184 43.184 0 0 1 20 7.066667l25.205333 16.8a22.416 22.416 0 0 0 24.245334 0.304c45.6-70.197333 99.946667-69.76 136.202666-69.370667 2.346667 0.021333 4.650667 0.042667 6.885334 0.042667a21.333333 21.333333 0 0 1 0 42.666666c-2.368 0-4.8-0.021333-7.290667-0.048-22.741333-0.218667-46.026667-0.416-69.04 15.968l39.216 26.144a49.824 49.824 0 0 1 16.906667 19.152l0.762666 1.530667 30.928 98.842667c0.549333 1.754667 1.045333 2.362667 1.050667 2.368a5.045333 5.045333 0 0 0 8.501333-3.658667l0.298667-83.589333c0-16.533333 9.989333-31.173333 25.450667-37.237334l20.293333-7.952z" p-id="16283" fill="#ffffff"></path></svg>