<svg width="532" height="88" viewBox="0 0 532 88" fill="none" xmlns="http://www.w3.org/2000/svg">
<g filter="url(#filter0_i_355_1408)">
<rect width="532" height="88" rx="28" fill="#747FF0"/>
</g>
<path d="M234.363 32.2215H225.011V28.4135H250.771V32.2215H238.227V52.8295H234.363V32.2215ZM244.135 35.8335L249.231 47.7895H245.255L240.159 35.8335H244.135ZM253.291 37.3455H278.491V41.2095H253.291V37.3455ZM306.771 49.1615V52.5495H292.491C290.68 52.5495 289.177 52.4282 287.983 52.1855C286.788 51.9615 285.715 51.5882 284.763 51.0655C284.501 51.9242 284.315 52.5122 284.203 52.8295H280.731C281.403 51.1682 281.851 49.6282 282.075 48.2095C282.317 46.7909 282.439 45.1015 282.439 43.1415H285.743C285.743 44.9149 285.659 46.3895 285.491 47.5655C286.069 47.9389 286.611 48.2095 287.115 48.3775V42.2735H281.291V39.1655H293.555V42.2735H290.587V44.2055H293.471V47.3415H290.587V49.1055C291.371 49.1429 292.005 49.1615 292.491 49.1615H306.771ZM282.131 27.9375H293.051V38.1295H282.131V27.9375ZM289.663 35.4135V34.1815H285.547V35.4135H289.663ZM289.663 31.9135V30.6815H285.547V31.9135H289.663ZM294.087 44.9895C295.636 44.7842 296.812 44.2615 297.615 43.4215C298.417 42.5629 298.819 41.4989 298.819 40.2295V36.5335H301.815V40.3695C301.815 40.7242 301.805 40.9855 301.787 41.1535C302.309 41.4522 302.683 41.6949 302.907 41.8815V35.8335H297.727V42.6095H294.507V32.4455H298.371L298.595 31.3255H294.087V27.8815H306.631V31.3255H301.955L301.731 32.4455H306.155V42.3295H303.439C305.025 43.7482 306.173 45.7269 306.883 48.2655H303.467C303.149 46.6042 302.3 45.2602 300.919 44.2335C300.34 45.3162 299.481 46.2309 298.343 46.9775C297.204 47.7055 295.785 48.2189 294.087 48.5175V44.9895Z" fill="white"/>
<defs>
<filter id="filter0_i_355_1408" x="0" y="0" width="532" height="88" filterUnits="userSpaceOnUse" color-interpolation-filters="sRGB">
<feFlood flood-opacity="0" result="BackgroundImageFix"/>
<feBlend mode="normal" in="SourceGraphic" in2="BackgroundImageFix" result="shape"/>
<feColorMatrix in="SourceAlpha" type="matrix" values="0 0 0 0 0 0 0 0 0 0 0 0 0 0 0 0 0 0 127 0" result="hardAlpha"/>
<feOffset dy="-12"/>
<feComposite in2="hardAlpha" operator="arithmetic" k2="-1" k3="1"/>
<feColorMatrix type="matrix" values="0 0 0 0 0 0 0 0 0 0 0 0 0 0 0 0 0 0 0.13 0"/>
<feBlend mode="normal" in2="shape" result="effect1_innerShadow_355_1408"/>
</filter>
</defs>
</svg>




