<svg width="420" height="812" viewBox="0 0 420 812" fill="none" xmlns="http://www.w3.org/2000/svg">
<g clip-path="url(#clip0_781_2835)">
<rect width="420" height="812" fill="white"/>
<g clip-path="url(#clip1_781_2835)">
<rect width="422" height="368" transform="translate(-1.5)" fill="#E9F7FF"/>
<path d="M139.571 292.197C139.571 268.703 139.571 256.957 143.676 247.79C148.395 237.254 156.826 228.823 167.362 224.105C176.528 220 188.274 220 211.768 220V220C234.761 220 246.258 220 255.229 224.018C265.541 228.636 273.793 236.887 278.411 247.199C282.428 256.17 282.428 267.667 282.428 290.66V294.139C282.428 312.415 282.428 321.553 278.806 328.504C275.775 334.318 271.032 339.061 265.218 342.092C258.267 345.714 249.129 345.714 230.853 345.714H190.494C172.834 345.714 164.004 345.714 157.238 342.325C151.063 339.231 146.054 334.223 142.961 328.047C139.571 321.282 139.571 312.452 139.571 294.792V292.197Z" fill="#14AEEC"/>
<rect x="158.143" y="257.143" width="105.714" height="60" rx="20" fill="#010101"/>
<path d="M181 345.238C181 339.007 181 335.892 182.34 333.571C183.217 332.051 184.48 330.789 186 329.911C188.321 328.571 191.436 328.571 197.667 328.571H224.333C230.564 328.571 233.679 328.571 236 329.911C237.52 330.789 238.783 332.051 239.66 333.571C241 335.892 241 339.007 241 345.238V345.238C241 346.484 241 347.107 240.732 347.571C240.556 347.875 240.304 348.128 240 348.303C239.536 348.571 238.913 348.571 237.667 348.571H184.333C183.087 348.571 182.464 348.571 182 348.303C181.696 348.128 181.443 347.875 181.268 347.571C181 347.107 181 346.484 181 345.238V345.238Z" fill="#8CE2F9"/>
<path d="M279.571 259.643C279.571 259.178 279.571 258.946 279.61 258.753C279.768 257.96 280.388 257.339 281.181 257.181C281.374 257.143 281.607 257.143 282.071 257.143V257.143C283.465 257.143 284.162 257.143 284.742 257.258C287.122 257.732 288.983 259.592 289.456 261.973C289.571 262.552 289.571 263.249 289.571 264.643V308.215C289.571 309.608 289.571 310.305 289.456 310.885C288.983 313.265 287.122 315.126 284.742 315.599C284.162 315.715 283.465 315.715 282.071 315.715V315.715C281.607 315.715 281.374 315.715 281.181 315.676C280.388 315.518 279.768 314.898 279.61 314.105C279.571 313.912 279.571 313.679 279.571 313.215V259.643Z" fill="#8CE2F9"/>
<path d="M142.429 259.643C142.429 259.178 142.429 258.946 142.39 258.753C142.232 257.96 141.612 257.339 140.819 257.181C140.626 257.143 140.393 257.143 139.929 257.143V257.143C138.535 257.143 137.838 257.143 137.258 257.258C134.878 257.732 133.017 259.592 132.544 261.973C132.429 262.552 132.429 263.249 132.429 264.643V308.215C132.429 309.608 132.429 310.305 132.544 310.885C133.017 313.265 134.878 315.126 137.258 315.599C137.838 315.715 138.535 315.715 139.929 315.715V315.715C140.393 315.715 140.626 315.715 140.819 315.676C141.612 315.518 142.232 314.898 142.39 314.105C142.429 313.912 142.429 313.679 142.429 313.215V259.643Z" fill="#8CE2F9"/>
<path d="M183.857 222C183.857 221.057 183.857 220.586 184.15 220.293C184.443 220 184.914 220 185.857 220H236.143C237.085 220 237.557 220 237.85 220.293C238.143 220.586 238.143 221.057 238.143 222V257.143H183.857V222Z" fill="#3F7B8D"/>
<path d="M189.571 220H232.428V239.714C232.428 242.543 232.428 243.957 231.55 244.836C230.671 245.714 229.257 245.714 226.428 245.714H195.571C192.743 245.714 191.329 245.714 190.45 244.836C189.571 243.957 189.571 242.543 189.571 239.714V220Z" fill="#8CE2F9"/>
<ellipse cx="17.9582" cy="17.1429" rx="17.9582" ry="17.1429" transform="matrix(-1 -8.34536e-08 -9.15808e-08 1 204.917 271)" fill="#EBBA48"/>
<path d="M186.959 275.429C179.533 275.429 173.592 281.164 173.592 288.143C173.592 295.121 179.533 300.857 186.959 300.857C194.385 300.857 200.325 295.121 200.325 288.143C200.325 281.164 194.385 275.429 186.959 275.429Z" fill="#EBBA48" stroke="#F1EACD" stroke-width="2"/>
<ellipse cx="2.68934" cy="3.43469" rx="2.68934" ry="3.43469" transform="matrix(-0.983099 0.183073 0.200218 0.979751 181.991 285)" fill="#EEE8D8"/>
<ellipse cx="0.897909" cy="0.857142" rx="0.897909" ry="0.857142" transform="matrix(-1 -8.34536e-08 -9.15808e-08 1 183.368 293.572)" fill="#EFE8DC"/>
<ellipse cx="17.9582" cy="17.1429" rx="17.9582" ry="17.1429" transform="matrix(-1 -8.34536e-08 -9.15808e-08 1 253.917 271)" fill="#EBBA48"/>
<path d="M235.955 275C228.528 275 222.588 280.735 222.587 287.714C222.587 294.692 228.528 300.429 235.955 300.429C243.381 300.429 249.321 294.692 249.321 287.714C249.321 280.736 243.381 275 235.955 275Z" fill="#EBBA48" stroke="#F1EACD" stroke-width="2"/>
<ellipse cx="2.68934" cy="3.43469" rx="2.68934" ry="3.43469" transform="matrix(-0.983099 0.183073 0.200218 0.979751 230.995 285)" fill="#EEE8D8"/>
<ellipse cx="0.897909" cy="0.857142" rx="0.897909" ry="0.857142" transform="matrix(-1 -8.34536e-08 -9.15808e-08 1 232.363 293.572)" fill="#EFE8DC"/>
<rect x="131" y="265.714" width="2.85714" height="40" rx="1.42857" fill="#14AEEC"/>
<rect x="288.143" y="265.714" width="2.85714" height="40" rx="1.42857" fill="#14AEEC"/>
<path opacity="0.5" d="M124.088 334.075C116.146 319.223 111.989 302.553 112.001 285.612C112.012 268.67 116.194 252.007 124.157 237.167L125.873 238.137C118.07 252.68 113.972 269.011 113.961 285.613C113.949 302.216 118.024 318.553 125.807 333.107L124.088 334.075Z" fill="#0E8ABB"/>
<path opacity="0.3" d="M105.679 344.444C96.0349 326.41 90.986 306.168 91.0005 285.596C91.015 265.024 96.0924 244.79 105.761 226.77L107.846 227.948C98.3705 245.608 93.3947 265.438 93.3805 285.598C93.3663 305.758 98.3142 325.596 107.765 343.269L105.679 344.444Z" fill="#0E8ABB"/>
<path opacity="0.1" d="M87.2685 354.815C75.9229 333.598 69.983 309.783 70 285.581C70.0171 261.379 75.9904 237.573 87.3659 216.373L89.8186 217.759C78.6706 238.536 72.8167 261.865 72.8 285.583C72.7833 309.301 78.6044 332.639 89.7231 353.432L87.2685 354.815Z" fill="#0E8ABB"/>
<path opacity="0.5" d="M294.871 235.395C303.125 250.067 307.633 266.64 307.979 283.578C308.325 300.516 304.496 317.269 296.849 332.282L295.112 331.35C302.606 316.637 306.358 300.219 306.02 283.62C305.681 267.021 301.262 250.779 293.174 236.401L294.871 235.395Z" fill="#0E8ABB"/>
<path opacity="0.3" d="M313.058 224.619C323.08 242.434 328.555 262.559 328.975 283.127C329.394 303.694 324.745 324.037 315.459 342.268L313.35 341.136C322.45 323.27 327.007 303.334 326.595 283.178C326.184 263.022 320.818 243.299 310.997 225.84L313.058 224.619Z" fill="#0E8ABB"/>
<path opacity="0.1" d="M331.245 213.842C343.035 234.802 349.477 258.479 349.971 282.676C350.464 306.873 344.995 330.805 334.07 352.253L331.588 350.922C342.295 329.903 347.655 306.449 347.171 282.736C346.687 259.023 340.375 235.82 328.82 215.279L331.245 213.842Z" fill="#0E8ABB"/>
<ellipse cx="210" cy="401" rx="256.5" ry="61" fill="white"/>
</g>
</g>
<defs>
<clipPath id="clip0_781_2835">
<rect width="420" height="812" fill="white"/>
</clipPath>
<clipPath id="clip1_781_2835">
<rect width="422" height="368" fill="white" transform="translate(-1.5)"/>
</clipPath>
</defs>
</svg>






