<svg width="420" height="812" viewBox="0 0 420 812" fill="none" xmlns="http://www.w3.org/2000/svg">
<g clip-path="url(#clip0_470_1289)">
<rect width="420" height="812" fill="white"/>
<path d="M70.1456 475.986C70.2296 475.995 70.3509 476 70.5096 476C70.8829 476 71.1676 475.93 71.3636 475.79C71.5689 475.641 71.7089 475.421 71.7836 475.132C71.8582 474.843 71.8956 474.451 71.8956 473.956V466.2H74.2056V474.46C74.2056 476.905 72.8522 478.081 70.1456 477.988V475.986ZM81.1507 476.014C81.0013 475.734 80.9127 475.435 80.8847 475.118C80.5393 475.426 80.124 475.683 79.6387 475.888C79.1627 476.084 78.6913 476.182 78.2247 476.182C77.506 476.182 76.932 475.972 76.5027 475.552C76.0827 475.132 75.8727 474.591 75.8727 473.928V468.44H78.1127V473.55C78.1127 473.821 78.2013 474.045 78.3787 474.222C78.5653 474.39 78.808 474.474 79.1067 474.474C79.3027 474.474 79.564 474.404 79.8907 474.264C80.2267 474.124 80.5067 473.97 80.7307 473.802V468.44H82.9707V474.558C82.9707 474.866 82.9893 475.127 83.0267 475.342C83.064 475.547 83.1387 475.771 83.2507 476.014H81.1507ZM87.6809 476.182C86.9902 476.182 86.3836 476.019 85.8609 475.692C85.3382 475.356 84.9369 474.889 84.6569 474.292C84.3769 473.695 84.2369 473.013 84.2369 472.248C84.2369 471.473 84.3769 470.787 84.6569 470.19C84.9462 469.583 85.3476 469.112 85.8609 468.776C86.3836 468.44 86.9902 468.272 87.6809 468.272C87.9982 468.272 88.3156 468.328 88.6329 468.44C88.9596 468.552 89.2629 468.715 89.5429 468.93V465.234H91.7829V474.25C91.7829 474.997 91.8762 475.58 92.0629 476H89.9629C89.8976 475.869 89.8416 475.701 89.7949 475.496C89.2069 475.953 88.5022 476.182 87.6809 476.182ZM86.3789 472.248C86.3789 472.677 86.4629 473.069 86.6309 473.424C86.8082 473.779 87.0369 474.063 87.3169 474.278C87.6062 474.483 87.9096 474.586 88.2269 474.586C88.4789 474.586 88.7542 474.525 89.0529 474.404C89.3609 474.283 89.6129 474.031 89.8089 473.648V470.834C89.6129 470.442 89.3609 470.185 89.0529 470.064C88.7542 469.943 88.4789 469.882 88.2269 469.882C87.9096 469.882 87.6062 469.985 87.3169 470.19C87.0369 470.395 86.8082 470.68 86.6309 471.044C86.4629 471.408 86.3789 471.809 86.3789 472.248ZM96.6569 479.192C96.0875 479.192 95.5135 479.155 94.9349 479.08C94.3655 479.005 93.8522 478.898 93.3949 478.758V476.924C94.3935 477.148 95.3922 477.26 96.3909 477.26C97.0255 477.26 97.5062 477.12 97.8329 476.84C98.1595 476.56 98.3229 476.173 98.3229 475.678C97.8095 476.014 97.1982 476.182 96.4889 476.182C95.7982 476.182 95.1915 476.014 94.6689 475.678C94.1462 475.342 93.7449 474.88 93.4649 474.292C93.1849 473.695 93.0449 473.009 93.0449 472.234C93.0449 471.459 93.1849 470.773 93.4649 470.176C93.7542 469.569 94.1555 469.098 94.6689 468.762C95.1915 468.426 95.7982 468.258 96.4889 468.258C97.1329 468.258 97.7442 468.473 98.3229 468.902V468.44H100.507V475.972C100.507 478.119 99.2235 479.192 96.6569 479.192ZM95.1869 472.234C95.1869 472.663 95.2709 473.055 95.4389 473.41C95.6162 473.765 95.8449 474.049 96.1249 474.264C96.4142 474.469 96.7175 474.572 97.0349 474.572C97.2682 474.572 97.5295 474.521 97.8189 474.418C98.1082 474.306 98.3555 474.077 98.5609 473.732L98.6309 473.452V470.862C98.4349 470.461 98.1829 470.199 97.8749 470.078C97.5669 469.947 97.2869 469.882 97.0349 469.882C96.7175 469.882 96.4142 469.985 96.1249 470.19C95.8449 470.395 95.6162 470.68 95.4389 471.044C95.2709 471.399 95.1869 471.795 95.1869 472.234ZM108.925 475.594C108.57 475.809 108.155 475.967 107.679 476.07C107.212 476.173 106.759 476.224 106.321 476.224C104.827 476.224 103.693 475.869 102.919 475.16C102.153 474.451 101.771 473.457 101.771 472.178C101.771 470.909 102.111 469.938 102.793 469.266C103.483 468.585 104.421 468.244 105.607 468.244C106.783 468.244 107.711 468.585 108.393 469.266C109.083 469.938 109.429 470.909 109.429 472.178C109.429 472.318 109.419 472.519 109.401 472.78H103.955C104.16 473.984 104.949 474.586 106.321 474.586C107.282 474.586 108.15 474.301 108.925 473.732V475.594ZM107.315 471.212C107.193 470.745 106.983 470.4 106.685 470.176C106.386 469.952 106.027 469.84 105.607 469.84C105.215 469.84 104.879 469.957 104.599 470.19C104.328 470.423 104.137 470.764 104.025 471.212H107.315ZM120.407 473.228H117.271L116.529 476H114.079L116.921 466.2H120.771L123.613 476H121.149L120.407 473.228ZM119.959 471.548L118.853 467.446H118.825L117.719 471.548H119.959ZM124.938 466.2H127.248V476H124.938V466.2ZM135.169 468.44V476H132.929V468.44H135.169ZM132.929 465.234H135.169V467.474H132.929V465.234ZM140.057 476.182C139.366 476.182 138.759 476.019 138.237 475.692C137.714 475.356 137.313 474.889 137.033 474.292C136.753 473.695 136.613 473.013 136.613 472.248C136.613 471.473 136.753 470.787 137.033 470.19C137.322 469.583 137.723 469.112 138.237 468.776C138.759 468.44 139.366 468.272 140.057 468.272C140.374 468.272 140.691 468.328 141.009 468.44C141.335 468.552 141.639 468.715 141.919 468.93V465.234H144.159V474.25C144.159 474.997 144.252 475.58 144.439 476H142.339C142.273 475.869 142.217 475.701 142.171 475.496C141.583 475.953 140.878 476.182 140.057 476.182ZM138.755 472.248C138.755 472.677 138.839 473.069 139.007 473.424C139.184 473.779 139.413 474.063 139.693 474.278C139.982 474.483 140.285 474.586 140.603 474.586C140.855 474.586 141.13 474.525 141.429 474.404C141.737 474.283 141.989 474.031 142.185 473.648V470.834C141.989 470.442 141.737 470.185 141.429 470.064C141.13 469.943 140.855 469.882 140.603 469.882C140.285 469.882 139.982 469.985 139.693 470.19C139.413 470.395 139.184 470.68 139.007 471.044C138.839 471.408 138.755 471.809 138.755 472.248ZM152.575 475.594C152.22 475.809 151.805 475.967 151.329 476.07C150.862 476.173 150.409 476.224 149.971 476.224C148.477 476.224 147.343 475.869 146.569 475.16C145.803 474.451 145.421 473.457 145.421 472.178C145.421 470.909 145.761 469.938 146.443 469.266C147.133 468.585 148.071 468.244 149.257 468.244C150.433 468.244 151.361 468.585 152.043 469.266C152.733 469.938 153.079 470.909 153.079 472.178C153.079 472.318 153.069 472.519 153.051 472.78H147.605C147.81 473.984 148.599 474.586 149.971 474.586C150.932 474.586 151.8 474.301 152.575 473.732V475.594ZM150.965 471.212C150.843 470.745 150.633 470.4 150.335 470.176C150.036 469.952 149.677 469.84 149.257 469.84C148.865 469.84 148.529 469.957 148.249 470.19C147.978 470.423 147.787 470.764 147.675 471.212H150.965ZM156.585 468.412V469.322C156.93 469.023 157.322 468.79 157.761 468.622C158.209 468.454 158.652 468.37 159.091 468.37C159.809 468.37 160.379 468.58 160.799 469C161.228 469.42 161.443 469.966 161.443 470.638V475.972H159.203V471.016C159.203 470.745 159.091 470.526 158.867 470.358C158.643 470.181 158.377 470.092 158.069 470.092C157.873 470.092 157.625 470.157 157.327 470.288C157.037 470.419 156.79 470.577 156.585 470.764V475.972H154.345V468.412H156.585ZM163.577 468.44V466.284H165.677V468.44H167.133V470.148H165.677V473.396C165.677 473.667 165.695 473.872 165.733 474.012C165.779 474.152 165.859 474.25 165.971 474.306C166.083 474.353 166.246 474.376 166.461 474.376C166.601 474.376 166.717 474.371 166.811 474.362C166.913 474.353 167.002 474.339 167.077 474.32V476.042C166.685 476.089 166.321 476.112 165.985 476.112C165.341 476.112 164.86 476.047 164.543 475.916C164.225 475.785 163.983 475.561 163.815 475.244C163.656 474.917 163.577 474.455 163.577 473.858V470.148H162.485V468.44H163.577ZM170.678 468.44V476H168.438V468.44H170.678ZM168.438 465.234H170.678V467.474H168.438V465.234ZM172.989 468.44V466.284H175.089V468.44H176.545V470.148H175.089V473.396C175.089 473.667 175.108 473.872 175.145 474.012C175.192 474.152 175.271 474.25 175.383 474.306C175.495 474.353 175.659 474.376 175.873 474.376C176.013 474.376 176.13 474.371 176.223 474.362C176.326 474.353 176.415 474.339 176.489 474.32V476.042C176.097 476.089 175.733 476.112 175.397 476.112C174.753 476.112 174.273 476.047 173.955 475.916C173.638 475.785 173.395 475.561 173.227 475.244C173.069 474.917 172.989 474.455 172.989 473.858V470.148H171.897V468.44H172.989ZM180.09 468.44V476H177.85V468.44H180.09ZM177.85 465.234H180.09V467.474H177.85V465.234ZM188.688 475.594C188.333 475.809 187.918 475.967 187.442 476.07C186.975 476.173 186.523 476.224 186.084 476.224C184.591 476.224 183.457 475.869 182.682 475.16C181.917 474.451 181.534 473.457 181.534 472.178C181.534 470.909 181.875 469.938 182.556 469.266C183.247 468.585 184.185 468.244 185.37 468.244C186.546 468.244 187.475 468.585 188.156 469.266C188.847 469.938 189.192 470.909 189.192 472.178C189.192 472.318 189.183 472.519 189.164 472.78H183.718C183.923 473.984 184.712 474.586 186.084 474.586C187.046 474.586 187.913 474.301 188.688 473.732V475.594ZM187.078 471.212C186.957 470.745 186.747 470.4 186.448 470.176C186.149 469.952 185.79 469.84 185.37 469.84C184.978 469.84 184.642 469.957 184.362 470.19C184.091 470.423 183.9 470.764 183.788 471.212H187.078ZM193.496 476.168C192.927 476.196 192.348 476.149 191.76 476.028C191.181 475.916 190.677 475.739 190.248 475.496V473.48C190.631 473.76 191.088 473.993 191.62 474.18C192.161 474.357 192.637 474.432 193.048 474.404C193.337 474.385 193.547 474.325 193.678 474.222C193.809 474.11 193.883 473.998 193.902 473.886C193.949 473.597 193.879 473.377 193.692 473.228C193.505 473.079 193.155 472.934 192.642 472.794C192.073 472.635 191.62 472.453 191.284 472.248C190.948 472.033 190.691 471.795 190.514 471.534C190.346 471.263 190.262 470.923 190.262 470.512C190.262 470.083 190.374 469.7 190.598 469.364C190.822 469.019 191.177 468.748 191.662 468.552C192.147 468.356 192.67 468.258 193.23 468.258C193.65 468.258 194.075 468.3 194.504 468.384C194.933 468.459 195.293 468.561 195.582 468.692V470.498C195.283 470.349 194.929 470.218 194.518 470.106C194.117 469.985 193.767 469.924 193.468 469.924C192.833 469.924 192.488 470.092 192.432 470.428C192.404 470.624 192.493 470.797 192.698 470.946C192.913 471.095 193.216 471.231 193.608 471.352C194.168 471.529 194.625 471.711 194.98 471.898C195.344 472.085 195.629 472.327 195.834 472.626C196.039 472.925 196.142 473.307 196.142 473.774C196.142 474.465 195.895 475.029 195.4 475.468C194.905 475.897 194.271 476.131 193.496 476.168ZM203.496 468.44V476H201.256V468.44H203.496ZM201.256 465.234H203.496V467.474H201.256V465.234ZM207.46 468.412V469.322C207.805 469.023 208.197 468.79 208.636 468.622C209.084 468.454 209.527 468.37 209.966 468.37C210.685 468.37 211.254 468.58 211.674 469C212.103 469.42 212.318 469.966 212.318 470.638V475.972H210.078V471.016C210.078 470.745 209.966 470.526 209.742 470.358C209.518 470.181 209.252 470.092 208.944 470.092C208.748 470.092 208.501 470.157 208.202 470.288C207.913 470.419 207.665 470.577 207.46 470.764V475.972H205.22V468.412H207.46ZM220.665 468.874L218.859 469.63V467.586L221.267 466.214H222.737V476H220.665V468.874ZM229.468 476.182C227.126 476.182 225.954 474.488 225.954 471.1C225.954 467.712 227.126 466.018 229.468 466.018C231.811 466.018 232.982 467.712 232.982 471.1C232.982 474.488 231.811 476.182 229.468 476.182ZM228.012 471.1C228.012 472.192 228.124 472.995 228.348 473.508C228.582 474.021 228.955 474.278 229.468 474.278C229.982 474.278 230.35 474.021 230.574 473.508C230.808 472.995 230.924 472.192 230.924 471.1C230.924 470.017 230.808 469.219 230.574 468.706C230.35 468.193 229.982 467.936 229.468 467.936C228.955 467.936 228.582 468.193 228.348 468.706C228.124 469.219 228.012 470.017 228.012 471.1ZM241.377 476.182C240.686 476.182 240.08 476.019 239.557 475.692C239.034 475.356 238.633 474.889 238.353 474.292C238.073 473.695 237.933 473.013 237.933 472.248C237.933 471.473 238.073 470.787 238.353 470.19C238.642 469.583 239.044 469.112 239.557 468.776C240.08 468.44 240.686 468.272 241.377 468.272C241.694 468.272 242.012 468.328 242.329 468.44C242.656 468.552 242.959 468.715 243.239 468.93V465.234H245.479V474.25C245.479 474.997 245.572 475.58 245.759 476H243.659C243.594 475.869 243.538 475.701 243.491 475.496C242.903 475.953 242.198 476.182 241.377 476.182ZM240.075 472.248C240.075 472.677 240.159 473.069 240.327 473.424C240.504 473.779 240.733 474.063 241.013 474.278C241.302 474.483 241.606 474.586 241.923 474.586C242.175 474.586 242.45 474.525 242.749 474.404C243.057 474.283 243.309 474.031 243.505 473.648V470.834C243.309 470.442 243.057 470.185 242.749 470.064C242.45 469.943 242.175 469.882 241.923 469.882C241.606 469.882 241.302 469.985 241.013 470.19C240.733 470.395 240.504 470.68 240.327 471.044C240.159 471.408 240.075 471.809 240.075 472.248ZM249.443 468.44V476H247.203V468.44H249.443ZM247.203 465.234H249.443V467.474H247.203V465.234ZM254.387 476.182C253.677 476.182 253.057 476.014 252.525 475.678C252.002 475.342 251.596 474.88 251.307 474.292C251.027 473.704 250.887 473.018 250.887 472.234C250.887 471.459 251.027 470.773 251.307 470.176C251.596 469.569 251.997 469.098 252.511 468.762C253.033 468.426 253.64 468.258 254.331 468.258C254.648 468.258 254.965 468.319 255.283 468.44C255.609 468.552 255.913 468.711 256.193 468.916V468.44H258.433V474.236C258.433 474.992 258.526 475.58 258.713 476H256.613C256.547 475.869 256.491 475.701 256.445 475.496C255.866 475.953 255.18 476.182 254.387 476.182ZM253.029 472.234C253.029 472.663 253.113 473.055 253.281 473.41C253.458 473.765 253.687 474.049 253.967 474.264C254.256 474.469 254.559 474.572 254.877 474.572C255.101 474.572 255.353 474.525 255.633 474.432C255.913 474.329 256.155 474.115 256.361 473.788V470.652C256.155 470.325 255.913 470.115 255.633 470.022C255.362 469.929 255.11 469.882 254.877 469.882C254.559 469.882 254.256 469.985 253.967 470.19C253.687 470.395 253.458 470.68 253.281 471.044C253.113 471.399 253.029 471.795 253.029 472.234ZM262.523 476.112C261.683 476.112 261.048 475.879 260.619 475.412C260.189 474.936 259.975 474.241 259.975 473.326V465.234H262.215V472.766C262.215 473.139 262.243 473.424 262.299 473.62C262.355 473.816 262.448 473.965 262.579 474.068C262.681 474.152 262.793 474.208 262.915 474.236C263.045 474.255 263.269 474.264 263.587 474.264V476.112H262.523ZM268.268 476.182C267.474 476.182 266.774 476.019 266.168 475.692C265.57 475.365 265.108 474.903 264.782 474.306C264.455 473.699 264.292 472.985 264.292 472.164C264.292 470.904 264.646 469.938 265.356 469.266C266.065 468.594 267.036 468.258 268.268 468.258C269.49 468.258 270.456 468.594 271.166 469.266C271.875 469.938 272.23 470.904 272.23 472.164C272.23 472.985 272.066 473.699 271.74 474.306C271.413 474.903 270.951 475.365 270.354 475.692C269.756 476.019 269.061 476.182 268.268 476.182ZM266.504 472.164C266.504 472.883 266.667 473.461 266.994 473.9C267.32 474.339 267.745 474.558 268.268 474.558C268.79 474.558 269.21 474.339 269.528 473.9C269.854 473.461 270.018 472.883 270.018 472.164C270.018 471.417 269.859 470.853 269.542 470.47C269.234 470.078 268.809 469.882 268.268 469.882C267.726 469.882 267.297 470.078 266.98 470.47C266.662 470.853 266.504 471.417 266.504 472.164ZM276.821 479.192C276.252 479.192 275.678 479.155 275.099 479.08C274.53 479.005 274.016 478.898 273.559 478.758V476.924C274.558 477.148 275.556 477.26 276.555 477.26C277.19 477.26 277.67 477.12 277.997 476.84C278.324 476.56 278.487 476.173 278.487 475.678C277.974 476.014 277.362 476.182 276.653 476.182C275.962 476.182 275.356 476.014 274.833 475.678C274.31 475.342 273.909 474.88 273.629 474.292C273.349 473.695 273.209 473.009 273.209 472.234C273.209 471.459 273.349 470.773 273.629 470.176C273.918 469.569 274.32 469.098 274.833 468.762C275.356 468.426 275.962 468.258 276.653 468.258C277.297 468.258 277.908 468.473 278.487 468.902V468.44H280.671V475.972C280.671 478.119 279.388 479.192 276.821 479.192ZM275.351 472.234C275.351 472.663 275.435 473.055 275.603 473.41C275.78 473.765 276.009 474.049 276.289 474.264C276.578 474.469 276.882 474.572 277.199 474.572C277.432 474.572 277.694 474.521 277.983 474.418C278.272 474.306 278.52 474.077 278.725 473.732L278.795 473.452V470.862C278.599 470.461 278.347 470.199 278.039 470.078C277.731 469.947 277.451 469.882 277.199 469.882C276.882 469.882 276.578 469.985 276.289 470.19C276.009 470.395 275.78 470.68 275.603 471.044C275.435 471.399 275.351 471.795 275.351 472.234ZM287.479 476.014C287.33 475.734 287.241 475.435 287.213 475.118C286.868 475.426 286.452 475.683 285.967 475.888C285.491 476.084 285.02 476.182 284.553 476.182C283.834 476.182 283.26 475.972 282.831 475.552C282.411 475.132 282.201 474.591 282.201 473.928V468.44H284.441V473.55C284.441 473.821 284.53 474.045 284.707 474.222C284.894 474.39 285.136 474.474 285.435 474.474C285.631 474.474 285.892 474.404 286.219 474.264C286.555 474.124 286.835 473.97 287.059 473.802V468.44H289.299V474.558C289.299 474.866 289.318 475.127 289.355 475.342C289.392 475.547 289.467 475.771 289.579 476.014H287.479ZM297.719 475.594C297.365 475.809 296.949 475.967 296.473 476.07C296.007 476.173 295.554 476.224 295.115 476.224C293.622 476.224 292.488 475.869 291.713 475.16C290.948 474.451 290.565 473.457 290.565 472.178C290.565 470.909 290.906 469.938 291.587 469.266C292.278 468.585 293.216 468.244 294.401 468.244C295.577 468.244 296.506 468.585 297.187 469.266C297.878 469.938 298.223 470.909 298.223 472.178C298.223 472.318 298.214 472.519 298.195 472.78H292.749C292.955 473.984 293.743 474.586 295.115 474.586C296.077 474.586 296.945 474.301 297.719 473.732V475.594ZM296.109 471.212C295.988 470.745 295.778 470.4 295.479 470.176C295.181 469.952 294.821 469.84 294.401 469.84C294.009 469.84 293.673 469.957 293.393 470.19C293.123 470.423 292.931 470.764 292.819 471.212H296.109ZM306.486 476.182C305.776 476.182 305.156 476.014 304.624 475.678C304.101 475.342 303.695 474.88 303.406 474.292C303.126 473.704 302.986 473.018 302.986 472.234C302.986 471.459 303.126 470.773 303.406 470.176C303.695 469.569 304.096 469.098 304.61 468.762C305.132 468.426 305.739 468.258 306.43 468.258C306.747 468.258 307.064 468.319 307.382 468.44C307.708 468.552 308.012 468.711 308.292 468.916V468.44H310.532V474.236C310.532 474.992 310.625 475.58 310.812 476H308.712C308.646 475.869 308.59 475.701 308.544 475.496C307.965 475.953 307.279 476.182 306.486 476.182ZM305.128 472.234C305.128 472.663 305.212 473.055 305.38 473.41C305.557 473.765 305.786 474.049 306.066 474.264C306.355 474.469 306.658 474.572 306.976 474.572C307.2 474.572 307.452 474.525 307.732 474.432C308.012 474.329 308.254 474.115 308.46 473.788V470.652C308.254 470.325 308.012 470.115 307.732 470.022C307.461 469.929 307.209 469.882 306.976 469.882C306.658 469.882 306.355 469.985 306.066 470.19C305.786 470.395 305.557 470.68 305.38 471.044C305.212 471.399 305.128 471.795 305.128 472.234ZM317.338 476.014C317.188 475.734 317.1 475.435 317.072 475.118C316.726 475.426 316.311 475.683 315.826 475.888C315.35 476.084 314.878 476.182 314.412 476.182C313.693 476.182 313.119 475.972 312.69 475.552C312.27 475.132 312.06 474.591 312.06 473.928V468.44H314.3V473.55C314.3 473.821 314.388 474.045 314.566 474.222C314.752 474.39 314.995 474.474 315.294 474.474C315.49 474.474 315.751 474.404 316.078 474.264C316.414 474.124 316.694 473.97 316.918 473.802V468.44H319.158V474.558C319.158 474.866 319.176 475.127 319.214 475.342C319.251 475.547 319.326 475.771 319.438 476.014H317.338ZM323.868 476.182C323.177 476.182 322.571 476.019 322.048 475.692C321.525 475.356 321.124 474.889 320.844 474.292C320.564 473.695 320.424 473.013 320.424 472.248C320.424 471.473 320.564 470.787 320.844 470.19C321.133 469.583 321.535 469.112 322.048 468.776C322.571 468.44 323.177 468.272 323.868 468.272C324.185 468.272 324.503 468.328 324.82 468.44C325.147 468.552 325.45 468.715 325.73 468.93V465.234H327.97V474.25C327.97 474.997 328.063 475.58 328.25 476H326.15C326.085 475.869 326.029 475.701 325.982 475.496C325.394 475.953 324.689 476.182 323.868 476.182ZM322.566 472.248C322.566 472.677 322.65 473.069 322.818 473.424C322.995 473.779 323.224 474.063 323.504 474.278C323.793 474.483 324.097 474.586 324.414 474.586C324.666 474.586 324.941 474.525 325.24 474.404C325.548 474.283 325.8 474.031 325.996 473.648V470.834C325.8 470.442 325.548 470.185 325.24 470.064C324.941 469.943 324.666 469.882 324.414 469.882C324.097 469.882 323.793 469.985 323.504 470.19C323.224 470.395 322.995 470.68 322.818 471.044C322.65 471.408 322.566 471.809 322.566 472.248ZM331.934 468.44V476H329.694V468.44H331.934ZM329.694 465.234H331.934V467.474H329.694V465.234ZM337.354 476.182C336.56 476.182 335.86 476.019 335.254 475.692C334.656 475.365 334.194 474.903 333.868 474.306C333.541 473.699 333.378 472.985 333.378 472.164C333.378 470.904 333.732 469.938 334.442 469.266C335.151 468.594 336.122 468.258 337.354 468.258C338.576 468.258 339.542 468.594 340.252 469.266C340.961 469.938 341.316 470.904 341.316 472.164C341.316 472.985 341.152 473.699 340.826 474.306C340.499 474.903 340.037 475.365 339.44 475.692C338.842 476.019 338.147 476.182 337.354 476.182ZM335.59 472.164C335.59 472.883 335.753 473.461 336.08 473.9C336.406 474.339 336.831 474.558 337.354 474.558C337.876 474.558 338.296 474.339 338.614 473.9C338.94 473.461 339.104 472.883 339.104 472.164C339.104 471.417 338.945 470.853 338.628 470.47C338.32 470.078 337.895 469.882 337.354 469.882C336.812 469.882 336.383 470.078 336.066 470.47C335.748 470.853 335.59 471.417 335.59 472.164ZM345.613 476.168C345.044 476.196 344.465 476.149 343.877 476.028C343.299 475.916 342.795 475.739 342.365 475.496V473.48C342.748 473.76 343.205 473.993 343.737 474.18C344.279 474.357 344.755 474.432 345.165 474.404C345.455 474.385 345.665 474.325 345.795 474.222C345.926 474.11 346.001 473.998 346.019 473.886C346.066 473.597 345.996 473.377 345.809 473.228C345.623 473.079 345.273 472.934 344.759 472.794C344.19 472.635 343.737 472.453 343.401 472.248C343.065 472.033 342.809 471.795 342.631 471.534C342.463 471.263 342.379 470.923 342.379 470.512C342.379 470.083 342.491 469.7 342.715 469.364C342.939 469.019 343.294 468.748 343.779 468.552C344.265 468.356 344.787 468.258 345.347 468.258C345.767 468.258 346.192 468.3 346.621 468.384C347.051 468.459 347.41 468.561 347.699 468.692V470.498C347.401 470.349 347.046 470.218 346.635 470.106C346.234 469.985 345.884 469.924 345.585 469.924C344.951 469.924 344.605 470.092 344.549 470.428C344.521 470.624 344.61 470.797 344.815 470.946C345.03 471.095 345.333 471.231 345.725 471.352C346.285 471.529 346.743 471.711 347.097 471.898C347.461 472.085 347.746 472.327 347.951 472.626C348.157 472.925 348.259 473.307 348.259 473.774C348.259 474.465 348.012 475.029 347.517 475.468C347.023 475.897 346.388 476.131 345.613 476.168ZM76.9669 499.182C75.9029 499.182 74.9555 498.986 74.1249 498.594C73.3035 498.202 72.6549 497.633 72.1789 496.886C71.7122 496.139 71.4789 495.253 71.4789 494.226C71.4789 493.143 71.7075 492.215 72.1649 491.44C72.6222 490.656 73.2615 490.059 74.0829 489.648C74.9042 489.228 75.8422 489.018 76.8969 489.018C77.4195 489.018 77.9469 489.069 78.4789 489.172C79.0109 489.275 79.4495 489.405 79.7949 489.564V491.3C78.8522 490.955 77.9749 490.782 77.1629 490.782C76.1922 490.782 75.4035 491.067 74.7969 491.636C74.1995 492.205 73.9009 493.069 73.9009 494.226C73.9009 494.842 74.0502 495.388 74.3489 495.864C74.6475 496.331 75.0395 496.695 75.5249 496.956C76.0102 497.217 76.5329 497.367 77.0929 497.404L77.4009 497.418C77.8302 497.418 78.2549 497.357 78.6749 497.236C79.0949 497.115 79.4682 496.951 79.7949 496.746V498.678C79.3935 498.865 78.9642 498.995 78.5069 499.07C78.0589 499.145 77.5455 499.182 76.9669 499.182ZM85.0252 499.182C84.2318 499.182 83.5318 499.019 82.9252 498.692C82.3278 498.365 81.8658 497.903 81.5392 497.306C81.2125 496.699 81.0492 495.985 81.0492 495.164C81.0492 493.904 81.4038 492.938 82.1132 492.266C82.8225 491.594 83.7932 491.258 85.0252 491.258C86.2478 491.258 87.2138 491.594 87.9232 492.266C88.6325 492.938 88.9872 493.904 88.9872 495.164C88.9872 495.985 88.8238 496.699 88.4972 497.306C88.1705 497.903 87.7085 498.365 87.1112 498.692C86.5138 499.019 85.8185 499.182 85.0252 499.182ZM83.2612 495.164C83.2612 495.883 83.4245 496.461 83.7512 496.9C84.0778 497.339 84.5025 497.558 85.0252 497.558C85.5478 497.558 85.9678 497.339 86.2852 496.9C86.6118 496.461 86.7752 495.883 86.7752 495.164C86.7752 494.417 86.6165 493.853 86.2992 493.47C85.9912 493.078 85.5665 492.882 85.0252 492.882C84.4838 492.882 84.0545 493.078 83.7372 493.47C83.4198 493.853 83.2612 494.417 83.2612 495.164ZM92.4865 491.44V492.252C92.7292 491.991 93.0185 491.79 93.3545 491.65C93.6999 491.501 94.0405 491.426 94.3765 491.426C94.6099 491.426 94.8292 491.459 95.0345 491.524V493.246C94.7732 493.181 94.5259 493.148 94.2925 493.148C93.9379 493.148 93.6019 493.209 93.2845 493.33C92.9672 493.442 92.7012 493.624 92.4865 493.876V499H90.2465V491.44H92.4865ZM98.3414 491.44V492.252C98.584 491.991 98.8734 491.79 99.2094 491.65C99.5547 491.501 99.8954 491.426 100.231 491.426C100.465 491.426 100.684 491.459 100.889 491.524V493.246C100.628 493.181 100.381 493.148 100.147 493.148C99.7927 493.148 99.4567 493.209 99.1394 493.33C98.822 493.442 98.556 493.624 98.3414 493.876V499H96.1014V491.44H98.3414ZM108.557 498.594C108.202 498.809 107.787 498.967 107.311 499.07C106.844 499.173 106.391 499.224 105.953 499.224C104.459 499.224 103.325 498.869 102.551 498.16C101.785 497.451 101.403 496.457 101.403 495.178C101.403 493.909 101.743 492.938 102.425 492.266C103.115 491.585 104.053 491.244 105.239 491.244C106.415 491.244 107.343 491.585 108.025 492.266C108.715 492.938 109.061 493.909 109.061 495.178C109.061 495.318 109.051 495.519 109.033 495.78H103.587C103.792 496.984 104.581 497.586 105.953 497.586C106.914 497.586 107.782 497.301 108.557 496.732V498.594ZM106.947 494.212C106.825 493.745 106.615 493.4 106.317 493.176C106.018 492.952 105.659 492.84 105.239 492.84C104.847 492.84 104.511 492.957 104.231 493.19C103.96 493.423 103.769 493.764 103.657 494.212H106.947ZM116.627 498.748C115.908 499.037 115.171 499.182 114.415 499.182C113.621 499.182 112.889 499.023 112.217 498.706C111.554 498.379 111.027 497.922 110.635 497.334C110.243 496.737 110.047 496.051 110.047 495.276C110.047 494.464 110.233 493.755 110.607 493.148C110.98 492.541 111.489 492.079 112.133 491.762C112.786 491.435 113.514 491.272 114.317 491.272C115.045 491.272 115.782 491.403 116.529 491.664V493.386C115.959 493.143 115.376 493.022 114.779 493.022C114.041 493.022 113.43 493.199 112.945 493.554C112.459 493.899 112.217 494.473 112.217 495.276C112.217 495.733 112.343 496.121 112.595 496.438C112.847 496.755 113.173 496.998 113.575 497.166C113.976 497.325 114.401 497.404 114.849 497.404C115.194 497.404 115.521 497.357 115.829 497.264C116.146 497.161 116.412 497.021 116.627 496.844V498.748ZM118.479 491.44V489.284H120.579V491.44H122.035V493.148H120.579V496.396C120.579 496.667 120.597 496.872 120.635 497.012C120.681 497.152 120.761 497.25 120.873 497.306C120.985 497.353 121.148 497.376 121.363 497.376C121.503 497.376 121.619 497.371 121.713 497.362C121.815 497.353 121.904 497.339 121.979 497.32V499.042C121.587 499.089 121.223 499.112 120.887 499.112C120.243 499.112 119.762 499.047 119.445 498.916C119.127 498.785 118.885 498.561 118.717 498.244C118.558 497.917 118.479 497.455 118.479 496.858V493.148H117.387V491.44H118.479ZM127.315 496.704V499H125.019V496.704H127.315ZM125.019 491.44H127.315V493.736H125.019V491.44ZM141.321 495.682V498.44H139.543V495.682H136.785V493.904H139.543V491.16H141.321V493.904H144.079V495.682H141.321ZM148.35 491.874L146.544 492.63V490.586L148.952 489.214H150.422V499H148.35V491.874ZM153.444 502.192C153.556 501.875 153.631 501.431 153.668 500.862C153.705 500.293 153.724 499.775 153.724 499.308V491.44H155.964V492.14C156.272 491.86 156.608 491.645 156.972 491.496C157.345 491.337 157.719 491.258 158.092 491.258C158.783 491.258 159.385 491.426 159.898 491.762C160.421 492.098 160.822 492.569 161.102 493.176C161.391 493.773 161.536 494.459 161.536 495.234C161.536 496.009 161.396 496.695 161.116 497.292C160.836 497.88 160.435 498.342 159.912 498.678C159.389 499.014 158.783 499.182 158.092 499.182C157.252 499.182 156.543 498.939 155.964 498.454V499.308C155.964 499.803 155.936 500.33 155.88 500.89C155.833 501.459 155.768 501.893 155.684 502.192H153.444ZM155.964 496.634C156.16 497.017 156.407 497.269 156.706 497.39C157.014 497.511 157.294 497.572 157.546 497.572C157.863 497.572 158.162 497.469 158.442 497.264C158.731 497.049 158.96 496.765 159.128 496.41C159.305 496.055 159.394 495.663 159.394 495.234C159.394 494.795 159.305 494.399 159.128 494.044C158.96 493.68 158.731 493.395 158.442 493.19C158.162 492.985 157.863 492.882 157.546 492.882C157.294 492.882 157.014 492.943 156.706 493.064C156.407 493.185 156.16 493.437 155.964 493.82V496.634ZM163.311 491.44V489.284H165.411V491.44H166.867V493.148H165.411V496.396C165.411 496.667 165.43 496.872 165.467 497.012C165.514 497.152 165.593 497.25 165.705 497.306C165.817 497.353 165.981 497.376 166.195 497.376C166.335 497.376 166.452 497.371 166.545 497.362C166.648 497.353 166.737 497.339 166.811 497.32V499.042C166.419 499.089 166.055 499.112 165.719 499.112C165.075 499.112 164.595 499.047 164.277 498.916C163.96 498.785 163.717 498.561 163.549 498.244C163.391 497.917 163.311 497.455 163.311 496.858V493.148H162.219V491.44H163.311ZM171.028 499.168C170.459 499.196 169.88 499.149 169.292 499.028C168.714 498.916 168.21 498.739 167.78 498.496V496.48C168.163 496.76 168.62 496.993 169.152 497.18C169.694 497.357 170.17 497.432 170.58 497.404C170.87 497.385 171.08 497.325 171.21 497.222C171.341 497.11 171.416 496.998 171.434 496.886C171.481 496.597 171.411 496.377 171.224 496.228C171.038 496.079 170.688 495.934 170.174 495.794C169.605 495.635 169.152 495.453 168.816 495.248C168.48 495.033 168.224 494.795 168.046 494.534C167.878 494.263 167.794 493.923 167.794 493.512C167.794 493.083 167.906 492.7 168.13 492.364C168.354 492.019 168.709 491.748 169.194 491.552C169.68 491.356 170.202 491.258 170.762 491.258C171.182 491.258 171.607 491.3 172.036 491.384C172.466 491.459 172.825 491.561 173.114 491.692V493.498C172.816 493.349 172.461 493.218 172.05 493.106C171.649 492.985 171.299 492.924 171 492.924C170.366 492.924 170.02 493.092 169.964 493.428C169.936 493.624 170.025 493.797 170.23 493.946C170.445 494.095 170.748 494.231 171.14 494.352C171.7 494.529 172.158 494.711 172.512 494.898C172.876 495.085 173.161 495.327 173.366 495.626C173.572 495.925 173.674 496.307 173.674 496.774C173.674 497.465 173.427 498.029 172.932 498.468C172.438 498.897 171.803 499.131 171.028 499.168ZM176.957 496.704H179.113L177.349 500.848H175.711L176.957 496.704ZM194.617 492.658H194.561L193.455 499H190.641L188.261 489.2H190.669L192.069 496.592H192.125L193.525 489.2H195.639L197.039 496.592H197.095L198.495 489.2H200.903L198.523 499H195.709L194.617 492.658ZM203.764 491.44V492.252C204.006 491.991 204.296 491.79 204.632 491.65C204.977 491.501 205.318 491.426 205.654 491.426C205.887 491.426 206.106 491.459 206.312 491.524V493.246C206.05 493.181 205.803 493.148 205.57 493.148C205.215 493.148 204.879 493.209 204.562 493.33C204.244 493.442 203.978 493.624 203.764 493.876V499H201.524V491.44H203.764ZM210.801 499.182C210.008 499.182 209.308 499.019 208.701 498.692C208.104 498.365 207.642 497.903 207.315 497.306C206.988 496.699 206.825 495.985 206.825 495.164C206.825 493.904 207.18 492.938 207.889 492.266C208.598 491.594 209.569 491.258 210.801 491.258C212.024 491.258 212.99 491.594 213.699 492.266C214.408 492.938 214.763 493.904 214.763 495.164C214.763 495.985 214.6 496.699 214.273 497.306C213.946 497.903 213.484 498.365 212.887 498.692C212.29 499.019 211.594 499.182 210.801 499.182ZM209.037 495.164C209.037 495.883 209.2 496.461 209.527 496.9C209.854 497.339 210.278 497.558 210.801 497.558C211.324 497.558 211.744 497.339 212.061 496.9C212.388 496.461 212.551 495.883 212.551 495.164C212.551 494.417 212.392 493.853 212.075 493.47C211.767 493.078 211.342 492.882 210.801 492.882C210.26 492.882 209.83 493.078 209.513 493.47C209.196 493.853 209.037 494.417 209.037 495.164ZM218.262 491.412V492.322C218.608 492.023 219 491.79 219.438 491.622C219.886 491.454 220.33 491.37 220.768 491.37C221.487 491.37 222.056 491.58 222.476 492C222.906 492.42 223.12 492.966 223.12 493.638V498.972H220.88V494.016C220.88 493.745 220.768 493.526 220.544 493.358C220.32 493.181 220.054 493.092 219.746 493.092C219.55 493.092 219.303 493.157 219.004 493.288C218.715 493.419 218.468 493.577 218.262 493.764V498.972H216.022V491.412H218.262ZM227.998 502.192C227.429 502.192 226.855 502.155 226.276 502.08C225.707 502.005 225.194 501.898 224.736 501.758V499.924C225.735 500.148 226.734 500.26 227.732 500.26C228.367 500.26 228.848 500.12 229.174 499.84C229.501 499.56 229.664 499.173 229.664 498.678C229.151 499.014 228.54 499.182 227.83 499.182C227.14 499.182 226.533 499.014 226.01 498.678C225.488 498.342 225.086 497.88 224.806 497.292C224.526 496.695 224.386 496.009 224.386 495.234C224.386 494.459 224.526 493.773 224.806 493.176C225.096 492.569 225.497 492.098 226.01 491.762C226.533 491.426 227.14 491.258 227.83 491.258C228.474 491.258 229.086 491.473 229.664 491.902V491.44H231.848V498.972C231.848 501.119 230.565 502.192 227.998 502.192ZM226.528 495.234C226.528 495.663 226.612 496.055 226.78 496.41C226.958 496.765 227.186 497.049 227.466 497.264C227.756 497.469 228.059 497.572 228.376 497.572C228.61 497.572 228.871 497.521 229.16 497.418C229.45 497.306 229.697 497.077 229.902 496.732L229.972 496.452V493.862C229.776 493.461 229.524 493.199 229.216 493.078C228.908 492.947 228.628 492.882 228.376 492.882C228.059 492.882 227.756 492.985 227.466 493.19C227.186 493.395 226.958 493.68 226.78 494.044C226.612 494.399 226.528 494.795 226.528 495.234ZM237.55 496.704V499H235.254V496.704H237.55ZM235.254 491.44H237.55V493.736H235.254V491.44ZM251.835 493.89V495.514H247.537V493.89H251.835ZM254.151 497.208C254.879 496.583 255.519 496.004 256.069 495.472C256.62 494.94 257.115 494.375 257.553 493.778C257.992 493.171 258.211 492.644 258.211 492.196C258.211 491.739 258.043 491.384 257.707 491.132C257.371 490.871 256.933 490.74 256.391 490.74C256.009 490.74 255.589 490.815 255.131 490.964C254.683 491.113 254.24 491.323 253.801 491.594V489.97C254.249 489.69 254.753 489.461 255.313 489.284C255.883 489.107 256.424 489.018 256.937 489.018C257.983 489.018 258.809 489.275 259.415 489.788C260.031 490.292 260.339 490.983 260.339 491.86C260.339 492.485 260.129 493.157 259.709 493.876C259.289 494.585 258.809 495.22 258.267 495.78C257.726 496.331 257.082 496.937 256.335 497.6L255.929 497.32H260.409V499H253.619V497.656L254.151 497.208ZM261.737 502.192C261.849 501.875 261.924 501.431 261.961 500.862C261.999 500.293 262.017 499.775 262.017 499.308V491.44H264.257V492.14C264.565 491.86 264.901 491.645 265.265 491.496C265.639 491.337 266.012 491.258 266.385 491.258C267.076 491.258 267.678 491.426 268.191 491.762C268.714 492.098 269.115 492.569 269.395 493.176C269.685 493.773 269.829 494.459 269.829 495.234C269.829 496.009 269.689 496.695 269.409 497.292C269.129 497.88 268.728 498.342 268.205 498.678C267.683 499.014 267.076 499.182 266.385 499.182C265.545 499.182 264.836 498.939 264.257 498.454V499.308C264.257 499.803 264.229 500.33 264.173 500.89C264.127 501.459 264.061 501.893 263.977 502.192H261.737ZM264.257 496.634C264.453 497.017 264.701 497.269 264.999 497.39C265.307 497.511 265.587 497.572 265.839 497.572C266.157 497.572 266.455 497.469 266.735 497.264C267.025 497.049 267.253 496.765 267.421 496.41C267.599 496.055 267.687 495.663 267.687 495.234C267.687 494.795 267.599 494.399 267.421 494.044C267.253 493.68 267.025 493.395 266.735 493.19C266.455 492.985 266.157 492.882 265.839 492.882C265.587 492.882 265.307 492.943 264.999 493.064C264.701 493.185 264.453 493.437 264.257 493.82V496.634ZM271.605 491.44V489.284H273.705V491.44H275.161V493.148H273.705V496.396C273.705 496.667 273.723 496.872 273.761 497.012C273.807 497.152 273.887 497.25 273.999 497.306C274.111 497.353 274.274 497.376 274.489 497.376C274.629 497.376 274.745 497.371 274.839 497.362C274.941 497.353 275.03 497.339 275.105 497.32V499.042C274.713 499.089 274.349 499.112 274.013 499.112C273.369 499.112 272.888 499.047 272.571 498.916C272.253 498.785 272.011 498.561 271.843 498.244C271.684 497.917 271.605 497.455 271.605 496.858V493.148H270.513V491.44H271.605ZM279.322 499.168C278.752 499.196 278.174 499.149 277.586 499.028C277.007 498.916 276.503 498.739 276.074 498.496V496.48C276.456 496.76 276.914 496.993 277.446 497.18C277.987 497.357 278.463 497.432 278.874 497.404C279.163 497.385 279.373 497.325 279.504 497.222C279.634 497.11 279.709 496.998 279.728 496.886C279.774 496.597 279.704 496.377 279.518 496.228C279.331 496.079 278.981 495.934 278.468 495.794C277.898 495.635 277.446 495.453 277.11 495.248C276.774 495.033 276.517 494.795 276.34 494.534C276.172 494.263 276.088 493.923 276.088 493.512C276.088 493.083 276.2 492.7 276.424 492.364C276.648 492.019 277.002 491.748 277.488 491.552C277.973 491.356 278.496 491.258 279.056 491.258C279.476 491.258 279.9 491.3 280.33 491.384C280.759 491.459 281.118 491.561 281.408 491.692V493.498C281.109 493.349 280.754 493.218 280.344 493.106C279.942 492.985 279.592 492.924 279.294 492.924C278.659 492.924 278.314 493.092 278.258 493.428C278.23 493.624 278.318 493.797 278.524 493.946C278.738 494.095 279.042 494.231 279.434 494.352C279.994 494.529 280.451 494.711 280.806 494.898C281.17 495.085 281.454 495.327 281.66 495.626C281.865 495.925 281.968 496.307 281.968 496.774C281.968 497.465 281.72 498.029 281.226 498.468C280.731 498.897 280.096 499.131 279.322 499.168ZM292.209 500.68C291.518 499.625 290.995 498.594 290.641 497.586C290.286 496.578 290.109 495.533 290.109 494.45C290.109 493.367 290.286 492.322 290.641 491.314C290.995 490.306 291.518 489.228 292.209 488.08H294.253C293.59 489.191 293.091 490.264 292.755 491.3C292.428 492.336 292.265 493.363 292.265 494.38C292.265 495.397 292.428 496.424 292.755 497.46C293.091 498.496 293.59 499.569 294.253 500.68H292.209ZM299.503 491.426V492.224C299.839 491.953 300.212 491.743 300.623 491.594C301.033 491.445 301.449 491.37 301.869 491.37C302.289 491.37 302.653 491.449 302.961 491.608C303.269 491.757 303.511 491.967 303.689 492.238C304.034 491.958 304.412 491.743 304.823 491.594C305.233 491.445 305.649 491.37 306.069 491.37C306.778 491.37 307.324 491.58 307.707 492C308.089 492.42 308.281 492.966 308.281 493.638V499H306.041V494.016C306.041 493.745 305.947 493.526 305.761 493.358C305.583 493.181 305.345 493.092 305.047 493.092C304.916 493.092 304.762 493.12 304.585 493.176C304.407 493.232 304.235 493.307 304.067 493.4C304.076 493.456 304.081 493.535 304.081 493.638V499H301.841V494.016C301.841 493.745 301.747 493.526 301.561 493.358C301.383 493.181 301.145 493.092 300.847 493.092C300.669 493.092 300.45 493.143 300.189 493.246C299.927 493.349 299.699 493.484 299.503 493.652V499H297.263V491.426H299.503ZM312.239 491.44V499H309.999V491.44H312.239ZM309.999 488.234H312.239V490.474H309.999V488.234ZM316.203 491.412V492.322C316.548 492.023 316.94 491.79 317.379 491.622C317.827 491.454 318.27 491.37 318.709 491.37C319.427 491.37 319.997 491.58 320.417 492C320.846 492.42 321.061 492.966 321.061 493.638V498.972H318.821V494.016C318.821 493.745 318.709 493.526 318.485 493.358C318.261 493.181 317.995 493.092 317.687 493.092C317.491 493.092 317.243 493.157 316.945 493.288C316.655 493.419 316.408 493.577 316.203 493.764V498.972H313.963V491.412H316.203ZM329.813 499.182C327.471 499.182 326.299 497.488 326.299 494.1C326.299 490.712 327.471 489.018 329.813 489.018C332.156 489.018 333.327 490.712 333.327 494.1C333.327 497.488 332.156 499.182 329.813 499.182ZM328.357 494.1C328.357 495.192 328.469 495.995 328.693 496.508C328.927 497.021 329.3 497.278 329.813 497.278C330.327 497.278 330.695 497.021 330.919 496.508C331.153 495.995 331.269 495.192 331.269 494.1C331.269 493.017 331.153 492.219 330.919 491.706C330.695 491.193 330.327 490.936 329.813 490.936C329.3 490.936 328.927 491.193 328.693 491.706C328.469 492.219 328.357 493.017 328.357 494.1ZM336.251 500.68C336.914 499.569 337.408 498.496 337.735 497.46C338.071 496.424 338.239 495.397 338.239 494.38C338.239 493.363 338.071 492.336 337.735 491.3C337.408 490.264 336.914 489.191 336.251 488.08H338.295C338.986 489.228 339.508 490.306 339.863 491.314C340.218 492.322 340.395 493.367 340.395 494.45C340.395 495.533 340.218 496.578 339.863 497.586C339.508 498.594 338.986 499.625 338.295 500.68H336.251ZM125.239 522.182C124.259 522.182 123.307 521.967 122.383 521.538V519.606C122.793 519.905 123.232 520.129 123.699 520.278C124.175 520.418 124.646 520.488 125.113 520.488C125.635 520.488 126.037 520.376 126.317 520.152C126.597 519.919 126.737 519.578 126.737 519.13C126.737 518.626 126.564 518.248 126.219 517.996C125.873 517.735 125.416 517.604 124.847 517.604H123.447V516.19H124.707C125.267 516.19 125.701 516.069 126.009 515.826C126.317 515.574 126.471 515.229 126.471 514.79C126.471 514.426 126.331 514.141 126.051 513.936C125.771 513.731 125.397 513.628 124.931 513.628C124.595 513.628 124.221 513.675 123.811 513.768C123.4 513.852 123.027 513.973 122.691 514.132V512.62C123.064 512.424 123.479 512.275 123.937 512.172C124.403 512.069 124.865 512.018 125.323 512.018C126.293 512.018 127.063 512.251 127.633 512.718C128.202 513.175 128.491 513.801 128.501 514.594C128.501 515.089 128.37 515.532 128.109 515.924C127.847 516.316 127.474 516.624 126.989 516.848C127.549 517.053 127.978 517.366 128.277 517.786C128.585 518.206 128.739 518.701 128.739 519.27C128.739 519.839 128.594 520.343 128.305 520.782C128.025 521.221 127.619 521.566 127.087 521.818C126.555 522.061 125.939 522.182 125.239 522.182ZM134.099 519.592H134.043L132.461 522H130.165L132.811 518.248L130.109 514.44H132.377L134.043 516.918H134.099L135.765 514.44H138.033L135.331 518.248L137.977 522H135.681L134.099 519.592ZM149.235 521.748C148.517 522.037 147.779 522.182 147.023 522.182C146.23 522.182 145.497 522.023 144.825 521.706C144.163 521.379 143.635 520.922 143.243 520.334C142.851 519.737 142.655 519.051 142.655 518.276C142.655 517.464 142.842 516.755 143.215 516.148C143.589 515.541 144.097 515.079 144.741 514.762C145.395 514.435 146.123 514.272 146.925 514.272C147.653 514.272 148.391 514.403 149.137 514.664V516.386C148.568 516.143 147.985 516.022 147.387 516.022C146.65 516.022 146.039 516.199 145.553 516.554C145.068 516.899 144.825 517.473 144.825 518.276C144.825 518.733 144.951 519.121 145.203 519.438C145.455 519.755 145.782 519.998 146.183 520.166C146.585 520.325 147.009 520.404 147.457 520.404C147.803 520.404 148.129 520.357 148.437 520.264C148.755 520.161 149.021 520.021 149.235 519.844V521.748ZM154.195 522.182C153.402 522.182 152.702 522.019 152.095 521.692C151.498 521.365 151.036 520.903 150.709 520.306C150.383 519.699 150.219 518.985 150.219 518.164C150.219 516.904 150.574 515.938 151.283 515.266C151.993 514.594 152.963 514.258 154.195 514.258C155.418 514.258 156.384 514.594 157.093 515.266C157.803 515.938 158.157 516.904 158.157 518.164C158.157 518.985 157.994 519.699 157.667 520.306C157.341 520.903 156.879 521.365 156.281 521.692C155.684 522.019 154.989 522.182 154.195 522.182ZM152.431 518.164C152.431 518.883 152.595 519.461 152.921 519.9C153.248 520.339 153.673 520.558 154.195 520.558C154.718 520.558 155.138 520.339 155.455 519.9C155.782 519.461 155.945 518.883 155.945 518.164C155.945 517.417 155.787 516.853 155.469 516.47C155.161 516.078 154.737 515.882 154.195 515.882C153.654 515.882 153.225 516.078 152.907 516.47C152.59 516.853 152.431 517.417 152.431 518.164ZM161.657 514.426V515.224C161.993 514.953 162.366 514.743 162.777 514.594C163.187 514.445 163.603 514.37 164.023 514.37C164.443 514.37 164.807 514.449 165.115 514.608C165.423 514.757 165.665 514.967 165.843 515.238C166.188 514.958 166.566 514.743 166.977 514.594C167.387 514.445 167.803 514.37 168.223 514.37C168.932 514.37 169.478 514.58 169.861 515C170.243 515.42 170.435 515.966 170.435 516.638V522H168.195V517.016C168.195 516.745 168.101 516.526 167.915 516.358C167.737 516.181 167.499 516.092 167.201 516.092C167.07 516.092 166.916 516.12 166.739 516.176C166.561 516.232 166.389 516.307 166.221 516.4C166.23 516.456 166.235 516.535 166.235 516.638V522H163.995V517.016C163.995 516.745 163.901 516.526 163.715 516.358C163.537 516.181 163.299 516.092 163.001 516.092C162.823 516.092 162.604 516.143 162.343 516.246C162.081 516.349 161.853 516.484 161.657 516.652V522H159.417V514.426H161.657ZM176.073 522.182C175.251 522.182 174.547 521.953 173.959 521.496C173.912 521.701 173.856 521.869 173.791 522H171.691C171.877 521.58 171.971 520.997 171.971 520.25V511.234H174.211V514.93C174.491 514.715 174.789 514.552 175.107 514.44C175.433 514.328 175.755 514.272 176.073 514.272C176.763 514.272 177.365 514.44 177.879 514.776C178.401 515.112 178.803 515.583 179.083 516.19C179.372 516.787 179.517 517.473 179.517 518.248C179.517 519.013 179.377 519.695 179.097 520.292C178.817 520.889 178.415 521.356 177.893 521.692C177.37 522.019 176.763 522.182 176.073 522.182ZM173.973 519.69C174.169 520.063 174.416 520.306 174.715 520.418C175.013 520.53 175.284 520.586 175.527 520.586C175.844 520.586 176.143 520.483 176.423 520.278C176.712 520.063 176.941 519.779 177.109 519.424C177.286 519.069 177.375 518.677 177.375 518.248C177.375 517.809 177.286 517.408 177.109 517.044C176.941 516.68 176.712 516.395 176.423 516.19C176.143 515.985 175.844 515.882 175.527 515.882C175.284 515.882 175.013 515.943 174.715 516.064C174.416 516.176 174.169 516.414 173.973 516.778V519.69ZM184.475 522.182C183.681 522.182 182.981 522.019 182.375 521.692C181.777 521.365 181.315 520.903 180.989 520.306C180.662 519.699 180.499 518.985 180.499 518.164C180.499 516.904 180.853 515.938 181.563 515.266C182.272 514.594 183.243 514.258 184.475 514.258C185.697 514.258 186.663 514.594 187.373 515.266C188.082 515.938 188.437 516.904 188.437 518.164C188.437 518.985 188.273 519.699 187.947 520.306C187.62 520.903 187.158 521.365 186.561 521.692C185.963 522.019 185.268 522.182 184.475 522.182ZM182.711 518.164C182.711 518.883 182.874 519.461 183.201 519.9C183.527 520.339 183.952 520.558 184.475 520.558C184.997 520.558 185.417 520.339 185.735 519.9C186.061 519.461 186.225 518.883 186.225 518.164C186.225 517.417 186.066 516.853 185.749 516.47C185.441 516.078 185.016 515.882 184.475 515.882C183.933 515.882 183.504 516.078 183.187 516.47C182.869 516.853 182.711 517.417 182.711 518.164ZM194.201 516.148H192.871V514.44H194.201V513.446C194.201 512.849 194.28 512.391 194.439 512.074C194.607 511.747 194.887 511.519 195.279 511.388C195.68 511.257 196.203 511.192 196.847 511.192C197.043 511.192 197.253 511.201 197.477 511.22C197.701 511.229 197.901 511.243 198.079 511.262V512.956C198.004 512.937 197.878 512.923 197.701 512.914C197.523 512.905 197.365 512.9 197.225 512.9C197.01 512.9 196.847 512.928 196.735 512.984C196.623 513.031 196.543 513.124 196.497 513.264C196.459 513.404 196.441 513.609 196.441 513.88V514.44H198.289V516.148H196.441V522H194.201V516.148ZM202.914 522.182C202.121 522.182 201.421 522.019 200.814 521.692C200.217 521.365 199.755 520.903 199.428 520.306C199.102 519.699 198.938 518.985 198.938 518.164C198.938 516.904 199.293 515.938 200.002 515.266C200.712 514.594 201.682 514.258 202.914 514.258C204.137 514.258 205.103 514.594 205.812 515.266C206.522 515.938 206.876 516.904 206.876 518.164C206.876 518.985 206.713 519.699 206.386 520.306C206.06 520.903 205.598 521.365 205 521.692C204.403 522.019 203.708 522.182 202.914 522.182ZM201.15 518.164C201.15 518.883 201.314 519.461 201.64 519.9C201.967 520.339 202.392 520.558 202.914 520.558C203.437 520.558 203.857 520.339 204.174 519.9C204.501 519.461 204.664 518.883 204.664 518.164C204.664 517.417 204.506 516.853 204.188 516.47C203.88 516.078 203.456 515.882 202.914 515.882C202.373 515.882 201.944 516.078 201.626 516.47C201.309 516.853 201.15 517.417 201.15 518.164ZM210.376 514.44V515.252C210.618 514.991 210.908 514.79 211.244 514.65C211.589 514.501 211.93 514.426 212.266 514.426C212.499 514.426 212.718 514.459 212.924 514.524V516.246C212.662 516.181 212.415 516.148 212.182 516.148C211.827 516.148 211.491 516.209 211.174 516.33C210.856 516.442 210.59 516.624 210.376 516.876V522H208.136V514.44H210.376ZM221.869 522.182C221.048 522.182 220.343 521.953 219.755 521.496C219.708 521.701 219.652 521.869 219.587 522H217.487C217.674 521.58 217.767 520.997 217.767 520.25V511.234H220.007V514.93C220.287 514.715 220.586 514.552 220.903 514.44C221.23 514.328 221.552 514.272 221.869 514.272C222.56 514.272 223.162 514.44 223.675 514.776C224.198 515.112 224.599 515.583 224.879 516.19C225.168 516.787 225.313 517.473 225.313 518.248C225.313 519.013 225.173 519.695 224.893 520.292C224.613 520.889 224.212 521.356 223.689 521.692C223.166 522.019 222.56 522.182 221.869 522.182ZM219.769 519.69C219.965 520.063 220.212 520.306 220.511 520.418C220.81 520.53 221.08 520.586 221.323 520.586C221.64 520.586 221.939 520.483 222.219 520.278C222.508 520.063 222.737 519.779 222.905 519.424C223.082 519.069 223.171 518.677 223.171 518.248C223.171 517.809 223.082 517.408 222.905 517.044C222.737 516.68 222.508 516.395 222.219 516.19C221.939 515.985 221.64 515.882 221.323 515.882C221.08 515.882 220.81 515.943 220.511 516.064C220.212 516.176 219.965 516.414 219.769 516.778V519.69ZM230.271 522.182C229.478 522.182 228.778 522.019 228.171 521.692C227.574 521.365 227.112 520.903 226.785 520.306C226.458 519.699 226.295 518.985 226.295 518.164C226.295 516.904 226.65 515.938 227.359 515.266C228.068 514.594 229.039 514.258 230.271 514.258C231.494 514.258 232.46 514.594 233.169 515.266C233.878 515.938 234.233 516.904 234.233 518.164C234.233 518.985 234.07 519.699 233.743 520.306C233.416 520.903 232.954 521.365 232.357 521.692C231.76 522.019 231.064 522.182 230.271 522.182ZM228.507 518.164C228.507 518.883 228.67 519.461 228.997 519.9C229.324 520.339 229.748 520.558 230.271 520.558C230.794 520.558 231.214 520.339 231.531 519.9C231.858 519.461 232.021 518.883 232.021 518.164C232.021 517.417 231.862 516.853 231.545 516.47C231.237 516.078 230.812 515.882 230.271 515.882C229.73 515.882 229.3 516.078 228.983 516.47C228.666 516.853 228.507 517.417 228.507 518.164ZM237.732 514.412V515.322C238.078 515.023 238.47 514.79 238.908 514.622C239.356 514.454 239.8 514.37 240.238 514.37C240.957 514.37 241.526 514.58 241.946 515C242.376 515.42 242.59 515.966 242.59 516.638V521.972H240.35V517.016C240.35 516.745 240.238 516.526 240.014 516.358C239.79 516.181 239.524 516.092 239.216 516.092C239.02 516.092 238.773 516.157 238.474 516.288C238.185 516.419 237.938 516.577 237.732 516.764V521.972H235.492V514.412H237.732ZM249.4 522.014C249.251 521.734 249.162 521.435 249.134 521.118C248.789 521.426 248.374 521.683 247.888 521.888C247.412 522.084 246.941 522.182 246.474 522.182C245.756 522.182 245.182 521.972 244.752 521.552C244.332 521.132 244.122 520.591 244.122 519.928V514.44H246.362V519.55C246.362 519.821 246.451 520.045 246.628 520.222C246.815 520.39 247.058 520.474 247.356 520.474C247.552 520.474 247.814 520.404 248.14 520.264C248.476 520.124 248.756 519.97 248.98 519.802V514.44H251.22V520.558C251.22 520.866 251.239 521.127 251.276 521.342C251.314 521.547 251.388 521.771 251.5 522.014H249.4ZM255.805 522.168C255.235 522.196 254.657 522.149 254.069 522.028C253.49 521.916 252.986 521.739 252.557 521.496V519.48C252.939 519.76 253.397 519.993 253.929 520.18C254.47 520.357 254.946 520.432 255.357 520.404C255.646 520.385 255.856 520.325 255.987 520.222C256.117 520.11 256.192 519.998 256.211 519.886C256.257 519.597 256.187 519.377 256.001 519.228C255.814 519.079 255.464 518.934 254.951 518.794C254.381 518.635 253.929 518.453 253.593 518.248C253.257 518.033 253 517.795 252.823 517.534C252.655 517.263 252.571 516.923 252.571 516.512C252.571 516.083 252.683 515.7 252.907 515.364C253.131 515.019 253.485 514.748 253.971 514.552C254.456 514.356 254.979 514.258 255.539 514.258C255.959 514.258 256.383 514.3 256.813 514.384C257.242 514.459 257.601 514.561 257.891 514.692V516.498C257.592 516.349 257.237 516.218 256.827 516.106C256.425 515.985 256.075 515.924 255.777 515.924C255.142 515.924 254.797 516.092 254.741 516.428C254.713 516.624 254.801 516.797 255.007 516.946C255.221 517.095 255.525 517.231 255.917 517.352C256.477 517.529 256.934 517.711 257.289 517.898C257.653 518.085 257.937 518.327 258.143 518.626C258.348 518.925 258.451 519.307 258.451 519.774C258.451 520.465 258.203 521.029 257.709 521.468C257.214 521.897 256.579 522.131 255.805 522.168ZM263.102 525.192C263.214 524.875 263.289 524.431 263.326 523.862C263.364 523.293 263.382 522.775 263.382 522.308V514.44H265.622V515.14C265.93 514.86 266.266 514.645 266.63 514.496C267.004 514.337 267.377 514.258 267.75 514.258C268.441 514.258 269.043 514.426 269.556 514.762C270.079 515.098 270.48 515.569 270.76 516.176C271.05 516.773 271.194 517.459 271.194 518.234C271.194 519.009 271.054 519.695 270.774 520.292C270.494 520.88 270.093 521.342 269.57 521.678C269.048 522.014 268.441 522.182 267.75 522.182C266.91 522.182 266.201 521.939 265.622 521.454V522.308C265.622 522.803 265.594 523.33 265.538 523.89C265.492 524.459 265.426 524.893 265.342 525.192H263.102ZM265.622 519.634C265.818 520.017 266.066 520.269 266.364 520.39C266.672 520.511 266.952 520.572 267.204 520.572C267.522 520.572 267.82 520.469 268.1 520.264C268.39 520.049 268.618 519.765 268.786 519.41C268.964 519.055 269.052 518.663 269.052 518.234C269.052 517.795 268.964 517.399 268.786 517.044C268.618 516.68 268.39 516.395 268.1 516.19C267.82 515.985 267.522 515.882 267.204 515.882C266.952 515.882 266.672 515.943 266.364 516.064C266.066 516.185 265.818 516.437 265.622 516.82V519.634ZM272.97 514.44V512.284H275.07V514.44H276.526V516.148H275.07V519.396C275.07 519.667 275.089 519.872 275.126 520.012C275.173 520.152 275.252 520.25 275.364 520.306C275.476 520.353 275.639 520.376 275.854 520.376C275.994 520.376 276.111 520.371 276.204 520.362C276.307 520.353 276.395 520.339 276.47 520.32V522.042C276.078 522.089 275.714 522.112 275.378 522.112C274.734 522.112 274.253 522.047 273.936 521.916C273.619 521.785 273.376 521.561 273.208 521.244C273.049 520.917 272.97 520.455 272.97 519.858V516.148H271.878V514.44H272.97ZM280.687 522.168C280.117 522.196 279.539 522.149 278.951 522.028C278.372 521.916 277.868 521.739 277.439 521.496V519.48C277.821 519.76 278.279 519.993 278.811 520.18C279.352 520.357 279.828 520.432 280.239 520.404C280.528 520.385 280.738 520.325 280.869 520.222C280.999 520.11 281.074 519.998 281.093 519.886C281.139 519.597 281.069 519.377 280.883 519.228C280.696 519.079 280.346 518.934 279.833 518.794C279.263 518.635 278.811 518.453 278.475 518.248C278.139 518.033 277.882 517.795 277.705 517.534C277.537 517.263 277.453 516.923 277.453 516.512C277.453 516.083 277.565 515.7 277.789 515.364C278.013 515.019 278.367 514.748 278.853 514.552C279.338 514.356 279.861 514.258 280.421 514.258C280.841 514.258 281.265 514.3 281.695 514.384C282.124 514.459 282.483 514.561 282.773 514.692V516.498C282.474 516.349 282.119 516.218 281.709 516.106C281.307 515.985 280.957 515.924 280.659 515.924C280.024 515.924 279.679 516.092 279.623 516.428C279.595 516.624 279.683 516.797 279.889 516.946C280.103 517.095 280.407 517.231 280.799 517.352C281.359 517.529 281.816 517.711 282.171 517.898C282.535 518.085 282.819 518.327 283.025 518.626C283.23 518.925 283.333 519.307 283.333 519.774C283.333 520.465 283.085 521.029 282.591 521.468C282.096 521.897 281.461 522.131 280.687 522.168ZM288.38 518.738H286.672L286.406 512.2H288.646L288.38 518.738ZM286.392 519.704H288.688V522H286.392V519.704Z" fill="#919191"/>
<path d="M91.8159 417.364C89.7812 417.364 87.9892 416.953 86.4399 416.132C84.9092 415.311 83.7332 414.153 82.9119 412.66C82.1092 411.148 81.7079 409.375 81.7079 407.34C81.7079 405.343 82.1186 403.56 82.9399 401.992C83.7799 400.424 84.9652 399.211 86.4959 398.352C88.0452 397.475 89.8186 397.036 91.8159 397.036C93.7199 397.036 95.4466 397.465 96.9959 398.324C98.5639 399.183 99.7679 400.396 100.608 401.964C101.467 403.532 101.896 405.324 101.896 407.34C101.896 409.524 101.429 411.391 100.496 412.94C99.5812 414.471 98.2839 415.609 96.6039 416.356C97.0519 417.233 97.5279 418.269 98.0319 419.464H93.8879C93.4772 418.568 93.1319 417.849 92.8519 417.308C92.4226 417.345 92.0772 417.364 91.8159 417.364ZM86.1319 407.34C86.1319 408.647 86.3652 409.795 86.8319 410.784C87.3172 411.755 87.9799 412.52 88.8199 413.08C89.6599 413.621 90.6586 413.892 91.8159 413.892C92.9546 413.892 93.9346 413.621 94.7559 413.08C95.5959 412.52 96.2492 411.755 96.7159 410.784C97.2012 409.795 97.4439 408.647 97.4439 407.34C97.4439 406.145 97.2106 405.035 96.7439 404.008C96.2959 402.963 95.6426 402.104 94.7839 401.432C93.9439 400.76 92.9359 400.424 91.7599 400.424C90.6586 400.424 89.6879 400.751 88.8479 401.404C88.0079 402.039 87.3452 402.879 86.8599 403.924C86.3746 404.951 86.1319 406.089 86.1319 407.34ZM113.314 417.364C110.682 417.364 108.582 416.655 107.014 415.236C105.464 413.817 104.69 411.867 104.69 409.384V397.4H109.31V409.384C109.31 410.205 109.487 410.915 109.842 411.512C110.215 412.109 110.71 412.576 111.326 412.912C111.942 413.229 112.604 413.388 113.314 413.388C114.042 413.388 114.704 413.229 115.302 412.912C115.918 412.576 116.403 412.109 116.758 411.512C117.112 410.896 117.29 410.187 117.29 409.384V397.4H121.91V409.384C121.91 411.867 121.126 413.817 119.558 415.236C118.008 416.655 115.927 417.364 113.314 417.364ZM125.364 397.4H129.984V417H125.364V397.4ZM143.844 417.364C141.716 417.364 139.821 416.972 138.16 416.188C136.517 415.404 135.22 414.265 134.268 412.772C133.335 411.279 132.868 409.505 132.868 407.452C132.868 405.287 133.325 403.429 134.24 401.88C135.155 400.312 136.433 399.117 138.076 398.296C139.719 397.456 141.595 397.036 143.704 397.036C144.749 397.036 145.804 397.139 146.868 397.344C147.932 397.549 148.809 397.811 149.5 398.128V401.6C147.615 400.909 145.86 400.564 144.236 400.564C142.295 400.564 140.717 401.133 139.504 402.272C138.309 403.411 137.712 405.137 137.712 407.452C137.712 408.684 138.011 409.776 138.608 410.728C139.205 411.661 139.989 412.389 140.96 412.912C141.931 413.435 142.976 413.733 144.096 413.808L144.712 413.836C145.571 413.836 146.42 413.715 147.26 413.472C148.1 413.229 148.847 412.903 149.5 412.492V416.356C148.697 416.729 147.839 416.991 146.924 417.14C146.028 417.289 145.001 417.364 143.844 417.364ZM164.889 416.972C163.657 414.937 162.639 413.388 161.837 412.324C161.034 411.26 160.035 410.177 158.841 409.076H157.189V417H152.569V397.4H157.189V405.324H158.225L163.685 397.4H168.725L162.005 406.976C163.517 408.357 164.833 409.785 165.953 411.26C167.073 412.735 168.323 414.639 169.705 416.972H164.889ZM189.098 417.364C186.97 417.364 185.075 416.972 183.414 416.188C181.771 415.404 180.474 414.265 179.522 412.772C178.589 411.279 178.122 409.505 178.122 407.452C178.122 405.287 178.579 403.429 179.494 401.88C180.409 400.312 181.687 399.117 183.33 398.296C184.973 397.456 186.849 397.036 188.958 397.036C190.003 397.036 191.058 397.139 192.122 397.344C193.186 397.549 194.063 397.811 194.754 398.128V401.6C192.869 400.909 191.114 400.564 189.49 400.564C187.549 400.564 185.971 401.133 184.758 402.272C183.563 403.411 182.966 405.137 182.966 407.452C182.966 408.684 183.265 409.776 183.862 410.728C184.459 411.661 185.243 412.389 186.214 412.912C187.185 413.435 188.23 413.733 189.35 413.808L189.966 413.836C190.825 413.836 191.674 413.715 192.514 413.472C193.354 413.229 194.101 412.903 194.754 412.492V416.356C193.951 416.729 193.093 416.991 192.178 417.14C191.282 417.289 190.255 417.364 189.098 417.364ZM214.595 397.4V417H209.975V408.712H202.443V417H197.823V397.4H202.443V404.932H209.975V397.4H214.595ZM229.54 411.456H223.268L221.784 417H216.884L222.568 397.4H230.268L235.952 417H231.024L229.54 411.456ZM228.644 408.096L226.432 399.892H226.376L224.164 408.096H228.644ZM242.857 397.4V413.22H250.781V417H238.237V397.4H242.857ZM257.486 397.4V413.22H265.41V417H252.866V397.4H257.486ZM267.494 397.4H281.27V401.208H272.114V405.408H280.066V408.964H272.114V413.192H281.27V417H267.494V397.4ZM288.495 401.768H288.327V417H283.791V397.4H291.155L295.831 412.884H296.195V397.4H300.731V417H293.199L288.495 401.768ZM320.712 416.16C319.854 416.571 318.93 416.869 317.94 417.056C316.951 417.261 315.803 417.364 314.496 417.364C312.35 417.364 310.455 416.963 308.812 416.16C307.17 415.357 305.872 414.219 304.92 412.744C303.987 411.251 303.52 409.505 303.52 407.508C303.52 405.492 303.978 403.7 304.892 402.132C305.826 400.545 307.104 399.304 308.728 398.408C310.371 397.493 312.247 397.036 314.356 397.036C315.383 397.036 316.419 397.139 317.464 397.344C318.528 397.549 319.424 397.801 320.152 398.1V401.46C318.267 400.825 316.512 400.508 314.888 400.508C312.872 400.508 311.239 401.087 309.988 402.244C308.738 403.401 308.112 405.156 308.112 407.508C308.112 408.777 308.411 409.907 309.008 410.896C309.624 411.867 310.436 412.576 311.444 413.024C312.471 413.472 313.572 413.696 314.748 413.696C315.532 413.696 316.223 413.668 316.82 413.612V409.3H314.608V405.8H320.712V416.16ZM323.795 397.4H337.571V401.208H328.415V405.408H336.367V408.964H328.415V413.192H337.571V417H323.795V397.4Z" fill="#273430"/>
<g clip-path="url(#clip1_470_1289)">
<rect width="422" height="368" transform="translate(-1.5)" fill="#E9F7FF"/>
<path d="M139.571 292.197C139.571 268.703 139.571 256.957 143.676 247.79C148.395 237.254 156.826 228.823 167.362 224.105C176.528 220 188.274 220 211.768 220V220C234.761 220 246.258 220 255.229 224.018C265.541 228.636 273.793 236.887 278.411 247.199C282.428 256.17 282.428 267.667 282.428 290.66V294.139C282.428 312.415 282.428 321.553 278.806 328.504C275.775 334.318 271.032 339.061 265.218 342.092C258.267 345.714 249.129 345.714 230.853 345.714H190.494C172.834 345.714 164.004 345.714 157.238 342.325C151.063 339.231 146.054 334.223 142.961 328.047C139.571 321.282 139.571 312.452 139.571 294.792V292.197Z" fill="#14AEEC"/>
<rect x="158.143" y="257.143" width="105.714" height="60" rx="20" fill="#010101"/>
<path d="M181 345.238C181 339.007 181 335.892 182.34 333.571C183.217 332.051 184.48 330.789 186 329.911C188.321 328.571 191.436 328.571 197.667 328.571H224.333C230.564 328.571 233.679 328.571 236 329.911C237.52 330.789 238.783 332.051 239.66 333.571C241 335.892 241 339.007 241 345.238V345.238C241 346.484 241 347.107 240.732 347.571C240.556 347.875 240.304 348.128 240 348.303C239.536 348.571 238.913 348.571 237.667 348.571H184.333C183.087 348.571 182.464 348.571 182 348.303C181.696 348.128 181.443 347.875 181.268 347.571C181 347.107 181 346.484 181 345.238V345.238Z" fill="#8CE2F9"/>
<path d="M279.571 259.643C279.571 259.178 279.571 258.946 279.61 258.753C279.768 257.959 280.388 257.339 281.181 257.181C281.374 257.143 281.607 257.143 282.071 257.143V257.143C283.465 257.143 284.162 257.143 284.742 257.258C287.122 257.732 288.983 259.592 289.456 261.972C289.571 262.552 289.571 263.249 289.571 264.643V308.214C289.571 309.608 289.571 310.305 289.456 310.885C288.983 313.265 287.122 315.126 284.742 315.599C284.162 315.714 283.465 315.714 282.071 315.714V315.714C281.607 315.714 281.374 315.714 281.181 315.676C280.388 315.518 279.768 314.898 279.61 314.104C279.571 313.911 279.571 313.679 279.571 313.214V259.643Z" fill="#8CE2F9"/>
<path d="M142.429 259.643C142.429 259.178 142.429 258.946 142.39 258.753C142.232 257.959 141.612 257.339 140.819 257.181C140.626 257.143 140.393 257.143 139.929 257.143V257.143C138.535 257.143 137.838 257.143 137.258 257.258C134.878 257.732 133.017 259.592 132.544 261.972C132.429 262.552 132.429 263.249 132.429 264.643V308.214C132.429 309.608 132.429 310.305 132.544 310.885C133.017 313.265 134.878 315.126 137.258 315.599C137.838 315.714 138.535 315.714 139.929 315.714V315.714C140.393 315.714 140.626 315.714 140.819 315.676C141.612 315.518 142.232 314.898 142.39 314.104C142.429 313.911 142.429 313.679 142.429 313.214V259.643Z" fill="#8CE2F9"/>
<path d="M183.857 222C183.857 221.057 183.857 220.586 184.15 220.293C184.443 220 184.914 220 185.857 220H236.143C237.085 220 237.557 220 237.85 220.293C238.143 220.586 238.143 221.057 238.143 222V257.143H183.857V222Z" fill="#3F7B8D"/>
<path d="M189.571 220H232.428V239.714C232.428 242.543 232.428 243.957 231.55 244.836C230.671 245.714 229.257 245.714 226.428 245.714H195.571C192.743 245.714 191.329 245.714 190.45 244.836C189.571 243.957 189.571 242.543 189.571 239.714V220Z" fill="#8CE2F9"/>
<ellipse cx="17.9582" cy="17.1429" rx="17.9582" ry="17.1429" transform="matrix(-1 -8.34536e-08 -9.15808e-08 1 204.917 271)" fill="#EBBA48"/>
<path d="M186.959 275.429C179.533 275.429 173.592 281.164 173.592 288.142C173.592 295.121 179.533 300.857 186.959 300.857C194.385 300.857 200.325 295.121 200.325 288.142C200.325 281.164 194.385 275.429 186.959 275.429Z" fill="#EBBA48" stroke="#F1EACD" stroke-width="2"/>
<ellipse cx="2.68934" cy="3.43469" rx="2.68934" ry="3.43469" transform="matrix(-0.983099 0.183073 0.200218 0.979751 181.991 285)" fill="#EEE8D8"/>
<ellipse cx="0.897909" cy="0.857142" rx="0.897909" ry="0.857142" transform="matrix(-1 -8.34536e-08 -9.15808e-08 1 183.368 293.572)" fill="#EFE8DC"/>
<ellipse cx="17.9582" cy="17.1429" rx="17.9582" ry="17.1429" transform="matrix(-1 -8.34536e-08 -9.15808e-08 1 253.917 271)" fill="#EBBA48"/>
<path d="M235.955 275C228.528 275 222.588 280.736 222.587 287.714C222.587 294.693 228.528 300.429 235.955 300.429C243.381 300.429 249.321 294.693 249.321 287.714C249.321 280.736 243.381 275 235.955 275Z" fill="#EBBA48" stroke="#F1EACD" stroke-width="2"/>
<ellipse cx="2.68934" cy="3.43469" rx="2.68934" ry="3.43469" transform="matrix(-0.983099 0.183073 0.200218 0.979751 230.995 285)" fill="#EEE8D8"/>
<ellipse cx="0.897909" cy="0.857142" rx="0.897909" ry="0.857142" transform="matrix(-1 -8.34536e-08 -9.15808e-08 1 232.363 293.572)" fill="#EFE8DC"/>
<rect x="131" y="265.714" width="2.85714" height="40" rx="1.42857" fill="#14AEEC"/>
<rect x="288.143" y="265.714" width="2.85714" height="40" rx="1.42857" fill="#14AEEC"/>
<path opacity="0.5" d="M124.088 334.075C116.146 319.223 111.989 302.553 112.001 285.612C112.012 268.67 116.194 252.007 124.157 237.167L125.873 238.137C118.07 252.68 113.972 269.011 113.961 285.613C113.949 302.216 118.024 318.553 125.807 333.107L124.088 334.075Z" fill="#0E8ABB"/>
<path opacity="0.3" d="M105.679 344.444C96.0349 326.41 90.986 306.168 91.0005 285.596C91.015 265.024 96.0924 244.79 105.761 226.77L107.846 227.948C98.3705 245.608 93.3947 265.438 93.3805 285.598C93.3663 305.758 98.3142 325.596 107.765 343.269L105.679 344.444Z" fill="#0E8ABB"/>
<path opacity="0.1" d="M87.2685 354.815C75.9229 333.598 69.983 309.783 70 285.581C70.0171 261.379 75.9904 237.573 87.3659 216.373L89.8186 217.759C78.6706 238.536 72.8167 261.865 72.8 285.583C72.7833 309.301 78.6044 332.639 89.7231 353.432L87.2685 354.815Z" fill="#0E8ABB"/>
<path opacity="0.5" d="M294.871 235.395C303.125 250.067 307.633 266.64 307.979 283.578C308.325 300.516 304.496 317.269 296.849 332.282L295.112 331.35C302.606 316.637 306.358 300.219 306.02 283.62C305.681 267.021 301.262 250.779 293.174 236.401L294.871 235.395Z" fill="#0E8ABB"/>
<path opacity="0.3" d="M313.058 224.618C323.08 242.434 328.555 262.559 328.975 283.127C329.394 303.694 324.745 324.037 315.459 342.267L313.35 341.136C322.45 323.27 327.007 303.334 326.595 283.178C326.184 263.022 320.818 243.299 310.997 225.84L313.058 224.618Z" fill="#0E8ABB"/>
<path opacity="0.1" d="M331.245 213.842C343.035 234.802 349.477 258.479 349.971 282.676C350.464 306.873 344.995 330.805 334.07 352.253L331.588 350.922C342.295 329.903 347.655 306.449 347.171 282.736C346.687 259.023 340.375 235.82 328.82 215.279L331.245 213.842Z" fill="#0E8ABB"/>
<ellipse cx="210" cy="401" rx="256.5" ry="61" fill="white"/>
</g>
</g>
<defs>
<clipPath id="clip0_470_1289">
<rect width="420" height="812" fill="white"/>
</clipPath>
<clipPath id="clip1_470_1289">
<rect width="422" height="368" fill="white" transform="translate(-1.5)"/>
</clipPath>
</defs>
</svg>


