<svg width="420" height="812" viewBox="0 0 420 812" fill="none" xmlns="http://www.w3.org/2000/svg">
<g clip-path="url(#clip0_703_2834)">
<rect width="420" height="812" fill="white"/>
<path d="M74.3445 475.986C74.4285 475.995 74.5498 476 74.7085 476C75.0818 476 75.3665 475.93 75.5625 475.79C75.7678 475.641 75.9078 475.421 75.9825 475.132C76.0572 474.843 76.0945 474.451 76.0945 473.956V466.2H78.4045V474.46C78.4045 476.905 77.0512 478.081 74.3445 477.988V475.986ZM85.3496 476.014C85.2003 475.734 85.1116 475.435 85.0836 475.118C84.7383 475.426 84.3229 475.683 83.8376 475.888C83.3616 476.084 82.8903 476.182 82.4236 476.182C81.7049 476.182 81.1309 475.972 80.7016 475.552C80.2816 475.132 80.0716 474.591 80.0716 473.928V468.44H82.3116V473.55C82.3116 473.821 82.4003 474.045 82.5776 474.222C82.7643 474.39 83.0069 474.474 83.3056 474.474C83.5016 474.474 83.7629 474.404 84.0896 474.264C84.4256 474.124 84.7056 473.97 84.9296 473.802V468.44H87.1696V474.558C87.1696 474.866 87.1883 475.127 87.2256 475.342C87.2629 475.547 87.3376 475.771 87.4496 476.014H85.3496ZM91.8798 476.182C91.1892 476.182 90.5825 476.019 90.0598 475.692C89.5372 475.356 89.1358 474.889 88.8558 474.292C88.5758 473.695 88.4358 473.013 88.4358 472.248C88.4358 471.473 88.5758 470.787 88.8558 470.19C89.1452 469.583 89.5465 469.112 90.0598 468.776C90.5825 468.44 91.1892 468.272 91.8798 468.272C92.1972 468.272 92.5145 468.328 92.8318 468.44C93.1585 468.552 93.4618 468.715 93.7418 468.93V465.234H95.9818V474.25C95.9818 474.997 96.0752 475.58 96.2618 476H94.1618C94.0965 475.869 94.0405 475.701 93.9938 475.496C93.4058 475.953 92.7012 476.182 91.8798 476.182ZM90.5778 472.248C90.5778 472.677 90.6618 473.069 90.8298 473.424C91.0072 473.779 91.2358 474.063 91.5158 474.278C91.8052 474.483 92.1085 474.586 92.4258 474.586C92.6778 474.586 92.9532 474.525 93.2518 474.404C93.5598 474.283 93.8118 474.031 94.0078 473.648V470.834C93.8118 470.442 93.5598 470.185 93.2518 470.064C92.9532 469.943 92.6778 469.882 92.4258 469.882C92.1085 469.882 91.8052 469.985 91.5158 470.19C91.2358 470.395 91.0072 470.68 90.8298 471.044C90.6618 471.408 90.5778 471.809 90.5778 472.248ZM100.856 479.192C100.286 479.192 99.7125 479.155 99.1338 479.08C98.5645 479.005 98.0511 478.898 97.5938 478.758V476.924C98.5925 477.148 99.5911 477.26 100.59 477.26C101.224 477.26 101.705 477.12 102.032 476.84C102.358 476.56 102.522 476.173 102.522 475.678C102.008 476.014 101.397 476.182 100.688 476.182C99.9971 476.182 99.3905 476.014 98.8678 475.678C98.3451 475.342 97.9438 474.88 97.6638 474.292C97.3838 473.695 97.2438 473.009 97.2438 472.234C97.2438 471.459 97.3838 470.773 97.6638 470.176C97.9531 469.569 98.3545 469.098 98.8678 468.762C99.3905 468.426 99.9971 468.258 100.688 468.258C101.332 468.258 101.943 468.473 102.522 468.902V468.44H104.706V475.972C104.706 478.119 103.422 479.192 100.856 479.192ZM99.3858 472.234C99.3858 472.663 99.4698 473.055 99.6378 473.41C99.8151 473.765 100.044 474.049 100.324 474.264C100.613 474.469 100.916 474.572 101.234 474.572C101.467 474.572 101.728 474.521 102.018 474.418C102.307 474.306 102.554 474.077 102.76 473.732L102.83 473.452V470.862C102.634 470.461 102.382 470.199 102.074 470.078C101.766 469.947 101.486 469.882 101.234 469.882C100.916 469.882 100.613 469.985 100.324 470.19C100.044 470.395 99.8151 470.68 99.6378 471.044C99.4698 471.399 99.3858 471.795 99.3858 472.234ZM113.124 475.594C112.769 475.809 112.354 475.967 111.878 476.07C111.411 476.173 110.958 476.224 110.52 476.224C109.026 476.224 107.892 475.869 107.118 475.16C106.352 474.451 105.97 473.457 105.97 472.178C105.97 470.909 106.31 469.938 106.992 469.266C107.682 468.585 108.62 468.244 109.806 468.244C110.982 468.244 111.91 468.585 112.592 469.266C113.282 469.938 113.628 470.909 113.628 472.178C113.628 472.318 113.618 472.519 113.6 472.78H108.154C108.359 473.984 109.148 474.586 110.52 474.586C111.481 474.586 112.349 474.301 113.124 473.732V475.594ZM111.514 471.212C111.392 470.745 111.182 470.4 110.884 470.176C110.585 469.952 110.226 469.84 109.806 469.84C109.414 469.84 109.078 469.957 108.798 470.19C108.527 470.423 108.336 470.764 108.224 471.212H111.514ZM124.606 473.228H121.47L120.728 476H118.278L121.12 466.2H124.97L127.812 476H125.348L124.606 473.228ZM124.158 471.548L123.052 467.446H123.024L121.918 471.548H124.158ZM129.137 466.2H131.447V476H129.137V466.2ZM139.368 468.44V476H137.128V468.44H139.368ZM137.128 465.234H139.368V467.474H137.128V465.234ZM144.256 476.182C143.565 476.182 142.958 476.019 142.436 475.692C141.913 475.356 141.512 474.889 141.232 474.292C140.952 473.695 140.812 473.013 140.812 472.248C140.812 471.473 140.952 470.787 141.232 470.19C141.521 469.583 141.922 469.112 142.436 468.776C142.958 468.44 143.565 468.272 144.256 468.272C144.573 468.272 144.89 468.328 145.208 468.44C145.534 468.552 145.838 468.715 146.118 468.93V465.234H148.358V474.25C148.358 474.997 148.451 475.58 148.638 476H146.538C146.472 475.869 146.416 475.701 146.37 475.496C145.782 475.953 145.077 476.182 144.256 476.182ZM142.954 472.248C142.954 472.677 143.038 473.069 143.206 473.424C143.383 473.779 143.612 474.063 143.892 474.278C144.181 474.483 144.484 474.586 144.802 474.586C145.054 474.586 145.329 474.525 145.628 474.404C145.936 474.283 146.188 474.031 146.384 473.648V470.834C146.188 470.442 145.936 470.185 145.628 470.064C145.329 469.943 145.054 469.882 144.802 469.882C144.484 469.882 144.181 469.985 143.892 470.19C143.612 470.395 143.383 470.68 143.206 471.044C143.038 471.408 142.954 471.809 142.954 472.248ZM156.774 475.594C156.419 475.809 156.004 475.967 155.528 476.07C155.061 476.173 154.608 476.224 154.17 476.224C152.676 476.224 151.542 475.869 150.768 475.16C150.002 474.451 149.62 473.457 149.62 472.178C149.62 470.909 149.96 469.938 150.642 469.266C151.332 468.585 152.27 468.244 153.456 468.244C154.632 468.244 155.56 468.585 156.242 469.266C156.932 469.938 157.278 470.909 157.278 472.178C157.278 472.318 157.268 472.519 157.25 472.78H151.804C152.009 473.984 152.798 474.586 154.17 474.586C155.131 474.586 155.999 474.301 156.774 473.732V475.594ZM155.164 471.212C155.042 470.745 154.832 470.4 154.534 470.176C154.235 469.952 153.876 469.84 153.456 469.84C153.064 469.84 152.728 469.957 152.448 470.19C152.177 470.423 151.986 470.764 151.874 471.212H155.164ZM160.784 468.412V469.322C161.129 469.023 161.521 468.79 161.96 468.622C162.408 468.454 162.851 468.37 163.29 468.37C164.008 468.37 164.578 468.58 164.998 469C165.427 469.42 165.642 469.966 165.642 470.638V475.972H163.402V471.016C163.402 470.745 163.29 470.526 163.066 470.358C162.842 470.181 162.576 470.092 162.268 470.092C162.072 470.092 161.824 470.157 161.526 470.288C161.236 470.419 160.989 470.577 160.784 470.764V475.972H158.544V468.412H160.784ZM167.775 468.44V466.284H169.875V468.44H171.331V470.148H169.875V473.396C169.875 473.667 169.894 473.872 169.931 474.012C169.978 474.152 170.057 474.25 170.169 474.306C170.281 474.353 170.445 474.376 170.659 474.376C170.799 474.376 170.916 474.371 171.009 474.362C171.112 474.353 171.201 474.339 171.275 474.32V476.042C170.883 476.089 170.519 476.112 170.183 476.112C169.539 476.112 169.059 476.047 168.741 475.916C168.424 475.785 168.181 475.561 168.013 475.244C167.855 474.917 167.775 474.455 167.775 473.858V470.148H166.683V468.44H167.775ZM174.876 468.44V476H172.636V468.44H174.876ZM172.636 465.234H174.876V467.474H172.636V465.234ZM177.188 468.44V466.284H179.288V468.44H180.744V470.148H179.288V473.396C179.288 473.667 179.307 473.872 179.344 474.012C179.391 474.152 179.47 474.25 179.582 474.306C179.694 474.353 179.858 474.376 180.072 474.376C180.212 474.376 180.329 474.371 180.422 474.362C180.525 474.353 180.614 474.339 180.688 474.32V476.042C180.296 476.089 179.932 476.112 179.596 476.112C178.952 476.112 178.472 476.047 178.154 475.916C177.837 475.785 177.594 475.561 177.426 475.244C177.268 474.917 177.188 474.455 177.188 473.858V470.148H176.096V468.44H177.188ZM184.289 468.44V476H182.049V468.44H184.289ZM182.049 465.234H184.289V467.474H182.049V465.234ZM192.887 475.594C192.532 475.809 192.117 475.967 191.641 476.07C191.174 476.173 190.722 476.224 190.283 476.224C188.79 476.224 187.656 475.869 186.881 475.16C186.116 474.451 185.733 473.457 185.733 472.178C185.733 470.909 186.074 469.938 186.755 469.266C187.446 468.585 188.384 468.244 189.569 468.244C190.745 468.244 191.674 468.585 192.355 469.266C193.046 469.938 193.391 470.909 193.391 472.178C193.391 472.318 193.382 472.519 193.363 472.78H187.917C188.122 473.984 188.911 474.586 190.283 474.586C191.244 474.586 192.112 474.301 192.887 473.732V475.594ZM191.277 471.212C191.156 470.745 190.946 470.4 190.647 470.176C190.348 469.952 189.989 469.84 189.569 469.84C189.177 469.84 188.841 469.957 188.561 470.19C188.29 470.423 188.099 470.764 187.987 471.212H191.277ZM197.695 476.168C197.126 476.196 196.547 476.149 195.959 476.028C195.38 475.916 194.876 475.739 194.447 475.496V473.48C194.83 473.76 195.287 473.993 195.819 474.18C196.36 474.357 196.836 474.432 197.247 474.404C197.536 474.385 197.746 474.325 197.877 474.222C198.008 474.11 198.082 473.998 198.101 473.886C198.148 473.597 198.078 473.377 197.891 473.228C197.704 473.079 197.354 472.934 196.841 472.794C196.272 472.635 195.819 472.453 195.483 472.248C195.147 472.033 194.89 471.795 194.713 471.534C194.545 471.263 194.461 470.923 194.461 470.512C194.461 470.083 194.573 469.7 194.797 469.364C195.021 469.019 195.376 468.748 195.861 468.552C196.346 468.356 196.869 468.258 197.429 468.258C197.849 468.258 198.274 468.3 198.703 468.384C199.132 468.459 199.492 468.561 199.781 468.692V470.498C199.482 470.349 199.128 470.218 198.717 470.106C198.316 469.985 197.966 469.924 197.667 469.924C197.032 469.924 196.687 470.092 196.631 470.428C196.603 470.624 196.692 470.797 196.897 470.946C197.112 471.095 197.415 471.231 197.807 471.352C198.367 471.529 198.824 471.711 199.179 471.898C199.543 472.085 199.828 472.327 200.033 472.626C200.238 472.925 200.341 473.307 200.341 473.774C200.341 474.465 200.094 475.029 199.599 475.468C199.104 475.897 198.47 476.131 197.695 476.168ZM207.695 468.44V476H205.455V468.44H207.695ZM205.455 465.234H207.695V467.474H205.455V465.234ZM211.659 468.412V469.322C212.004 469.023 212.396 468.79 212.835 468.622C213.283 468.454 213.726 468.37 214.165 468.37C214.883 468.37 215.453 468.58 215.873 469C216.302 469.42 216.517 469.966 216.517 470.638V475.972H214.277V471.016C214.277 470.745 214.165 470.526 213.941 470.358C213.717 470.181 213.451 470.092 213.143 470.092C212.947 470.092 212.699 470.157 212.401 470.288C212.111 470.419 211.864 470.577 211.659 470.764V475.972H209.419V468.412H211.659ZM225.045 476.182C223.972 476.182 222.973 476.023 222.049 475.706V473.816C222.955 474.217 223.832 474.418 224.681 474.418C225.288 474.418 225.759 474.259 226.095 473.942C226.431 473.615 226.599 473.205 226.599 472.71C226.599 472.206 226.422 471.795 226.067 471.478C225.713 471.161 225.26 471.002 224.709 471.002C224.019 471.002 223.249 471.179 222.399 471.534L222.539 466.2H228.097V467.88H224.429L224.373 469.854C224.756 469.807 225.162 469.784 225.591 469.784C226.189 469.784 226.711 469.91 227.159 470.162C227.617 470.405 227.967 470.755 228.209 471.212C228.461 471.669 228.587 472.201 228.587 472.808C228.587 473.489 228.438 474.087 228.139 474.6C227.85 475.104 227.439 475.496 226.907 475.776C226.375 476.047 225.755 476.182 225.045 476.182ZM237.178 476.182C236.487 476.182 235.881 476.019 235.358 475.692C234.835 475.356 234.434 474.889 234.154 474.292C233.874 473.695 233.734 473.013 233.734 472.248C233.734 471.473 233.874 470.787 234.154 470.19C234.443 469.583 234.845 469.112 235.358 468.776C235.881 468.44 236.487 468.272 237.178 468.272C237.495 468.272 237.813 468.328 238.13 468.44C238.457 468.552 238.76 468.715 239.04 468.93V465.234H241.28V474.25C241.28 474.997 241.373 475.58 241.56 476H239.46C239.395 475.869 239.339 475.701 239.292 475.496C238.704 475.953 237.999 476.182 237.178 476.182ZM235.876 472.248C235.876 472.677 235.96 473.069 236.128 473.424C236.305 473.779 236.534 474.063 236.814 474.278C237.103 474.483 237.407 474.586 237.724 474.586C237.976 474.586 238.251 474.525 238.55 474.404C238.858 474.283 239.11 474.031 239.306 473.648V470.834C239.11 470.442 238.858 470.185 238.55 470.064C238.251 469.943 237.976 469.882 237.724 469.882C237.407 469.882 237.103 469.985 236.814 470.19C236.534 470.395 236.305 470.68 236.128 471.044C235.96 471.408 235.876 471.809 235.876 472.248ZM245.244 468.44V476H243.004V468.44H245.244ZM243.004 465.234H245.244V467.474H243.004V465.234ZM250.188 476.182C249.478 476.182 248.858 476.014 248.326 475.678C247.803 475.342 247.397 474.88 247.108 474.292C246.828 473.704 246.688 473.018 246.688 472.234C246.688 471.459 246.828 470.773 247.108 470.176C247.397 469.569 247.798 469.098 248.312 468.762C248.834 468.426 249.441 468.258 250.132 468.258C250.449 468.258 250.766 468.319 251.084 468.44C251.41 468.552 251.714 468.711 251.994 468.916V468.44H254.234V474.236C254.234 474.992 254.327 475.58 254.514 476H252.414C252.348 475.869 252.292 475.701 252.246 475.496C251.667 475.953 250.981 476.182 250.188 476.182ZM248.83 472.234C248.83 472.663 248.914 473.055 249.082 473.41C249.259 473.765 249.488 474.049 249.768 474.264C250.057 474.469 250.36 474.572 250.678 474.572C250.902 474.572 251.154 474.525 251.434 474.432C251.714 474.329 251.956 474.115 252.162 473.788V470.652C251.956 470.325 251.714 470.115 251.434 470.022C251.163 469.929 250.911 469.882 250.678 469.882C250.36 469.882 250.057 469.985 249.768 470.19C249.488 470.395 249.259 470.68 249.082 471.044C248.914 471.399 248.83 471.795 248.83 472.234ZM258.324 476.112C257.484 476.112 256.849 475.879 256.42 475.412C255.99 474.936 255.776 474.241 255.776 473.326V465.234H258.016V472.766C258.016 473.139 258.044 473.424 258.1 473.62C258.156 473.816 258.249 473.965 258.38 474.068C258.482 474.152 258.594 474.208 258.716 474.236C258.846 474.255 259.07 474.264 259.388 474.264V476.112H258.324ZM264.069 476.182C263.275 476.182 262.575 476.019 261.969 475.692C261.371 475.365 260.909 474.903 260.583 474.306C260.256 473.699 260.093 472.985 260.093 472.164C260.093 470.904 260.447 469.938 261.157 469.266C261.866 468.594 262.837 468.258 264.069 468.258C265.291 468.258 266.257 468.594 266.967 469.266C267.676 469.938 268.031 470.904 268.031 472.164C268.031 472.985 267.867 473.699 267.541 474.306C267.214 474.903 266.752 475.365 266.155 475.692C265.557 476.019 264.862 476.182 264.069 476.182ZM262.305 472.164C262.305 472.883 262.468 473.461 262.795 473.9C263.121 474.339 263.546 474.558 264.069 474.558C264.591 474.558 265.011 474.339 265.329 473.9C265.655 473.461 265.819 472.883 265.819 472.164C265.819 471.417 265.66 470.853 265.343 470.47C265.035 470.078 264.61 469.882 264.069 469.882C263.527 469.882 263.098 470.078 262.781 470.47C262.463 470.853 262.305 471.417 262.305 472.164ZM272.622 479.192C272.053 479.192 271.479 479.155 270.9 479.08C270.331 479.005 269.817 478.898 269.36 478.758V476.924C270.359 477.148 271.357 477.26 272.356 477.26C272.991 477.26 273.471 477.12 273.798 476.84C274.125 476.56 274.288 476.173 274.288 475.678C273.775 476.014 273.163 476.182 272.454 476.182C271.763 476.182 271.157 476.014 270.634 475.678C270.111 475.342 269.71 474.88 269.43 474.292C269.15 473.695 269.01 473.009 269.01 472.234C269.01 471.459 269.15 470.773 269.43 470.176C269.719 469.569 270.121 469.098 270.634 468.762C271.157 468.426 271.763 468.258 272.454 468.258C273.098 468.258 273.709 468.473 274.288 468.902V468.44H276.472V475.972C276.472 478.119 275.189 479.192 272.622 479.192ZM271.152 472.234C271.152 472.663 271.236 473.055 271.404 473.41C271.581 473.765 271.81 474.049 272.09 474.264C272.379 474.469 272.683 474.572 273 474.572C273.233 474.572 273.495 474.521 273.784 474.418C274.073 474.306 274.321 474.077 274.526 473.732L274.596 473.452V470.862C274.4 470.461 274.148 470.199 273.84 470.078C273.532 469.947 273.252 469.882 273 469.882C272.683 469.882 272.379 469.985 272.09 470.19C271.81 470.395 271.581 470.68 271.404 471.044C271.236 471.399 271.152 471.795 271.152 472.234ZM283.28 476.014C283.131 475.734 283.042 475.435 283.014 475.118C282.669 475.426 282.253 475.683 281.768 475.888C281.292 476.084 280.821 476.182 280.354 476.182C279.635 476.182 279.061 475.972 278.632 475.552C278.212 475.132 278.002 474.591 278.002 473.928V468.44H280.242V473.55C280.242 473.821 280.331 474.045 280.508 474.222C280.695 474.39 280.937 474.474 281.236 474.474C281.432 474.474 281.693 474.404 282.02 474.264C282.356 474.124 282.636 473.97 282.86 473.802V468.44H285.1V474.558C285.1 474.866 285.119 475.127 285.156 475.342C285.193 475.547 285.268 475.771 285.38 476.014H283.28ZM293.52 475.594C293.166 475.809 292.75 475.967 292.274 476.07C291.808 476.173 291.355 476.224 290.916 476.224C289.423 476.224 288.289 475.869 287.514 475.16C286.749 474.451 286.366 473.457 286.366 472.178C286.366 470.909 286.707 469.938 287.388 469.266C288.079 468.585 289.017 468.244 290.202 468.244C291.378 468.244 292.307 468.585 292.988 469.266C293.679 469.938 294.024 470.909 294.024 472.178C294.024 472.318 294.015 472.519 293.996 472.78H288.55C288.756 473.984 289.544 474.586 290.916 474.586C291.878 474.586 292.746 474.301 293.52 473.732V475.594ZM291.91 471.212C291.789 470.745 291.579 470.4 291.28 470.176C290.982 469.952 290.622 469.84 290.202 469.84C289.81 469.84 289.474 469.957 289.194 470.19C288.924 470.423 288.732 470.764 288.62 471.212H291.91ZM302.287 476.182C301.578 476.182 300.957 476.014 300.425 475.678C299.902 475.342 299.496 474.88 299.207 474.292C298.927 473.704 298.787 473.018 298.787 472.234C298.787 471.459 298.927 470.773 299.207 470.176C299.496 469.569 299.898 469.098 300.411 468.762C300.934 468.426 301.54 468.258 302.231 468.258C302.548 468.258 302.866 468.319 303.183 468.44C303.51 468.552 303.813 468.711 304.093 468.916V468.44H306.333V474.236C306.333 474.992 306.426 475.58 306.613 476H304.513C304.448 475.869 304.392 475.701 304.345 475.496C303.766 475.953 303.08 476.182 302.287 476.182ZM300.929 472.234C300.929 472.663 301.013 473.055 301.181 473.41C301.358 473.765 301.587 474.049 301.867 474.264C302.156 474.469 302.46 474.572 302.777 474.572C303.001 474.572 303.253 474.525 303.533 474.432C303.813 474.329 304.056 474.115 304.261 473.788V470.652C304.056 470.325 303.813 470.115 303.533 470.022C303.262 469.929 303.01 469.882 302.777 469.882C302.46 469.882 302.156 469.985 301.867 470.19C301.587 470.395 301.358 470.68 301.181 471.044C301.013 471.399 300.929 471.795 300.929 472.234ZM313.139 476.014C312.99 475.734 312.901 475.435 312.873 475.118C312.528 475.426 312.112 475.683 311.627 475.888C311.151 476.084 310.68 476.182 310.213 476.182C309.494 476.182 308.92 475.972 308.491 475.552C308.071 475.132 307.861 474.591 307.861 473.928V468.44H310.101V473.55C310.101 473.821 310.19 474.045 310.367 474.222C310.554 474.39 310.796 474.474 311.095 474.474C311.291 474.474 311.552 474.404 311.879 474.264C312.215 474.124 312.495 473.97 312.719 473.802V468.44H314.959V474.558C314.959 474.866 314.978 475.127 315.015 475.342C315.052 475.547 315.127 475.771 315.239 476.014H313.139ZM319.669 476.182C318.978 476.182 318.372 476.019 317.849 475.692C317.326 475.356 316.925 474.889 316.645 474.292C316.365 473.695 316.225 473.013 316.225 472.248C316.225 471.473 316.365 470.787 316.645 470.19C316.934 469.583 317.336 469.112 317.849 468.776C318.372 468.44 318.978 468.272 319.669 468.272C319.986 468.272 320.304 468.328 320.621 468.44C320.948 468.552 321.251 468.715 321.531 468.93V465.234H323.771V474.25C323.771 474.997 323.864 475.58 324.051 476H321.951C321.886 475.869 321.83 475.701 321.783 475.496C321.195 475.953 320.49 476.182 319.669 476.182ZM318.367 472.248C318.367 472.677 318.451 473.069 318.619 473.424C318.796 473.779 319.025 474.063 319.305 474.278C319.594 474.483 319.898 474.586 320.215 474.586C320.467 474.586 320.742 474.525 321.041 474.404C321.349 474.283 321.601 474.031 321.797 473.648V470.834C321.601 470.442 321.349 470.185 321.041 470.064C320.742 469.943 320.467 469.882 320.215 469.882C319.898 469.882 319.594 469.985 319.305 470.19C319.025 470.395 318.796 470.68 318.619 471.044C318.451 471.408 318.367 471.809 318.367 472.248ZM327.735 468.44V476H325.495V468.44H327.735ZM325.495 465.234H327.735V467.474H325.495V465.234ZM333.155 476.182C332.362 476.182 331.662 476.019 331.055 475.692C330.458 475.365 329.996 474.903 329.669 474.306C329.342 473.699 329.179 472.985 329.179 472.164C329.179 470.904 329.534 469.938 330.243 469.266C330.952 468.594 331.923 468.258 333.155 468.258C334.378 468.258 335.344 468.594 336.053 469.266C336.762 469.938 337.117 470.904 337.117 472.164C337.117 472.985 336.954 473.699 336.627 474.306C336.3 474.903 335.838 475.365 335.241 475.692C334.644 476.019 333.948 476.182 333.155 476.182ZM331.391 472.164C331.391 472.883 331.554 473.461 331.881 473.9C332.208 474.339 332.632 474.558 333.155 474.558C333.678 474.558 334.098 474.339 334.415 473.9C334.742 473.461 334.905 472.883 334.905 472.164C334.905 471.417 334.746 470.853 334.429 470.47C334.121 470.078 333.696 469.882 333.155 469.882C332.614 469.882 332.184 470.078 331.867 470.47C331.55 470.853 331.391 471.417 331.391 472.164ZM341.414 476.168C340.845 476.196 340.266 476.149 339.678 476.028C339.1 475.916 338.596 475.739 338.166 475.496V473.48C338.549 473.76 339.006 473.993 339.538 474.18C340.08 474.357 340.556 474.432 340.966 474.404C341.256 474.385 341.466 474.325 341.596 474.222C341.727 474.11 341.802 473.998 341.82 473.886C341.867 473.597 341.797 473.377 341.61 473.228C341.424 473.079 341.074 472.934 340.56 472.794C339.991 472.635 339.538 472.453 339.202 472.248C338.866 472.033 338.61 471.795 338.432 471.534C338.264 471.263 338.18 470.923 338.18 470.512C338.18 470.083 338.292 469.7 338.516 469.364C338.74 469.019 339.095 468.748 339.58 468.552C340.066 468.356 340.588 468.258 341.148 468.258C341.568 468.258 341.993 468.3 342.422 468.384C342.852 468.459 343.211 468.561 343.5 468.692V470.498C343.202 470.349 342.847 470.218 342.436 470.106C342.035 469.985 341.685 469.924 341.386 469.924C340.752 469.924 340.406 470.092 340.35 470.428C340.322 470.624 340.411 470.797 340.616 470.946C340.831 471.095 341.134 471.231 341.526 471.352C342.086 471.529 342.544 471.711 342.898 471.898C343.262 472.085 343.547 472.327 343.752 472.626C343.958 472.925 344.06 473.307 344.06 473.774C344.06 474.465 343.813 475.029 343.318 475.468C342.824 475.897 342.189 476.131 341.414 476.168ZM98.0724 499.182C97.0084 499.182 96.0611 498.986 95.2304 498.594C94.4091 498.202 93.7604 497.633 93.2844 496.886C92.8177 496.139 92.5844 495.253 92.5844 494.226C92.5844 493.143 92.8131 492.215 93.2704 491.44C93.7277 490.656 94.3671 490.059 95.1884 489.648C96.0097 489.228 96.9477 489.018 98.0024 489.018C98.5251 489.018 99.0524 489.069 99.5844 489.172C100.116 489.275 100.555 489.405 100.9 489.564V491.3C99.9577 490.955 99.0804 490.782 98.2684 490.782C97.2977 490.782 96.5091 491.067 95.9024 491.636C95.3051 492.205 95.0064 493.069 95.0064 494.226C95.0064 494.842 95.1557 495.388 95.4544 495.864C95.7531 496.331 96.1451 496.695 96.6304 496.956C97.1157 497.217 97.6384 497.367 98.1984 497.404L98.5064 497.418C98.9357 497.418 99.3604 497.357 99.7804 497.236C100.2 497.115 100.574 496.951 100.9 496.746V498.678C100.499 498.865 100.07 498.995 99.6124 499.07C99.1644 499.145 98.6511 499.182 98.0724 499.182ZM106.131 499.182C105.337 499.182 104.637 499.019 104.031 498.692C103.433 498.365 102.971 497.903 102.645 497.306C102.318 496.699 102.155 495.985 102.155 495.164C102.155 493.904 102.509 492.938 103.219 492.266C103.928 491.594 104.899 491.258 106.131 491.258C107.353 491.258 108.319 491.594 109.029 492.266C109.738 492.938 110.093 493.904 110.093 495.164C110.093 495.985 109.929 496.699 109.603 497.306C109.276 497.903 108.814 498.365 108.217 498.692C107.619 499.019 106.924 499.182 106.131 499.182ZM104.367 495.164C104.367 495.883 104.53 496.461 104.857 496.9C105.183 497.339 105.608 497.558 106.131 497.558C106.653 497.558 107.073 497.339 107.391 496.9C107.717 496.461 107.881 495.883 107.881 495.164C107.881 494.417 107.722 493.853 107.405 493.47C107.097 493.078 106.672 492.882 106.131 492.882C105.589 492.882 105.16 493.078 104.843 493.47C104.525 493.853 104.367 494.417 104.367 495.164ZM113.592 491.44V492.252C113.835 491.991 114.124 491.79 114.46 491.65C114.805 491.501 115.146 491.426 115.482 491.426C115.715 491.426 115.935 491.459 116.14 491.524V493.246C115.879 493.181 115.631 493.148 115.398 493.148C115.043 493.148 114.707 493.209 114.39 493.33C114.073 493.442 113.807 493.624 113.592 493.876V499H111.352V491.44H113.592ZM119.447 491.44V492.252C119.69 491.991 119.979 491.79 120.315 491.65C120.66 491.501 121.001 491.426 121.337 491.426C121.57 491.426 121.79 491.459 121.995 491.524V493.246C121.734 493.181 121.486 493.148 121.253 493.148C120.898 493.148 120.562 493.209 120.245 493.33C119.928 493.442 119.662 493.624 119.447 493.876V499H117.207V491.44H119.447ZM129.662 498.594C129.308 498.809 128.892 498.967 128.416 499.07C127.95 499.173 127.497 499.224 127.058 499.224C125.565 499.224 124.431 498.869 123.656 498.16C122.891 497.451 122.508 496.457 122.508 495.178C122.508 493.909 122.849 492.938 123.53 492.266C124.221 491.585 125.159 491.244 126.344 491.244C127.52 491.244 128.449 491.585 129.13 492.266C129.821 492.938 130.166 493.909 130.166 495.178C130.166 495.318 130.157 495.519 130.138 495.78H124.692C124.898 496.984 125.686 497.586 127.058 497.586C128.02 497.586 128.888 497.301 129.662 496.732V498.594ZM128.052 494.212C127.931 493.745 127.721 493.4 127.422 493.176C127.124 492.952 126.764 492.84 126.344 492.84C125.952 492.84 125.616 492.957 125.336 493.19C125.066 493.423 124.874 493.764 124.762 494.212H128.052ZM137.732 498.748C137.014 499.037 136.276 499.182 135.52 499.182C134.727 499.182 133.994 499.023 133.322 498.706C132.66 498.379 132.132 497.922 131.74 497.334C131.348 496.737 131.152 496.051 131.152 495.276C131.152 494.464 131.339 493.755 131.712 493.148C132.086 492.541 132.594 492.079 133.238 491.762C133.892 491.435 134.62 491.272 135.422 491.272C136.15 491.272 136.888 491.403 137.634 491.664V493.386C137.065 493.143 136.482 493.022 135.884 493.022C135.147 493.022 134.536 493.199 134.05 493.554C133.565 493.899 133.322 494.473 133.322 495.276C133.322 495.733 133.448 496.121 133.7 496.438C133.952 496.755 134.279 496.998 134.68 497.166C135.082 497.325 135.506 497.404 135.954 497.404C136.3 497.404 136.626 497.357 136.934 497.264C137.252 497.161 137.518 497.021 137.732 496.844V498.748ZM139.584 491.44V489.284H141.684V491.44H143.14V493.148H141.684V496.396C141.684 496.667 141.703 496.872 141.74 497.012C141.787 497.152 141.866 497.25 141.978 497.306C142.09 497.353 142.253 497.376 142.468 497.376C142.608 497.376 142.725 497.371 142.818 497.362C142.921 497.353 143.009 497.339 143.084 497.32V499.042C142.692 499.089 142.328 499.112 141.992 499.112C141.348 499.112 140.867 499.047 140.55 498.916C140.233 498.785 139.99 498.561 139.822 498.244C139.663 497.917 139.584 497.455 139.584 496.858V493.148H138.492V491.44H139.584ZM148.421 496.704V499H146.125V496.704H148.421ZM146.125 491.44H148.421V493.736H146.125V491.44ZM162.426 495.682V498.44H160.648V495.682H157.89V493.904H160.648V491.16H162.426V493.904H165.184V495.682H162.426ZM169.456 491.874L167.65 492.63V490.586L170.058 489.214H171.528V499H169.456V491.874ZM176.957 496.704H179.113L177.349 500.848H175.711L176.957 496.704ZM194.617 492.658H194.561L193.455 499H190.641L188.261 489.2H190.669L192.069 496.592H192.125L193.525 489.2H195.639L197.039 496.592H197.095L198.495 489.2H200.903L198.523 499H195.709L194.617 492.658ZM203.764 491.44V492.252C204.006 491.991 204.296 491.79 204.632 491.65C204.977 491.501 205.318 491.426 205.654 491.426C205.887 491.426 206.106 491.459 206.312 491.524V493.246C206.05 493.181 205.803 493.148 205.57 493.148C205.215 493.148 204.879 493.209 204.562 493.33C204.244 493.442 203.978 493.624 203.764 493.876V499H201.524V491.44H203.764ZM210.801 499.182C210.008 499.182 209.308 499.019 208.701 498.692C208.104 498.365 207.642 497.903 207.315 497.306C206.988 496.699 206.825 495.985 206.825 495.164C206.825 493.904 207.18 492.938 207.889 492.266C208.598 491.594 209.569 491.258 210.801 491.258C212.024 491.258 212.99 491.594 213.699 492.266C214.408 492.938 214.763 493.904 214.763 495.164C214.763 495.985 214.6 496.699 214.273 497.306C213.946 497.903 213.484 498.365 212.887 498.692C212.29 499.019 211.594 499.182 210.801 499.182ZM209.037 495.164C209.037 495.883 209.2 496.461 209.527 496.9C209.854 497.339 210.278 497.558 210.801 497.558C211.324 497.558 211.744 497.339 212.061 496.9C212.388 496.461 212.551 495.883 212.551 495.164C212.551 494.417 212.392 493.853 212.075 493.47C211.767 493.078 211.342 492.882 210.801 492.882C210.26 492.882 209.83 493.078 209.513 493.47C209.196 493.853 209.037 494.417 209.037 495.164ZM218.262 491.412V492.322C218.608 492.023 219 491.79 219.438 491.622C219.886 491.454 220.33 491.37 220.768 491.37C221.487 491.37 222.056 491.58 222.476 492C222.906 492.42 223.12 492.966 223.12 493.638V498.972H220.88V494.016C220.88 493.745 220.768 493.526 220.544 493.358C220.32 493.181 220.054 493.092 219.746 493.092C219.55 493.092 219.303 493.157 219.004 493.288C218.715 493.419 218.468 493.577 218.262 493.764V498.972H216.022V491.412H218.262ZM227.998 502.192C227.429 502.192 226.855 502.155 226.276 502.08C225.707 502.005 225.194 501.898 224.736 501.758V499.924C225.735 500.148 226.734 500.26 227.732 500.26C228.367 500.26 228.848 500.12 229.174 499.84C229.501 499.56 229.664 499.173 229.664 498.678C229.151 499.014 228.54 499.182 227.83 499.182C227.14 499.182 226.533 499.014 226.01 498.678C225.488 498.342 225.086 497.88 224.806 497.292C224.526 496.695 224.386 496.009 224.386 495.234C224.386 494.459 224.526 493.773 224.806 493.176C225.096 492.569 225.497 492.098 226.01 491.762C226.533 491.426 227.14 491.258 227.83 491.258C228.474 491.258 229.086 491.473 229.664 491.902V491.44H231.848V498.972C231.848 501.119 230.565 502.192 227.998 502.192ZM226.528 495.234C226.528 495.663 226.612 496.055 226.78 496.41C226.958 496.765 227.186 497.049 227.466 497.264C227.756 497.469 228.059 497.572 228.376 497.572C228.61 497.572 228.871 497.521 229.16 497.418C229.45 497.306 229.697 497.077 229.902 496.732L229.972 496.452V493.862C229.776 493.461 229.524 493.199 229.216 493.078C228.908 492.947 228.628 492.882 228.376 492.882C228.059 492.882 227.756 492.985 227.466 493.19C227.186 493.395 226.958 493.68 226.78 494.044C226.612 494.399 226.528 494.795 226.528 495.234ZM237.55 496.704V499H235.254V496.704H237.55ZM235.254 491.44H237.55V493.736H235.254V491.44ZM251.835 493.89V495.514H247.537V493.89H251.835ZM256.643 491.874L254.837 492.63V490.586L257.245 489.214H258.715V499H256.643V491.874ZM271.103 500.68C270.413 499.625 269.89 498.594 269.535 497.586C269.181 496.578 269.003 495.533 269.003 494.45C269.003 493.367 269.181 492.322 269.535 491.314C269.89 490.306 270.413 489.228 271.103 488.08H273.147C272.485 489.191 271.985 490.264 271.649 491.3C271.323 492.336 271.159 493.363 271.159 494.38C271.159 495.397 271.323 496.424 271.649 497.46C271.985 498.496 272.485 499.569 273.147 500.68H271.103ZM278.397 491.426V492.224C278.733 491.953 279.107 491.743 279.517 491.594C279.928 491.445 280.343 491.37 280.763 491.37C281.183 491.37 281.547 491.449 281.855 491.608C282.163 491.757 282.406 491.967 282.583 492.238C282.929 491.958 283.307 491.743 283.717 491.594C284.128 491.445 284.543 491.37 284.963 491.37C285.673 491.37 286.219 491.58 286.601 492C286.984 492.42 287.175 492.966 287.175 493.638V499H284.935V494.016C284.935 493.745 284.842 493.526 284.655 493.358C284.478 493.181 284.24 493.092 283.941 493.092C283.811 493.092 283.657 493.12 283.479 493.176C283.302 493.232 283.129 493.307 282.961 493.4C282.971 493.456 282.975 493.535 282.975 493.638V499H280.735V494.016C280.735 493.745 280.642 493.526 280.455 493.358C280.278 493.181 280.04 493.092 279.741 493.092C279.564 493.092 279.345 493.143 279.083 493.246C278.822 493.349 278.593 493.484 278.397 493.652V499H276.157V491.426H278.397ZM291.133 491.44V499H288.893V491.44H291.133ZM288.893 488.234H291.133V490.474H288.893V488.234ZM295.097 491.412V492.322C295.442 492.023 295.834 491.79 296.273 491.622C296.721 491.454 297.164 491.37 297.603 491.37C298.322 491.37 298.891 491.58 299.311 492C299.74 492.42 299.955 492.966 299.955 493.638V498.972H297.715V494.016C297.715 493.745 297.603 493.526 297.379 493.358C297.155 493.181 296.889 493.092 296.581 493.092C296.385 493.092 296.138 493.157 295.839 493.288C295.55 493.419 295.302 493.577 295.097 493.764V498.972H292.857V491.412H295.097ZM308.708 499.182C306.365 499.182 305.194 497.488 305.194 494.1C305.194 490.712 306.365 489.018 308.708 489.018C311.05 489.018 312.222 490.712 312.222 494.1C312.222 497.488 311.05 499.182 308.708 499.182ZM307.252 494.1C307.252 495.192 307.364 495.995 307.588 496.508C307.821 497.021 308.194 497.278 308.708 497.278C309.221 497.278 309.59 497.021 309.814 496.508C310.047 495.995 310.164 495.192 310.164 494.1C310.164 493.017 310.047 492.219 309.814 491.706C309.59 491.193 309.221 490.936 308.708 490.936C308.194 490.936 307.821 491.193 307.588 491.706C307.364 492.219 307.252 493.017 307.252 494.1ZM315.146 500.68C315.808 499.569 316.303 498.496 316.63 497.46C316.966 496.424 317.134 495.397 317.134 494.38C317.134 493.363 316.966 492.336 316.63 491.3C316.303 490.264 315.808 489.191 315.146 488.08H317.19C317.88 489.228 318.403 490.306 318.758 491.314C319.112 492.322 319.29 493.367 319.29 494.45C319.29 495.533 319.112 496.578 318.758 497.586C318.403 498.594 317.88 499.625 317.19 500.68H315.146ZM59.7597 522.182C58.6957 522.182 57.7484 521.986 56.9177 521.594C56.0964 521.202 55.4477 520.633 54.9717 519.886C54.505 519.139 54.2717 518.253 54.2717 517.226C54.2717 516.143 54.5004 515.215 54.9577 514.44C55.415 513.656 56.0544 513.059 56.8757 512.648C57.697 512.228 58.635 512.018 59.6897 512.018C60.2124 512.018 60.7397 512.069 61.2717 512.172C61.8037 512.275 62.2424 512.405 62.5877 512.564V514.3C61.645 513.955 60.7677 513.782 59.9557 513.782C58.985 513.782 58.1964 514.067 57.5897 514.636C56.9924 515.205 56.6937 516.069 56.6937 517.226C56.6937 517.842 56.843 518.388 57.1417 518.864C57.4404 519.331 57.8324 519.695 58.3177 519.956C58.803 520.217 59.3257 520.367 59.8857 520.404L60.1937 520.418C60.623 520.418 61.0477 520.357 61.4677 520.236C61.8877 520.115 62.261 519.951 62.5877 519.746V521.678C62.1864 521.865 61.757 521.995 61.2997 522.07C60.8517 522.145 60.3384 522.182 59.7597 522.182ZM67.818 522.182C67.0247 522.182 66.3247 522.019 65.718 521.692C65.1207 521.365 64.6587 520.903 64.332 520.306C64.0054 519.699 63.842 518.985 63.842 518.164C63.842 516.904 64.1967 515.938 64.906 515.266C65.6154 514.594 66.586 514.258 67.818 514.258C69.0407 514.258 70.0067 514.594 70.716 515.266C71.4254 515.938 71.78 516.904 71.78 518.164C71.78 518.985 71.6167 519.699 71.29 520.306C70.9634 520.903 70.5014 521.365 69.904 521.692C69.3067 522.019 68.6114 522.182 67.818 522.182ZM66.054 518.164C66.054 518.883 66.2174 519.461 66.544 519.9C66.8707 520.339 67.2954 520.558 67.818 520.558C68.3407 520.558 68.7607 520.339 69.078 519.9C69.4047 519.461 69.568 518.883 69.568 518.164C69.568 517.417 69.4094 516.853 69.092 516.47C68.784 516.078 68.3594 515.882 67.818 515.882C67.2767 515.882 66.8474 516.078 66.53 516.47C66.2127 516.853 66.054 517.417 66.054 518.164ZM75.2794 514.426V515.224C75.6154 514.953 75.9887 514.743 76.3994 514.594C76.81 514.445 77.2254 514.37 77.6454 514.37C78.0654 514.37 78.4294 514.449 78.7374 514.608C79.0454 514.757 79.288 514.967 79.4654 515.238C79.8107 514.958 80.1887 514.743 80.5994 514.594C81.01 514.445 81.4254 514.37 81.8454 514.37C82.5547 514.37 83.1007 514.58 83.4834 515C83.866 515.42 84.0574 515.966 84.0574 516.638V522H81.8174V517.016C81.8174 516.745 81.724 516.526 81.5374 516.358C81.36 516.181 81.122 516.092 80.8234 516.092C80.6927 516.092 80.5387 516.12 80.3614 516.176C80.184 516.232 80.0114 516.307 79.8434 516.4C79.8527 516.456 79.8574 516.535 79.8574 516.638V522H77.6174V517.016C77.6174 516.745 77.524 516.526 77.3374 516.358C77.16 516.181 76.922 516.092 76.6234 516.092C76.446 516.092 76.2267 516.143 75.9654 516.246C75.704 516.349 75.4754 516.484 75.2794 516.652V522H73.0394V514.426H75.2794ZM89.6954 522.182C88.8741 522.182 88.1694 521.953 87.5814 521.496C87.5348 521.701 87.4788 521.869 87.4134 522H85.3134C85.5001 521.58 85.5934 520.997 85.5934 520.25V511.234H87.8334V514.93C88.1134 514.715 88.4121 514.552 88.7294 514.44C89.0561 514.328 89.3781 514.272 89.6954 514.272C90.3861 514.272 90.9881 514.44 91.5014 514.776C92.0241 515.112 92.4254 515.583 92.7054 516.19C92.9948 516.787 93.1394 517.473 93.1394 518.248C93.1394 519.013 92.9994 519.695 92.7194 520.292C92.4394 520.889 92.0381 521.356 91.5154 521.692C90.9928 522.019 90.3861 522.182 89.6954 522.182ZM87.5954 519.69C87.7914 520.063 88.0388 520.306 88.3374 520.418C88.6361 520.53 88.9068 520.586 89.1494 520.586C89.4668 520.586 89.7654 520.483 90.0454 520.278C90.3348 520.063 90.5634 519.779 90.7314 519.424C90.9088 519.069 90.9974 518.677 90.9974 518.248C90.9974 517.809 90.9088 517.408 90.7314 517.044C90.5634 516.68 90.3348 516.395 90.0454 516.19C89.7654 515.985 89.4668 515.882 89.1494 515.882C88.9068 515.882 88.6361 515.943 88.3374 516.064C88.0388 516.176 87.7914 516.414 87.5954 516.778V519.69ZM98.0974 522.182C97.3041 522.182 96.6041 522.019 95.9974 521.692C95.4001 521.365 94.9381 520.903 94.6114 520.306C94.2847 519.699 94.1214 518.985 94.1214 518.164C94.1214 516.904 94.4761 515.938 95.1854 515.266C95.8947 514.594 96.8654 514.258 98.0974 514.258C99.3201 514.258 100.286 514.594 100.995 515.266C101.705 515.938 102.059 516.904 102.059 518.164C102.059 518.985 101.896 519.699 101.569 520.306C101.243 520.903 100.781 521.365 100.183 521.692C99.5861 522.019 98.8907 522.182 98.0974 522.182ZM96.3334 518.164C96.3334 518.883 96.4967 519.461 96.8234 519.9C97.1501 520.339 97.5747 520.558 98.0974 520.558C98.6201 520.558 99.0401 520.339 99.3574 519.9C99.6841 519.461 99.8474 518.883 99.8474 518.164C99.8474 517.417 99.6887 516.853 99.3714 516.47C99.0634 516.078 98.6387 515.882 98.0974 515.882C97.5561 515.882 97.1267 516.078 96.8094 516.47C96.4921 516.853 96.3334 517.417 96.3334 518.164ZM110.315 522.182C109.606 522.182 108.985 522.014 108.453 521.678C107.931 521.342 107.525 520.88 107.235 520.292C106.955 519.704 106.815 519.018 106.815 518.234C106.815 517.459 106.955 516.773 107.235 516.176C107.525 515.569 107.926 515.098 108.439 514.762C108.962 514.426 109.569 514.258 110.259 514.258C110.577 514.258 110.894 514.319 111.211 514.44C111.538 514.552 111.841 514.711 112.121 514.916V514.44H114.361V520.236C114.361 520.992 114.455 521.58 114.641 522H112.541C112.476 521.869 112.42 521.701 112.373 521.496C111.795 521.953 111.109 522.182 110.315 522.182ZM108.957 518.234C108.957 518.663 109.041 519.055 109.209 519.41C109.387 519.765 109.615 520.049 109.895 520.264C110.185 520.469 110.488 520.572 110.805 520.572C111.029 520.572 111.281 520.525 111.561 520.432C111.841 520.329 112.084 520.115 112.289 519.788V516.652C112.084 516.325 111.841 516.115 111.561 516.022C111.291 515.929 111.039 515.882 110.805 515.882C110.488 515.882 110.185 515.985 109.895 516.19C109.615 516.395 109.387 516.68 109.209 517.044C109.041 517.399 108.957 517.795 108.957 518.234ZM119.067 522.182C118.377 522.182 117.77 522.019 117.247 521.692C116.725 521.356 116.323 520.889 116.043 520.292C115.763 519.695 115.623 519.013 115.623 518.248C115.623 517.473 115.763 516.787 116.043 516.19C116.333 515.583 116.734 515.112 117.247 514.776C117.77 514.44 118.377 514.272 119.067 514.272C119.385 514.272 119.702 514.328 120.019 514.44C120.346 514.552 120.649 514.715 120.929 514.93V511.234H123.169V520.25C123.169 520.997 123.263 521.58 123.449 522H121.349C121.284 521.869 121.228 521.701 121.181 521.496C120.593 521.953 119.889 522.182 119.067 522.182ZM117.765 518.248C117.765 518.677 117.849 519.069 118.017 519.424C118.195 519.779 118.423 520.063 118.703 520.278C118.993 520.483 119.296 520.586 119.613 520.586C119.865 520.586 120.141 520.525 120.439 520.404C120.747 520.283 120.999 520.031 121.195 519.648V516.834C120.999 516.442 120.747 516.185 120.439 516.064C120.141 515.943 119.865 515.882 119.613 515.882C119.296 515.882 118.993 515.985 118.703 516.19C118.423 516.395 118.195 516.68 118.017 517.044C117.849 517.408 117.765 517.809 117.765 518.248ZM127.875 522.182C127.185 522.182 126.578 522.019 126.055 521.692C125.533 521.356 125.131 520.889 124.851 520.292C124.571 519.695 124.431 519.013 124.431 518.248C124.431 517.473 124.571 516.787 124.851 516.19C125.141 515.583 125.542 515.112 126.055 514.776C126.578 514.44 127.185 514.272 127.875 514.272C128.193 514.272 128.51 514.328 128.827 514.44C129.154 514.552 129.457 514.715 129.737 514.93V511.234H131.977V520.25C131.977 520.997 132.071 521.58 132.257 522H130.157C130.092 521.869 130.036 521.701 129.989 521.496C129.401 521.953 128.697 522.182 127.875 522.182ZM126.573 518.248C126.573 518.677 126.657 519.069 126.825 519.424C127.003 519.779 127.231 520.063 127.511 520.278C127.801 520.483 128.104 520.586 128.421 520.586C128.673 520.586 128.949 520.525 129.247 520.404C129.555 520.283 129.807 520.031 130.003 519.648V516.834C129.807 516.442 129.555 516.185 129.247 516.064C128.949 515.943 128.673 515.882 128.421 515.882C128.104 515.882 127.801 515.985 127.511 516.19C127.231 516.395 127.003 516.68 126.825 517.044C126.657 517.408 126.573 517.809 126.573 518.248ZM136.557 522.168C135.988 522.196 135.409 522.149 134.821 522.028C134.243 521.916 133.739 521.739 133.309 521.496V519.48C133.692 519.76 134.149 519.993 134.681 520.18C135.223 520.357 135.699 520.432 136.109 520.404C136.399 520.385 136.609 520.325 136.739 520.222C136.87 520.11 136.945 519.998 136.963 519.886C137.01 519.597 136.94 519.377 136.753 519.228C136.567 519.079 136.217 518.934 135.703 518.794C135.134 518.635 134.681 518.453 134.345 518.248C134.009 518.033 133.753 517.795 133.575 517.534C133.407 517.263 133.323 516.923 133.323 516.512C133.323 516.083 133.435 515.7 133.659 515.364C133.883 515.019 134.238 514.748 134.723 514.552C135.209 514.356 135.731 514.258 136.291 514.258C136.711 514.258 137.136 514.3 137.565 514.384C137.995 514.459 138.354 514.561 138.643 514.692V516.498C138.345 516.349 137.99 516.218 137.579 516.106C137.178 515.985 136.828 515.924 136.529 515.924C135.895 515.924 135.549 516.092 135.493 516.428C135.465 516.624 135.554 516.797 135.759 516.946C135.974 517.095 136.277 517.231 136.669 517.352C137.229 517.529 137.687 517.711 138.041 517.898C138.405 518.085 138.69 518.327 138.895 518.626C139.101 518.925 139.203 519.307 139.203 519.774C139.203 520.465 138.956 521.029 138.461 521.468C137.967 521.897 137.332 522.131 136.557 522.168ZM148.237 522.182C147.416 522.182 146.711 521.953 146.123 521.496C146.077 521.701 146.021 521.869 145.955 522H143.855C144.042 521.58 144.135 520.997 144.135 520.25V511.234H146.375V514.93C146.655 514.715 146.954 514.552 147.271 514.44C147.598 514.328 147.92 514.272 148.237 514.272C148.928 514.272 149.53 514.44 150.043 514.776C150.566 515.112 150.967 515.583 151.247 516.19C151.537 516.787 151.681 517.473 151.681 518.248C151.681 519.013 151.541 519.695 151.261 520.292C150.981 520.889 150.58 521.356 150.057 521.692C149.535 522.019 148.928 522.182 148.237 522.182ZM146.137 519.69C146.333 520.063 146.581 520.306 146.879 520.418C147.178 520.53 147.449 520.586 147.691 520.586C148.009 520.586 148.307 520.483 148.587 520.278C148.877 520.063 149.105 519.779 149.273 519.424C149.451 519.069 149.539 518.677 149.539 518.248C149.539 517.809 149.451 517.408 149.273 517.044C149.105 516.68 148.877 516.395 148.587 516.19C148.307 515.985 148.009 515.882 147.691 515.882C147.449 515.882 147.178 515.943 146.879 516.064C146.581 516.176 146.333 516.414 146.137 516.778V519.69ZM156.639 522.182C155.846 522.182 155.146 522.019 154.539 521.692C153.942 521.365 153.48 520.903 153.153 520.306C152.827 519.699 152.663 518.985 152.663 518.164C152.663 516.904 153.018 515.938 153.727 515.266C154.437 514.594 155.407 514.258 156.639 514.258C157.862 514.258 158.828 514.594 159.537 515.266C160.247 515.938 160.601 516.904 160.601 518.164C160.601 518.985 160.438 519.699 160.111 520.306C159.785 520.903 159.323 521.365 158.725 521.692C158.128 522.019 157.433 522.182 156.639 522.182ZM154.875 518.164C154.875 518.883 155.039 519.461 155.365 519.9C155.692 520.339 156.117 520.558 156.639 520.558C157.162 520.558 157.582 520.339 157.899 519.9C158.226 519.461 158.389 518.883 158.389 518.164C158.389 517.417 158.231 516.853 157.913 516.47C157.605 516.078 157.181 515.882 156.639 515.882C156.098 515.882 155.669 516.078 155.351 516.47C155.034 516.853 154.875 517.417 154.875 518.164ZM164.101 514.412V515.322C164.446 515.023 164.838 514.79 165.277 514.622C165.725 514.454 166.168 514.37 166.607 514.37C167.325 514.37 167.895 514.58 168.315 515C168.744 515.42 168.959 515.966 168.959 516.638V521.972H166.719V517.016C166.719 516.745 166.607 516.526 166.383 516.358C166.159 516.181 165.893 516.092 165.585 516.092C165.389 516.092 165.141 516.157 164.843 516.288C164.553 516.419 164.306 516.577 164.101 516.764V521.972H161.861V514.412H164.101ZM175.769 522.014C175.619 521.734 175.531 521.435 175.503 521.118C175.157 521.426 174.742 521.683 174.257 521.888C173.781 522.084 173.309 522.182 172.843 522.182C172.124 522.182 171.55 521.972 171.121 521.552C170.701 521.132 170.491 520.591 170.491 519.928V514.44H172.731V519.55C172.731 519.821 172.819 520.045 172.997 520.222C173.183 520.39 173.426 520.474 173.725 520.474C173.921 520.474 174.182 520.404 174.509 520.264C174.845 520.124 175.125 519.97 175.349 519.802V514.44H177.589V520.558C177.589 520.866 177.607 521.127 177.645 521.342C177.682 521.547 177.757 521.771 177.869 522.014H175.769ZM182.173 522.168C181.603 522.196 181.025 522.149 180.437 522.028C179.858 521.916 179.354 521.739 178.925 521.496V519.48C179.307 519.76 179.765 519.993 180.297 520.18C180.838 520.357 181.314 520.432 181.725 520.404C182.014 520.385 182.224 520.325 182.355 520.222C182.485 520.11 182.56 519.998 182.579 519.886C182.625 519.597 182.555 519.377 182.369 519.228C182.182 519.079 181.832 518.934 181.319 518.794C180.749 518.635 180.297 518.453 179.961 518.248C179.625 518.033 179.368 517.795 179.191 517.534C179.023 517.263 178.939 516.923 178.939 516.512C178.939 516.083 179.051 515.7 179.275 515.364C179.499 515.019 179.853 514.748 180.339 514.552C180.824 514.356 181.347 514.258 181.907 514.258C182.327 514.258 182.751 514.3 183.181 514.384C183.61 514.459 183.969 514.561 184.259 514.692V516.498C183.96 516.349 183.605 516.218 183.195 516.106C182.793 515.985 182.443 515.924 182.145 515.924C181.51 515.924 181.165 516.092 181.109 516.428C181.081 516.624 181.169 516.797 181.375 516.946C181.589 517.095 181.893 517.231 182.285 517.352C182.845 517.529 183.302 517.711 183.657 517.898C184.021 518.085 184.305 518.327 184.511 518.626C184.716 518.925 184.819 519.307 184.819 519.774C184.819 520.465 184.571 521.029 184.077 521.468C183.582 521.897 182.947 522.131 182.173 522.168ZM192.971 522.182C192.261 522.182 191.641 522.014 191.109 521.678C190.586 521.342 190.18 520.88 189.891 520.292C189.611 519.704 189.471 519.018 189.471 518.234C189.471 517.459 189.611 516.773 189.891 516.176C190.18 515.569 190.581 515.098 191.095 514.762C191.617 514.426 192.224 514.258 192.915 514.258C193.232 514.258 193.549 514.319 193.867 514.44C194.193 514.552 194.497 514.711 194.777 514.916V514.44H197.017V520.236C197.017 520.992 197.11 521.58 197.297 522H195.197C195.131 521.869 195.075 521.701 195.029 521.496C194.45 521.953 193.764 522.182 192.971 522.182ZM191.613 518.234C191.613 518.663 191.697 519.055 191.865 519.41C192.042 519.765 192.271 520.049 192.551 520.264C192.84 520.469 193.143 520.572 193.461 520.572C193.685 520.572 193.937 520.525 194.217 520.432C194.497 520.329 194.739 520.115 194.945 519.788V516.652C194.739 516.325 194.497 516.115 194.217 516.022C193.946 515.929 193.694 515.882 193.461 515.882C193.143 515.882 192.84 515.985 192.551 516.19C192.271 516.395 192.042 516.68 191.865 517.044C191.697 517.399 191.613 517.795 191.613 518.234ZM200.799 514.412V515.322C201.144 515.023 201.536 514.79 201.975 514.622C202.423 514.454 202.866 514.37 203.305 514.37C204.023 514.37 204.593 514.58 205.013 515C205.442 515.42 205.657 515.966 205.657 516.638V521.972H203.417V517.016C203.417 516.745 203.305 516.526 203.081 516.358C202.857 516.181 202.591 516.092 202.283 516.092C202.087 516.092 201.839 516.157 201.541 516.288C201.251 516.419 201.004 516.577 200.799 516.764V521.972H198.559V514.412H200.799ZM210.367 522.182C209.676 522.182 209.069 522.019 208.547 521.692C208.024 521.356 207.623 520.889 207.343 520.292C207.063 519.695 206.923 519.013 206.923 518.248C206.923 517.473 207.063 516.787 207.343 516.19C207.632 515.583 208.033 515.112 208.547 514.776C209.069 514.44 209.676 514.272 210.367 514.272C210.684 514.272 211.001 514.328 211.319 514.44C211.645 514.552 211.949 514.715 212.229 514.93V511.234H214.469V520.25C214.469 520.997 214.562 521.58 214.749 522H212.649C212.583 521.869 212.527 521.701 212.481 521.496C211.893 521.953 211.188 522.182 210.367 522.182ZM209.065 518.248C209.065 518.677 209.149 519.069 209.317 519.424C209.494 519.779 209.723 520.063 210.003 520.278C210.292 520.483 210.595 520.586 210.913 520.586C211.165 520.586 211.44 520.525 211.739 520.404C212.047 520.283 212.299 520.031 212.495 519.648V516.834C212.299 516.442 212.047 516.185 211.739 516.064C211.44 515.943 211.165 515.882 210.913 515.882C210.595 515.882 210.292 515.985 210.003 516.19C209.723 516.395 209.494 516.68 209.317 517.044C209.149 517.408 209.065 517.809 209.065 518.248ZM226.087 521.748C225.369 522.037 224.631 522.182 223.875 522.182C223.082 522.182 222.349 522.023 221.677 521.706C221.015 521.379 220.487 520.922 220.095 520.334C219.703 519.737 219.507 519.051 219.507 518.276C219.507 517.464 219.694 516.755 220.067 516.148C220.441 515.541 220.949 515.079 221.593 514.762C222.247 514.435 222.975 514.272 223.777 514.272C224.505 514.272 225.243 514.403 225.989 514.664V516.386C225.42 516.143 224.837 516.022 224.239 516.022C223.502 516.022 222.891 516.199 222.405 516.554C221.92 516.899 221.677 517.473 221.677 518.276C221.677 518.733 221.803 519.121 222.055 519.438C222.307 519.755 222.634 519.998 223.035 520.166C223.437 520.325 223.861 520.404 224.309 520.404C224.655 520.404 224.981 520.357 225.289 520.264C225.607 520.161 225.873 520.021 226.087 519.844V521.748ZM231.047 522.182C230.254 522.182 229.554 522.019 228.947 521.692C228.35 521.365 227.888 520.903 227.561 520.306C227.234 519.699 227.071 518.985 227.071 518.164C227.071 516.904 227.426 515.938 228.135 515.266C228.844 514.594 229.815 514.258 231.047 514.258C232.27 514.258 233.236 514.594 233.945 515.266C234.654 515.938 235.009 516.904 235.009 518.164C235.009 518.985 234.846 519.699 234.519 520.306C234.192 520.903 233.73 521.365 233.133 521.692C232.536 522.019 231.84 522.182 231.047 522.182ZM229.283 518.164C229.283 518.883 229.446 519.461 229.773 519.9C230.1 520.339 230.524 520.558 231.047 520.558C231.57 520.558 231.99 520.339 232.307 519.9C232.634 519.461 232.797 518.883 232.797 518.164C232.797 517.417 232.638 516.853 232.321 516.47C232.013 516.078 231.588 515.882 231.047 515.882C230.506 515.882 230.076 516.078 229.759 516.47C229.442 516.853 229.283 517.417 229.283 518.164ZM238.508 514.412V515.322C238.854 515.023 239.246 514.79 239.684 514.622C240.132 514.454 240.576 514.37 241.014 514.37C241.733 514.37 242.302 514.58 242.722 515C243.152 515.42 243.366 515.966 243.366 516.638V521.972H241.126V517.016C241.126 516.745 241.014 516.526 240.79 516.358C240.566 516.181 240.3 516.092 239.992 516.092C239.796 516.092 239.549 516.157 239.25 516.288C238.961 516.419 238.714 516.577 238.508 516.764V521.972H236.268V514.412H238.508ZM245.5 514.44V512.284H247.6V514.44H249.056V516.148H247.6V519.396C247.6 519.667 247.619 519.872 247.656 520.012C247.703 520.152 247.782 520.25 247.894 520.306C248.006 520.353 248.17 520.376 248.384 520.376C248.524 520.376 248.641 520.371 248.734 520.362C248.837 520.353 248.926 520.339 249 520.32V522.042C248.608 522.089 248.244 522.112 247.908 522.112C247.264 522.112 246.784 522.047 246.466 521.916C246.149 521.785 245.906 521.561 245.738 521.244C245.58 520.917 245.5 520.455 245.5 519.858V516.148H244.408V514.44H245.5ZM252.601 514.44V522H250.361V514.44H252.601ZM250.361 511.234H252.601V513.474H250.361V511.234ZM256.565 514.412V515.322C256.91 515.023 257.302 514.79 257.741 514.622C258.189 514.454 258.632 514.37 259.071 514.37C259.79 514.37 260.359 514.58 260.779 515C261.208 515.42 261.423 515.966 261.423 516.638V521.972H259.183V517.016C259.183 516.745 259.071 516.526 258.847 516.358C258.623 516.181 258.357 516.092 258.049 516.092C257.853 516.092 257.606 516.157 257.307 516.288C257.018 516.419 256.77 516.577 256.565 516.764V521.972H254.325V514.412H256.565ZM268.233 522.014C268.084 521.734 267.995 521.435 267.967 521.118C267.622 521.426 267.206 521.683 266.721 521.888C266.245 522.084 265.774 522.182 265.307 522.182C264.588 522.182 264.014 521.972 263.585 521.552C263.165 521.132 262.955 520.591 262.955 519.928V514.44H265.195V519.55C265.195 519.821 265.284 520.045 265.461 520.222C265.648 520.39 265.89 520.474 266.189 520.474C266.385 520.474 266.646 520.404 266.973 520.264C267.309 520.124 267.589 519.97 267.813 519.802V514.44H270.053V520.558C270.053 520.866 270.072 521.127 270.109 521.342C270.146 521.547 270.221 521.771 270.333 522.014H268.233ZM278.473 521.594C278.119 521.809 277.703 521.967 277.227 522.07C276.761 522.173 276.308 522.224 275.869 522.224C274.376 522.224 273.242 521.869 272.467 521.16C271.702 520.451 271.319 519.457 271.319 518.178C271.319 516.909 271.66 515.938 272.341 515.266C273.032 514.585 273.97 514.244 275.155 514.244C276.331 514.244 277.26 514.585 277.941 515.266C278.632 515.938 278.977 516.909 278.977 518.178C278.977 518.318 278.968 518.519 278.949 518.78H273.503C273.709 519.984 274.497 520.586 275.869 520.586C276.831 520.586 277.699 520.301 278.473 519.732V521.594ZM276.863 517.212C276.742 516.745 276.532 516.4 276.233 516.176C275.935 515.952 275.575 515.84 275.155 515.84C274.763 515.84 274.427 515.957 274.147 516.19C273.877 516.423 273.685 516.764 273.573 517.212H276.863ZM283.281 522.168C282.712 522.196 282.133 522.149 281.545 522.028C280.967 521.916 280.463 521.739 280.033 521.496V519.48C280.416 519.76 280.873 519.993 281.405 520.18C281.947 520.357 282.423 520.432 282.833 520.404C283.123 520.385 283.333 520.325 283.463 520.222C283.594 520.11 283.669 519.998 283.687 519.886C283.734 519.597 283.664 519.377 283.477 519.228C283.291 519.079 282.941 518.934 282.427 518.794C281.858 518.635 281.405 518.453 281.069 518.248C280.733 518.033 280.477 517.795 280.299 517.534C280.131 517.263 280.047 516.923 280.047 516.512C280.047 516.083 280.159 515.7 280.383 515.364C280.607 515.019 280.962 514.748 281.447 514.552C281.933 514.356 282.455 514.258 283.015 514.258C283.435 514.258 283.86 514.3 284.289 514.384C284.719 514.459 285.078 514.561 285.367 514.692V516.498C285.069 516.349 284.714 516.218 284.303 516.106C283.902 515.985 283.552 515.924 283.253 515.924C282.619 515.924 282.273 516.092 282.217 516.428C282.189 516.624 282.278 516.797 282.483 516.946C282.698 517.095 283.001 517.231 283.393 517.352C283.953 517.529 284.411 517.711 284.765 517.898C285.129 518.085 285.414 518.327 285.619 518.626C285.825 518.925 285.927 519.307 285.927 519.774C285.927 520.465 285.68 521.029 285.185 521.468C284.691 521.897 284.056 522.131 283.281 522.168ZM293.099 514.412V515.322C293.444 515.023 293.836 514.79 294.275 514.622C294.723 514.454 295.166 514.37 295.605 514.37C296.324 514.37 296.893 514.58 297.313 515C297.742 515.42 297.957 515.966 297.957 516.638V521.972H295.717V517.016C295.717 516.745 295.605 516.526 295.381 516.358C295.157 516.181 294.891 516.092 294.583 516.092C294.387 516.092 294.14 516.157 293.841 516.288C293.552 516.419 293.304 516.577 293.099 516.764V521.972H290.859V514.412H293.099ZM306.377 521.594C306.022 521.809 305.607 521.967 305.131 522.07C304.664 522.173 304.212 522.224 303.773 522.224C302.28 522.224 301.146 521.869 300.371 521.16C299.606 520.451 299.223 519.457 299.223 518.178C299.223 516.909 299.564 515.938 300.245 515.266C300.936 514.585 301.874 514.244 303.059 514.244C304.235 514.244 305.164 514.585 305.845 515.266C306.536 515.938 306.881 516.909 306.881 518.178C306.881 518.318 306.872 518.519 306.853 518.78H301.407C301.612 519.984 302.401 520.586 303.773 520.586C304.734 520.586 305.602 520.301 306.377 519.732V521.594ZM304.767 517.212C304.646 516.745 304.436 516.4 304.137 516.176C303.838 515.952 303.479 515.84 303.059 515.84C302.667 515.84 302.331 515.957 302.051 516.19C301.78 516.423 301.589 516.764 301.477 517.212H304.767ZM311.444 519.592H311.388L309.806 522H307.51L310.156 518.248L307.454 514.44H309.722L311.388 516.918H311.444L313.11 514.44H315.378L312.676 518.248L315.322 522H313.026L311.444 519.592ZM317.092 514.44V512.284H319.192V514.44H320.648V516.148H319.192V519.396C319.192 519.667 319.21 519.872 319.248 520.012C319.294 520.152 319.374 520.25 319.486 520.306C319.598 520.353 319.761 520.376 319.976 520.376C320.116 520.376 320.232 520.371 320.326 520.362C320.428 520.353 320.517 520.339 320.592 520.32V522.042C320.2 522.089 319.836 522.112 319.5 522.112C318.856 522.112 318.375 522.047 318.058 521.916C317.74 521.785 317.498 521.561 317.33 521.244C317.171 520.917 317.092 520.455 317.092 519.858V516.148H316V514.44H317.092ZM327.787 514.44V515.252C328.03 514.991 328.319 514.79 328.655 514.65C329.001 514.501 329.341 514.426 329.677 514.426C329.911 514.426 330.13 514.459 330.335 514.524V516.246C330.074 516.181 329.827 516.148 329.593 516.148C329.239 516.148 328.903 516.209 328.585 516.33C328.268 516.442 328.002 516.624 327.787 516.876V522H325.547V514.44H327.787ZM334.825 522.182C334.031 522.182 333.331 522.019 332.725 521.692C332.127 521.365 331.665 520.903 331.339 520.306C331.012 519.699 330.849 518.985 330.849 518.164C330.849 516.904 331.203 515.938 331.913 515.266C332.622 514.594 333.593 514.258 334.825 514.258C336.047 514.258 337.014 514.594 337.723 515.266C338.432 515.938 338.787 516.904 338.787 518.164C338.787 518.985 338.623 519.699 338.297 520.306C337.97 520.903 337.508 521.365 336.911 521.692C336.313 522.019 335.618 522.182 334.825 522.182ZM333.061 518.164C333.061 518.883 333.224 519.461 333.551 519.9C333.877 520.339 334.302 520.558 334.825 520.558C335.347 520.558 335.767 520.339 336.085 519.9C336.411 519.461 336.575 518.883 336.575 518.164C336.575 517.417 336.416 516.853 336.099 516.47C335.791 516.078 335.366 515.882 334.825 515.882C334.283 515.882 333.854 516.078 333.537 516.47C333.219 516.853 333.061 517.417 333.061 518.164ZM345.31 522.014C345.161 521.734 345.072 521.435 345.044 521.118C344.699 521.426 344.284 521.683 343.798 521.888C343.322 522.084 342.851 522.182 342.384 522.182C341.666 522.182 341.092 521.972 340.662 521.552C340.242 521.132 340.032 520.591 340.032 519.928V514.44H342.272V519.55C342.272 519.821 342.361 520.045 342.538 520.222C342.725 520.39 342.968 520.474 343.266 520.474C343.462 520.474 343.724 520.404 344.05 520.264C344.386 520.124 344.666 519.97 344.89 519.802V514.44H347.13V520.558C347.13 520.866 347.149 521.127 347.186 521.342C347.224 521.547 347.298 521.771 347.41 522.014H345.31ZM350.916 514.412V515.322C351.262 515.023 351.654 514.79 352.092 514.622C352.54 514.454 352.984 514.37 353.422 514.37C354.141 514.37 354.71 514.58 355.13 515C355.56 515.42 355.774 515.966 355.774 516.638V521.972H353.534V517.016C353.534 516.745 353.422 516.526 353.198 516.358C352.974 516.181 352.708 516.092 352.4 516.092C352.204 516.092 351.957 516.157 351.658 516.288C351.369 516.419 351.122 516.577 350.916 516.764V521.972H348.676V514.412H350.916ZM360.484 522.182C359.794 522.182 359.187 522.019 358.664 521.692C358.142 521.356 357.74 520.889 357.46 520.292C357.18 519.695 357.04 519.013 357.04 518.248C357.04 517.473 357.18 516.787 357.46 516.19C357.75 515.583 358.151 515.112 358.664 514.776C359.187 514.44 359.794 514.272 360.484 514.272C360.802 514.272 361.119 514.328 361.436 514.44C361.763 514.552 362.066 514.715 362.346 514.93V511.234H364.586V520.25C364.586 520.997 364.68 521.58 364.866 522H362.766C362.701 521.869 362.645 521.701 362.598 521.496C362.01 521.953 361.306 522.182 360.484 522.182ZM359.182 518.248C359.182 518.677 359.266 519.069 359.434 519.424C359.612 519.779 359.84 520.063 360.12 520.278C360.41 520.483 360.713 520.586 361.03 520.586C361.282 520.586 361.558 520.525 361.856 520.404C362.164 520.283 362.416 520.031 362.612 519.648V516.834C362.416 516.442 362.164 516.185 361.856 516.064C361.558 515.943 361.282 515.882 361.03 515.882C360.713 515.882 360.41 515.985 360.12 516.19C359.84 516.395 359.612 516.68 359.434 517.044C359.266 517.408 359.182 517.809 359.182 518.248Z" fill="#919191"/>
<path d="M91.8159 417.364C89.7812 417.364 87.9892 416.953 86.4399 416.132C84.9092 415.311 83.7332 414.153 82.9119 412.66C82.1092 411.148 81.7079 409.375 81.7079 407.34C81.7079 405.343 82.1186 403.56 82.9399 401.992C83.7799 400.424 84.9652 399.211 86.4959 398.352C88.0452 397.475 89.8186 397.036 91.8159 397.036C93.7199 397.036 95.4466 397.465 96.9959 398.324C98.5639 399.183 99.7679 400.396 100.608 401.964C101.467 403.532 101.896 405.324 101.896 407.34C101.896 409.524 101.429 411.391 100.496 412.94C99.5812 414.471 98.2839 415.609 96.6039 416.356C97.0519 417.233 97.5279 418.269 98.0319 419.464H93.8879C93.4772 418.568 93.1319 417.849 92.8519 417.308C92.4226 417.345 92.0772 417.364 91.8159 417.364ZM86.1319 407.34C86.1319 408.647 86.3652 409.795 86.8319 410.784C87.3172 411.755 87.9799 412.52 88.8199 413.08C89.6599 413.621 90.6586 413.892 91.8159 413.892C92.9546 413.892 93.9346 413.621 94.7559 413.08C95.5959 412.52 96.2492 411.755 96.7159 410.784C97.2012 409.795 97.4439 408.647 97.4439 407.34C97.4439 406.145 97.2106 405.035 96.7439 404.008C96.2959 402.963 95.6426 402.104 94.7839 401.432C93.9439 400.76 92.9359 400.424 91.7599 400.424C90.6586 400.424 89.6879 400.751 88.8479 401.404C88.0079 402.039 87.3452 402.879 86.8599 403.924C86.3746 404.951 86.1319 406.089 86.1319 407.34ZM113.314 417.364C110.682 417.364 108.582 416.655 107.014 415.236C105.464 413.817 104.69 411.867 104.69 409.384V397.4H109.31V409.384C109.31 410.205 109.487 410.915 109.842 411.512C110.215 412.109 110.71 412.576 111.326 412.912C111.942 413.229 112.604 413.388 113.314 413.388C114.042 413.388 114.704 413.229 115.302 412.912C115.918 412.576 116.403 412.109 116.758 411.512C117.112 410.896 117.29 410.187 117.29 409.384V397.4H121.91V409.384C121.91 411.867 121.126 413.817 119.558 415.236C118.008 416.655 115.927 417.364 113.314 417.364ZM125.364 397.4H129.984V417H125.364V397.4ZM143.844 417.364C141.716 417.364 139.821 416.972 138.16 416.188C136.517 415.404 135.22 414.265 134.268 412.772C133.335 411.279 132.868 409.505 132.868 407.452C132.868 405.287 133.325 403.429 134.24 401.88C135.155 400.312 136.433 399.117 138.076 398.296C139.719 397.456 141.595 397.036 143.704 397.036C144.749 397.036 145.804 397.139 146.868 397.344C147.932 397.549 148.809 397.811 149.5 398.128V401.6C147.615 400.909 145.86 400.564 144.236 400.564C142.295 400.564 140.717 401.133 139.504 402.272C138.309 403.411 137.712 405.137 137.712 407.452C137.712 408.684 138.011 409.776 138.608 410.728C139.205 411.661 139.989 412.389 140.96 412.912C141.931 413.435 142.976 413.733 144.096 413.808L144.712 413.836C145.571 413.836 146.42 413.715 147.26 413.472C148.1 413.229 148.847 412.903 149.5 412.492V416.356C148.697 416.729 147.839 416.991 146.924 417.14C146.028 417.289 145.001 417.364 143.844 417.364ZM164.889 416.972C163.657 414.937 162.639 413.388 161.837 412.324C161.034 411.26 160.035 410.177 158.841 409.076H157.189V417H152.569V397.4H157.189V405.324H158.225L163.685 397.4H168.725L162.005 406.976C163.517 408.357 164.833 409.785 165.953 411.26C167.073 412.735 168.323 414.639 169.705 416.972H164.889ZM189.098 417.364C186.97 417.364 185.075 416.972 183.414 416.188C181.771 415.404 180.474 414.265 179.522 412.772C178.589 411.279 178.122 409.505 178.122 407.452C178.122 405.287 178.579 403.429 179.494 401.88C180.409 400.312 181.687 399.117 183.33 398.296C184.973 397.456 186.849 397.036 188.958 397.036C190.003 397.036 191.058 397.139 192.122 397.344C193.186 397.549 194.063 397.811 194.754 398.128V401.6C192.869 400.909 191.114 400.564 189.49 400.564C187.549 400.564 185.971 401.133 184.758 402.272C183.563 403.411 182.966 405.137 182.966 407.452C182.966 408.684 183.265 409.776 183.862 410.728C184.459 411.661 185.243 412.389 186.214 412.912C187.185 413.435 188.23 413.733 189.35 413.808L189.966 413.836C190.825 413.836 191.674 413.715 192.514 413.472C193.354 413.229 194.101 412.903 194.754 412.492V416.356C193.951 416.729 193.093 416.991 192.178 417.14C191.282 417.289 190.255 417.364 189.098 417.364ZM214.595 397.4V417H209.975V408.712H202.443V417H197.823V397.4H202.443V404.932H209.975V397.4H214.595ZM229.54 411.456H223.268L221.784 417H216.884L222.568 397.4H230.268L235.952 417H231.024L229.54 411.456ZM228.644 408.096L226.432 399.892H226.376L224.164 408.096H228.644ZM242.857 397.4V413.22H250.781V417H238.237V397.4H242.857ZM257.486 397.4V413.22H265.41V417H252.866V397.4H257.486ZM267.494 397.4H281.27V401.208H272.114V405.408H280.066V408.964H272.114V413.192H281.27V417H267.494V397.4ZM288.495 401.768H288.327V417H283.791V397.4H291.155L295.831 412.884H296.195V397.4H300.731V417H293.199L288.495 401.768ZM320.712 416.16C319.854 416.571 318.93 416.869 317.94 417.056C316.951 417.261 315.803 417.364 314.496 417.364C312.35 417.364 310.455 416.963 308.812 416.16C307.17 415.357 305.872 414.219 304.92 412.744C303.987 411.251 303.52 409.505 303.52 407.508C303.52 405.492 303.978 403.7 304.892 402.132C305.826 400.545 307.104 399.304 308.728 398.408C310.371 397.493 312.247 397.036 314.356 397.036C315.383 397.036 316.419 397.139 317.464 397.344C318.528 397.549 319.424 397.801 320.152 398.1V401.46C318.267 400.825 316.512 400.508 314.888 400.508C312.872 400.508 311.239 401.087 309.988 402.244C308.738 403.401 308.112 405.156 308.112 407.508C308.112 408.777 308.411 409.907 309.008 410.896C309.624 411.867 310.436 412.576 311.444 413.024C312.471 413.472 313.572 413.696 314.748 413.696C315.532 413.696 316.223 413.668 316.82 413.612V409.3H314.608V405.8H320.712V416.16ZM323.795 397.4H337.571V401.208H328.415V405.408H336.367V408.964H328.415V413.192H337.571V417H323.795V397.4Z" fill="#273430"/>
<g clip-path="url(#clip1_703_2834)">
<rect width="422" height="368" transform="translate(-1.5)" fill="#E9F7FF"/>
<path d="M139.571 292.197C139.571 268.703 139.571 256.957 143.676 247.79C148.395 237.254 156.826 228.823 167.362 224.105C176.528 220 188.274 220 211.768 220V220C234.761 220 246.258 220 255.229 224.018C265.541 228.636 273.793 236.887 278.411 247.199C282.428 256.17 282.428 267.667 282.428 290.66V294.139C282.428 312.415 282.428 321.553 278.806 328.504C275.775 334.318 271.032 339.061 265.218 342.092C258.267 345.714 249.129 345.714 230.853 345.714H190.494C172.834 345.714 164.004 345.714 157.238 342.325C151.063 339.231 146.054 334.223 142.961 328.047C139.571 321.282 139.571 312.452 139.571 294.792V292.197Z" fill="#14AEEC"/>
<rect x="158.143" y="257.143" width="105.714" height="60" rx="20" fill="#010101"/>
<path d="M181 345.238C181 339.007 181 335.892 182.34 333.571C183.217 332.051 184.48 330.789 186 329.911C188.321 328.571 191.436 328.571 197.667 328.571H224.333C230.564 328.571 233.679 328.571 236 329.911C237.52 330.789 238.783 332.051 239.66 333.571C241 335.892 241 339.007 241 345.238V345.238C241 346.484 241 347.107 240.732 347.571C240.556 347.875 240.304 348.128 240 348.303C239.536 348.571 238.913 348.571 237.667 348.571H184.333C183.087 348.571 182.464 348.571 182 348.303C181.696 348.128 181.443 347.875 181.268 347.571C181 347.107 181 346.484 181 345.238V345.238Z" fill="#8CE2F9"/>
<path d="M279.571 259.643C279.571 259.178 279.571 258.946 279.61 258.753C279.768 257.959 280.388 257.339 281.181 257.181C281.374 257.143 281.607 257.143 282.071 257.143V257.143C283.465 257.143 284.162 257.143 284.742 257.258C287.122 257.732 288.983 259.592 289.456 261.972C289.571 262.552 289.571 263.249 289.571 264.643V308.214C289.571 309.608 289.571 310.305 289.456 310.885C288.983 313.265 287.122 315.126 284.742 315.599C284.162 315.714 283.465 315.714 282.071 315.714V315.714C281.607 315.714 281.374 315.714 281.181 315.676C280.388 315.518 279.768 314.898 279.61 314.104C279.571 313.911 279.571 313.679 279.571 313.214V259.643Z" fill="#8CE2F9"/>
<path d="M142.429 259.643C142.429 259.178 142.429 258.946 142.39 258.753C142.232 257.959 141.612 257.339 140.819 257.181C140.626 257.143 140.393 257.143 139.929 257.143V257.143C138.535 257.143 137.838 257.143 137.258 257.258C134.878 257.732 133.017 259.592 132.544 261.972C132.429 262.552 132.429 263.249 132.429 264.643V308.214C132.429 309.608 132.429 310.305 132.544 310.885C133.017 313.265 134.878 315.126 137.258 315.599C137.838 315.714 138.535 315.714 139.929 315.714V315.714C140.393 315.714 140.626 315.714 140.819 315.676C141.612 315.518 142.232 314.898 142.39 314.104C142.429 313.911 142.429 313.679 142.429 313.214V259.643Z" fill="#8CE2F9"/>
<path d="M183.857 222C183.857 221.057 183.857 220.586 184.15 220.293C184.443 220 184.914 220 185.857 220H236.143C237.085 220 237.557 220 237.85 220.293C238.143 220.586 238.143 221.057 238.143 222V257.143H183.857V222Z" fill="#3F7B8D"/>
<path d="M189.571 220H232.428V239.714C232.428 242.543 232.428 243.957 231.55 244.836C230.671 245.714 229.257 245.714 226.428 245.714H195.571C192.743 245.714 191.329 245.714 190.45 244.836C189.571 243.957 189.571 242.543 189.571 239.714V220Z" fill="#8CE2F9"/>
<ellipse cx="17.9582" cy="17.1429" rx="17.9582" ry="17.1429" transform="matrix(-1 -8.34536e-08 -9.15808e-08 1 204.917 271)" fill="#EBBA48"/>
<path d="M186.959 275.429C179.533 275.429 173.592 281.164 173.592 288.142C173.592 295.121 179.533 300.857 186.959 300.857C194.385 300.857 200.325 295.121 200.325 288.142C200.325 281.164 194.385 275.429 186.959 275.429Z" fill="#EBBA48" stroke="#F1EACD" stroke-width="2"/>
<ellipse cx="2.68934" cy="3.43469" rx="2.68934" ry="3.43469" transform="matrix(-0.983099 0.183073 0.200218 0.979751 181.991 285)" fill="#EEE8D8"/>
<ellipse cx="0.897909" cy="0.857142" rx="0.897909" ry="0.857142" transform="matrix(-1 -8.34536e-08 -9.15808e-08 1 183.368 293.572)" fill="#EFE8DC"/>
<ellipse cx="17.9582" cy="17.1429" rx="17.9582" ry="17.1429" transform="matrix(-1 -8.34536e-08 -9.15808e-08 1 253.917 271)" fill="#EBBA48"/>
<path d="M235.955 275C228.528 275 222.588 280.736 222.587 287.714C222.587 294.693 228.528 300.429 235.955 300.429C243.381 300.429 249.321 294.693 249.321 287.714C249.321 280.736 243.381 275 235.955 275Z" fill="#EBBA48" stroke="#F1EACD" stroke-width="2"/>
<ellipse cx="2.68934" cy="3.43469" rx="2.68934" ry="3.43469" transform="matrix(-0.983099 0.183073 0.200218 0.979751 230.995 285)" fill="#EEE8D8"/>
<ellipse cx="0.897909" cy="0.857142" rx="0.897909" ry="0.857142" transform="matrix(-1 -8.34536e-08 -9.15808e-08 1 232.363 293.572)" fill="#EFE8DC"/>
<rect x="131" y="265.714" width="2.85714" height="40" rx="1.42857" fill="#14AEEC"/>
<rect x="288.143" y="265.714" width="2.85714" height="40" rx="1.42857" fill="#14AEEC"/>
<path opacity="0.5" d="M124.088 334.075C116.146 319.223 111.989 302.553 112.001 285.612C112.012 268.67 116.194 252.007 124.157 237.167L125.873 238.137C118.07 252.68 113.972 269.011 113.961 285.613C113.949 302.216 118.024 318.553 125.807 333.107L124.088 334.075Z" fill="#0E8ABB"/>
<path opacity="0.3" d="M105.679 344.444C96.0349 326.41 90.986 306.168 91.0005 285.596C91.015 265.024 96.0924 244.79 105.761 226.77L107.846 227.948C98.3705 245.608 93.3947 265.438 93.3805 285.598C93.3663 305.758 98.3142 325.596 107.765 343.269L105.679 344.444Z" fill="#0E8ABB"/>
<path opacity="0.1" d="M87.2685 354.815C75.9229 333.598 69.983 309.783 70 285.581C70.0171 261.379 75.9904 237.573 87.3659 216.373L89.8186 217.759C78.6706 238.536 72.8167 261.865 72.8 285.583C72.7833 309.301 78.6044 332.639 89.7231 353.432L87.2685 354.815Z" fill="#0E8ABB"/>
<path opacity="0.5" d="M294.871 235.395C303.125 250.067 307.633 266.64 307.979 283.578C308.325 300.516 304.496 317.269 296.849 332.282L295.112 331.35C302.606 316.637 306.358 300.219 306.02 283.62C305.681 267.021 301.262 250.779 293.174 236.401L294.871 235.395Z" fill="#0E8ABB"/>
<path opacity="0.3" d="M313.058 224.619C323.08 242.434 328.555 262.559 328.975 283.127C329.394 303.694 324.745 324.037 315.459 342.268L313.35 341.136C322.45 323.27 327.007 303.334 326.595 283.178C326.184 263.022 320.818 243.299 310.997 225.84L313.058 224.619Z" fill="#0E8ABB"/>
<path opacity="0.1" d="M331.245 213.842C343.035 234.802 349.477 258.479 349.971 282.676C350.464 306.873 344.995 330.805 334.07 352.253L331.588 350.922C342.295 329.903 347.655 306.449 347.171 282.736C346.687 259.023 340.375 235.82 328.82 215.279L331.245 213.842Z" fill="#0E8ABB"/>
<ellipse cx="210" cy="401" rx="256.5" ry="61" fill="white"/>
</g>
</g>
<defs>
<clipPath id="clip0_703_2834">
<rect width="420" height="812" fill="white"/>
</clipPath>
<clipPath id="clip1_703_2834">
<rect width="422" height="368" fill="white" transform="translate(-1.5)"/>
</clipPath>
</defs>
</svg>





