<svg width="420" height="812" viewBox="0 0 420 812" fill="none" xmlns="http://www.w3.org/2000/svg">
<g clip-path="url(#clip0_465_1502)">
<rect width="420" height="812" fill="white"/>
<path d="M91.8856 468.874L90.0796 469.63V467.586L92.4876 466.214H93.9576V476H91.8856V468.874ZM100.689 476.182C98.3467 476.182 97.1754 474.488 97.1754 471.1C97.1754 467.712 98.3467 466.018 100.689 466.018C103.032 466.018 104.203 467.712 104.203 471.1C104.203 474.488 103.032 476.182 100.689 476.182ZM99.2334 471.1C99.2334 472.192 99.3454 472.995 99.5694 473.508C99.8027 474.021 100.176 474.278 100.689 474.278C101.203 474.278 101.571 474.021 101.795 473.508C102.029 472.995 102.145 472.192 102.145 471.1C102.145 470.017 102.029 469.219 101.795 468.706C101.571 468.193 101.203 467.936 100.689 467.936C100.176 467.936 99.8027 468.193 99.5694 468.706C99.3454 469.219 99.2334 470.017 99.2334 471.1ZM118.257 477.568C116.96 477.223 115.845 476.681 114.911 475.944C113.969 476.681 112.849 477.223 111.551 477.568V475.706C112.326 475.445 113.017 475.099 113.623 474.67C112.681 473.466 112.093 472.001 111.859 470.274H117.949C117.716 472.001 117.128 473.466 116.185 474.67C116.792 475.099 117.483 475.445 118.257 475.706V477.568ZM105.391 474.502L106.091 474.432V464.94C107.902 464.94 109.629 464.879 111.271 464.758V466.536C110.338 466.601 109.209 466.653 107.883 466.69V467.894H110.753V469.602H107.883V470.82H110.753V472.528H107.883V474.25L111.117 473.928V475.706L107.883 476.028V477.4H106.091V476.21L105.391 476.28V474.502ZM111.313 469.994C111.715 469.387 111.995 468.79 112.153 468.202C112.312 467.605 112.391 466.928 112.391 466.172V465.038H117.417V468.104H118.257V469.784H115.639V466.83H114.155C114.099 467.931 113.833 468.986 113.357 469.994H111.313ZM114.029 471.828C114.253 472.397 114.543 472.925 114.897 473.41C115.261 472.943 115.555 472.416 115.779 471.828H114.029ZM126.965 469.868L126.475 470.246C126.438 471.907 126.251 473.485 125.915 474.978C126.195 475.211 126.503 475.379 126.839 475.482C127.185 475.585 127.595 475.636 128.071 475.636H132.537V477.288H128.071C127.483 477.288 126.989 477.232 126.587 477.12C126.186 477.017 125.827 476.84 125.509 476.588C125.481 476.691 125.402 476.961 125.271 477.4H123.479C123.918 476.177 124.24 475.043 124.445 473.998C124.651 472.953 124.777 471.823 124.823 470.61H123.927V468.79H125.999C126.606 468.314 127.087 467.717 127.441 466.998H126.503V465.43H127.987C128.025 465.253 128.071 465.001 128.127 464.674H129.625C129.597 464.926 129.555 465.178 129.499 465.43H132.397V466.998H129.023C128.911 467.259 128.785 467.525 128.645 467.796H132.117V475.244H130.437V473.914H128.645V475.244H126.965V469.868ZM120.007 464.94H124.011V466.508C124.011 467.74 123.764 468.921 123.269 470.05C123.829 470.899 124.109 471.898 124.109 473.046C124.109 474.101 123.857 475.029 123.353 475.832H121.589V477.4H120.007V464.94ZM121.589 475.776C121.944 475.319 122.205 474.871 122.373 474.432C122.541 473.984 122.625 473.522 122.625 473.046C122.625 472.094 122.28 471.179 121.589 470.302V475.776ZM121.589 470.162C122.14 469.051 122.439 467.908 122.485 466.732H121.589V470.162ZM125.915 464.8L126.335 467.838H124.767L124.347 464.8H125.915ZM130.437 472.514V471.618H128.645V472.514H130.437ZM130.437 470.218V469.322H128.645V470.218H130.437ZM138.319 477.54C138.861 476.457 139.248 475.431 139.481 474.46C139.724 473.48 139.845 472.397 139.845 471.212V465.164H145.473V475.566H146.719V477.4H143.667V467.04H141.651V471.212C141.651 472.416 141.549 473.503 141.343 474.474C141.147 475.445 140.807 476.467 140.321 477.54H138.319ZM133.699 476.672C134.203 474.152 134.455 471.445 134.455 468.552H135.953C135.953 471.641 135.734 474.348 135.295 476.672H133.699ZM134.077 466.242H136.443V464.73H138.207V466.242H139.537V467.978H138.207V469.686L139.313 470.372V472.486L138.207 471.8V477.4H136.443V467.978H134.077V466.242ZM153.957 469.574H155.679L156.729 473.858H155.007L153.957 469.574ZM148.203 465.696H153.649L153.551 467.208C153.495 468.384 153.346 469.457 153.103 470.428C152.861 471.389 152.511 472.29 152.053 473.13C152.52 473.783 153.122 474.399 153.859 474.978V477.316C152.73 476.476 151.792 475.585 151.045 474.642C150.28 475.594 149.337 476.485 148.217 477.316V474.978C148.955 474.399 149.557 473.783 150.023 473.13C149.566 472.309 149.216 471.422 148.973 470.47C148.74 469.518 148.591 468.468 148.525 467.32H148.203V465.696ZM150.247 467.32C150.313 468.841 150.579 470.171 151.045 471.31C151.503 470.162 151.764 468.832 151.829 467.32H150.247ZM153.901 466.424H157.723V464.8H159.515V466.424H160.747V468.216H159.515L159.501 477.4H156.337V475.58H157.723V468.216H153.901V466.424ZM174.495 477.26H167.075V471.73H169.861V470.022H166.655V468.342H169.875V466.704C168.933 466.741 167.981 466.76 167.019 466.76V465.08C168.13 465.08 169.46 465.047 171.009 464.982C172.568 464.917 173.749 464.828 174.551 464.716V466.396C173.879 466.499 172.923 466.578 171.681 466.634V468.342H174.915V470.022H171.667V471.73H174.495V477.26ZM162.007 468.79H165.171V474.698L166.529 474.236V476.322L163.337 477.4V470.652H162.007V468.79ZM164.611 464.8L165.577 467.838H163.673L162.707 464.8H164.611ZM172.675 475.566V473.424H168.895V475.566H172.675ZM187.711 477.344H177.603V470.974H187.711V477.344ZM176.357 468.356H179.423L178.723 467.026H177.057V465.276H181.733V464.52H183.581V465.276H188.257V467.026H186.577L185.877 468.356H188.957V470.106H176.357V468.356ZM185.905 475.692V474.908H179.409V475.692H185.905ZM185.905 473.424V472.626H179.409V473.424H185.905ZM181.383 468.356H183.917L184.617 467.026H180.683L181.383 468.356ZM190.357 475.748C191.179 475.645 191.869 475.459 192.429 475.188C192.999 474.908 193.465 474.544 193.829 474.096H192.625V470.218H194.305V473.326C194.632 472.663 194.837 471.823 194.921 470.806H196.601C196.48 472.206 196.191 473.368 195.733 474.292C195.276 475.216 194.613 475.944 193.745 476.476C192.877 477.008 191.748 477.363 190.357 477.54V475.748ZM190.791 470.82H192.303L191.827 474.054H190.315L190.791 470.82ZM190.357 468.132H190.805V465.332H192.387V468.132H193.003V464.52H194.697V465.542H196.223V467.222H194.697V468.132H196.447V469.868H190.357V468.132ZM196.545 464.94H203.223V466.648H200.689L200.507 467.53H202.915V473.942H201.263V469.098H198.407V473.942H196.755V467.53H198.785L198.967 466.648H196.545V464.94ZM196.587 475.832C197.418 475.683 198.039 475.365 198.449 474.88C198.86 474.385 199.065 473.774 199.065 473.046V469.882H200.591V473.144C200.591 473.256 200.582 473.433 200.563 473.676C201.926 474.385 202.864 475.631 203.377 477.414H201.557C201.361 476.49 200.885 475.762 200.129 475.23C199.821 475.827 199.373 476.322 198.785 476.714C198.197 477.115 197.465 477.391 196.587 477.54V475.832ZM206.765 473.704H208.921L207.157 477.848H205.519L206.765 473.704ZM219.272 477.4C220.038 476.252 220.56 475.081 220.84 473.886H218.446V472.122H221.106C221.144 471.711 221.162 471.231 221.162 470.68V470.372H218.74V468.608H221.19V464.8H222.954V468.608H225.404V470.372H222.982V470.68C222.982 471.231 222.964 471.711 222.926 472.122H225.698V473.886H222.688C222.446 475.099 222.049 476.271 221.498 477.4H219.272ZM220.042 465.164L220.574 467.88H219.09L218.558 465.164H220.042ZM224.102 465.164H225.586L225.054 467.88H223.57L224.102 465.164ZM226.314 465.57H228.022V474.278H226.314V465.57ZM227.294 475.594H229.184V464.8H230.92V477.4H227.294V475.594ZM232.936 464.8H234.616V475.384H239.054V476.868C239.325 476.112 239.512 475.356 239.614 474.6C239.717 473.835 239.768 472.957 239.768 471.968V465.08C241.663 465.08 243.464 464.959 245.172 464.716V466.508C244.099 466.667 242.876 466.779 241.504 466.844V468.706H245.438V470.498H244.43V477.4H242.722V470.498H241.504V471.968C241.504 472.957 241.444 473.895 241.322 474.782C241.201 475.659 241.01 476.532 240.748 477.4H238.858L238.942 477.176H232.936V464.8ZM234.686 474.656C234.966 473.06 235.111 471.59 235.12 470.246H236.128C236.1 471.777 235.97 473.247 235.736 474.656H234.686ZM234.854 468.104H236.38V464.8H237.78V468.104H239.306V469.868H237.78V474.908H236.38V469.868H234.854V468.104ZM235.848 464.954L236.1 467.754H235.092L234.854 464.954H235.848ZM239.026 470.246C239.036 471.59 239.18 473.06 239.46 474.656H238.41C238.177 473.247 238.046 471.777 238.018 470.246H239.026ZM238.312 464.954H239.306L239.068 467.754H238.06L238.312 464.954ZM258.934 465.192V477.008H247.342V465.192H258.934ZM257.128 475.216V466.984H249.148V475.216H257.128ZM250.268 468.076H256.008V474.124H250.268V468.076ZM254.23 472.346V469.84H252.046V472.346H254.23ZM260.754 477.4C261.128 476.411 261.384 475.449 261.524 474.516C261.674 473.573 261.748 472.495 261.748 471.282V465.584H266.816V464.52H268.692V465.584H273.578V467.432H263.596V471.282C263.596 472.439 263.531 473.513 263.4 474.502C263.279 475.482 263.069 476.448 262.77 477.4H260.754ZM263.988 475.412H270.414L271.422 468.51H273.13L272.136 475.412H273.718V477.246H263.988V475.412ZM266.2 468.566L266.928 474.404H265.234L264.506 468.566H266.2ZM269.168 468.286L269.896 474.124H268.202L267.474 468.286H269.168ZM279.066 473.438H285.086V472.654H279.066V473.438ZM274.838 473.956C275.856 472.696 276.602 471.469 277.078 470.274H275.118V468.566H280.41V467.53H276.322V465.794H280.41V464.66H282.23V465.794H284.694V467.32L285.604 465.15H287.494L286.066 468.566H287.718V470.274H279.038C278.908 470.629 278.8 470.895 278.716 471.072H286.878V477.316H277.274V473.704L277.106 473.956H274.838ZM285.086 475.748V474.95H279.066V475.748H285.086ZM284.176 468.566L284.61 467.53H282.23V468.566H284.176ZM291.036 466.102L291.218 464.73H293.052L292.87 466.102H294.83V469.42C295.465 467.889 295.82 466.303 295.894 464.66H297.77C297.761 465.089 297.724 465.57 297.658 466.102H301.648V477.4H298.47V475.58H299.842V467.894H297.336C297.159 468.631 296.94 469.289 296.678 469.868H294.83V477.204H289.44V466.102H291.036ZM293.08 475.482V472.402H291.19V475.482H293.08ZM293.08 470.722V467.824H291.19V470.722H293.08ZM297.882 470.19L298.764 473.606H296.916L296.034 470.19H297.882ZM311.854 475.636H313.24V473.774H310.636C309.367 475.071 307.916 476.28 306.282 477.4H303.342C305.424 476.093 307.066 474.885 308.27 473.774H303.398V472.29H304.56V465.206H308.564L308.802 464.52H310.72L310.482 465.206H315.06V477.4H311.854V475.636ZM313.24 472.29V471.38H306.38V472.29H313.24ZM313.24 469.952V469.042H306.38V469.952H313.24ZM313.24 467.614V466.704H306.38V467.614H313.24ZM325.784 475.608H327.254L327.366 471.702H325.21C325.005 473.177 324.543 474.404 323.824 475.384C323.106 476.355 322.135 477.069 320.912 477.526V475.482C322.303 474.801 323.138 473.541 323.418 471.702H322.004V470.596C321.603 470.904 321.183 471.179 320.744 471.422V469.21C321.454 468.743 322.018 468.132 322.438 467.376C322.868 466.62 323.162 465.761 323.32 464.8H325.112C324.916 465.929 324.632 466.909 324.258 467.74C323.885 468.571 323.386 469.303 322.76 469.938H328.262C327.637 469.303 327.138 468.571 326.764 467.74C326.391 466.909 326.106 465.929 325.91 464.8H327.702C327.861 465.761 328.15 466.62 328.57 467.376C329 468.132 329.569 468.743 330.278 469.21V471.422C329.84 471.179 329.471 470.946 329.172 470.722L328.976 477.4H325.784V475.608ZM317.398 469.532C318.453 468.272 319.19 466.695 319.61 464.8H321.388C321.164 466.191 320.786 467.441 320.254 468.552V477.4H318.462V471.282C318.089 471.683 317.734 472.029 317.398 472.318V469.532ZM98.5959 498.328H100.052V491.3H101.858V498.328H104.392V489.83H99.0299V488.024H110.762V489.83H106.198V492.728H110.244V494.534H106.198V498.328H111.196V500.134H98.5959V498.328ZM125.182 500.4H123.502V498.384H122.354V500.414H120.786V498.384H119.414C119.311 499.028 119.162 499.7 118.966 500.4H117.09C117.687 498.804 117.986 497.054 117.986 495.15L117.972 491.594C117.757 491.678 117.566 491.743 117.398 491.79V490.096C118.182 489.573 118.803 488.808 119.26 487.8H124.566C124.221 488.911 123.801 489.872 123.306 490.684H125.182V500.4ZM112.456 494.1C112.811 493.4 113.095 492.709 113.31 492.028C113.534 491.337 113.702 490.605 113.814 489.83H112.736V488.01H117.37V489.83H115.606C115.475 490.819 115.289 491.697 115.046 492.462H117.244V499.7H113.226V494.1H112.456ZM115.704 497.95V494.212H114.766V497.95H115.704ZM121.36 490.684C121.687 490.208 121.939 489.788 122.116 489.424H120.352C120.063 489.909 119.736 490.329 119.372 490.684H121.36ZM120.786 496.732V495.36H119.652C119.652 495.677 119.633 496.135 119.596 496.732H120.786ZM120.786 493.708V492.336H119.652V493.708H120.786ZM123.502 496.732V495.36H122.354V496.732H123.502ZM123.502 493.708V492.336H122.354V493.708H123.502ZM131.118 495.682V498.44H129.34V495.682H126.582V493.904H129.34V491.16H131.118V493.904H133.876V495.682H131.118ZM138.147 491.874L136.341 492.63V490.586L138.749 489.214H140.219V499H138.147V491.874ZM150.535 498.622H152.467L152.635 494.73H149.359C149.023 496.251 148.389 497.497 147.455 498.468C146.522 499.439 145.304 500.101 143.801 500.456V498.58C144.8 498.3 145.612 497.838 146.237 497.194C146.872 496.541 147.311 495.719 147.553 494.73H145.271V493.19C144.711 493.582 144.081 493.918 143.381 494.198V492.07C144.315 491.631 145.071 491.053 145.649 490.334C146.237 489.615 146.681 488.724 146.979 487.66H148.869C148.375 489.909 147.292 491.669 145.621 492.938H154.021C152.351 491.669 151.268 489.909 150.773 487.66H152.663C152.962 488.724 153.401 489.615 153.979 490.334C154.567 491.053 155.328 491.631 156.261 492.07V494.198C155.608 493.918 155.029 493.615 154.525 493.288L154.259 500.4H150.535V498.622ZM159.789 496.704H161.945L160.181 500.848H158.543L159.789 496.704ZM183.678 500.288H176.566V493.834H183.678V500.288ZM171.316 492.42C171.876 490.889 172.226 489.349 172.366 487.8H174.298L174.256 488.15C174.247 488.225 174.238 488.323 174.228 488.444C174.219 488.556 174.2 488.691 174.172 488.85H175.908V490.586H173.878C173.832 490.801 173.752 491.113 173.64 491.524H175.698V493.232H174.452V494.464H175.978V496.2H174.452V498.258L175.866 497.922V499.77L172.688 500.54V496.2H171.442V494.464H172.688V493.232H172.002V492.42H171.316ZM175.992 491.412H177.644V490.334H176.286V488.668H177.644V487.8H179.394V488.668H180.864V487.8H182.6V488.668H183.972V490.334H182.6V491.412H184.266V493.092H175.992V491.412ZM181.9 498.692V497.782H178.358V498.692H181.9ZM181.9 496.326V495.43H178.358V496.326H181.9ZM180.864 491.412V490.334H179.394V491.412H180.864ZM190.328 488.024H197.622V492.476H190.328V488.024ZM185.512 491.79H188.41V497.6L189.334 497.236V499.322L186.59 500.4V493.652H185.512V491.79ZM187.962 487.8L188.928 490.838H187.024L186.058 487.8H187.962ZM189.628 498.776C190.3 498.627 190.893 498.44 191.406 498.216C191.929 497.992 192.433 497.684 192.918 497.292H189.656V495.612H193.072V494.814H190.048V493.134H197.902V494.814H194.878V495.612H198.448V497.292H195.06C195.546 497.675 196.064 497.983 196.614 498.216C197.165 498.44 197.786 498.627 198.476 498.776V500.54C197.478 500.335 196.619 500.078 195.9 499.77C195.191 499.462 194.552 499.019 193.982 498.44C193.385 499.028 192.75 499.476 192.078 499.784C191.416 500.092 190.599 500.344 189.628 500.54V498.776ZM195.83 490.894V489.62H192.12V490.894H195.83ZM204.384 493.89V495.514H200.086V493.89H204.384ZM206.7 497.208C207.428 496.583 208.068 496.004 208.618 495.472C209.169 494.94 209.664 494.375 210.102 493.778C210.541 493.171 210.76 492.644 210.76 492.196C210.76 491.739 210.592 491.384 210.256 491.132C209.92 490.871 209.482 490.74 208.94 490.74C208.558 490.74 208.138 490.815 207.68 490.964C207.232 491.113 206.789 491.323 206.35 491.594V489.97C206.798 489.69 207.302 489.461 207.862 489.284C208.432 489.107 208.973 489.018 209.486 489.018C210.532 489.018 211.358 489.275 211.964 489.788C212.58 490.292 212.888 490.983 212.888 491.86C212.888 492.485 212.678 493.157 212.258 493.876C211.838 494.585 211.358 495.22 210.816 495.78C210.275 496.331 209.631 496.937 208.884 497.6L208.478 497.32H212.958V499H206.168V497.656L206.7 497.208ZM221.58 498.622H223.512L223.68 494.73H220.404C220.068 496.251 219.434 497.497 218.5 498.468C217.567 499.439 216.349 500.101 214.846 500.456V498.58C215.845 498.3 216.657 497.838 217.282 497.194C217.917 496.541 218.356 495.719 218.598 494.73H216.316V493.19C215.756 493.582 215.126 493.918 214.426 494.198V492.07C215.36 491.631 216.116 491.053 216.694 490.334C217.282 489.615 217.726 488.724 218.024 487.66H219.914C219.42 489.909 218.337 491.669 216.666 492.938H225.066C223.396 491.669 222.313 489.909 221.818 487.66H223.708C224.007 488.724 224.446 489.615 225.024 490.334C225.612 491.053 226.373 491.631 227.306 492.07V494.198C226.653 493.918 226.074 493.615 225.57 493.288L225.304 500.4H221.58V498.622ZM237.792 500.68C237.102 499.625 236.579 498.594 236.224 497.586C235.87 496.578 235.692 495.533 235.692 494.45C235.692 493.367 235.87 492.322 236.224 491.314C236.579 490.306 237.102 489.228 237.792 488.08H239.836C239.174 489.191 238.674 490.264 238.338 491.3C238.012 492.336 237.848 493.363 237.848 494.38C237.848 495.397 238.012 496.424 238.338 497.46C238.674 498.496 239.174 499.569 239.836 500.68H237.792ZM248.236 493.358C246.864 495.029 245.021 496.317 242.706 497.222V495.234C243.985 494.646 245.068 493.932 245.954 493.092C246.841 492.243 247.574 491.225 248.152 490.04H243.126V488.262H255.166V490.04H250.168C249.842 490.852 249.45 491.613 248.992 492.322H250.056V500.4H248.25L248.236 493.358ZM251.022 493.246L255.586 495.206V497.11L251.022 495.15V493.246ZM267.514 500.4C267.001 499.345 266.618 498.291 266.366 497.236C266.114 496.181 265.97 495.057 265.932 493.862H263.118V498.608H264.042V500.4H261.326V488.08C264.108 488.08 266.758 487.959 269.278 487.716V489.508C268.905 489.545 268.382 489.592 267.71 489.648V492.07H269.754V493.862H267.724C267.762 495.047 267.934 496.172 268.242 497.236C268.55 498.3 269.045 499.355 269.726 500.4H267.514ZM256.846 492.434C257.929 491.193 258.685 489.648 259.114 487.8H260.948C260.734 489.023 260.416 490.115 259.996 491.076V500.414H258.19V493.988C257.77 494.483 257.322 494.926 256.846 495.318V492.434ZM265.918 492.07V489.76C265.097 489.807 264.164 489.839 263.118 489.858V492.07H265.918ZM265.624 496.606L266.436 500.4H264.77L263.958 496.606H265.624ZM274.43 498.58H276.88V494.548H271.126V492.714H276.88V489.886H271.924V488.052H282.928V489.886H278.812V492.714H283.726V494.548H278.812V500.4H274.43V498.58ZM288.696 499.182C286.354 499.182 285.182 497.488 285.182 494.1C285.182 490.712 286.354 489.018 288.696 489.018C291.039 489.018 292.21 490.712 292.21 494.1C292.21 497.488 291.039 499.182 288.696 499.182ZM287.24 494.1C287.24 495.192 287.352 495.995 287.576 496.508C287.81 497.021 288.183 497.278 288.696 497.278C289.21 497.278 289.578 497.021 289.802 496.508C290.036 495.995 290.152 495.192 290.152 494.1C290.152 493.017 290.036 492.219 289.802 491.706C289.578 491.193 289.21 490.936 288.696 490.936C288.183 490.936 287.81 491.193 287.576 491.706C287.352 492.219 287.24 493.017 287.24 494.1ZM300.678 498.622H302.61L302.778 494.73H299.502C299.166 496.251 298.531 497.497 297.598 498.468C296.665 499.439 295.447 500.101 293.944 500.456V498.58C294.943 498.3 295.755 497.838 296.38 497.194C297.015 496.541 297.453 495.719 297.696 494.73H295.414V493.19C294.854 493.582 294.224 493.918 293.524 494.198V492.07C294.457 491.631 295.213 491.053 295.792 490.334C296.38 489.615 296.823 488.724 297.122 487.66H299.012C298.517 489.909 297.435 491.669 295.764 492.938H304.164C302.493 491.669 301.411 489.909 300.916 487.66H302.806C303.105 488.724 303.543 489.615 304.122 490.334C304.71 491.053 305.471 491.631 306.404 492.07V494.198C305.751 493.918 305.172 493.615 304.668 493.288L304.402 500.4H300.678V498.622ZM309.274 500.68C309.937 499.569 310.431 498.496 310.758 497.46C311.094 496.424 311.262 495.397 311.262 494.38C311.262 493.363 311.094 492.336 310.758 491.3C310.431 490.264 309.937 489.191 309.274 488.08H311.318C312.009 489.228 312.531 490.306 312.886 491.314C313.241 492.322 313.418 493.367 313.418 494.45C313.418 495.533 313.241 496.578 312.886 497.586C312.531 498.594 312.009 499.625 311.318 500.68H309.274ZM127.22 523.26C126.362 523.26 125.648 523.209 125.078 523.106C124.509 523.013 123.996 522.849 123.538 522.616C123.473 522.84 123.426 522.985 123.398 523.05C123.352 523.227 123.319 523.344 123.3 523.4H121.368C121.807 522.177 122.129 521.043 122.334 519.998C122.54 518.953 122.666 517.823 122.712 516.61H121.06V514.79H124.532C124.532 515.994 124.49 517.072 124.406 518.024C124.322 518.976 124.178 519.923 123.972 520.866C124.392 521.099 124.854 521.267 125.358 521.37C125.872 521.463 126.492 521.51 127.22 521.51H134.08V523.26H127.22ZM123.524 510.8L124.49 513.838H122.6L121.634 510.8H123.524ZM125.162 518.108H128.858V517.002H125.54V515.322H126.128L126.968 513.222H125.428V511.514H127.654L127.962 510.73H129.866L129.558 511.514H133.632V513.222H128.872L128.032 515.322H128.858V513.768H130.65V515.322H133.338V517.002H130.65V518.108H133.898V519.816H130.65V521.174H128.858V519.816H125.162V518.108ZM136.922 516.722L135.312 515.812L137.202 510.8H138.924L137.398 514.804L137.874 515.084L138.532 513.306H140.17L138.322 518.29H139.61V520.096H135.676L136.922 516.722ZM135.466 521.51L139.68 521.048V522.854L135.466 523.316V521.51ZM140.17 518.808H144.048V515.126H145.812V518.808H148.206V520.418H145.49L145.406 520.6L148.08 521.776V523.47L144.398 521.846C143.885 522.275 143.264 522.63 142.536 522.91C141.808 523.199 141.024 523.395 140.184 523.498V521.902C140.931 521.762 141.589 521.575 142.158 521.342C142.728 521.109 143.176 520.801 143.502 520.418H140.17V518.808ZM140.31 513.292H143.292V512.55H140.744V511.122H143.292V510.66H145.084V511.122H147.632V512.55H145.084V513.292H147.926V516.106H146.344V514.86H140.31V513.292ZM140.408 516.862L143.012 517.142V518.416L140.408 518.136V516.862ZM140.996 515.21L143.586 515.49V516.764L140.996 516.484V515.21ZM152.728 522.182C151.748 522.182 150.796 521.967 149.872 521.538V519.606C150.283 519.905 150.722 520.129 151.188 520.278C151.664 520.418 152.136 520.488 152.602 520.488C153.125 520.488 153.526 520.376 153.806 520.152C154.086 519.919 154.226 519.578 154.226 519.13C154.226 518.626 154.054 518.248 153.708 517.996C153.363 517.735 152.906 517.604 152.336 517.604H150.936V516.19H152.196C152.756 516.19 153.19 516.069 153.498 515.826C153.806 515.574 153.96 515.229 153.96 514.79C153.96 514.426 153.82 514.141 153.54 513.936C153.26 513.731 152.887 513.628 152.42 513.628C152.084 513.628 151.711 513.675 151.3 513.768C150.89 513.852 150.516 513.973 150.18 514.132V512.62C150.554 512.424 150.969 512.275 151.426 512.172C151.893 512.069 152.355 512.018 152.812 512.018C153.783 512.018 154.553 512.251 155.122 512.718C155.692 513.175 155.981 513.801 155.99 514.594C155.99 515.089 155.86 515.532 155.598 515.924C155.337 516.316 154.964 516.624 154.478 516.848C155.038 517.053 155.468 517.366 155.766 517.786C156.074 518.206 156.228 518.701 156.228 519.27C156.228 519.839 156.084 520.343 155.794 520.782C155.514 521.221 155.108 521.566 154.576 521.818C154.044 522.061 153.428 522.182 152.728 522.182ZM167.258 514.258V516.582C167.258 516.955 167.244 517.324 167.216 517.688C168.224 518.472 169.041 519.34 169.666 520.292C170.292 521.244 170.656 522.266 170.758 523.358H168.798C168.649 522.107 167.954 520.931 166.712 519.83C166.348 520.661 165.765 521.379 164.962 521.986C164.169 522.583 163.072 523.101 161.672 523.54V521.286C162.652 520.987 163.399 520.637 163.912 520.236C164.435 519.825 164.79 519.335 164.976 518.766C165.172 518.197 165.27 517.469 165.27 516.582V514.258H167.258ZM160.006 522.672C160.445 521.449 160.804 520.371 161.084 519.438C161.364 518.495 161.63 517.385 161.882 516.106H159.978C159.754 517.151 159.502 518.117 159.222 519.004C158.942 519.891 158.578 520.931 158.13 522.126C158.093 522.247 158.028 522.429 157.934 522.672H160.006ZM159.866 515.224H161.84L160.006 511.402H158.032L159.866 515.224ZM162.176 515.714C162.886 514.099 163.301 512.452 163.422 510.772H165.438C165.42 511.061 165.392 511.346 165.354 511.626H170.716C170.576 513.007 170.287 514.37 169.848 515.714H167.804C168.075 515.014 168.294 514.309 168.462 513.6H165.004C164.836 514.309 164.603 515.014 164.304 515.714H162.176ZM172.158 521.328H173.614V514.3H175.42V521.328H177.954V512.83H172.592V511.024H184.324V512.83H179.76V515.728H183.806V517.534H179.76V521.328H184.758V523.134H172.158V521.328ZM198.744 523.4H197.064V521.384H195.916V523.414H194.348V521.384H192.976C192.874 522.028 192.724 522.7 192.528 523.4H190.652C191.25 521.804 191.548 520.054 191.548 518.15L191.534 514.594C191.32 514.678 191.128 514.743 190.96 514.79V513.096C191.744 512.573 192.365 511.808 192.822 510.8H198.128C197.783 511.911 197.363 512.872 196.868 513.684H198.744V523.4ZM186.018 517.1C186.373 516.4 186.658 515.709 186.872 515.028C187.096 514.337 187.264 513.605 187.376 512.83H186.298V511.01H190.932V512.83H189.168C189.038 513.819 188.851 514.697 188.608 515.462H190.806V522.7H186.788V517.1H186.018ZM189.266 520.95V517.212H188.328V520.95H189.266ZM194.922 513.684C195.249 513.208 195.501 512.788 195.678 512.424H193.914C193.625 512.909 193.298 513.329 192.934 513.684H194.922ZM194.348 519.732V518.36H193.214C193.214 518.677 193.196 519.135 193.158 519.732H194.348ZM194.348 516.708V515.336H193.214V516.708H194.348ZM197.064 519.732V518.36H195.916V519.732H197.064ZM197.064 516.708V515.336H195.916V516.708H197.064ZM201.082 523.4C201.754 522.569 202.258 521.715 202.594 520.838C202.93 519.961 203.145 519.032 203.238 518.052H200.396V516.246H203.294V512.886H201.264V511.066H212.212V512.886H210.364V516.246H213.08V518.052H210.364V523.4H208.544V518.052H205.072C205.007 519.079 204.844 520.017 204.582 520.866C204.321 521.706 203.929 522.551 203.406 523.4H201.082ZM208.544 516.246V512.886H205.114V516.246H208.544ZM217.952 521.454C217.616 522.126 217.257 522.775 216.874 523.4H214.662C215.465 522.243 216.081 521.239 216.51 520.39L214.62 518.976L215.32 514.202H214.578V512.382H215.586L215.824 510.8H217.756L217.546 512.382H219.646C219.646 514.043 219.581 515.429 219.45 516.54C219.32 517.651 219.058 518.729 218.666 519.774L219.59 520.488V522.686L217.952 521.454ZM217.224 518.668C217.626 517.427 217.868 515.938 217.952 514.202H217.028L216.482 518.094L217.224 518.668ZM219.856 514.664H220.612L222.278 510.744H224.238L222.572 514.664H224.966L224.476 513.124H226.338L227.388 516.4H219.856V514.664ZM220.262 517.422H226.87V523.288H220.262V517.422ZM225.246 521.608V519.102H221.886V521.608H225.246ZM234.598 523.26C233.74 523.26 233.026 523.209 232.456 523.106C231.887 523.013 231.374 522.849 230.916 522.616C230.851 522.84 230.804 522.985 230.776 523.05C230.73 523.227 230.697 523.344 230.678 523.4H228.746C229.185 522.177 229.507 521.043 229.712 519.998C229.918 518.953 230.044 517.823 230.09 516.61H228.438V514.79H231.91C231.91 515.994 231.868 517.072 231.784 518.024C231.7 518.976 231.556 519.923 231.35 520.866C231.77 521.099 232.232 521.267 232.736 521.37C233.25 521.463 233.87 521.51 234.598 521.51H241.458V523.26H234.598ZM230.902 510.8L231.868 513.838H229.978L229.012 510.8H230.902ZM232.54 518.108H236.236V517.002H232.918V515.322H233.506L234.346 513.222H232.806V511.514H235.032L235.34 510.73H237.244L236.936 511.514H241.01V513.222H236.25L235.41 515.322H236.236V513.768H238.028V515.322H240.716V517.002H238.028V518.108H241.276V519.816H238.028V521.174H236.236V519.816H232.54V518.108ZM243.278 518.206H245.154V521.44H248.262V517.394H242.578V515.616H248.262V513.474H243.278V511.696H248.262V510.59H250.054V511.696H255.038V513.474H250.054V515.616H255.738V517.394H250.054V521.44H253.162V518.206H255.038V523.232H243.278V518.206ZM264.306 511.892H269.402V522.952H264.306V511.892ZM256.928 523.4C257.554 522.224 257.983 521.071 258.216 519.942C258.45 518.813 258.566 517.548 258.566 516.148V514.622H257.404V512.802H258.566V510.66H260.386V512.802H263.34V523.4H260.414V521.65H261.59V514.622H260.302V516.148C260.302 517.483 260.195 518.738 259.98 519.914C259.766 521.09 259.411 522.252 258.916 523.4H256.928ZM267.68 521.16V513.684H266.028V521.16H267.68ZM278.152 521.622H280.084L280.252 517.73H276.976C276.64 519.251 276.006 520.497 275.072 521.468C274.139 522.439 272.921 523.101 271.418 523.456V521.58C272.417 521.3 273.229 520.838 273.854 520.194C274.489 519.541 274.928 518.719 275.17 517.73H272.888V516.19C272.328 516.582 271.698 516.918 270.998 517.198V515.07C271.932 514.631 272.688 514.053 273.266 513.334C273.854 512.615 274.298 511.724 274.596 510.66H276.486C275.992 512.909 274.909 514.669 273.238 515.938H281.638C279.968 514.669 278.885 512.909 278.39 510.66H280.28C280.579 511.724 281.018 512.615 281.596 513.334C282.184 514.053 282.945 514.631 283.878 515.07V517.198C283.225 516.918 282.646 516.615 282.142 516.288L281.876 523.4H278.152V521.622ZM289.17 518.738H287.462L287.196 512.2H289.436L289.17 518.738ZM287.182 519.704H289.478V522H287.182V519.704Z" fill="#919191"/>
<path d="M175.732 419.856C174.556 417.299 173.529 413.957 172.652 409.832H170.944C170.533 411.848 170.076 413.677 169.572 415.32C169.087 416.963 168.508 418.475 167.836 419.856H163.916C165.391 416.589 166.52 413.248 167.304 409.832H164.476V407.088L162.068 405.576V420.024H158.512L158.484 394.376H162.068V401.46L164.672 403.084V406.248H169.04V400.452H165.036V396.868H169.04V394.32H172.68V396.868H179.288V406.248H180.632V409.832H176.292C177.095 413.285 178.215 416.627 179.652 419.856H175.732ZM154.452 409.58C154.844 406.201 155.04 402.599 155.04 398.772H157.672C157.672 402.561 157.513 406.164 157.196 409.58H154.452ZM175.816 406.248V400.452H172.568V406.248H175.816ZM208.38 416.02V419.52H194.66C192.905 419.52 191.44 419.408 190.264 419.184C189.107 418.979 188.061 418.633 187.128 418.148L186.652 419.8H182.76C183.656 417.373 184.309 415.115 184.72 413.024C185.149 410.915 185.411 408.647 185.504 406.22H182.34V402.58H189.116C189.116 404.951 189.032 407.088 188.864 408.992C188.696 410.877 188.416 412.763 188.024 414.648C188.883 415.133 189.825 415.488 190.852 415.712C191.897 415.917 193.167 416.02 194.66 416.02H208.38ZM187.268 394.6L189.2 400.676H185.42L183.488 394.6H187.268ZM189.676 414.732C190.796 412.791 191.449 410.784 191.636 408.712H195.024C194.8 410.989 194.268 412.996 193.428 414.732H189.676ZM190.152 395.44H197.348V394.32H200.932V395.44H207.848V398.688H200.932V400.2H207.288V408.068H200.876V414.928H197.404V408.068H190.992V400.2H197.348V398.688H190.152V395.44ZM197.404 405.1V403.168H194.408V405.1H197.404ZM203.872 405.1V403.168H200.876V405.1H203.872ZM206.644 408.712C206.831 410.784 207.484 412.791 208.604 414.732H204.852C204.012 412.996 203.48 410.989 203.256 408.712H206.644ZM218.376 416.216C220.317 415.227 221.633 414.153 222.324 412.996C223.015 411.82 223.388 410.607 223.444 409.356L219.216 412.268V409.496L217.2 410.028V419.8H211.544V416.412H213.56V410.952L210.788 411.652V407.76L213.56 407.06V401.88H211.068V398.352H213.56V394.46H217.2V398.352H219.3V401.88H217.2V406.136L219.58 405.52V408.236L223.444 405.576V394.46H226.804V408.6C226.804 410.168 226.617 411.652 226.244 413.052C225.871 414.452 225.059 415.796 223.808 417.084C222.576 418.372 220.765 419.371 218.376 420.08V416.216ZM222.352 395.608L223.276 404.036H220.392L219.468 395.608H222.352ZM228.764 394.46H232.124V406.248L236.268 409.3V413.192L232.124 410.14V416.132H236.66V419.716H228.764V394.46ZM233.468 395.608H236.352L235.288 404.036H232.404L233.468 395.608ZM264.38 420.304C261.561 419.464 259.368 418.073 257.8 416.132C257.072 416.841 256.26 417.439 255.364 417.924C254.487 418.428 253.497 418.895 252.396 419.324V415.208C253.871 414.629 255.056 413.864 255.952 412.912C255.037 410.616 254.58 407.732 254.58 404.26H252.032V400.844H254.524V394.46H257.856V400.844H263.288V404.26H257.912C257.931 405.492 257.968 406.537 258.024 407.396C258.08 408.255 258.192 409.048 258.36 409.776C258.864 408.749 259.256 407.545 259.536 406.164H262.644C262.14 408.815 261.272 411.204 260.04 413.332C261.011 414.527 262.457 415.497 264.38 416.244V420.304ZM239.432 405.968H243.212V394.46H246.796V398.044H251.668V401.684H246.796V405.968H250.996V419.52H239.432V405.968ZM247.524 415.908V409.58H242.904V415.908H247.524ZM261.384 395.076L262.392 399.948H259.34L258.36 395.076H261.384Z" fill="#273430"/>
<g clip-path="url(#clip1_465_1502)">
<rect width="422" height="368" transform="translate(-1.5)" fill="#E9F7FF"/>
<path d="M139.571 292.197C139.571 268.703 139.571 256.957 143.676 247.79C148.395 237.254 156.826 228.823 167.362 224.105C176.528 220 188.274 220 211.768 220C234.761 220 246.258 220 255.229 224.018C265.541 228.636 273.793 236.887 278.411 247.199C282.428 256.17 282.428 267.667 282.428 290.66V294.139C282.428 312.415 282.428 321.553 278.806 328.504C275.775 334.318 271.032 339.061 265.218 342.092C258.267 345.714 249.129 345.714 230.853 345.714H190.494C172.834 345.714 164.004 345.714 157.238 342.325C151.063 339.231 146.054 334.223 142.961 328.047C139.571 321.282 139.571 312.452 139.571 294.792V292.197Z" fill="#14AEEC"/>
<rect x="158.143" y="257.143" width="105.714" height="60" rx="20" fill="#010101"/>
<path d="M181 345.238C181 339.007 181 335.892 182.34 333.571C183.217 332.051 184.48 330.789 186 329.911C188.321 328.571 191.436 328.571 197.667 328.571H224.333C230.564 328.571 233.679 328.571 236 329.911C237.52 330.789 238.783 332.051 239.66 333.571C241 335.892 241 339.007 241 345.238C241 346.484 241 347.107 240.732 347.571C240.556 347.875 240.304 348.128 240 348.303C239.536 348.571 238.913 348.571 237.667 348.571H184.333C183.087 348.571 182.464 348.571 182 348.303C181.696 348.128 181.443 347.875 181.268 347.571C181 347.107 181 346.484 181 345.238Z" fill="#8CE2F9"/>
<path d="M279.571 259.643C279.571 259.178 279.571 258.946 279.61 258.753C279.768 257.959 280.388 257.339 281.181 257.181C281.374 257.143 281.607 257.143 282.071 257.143C283.465 257.143 284.162 257.143 284.742 257.258C287.122 257.732 288.983 259.592 289.456 261.972C289.571 262.552 289.571 263.249 289.571 264.643V308.214C289.571 309.608 289.571 310.305 289.456 310.885C288.983 313.265 287.122 315.126 284.742 315.599C284.162 315.714 283.465 315.714 282.071 315.714C281.607 315.714 281.374 315.714 281.181 315.676C280.388 315.518 279.768 314.898 279.61 314.104C279.571 313.911 279.571 313.679 279.571 313.214V259.643Z" fill="#8CE2F9"/>
<path d="M142.429 259.643C142.429 259.178 142.429 258.946 142.39 258.753C142.232 257.959 141.612 257.339 140.819 257.181C140.626 257.143 140.393 257.143 139.929 257.143C138.535 257.143 137.838 257.143 137.258 257.258C134.878 257.732 133.017 259.592 132.544 261.972C132.429 262.552 132.429 263.249 132.429 264.643V308.214C132.429 309.608 132.429 310.305 132.544 310.885C133.017 313.265 134.878 315.126 137.258 315.599C137.838 315.714 138.535 315.714 139.929 315.714C140.393 315.714 140.626 315.714 140.819 315.676C141.612 315.518 142.232 314.898 142.39 314.104C142.429 313.911 142.429 313.679 142.429 313.214V259.643Z" fill="#8CE2F9"/>
<path d="M183.857 222C183.857 221.057 183.857 220.586 184.15 220.293C184.443 220 184.914 220 185.857 220H236.143C237.085 220 237.557 220 237.85 220.293C238.143 220.586 238.143 221.057 238.143 222V257.143H183.857V222Z" fill="#3F7B8D"/>
<path d="M189.571 220H232.428V239.714C232.428 242.543 232.428 243.957 231.55 244.836C230.671 245.714 229.257 245.714 226.428 245.714H195.571C192.743 245.714 191.329 245.714 190.45 244.836C189.571 243.957 189.571 242.543 189.571 239.714V220Z" fill="#8CE2F9"/>
<ellipse cx="17.9582" cy="17.1429" rx="17.9582" ry="17.1429" transform="matrix(-1 -8.34536e-08 -9.15808e-08 1 204.917 271)" fill="#EBBA48"/>
<path d="M186.959 275.429C179.533 275.429 173.592 281.164 173.592 288.142C173.592 295.121 179.533 300.857 186.959 300.857C194.385 300.857 200.325 295.121 200.325 288.142C200.325 281.164 194.385 275.429 186.959 275.429Z" fill="#EBBA48" stroke="#F1EACD" stroke-width="2"/>
<ellipse cx="2.68934" cy="3.43469" rx="2.68934" ry="3.43469" transform="matrix(-0.983099 0.183073 0.200218 0.979751 181.991 285)" fill="#EEE8D8"/>
<ellipse cx="0.897909" cy="0.857142" rx="0.897909" ry="0.857142" transform="matrix(-1 -8.34536e-08 -9.15808e-08 1 183.368 293.572)" fill="#EFE8DC"/>
<ellipse cx="17.9582" cy="17.1429" rx="17.9582" ry="17.1429" transform="matrix(-1 -8.34536e-08 -9.15808e-08 1 253.917 271)" fill="#EBBA48"/>
<path d="M235.955 275C228.528 275 222.588 280.736 222.587 287.714C222.587 294.693 228.528 300.429 235.955 300.429C243.381 300.429 249.321 294.693 249.321 287.714C249.321 280.736 243.381 275 235.955 275Z" fill="#EBBA48" stroke="#F1EACD" stroke-width="2"/>
<ellipse cx="2.68934" cy="3.43469" rx="2.68934" ry="3.43469" transform="matrix(-0.983099 0.183073 0.200218 0.979751 230.995 285)" fill="#EEE8D8"/>
<ellipse cx="0.897909" cy="0.857142" rx="0.897909" ry="0.857142" transform="matrix(-1 -8.34536e-08 -9.15808e-08 1 232.363 293.572)" fill="#EFE8DC"/>
<rect x="131" y="265.714" width="2.85714" height="40" rx="1.42857" fill="#14AEEC"/>
<rect x="288.143" y="265.714" width="2.85714" height="40" rx="1.42857" fill="#14AEEC"/>
<path opacity="0.5" d="M124.088 334.075C116.146 319.223 111.989 302.553 112.001 285.612C112.012 268.67 116.194 252.007 124.157 237.167L125.873 238.137C118.07 252.68 113.972 269.011 113.961 285.613C113.949 302.216 118.024 318.553 125.807 333.107L124.088 334.075Z" fill="#0E8ABB"/>
<path opacity="0.3" d="M105.679 344.444C96.0349 326.41 90.986 306.168 91.0005 285.596C91.015 265.024 96.0924 244.79 105.761 226.77L107.846 227.948C98.3705 245.608 93.3947 265.438 93.3805 285.598C93.3663 305.758 98.3142 325.596 107.765 343.269L105.679 344.444Z" fill="#0E8ABB"/>
<path opacity="0.1" d="M87.2685 354.815C75.9229 333.598 69.983 309.783 70 285.581C70.0171 261.379 75.9904 237.573 87.3659 216.373L89.8186 217.759C78.6706 238.536 72.8167 261.865 72.8 285.583C72.7833 309.301 78.6044 332.639 89.7231 353.432L87.2685 354.815Z" fill="#0E8ABB"/>
<path opacity="0.5" d="M294.871 235.395C303.125 250.067 307.633 266.64 307.979 283.578C308.325 300.516 304.496 317.269 296.849 332.282L295.112 331.35C302.606 316.637 306.358 300.219 306.02 283.62C305.681 267.021 301.262 250.779 293.174 236.401L294.871 235.395Z" fill="#0E8ABB"/>
<path opacity="0.3" d="M313.058 224.618C323.08 242.434 328.555 262.559 328.975 283.127C329.394 303.694 324.745 324.037 315.459 342.267L313.35 341.136C322.45 323.27 327.007 303.334 326.595 283.178C326.184 263.022 320.818 243.299 310.997 225.84L313.058 224.618Z" fill="#0E8ABB"/>
<path opacity="0.1" d="M331.245 213.842C343.035 234.802 349.477 258.479 349.971 282.676C350.464 306.873 344.995 330.805 334.07 352.253L331.588 350.922C342.295 329.903 347.655 306.449 347.171 282.736C346.687 259.023 340.375 235.82 328.82 215.279L331.245 213.842Z" fill="#0E8ABB"/>
<ellipse cx="210" cy="401" rx="256.5" ry="61" fill="white"/>
<path d="M76.9171 49.9403C75.0997 49.3225 73.1737 49 71.1978 49C69.0533 49 66.9675 49.3798 65.0156 50.1051V53.0106C66.9023 52.1561 68.9955 51.6801 71.1978 51.6801C73.2217 51.6801 75.1531 52.083 76.9171 52.8114V49.9403Z" fill="white"/>
<path d="M57.0501 72.6259C55.2501 65.1259 55.6101 50.1259 71.4501 50.1259C87.2901 50.1259 87.3499 65.1259 85.3998 72.6259" stroke="#0280B2" stroke-width="4" stroke-linecap="round"/>
<path d="M59.4849 80.7666H57.8276C55.1614 80.7666 53 78.6053 53 75.939V71.2264C53 68.5602 55.1614 66.3988 57.8276 66.3988H59.4849V80.7666Z" fill="#395F74"/>
<path d="M82.5149 80.7666H84.1722C86.8384 80.7666 88.9998 78.6053 88.9998 75.939V71.2264C88.9998 68.5602 86.8384 66.3988 84.1722 66.3988H81.7778L82.5149 80.7666Z" fill="#395F74"/>
<path d="M60.2105 81.8517H62.3275C62.7286 81.8517 63.0537 81.5265 63.0537 81.1255V66.04C63.0537 65.6389 62.7285 65.3138 62.3275 65.3138H60.2105C59.8095 65.3138 59.4844 65.639 59.4844 66.04V81.1255C59.4843 81.5266 59.8095 81.8517 60.2105 81.8517Z" fill="#B4DEEE"/>
<path d="M81.7884 81.8517H79.6715C79.2704 81.8517 78.9453 81.5265 78.9453 81.1255V66.04C78.9453 65.6389 79.2705 65.3138 79.6715 65.3138H81.7884C82.1895 65.3138 82.5146 65.639 82.5146 66.04V81.1255C82.5147 81.5266 82.1895 81.8517 81.7884 81.8517Z" fill="#B4DEEE"/>
</g>
</g>
<defs>
<clipPath id="clip0_465_1502">
<rect width="420" height="812" fill="white"/>
</clipPath>
<clipPath id="clip1_465_1502">
<rect width="422" height="368" fill="white" transform="translate(-1.5)"/>
</clipPath>
</defs>
</svg>


