<svg width="420" height="812" viewBox="0 0 420 812" fill="none" xmlns="http://www.w3.org/2000/svg">
<g clip-path="url(#clip0_703_2882)">
<rect width="420" height="812" fill="white"/>
<path d="M96.2665 476.182C95.1931 476.182 94.1945 476.023 93.2705 475.706V473.816C94.1758 474.217 95.0531 474.418 95.9025 474.418C96.5091 474.418 96.9805 474.259 97.3165 473.942C97.6525 473.615 97.8205 473.205 97.8205 472.71C97.8205 472.206 97.6431 471.795 97.2885 471.478C96.9338 471.161 96.4811 471.002 95.9305 471.002C95.2398 471.002 94.4698 471.179 93.6205 471.534L93.7605 466.2H99.3185V467.88H95.6505L95.5945 469.854C95.9771 469.807 96.3831 469.784 96.8125 469.784C97.4098 469.784 97.9325 469.91 98.3805 470.162C98.8378 470.405 99.1878 470.755 99.4305 471.212C99.6825 471.669 99.8085 472.201 99.8085 472.808C99.8085 473.489 99.6591 474.087 99.3605 474.6C99.0711 475.104 98.6605 475.496 98.1285 475.776C97.5965 476.047 96.9758 476.182 96.2665 476.182ZM114.058 477.568C112.761 477.223 111.646 476.681 110.712 475.944C109.77 476.681 108.65 477.223 107.352 477.568V475.706C108.127 475.445 108.818 475.099 109.424 474.67C108.482 473.466 107.894 472.001 107.66 470.274H113.75C113.517 472.001 112.929 473.466 111.986 474.67C112.593 475.099 113.284 475.445 114.058 475.706V477.568ZM101.192 474.502L101.892 474.432V464.94C103.703 464.94 105.43 464.879 107.072 464.758V466.536C106.139 466.601 105.01 466.653 103.684 466.69V467.894H106.554V469.602H103.684V470.82H106.554V472.528H103.684V474.25L106.918 473.928V475.706L103.684 476.028V477.4H101.892V476.21L101.192 476.28V474.502ZM107.114 469.994C107.516 469.387 107.796 468.79 107.954 468.202C108.113 467.605 108.192 466.928 108.192 466.172V465.038H113.218V468.104H114.058V469.784H111.44V466.83H109.956C109.9 467.931 109.634 468.986 109.158 469.994H107.114ZM109.83 471.828C110.054 472.397 110.344 472.925 110.698 473.41C111.062 472.943 111.356 472.416 111.58 471.828H109.83ZM122.766 469.868L122.276 470.246C122.239 471.907 122.052 473.485 121.716 474.978C121.996 475.211 122.304 475.379 122.64 475.482C122.986 475.585 123.396 475.636 123.872 475.636H128.338V477.288H123.872C123.284 477.288 122.79 477.232 122.388 477.12C121.987 477.017 121.628 476.84 121.31 476.588C121.282 476.691 121.203 476.961 121.072 477.4H119.28C119.719 476.177 120.041 475.043 120.246 473.998C120.452 472.953 120.578 471.823 120.624 470.61H119.728V468.79H121.8C122.407 468.314 122.888 467.717 123.242 466.998H122.304V465.43H123.788C123.826 465.253 123.872 465.001 123.928 464.674H125.426C125.398 464.926 125.356 465.178 125.3 465.43H128.198V466.998H124.824C124.712 467.259 124.586 467.525 124.446 467.796H127.918V475.244H126.238V473.914H124.446V475.244H122.766V469.868ZM115.808 464.94H119.812V466.508C119.812 467.74 119.565 468.921 119.07 470.05C119.63 470.899 119.91 471.898 119.91 473.046C119.91 474.101 119.658 475.029 119.154 475.832H117.39V477.4H115.808V464.94ZM117.39 475.776C117.745 475.319 118.006 474.871 118.174 474.432C118.342 473.984 118.426 473.522 118.426 473.046C118.426 472.094 118.081 471.179 117.39 470.302V475.776ZM117.39 470.162C117.941 469.051 118.24 467.908 118.286 466.732H117.39V470.162ZM121.716 464.8L122.136 467.838H120.568L120.148 464.8H121.716ZM126.238 472.514V471.618H124.446V472.514H126.238ZM126.238 470.218V469.322H124.446V470.218H126.238ZM134.12 477.54C134.662 476.457 135.049 475.431 135.282 474.46C135.525 473.48 135.646 472.397 135.646 471.212V465.164H141.274V475.566H142.52V477.4H139.468V467.04H137.452V471.212C137.452 472.416 137.35 473.503 137.144 474.474C136.948 475.445 136.608 476.467 136.122 477.54H134.12ZM129.5 476.672C130.004 474.152 130.256 471.445 130.256 468.552H131.754C131.754 471.641 131.535 474.348 131.096 476.672H129.5ZM129.878 466.242H132.244V464.73H134.008V466.242H135.338V467.978H134.008V469.686L135.114 470.372V472.486L134.008 471.8V477.4H132.244V467.978H129.878V466.242ZM149.758 469.574H151.48L152.53 473.858H150.808L149.758 469.574ZM144.004 465.696H149.45L149.352 467.208C149.296 468.384 149.147 469.457 148.904 470.428C148.662 471.389 148.312 472.29 147.854 473.13C148.321 473.783 148.923 474.399 149.66 474.978V477.316C148.531 476.476 147.593 475.585 146.846 474.642C146.081 475.594 145.138 476.485 144.018 477.316V474.978C144.756 474.399 145.358 473.783 145.824 473.13C145.367 472.309 145.017 471.422 144.774 470.47C144.541 469.518 144.392 468.468 144.326 467.32H144.004V465.696ZM146.048 467.32C146.114 468.841 146.38 470.171 146.846 471.31C147.304 470.162 147.565 468.832 147.63 467.32H146.048ZM149.702 466.424H153.524V464.8H155.316V466.424H156.548V468.216H155.316L155.302 477.4H152.138V475.58H153.524V468.216H149.702V466.424ZM170.296 477.26H162.876V471.73H165.662V470.022H162.456V468.342H165.676V466.704C164.734 466.741 163.782 466.76 162.82 466.76V465.08C163.931 465.08 165.261 465.047 166.81 464.982C168.369 464.917 169.55 464.828 170.352 464.716V466.396C169.68 466.499 168.724 466.578 167.482 466.634V468.342H170.716V470.022H167.468V471.73H170.296V477.26ZM157.808 468.79H160.972V474.698L162.33 474.236V476.322L159.138 477.4V470.652H157.808V468.79ZM160.412 464.8L161.378 467.838H159.474L158.508 464.8H160.412ZM168.476 475.566V473.424H164.696V475.566H168.476ZM183.512 477.344H173.404V470.974H183.512V477.344ZM172.158 468.356H175.224L174.524 467.026H172.858V465.276H177.534V464.52H179.382V465.276H184.058V467.026H182.378L181.678 468.356H184.758V470.106H172.158V468.356ZM181.706 475.692V474.908H175.21V475.692H181.706ZM181.706 473.424V472.626H175.21V473.424H181.706ZM177.184 468.356H179.718L180.418 467.026H176.484L177.184 468.356ZM186.158 475.748C186.98 475.645 187.67 475.459 188.23 475.188C188.8 474.908 189.266 474.544 189.63 474.096H188.426V470.218H190.106V473.326C190.433 472.663 190.638 471.823 190.722 470.806H192.402C192.281 472.206 191.992 473.368 191.534 474.292C191.077 475.216 190.414 475.944 189.546 476.476C188.678 477.008 187.549 477.363 186.158 477.54V475.748ZM186.592 470.82H188.104L187.628 474.054H186.116L186.592 470.82ZM186.158 468.132H186.606V465.332H188.188V468.132H188.804V464.52H190.498V465.542H192.024V467.222H190.498V468.132H192.248V469.868H186.158V468.132ZM192.346 464.94H199.024V466.648H196.49L196.308 467.53H198.716V473.942H197.064V469.098H194.208V473.942H192.556V467.53H194.586L194.768 466.648H192.346V464.94ZM192.388 475.832C193.219 475.683 193.84 475.365 194.25 474.88C194.661 474.385 194.866 473.774 194.866 473.046V469.882H196.392V473.144C196.392 473.256 196.383 473.433 196.364 473.676C197.727 474.385 198.665 475.631 199.178 477.414H197.358C197.162 476.49 196.686 475.762 195.93 475.23C195.622 475.827 195.174 476.322 194.586 476.714C193.998 477.115 193.266 477.391 192.388 477.54V475.832ZM202.566 473.704H204.722L202.958 477.848H201.32L202.566 473.704ZM215.074 477.4C215.839 476.252 216.362 475.081 216.642 473.886H214.248V472.122H216.908C216.945 471.711 216.964 471.231 216.964 470.68V470.372H214.542V468.608H216.992V464.8H218.756V468.608H221.206V470.372H218.784V470.68C218.784 471.231 218.765 471.711 218.728 472.122H221.5V473.886H218.49C218.247 475.099 217.85 476.271 217.3 477.4H215.074ZM215.844 465.164L216.376 467.88H214.892L214.36 465.164H215.844ZM219.904 465.164H221.388L220.856 467.88H219.372L219.904 465.164ZM222.116 465.57H223.824V474.278H222.116V465.57ZM223.096 475.594H224.986V464.8H226.722V477.4H223.096V475.594ZM228.738 464.8H230.418V475.384H234.856V476.868C235.126 476.112 235.313 475.356 235.416 474.6C235.518 473.835 235.57 472.957 235.57 471.968V465.08C237.464 465.08 239.266 464.959 240.974 464.716V466.508C239.9 466.667 238.678 466.779 237.306 466.844V468.706H241.24V470.498H240.232V477.4H238.524V470.498H237.306V471.968C237.306 472.957 237.245 473.895 237.124 474.782C237.002 475.659 236.811 476.532 236.55 477.4H234.66L234.744 477.176H228.738V464.8ZM230.488 474.656C230.768 473.06 230.912 471.59 230.922 470.246H231.93C231.902 471.777 231.771 473.247 231.538 474.656H230.488ZM230.656 468.104H232.182V464.8H233.582V468.104H235.108V469.868H233.582V474.908H232.182V469.868H230.656V468.104ZM231.65 464.954L231.902 467.754H230.894L230.656 464.954H231.65ZM234.828 470.246C234.837 471.59 234.982 473.06 235.262 474.656H234.212C233.978 473.247 233.848 471.777 233.82 470.246H234.828ZM234.114 464.954H235.108L234.87 467.754H233.862L234.114 464.954ZM254.736 465.192V477.008H243.144V465.192H254.736ZM252.93 475.216V466.984H244.95V475.216H252.93ZM246.07 468.076H251.81V474.124H246.07V468.076ZM250.032 472.346V469.84H247.848V472.346H250.032ZM256.556 477.4C256.929 476.411 257.186 475.449 257.326 474.516C257.475 473.573 257.55 472.495 257.55 471.282V465.584H262.618V464.52H264.494V465.584H269.38V467.432H259.398V471.282C259.398 472.439 259.332 473.513 259.202 474.502C259.08 475.482 258.87 476.448 258.572 477.4H256.556ZM259.79 475.412H266.216L267.224 468.51H268.932L267.938 475.412H269.52V477.246H259.79V475.412ZM262.002 468.566L262.73 474.404H261.036L260.308 468.566H262.002ZM264.97 468.286L265.698 474.124H264.004L263.276 468.286H264.97ZM274.868 473.438H280.888V472.654H274.868V473.438ZM270.64 473.956C271.657 472.696 272.404 471.469 272.88 470.274H270.92V468.566H276.212V467.53H272.124V465.794H276.212V464.66H278.032V465.794H280.496V467.32L281.406 465.15H283.296L281.868 468.566H283.52V470.274H274.84C274.709 470.629 274.602 470.895 274.518 471.072H282.68V477.316H273.076V473.704L272.908 473.956H270.64ZM280.888 475.748V474.95H274.868V475.748H280.888ZM279.978 468.566L280.412 467.53H278.032V468.566H279.978ZM286.838 466.102L287.02 464.73H288.854L288.672 466.102H290.632V469.42C291.266 467.889 291.621 466.303 291.696 464.66H293.572C293.562 465.089 293.525 465.57 293.46 466.102H297.45V477.4H294.272V475.58H295.644V467.894H293.138C292.96 468.631 292.741 469.289 292.48 469.868H290.632V477.204H285.242V466.102H286.838ZM288.882 475.482V472.402H286.992V475.482H288.882ZM288.882 470.722V467.824H286.992V470.722H288.882ZM293.684 470.19L294.566 473.606H292.718L291.836 470.19H293.684ZM307.656 475.636H309.042V473.774H306.438C305.168 475.071 303.717 476.28 302.084 477.4H299.144C301.225 476.093 302.868 474.885 304.072 473.774H299.2V472.29H300.362V465.206H304.366L304.604 464.52H306.522L306.284 465.206H310.862V477.4H307.656V475.636ZM309.042 472.29V471.38H302.182V472.29H309.042ZM309.042 469.952V469.042H302.182V469.952H309.042ZM309.042 467.614V466.704H302.182V467.614H309.042ZM321.586 475.608H323.056L323.168 471.702H321.012C320.806 473.177 320.344 474.404 319.626 475.384C318.907 476.355 317.936 477.069 316.714 477.526V475.482C318.104 474.801 318.94 473.541 319.22 471.702H317.806V470.596C317.404 470.904 316.984 471.179 316.546 471.422V469.21C317.255 468.743 317.82 468.132 318.24 467.376C318.669 466.62 318.963 465.761 319.122 464.8H320.914C320.718 465.929 320.433 466.909 320.06 467.74C319.686 468.571 319.187 469.303 318.562 469.938H324.064C323.438 469.303 322.939 468.571 322.566 467.74C322.192 466.909 321.908 465.929 321.712 464.8H323.504C323.662 465.761 323.952 466.62 324.372 467.376C324.801 468.132 325.37 468.743 326.08 469.21V471.422C325.641 471.179 325.272 470.946 324.974 470.722L324.778 477.4H321.586V475.608ZM313.2 469.532C314.254 468.272 314.992 466.695 315.412 464.8H317.19C316.966 466.191 316.588 467.441 316.056 468.552V477.4H314.264V471.282C313.89 471.683 313.536 472.029 313.2 472.318V469.532ZM98.5959 498.328H100.052V491.3H101.858V498.328H104.392V489.83H99.0299V488.024H110.762V489.83H106.198V492.728H110.244V494.534H106.198V498.328H111.196V500.134H98.5959V498.328ZM125.182 500.4H123.502V498.384H122.354V500.414H120.786V498.384H119.414C119.311 499.028 119.162 499.7 118.966 500.4H117.09C117.687 498.804 117.986 497.054 117.986 495.15L117.972 491.594C117.757 491.678 117.566 491.743 117.398 491.79V490.096C118.182 489.573 118.803 488.808 119.26 487.8H124.566C124.221 488.911 123.801 489.872 123.306 490.684H125.182V500.4ZM112.456 494.1C112.811 493.4 113.095 492.709 113.31 492.028C113.534 491.337 113.702 490.605 113.814 489.83H112.736V488.01H117.37V489.83H115.606C115.475 490.819 115.289 491.697 115.046 492.462H117.244V499.7H113.226V494.1H112.456ZM115.704 497.95V494.212H114.766V497.95H115.704ZM121.36 490.684C121.687 490.208 121.939 489.788 122.116 489.424H120.352C120.063 489.909 119.736 490.329 119.372 490.684H121.36ZM120.786 496.732V495.36H119.652C119.652 495.677 119.633 496.135 119.596 496.732H120.786ZM120.786 493.708V492.336H119.652V493.708H120.786ZM123.502 496.732V495.36H122.354V496.732H123.502ZM123.502 493.708V492.336H122.354V493.708H123.502ZM131.118 495.682V498.44H129.34V495.682H126.582V493.904H129.34V491.16H131.118V493.904H133.876V495.682H131.118ZM138.147 491.874L136.341 492.63V490.586L138.749 489.214H140.219V499H138.147V491.874ZM150.535 498.622H152.467L152.635 494.73H149.359C149.023 496.251 148.389 497.497 147.455 498.468C146.522 499.439 145.304 500.101 143.801 500.456V498.58C144.8 498.3 145.612 497.838 146.237 497.194C146.872 496.541 147.311 495.719 147.553 494.73H145.271V493.19C144.711 493.582 144.081 493.918 143.381 494.198V492.07C144.315 491.631 145.071 491.053 145.649 490.334C146.237 489.615 146.681 488.724 146.979 487.66H148.869C148.375 489.909 147.292 491.669 145.621 492.938H154.021C152.351 491.669 151.268 489.909 150.773 487.66H152.663C152.962 488.724 153.401 489.615 153.979 490.334C154.567 491.053 155.328 491.631 156.261 492.07V494.198C155.608 493.918 155.029 493.615 154.525 493.288L154.259 500.4H150.535V498.622ZM159.789 496.704H161.945L160.181 500.848H158.543L159.789 496.704ZM183.678 500.288H176.566V493.834H183.678V500.288ZM171.316 492.42C171.876 490.889 172.226 489.349 172.366 487.8H174.298L174.256 488.15C174.247 488.225 174.238 488.323 174.228 488.444C174.219 488.556 174.2 488.691 174.172 488.85H175.908V490.586H173.878C173.832 490.801 173.752 491.113 173.64 491.524H175.698V493.232H174.452V494.464H175.978V496.2H174.452V498.258L175.866 497.922V499.77L172.688 500.54V496.2H171.442V494.464H172.688V493.232H172.002V492.42H171.316ZM175.992 491.412H177.644V490.334H176.286V488.668H177.644V487.8H179.394V488.668H180.864V487.8H182.6V488.668H183.972V490.334H182.6V491.412H184.266V493.092H175.992V491.412ZM181.9 498.692V497.782H178.358V498.692H181.9ZM181.9 496.326V495.43H178.358V496.326H181.9ZM180.864 491.412V490.334H179.394V491.412H180.864ZM190.328 488.024H197.622V492.476H190.328V488.024ZM185.512 491.79H188.41V497.6L189.334 497.236V499.322L186.59 500.4V493.652H185.512V491.79ZM187.962 487.8L188.928 490.838H187.024L186.058 487.8H187.962ZM189.628 498.776C190.3 498.627 190.893 498.44 191.406 498.216C191.929 497.992 192.433 497.684 192.918 497.292H189.656V495.612H193.072V494.814H190.048V493.134H197.902V494.814H194.878V495.612H198.448V497.292H195.06C195.546 497.675 196.064 497.983 196.614 498.216C197.165 498.44 197.786 498.627 198.476 498.776V500.54C197.478 500.335 196.619 500.078 195.9 499.77C195.191 499.462 194.552 499.019 193.982 498.44C193.385 499.028 192.75 499.476 192.078 499.784C191.416 500.092 190.599 500.344 189.628 500.54V498.776ZM195.83 490.894V489.62H192.12V490.894H195.83ZM204.384 493.89V495.514H200.086V493.89H204.384ZM209.192 491.874L207.386 492.63V490.586L209.794 489.214H211.264V499H209.192V491.874ZM221.58 498.622H223.512L223.68 494.73H220.404C220.068 496.251 219.434 497.497 218.5 498.468C217.567 499.439 216.349 500.101 214.846 500.456V498.58C215.845 498.3 216.657 497.838 217.282 497.194C217.917 496.541 218.356 495.719 218.598 494.73H216.316V493.19C215.756 493.582 215.126 493.918 214.426 494.198V492.07C215.36 491.631 216.116 491.053 216.694 490.334C217.282 489.615 217.726 488.724 218.024 487.66H219.914C219.42 489.909 218.337 491.669 216.666 492.938H225.066C223.396 491.669 222.313 489.909 221.818 487.66H223.708C224.007 488.724 224.446 489.615 225.024 490.334C225.612 491.053 226.373 491.631 227.306 492.07V494.198C226.653 493.918 226.074 493.615 225.57 493.288L225.304 500.4H221.58V498.622ZM237.792 500.68C237.102 499.625 236.579 498.594 236.224 497.586C235.87 496.578 235.692 495.533 235.692 494.45C235.692 493.367 235.87 492.322 236.224 491.314C236.579 490.306 237.102 489.228 237.792 488.08H239.836C239.174 489.191 238.674 490.264 238.338 491.3C238.012 492.336 237.848 493.363 237.848 494.38C237.848 495.397 238.012 496.424 238.338 497.46C238.674 498.496 239.174 499.569 239.836 500.68H237.792ZM248.236 493.358C246.864 495.029 245.021 496.317 242.706 497.222V495.234C243.985 494.646 245.068 493.932 245.954 493.092C246.841 492.243 247.574 491.225 248.152 490.04H243.126V488.262H255.166V490.04H250.168C249.842 490.852 249.45 491.613 248.992 492.322H250.056V500.4H248.25L248.236 493.358ZM251.022 493.246L255.586 495.206V497.11L251.022 495.15V493.246ZM267.514 500.4C267.001 499.345 266.618 498.291 266.366 497.236C266.114 496.181 265.97 495.057 265.932 493.862H263.118V498.608H264.042V500.4H261.326V488.08C264.108 488.08 266.758 487.959 269.278 487.716V489.508C268.905 489.545 268.382 489.592 267.71 489.648V492.07H269.754V493.862H267.724C267.762 495.047 267.934 496.172 268.242 497.236C268.55 498.3 269.045 499.355 269.726 500.4H267.514ZM256.846 492.434C257.929 491.193 258.685 489.648 259.114 487.8H260.948C260.734 489.023 260.416 490.115 259.996 491.076V500.414H258.19V493.988C257.77 494.483 257.322 494.926 256.846 495.318V492.434ZM265.918 492.07V489.76C265.097 489.807 264.164 489.839 263.118 489.858V492.07H265.918ZM265.624 496.606L266.436 500.4H264.77L263.958 496.606H265.624ZM274.43 498.58H276.88V494.548H271.126V492.714H276.88V489.886H271.924V488.052H282.928V489.886H278.812V492.714H283.726V494.548H278.812V500.4H274.43V498.58ZM288.696 499.182C286.354 499.182 285.182 497.488 285.182 494.1C285.182 490.712 286.354 489.018 288.696 489.018C291.039 489.018 292.21 490.712 292.21 494.1C292.21 497.488 291.039 499.182 288.696 499.182ZM287.24 494.1C287.24 495.192 287.352 495.995 287.576 496.508C287.81 497.021 288.183 497.278 288.696 497.278C289.21 497.278 289.578 497.021 289.802 496.508C290.036 495.995 290.152 495.192 290.152 494.1C290.152 493.017 290.036 492.219 289.802 491.706C289.578 491.193 289.21 490.936 288.696 490.936C288.183 490.936 287.81 491.193 287.576 491.706C287.352 492.219 287.24 493.017 287.24 494.1ZM300.678 498.622H302.61L302.778 494.73H299.502C299.166 496.251 298.531 497.497 297.598 498.468C296.665 499.439 295.447 500.101 293.944 500.456V498.58C294.943 498.3 295.755 497.838 296.38 497.194C297.015 496.541 297.453 495.719 297.696 494.73H295.414V493.19C294.854 493.582 294.224 493.918 293.524 494.198V492.07C294.457 491.631 295.213 491.053 295.792 490.334C296.38 489.615 296.823 488.724 297.122 487.66H299.012C298.517 489.909 297.435 491.669 295.764 492.938H304.164C302.493 491.669 301.411 489.909 300.916 487.66H302.806C303.105 488.724 303.543 489.615 304.122 490.334C304.71 491.053 305.471 491.631 306.404 492.07V494.198C305.751 493.918 305.172 493.615 304.668 493.288L304.402 500.4H300.678V498.622ZM309.274 500.68C309.937 499.569 310.431 498.496 310.758 497.46C311.094 496.424 311.262 495.397 311.262 494.38C311.262 493.363 311.094 492.336 310.758 491.3C310.431 490.264 309.937 489.191 309.274 488.08H311.318C312.009 489.228 312.531 490.306 312.886 491.314C313.241 492.322 313.418 493.367 313.418 494.45C313.418 495.533 313.241 496.578 312.886 497.586C312.531 498.594 312.009 499.625 311.318 500.68H309.274ZM97.3574 515.868L96.8674 516.246C96.83 517.907 96.6434 519.485 96.3074 520.978C96.5874 521.211 96.8954 521.379 97.2314 521.482C97.5767 521.585 97.9874 521.636 98.4634 521.636H102.929V523.288H98.4634C97.8754 523.288 97.3807 523.232 96.9794 523.12C96.578 523.017 96.2187 522.84 95.9014 522.588C95.8734 522.691 95.794 522.961 95.6634 523.4H93.8714C94.31 522.177 94.632 521.043 94.8374 519.998C95.0427 518.953 95.1687 517.823 95.2154 516.61H94.3194V514.79H96.3914C96.998 514.314 97.4787 513.717 97.8334 512.998H96.8954V511.43H98.3794C98.4167 511.253 98.4634 511.001 98.5194 510.674H100.017C99.9894 510.926 99.9474 511.178 99.8914 511.43H102.789V512.998H99.4154C99.3034 513.259 99.1774 513.525 99.0374 513.796H102.509V521.244H100.829V519.914H99.0374V521.244H97.3574V515.868ZM90.3994 510.94H94.4034V512.508C94.4034 513.74 94.156 514.921 93.6614 516.05C94.2214 516.899 94.5014 517.898 94.5014 519.046C94.5014 520.101 94.2494 521.029 93.7454 521.832H91.9814V523.4H90.3994V510.94ZM91.9814 521.776C92.336 521.319 92.5974 520.871 92.7654 520.432C92.9334 519.984 93.0174 519.522 93.0174 519.046C93.0174 518.094 92.672 517.179 91.9814 516.302V521.776ZM91.9814 516.162C92.532 515.051 92.8307 513.908 92.8774 512.732H91.9814V516.162ZM96.3074 510.8L96.7274 513.838H95.1594L94.7394 510.8H96.3074ZM100.829 518.514V517.618H99.0374V518.514H100.829ZM100.829 516.218V515.322H99.0374V516.218H100.829ZM116.425 517.212V523.358H107.829V517.212H116.425ZM104.147 523.134C104.754 522.098 105.179 521.081 105.421 520.082C105.664 519.074 105.781 517.94 105.771 516.68H104.329V515.196H109.705V514.58H105.267V513.222H109.705V512.606H104.679V511.164H106.891L106.695 510.52H108.543L108.739 511.164H112.519L112.715 510.52H114.563L114.367 511.164H116.579V512.606H111.553V513.222H115.991V514.58H111.553V515.196H116.929V516.68H107.535C107.526 517.912 107.423 519.046 107.227 520.082C107.041 521.109 106.723 522.126 106.275 523.134H104.147ZM114.647 522.14V521.622H109.607V522.14H114.647ZM114.647 520.544V520.068H109.607V520.544H114.647ZM114.647 518.976V518.472H109.607V518.976H114.647ZM124.349 523.26C123.491 523.26 122.777 523.209 122.207 523.106C121.638 523.013 121.125 522.849 120.667 522.616C120.602 522.84 120.555 522.985 120.527 523.05C120.481 523.227 120.448 523.344 120.429 523.4H118.497C118.936 522.177 119.258 521.043 119.463 519.998C119.669 518.953 119.795 517.823 119.841 516.61H118.189V514.79H121.661C121.661 515.994 121.619 517.072 121.535 518.024C121.451 518.976 121.307 519.923 121.101 520.866C121.521 521.099 121.983 521.267 122.487 521.37C123.001 521.463 123.621 521.51 124.349 521.51H131.209V523.26H124.349ZM120.653 510.8L121.619 513.838H119.729L118.763 510.8H120.653ZM122.291 518.108H125.987V517.002H122.669V515.322H123.257L124.097 513.222H122.557V511.514H124.783L125.091 510.73H126.995L126.687 511.514H130.761V513.222H126.001L125.161 515.322H125.987V513.768H127.779V515.322H130.467V517.002H127.779V518.108H131.027V519.816H127.779V521.174H125.987V519.816H122.291V518.108ZM133.029 518.206H134.905V521.44H138.013V517.394H132.329V515.616H138.013V513.474H133.029V511.696H138.013V510.59H139.805V511.696H144.789V513.474H139.805V515.616H145.489V517.394H139.805V521.44H142.913V518.206H144.789V523.232H133.029V518.206ZM152.629 523.26C151.752 523.26 151.024 523.209 150.445 523.106C149.867 523.003 149.344 522.831 148.877 522.588C148.849 522.691 148.77 522.961 148.639 523.4H146.679C147.146 522.187 147.482 521.057 147.687 520.012C147.902 518.967 148.033 517.833 148.079 516.61H146.469V514.79H149.871C149.871 515.975 149.829 517.044 149.745 517.996C149.661 518.939 149.521 519.881 149.325 520.824C149.736 521.076 150.198 521.253 150.711 521.356C151.234 521.459 151.873 521.51 152.629 521.51H159.489V523.26H152.629ZM148.933 510.8L149.899 513.838H148.009L147.043 510.8H148.933ZM150.221 519.2C151.145 518.92 151.733 518.332 151.985 517.436H150.305L150.613 513.698H153.987V512.914H150.221V511.402H152.125L151.859 510.59H153.497L153.763 511.402H155.681L155.947 510.59H157.585L157.319 511.402H158.817V515.182H155.667V515.924H159.251L158.957 520.278H156.549V518.654H157.445L157.543 517.436H155.667V520.922H153.987V517.436H153.511C153.259 519.237 152.163 520.409 150.221 520.95V519.2ZM153.987 515.924V515.182H152.181L152.111 515.924H153.987ZM157.235 513.698V512.914H155.667V513.698H157.235ZM160.875 520.152L162.219 519.9V515.392H160.945V513.516H162.219V510.8H163.983V513.516H165.187V515.392H163.983V519.55L165.257 519.312V521.258L160.875 522.098V520.152ZM165.523 511.836H166.755L166.321 510.8H168.183L168.617 511.836H170.465L170.899 510.8H172.747L172.313 511.836H173.391V517.24H165.523V511.836ZM165.845 517.828H173.083V523.26H165.845V517.828ZM168.827 515.826V513.25H167.147V515.826H168.827ZM168.253 513.586L168.687 515.49H167.721L167.287 513.586H168.253ZM171.277 521.958V521.146H167.651V521.958H171.277ZM171.277 519.928V519.13H167.651V519.928H171.277ZM171.767 515.826V513.25H170.101V515.826H171.767ZM170.675 513.586H171.627L171.193 515.49H170.227L170.675 513.586ZM182.337 511.892H187.433V522.952H182.337V511.892ZM174.959 523.4C175.585 522.224 176.014 521.071 176.247 519.942C176.481 518.813 176.597 517.548 176.597 516.148V514.622H175.435V512.802H176.597V510.66H178.417V512.802H181.371V523.4H178.445V521.65H179.621V514.622H178.333V516.148C178.333 517.483 178.226 518.738 178.011 519.914C177.797 521.09 177.442 522.252 176.947 523.4H174.959ZM185.711 521.16V513.684H184.059V521.16H185.711ZM196.183 521.622H198.115L198.283 517.73H195.007C194.671 519.251 194.037 520.497 193.103 521.468C192.17 522.439 190.952 523.101 189.449 523.456V521.58C190.448 521.3 191.26 520.838 191.885 520.194C192.52 519.541 192.959 518.719 193.201 517.73H190.919V516.19C190.359 516.582 189.729 516.918 189.029 517.198V515.07C189.963 514.631 190.719 514.053 191.297 513.334C191.885 512.615 192.329 511.724 192.627 510.66H194.517C194.023 512.909 192.94 514.669 191.269 515.938H199.669C197.999 514.669 196.916 512.909 196.421 510.66H198.311C198.61 511.724 199.049 512.615 199.627 513.334C200.215 514.053 200.976 514.631 201.909 515.07V517.198C201.256 516.918 200.677 516.615 200.173 516.288L199.907 523.4H196.183V521.622ZM205.437 519.704H207.593L205.829 523.848H204.191L205.437 519.704ZM223.111 523.26C222.252 523.26 221.538 523.209 220.969 523.106C220.399 523.013 219.886 522.849 219.429 522.616C219.363 522.84 219.317 522.985 219.289 523.05C219.242 523.227 219.209 523.344 219.191 523.4H217.259C217.697 522.177 218.019 521.043 218.225 519.998C218.43 518.953 218.556 517.823 218.603 516.61H216.951V514.79H220.423C220.423 515.994 220.381 517.072 220.297 518.024C220.213 518.976 220.068 519.923 219.863 520.866C220.283 521.099 220.745 521.267 221.249 521.37C221.762 521.463 222.383 521.51 223.111 521.51H229.971V523.26H223.111ZM219.415 510.8L220.381 513.838H218.491L217.525 510.8H219.415ZM221.053 518.108H224.749V517.002H221.431V515.322H222.019L222.859 513.222H221.319V511.514H223.545L223.853 510.73H225.757L225.449 511.514H229.523V513.222H224.763L223.923 515.322H224.749V513.768H226.541V515.322H229.229V517.002H226.541V518.108H229.789V519.816H226.541V521.174H224.749V519.816H221.053V518.108ZM231.791 518.206H233.667V521.44H236.775V517.394H231.091V515.616H236.775V513.474H231.791V511.696H236.775V510.59H238.567V511.696H243.551V513.474H238.567V515.616H244.251V517.394H238.567V521.44H241.675V518.206H243.551V523.232H231.791V518.206ZM253.449 514.16V520.88H246.673V514.16H253.449ZM245.399 511.15H258.223V512.956H257.033V523.428H253.141V521.622H255.227V512.956H245.399V511.15ZM251.657 519.088V515.966H248.465V519.088H251.657ZM265.251 523.26C264.513 523.26 263.883 523.209 263.361 523.106C262.838 523.013 262.367 522.854 261.947 522.63C261.928 522.705 261.835 522.961 261.667 523.4H259.511C260.015 522.401 260.388 521.473 260.631 520.614C260.873 519.746 261.027 518.822 261.093 517.842H259.637V516.05H260.113L260.897 512.83H259.637V511.038H263.123L261.905 516.05H262.969C262.969 517.03 262.927 517.903 262.843 518.668C262.768 519.433 262.637 520.189 262.451 520.936C262.815 521.16 263.221 521.319 263.669 521.412C264.117 521.505 264.644 521.552 265.251 521.552H272.391V523.26H265.251ZM263.739 511.122C266.371 511.122 269.031 510.973 271.719 510.674V512.438C270.879 512.541 269.917 512.629 268.835 512.704V514.664H272.097V516.428H268.835V518.724H271.915V520.488H263.879V514.104H265.643V518.724H267.029V512.816C265.797 512.863 264.7 512.886 263.739 512.886V511.122ZM275.233 516.722L273.623 515.812L275.513 510.8H277.235L275.709 514.804L276.185 515.084L276.843 513.306H278.481L276.633 518.29H277.921V520.096H273.987L275.233 516.722ZM273.777 521.51L277.991 521.048V522.854L273.777 523.316V521.51ZM278.481 518.808H282.359V515.126H284.123V518.808H286.517V520.418H283.801L283.717 520.6L286.391 521.776V523.47L282.709 521.846C282.195 522.275 281.575 522.63 280.847 522.91C280.119 523.199 279.335 523.395 278.495 523.498V521.902C279.241 521.762 279.899 521.575 280.469 521.342C281.038 521.109 281.486 520.801 281.813 520.418H278.481V518.808ZM278.621 513.292H281.603V512.55H279.055V511.122H281.603V510.66H283.395V511.122H285.943V512.55H283.395V513.292H286.237V516.106H284.655V514.86H278.621V513.292ZM278.719 516.862L281.323 517.142V518.416L278.719 518.136V516.862ZM279.307 515.21L281.897 515.49V516.764L279.307 516.484V515.21ZM287.861 521.44H293.307V519.914H288.533V518.136H293.307V516.778H288.449V515.014H289.625L291.151 512.746H288.071V510.996H300.391V512.746H293.461L291.935 515.014H297.353L296.555 513.348H298.599L300.251 516.778H295.155V518.136H299.929V519.914H295.155V521.44H300.601V523.232H287.861V521.44ZM306.607 513.096H301.931V511.192H314.811V513.096H308.539V523.4H306.607V513.096ZM311.493 514.902L314.041 520.88H312.053L309.505 514.902H311.493ZM322.833 515.406C322.366 515.854 321.927 516.213 321.517 516.484V517.954H320.425V519.494L321.825 519.242V520.852L320.425 521.104V523.4H318.633V521.412L316.071 521.86V520.25L318.633 519.802V517.954H316.043L317.191 513.334H316.211V511.794H317.569L317.821 510.8H319.683L319.445 511.794H321.517V513.334H318.927L318.185 516.414H318.829V514.3H320.425V516.414H321.293V514.37C321.797 513.922 322.287 513.385 322.763 512.76C323.239 512.125 323.607 511.472 323.869 510.8H326.515C326.767 511.397 327.112 512.018 327.551 512.662C327.999 513.306 328.512 513.875 329.091 514.37V516.638C328.447 516.209 327.798 515.644 327.145 514.944C326.491 514.244 325.936 513.469 325.479 512.62H324.877C324.307 513.684 323.635 514.603 322.861 515.378H324.653V517.366C325.81 517.17 326.925 516.727 327.999 516.036V517.842C327.644 518.085 327.173 518.323 326.585 518.556C326.006 518.789 325.362 518.976 324.653 519.116V521.44H328.951V523.26H322.833V515.406Z" fill="#919191"/>
<path d="M175.732 419.856C174.556 417.299 173.529 413.957 172.652 409.832H170.944C170.533 411.848 170.076 413.677 169.572 415.32C169.087 416.963 168.508 418.475 167.836 419.856H163.916C165.391 416.589 166.52 413.248 167.304 409.832H164.476V407.088L162.068 405.576V420.024H158.512L158.484 394.376H162.068V401.46L164.672 403.084V406.248H169.04V400.452H165.036V396.868H169.04V394.32H172.68V396.868H179.288V406.248H180.632V409.832H176.292C177.095 413.285 178.215 416.627 179.652 419.856H175.732ZM154.452 409.58C154.844 406.201 155.04 402.599 155.04 398.772H157.672C157.672 402.561 157.513 406.164 157.196 409.58H154.452ZM175.816 406.248V400.452H172.568V406.248H175.816ZM208.38 416.02V419.52H194.66C192.905 419.52 191.44 419.408 190.264 419.184C189.107 418.979 188.061 418.633 187.128 418.148L186.652 419.8H182.76C183.656 417.373 184.309 415.115 184.72 413.024C185.149 410.915 185.411 408.647 185.504 406.22H182.34V402.58H189.116C189.116 404.951 189.032 407.088 188.864 408.992C188.696 410.877 188.416 412.763 188.024 414.648C188.883 415.133 189.825 415.488 190.852 415.712C191.897 415.917 193.167 416.02 194.66 416.02H208.38ZM187.268 394.6L189.2 400.676H185.42L183.488 394.6H187.268ZM189.676 414.732C190.796 412.791 191.449 410.784 191.636 408.712H195.024C194.8 410.989 194.268 412.996 193.428 414.732H189.676ZM190.152 395.44H197.348V394.32H200.932V395.44H207.848V398.688H200.932V400.2H207.288V408.068H200.876V414.928H197.404V408.068H190.992V400.2H197.348V398.688H190.152V395.44ZM197.404 405.1V403.168H194.408V405.1H197.404ZM203.872 405.1V403.168H200.876V405.1H203.872ZM206.644 408.712C206.831 410.784 207.484 412.791 208.604 414.732H204.852C204.012 412.996 203.48 410.989 203.256 408.712H206.644ZM218.376 416.216C220.317 415.227 221.633 414.153 222.324 412.996C223.015 411.82 223.388 410.607 223.444 409.356L219.216 412.268V409.496L217.2 410.028V419.8H211.544V416.412H213.56V410.952L210.788 411.652V407.76L213.56 407.06V401.88H211.068V398.352H213.56V394.46H217.2V398.352H219.3V401.88H217.2V406.136L219.58 405.52V408.236L223.444 405.576V394.46H226.804V408.6C226.804 410.168 226.617 411.652 226.244 413.052C225.871 414.452 225.059 415.796 223.808 417.084C222.576 418.372 220.765 419.371 218.376 420.08V416.216ZM222.352 395.608L223.276 404.036H220.392L219.468 395.608H222.352ZM228.764 394.46H232.124V406.248L236.268 409.3V413.192L232.124 410.14V416.132H236.66V419.716H228.764V394.46ZM233.468 395.608H236.352L235.288 404.036H232.404L233.468 395.608ZM264.38 420.304C261.561 419.464 259.368 418.073 257.8 416.132C257.072 416.841 256.26 417.439 255.364 417.924C254.487 418.428 253.497 418.895 252.396 419.324V415.208C253.871 414.629 255.056 413.864 255.952 412.912C255.037 410.616 254.58 407.732 254.58 404.26H252.032V400.844H254.524V394.46H257.856V400.844H263.288V404.26H257.912C257.931 405.492 257.968 406.537 258.024 407.396C258.08 408.255 258.192 409.048 258.36 409.776C258.864 408.749 259.256 407.545 259.536 406.164H262.644C262.14 408.815 261.272 411.204 260.04 413.332C261.011 414.527 262.457 415.497 264.38 416.244V420.304ZM239.432 405.968H243.212V394.46H246.796V398.044H251.668V401.684H246.796V405.968H250.996V419.52H239.432V405.968ZM247.524 415.908V409.58H242.904V415.908H247.524ZM261.384 395.076L262.392 399.948H259.34L258.36 395.076H261.384Z" fill="#273430"/>
<g clip-path="url(#clip1_703_2882)">
<rect width="422" height="368" transform="translate(-1.5)" fill="#E9F7FF"/>
<path d="M139.571 292.197C139.571 268.703 139.571 256.957 143.676 247.79C148.395 237.254 156.826 228.823 167.362 224.105C176.528 220 188.274 220 211.768 220V220C234.761 220 246.258 220 255.229 224.018C265.541 228.636 273.793 236.887 278.411 247.199C282.428 256.17 282.428 267.667 282.428 290.66V294.139C282.428 312.415 282.428 321.553 278.806 328.504C275.775 334.318 271.032 339.061 265.218 342.092C258.267 345.714 249.129 345.714 230.853 345.714H190.494C172.834 345.714 164.004 345.714 157.238 342.325C151.063 339.231 146.054 334.223 142.961 328.047C139.571 321.282 139.571 312.452 139.571 294.792V292.197Z" fill="#14AEEC"/>
<rect x="158.143" y="257.143" width="105.714" height="60" rx="20" fill="#010101"/>
<path d="M181 345.238C181 339.007 181 335.892 182.34 333.571C183.217 332.051 184.48 330.789 186 329.911C188.321 328.571 191.436 328.571 197.667 328.571H224.333C230.564 328.571 233.679 328.571 236 329.911C237.52 330.789 238.783 332.051 239.66 333.571C241 335.892 241 339.007 241 345.238V345.238C241 346.484 241 347.107 240.732 347.571C240.556 347.875 240.304 348.128 240 348.303C239.536 348.571 238.913 348.571 237.667 348.571H184.333C183.087 348.571 182.464 348.571 182 348.303C181.696 348.128 181.443 347.875 181.268 347.571C181 347.107 181 346.484 181 345.238V345.238Z" fill="#8CE2F9"/>
<path d="M279.571 259.643C279.571 259.178 279.571 258.946 279.61 258.753C279.768 257.959 280.388 257.339 281.181 257.181C281.374 257.143 281.607 257.143 282.071 257.143V257.143C283.465 257.143 284.162 257.143 284.742 257.258C287.122 257.732 288.983 259.592 289.456 261.972C289.571 262.552 289.571 263.249 289.571 264.643V308.214C289.571 309.608 289.571 310.305 289.456 310.885C288.983 313.265 287.122 315.126 284.742 315.599C284.162 315.714 283.465 315.714 282.071 315.714V315.714C281.607 315.714 281.374 315.714 281.181 315.676C280.388 315.518 279.768 314.898 279.61 314.104C279.571 313.911 279.571 313.679 279.571 313.214V259.643Z" fill="#8CE2F9"/>
<path d="M142.429 259.643C142.429 259.178 142.429 258.946 142.39 258.753C142.232 257.959 141.612 257.339 140.819 257.181C140.626 257.143 140.393 257.143 139.929 257.143V257.143C138.535 257.143 137.838 257.143 137.258 257.258C134.878 257.732 133.017 259.592 132.544 261.972C132.429 262.552 132.429 263.249 132.429 264.643V308.214C132.429 309.608 132.429 310.305 132.544 310.885C133.017 313.265 134.878 315.126 137.258 315.599C137.838 315.714 138.535 315.714 139.929 315.714V315.714C140.393 315.714 140.626 315.714 140.819 315.676C141.612 315.518 142.232 314.898 142.39 314.104C142.429 313.911 142.429 313.679 142.429 313.214V259.643Z" fill="#8CE2F9"/>
<path d="M183.857 222C183.857 221.057 183.857 220.586 184.15 220.293C184.443 220 184.914 220 185.857 220H236.143C237.085 220 237.557 220 237.85 220.293C238.143 220.586 238.143 221.057 238.143 222V257.143H183.857V222Z" fill="#3F7B8D"/>
<path d="M189.571 220H232.428V239.714C232.428 242.543 232.428 243.957 231.55 244.836C230.671 245.714 229.257 245.714 226.428 245.714H195.571C192.743 245.714 191.329 245.714 190.45 244.836C189.571 243.957 189.571 242.543 189.571 239.714V220Z" fill="#8CE2F9"/>
<ellipse cx="17.9582" cy="17.1429" rx="17.9582" ry="17.1429" transform="matrix(-1 -8.34536e-08 -9.15808e-08 1 204.917 271)" fill="#EBBA48"/>
<path d="M186.959 275.429C179.533 275.429 173.592 281.164 173.592 288.142C173.592 295.121 179.533 300.857 186.959 300.857C194.385 300.857 200.325 295.121 200.325 288.142C200.325 281.164 194.385 275.429 186.959 275.429Z" fill="#EBBA48" stroke="#F1EACD" stroke-width="2"/>
<ellipse cx="2.68934" cy="3.43469" rx="2.68934" ry="3.43469" transform="matrix(-0.983099 0.183073 0.200218 0.979751 181.991 285)" fill="#EEE8D8"/>
<ellipse cx="0.897909" cy="0.857142" rx="0.897909" ry="0.857142" transform="matrix(-1 -8.34536e-08 -9.15808e-08 1 183.368 293.572)" fill="#EFE8DC"/>
<ellipse cx="17.9582" cy="17.1429" rx="17.9582" ry="17.1429" transform="matrix(-1 -8.34536e-08 -9.15808e-08 1 253.917 271)" fill="#EBBA48"/>
<path d="M235.955 275C228.528 275 222.588 280.736 222.587 287.714C222.587 294.693 228.528 300.429 235.955 300.429C243.381 300.429 249.321 294.693 249.321 287.714C249.321 280.736 243.381 275 235.955 275Z" fill="#EBBA48" stroke="#F1EACD" stroke-width="2"/>
<ellipse cx="2.68934" cy="3.43469" rx="2.68934" ry="3.43469" transform="matrix(-0.983099 0.183073 0.200218 0.979751 230.995 285)" fill="#EEE8D8"/>
<ellipse cx="0.897909" cy="0.857142" rx="0.897909" ry="0.857142" transform="matrix(-1 -8.34536e-08 -9.15808e-08 1 232.363 293.572)" fill="#EFE8DC"/>
<rect x="131" y="265.714" width="2.85714" height="40" rx="1.42857" fill="#14AEEC"/>
<rect x="288.143" y="265.714" width="2.85714" height="40" rx="1.42857" fill="#14AEEC"/>
<path opacity="0.5" d="M124.088 334.075C116.146 319.223 111.989 302.553 112.001 285.612C112.012 268.67 116.194 252.007 124.157 237.167L125.873 238.137C118.07 252.68 113.972 269.011 113.961 285.613C113.949 302.216 118.024 318.553 125.807 333.107L124.088 334.075Z" fill="#0E8ABB"/>
<path opacity="0.3" d="M105.679 344.444C96.0349 326.41 90.986 306.168 91.0005 285.596C91.015 265.024 96.0924 244.79 105.761 226.77L107.846 227.948C98.3705 245.608 93.3947 265.438 93.3805 285.598C93.3663 305.758 98.3142 325.596 107.765 343.269L105.679 344.444Z" fill="#0E8ABB"/>
<path opacity="0.1" d="M87.2685 354.815C75.9229 333.598 69.983 309.783 70 285.581C70.0171 261.379 75.9904 237.573 87.3659 216.373L89.8186 217.759C78.6706 238.536 72.8167 261.865 72.8 285.583C72.7833 309.301 78.6044 332.639 89.7231 353.432L87.2685 354.815Z" fill="#0E8ABB"/>
<path opacity="0.5" d="M294.871 235.395C303.125 250.067 307.633 266.64 307.979 283.578C308.325 300.516 304.496 317.269 296.849 332.282L295.112 331.35C302.606 316.637 306.358 300.219 306.02 283.62C305.681 267.021 301.262 250.779 293.174 236.401L294.871 235.395Z" fill="#0E8ABB"/>
<path opacity="0.3" d="M313.058 224.618C323.08 242.434 328.555 262.559 328.975 283.127C329.394 303.694 324.745 324.037 315.459 342.267L313.35 341.136C322.45 323.27 327.007 303.334 326.595 283.178C326.184 263.022 320.818 243.299 310.997 225.84L313.058 224.618Z" fill="#0E8ABB"/>
<path opacity="0.1" d="M331.245 213.842C343.035 234.802 349.477 258.479 349.971 282.676C350.464 306.873 344.995 330.805 334.07 352.253L331.588 350.922C342.295 329.903 347.655 306.449 347.171 282.736C346.687 259.023 340.375 235.82 328.82 215.279L331.245 213.842Z" fill="#0E8ABB"/>
<ellipse cx="210" cy="401" rx="256.5" ry="61" fill="white"/>
</g>
</g>
<defs>
<clipPath id="clip0_703_2882">
<rect width="420" height="812" fill="white"/>
</clipPath>
<clipPath id="clip1_703_2882">
<rect width="422" height="368" fill="white" transform="translate(-1.5)"/>
</clipPath>
</defs>
</svg>






