<svg width="244" height="88" viewBox="0 0 244 88" fill="none" xmlns="http://www.w3.org/2000/svg">
<g filter="url(#filter0_i_414_1437)">
<rect width="243.501" height="88" rx="28" fill="#747FF0"/>
</g>
<path d="M83.9216 51.384C83.6869 51.4053 83.3242 51.416 82.8336 51.416C79.9536 51.416 77.3936 50.7973 75.1536 49.56V44.856C76.3269 45.5813 77.6176 46.1893 79.0256 46.68C80.4336 47.1707 81.7136 47.416 82.8656 47.416C83.8042 47.416 84.5402 47.1813 85.0736 46.712C85.6282 46.2427 85.9056 45.7093 85.9056 45.112C85.9056 44.28 85.5856 43.5227 84.9456 42.84C84.3056 42.136 83.2816 41.5707 81.8736 41.144C80.2522 40.632 78.9829 40.12 78.0656 39.608C77.1696 39.0747 76.4869 38.4133 76.0176 37.624C75.5696 36.8347 75.3456 35.832 75.3456 34.616C75.3456 33.464 75.6229 32.4187 76.1776 31.48C76.7322 30.52 77.5429 29.752 78.6096 29.176C79.6976 28.6 80.9882 28.28 82.4816 28.216C82.6736 28.1947 82.9722 28.184 83.3776 28.184C84.4869 28.184 85.5962 28.3013 86.7056 28.536C87.8362 28.7493 88.7856 29.0267 89.5536 29.368V33.496C88.7216 33.1333 87.7509 32.8347 86.6416 32.6C85.5322 32.3653 84.5509 32.248 83.6976 32.248C82.6096 32.248 81.7776 32.44 81.2016 32.824C80.6256 33.208 80.3376 33.7413 80.3376 34.424C80.3376 35.0427 80.6469 35.5973 81.2656 36.088C81.8842 36.5787 82.8442 37.048 84.1456 37.496C85.7029 37.944 86.9722 38.456 87.9536 39.032C88.9349 39.5867 89.7029 40.3227 90.2576 41.24C90.8122 42.136 91.0896 43.2667 91.0896 44.632C91.0896 45.9333 90.7909 47.0853 90.1936 48.088C89.5962 49.0907 88.7536 49.88 87.6656 50.456C86.5989 51.0107 85.3509 51.32 83.9216 51.384ZM92.6691 28.6H109.501V32.92H103.741V51H98.4291V32.92H92.6691V28.6ZM123.606 44.664H116.438L114.742 51H109.142L115.638 28.6H124.438L130.934 51H125.302L123.606 44.664ZM122.582 40.824L120.054 31.448H119.99L117.462 40.824H122.582ZM143.913 28.6C146.174 28.6 147.956 29.1867 149.257 30.36C150.58 31.512 151.241 33.144 151.241 35.256C151.241 37.0053 150.782 38.4347 149.865 39.544C148.969 40.6533 147.7 41.368 146.057 41.688C147.294 43.0533 148.393 44.472 149.353 45.944C150.313 47.416 151.23 49.1013 152.105 51H147.241C146.238 48.9733 145.31 47.2987 144.457 45.976C143.604 44.6533 142.494 43.2987 141.129 41.912H138.825V51H133.545V28.6H143.913ZM143.529 38.232C144.617 38.232 145.46 37.944 146.057 37.368C146.654 36.792 146.953 36.088 146.953 35.256C146.953 34.4027 146.644 33.6987 146.025 33.144C145.428 32.568 144.596 32.28 143.529 32.28H138.825V38.232H143.529ZM153.294 28.6H170.126V32.92H164.366V51H159.054V32.92H153.294V28.6Z" fill="white"/>
<defs>
<filter id="filter0_i_414_1437" x="0" y="0" width="243.501" height="88" filterUnits="userSpaceOnUse" color-interpolation-filters="sRGB">
<feFlood flood-opacity="0" result="BackgroundImageFix"/>
<feBlend mode="normal" in="SourceGraphic" in2="BackgroundImageFix" result="shape"/>
<feColorMatrix in="SourceAlpha" type="matrix" values="0 0 0 0 0 0 0 0 0 0 0 0 0 0 0 0 0 0 127 0" result="hardAlpha"/>
<feOffset dy="-12"/>
<feComposite in2="hardAlpha" operator="arithmetic" k2="-1" k3="1"/>
<feColorMatrix type="matrix" values="0 0 0 0 0 0 0 0 0 0 0 0 0 0 0 0 0 0 0.13 0"/>
<feBlend mode="normal" in2="shape" result="effect1_innerShadow_414_1437"/>
</filter>
</defs>
</svg>



