<svg width="244" height="88" viewBox="0 0 244 88" fill="none" xmlns="http://www.w3.org/2000/svg">
<g filter="url(#filter0_i_414_1433)">
<rect width="243.501" height="88" rx="28" fill="#747FF0"/>
</g>
<path d="M83.2211 50.272H88.8211L89.1011 42.852H70.2291L71.2371 32.464H68.4931V28.88H89.2971L88.4571 39.268H92.7411L92.1811 53.8H83.2211V50.272ZM66.8411 45.036H86.8051V48.592H66.8411V45.036ZM84.9011 39.268L85.4611 32.464H74.8491L74.2331 39.268H84.9011ZM95.1211 49.404H104.557V28.6H108.421V35.32H119.117V38.96H108.421V49.404H120.881V53.212H95.1211V49.404ZM124.689 53.8C126.033 52.1387 127.041 50.4307 127.713 48.676C128.385 46.9213 128.814 45.064 129.001 43.104H123.317V39.492H129.113V32.772H125.053V29.132H146.949V32.772H143.253V39.492H148.685V43.104H143.253V53.8H139.613V43.104H132.669C132.538 45.1573 132.212 47.0333 131.689 48.732C131.166 50.412 130.382 52.1013 129.337 53.8H124.689ZM139.613 39.492V32.772H132.753V39.492H139.613ZM158.149 49.908C157.477 51.252 156.758 52.5493 155.993 53.8H151.569C153.174 51.4853 154.406 49.4787 155.265 47.78L151.485 44.952L152.885 35.404H151.401V31.764H153.417L153.893 28.6H157.757L157.337 31.764H161.537C161.537 35.0867 161.406 37.8587 161.145 40.08C160.884 42.3013 160.361 44.4573 159.577 46.548L161.425 47.976V52.372L158.149 49.908ZM156.693 44.336C157.496 41.8533 157.981 38.876 158.149 35.404H156.301L155.209 43.188L156.693 44.336ZM161.957 36.328H163.469L166.801 28.488H170.721L167.389 36.328H172.177L171.197 33.248H174.921L177.021 39.8H161.957V36.328ZM162.769 41.844H175.985V53.576H162.769V41.844ZM172.737 50.216V45.204H166.017V50.216H172.737Z" fill="white"/>
<defs>
<filter id="filter0_i_414_1433" x="0" y="0" width="243.501" height="88" filterUnits="userSpaceOnUse" color-interpolation-filters="sRGB">
<feFlood flood-opacity="0" result="BackgroundImageFix"/>
<feBlend mode="normal" in="SourceGraphic" in2="BackgroundImageFix" result="shape"/>
<feColorMatrix in="SourceAlpha" type="matrix" values="0 0 0 0 0 0 0 0 0 0 0 0 0 0 0 0 0 0 127 0" result="hardAlpha"/>
<feOffset dy="-12"/>
<feComposite in2="hardAlpha" operator="arithmetic" k2="-1" k3="1"/>
<feColorMatrix type="matrix" values="0 0 0 0 0 0 0 0 0 0 0 0 0 0 0 0 0 0 0.13 0"/>
<feBlend mode="normal" in2="shape" result="effect1_innerShadow_414_1433"/>
</filter>
</defs>
</svg>





