<svg width="240" height="60" viewBox="0 0 240 60" fill="none" xmlns="http://www.w3.org/2000/svg">
<path d="M6.26647 12.182C5.19313 12.182 4.19447 12.0233 3.27047 11.706V9.816C4.1758 10.2173 5.05313 10.418 5.90247 10.418C6.50913 10.418 6.98047 10.2593 7.31647 9.942C7.65247 9.61533 7.82047 9.20467 7.82047 8.71C7.82047 8.206 7.64313 7.79533 7.28847 7.478C6.9338 7.16067 6.48113 7.002 5.93047 7.002C5.2398 7.002 4.4698 7.17933 3.62047 7.534L3.76047 2.2H9.31847V3.88H5.65047L5.59447 5.854C5.97713 5.80733 6.38313 5.784 6.81247 5.784C7.4098 5.784 7.93247 5.91 8.38047 6.162C8.8378 6.40467 9.1878 6.75467 9.43047 7.212C9.68247 7.66933 9.80847 8.20133 9.80847 8.808C9.80847 9.48933 9.65913 10.0867 9.36047 10.6C9.07113 11.104 8.66047 11.496 8.12847 11.776C7.59647 12.0467 6.9758 12.182 6.26647 12.182ZM24.0583 13.568C22.7609 13.2227 21.6456 12.6813 20.7123 11.944C19.7696 12.6813 18.6496 13.2227 17.3523 13.568V11.706C18.1269 11.4447 18.8176 11.0993 19.4243 10.67C18.4816 9.466 17.8936 8.00067 17.6603 6.274H23.7503C23.5169 8.00067 22.9289 9.466 21.9863 10.67C22.5929 11.0993 23.2836 11.4447 24.0583 11.706V13.568ZM11.1923 10.502L11.8923 10.432V0.94C13.7029 0.94 15.4296 0.879333 17.0723 0.758V2.536C16.1389 2.60133 15.0096 2.65267 13.6843 2.69V3.894H16.5543V5.602H13.6843V6.82H16.5543V8.528H13.6843V10.25L16.9183 9.928V11.706L13.6843 12.028V13.4H11.8923V12.21L11.1923 12.28V10.502ZM17.1143 5.994C17.5156 5.38733 17.7956 4.79 17.9543 4.202C18.1129 3.60467 18.1923 2.928 18.1923 2.172V1.038H23.2183V4.104H24.0583V5.784H21.4403V2.83H19.9563C19.9003 3.93133 19.6343 4.986 19.1583 5.994H17.1143ZM19.8303 7.828C20.0543 8.39733 20.3436 8.92467 20.6983 9.41C21.0623 8.94333 21.3563 8.416 21.5803 7.828H19.8303ZM32.7663 5.868L32.2763 6.246C32.2389 7.90733 32.0523 9.48467 31.7163 10.978C31.9963 11.2113 32.3043 11.3793 32.6403 11.482C32.9856 11.5847 33.3963 11.636 33.8723 11.636H38.3383V13.288H33.8723C33.2843 13.288 32.7896 13.232 32.3883 13.12C31.9869 13.0173 31.6276 12.84 31.3103 12.588C31.2823 12.6907 31.2029 12.9613 31.0723 13.4H29.2803C29.7189 12.1773 30.0409 11.0433 30.2463 9.998C30.4516 8.95267 30.5776 7.82333 30.6243 6.61H29.7283V4.79H31.8003C32.4069 4.314 32.8876 3.71667 33.2423 2.998H32.3043V1.43H33.7883C33.8256 1.25267 33.8723 1.00067 33.9283 0.674H35.4263C35.3983 0.925999 35.3563 1.178 35.3003 1.43H38.1983V2.998H34.8243C34.7123 3.25933 34.5863 3.52533 34.4463 3.796H37.9183V11.244H36.2383V9.914H34.4463V11.244H32.7663V5.868ZM25.8083 0.94H29.8123V2.508C29.8123 3.74 29.5649 4.92067 29.0703 6.05C29.6303 6.89933 29.9103 7.898 29.9103 9.046C29.9103 10.1007 29.6583 11.0293 29.1543 11.832H27.3903V13.4H25.8083V0.94ZM27.3903 11.776C27.7449 11.3187 28.0063 10.8707 28.1743 10.432C28.3423 9.984 28.4263 9.522 28.4263 9.046C28.4263 8.094 28.0809 7.17933 27.3903 6.302V11.776ZM27.3903 6.162C27.9409 5.05133 28.2396 3.908 28.2863 2.732H27.3903V6.162ZM31.7163 0.8L32.1363 3.838H30.5683L30.1483 0.8H31.7163ZM36.2383 8.514V7.618H34.4463V8.514H36.2383ZM36.2383 6.218V5.322H34.4463V6.218H36.2383ZM44.1203 13.54C44.6616 12.4573 45.0489 11.4307 45.2823 10.46C45.5249 9.48 45.6463 8.39733 45.6463 7.212V1.164H51.2743V11.566H52.5203V13.4H49.4683V3.04H47.4523V7.212C47.4523 8.416 47.3496 9.50333 47.1443 10.474C46.9483 11.4447 46.6076 12.4667 46.1223 13.54H44.1203ZM39.5003 12.672C40.0043 10.152 40.2563 7.44533 40.2563 4.552H41.7543C41.7543 7.64133 41.5349 10.348 41.0963 12.672H39.5003ZM39.8783 2.242H42.2443V0.729999H44.0083V2.242H45.3383V3.978H44.0083V5.686L45.1143 6.372V8.486L44.0083 7.8V13.4H42.2443V3.978H39.8783V2.242ZM59.7583 5.574H61.4803L62.5303 9.858H60.8083L59.7583 5.574ZM54.0043 1.696H59.4503L59.3523 3.208C59.2963 4.384 59.147 5.45733 58.9043 6.428C58.6616 7.38933 58.3116 8.29 57.8543 9.13C58.321 9.78333 58.923 10.3993 59.6603 10.978V13.316C58.531 12.476 57.593 11.5847 56.8463 10.642C56.081 11.594 55.1383 12.4853 54.0183 13.316V10.978C54.7556 10.3993 55.3576 9.78333 55.8243 9.13C55.367 8.30867 55.017 7.422 54.7743 6.47C54.541 5.518 54.3916 4.468 54.3263 3.32H54.0043V1.696ZM56.0483 3.32C56.1136 4.84133 56.3796 6.17133 56.8463 7.31C57.3036 6.162 57.565 4.832 57.6303 3.32H56.0483ZM59.7023 2.424H63.5243V0.8H65.3163V2.424H66.5483V4.216H65.3163L65.3023 13.4H62.1383V11.58H63.5243V4.216H59.7023V2.424ZM80.2963 13.26H72.8763V7.73H75.6623V6.022H72.4563V4.342H75.6763V2.704C74.7336 2.74133 73.7816 2.76 72.8203 2.76V1.08C73.9309 1.08 75.2609 1.04733 76.8103 0.981999C78.3689 0.916666 79.5496 0.827999 80.3523 0.715999V2.396C79.6803 2.49867 78.7236 2.578 77.4823 2.634V4.342H80.7163V6.022H77.4683V7.73H80.2963V13.26ZM67.8083 4.79H70.9723V10.698L72.3303 10.236V12.322L69.1383 13.4V6.652H67.8083V4.79ZM70.4123 0.8L71.3783 3.838H69.4743L68.5083 0.8H70.4123ZM78.4763 11.566V9.424H74.6963V11.566H78.4763ZM93.5123 13.344H83.4043V6.974H93.5123V13.344ZM82.1583 4.356H85.2243L84.5243 3.026H82.8583V1.276H87.5343V0.519999H89.3823V1.276H94.0583V3.026H92.3783L91.6783 4.356H94.7583V6.106H82.1583V4.356ZM91.7063 11.692V10.908H85.2103V11.692H91.7063ZM91.7063 9.424V8.626H85.2103V9.424H91.7063ZM87.1843 4.356H89.7183L90.4183 3.026H86.4843L87.1843 4.356ZM96.1583 11.748C96.9796 11.6453 97.6703 11.4587 98.2303 11.188C98.7996 10.908 99.2663 10.544 99.6303 10.096H98.4263V6.218H100.106V9.326C100.433 8.66333 100.638 7.82333 100.722 6.806H102.402C102.281 8.206 101.992 9.368 101.534 10.292C101.077 11.216 100.414 11.944 99.5463 12.476C98.6783 13.008 97.5489 13.3627 96.1583 13.54V11.748ZM96.5923 6.82H98.1043L97.6283 10.054H96.1163L96.5923 6.82ZM96.1583 4.132H96.6063V1.332H98.1883V4.132H98.8043V0.519999H100.498V1.542H102.024V3.222H100.498V4.132H102.248V5.868H96.1583V4.132ZM102.346 0.94H109.024V2.648H106.49L106.308 3.53H108.716V9.942H107.064V5.098H104.208V9.942H102.556V3.53H104.586L104.768 2.648H102.346V0.94ZM102.388 11.832C103.219 11.6827 103.84 11.3653 104.25 10.88C104.661 10.3853 104.866 9.774 104.866 9.046V5.882H106.392V9.144C106.392 9.256 106.383 9.43333 106.364 9.676C107.727 10.3853 108.665 11.6313 109.178 13.414H107.358C107.162 12.49 106.686 11.762 105.93 11.23C105.622 11.8273 105.174 12.322 104.586 12.714C103.998 13.1153 103.266 13.3907 102.388 13.54V11.832ZM112.566 9.704H114.722L112.958 13.848H111.32L112.566 9.704ZM125.074 13.4C125.839 12.252 126.362 11.0807 126.642 9.886H124.248V8.122H126.908C126.945 7.71133 126.964 7.23067 126.964 6.68V6.372H124.542V4.608H126.992V0.8H128.756V4.608H131.206V6.372H128.784V6.68C128.784 7.23067 128.765 7.71133 128.728 8.122H131.5V9.886H128.49C128.247 11.0993 127.85 12.2707 127.3 13.4H125.074ZM125.844 1.164L126.376 3.88H124.892L124.36 1.164H125.844ZM129.904 1.164H131.388L130.856 3.88H129.372L129.904 1.164ZM132.116 1.57H133.824V10.278H132.116V1.57ZM133.096 11.594H134.986V0.8H136.722V13.4H133.096V11.594ZM138.738 0.8H140.418V11.384H144.856V12.868C145.126 12.112 145.313 11.356 145.416 10.6C145.518 9.83467 145.57 8.95733 145.57 7.968V1.08C147.464 1.08 149.266 0.958666 150.974 0.715999V2.508C149.9 2.66667 148.678 2.77867 147.306 2.844V4.706H151.24V6.498H150.232V13.4H148.524V6.498H147.306V7.968C147.306 8.95733 147.245 9.89533 147.124 10.782C147.002 11.6593 146.811 12.532 146.55 13.4H144.66L144.744 13.176H138.738V0.8ZM140.488 10.656C140.768 9.06 140.912 7.59 140.922 6.246H141.93C141.902 7.77667 141.771 9.24667 141.538 10.656H140.488ZM140.656 4.104H142.182V0.8H143.582V4.104H145.108V5.868H143.582V10.908H142.182V5.868H140.656V4.104ZM141.65 0.954L141.902 3.754H140.894L140.656 0.954H141.65ZM144.828 6.246C144.837 7.59 144.982 9.06 145.262 10.656H144.212C143.978 9.24667 143.848 7.77667 143.82 6.246H144.828ZM144.114 0.954H145.108L144.87 3.754H143.862L144.114 0.954ZM164.736 1.192V13.008H153.144V1.192H164.736ZM162.93 11.216V2.984H154.95V11.216H162.93ZM156.07 4.076H161.81V10.124H156.07V4.076ZM160.032 8.346V5.84H157.848V8.346H160.032ZM166.556 13.4C166.929 12.4107 167.186 11.4493 167.326 10.516C167.475 9.57333 167.55 8.49533 167.55 7.282V1.584H172.618V0.519999H174.494V1.584H179.38V3.432H169.398V7.282C169.398 8.43933 169.332 9.51267 169.202 10.502C169.08 11.482 168.87 12.448 168.572 13.4H166.556ZM169.79 11.412H176.216L177.224 4.51H178.932L177.938 11.412H179.52V13.246H169.79V11.412ZM172.002 4.566L172.73 10.404H171.036L170.308 4.566H172.002ZM174.97 4.286L175.698 10.124H174.004L173.276 4.286H174.97ZM184.868 9.438H190.888V8.654H184.868V9.438ZM180.64 9.956C181.657 8.696 182.404 7.46867 182.88 6.274H180.92V4.566H186.212V3.53H182.124V1.794H186.212V0.659999H188.032V1.794H190.496V3.32L191.406 1.15H193.296L191.868 4.566H193.52V6.274H184.84C184.709 6.62867 184.602 6.89467 184.518 7.072H192.68V13.316H183.076V9.704L182.908 9.956H180.64ZM190.888 11.748V10.95H184.868V11.748H190.888ZM189.978 4.566L190.412 3.53H188.032V4.566H189.978ZM196.838 2.102L197.02 0.729999H198.854L198.672 2.102H200.632V5.42C201.266 3.88933 201.621 2.30267 201.696 0.659999H203.572C203.562 1.08933 203.525 1.57 203.46 2.102H207.45V13.4H204.272V11.58H205.644V3.894H203.138C202.96 4.63133 202.741 5.28933 202.48 5.868H200.632V13.204H195.242V2.102H196.838ZM198.882 11.482V8.402H196.992V11.482H198.882ZM198.882 6.722V3.824H196.992V6.722H198.882ZM203.684 6.19L204.566 9.606H202.718L201.836 6.19H203.684ZM217.656 11.636H219.042V9.774H216.438C215.168 11.0713 213.717 12.28 212.084 13.4H209.144C211.225 12.0933 212.868 10.8847 214.072 9.774H209.2V8.29H210.362V1.206H214.366L214.604 0.519999H216.522L216.284 1.206H220.862V13.4H217.656V11.636ZM219.042 8.29V7.38H212.182V8.29H219.042ZM219.042 5.952V5.042H212.182V5.952H219.042ZM219.042 3.614V2.704H212.182V3.614H219.042ZM231.586 11.608H233.056L233.168 7.702H231.012C230.806 9.17667 230.344 10.404 229.626 11.384C228.907 12.3547 227.936 13.0687 226.714 13.526V11.482C228.104 10.8007 228.94 9.54067 229.22 7.702H227.806V6.596C227.404 6.904 226.984 7.17933 226.546 7.422V5.21C227.255 4.74333 227.82 4.132 228.24 3.376C228.669 2.62 228.963 1.76133 229.122 0.8H230.914C230.718 1.92933 230.433 2.90933 230.06 3.74C229.686 4.57067 229.187 5.30333 228.562 5.938H234.064C233.438 5.30333 232.939 4.57067 232.566 3.74C232.192 2.90933 231.908 1.92933 231.712 0.8H233.504C233.662 1.76133 233.952 2.62 234.372 3.376C234.801 4.132 235.37 4.74333 236.08 5.21V7.422C235.641 7.17933 235.272 6.946 234.974 6.722L234.778 13.4H231.586V11.608ZM223.2 5.532C224.254 4.272 224.992 2.69467 225.412 0.8H227.19C226.966 2.19067 226.588 3.44133 226.056 4.552V13.4H224.264V7.282C223.89 7.68333 223.536 8.02867 223.2 8.318V5.532ZM8.59594 34.328H10.0519V27.3H11.8579V34.328H14.3919V25.83H9.02994V24.024H20.7619V25.83H16.1979V28.728H20.2439V30.534H16.1979V34.328H21.1959V36.134H8.59594V34.328ZM35.1819 36.4H33.5019V34.384H32.3539V36.414H30.7859V34.384H29.4139C29.3113 35.028 29.1619 35.7 28.9659 36.4H27.0899C27.6873 34.804 27.9859 33.054 27.9859 31.15L27.9719 27.594C27.7573 27.678 27.5659 27.7433 27.3979 27.79V26.096C28.1819 25.5733 28.8026 24.808 29.2599 23.8H34.5659C34.2206 24.9107 33.8006 25.872 33.3059 26.684H35.1819V36.4ZM22.4559 30.1C22.8106 29.4 23.0953 28.7093 23.3099 28.028C23.5339 27.3373 23.7019 26.6047 23.8139 25.83H22.7359V24.01H27.3699V25.83H25.6059C25.4753 26.8193 25.2886 27.6967 25.0459 28.462H27.2439V35.7H23.2259V30.1H22.4559ZM25.7039 33.95V30.212H24.7659V33.95H25.7039ZM31.3599 26.684C31.6866 26.208 31.9386 25.788 32.1159 25.424H30.3519C30.0626 25.9093 29.7359 26.3293 29.3719 26.684H31.3599ZM30.7859 32.732V31.36H29.6519C29.6519 31.6773 29.6333 32.1347 29.5959 32.732H30.7859ZM30.7859 29.708V28.336H29.6519V29.708H30.7859ZM33.5019 32.732V31.36H32.3539V32.732H33.5019ZM33.5019 29.708V28.336H32.3539V29.708H33.5019ZM41.1179 31.682V34.44H39.3399V31.682H36.5819V29.904H39.3399V27.16H41.1179V29.904H43.8759V31.682H41.1179ZM48.1474 27.874L46.3414 28.63V26.586L48.7494 25.214H50.2194V35H48.1474V27.874ZM60.5352 34.622H62.4672L62.6352 30.73H59.3592C59.0232 32.2513 58.3885 33.4973 57.4552 34.468C56.5218 35.4387 55.3038 36.1013 53.8012 36.456V34.58C54.7998 34.3 55.6118 33.838 56.2372 33.194C56.8718 32.5407 57.3105 31.7193 57.5532 30.73H55.2712V29.19C54.7112 29.582 54.0812 29.918 53.3812 30.198V28.07C54.3145 27.6313 55.0705 27.0527 55.6492 26.334C56.2372 25.6153 56.6805 24.724 56.9792 23.66H58.8692C58.3745 25.9093 57.2918 27.6687 55.6212 28.938H64.0212C62.3505 27.6687 61.2678 25.9093 60.7732 23.66H62.6632C62.9618 24.724 63.4005 25.6153 63.9792 26.334C64.5672 27.0527 65.3278 27.6313 66.2612 28.07V30.198C65.6078 29.918 65.0292 29.6147 64.5252 29.288L64.2592 36.4H60.5352V34.622ZM69.7892 32.704H71.9452L70.1812 36.848H68.5432L69.7892 32.704ZM93.6784 36.288H86.5664V29.834H93.6784V36.288ZM81.3164 28.42C81.8764 26.8893 82.2264 25.3493 82.3664 23.8H84.2984L84.2564 24.15C84.2471 24.2247 84.2377 24.3227 84.2284 24.444C84.2191 24.556 84.2004 24.6913 84.1724 24.85H85.9084V26.586H83.8784C83.8317 26.8007 83.7524 27.1133 83.6404 27.524H85.6984V29.232H84.4524V30.464H85.9784V32.2H84.4524V34.258L85.8664 33.922V35.77L82.6884 36.54V32.2H81.4424V30.464H82.6884V29.232H82.0024V28.42H81.3164ZM85.9924 27.412H87.6444V26.334H86.2864V24.668H87.6444V23.8H89.3944V24.668H90.8644V23.8H92.6004V24.668H93.9724V26.334H92.6004V27.412H94.2664V29.092H85.9924V27.412ZM91.9004 34.692V33.782H88.3584V34.692H91.9004ZM91.9004 32.326V31.43H88.3584V32.326H91.9004ZM90.8644 27.412V26.334H89.3944V27.412H90.8644ZM100.328 24.024H107.622V28.476H100.328V24.024ZM95.5124 27.79H98.4104V33.6L99.3344 33.236V35.322L96.5904 36.4V29.652H95.5124V27.79ZM97.9624 23.8L98.9284 26.838H97.0244L96.0584 23.8H97.9624ZM99.6284 34.776C100.3 34.6267 100.893 34.44 101.406 34.216C101.929 33.992 102.433 33.684 102.918 33.292H99.6564V31.612H103.072V30.814H100.048V29.134H107.902V30.814H104.878V31.612H108.448V33.292H105.06C105.546 33.6747 106.064 33.9827 106.614 34.216C107.165 34.44 107.786 34.6267 108.476 34.776V36.54C107.478 36.3347 106.619 36.078 105.9 35.77C105.191 35.462 104.552 35.0187 103.982 34.44C103.385 35.028 102.75 35.476 102.078 35.784C101.416 36.092 100.599 36.344 99.6284 36.54V34.776ZM105.83 26.894V25.62H102.12V26.894H105.83ZM114.384 29.89V31.514H110.086V29.89H114.384ZM119.192 27.874L117.386 28.63V26.586L119.794 25.214H121.264V35H119.192V27.874ZM131.58 34.622H133.512L133.68 30.73H130.404C130.068 32.2513 129.434 33.4973 128.5 34.468C127.567 35.4387 126.349 36.1013 124.846 36.456V34.58C125.845 34.3 126.657 33.838 127.282 33.194C127.917 32.5407 128.356 31.7193 128.598 30.73H126.316V29.19C125.756 29.582 125.126 29.918 124.426 30.198V28.07C125.36 27.6313 126.116 27.0527 126.694 26.334C127.282 25.6153 127.726 24.724 128.024 23.66H129.914C129.42 25.9093 128.337 27.6687 126.666 28.938H135.066C133.396 27.6687 132.313 25.9093 131.818 23.66H133.708C134.007 24.724 134.446 25.6153 135.024 26.334C135.612 27.0527 136.373 27.6313 137.306 28.07V30.198C136.653 29.918 136.074 29.6147 135.57 29.288L135.304 36.4H131.58V34.622ZM147.792 36.68C147.102 35.6253 146.579 34.594 146.224 33.586C145.87 32.578 145.692 31.5327 145.692 30.45C145.692 29.3673 145.87 28.322 146.224 27.314C146.579 26.306 147.102 25.228 147.792 24.08H149.836C149.174 25.1907 148.674 26.264 148.338 27.3C148.012 28.336 147.848 29.3627 147.848 30.38C147.848 31.3973 148.012 32.424 148.338 33.46C148.674 34.496 149.174 35.5693 149.836 36.68H147.792ZM158.236 29.358C156.864 31.0287 155.021 32.3167 152.706 33.222V31.234C153.985 30.646 155.068 29.932 155.954 29.092C156.841 28.2427 157.574 27.2253 158.152 26.04H153.126V24.262H165.166V26.04H160.168C159.842 26.852 159.45 27.6127 158.992 28.322H160.056V36.4H158.25L158.236 29.358ZM161.022 29.246L165.586 31.206V33.11L161.022 31.15V29.246ZM177.514 36.4C177.001 35.3453 176.618 34.2907 176.366 33.236C176.114 32.1813 175.97 31.0567 175.932 29.862H173.118V34.608H174.042V36.4H171.326V24.08C174.108 24.08 176.758 23.9587 179.278 23.716V25.508C178.905 25.5453 178.382 25.592 177.71 25.648V28.07H179.754V29.862H177.724C177.762 31.0473 177.934 32.172 178.242 33.236C178.55 34.3 179.045 35.3547 179.726 36.4H177.514ZM166.846 28.434C167.929 27.1927 168.685 25.648 169.114 23.8H170.948C170.734 25.0227 170.416 26.1147 169.996 27.076V36.414H168.19V29.988C167.77 30.4827 167.322 30.926 166.846 31.318V28.434ZM175.918 28.07V25.76C175.097 25.8067 174.164 25.8393 173.118 25.858V28.07H175.918ZM175.624 32.606L176.436 36.4H174.77L173.958 32.606H175.624ZM184.43 34.58H186.88V30.548H181.126V28.714H186.88V25.886H181.924V24.052H192.928V25.886H188.812V28.714H193.726V30.548H188.812V36.4H184.43V34.58ZM198.696 35.182C196.354 35.182 195.182 33.488 195.182 30.1C195.182 26.712 196.354 25.018 198.696 25.018C201.039 25.018 202.21 26.712 202.21 30.1C202.21 33.488 201.039 35.182 198.696 35.182ZM197.24 30.1C197.24 31.192 197.352 31.9947 197.576 32.508C197.81 33.0213 198.183 33.278 198.696 33.278C199.21 33.278 199.578 33.0213 199.802 32.508C200.036 31.9947 200.152 31.192 200.152 30.1C200.152 29.0173 200.036 28.2193 199.802 27.706C199.578 27.1927 199.21 26.936 198.696 26.936C198.183 26.936 197.81 27.1927 197.576 27.706C197.352 28.2193 197.24 29.0173 197.24 30.1ZM210.678 34.622H212.61L212.778 30.73H209.502C209.166 32.2513 208.531 33.4973 207.598 34.468C206.665 35.4387 205.447 36.1013 203.944 36.456V34.58C204.943 34.3 205.755 33.838 206.38 33.194C207.015 32.5407 207.453 31.7193 207.696 30.73H205.414V29.19C204.854 29.582 204.224 29.918 203.524 30.198V28.07C204.457 27.6313 205.213 27.0527 205.792 26.334C206.38 25.6153 206.823 24.724 207.122 23.66H209.012C208.517 25.9093 207.435 27.6687 205.764 28.938H214.164C212.493 27.6687 211.411 25.9093 210.916 23.66H212.806C213.105 24.724 213.543 25.6153 214.122 26.334C214.71 27.0527 215.471 27.6313 216.404 28.07V30.198C215.751 29.918 215.172 29.6147 214.668 29.288L214.402 36.4H210.678V34.622ZM219.274 36.68C219.937 35.5693 220.431 34.496 220.758 33.46C221.094 32.424 221.262 31.3973 221.262 30.38C221.262 29.3627 221.094 28.336 220.758 27.3C220.431 26.264 219.937 25.1907 219.274 24.08H221.318C222.009 25.228 222.531 26.306 222.886 27.314C223.241 28.322 223.418 29.3673 223.418 30.45C223.418 31.5327 223.241 32.578 222.886 33.586C222.531 34.594 222.009 35.6253 221.318 36.68H219.274ZM7.35737 51.868L6.86737 52.246C6.83004 53.9073 6.64337 55.4847 6.30737 56.978C6.58737 57.2113 6.89537 57.3793 7.23137 57.482C7.57671 57.5847 7.98737 57.636 8.46337 57.636H12.9294V59.288H8.46337C7.87537 59.288 7.38071 59.232 6.97937 59.12C6.57804 59.0173 6.21871 58.84 5.90137 58.588C5.87337 58.6907 5.79404 58.9613 5.66337 59.4H3.87137C4.31004 58.1773 4.63204 57.0433 4.83737 55.998C5.04271 54.9527 5.16871 53.8233 5.21537 52.61H4.31937V50.79H6.39137C6.99804 50.314 7.47871 49.7167 7.83337 48.998H6.89537V47.43H8.37937C8.41671 47.2527 8.46337 47.0007 8.51937 46.674H10.0174C9.98937 46.926 9.94737 47.178 9.89137 47.43H12.7894V48.998H9.41537C9.30337 49.2593 9.17737 49.5253 9.03737 49.796H12.5094V57.244H10.8294V55.914H9.03737V57.244H7.35737V51.868ZM0.399372 46.94H4.40337V48.508C4.40337 49.74 4.15604 50.9207 3.66137 52.05C4.22137 52.8993 4.50137 53.898 4.50137 55.046C4.50137 56.1007 4.24937 57.0293 3.74537 57.832H1.98137V59.4H0.399372V46.94ZM1.98137 57.776C2.33604 57.3187 2.59737 56.8707 2.76537 56.432C2.93337 55.984 3.01737 55.522 3.01737 55.046C3.01737 54.094 2.67204 53.1793 1.98137 52.302V57.776ZM1.98137 52.162C2.53204 51.0513 2.83071 49.908 2.87737 48.732H1.98137V52.162ZM6.30737 46.8L6.72737 49.838H5.15937L4.73937 46.8H6.30737ZM10.8294 54.514V53.618H9.03737V54.514H10.8294ZM10.8294 52.218V51.322H9.03737V52.218H10.8294ZM26.4254 53.212V59.358H17.8294V53.212H26.4254ZM14.1474 59.134C14.754 58.098 15.1787 57.0807 15.4214 56.082C15.664 55.074 15.7807 53.94 15.7714 52.68H14.3294V51.196H19.7054V50.58H15.2674V49.222H19.7054V48.606H14.6794V47.164H16.8914L16.6954 46.52H18.5434L18.7394 47.164H22.5194L22.7154 46.52H24.5634L24.3674 47.164H26.5794V48.606H21.5534V49.222H25.9914V50.58H21.5534V51.196H26.9294V52.68H17.5354C17.526 53.912 17.4234 55.046 17.2274 56.082C17.0407 57.1087 16.7234 58.126 16.2754 59.134H14.1474ZM24.6474 58.14V57.622H19.6074V58.14H24.6474ZM24.6474 56.544V56.068H19.6074V56.544H24.6474ZM24.6474 54.976V54.472H19.6074V54.976H24.6474ZM34.3494 59.26C33.4907 59.26 32.7767 59.2087 32.2074 59.106C31.638 59.0127 31.1247 58.8493 30.6674 58.616C30.602 58.84 30.5554 58.9847 30.5274 59.05C30.4807 59.2273 30.448 59.344 30.4294 59.4H28.4974C28.936 58.1773 29.258 57.0433 29.4634 55.998C29.6687 54.9527 29.7947 53.8233 29.8414 52.61H28.1894V50.79H31.6614C31.6614 51.994 31.6194 53.072 31.5354 54.024C31.4514 54.976 31.3067 55.9233 31.1014 56.866C31.5214 57.0993 31.9834 57.2673 32.4874 57.37C33.0007 57.4633 33.6214 57.51 34.3494 57.51H41.2094V59.26H34.3494ZM30.6534 46.8L31.6194 49.838H29.7294L28.7634 46.8H30.6534ZM32.2914 54.108H35.9874V53.002H32.6694V51.322H33.2574L34.0974 49.222H32.5574V47.514H34.7834L35.0914 46.73H36.9954L36.6874 47.514H40.7614V49.222H36.0014L35.1614 51.322H35.9874V49.768H37.7794V51.322H40.4674V53.002H37.7794V54.108H41.0274V55.816H37.7794V57.174H35.9874V55.816H32.2914V54.108ZM43.0294 54.206H44.9054V57.44H48.0134V53.394H42.3294V51.616H48.0134V49.474H43.0294V47.696H48.0134V46.59H49.8054V47.696H54.7894V49.474H49.8054V51.616H55.4894V53.394H49.8054V57.44H52.9134V54.206H54.7894V59.232H43.0294V54.206ZM62.6294 59.26C61.752 59.26 61.024 59.2087 60.4454 59.106C59.8667 59.0033 59.344 58.8307 58.8774 58.588C58.8494 58.6907 58.77 58.9613 58.6394 59.4H56.6794C57.146 58.1867 57.482 57.0573 57.6874 56.012C57.902 54.9667 58.0327 53.8327 58.0794 52.61H56.4694V50.79H59.8714C59.8714 51.9753 59.8294 53.044 59.7454 53.996C59.6614 54.9387 59.5214 55.8813 59.3254 56.824C59.736 57.076 60.198 57.2533 60.7114 57.356C61.234 57.4587 61.8734 57.51 62.6294 57.51H69.4894V59.26H62.6294ZM58.9334 46.8L59.8994 49.838H58.0094L57.0434 46.8H58.9334ZM60.2214 55.2C61.1454 54.92 61.7334 54.332 61.9854 53.436H60.3054L60.6134 49.698H63.9874V48.914H60.2214V47.402H62.1254L61.8594 46.59H63.4974L63.7634 47.402H65.6814L65.9474 46.59H67.5854L67.3194 47.402H68.8174V51.182H65.6674V51.924H69.2514L68.9574 56.278H66.5494V54.654H67.4454L67.5434 53.436H65.6674V56.922H63.9874V53.436H63.5114C63.2594 55.2373 62.1627 56.4087 60.2214 56.95V55.2ZM63.9874 51.924V51.182H62.1814L62.1114 51.924H63.9874ZM67.2354 49.698V48.914H65.6674V49.698H67.2354ZM70.8754 56.152L72.2194 55.9V51.392H70.9454V49.516H72.2194V46.8H73.9834V49.516H75.1874V51.392H73.9834V55.55L75.2574 55.312V57.258L70.8754 58.098V56.152ZM75.5234 47.836H76.7554L76.3214 46.8H78.1834L78.6174 47.836H80.4654L80.8994 46.8H82.7474L82.3134 47.836H83.3914V53.24H75.5234V47.836ZM75.8454 53.828H83.0834V59.26H75.8454V53.828ZM78.8274 51.826V49.25H77.1474V51.826H78.8274ZM78.2534 49.586L78.6874 51.49H77.7214L77.2874 49.586H78.2534ZM81.2774 57.958V57.146H77.6514V57.958H81.2774ZM81.2774 55.928V55.13H77.6514V55.928H81.2774ZM81.7674 51.826V49.25H80.1014V51.826H81.7674ZM80.6754 49.586H81.6274L81.1934 51.49H80.2274L80.6754 49.586ZM92.3374 47.892H97.4334V58.952H92.3374V47.892ZM84.9594 59.4C85.5847 58.224 86.014 57.0713 86.2474 55.942C86.4807 54.8127 86.5974 53.548 86.5974 52.148V50.622H85.4354V48.802H86.5974V46.66H88.4174V48.802H91.3714V59.4H88.4454V57.65H89.6214V50.622H88.3334V52.148C88.3334 53.4827 88.226 54.738 88.0114 55.914C87.7967 57.09 87.442 58.252 86.9474 59.4H84.9594ZM95.7114 57.16V49.684H94.0594V57.16H95.7114ZM106.183 57.622H108.115L108.283 53.73H105.007C104.671 55.2513 104.037 56.4973 103.103 57.468C102.17 58.4387 100.952 59.1013 99.4494 59.456V57.58C100.448 57.3 101.26 56.838 101.885 56.194C102.52 55.5407 102.959 54.7193 103.201 53.73H100.919V52.19C100.359 52.582 99.7294 52.918 99.0294 53.198V51.07C99.9627 50.6313 100.719 50.0527 101.297 49.334C101.885 48.6153 102.329 47.724 102.627 46.66H104.517C104.023 48.9093 102.94 50.6687 101.269 51.938H109.669C107.999 50.6687 106.916 48.9093 106.421 46.66H108.311C108.61 47.724 109.049 48.6153 109.627 49.334C110.215 50.0527 110.976 50.6313 111.909 51.07V53.198C111.256 52.918 110.677 52.6147 110.173 52.288L109.907 59.4H106.183V57.622ZM115.437 55.704H117.593L115.829 59.848H114.191L115.437 55.704ZM133.111 59.26C132.252 59.26 131.538 59.2087 130.969 59.106C130.399 59.0127 129.886 58.8493 129.429 58.616C129.363 58.84 129.317 58.9847 129.289 59.05C129.242 59.2273 129.209 59.344 129.191 59.4H127.259C127.697 58.1773 128.019 57.0433 128.225 55.998C128.43 54.9527 128.556 53.8233 128.603 52.61H126.951V50.79H130.423C130.423 51.994 130.381 53.072 130.297 54.024C130.213 54.976 130.068 55.9233 129.863 56.866C130.283 57.0993 130.745 57.2673 131.249 57.37C131.762 57.4633 132.383 57.51 133.111 57.51H139.971V59.26H133.111ZM129.415 46.8L130.381 49.838H128.491L127.525 46.8H129.415ZM131.053 54.108H134.749V53.002H131.431V51.322H132.019L132.859 49.222H131.319V47.514H133.545L133.853 46.73H135.757L135.449 47.514H139.523V49.222H134.763L133.923 51.322H134.749V49.768H136.541V51.322H139.229V53.002H136.541V54.108H139.789V55.816H136.541V57.174H134.749V55.816H131.053V54.108ZM141.791 54.206H143.667V57.44H146.775V53.394H141.091V51.616H146.775V49.474H141.791V47.696H146.775V46.59H148.567V47.696H153.551V49.474H148.567V51.616H154.251V53.394H148.567V57.44H151.675V54.206H153.551V59.232H141.791V54.206ZM163.449 50.16V56.88H156.673V50.16H163.449ZM155.399 47.15H168.223V48.956H167.033V59.428H163.141V57.622H165.227V48.956H155.399V47.15ZM161.657 55.088V51.966H158.465V55.088H161.657ZM175.251 59.26C174.513 59.26 173.883 59.2087 173.361 59.106C172.838 59.0127 172.367 58.854 171.947 58.63C171.928 58.7047 171.835 58.9613 171.667 59.4H169.511C170.015 58.4013 170.388 57.4727 170.631 56.614C170.873 55.746 171.027 54.822 171.093 53.842H169.637V52.05H170.113L170.897 48.83H169.637V47.038H173.123L171.905 52.05H172.969C172.969 53.03 172.927 53.9027 172.843 54.668C172.768 55.4333 172.637 56.1893 172.451 56.936C172.815 57.16 173.221 57.3187 173.669 57.412C174.117 57.5053 174.644 57.552 175.251 57.552H182.391V59.26H175.251ZM173.739 47.122C176.371 47.122 179.031 46.9727 181.719 46.674V48.438C180.879 48.5407 179.917 48.6293 178.835 48.704V50.664H182.097V52.428H178.835V54.724H181.915V56.488H173.879V50.104H175.643V54.724H177.029V48.816C175.797 48.8627 174.7 48.886 173.739 48.886V47.122ZM185.233 52.722L183.623 51.812L185.513 46.8H187.235L185.709 50.804L186.185 51.084L186.843 49.306H188.481L186.633 54.29H187.921V56.096H183.987L185.233 52.722ZM183.777 57.51L187.991 57.048V58.854L183.777 59.316V57.51ZM188.481 54.808H192.359V51.126H194.123V54.808H196.517V56.418H193.801L193.717 56.6L196.391 57.776V59.47L192.709 57.846C192.195 58.2753 191.575 58.63 190.847 58.91C190.119 59.1993 189.335 59.3953 188.495 59.498V57.902C189.241 57.762 189.899 57.5753 190.469 57.342C191.038 57.1087 191.486 56.8007 191.813 56.418H188.481V54.808ZM188.621 49.292H191.603V48.55H189.055V47.122H191.603V46.66H193.395V47.122H195.943V48.55H193.395V49.292H196.237V52.106H194.655V50.86H188.621V49.292ZM188.719 52.862L191.323 53.142V54.416L188.719 54.136V52.862ZM189.307 51.21L191.897 51.49V52.764L189.307 52.484V51.21ZM197.861 57.44H203.307V55.914H198.533V54.136H203.307V52.778H198.449V51.014H199.625L201.151 48.746H198.071V46.996H210.391V48.746H203.461L201.935 51.014H207.353L206.555 49.348H208.599L210.251 52.778H205.155V54.136H209.929V55.914H205.155V57.44H210.601V59.232H197.861V57.44ZM216.607 49.096H211.931V47.192H224.811V49.096H218.539V59.4H216.607V49.096ZM221.493 50.902L224.041 56.88H222.053L219.505 50.902H221.493ZM232.833 51.406C232.366 51.854 231.927 52.2133 231.517 52.484V53.954H230.425V55.494L231.825 55.242V56.852L230.425 57.104V59.4H228.633V57.412L226.071 57.86V56.25L228.633 55.802V53.954H226.043L227.191 49.334H226.211V47.794H227.569L227.821 46.8H229.683L229.445 47.794H231.517V49.334H228.927L228.185 52.414H228.829V50.3H230.425V52.414H231.293V50.37C231.797 49.922 232.287 49.3853 232.763 48.76C233.239 48.1253 233.607 47.472 233.869 46.8H236.515C236.767 47.3973 237.112 48.018 237.551 48.662C237.999 49.306 238.512 49.8753 239.091 50.37V52.638C238.447 52.2087 237.798 51.644 237.145 50.944C236.491 50.244 235.936 49.4693 235.479 48.62H234.877C234.307 49.684 233.635 50.6033 232.861 51.378H234.653V53.366C235.81 53.17 236.925 52.7267 237.999 52.036V53.842C237.644 54.0847 237.173 54.3227 236.585 54.556C236.006 54.7893 235.362 54.976 234.653 55.116V57.44H238.951V59.26H232.833V51.406Z" fill="#919191"/>
</svg>
