<svg width="311" height="58" viewBox="0 0 311 58" fill="none" xmlns="http://www.w3.org/2000/svg">
<path d="M20.3445 10.986C20.4285 10.9953 20.5498 11 20.7085 11C21.0818 11 21.3665 10.93 21.5625 10.79C21.7678 10.6407 21.9078 10.4213 21.9825 10.132C22.0572 9.84267 22.0945 9.45067 22.0945 8.956V1.2H24.4045V9.46C24.4045 11.9053 23.0512 13.0813 20.3445 12.988V10.986ZM31.3496 11.014C31.2003 10.734 31.1116 10.4353 31.0836 10.118C30.7383 10.426 30.3229 10.6827 29.8376 10.888C29.3616 11.084 28.8903 11.182 28.4236 11.182C27.7049 11.182 27.1309 10.972 26.7016 10.552C26.2816 10.132 26.0716 9.59067 26.0716 8.928V3.44H28.3116V8.55C28.3116 8.82067 28.4003 9.04467 28.5776 9.222C28.7643 9.39 29.0069 9.474 29.3056 9.474C29.5016 9.474 29.7629 9.404 30.0896 9.264C30.4256 9.124 30.7056 8.97 30.9296 8.802V3.44H33.1696V9.558C33.1696 9.866 33.1883 10.1273 33.2256 10.342C33.2629 10.5473 33.3376 10.7713 33.4496 11.014H31.3496ZM37.8798 11.182C37.1892 11.182 36.5825 11.0187 36.0598 10.692C35.5372 10.356 35.1358 9.88933 34.8558 9.292C34.5758 8.69467 34.4358 8.01333 34.4358 7.248C34.4358 6.47333 34.5758 5.78733 34.8558 5.19C35.1452 4.58333 35.5465 4.112 36.0598 3.776C36.5825 3.44 37.1892 3.272 37.8798 3.272C38.1972 3.272 38.5145 3.328 38.8318 3.44C39.1585 3.552 39.4618 3.71533 39.7418 3.93V0.233999H41.9818V9.25C41.9818 9.99667 42.0752 10.58 42.2618 11H40.1618C40.0965 10.8693 40.0405 10.7013 39.9938 10.496C39.4058 10.9533 38.7012 11.182 37.8798 11.182ZM36.5778 7.248C36.5778 7.67733 36.6618 8.06933 36.8298 8.424C37.0072 8.77867 37.2358 9.06333 37.5158 9.278C37.8052 9.48333 38.1085 9.586 38.4258 9.586C38.6778 9.586 38.9532 9.52533 39.2518 9.404C39.5598 9.28267 39.8118 9.03067 40.0078 8.648V5.834C39.8118 5.442 39.5598 5.18533 39.2518 5.064C38.9532 4.94267 38.6778 4.882 38.4258 4.882C38.1085 4.882 37.8052 4.98467 37.5158 5.19C37.2358 5.39533 37.0072 5.68 36.8298 6.044C36.6618 6.408 36.5778 6.80933 36.5778 7.248ZM46.8558 14.192C46.2865 14.192 45.7125 14.1547 45.1338 14.08C44.5645 14.0053 44.0511 13.898 43.5938 13.758V11.924C44.5925 12.148 45.5911 12.26 46.5898 12.26C47.2245 12.26 47.7051 12.12 48.0318 11.84C48.3585 11.56 48.5218 11.1727 48.5218 10.678C48.0085 11.014 47.3971 11.182 46.6878 11.182C45.9971 11.182 45.3905 11.014 44.8678 10.678C44.3451 10.342 43.9438 9.88 43.6638 9.292C43.3838 8.69467 43.2438 8.00867 43.2438 7.234C43.2438 6.45933 43.3838 5.77333 43.6638 5.176C43.9531 4.56933 44.3545 4.098 44.8678 3.762C45.3905 3.426 45.9971 3.258 46.6878 3.258C47.3318 3.258 47.9431 3.47267 48.5218 3.902V3.44H50.7058V10.972C50.7058 13.1187 49.4225 14.192 46.8558 14.192ZM45.3858 7.234C45.3858 7.66333 45.4698 8.05533 45.6378 8.41C45.8151 8.76467 46.0438 9.04933 46.3238 9.264C46.6131 9.46933 46.9165 9.572 47.2338 9.572C47.4671 9.572 47.7285 9.52067 48.0178 9.418C48.3071 9.306 48.5545 9.07733 48.7598 8.732L48.8298 8.452V5.862C48.6338 5.46067 48.3818 5.19933 48.0738 5.078C47.7658 4.94733 47.4858 4.882 47.2338 4.882C46.9165 4.882 46.6131 4.98467 46.3238 5.19C46.0438 5.39533 45.8151 5.68 45.6378 6.044C45.4698 6.39867 45.3858 6.79533 45.3858 7.234ZM59.1237 10.594C58.7691 10.8087 58.3537 10.9673 57.8777 11.07C57.4111 11.1727 56.9584 11.224 56.5197 11.224C55.0264 11.224 53.8924 10.8693 53.1177 10.16C52.3524 9.45067 51.9697 8.45667 51.9697 7.178C51.9697 5.90867 52.3104 4.938 52.9917 4.266C53.6824 3.58467 54.6204 3.244 55.8057 3.244C56.9817 3.244 57.9104 3.58467 58.5917 4.266C59.2824 4.938 59.6277 5.90867 59.6277 7.178C59.6277 7.318 59.6184 7.51867 59.5997 7.78H54.1537C54.3591 8.984 55.1477 9.586 56.5197 9.586C57.4811 9.586 58.3491 9.30133 59.1237 8.732V10.594ZM57.5137 6.212C57.3924 5.74533 57.1824 5.4 56.8837 5.176C56.5851 4.952 56.2257 4.84 55.8057 4.84C55.4137 4.84 55.0777 4.95667 54.7977 5.19C54.5271 5.42333 54.3357 5.764 54.2237 6.212H57.5137ZM70.6064 8.228H67.4704L66.7284 11H64.2784L67.1204 1.2H70.9704L73.8124 11H71.3484L70.6064 8.228ZM70.1584 6.548L69.0524 2.446H69.0244L67.9184 6.548H70.1584ZM75.1369 1.2H77.4469V11H75.1369V1.2ZM85.3678 3.44V11H83.1278V3.44H85.3678ZM83.1278 0.233999H85.3678V2.474H83.1278V0.233999ZM90.2557 11.182C89.565 11.182 88.9584 11.0187 88.4357 10.692C87.913 10.356 87.5117 9.88933 87.2317 9.292C86.9517 8.69467 86.8117 8.01333 86.8117 7.248C86.8117 6.47333 86.9517 5.78733 87.2317 5.19C87.521 4.58333 87.9224 4.112 88.4357 3.776C88.9584 3.44 89.565 3.272 90.2557 3.272C90.573 3.272 90.8904 3.328 91.2077 3.44C91.5344 3.552 91.8377 3.71533 92.1177 3.93V0.233999H94.3577V9.25C94.3577 9.99667 94.451 10.58 94.6377 11H92.5377C92.4724 10.8693 92.4164 10.7013 92.3697 10.496C91.7817 10.9533 91.077 11.182 90.2557 11.182ZM88.9537 7.248C88.9537 7.67733 89.0377 8.06933 89.2057 8.424C89.383 8.77867 89.6117 9.06333 89.8917 9.278C90.181 9.48333 90.4844 9.586 90.8017 9.586C91.0537 9.586 91.329 9.52533 91.6277 9.404C91.9357 9.28267 92.1877 9.03067 92.3837 8.648V5.834C92.1877 5.442 91.9357 5.18533 91.6277 5.064C91.329 4.94267 91.0537 4.882 90.8017 4.882C90.4844 4.882 90.181 4.98467 89.8917 5.19C89.6117 5.39533 89.383 5.68 89.2057 6.044C89.0377 6.408 88.9537 6.80933 88.9537 7.248ZM102.774 10.594C102.419 10.8087 102.004 10.9673 101.528 11.07C101.061 11.1727 100.608 11.224 100.17 11.224C98.6763 11.224 97.5423 10.8693 96.7677 10.16C96.0023 9.45067 95.6197 8.45667 95.6197 7.178C95.6197 5.90867 95.9603 4.938 96.6417 4.266C97.3323 3.58467 98.2703 3.244 99.4557 3.244C100.632 3.244 101.56 3.58467 102.242 4.266C102.932 4.938 103.278 5.90867 103.278 7.178C103.278 7.318 103.268 7.51867 103.25 7.78H97.8037C98.009 8.984 98.7977 9.586 100.17 9.586C101.131 9.586 101.999 9.30133 102.774 8.732V10.594ZM101.164 6.212C101.042 5.74533 100.832 5.4 100.534 5.176C100.235 4.952 99.8757 4.84 99.4557 4.84C99.0637 4.84 98.7277 4.95667 98.4477 5.19C98.177 5.42333 97.9857 5.764 97.8737 6.212H101.164ZM106.784 3.412V4.322C107.129 4.02333 107.521 3.79 107.96 3.622C108.408 3.454 108.851 3.37 109.29 3.37C110.008 3.37 110.578 3.58 110.998 4C111.427 4.42 111.642 4.966 111.642 5.638V10.972H109.402V6.016C109.402 5.74533 109.29 5.526 109.066 5.358C108.842 5.18067 108.576 5.092 108.268 5.092C108.072 5.092 107.824 5.15733 107.526 5.288C107.236 5.41867 106.989 5.57733 106.784 5.764V10.972H104.544V3.412H106.784ZM113.775 3.44V1.284H115.875V3.44H117.331V5.148H115.875V8.396C115.875 8.66667 115.894 8.872 115.931 9.012C115.978 9.152 116.057 9.25 116.169 9.306C116.281 9.35267 116.445 9.376 116.659 9.376C116.799 9.376 116.916 9.37133 117.009 9.362C117.112 9.35267 117.201 9.33867 117.275 9.32V11.042C116.883 11.0887 116.519 11.112 116.183 11.112C115.539 11.112 115.059 11.0467 114.741 10.916C114.424 10.7853 114.181 10.5613 114.013 10.244C113.855 9.91733 113.775 9.45533 113.775 8.858V5.148H112.683V3.44H113.775ZM120.876 3.44V11H118.636V3.44H120.876ZM118.636 0.233999H120.876V2.474H118.636V0.233999ZM123.188 3.44V1.284H125.288V3.44H126.744V5.148H125.288V8.396C125.288 8.66667 125.307 8.872 125.344 9.012C125.391 9.152 125.47 9.25 125.582 9.306C125.694 9.35267 125.858 9.376 126.072 9.376C126.212 9.376 126.329 9.37133 126.422 9.362C126.525 9.35267 126.614 9.33867 126.688 9.32V11.042C126.296 11.0887 125.932 11.112 125.596 11.112C124.952 11.112 124.472 11.0467 124.154 10.916C123.837 10.7853 123.594 10.5613 123.426 10.244C123.268 9.91733 123.188 9.45533 123.188 8.858V5.148H122.096V3.44H123.188ZM130.289 3.44V11H128.049V3.44H130.289ZM128.049 0.233999H130.289V2.474H128.049V0.233999ZM138.887 10.594C138.532 10.8087 138.117 10.9673 137.641 11.07C137.174 11.1727 136.722 11.224 136.283 11.224C134.79 11.224 133.656 10.8693 132.881 10.16C132.116 9.45067 131.733 8.45667 131.733 7.178C131.733 5.90867 132.074 4.938 132.755 4.266C133.446 3.58467 134.384 3.244 135.569 3.244C136.745 3.244 137.674 3.58467 138.355 4.266C139.046 4.938 139.391 5.90867 139.391 7.178C139.391 7.318 139.382 7.51867 139.363 7.78H133.917C134.122 8.984 134.911 9.586 136.283 9.586C137.244 9.586 138.112 9.30133 138.887 8.732V10.594ZM137.277 6.212C137.156 5.74533 136.946 5.4 136.647 5.176C136.348 4.952 135.989 4.84 135.569 4.84C135.177 4.84 134.841 4.95667 134.561 5.19C134.29 5.42333 134.099 5.764 133.987 6.212H137.277ZM143.695 11.168C143.126 11.196 142.547 11.1493 141.959 11.028C141.38 10.916 140.876 10.7387 140.447 10.496V8.48C140.83 8.76 141.287 8.99333 141.819 9.18C142.36 9.35733 142.836 9.432 143.247 9.404C143.536 9.38533 143.746 9.32467 143.877 9.222C144.008 9.11 144.082 8.998 144.101 8.886C144.148 8.59667 144.078 8.37733 143.891 8.228C143.704 8.07867 143.354 7.934 142.841 7.794C142.272 7.63533 141.819 7.45333 141.483 7.248C141.147 7.03333 140.89 6.79533 140.713 6.534C140.545 6.26333 140.461 5.92267 140.461 5.512C140.461 5.08267 140.573 4.7 140.797 4.364C141.021 4.01867 141.376 3.748 141.861 3.552C142.346 3.356 142.869 3.258 143.429 3.258C143.849 3.258 144.274 3.3 144.703 3.384C145.132 3.45867 145.492 3.56133 145.781 3.692V5.498C145.482 5.34867 145.128 5.218 144.717 5.106C144.316 4.98467 143.966 4.924 143.667 4.924C143.032 4.924 142.687 5.092 142.631 5.428C142.603 5.624 142.692 5.79667 142.897 5.946C143.112 6.09533 143.415 6.23067 143.807 6.352C144.367 6.52933 144.824 6.71133 145.179 6.898C145.543 7.08467 145.828 7.32733 146.033 7.626C146.238 7.92467 146.341 8.30733 146.341 8.774C146.341 9.46467 146.094 10.0293 145.599 10.468C145.104 10.8973 144.47 11.1307 143.695 11.168ZM153.695 3.44V11H151.455V3.44H153.695ZM151.455 0.233999H153.695V2.474H151.455V0.233999ZM157.659 3.412V4.322C158.004 4.02333 158.396 3.79 158.835 3.622C159.283 3.454 159.726 3.37 160.165 3.37C160.883 3.37 161.453 3.58 161.873 4C162.302 4.42 162.517 4.966 162.517 5.638V10.972H160.277V6.016C160.277 5.74533 160.165 5.526 159.941 5.358C159.717 5.18067 159.451 5.092 159.143 5.092C158.947 5.092 158.699 5.15733 158.401 5.288C158.111 5.41867 157.864 5.57733 157.659 5.764V10.972H155.419V3.412H157.659ZM171.045 11.182C169.972 11.182 168.973 11.0233 168.049 10.706V8.816C168.955 9.21733 169.832 9.418 170.681 9.418C171.288 9.418 171.759 9.25933 172.095 8.942C172.431 8.61533 172.599 8.20467 172.599 7.71C172.599 7.206 172.422 6.79533 172.067 6.478C171.713 6.16067 171.26 6.002 170.709 6.002C170.019 6.002 169.249 6.17933 168.399 6.534L168.539 1.2H174.097V2.88H170.429L170.373 4.854C170.756 4.80733 171.162 4.784 171.591 4.784C172.189 4.784 172.711 4.91 173.159 5.162C173.617 5.40467 173.967 5.75467 174.209 6.212C174.461 6.66933 174.587 7.20133 174.587 7.808C174.587 8.48933 174.438 9.08667 174.139 9.6C173.85 10.104 173.439 10.496 172.907 10.776C172.375 11.0467 171.755 11.182 171.045 11.182ZM183.178 11.182C182.487 11.182 181.881 11.0187 181.358 10.692C180.835 10.356 180.434 9.88933 180.154 9.292C179.874 8.69467 179.734 8.01333 179.734 7.248C179.734 6.47333 179.874 5.78733 180.154 5.19C180.443 4.58333 180.845 4.112 181.358 3.776C181.881 3.44 182.487 3.272 183.178 3.272C183.495 3.272 183.813 3.328 184.13 3.44C184.457 3.552 184.76 3.71533 185.04 3.93V0.233999H187.28V9.25C187.28 9.99667 187.373 10.58 187.56 11H185.46C185.395 10.8693 185.339 10.7013 185.292 10.496C184.704 10.9533 183.999 11.182 183.178 11.182ZM181.876 7.248C181.876 7.67733 181.96 8.06933 182.128 8.424C182.305 8.77867 182.534 9.06333 182.814 9.278C183.103 9.48333 183.407 9.586 183.724 9.586C183.976 9.586 184.251 9.52533 184.55 9.404C184.858 9.28267 185.11 9.03067 185.306 8.648V5.834C185.11 5.442 184.858 5.18533 184.55 5.064C184.251 4.94267 183.976 4.882 183.724 4.882C183.407 4.882 183.103 4.98467 182.814 5.19C182.534 5.39533 182.305 5.68 182.128 6.044C181.96 6.408 181.876 6.80933 181.876 7.248ZM191.244 3.44V11H189.004V3.44H191.244ZM189.004 0.233999H191.244V2.474H189.004V0.233999ZM196.188 11.182C195.478 11.182 194.858 11.014 194.326 10.678C193.803 10.342 193.397 9.88 193.108 9.292C192.828 8.704 192.688 8.018 192.688 7.234C192.688 6.45933 192.828 5.77333 193.108 5.176C193.397 4.56933 193.798 4.098 194.312 3.762C194.834 3.426 195.441 3.258 196.132 3.258C196.449 3.258 196.766 3.31867 197.084 3.44C197.41 3.552 197.714 3.71067 197.994 3.916V3.44H200.234V9.236C200.234 9.992 200.327 10.58 200.514 11H198.414C198.348 10.8693 198.292 10.7013 198.246 10.496C197.667 10.9533 196.981 11.182 196.188 11.182ZM194.83 7.234C194.83 7.66333 194.914 8.05533 195.082 8.41C195.259 8.76467 195.488 9.04933 195.768 9.264C196.057 9.46933 196.36 9.572 196.678 9.572C196.902 9.572 197.154 9.52533 197.434 9.432C197.714 9.32933 197.956 9.11467 198.162 8.788V5.652C197.956 5.32533 197.714 5.11533 197.434 5.022C197.163 4.92867 196.911 4.882 196.678 4.882C196.36 4.882 196.057 4.98467 195.768 5.19C195.488 5.39533 195.259 5.68 195.082 6.044C194.914 6.39867 194.83 6.79533 194.83 7.234ZM204.324 11.112C203.484 11.112 202.849 10.8787 202.42 10.412C201.99 9.936 201.776 9.24067 201.776 8.326V0.233999H204.016V7.766C204.016 8.13933 204.044 8.424 204.1 8.62C204.156 8.816 204.249 8.96533 204.38 9.068C204.482 9.152 204.594 9.208 204.716 9.236C204.846 9.25467 205.07 9.264 205.388 9.264V11.112H204.324ZM210.069 11.182C209.275 11.182 208.575 11.0187 207.969 10.692C207.371 10.3653 206.909 9.90333 206.583 9.306C206.256 8.69933 206.093 7.98533 206.093 7.164C206.093 5.904 206.447 4.938 207.157 4.266C207.866 3.594 208.837 3.258 210.069 3.258C211.291 3.258 212.257 3.594 212.967 4.266C213.676 4.938 214.031 5.904 214.031 7.164C214.031 7.98533 213.867 8.69933 213.541 9.306C213.214 9.90333 212.752 10.3653 212.155 10.692C211.557 11.0187 210.862 11.182 210.069 11.182ZM208.305 7.164C208.305 7.88267 208.468 8.46133 208.795 8.9C209.121 9.33867 209.546 9.558 210.069 9.558C210.591 9.558 211.011 9.33867 211.329 8.9C211.655 8.46133 211.819 7.88267 211.819 7.164C211.819 6.41733 211.66 5.85267 211.343 5.47C211.035 5.078 210.61 4.882 210.069 4.882C209.527 4.882 209.098 5.078 208.781 5.47C208.463 5.85267 208.305 6.41733 208.305 7.164ZM218.622 14.192C218.053 14.192 217.479 14.1547 216.9 14.08C216.331 14.0053 215.817 13.898 215.36 13.758V11.924C216.359 12.148 217.357 12.26 218.356 12.26C218.991 12.26 219.471 12.12 219.798 11.84C220.125 11.56 220.288 11.1727 220.288 10.678C219.775 11.014 219.163 11.182 218.454 11.182C217.763 11.182 217.157 11.014 216.634 10.678C216.111 10.342 215.71 9.88 215.43 9.292C215.15 8.69467 215.01 8.00867 215.01 7.234C215.01 6.45933 215.15 5.77333 215.43 5.176C215.719 4.56933 216.121 4.098 216.634 3.762C217.157 3.426 217.763 3.258 218.454 3.258C219.098 3.258 219.709 3.47267 220.288 3.902V3.44H222.472V10.972C222.472 13.1187 221.189 14.192 218.622 14.192ZM217.152 7.234C217.152 7.66333 217.236 8.05533 217.404 8.41C217.581 8.76467 217.81 9.04933 218.09 9.264C218.379 9.46933 218.683 9.572 219 9.572C219.233 9.572 219.495 9.52067 219.784 9.418C220.073 9.306 220.321 9.07733 220.526 8.732L220.596 8.452V5.862C220.4 5.46067 220.148 5.19933 219.84 5.078C219.532 4.94733 219.252 4.882 219 4.882C218.683 4.882 218.379 4.98467 218.09 5.19C217.81 5.39533 217.581 5.68 217.404 6.044C217.236 6.39867 217.152 6.79533 217.152 7.234ZM229.28 11.014C229.131 10.734 229.042 10.4353 229.014 10.118C228.669 10.426 228.253 10.6827 227.768 10.888C227.292 11.084 226.821 11.182 226.354 11.182C225.635 11.182 225.061 10.972 224.632 10.552C224.212 10.132 224.002 9.59067 224.002 8.928V3.44H226.242V8.55C226.242 8.82067 226.331 9.04467 226.508 9.222C226.695 9.39 226.937 9.474 227.236 9.474C227.432 9.474 227.693 9.404 228.02 9.264C228.356 9.124 228.636 8.97 228.86 8.802V3.44H231.1V9.558C231.1 9.866 231.119 10.1273 231.156 10.342C231.193 10.5473 231.268 10.7713 231.38 11.014H229.28ZM239.52 10.594C239.166 10.8087 238.75 10.9673 238.274 11.07C237.808 11.1727 237.355 11.224 236.916 11.224C235.423 11.224 234.289 10.8693 233.514 10.16C232.749 9.45067 232.366 8.45667 232.366 7.178C232.366 5.90867 232.707 4.938 233.388 4.266C234.079 3.58467 235.017 3.244 236.202 3.244C237.378 3.244 238.307 3.58467 238.988 4.266C239.679 4.938 240.024 5.90867 240.024 7.178C240.024 7.318 240.015 7.51867 239.996 7.78H234.55C234.756 8.984 235.544 9.586 236.916 9.586C237.878 9.586 238.746 9.30133 239.52 8.732V10.594ZM237.91 6.212C237.789 5.74533 237.579 5.4 237.28 5.176C236.982 4.952 236.622 4.84 236.202 4.84C235.81 4.84 235.474 4.95667 235.194 5.19C234.924 5.42333 234.732 5.764 234.62 6.212H237.91ZM248.287 11.182C247.578 11.182 246.957 11.014 246.425 10.678C245.902 10.342 245.496 9.88 245.207 9.292C244.927 8.704 244.787 8.018 244.787 7.234C244.787 6.45933 244.927 5.77333 245.207 5.176C245.496 4.56933 245.898 4.098 246.411 3.762C246.934 3.426 247.54 3.258 248.231 3.258C248.548 3.258 248.866 3.31867 249.183 3.44C249.51 3.552 249.813 3.71067 250.093 3.916V3.44H252.333V9.236C252.333 9.992 252.426 10.58 252.613 11H250.513C250.448 10.8693 250.392 10.7013 250.345 10.496C249.766 10.9533 249.08 11.182 248.287 11.182ZM246.929 7.234C246.929 7.66333 247.013 8.05533 247.181 8.41C247.358 8.76467 247.587 9.04933 247.867 9.264C248.156 9.46933 248.46 9.572 248.777 9.572C249.001 9.572 249.253 9.52533 249.533 9.432C249.813 9.32933 250.056 9.11467 250.261 8.788V5.652C250.056 5.32533 249.813 5.11533 249.533 5.022C249.262 4.92867 249.01 4.882 248.777 4.882C248.46 4.882 248.156 4.98467 247.867 5.19C247.587 5.39533 247.358 5.68 247.181 6.044C247.013 6.39867 246.929 6.79533 246.929 7.234ZM259.139 11.014C258.99 10.734 258.901 10.4353 258.873 10.118C258.528 10.426 258.112 10.6827 257.627 10.888C257.151 11.084 256.68 11.182 256.213 11.182C255.494 11.182 254.92 10.972 254.491 10.552C254.071 10.132 253.861 9.59067 253.861 8.928V3.44H256.101V8.55C256.101 8.82067 256.19 9.04467 256.367 9.222C256.554 9.39 256.796 9.474 257.095 9.474C257.291 9.474 257.552 9.404 257.879 9.264C258.215 9.124 258.495 8.97 258.719 8.802V3.44H260.959V9.558C260.959 9.866 260.978 10.1273 261.015 10.342C261.052 10.5473 261.127 10.7713 261.239 11.014H259.139ZM265.669 11.182C264.978 11.182 264.372 11.0187 263.849 10.692C263.326 10.356 262.925 9.88933 262.645 9.292C262.365 8.69467 262.225 8.01333 262.225 7.248C262.225 6.47333 262.365 5.78733 262.645 5.19C262.934 4.58333 263.336 4.112 263.849 3.776C264.372 3.44 264.978 3.272 265.669 3.272C265.986 3.272 266.304 3.328 266.621 3.44C266.948 3.552 267.251 3.71533 267.531 3.93V0.233999H269.771V9.25C269.771 9.99667 269.864 10.58 270.051 11H267.951C267.886 10.8693 267.83 10.7013 267.783 10.496C267.195 10.9533 266.49 11.182 265.669 11.182ZM264.367 7.248C264.367 7.67733 264.451 8.06933 264.619 8.424C264.796 8.77867 265.025 9.06333 265.305 9.278C265.594 9.48333 265.898 9.586 266.215 9.586C266.467 9.586 266.742 9.52533 267.041 9.404C267.349 9.28267 267.601 9.03067 267.797 8.648V5.834C267.601 5.442 267.349 5.18533 267.041 5.064C266.742 4.94267 266.467 4.882 266.215 4.882C265.898 4.882 265.594 4.98467 265.305 5.19C265.025 5.39533 264.796 5.68 264.619 6.044C264.451 6.408 264.367 6.80933 264.367 7.248ZM273.735 3.44V11H271.495V3.44H273.735ZM271.495 0.233999H273.735V2.474H271.495V0.233999ZM279.155 11.182C278.362 11.182 277.662 11.0187 277.055 10.692C276.458 10.3653 275.996 9.90333 275.669 9.306C275.342 8.69933 275.179 7.98533 275.179 7.164C275.179 5.904 275.534 4.938 276.243 4.266C276.952 3.594 277.923 3.258 279.155 3.258C280.378 3.258 281.344 3.594 282.053 4.266C282.762 4.938 283.117 5.904 283.117 7.164C283.117 7.98533 282.954 8.69933 282.627 9.306C282.3 9.90333 281.838 10.3653 281.241 10.692C280.644 11.0187 279.948 11.182 279.155 11.182ZM277.391 7.164C277.391 7.88267 277.554 8.46133 277.881 8.9C278.208 9.33867 278.632 9.558 279.155 9.558C279.678 9.558 280.098 9.33867 280.415 8.9C280.742 8.46133 280.905 7.88267 280.905 7.164C280.905 6.41733 280.746 5.85267 280.429 5.47C280.121 5.078 279.696 4.882 279.155 4.882C278.614 4.882 278.184 5.078 277.867 5.47C277.55 5.85267 277.391 6.41733 277.391 7.164ZM287.414 11.168C286.845 11.196 286.266 11.1493 285.678 11.028C285.1 10.916 284.596 10.7387 284.166 10.496V8.48C284.549 8.76 285.006 8.99333 285.538 9.18C286.08 9.35733 286.556 9.432 286.966 9.404C287.256 9.38533 287.466 9.32467 287.596 9.222C287.727 9.11 287.802 8.998 287.82 8.886C287.867 8.59667 287.797 8.37733 287.61 8.228C287.424 8.07867 287.074 7.934 286.56 7.794C285.991 7.63533 285.538 7.45333 285.202 7.248C284.866 7.03333 284.61 6.79533 284.432 6.534C284.264 6.26333 284.18 5.92267 284.18 5.512C284.18 5.08267 284.292 4.7 284.516 4.364C284.74 4.01867 285.095 3.748 285.58 3.552C286.066 3.356 286.588 3.258 287.148 3.258C287.568 3.258 287.993 3.3 288.422 3.384C288.852 3.45867 289.211 3.56133 289.5 3.692V5.498C289.202 5.34867 288.847 5.218 288.436 5.106C288.035 4.98467 287.685 4.924 287.386 4.924C286.752 4.924 286.406 5.092 286.35 5.428C286.322 5.624 286.411 5.79667 286.616 5.946C286.831 6.09533 287.134 6.23067 287.526 6.352C288.086 6.52933 288.544 6.71133 288.898 6.898C289.262 7.08467 289.547 7.32733 289.752 7.626C289.958 7.92467 290.06 8.30733 290.06 8.774C290.06 9.46467 289.813 10.0293 289.318 10.468C288.824 10.8973 288.189 11.1307 287.414 11.168ZM44.0724 34.182C43.0084 34.182 42.0611 33.986 41.2304 33.594C40.4091 33.202 39.7604 32.6327 39.2844 31.886C38.8177 31.1393 38.5844 30.2527 38.5844 29.226C38.5844 28.1433 38.8131 27.2147 39.2704 26.44C39.7277 25.656 40.3671 25.0587 41.1884 24.648C42.0097 24.228 42.9477 24.018 44.0024 24.018C44.5251 24.018 45.0524 24.0693 45.5844 24.172C46.1164 24.2747 46.5551 24.4053 46.9004 24.564V26.3C45.9577 25.9547 45.0804 25.782 44.2684 25.782C43.2977 25.782 42.5091 26.0667 41.9024 26.636C41.3051 27.2053 41.0064 28.0687 41.0064 29.226C41.0064 29.842 41.1557 30.388 41.4544 30.864C41.7531 31.3307 42.1451 31.6947 42.6304 31.956C43.1157 32.2173 43.6384 32.3667 44.1984 32.404L44.5064 32.418C44.9357 32.418 45.3604 32.3573 45.7804 32.236C46.2004 32.1147 46.5737 31.9513 46.9004 31.746V33.678C46.4991 33.8647 46.0697 33.9953 45.6124 34.07C45.1644 34.1447 44.6511 34.182 44.0724 34.182ZM52.1307 34.182C51.3374 34.182 50.6374 34.0187 50.0307 33.692C49.4334 33.3653 48.9714 32.9033 48.6447 32.306C48.3181 31.6993 48.1547 30.9853 48.1547 30.164C48.1547 28.904 48.5094 27.938 49.2187 27.266C49.9281 26.594 50.8987 26.258 52.1307 26.258C53.3534 26.258 54.3194 26.594 55.0287 27.266C55.7381 27.938 56.0927 28.904 56.0927 30.164C56.0927 30.9853 55.9294 31.6993 55.6027 32.306C55.2761 32.9033 54.8141 33.3653 54.2167 33.692C53.6194 34.0187 52.9241 34.182 52.1307 34.182ZM50.3667 30.164C50.3667 30.8827 50.5301 31.4613 50.8567 31.9C51.1834 32.3387 51.6081 32.558 52.1307 32.558C52.6534 32.558 53.0734 32.3387 53.3907 31.9C53.7174 31.4613 53.8807 30.8827 53.8807 30.164C53.8807 29.4173 53.7221 28.8527 53.4047 28.47C53.0967 28.078 52.6721 27.882 52.1307 27.882C51.5894 27.882 51.1601 28.078 50.8427 28.47C50.5254 28.8527 50.3667 29.4173 50.3667 30.164ZM59.5921 26.44V27.252C59.8347 26.9907 60.1241 26.79 60.4601 26.65C60.8054 26.5007 61.1461 26.426 61.4821 26.426C61.7154 26.426 61.9347 26.4587 62.1401 26.524V28.246C61.8787 28.1807 61.6314 28.148 61.3981 28.148C61.0434 28.148 60.7074 28.2087 60.3901 28.33C60.0727 28.442 59.8067 28.624 59.5921 28.876V34H57.3521V26.44H59.5921ZM65.4469 26.44V27.252C65.6896 26.9907 65.9789 26.79 66.3149 26.65C66.6602 26.5007 67.0009 26.426 67.3369 26.426C67.5702 26.426 67.7896 26.4587 67.9949 26.524V28.246C67.7336 28.1807 67.4862 28.148 67.2529 28.148C66.8982 28.148 66.5622 28.2087 66.2449 28.33C65.9276 28.442 65.6616 28.624 65.4469 28.876V34H63.2069V26.44H65.4469ZM75.6623 33.594C75.3077 33.8087 74.8923 33.9673 74.4163 34.07C73.9497 34.1727 73.497 34.224 73.0583 34.224C71.565 34.224 70.431 33.8693 69.6563 33.16C68.891 32.4507 68.5083 31.4567 68.5083 30.178C68.5083 28.9087 68.849 27.938 69.5303 27.266C70.221 26.5847 71.159 26.244 72.3443 26.244C73.5203 26.244 74.449 26.5847 75.1303 27.266C75.821 27.938 76.1663 28.9087 76.1663 30.178C76.1663 30.318 76.157 30.5187 76.1383 30.78H70.6923C70.8977 31.984 71.6863 32.586 73.0583 32.586C74.0197 32.586 74.8877 32.3013 75.6623 31.732V33.594ZM74.0523 29.212C73.931 28.7453 73.721 28.4 73.4223 28.176C73.1237 27.952 72.7643 27.84 72.3443 27.84C71.9523 27.84 71.6163 27.9567 71.3363 28.19C71.0657 28.4233 70.8743 28.764 70.7623 29.212H74.0523ZM83.7322 33.748C83.0136 34.0373 82.2762 34.182 81.5202 34.182C80.7269 34.182 79.9942 34.0233 79.3222 33.706C78.6596 33.3793 78.1322 32.922 77.7402 32.334C77.3482 31.7367 77.1522 31.0507 77.1522 30.276C77.1522 29.464 77.3389 28.7547 77.7122 28.148C78.0856 27.5413 78.5942 27.0793 79.2382 26.762C79.8916 26.4353 80.6196 26.272 81.4222 26.272C82.1502 26.272 82.8876 26.4027 83.6342 26.664V28.386C83.0649 28.1433 82.4816 28.022 81.8842 28.022C81.1469 28.022 80.5356 28.1993 80.0502 28.554C79.5649 28.8993 79.3222 29.4733 79.3222 30.276C79.3222 30.7333 79.4482 31.1207 79.7002 31.438C79.9522 31.7553 80.2789 31.998 80.6802 32.166C81.0816 32.3247 81.5062 32.404 81.9542 32.404C82.2996 32.404 82.6262 32.3573 82.9342 32.264C83.2516 32.1613 83.5176 32.0213 83.7322 31.844V33.748ZM85.5841 26.44V24.284H87.6841V26.44H89.1401V28.148H87.6841V31.396C87.6841 31.6667 87.7027 31.872 87.7401 32.012C87.7867 32.152 87.8661 32.25 87.9781 32.306C88.0901 32.3527 88.2534 32.376 88.4681 32.376C88.6081 32.376 88.7247 32.3713 88.8181 32.362C88.9207 32.3527 89.0094 32.3387 89.0841 32.32V34.042C88.6921 34.0887 88.3281 34.112 87.9921 34.112C87.3481 34.112 86.8674 34.0467 86.5501 33.916C86.2327 33.7853 85.9901 33.5613 85.8221 33.244C85.6634 32.9173 85.5841 32.4553 85.5841 31.858V28.148H84.4921V26.44H85.5841ZM94.421 31.704V34H92.125V31.704H94.421ZM92.125 26.44H94.421V28.736H92.125V26.44ZM108.426 30.682V33.44H106.648V30.682H103.89V28.904H106.648V26.16H108.426V28.904H111.184V30.682H108.426ZM115.456 26.874L113.65 27.63V25.586L116.058 24.214H117.528V34H115.456V26.874ZM122.957 31.704H125.113L123.349 35.848H121.711L122.957 31.704ZM140.617 27.658H140.561L139.455 34H136.641L134.261 24.2H136.669L138.069 31.592H138.125L139.525 24.2H141.639L143.039 31.592H143.095L144.495 24.2H146.903L144.523 34H141.709L140.617 27.658ZM149.764 26.44V27.252C150.006 26.9907 150.296 26.79 150.632 26.65C150.977 26.5007 151.318 26.426 151.654 26.426C151.887 26.426 152.106 26.4587 152.312 26.524V28.246C152.05 28.1807 151.803 28.148 151.57 28.148C151.215 28.148 150.879 28.2087 150.562 28.33C150.244 28.442 149.978 28.624 149.764 28.876V34H147.524V26.44H149.764ZM156.801 34.182C156.008 34.182 155.308 34.0187 154.701 33.692C154.104 33.3653 153.642 32.9033 153.315 32.306C152.988 31.6993 152.825 30.9853 152.825 30.164C152.825 28.904 153.18 27.938 153.889 27.266C154.598 26.594 155.569 26.258 156.801 26.258C158.024 26.258 158.99 26.594 159.699 27.266C160.408 27.938 160.763 28.904 160.763 30.164C160.763 30.9853 160.6 31.6993 160.273 32.306C159.946 32.9033 159.484 33.3653 158.887 33.692C158.29 34.0187 157.594 34.182 156.801 34.182ZM155.037 30.164C155.037 30.8827 155.2 31.4613 155.527 31.9C155.854 32.3387 156.278 32.558 156.801 32.558C157.324 32.558 157.744 32.3387 158.061 31.9C158.388 31.4613 158.551 30.8827 158.551 30.164C158.551 29.4173 158.392 28.8527 158.075 28.47C157.767 28.078 157.342 27.882 156.801 27.882C156.26 27.882 155.83 28.078 155.513 28.47C155.196 28.8527 155.037 29.4173 155.037 30.164ZM164.262 26.412V27.322C164.608 27.0233 165 26.79 165.438 26.622C165.886 26.454 166.33 26.37 166.768 26.37C167.487 26.37 168.056 26.58 168.476 27C168.906 27.42 169.12 27.966 169.12 28.638V33.972H166.88V29.016C166.88 28.7453 166.768 28.526 166.544 28.358C166.32 28.1807 166.054 28.092 165.746 28.092C165.55 28.092 165.303 28.1573 165.004 28.288C164.715 28.4187 164.468 28.5773 164.262 28.764V33.972H162.022V26.412H164.262ZM173.998 37.192C173.429 37.192 172.855 37.1547 172.276 37.08C171.707 37.0053 171.194 36.898 170.736 36.758V34.924C171.735 35.148 172.734 35.26 173.732 35.26C174.367 35.26 174.848 35.12 175.174 34.84C175.501 34.56 175.664 34.1727 175.664 33.678C175.151 34.014 174.54 34.182 173.83 34.182C173.14 34.182 172.533 34.014 172.01 33.678C171.488 33.342 171.086 32.88 170.806 32.292C170.526 31.6947 170.386 31.0087 170.386 30.234C170.386 29.4593 170.526 28.7733 170.806 28.176C171.096 27.5693 171.497 27.098 172.01 26.762C172.533 26.426 173.14 26.258 173.83 26.258C174.474 26.258 175.086 26.4727 175.664 26.902V26.44H177.848V33.972C177.848 36.1187 176.565 37.192 173.998 37.192ZM172.528 30.234C172.528 30.6633 172.612 31.0553 172.78 31.41C172.958 31.7647 173.186 32.0493 173.466 32.264C173.756 32.4693 174.059 32.572 174.376 32.572C174.61 32.572 174.871 32.5207 175.16 32.418C175.45 32.306 175.697 32.0773 175.902 31.732L175.972 31.452V28.862C175.776 28.4607 175.524 28.1993 175.216 28.078C174.908 27.9473 174.628 27.882 174.376 27.882C174.059 27.882 173.756 27.9847 173.466 28.19C173.186 28.3953 172.958 28.68 172.78 29.044C172.612 29.3987 172.528 29.7953 172.528 30.234ZM183.55 31.704V34H181.254V31.704H183.55ZM181.254 26.44H183.55V28.736H181.254V26.44ZM197.835 28.89V30.514H193.537V28.89H197.835ZM202.643 26.874L200.837 27.63V25.586L203.245 24.214H204.715V34H202.643V26.874ZM217.103 35.68C216.413 34.6253 215.89 33.594 215.535 32.586C215.181 31.578 215.003 30.5327 215.003 29.45C215.003 28.3673 215.181 27.322 215.535 26.314C215.89 25.306 216.413 24.228 217.103 23.08H219.147C218.485 24.1907 217.985 25.264 217.649 26.3C217.323 27.336 217.159 28.3627 217.159 29.38C217.159 30.3973 217.323 31.424 217.649 32.46C217.985 33.496 218.485 34.5693 219.147 35.68H217.103ZM224.397 26.426V27.224C224.733 26.9533 225.107 26.7433 225.517 26.594C225.928 26.4447 226.343 26.37 226.763 26.37C227.183 26.37 227.547 26.4493 227.855 26.608C228.163 26.7573 228.406 26.9673 228.583 27.238C228.929 26.958 229.307 26.7433 229.717 26.594C230.128 26.4447 230.543 26.37 230.963 26.37C231.673 26.37 232.219 26.58 232.601 27C232.984 27.42 233.175 27.966 233.175 28.638V34H230.935V29.016C230.935 28.7453 230.842 28.526 230.655 28.358C230.478 28.1807 230.24 28.092 229.941 28.092C229.811 28.092 229.657 28.12 229.479 28.176C229.302 28.232 229.129 28.3067 228.961 28.4C228.971 28.456 228.975 28.5353 228.975 28.638V34H226.735V29.016C226.735 28.7453 226.642 28.526 226.455 28.358C226.278 28.1807 226.04 28.092 225.741 28.092C225.564 28.092 225.345 28.1433 225.083 28.246C224.822 28.3487 224.593 28.484 224.397 28.652V34H222.157V26.426H224.397ZM237.133 26.44V34H234.893V26.44H237.133ZM234.893 23.234H237.133V25.474H234.893V23.234ZM241.097 26.412V27.322C241.442 27.0233 241.834 26.79 242.273 26.622C242.721 26.454 243.164 26.37 243.603 26.37C244.322 26.37 244.891 26.58 245.311 27C245.74 27.42 245.955 27.966 245.955 28.638V33.972H243.715V29.016C243.715 28.7453 243.603 28.526 243.379 28.358C243.155 28.1807 242.889 28.092 242.581 28.092C242.385 28.092 242.138 28.1573 241.839 28.288C241.55 28.4187 241.302 28.5773 241.097 28.764V33.972H238.857V26.412H241.097ZM254.708 34.182C252.365 34.182 251.194 32.488 251.194 29.1C251.194 25.712 252.365 24.018 254.708 24.018C257.05 24.018 258.222 25.712 258.222 29.1C258.222 32.488 257.05 34.182 254.708 34.182ZM253.252 29.1C253.252 30.192 253.364 30.9947 253.588 31.508C253.821 32.0213 254.194 32.278 254.708 32.278C255.221 32.278 255.59 32.0213 255.814 31.508C256.047 30.9947 256.164 30.192 256.164 29.1C256.164 28.0173 256.047 27.2193 255.814 26.706C255.59 26.1927 255.221 25.936 254.708 25.936C254.194 25.936 253.821 26.1927 253.588 26.706C253.364 27.2193 253.252 28.0173 253.252 29.1ZM261.146 35.68C261.808 34.5693 262.303 33.496 262.63 32.46C262.966 31.424 263.134 30.3973 263.134 29.38C263.134 28.3627 262.966 27.336 262.63 26.3C262.303 25.264 261.808 24.1907 261.146 23.08H263.19C263.88 24.228 264.403 25.306 264.758 26.314C265.112 27.322 265.29 28.3673 265.29 29.45C265.29 30.5327 265.112 31.578 264.758 32.586C264.403 33.594 263.88 34.6253 263.19 35.68H261.146ZM5.75972 57.182C4.69572 57.182 3.74838 56.986 2.91772 56.594C2.09638 56.202 1.44772 55.6327 0.971716 54.886C0.505049 54.1393 0.271716 53.2527 0.271716 52.226C0.271716 51.1433 0.500382 50.2147 0.957716 49.44C1.41505 48.656 2.05438 48.0587 2.87572 47.648C3.69705 47.228 4.63505 47.018 5.68972 47.018C6.21238 47.018 6.73972 47.0693 7.27172 47.172C7.80372 47.2747 8.24238 47.4053 8.58772 47.564V49.3C7.64505 48.9547 6.76772 48.782 5.95572 48.782C4.98505 48.782 4.19638 49.0667 3.58972 49.636C2.99238 50.2053 2.69372 51.0687 2.69372 52.226C2.69372 52.842 2.84305 53.388 3.14172 53.864C3.44038 54.3307 3.83238 54.6947 4.31772 54.956C4.80305 55.2173 5.32572 55.3667 5.88572 55.404L6.19372 55.418C6.62305 55.418 7.04772 55.3573 7.46772 55.236C7.88772 55.1147 8.26105 54.9513 8.58772 54.746V56.678C8.18638 56.8647 7.75705 56.9953 7.29972 57.07C6.85172 57.1447 6.33838 57.182 5.75972 57.182ZM13.818 57.182C13.0247 57.182 12.3247 57.0187 11.718 56.692C11.1207 56.3653 10.6587 55.9033 10.332 55.306C10.0054 54.6993 9.84203 53.9853 9.84203 53.164C9.84203 51.904 10.1967 50.938 10.906 50.266C11.6154 49.594 12.586 49.258 13.818 49.258C15.0407 49.258 16.0067 49.594 16.716 50.266C17.4254 50.938 17.78 51.904 17.78 53.164C17.78 53.9853 17.6167 54.6993 17.29 55.306C16.9634 55.9033 16.5014 56.3653 15.904 56.692C15.3067 57.0187 14.6114 57.182 13.818 57.182ZM12.054 53.164C12.054 53.8827 12.2174 54.4613 12.544 54.9C12.8707 55.3387 13.2954 55.558 13.818 55.558C14.3407 55.558 14.7607 55.3387 15.078 54.9C15.4047 54.4613 15.568 53.8827 15.568 53.164C15.568 52.4173 15.4094 51.8527 15.092 51.47C14.784 51.078 14.3594 50.882 13.818 50.882C13.2767 50.882 12.8474 51.078 12.53 51.47C12.2127 51.8527 12.054 52.4173 12.054 53.164ZM21.2794 49.426V50.224C21.6154 49.9533 21.9887 49.7433 22.3994 49.594C22.81 49.4447 23.2254 49.37 23.6454 49.37C24.0654 49.37 24.4294 49.4493 24.7374 49.608C25.0454 49.7573 25.288 49.9673 25.4654 50.238C25.8107 49.958 26.1887 49.7433 26.5994 49.594C27.01 49.4447 27.4254 49.37 27.8454 49.37C28.5547 49.37 29.1007 49.58 29.4834 50C29.866 50.42 30.0574 50.966 30.0574 51.638V57H27.8174V52.016C27.8174 51.7453 27.724 51.526 27.5374 51.358C27.36 51.1807 27.122 51.092 26.8234 51.092C26.6927 51.092 26.5387 51.12 26.3614 51.176C26.184 51.232 26.0114 51.3067 25.8434 51.4C25.8527 51.456 25.8574 51.5353 25.8574 51.638V57H23.6174V52.016C23.6174 51.7453 23.524 51.526 23.3374 51.358C23.16 51.1807 22.922 51.092 22.6234 51.092C22.446 51.092 22.2267 51.1433 21.9654 51.246C21.704 51.3487 21.4754 51.484 21.2794 51.652V57H19.0394V49.426H21.2794ZM35.6954 57.182C34.8741 57.182 34.1694 56.9533 33.5814 56.496C33.5348 56.7013 33.4788 56.8693 33.4134 57H31.3134C31.5001 56.58 31.5934 55.9967 31.5934 55.25V46.234H33.8334V49.93C34.1134 49.7153 34.4121 49.552 34.7294 49.44C35.0561 49.328 35.3781 49.272 35.6954 49.272C36.3861 49.272 36.9881 49.44 37.5014 49.776C38.0241 50.112 38.4254 50.5833 38.7054 51.19C38.9948 51.7873 39.1394 52.4733 39.1394 53.248C39.1394 54.0133 38.9994 54.6947 38.7194 55.292C38.4394 55.8893 38.0381 56.356 37.5154 56.692C36.9928 57.0187 36.3861 57.182 35.6954 57.182ZM33.5954 54.69C33.7914 55.0633 34.0388 55.306 34.3374 55.418C34.6361 55.53 34.9068 55.586 35.1494 55.586C35.4668 55.586 35.7654 55.4833 36.0454 55.278C36.3348 55.0633 36.5634 54.7787 36.7314 54.424C36.9088 54.0693 36.9974 53.6773 36.9974 53.248C36.9974 52.8093 36.9088 52.408 36.7314 52.044C36.5634 51.68 36.3348 51.3953 36.0454 51.19C35.7654 50.9847 35.4668 50.882 35.1494 50.882C34.9068 50.882 34.6361 50.9427 34.3374 51.064C34.0388 51.176 33.7914 51.414 33.5954 51.778V54.69ZM44.0974 57.182C43.3041 57.182 42.6041 57.0187 41.9974 56.692C41.4001 56.3653 40.9381 55.9033 40.6114 55.306C40.2847 54.6993 40.1214 53.9853 40.1214 53.164C40.1214 51.904 40.4761 50.938 41.1854 50.266C41.8947 49.594 42.8654 49.258 44.0974 49.258C45.3201 49.258 46.2861 49.594 46.9954 50.266C47.7047 50.938 48.0594 51.904 48.0594 53.164C48.0594 53.9853 47.8961 54.6993 47.5694 55.306C47.2427 55.9033 46.7807 56.3653 46.1834 56.692C45.5861 57.0187 44.8907 57.182 44.0974 57.182ZM42.3334 53.164C42.3334 53.8827 42.4967 54.4613 42.8234 54.9C43.1501 55.3387 43.5747 55.558 44.0974 55.558C44.6201 55.558 45.0401 55.3387 45.3574 54.9C45.6841 54.4613 45.8474 53.8827 45.8474 53.164C45.8474 52.4173 45.6887 51.8527 45.3714 51.47C45.0634 51.078 44.6387 50.882 44.0974 50.882C43.5561 50.882 43.1267 51.078 42.8094 51.47C42.4921 51.8527 42.3334 52.4173 42.3334 53.164ZM56.3155 57.182C55.6061 57.182 54.9855 57.014 54.4535 56.678C53.9308 56.342 53.5248 55.88 53.2355 55.292C52.9555 54.704 52.8155 54.018 52.8155 53.234C52.8155 52.4593 52.9555 51.7733 53.2355 51.176C53.5248 50.5693 53.9261 50.098 54.4395 49.762C54.9621 49.426 55.5688 49.258 56.2595 49.258C56.5768 49.258 56.8941 49.3187 57.2115 49.44C57.5381 49.552 57.8415 49.7107 58.1215 49.916V49.44H60.3615V55.236C60.3615 55.992 60.4548 56.58 60.6415 57H58.5415C58.4761 56.8693 58.4201 56.7013 58.3735 56.496C57.7948 56.9533 57.1088 57.182 56.3155 57.182ZM54.9575 53.234C54.9575 53.6633 55.0415 54.0553 55.2095 54.41C55.3868 54.7647 55.6155 55.0493 55.8955 55.264C56.1848 55.4693 56.4881 55.572 56.8055 55.572C57.0295 55.572 57.2815 55.5253 57.5615 55.432C57.8415 55.3293 58.0841 55.1147 58.2895 54.788V51.652C58.0841 51.3253 57.8415 51.1153 57.5615 51.022C57.2908 50.9287 57.0388 50.882 56.8055 50.882C56.4881 50.882 56.1848 50.9847 55.8955 51.19C55.6155 51.3953 55.3868 51.68 55.2095 52.044C55.0415 52.3987 54.9575 52.7953 54.9575 53.234ZM65.0674 57.182C64.3768 57.182 63.7701 57.0187 63.2474 56.692C62.7248 56.356 62.3234 55.8893 62.0434 55.292C61.7634 54.6947 61.6234 54.0133 61.6234 53.248C61.6234 52.4733 61.7634 51.7873 62.0434 51.19C62.3328 50.5833 62.7341 50.112 63.2474 49.776C63.7701 49.44 64.3768 49.272 65.0674 49.272C65.3848 49.272 65.7021 49.328 66.0194 49.44C66.3461 49.552 66.6494 49.7153 66.9294 49.93V46.234H69.1694V55.25C69.1694 55.9967 69.2628 56.58 69.4494 57H67.3494C67.2841 56.8693 67.2281 56.7013 67.1814 56.496C66.5934 56.9533 65.8888 57.182 65.0674 57.182ZM63.7654 53.248C63.7654 53.6773 63.8494 54.0693 64.0174 54.424C64.1948 54.7787 64.4234 55.0633 64.7034 55.278C64.9928 55.4833 65.2961 55.586 65.6134 55.586C65.8654 55.586 66.1408 55.5253 66.4394 55.404C66.7474 55.2827 66.9994 55.0307 67.1954 54.648V51.834C66.9994 51.442 66.7474 51.1853 66.4394 51.064C66.1408 50.9427 65.8654 50.882 65.6134 50.882C65.2961 50.882 64.9928 50.9847 64.7034 51.19C64.4234 51.3953 64.1948 51.68 64.0174 52.044C63.8494 52.408 63.7654 52.8093 63.7654 53.248ZM73.8754 57.182C73.1847 57.182 72.5781 57.0187 72.0554 56.692C71.5327 56.356 71.1314 55.8893 70.8514 55.292C70.5714 54.6947 70.4314 54.0133 70.4314 53.248C70.4314 52.4733 70.5714 51.7873 70.8514 51.19C71.1407 50.5833 71.5421 50.112 72.0554 49.776C72.5781 49.44 73.1847 49.272 73.8754 49.272C74.1927 49.272 74.5101 49.328 74.8274 49.44C75.1541 49.552 75.4574 49.7153 75.7374 49.93V46.234H77.9774V55.25C77.9774 55.9967 78.0707 56.58 78.2574 57H76.1574C76.0921 56.8693 76.0361 56.7013 75.9894 56.496C75.4014 56.9533 74.6967 57.182 73.8754 57.182ZM72.5734 53.248C72.5734 53.6773 72.6574 54.0693 72.8254 54.424C73.0027 54.7787 73.2314 55.0633 73.5114 55.278C73.8007 55.4833 74.1041 55.586 74.4214 55.586C74.6734 55.586 74.9487 55.5253 75.2474 55.404C75.5554 55.2827 75.8074 55.0307 76.0034 54.648V51.834C75.8074 51.442 75.5554 51.1853 75.2474 51.064C74.9487 50.9427 74.6734 50.882 74.4214 50.882C74.1041 50.882 73.8007 50.9847 73.5114 51.19C73.2314 51.3953 73.0027 51.68 72.8254 52.044C72.6574 52.408 72.5734 52.8093 72.5734 53.248ZM82.5574 57.168C81.988 57.196 81.4094 57.1493 80.8214 57.028C80.2427 56.916 79.7387 56.7387 79.3094 56.496V54.48C79.692 54.76 80.1494 54.9933 80.6814 55.18C81.2227 55.3573 81.6987 55.432 82.1094 55.404C82.3987 55.3853 82.6087 55.3247 82.7394 55.222C82.87 55.11 82.9447 54.998 82.9634 54.886C83.01 54.5967 82.94 54.3773 82.7534 54.228C82.5667 54.0787 82.2167 53.934 81.7034 53.794C81.134 53.6353 80.6814 53.4533 80.3454 53.248C80.0094 53.0333 79.7527 52.7953 79.5754 52.534C79.4074 52.2633 79.3234 51.9227 79.3234 51.512C79.3234 51.0827 79.4354 50.7 79.6594 50.364C79.8834 50.0187 80.238 49.748 80.7234 49.552C81.2087 49.356 81.7314 49.258 82.2914 49.258C82.7114 49.258 83.136 49.3 83.5654 49.384C83.9947 49.4587 84.354 49.5613 84.6434 49.692V51.498C84.3447 51.3487 83.99 51.218 83.5794 51.106C83.178 50.9847 82.828 50.924 82.5294 50.924C81.8947 50.924 81.5494 51.092 81.4934 51.428C81.4654 51.624 81.554 51.7967 81.7594 51.946C81.974 52.0953 82.2774 52.2307 82.6694 52.352C83.2294 52.5293 83.6867 52.7113 84.0414 52.898C84.4054 53.0847 84.69 53.3273 84.8954 53.626C85.1007 53.9247 85.2034 54.3073 85.2034 54.774C85.2034 55.4647 84.956 56.0293 84.4614 56.468C83.9667 56.8973 83.332 57.1307 82.5574 57.168ZM94.2373 57.182C93.416 57.182 92.7113 56.9533 92.1233 56.496C92.0766 56.7013 92.0206 56.8693 91.9553 57H89.8553C90.042 56.58 90.1353 55.9967 90.1353 55.25V46.234H92.3753V49.93C92.6553 49.7153 92.954 49.552 93.2713 49.44C93.598 49.328 93.92 49.272 94.2373 49.272C94.928 49.272 95.53 49.44 96.0433 49.776C96.566 50.112 96.9673 50.5833 97.2473 51.19C97.5366 51.7873 97.6813 52.4733 97.6813 53.248C97.6813 54.0133 97.5413 54.6947 97.2613 55.292C96.9813 55.8893 96.58 56.356 96.0573 56.692C95.5346 57.0187 94.928 57.182 94.2373 57.182ZM92.1373 54.69C92.3333 55.0633 92.5806 55.306 92.8793 55.418C93.178 55.53 93.4486 55.586 93.6913 55.586C94.0086 55.586 94.3073 55.4833 94.5873 55.278C94.8766 55.0633 95.1053 54.7787 95.2733 54.424C95.4506 54.0693 95.5393 53.6773 95.5393 53.248C95.5393 52.8093 95.4506 52.408 95.2733 52.044C95.1053 51.68 94.8766 51.3953 94.5873 51.19C94.3073 50.9847 94.0086 50.882 93.6913 50.882C93.4486 50.882 93.178 50.9427 92.8793 51.064C92.5806 51.176 92.3333 51.414 92.1373 51.778V54.69ZM102.639 57.182C101.846 57.182 101.146 57.0187 100.539 56.692C99.9419 56.3653 99.4799 55.9033 99.1533 55.306C98.8266 54.6993 98.6633 53.9853 98.6633 53.164C98.6633 51.904 99.0179 50.938 99.7273 50.266C100.437 49.594 101.407 49.258 102.639 49.258C103.862 49.258 104.828 49.594 105.537 50.266C106.247 50.938 106.601 51.904 106.601 53.164C106.601 53.9853 106.438 54.6993 106.111 55.306C105.785 55.9033 105.323 56.3653 104.725 56.692C104.128 57.0187 103.433 57.182 102.639 57.182ZM100.875 53.164C100.875 53.8827 101.039 54.4613 101.365 54.9C101.692 55.3387 102.117 55.558 102.639 55.558C103.162 55.558 103.582 55.3387 103.899 54.9C104.226 54.4613 104.389 53.8827 104.389 53.164C104.389 52.4173 104.231 51.8527 103.913 51.47C103.605 51.078 103.181 50.882 102.639 50.882C102.098 50.882 101.669 51.078 101.351 51.47C101.034 51.8527 100.875 52.4173 100.875 53.164ZM110.101 49.412V50.322C110.446 50.0233 110.838 49.79 111.277 49.622C111.725 49.454 112.168 49.37 112.607 49.37C113.325 49.37 113.895 49.58 114.315 50C114.744 50.42 114.959 50.966 114.959 51.638V56.972H112.719V52.016C112.719 51.7453 112.607 51.526 112.383 51.358C112.159 51.1807 111.893 51.092 111.585 51.092C111.389 51.092 111.141 51.1573 110.843 51.288C110.553 51.4187 110.306 51.5773 110.101 51.764V56.972H107.861V49.412H110.101ZM121.769 57.014C121.619 56.734 121.531 56.4353 121.503 56.118C121.157 56.426 120.742 56.6827 120.257 56.888C119.781 57.084 119.309 57.182 118.843 57.182C118.124 57.182 117.55 56.972 117.121 56.552C116.701 56.132 116.491 55.5907 116.491 54.928V49.44H118.731V54.55C118.731 54.8207 118.819 55.0447 118.997 55.222C119.183 55.39 119.426 55.474 119.725 55.474C119.921 55.474 120.182 55.404 120.509 55.264C120.845 55.124 121.125 54.97 121.349 54.802V49.44H123.589V55.558C123.589 55.866 123.607 56.1273 123.645 56.342C123.682 56.5473 123.757 56.7713 123.869 57.014H121.769ZM128.173 57.168C127.603 57.196 127.025 57.1493 126.437 57.028C125.858 56.916 125.354 56.7387 124.925 56.496V54.48C125.307 54.76 125.765 54.9933 126.297 55.18C126.838 55.3573 127.314 55.432 127.725 55.404C128.014 55.3853 128.224 55.3247 128.355 55.222C128.485 55.11 128.56 54.998 128.579 54.886C128.625 54.5967 128.555 54.3773 128.369 54.228C128.182 54.0787 127.832 53.934 127.319 53.794C126.749 53.6353 126.297 53.4533 125.961 53.248C125.625 53.0333 125.368 52.7953 125.191 52.534C125.023 52.2633 124.939 51.9227 124.939 51.512C124.939 51.0827 125.051 50.7 125.275 50.364C125.499 50.0187 125.853 49.748 126.339 49.552C126.824 49.356 127.347 49.258 127.907 49.258C128.327 49.258 128.751 49.3 129.181 49.384C129.61 49.4587 129.969 49.5613 130.259 49.692V51.498C129.96 51.3487 129.605 51.218 129.195 51.106C128.793 50.9847 128.443 50.924 128.145 50.924C127.51 50.924 127.165 51.092 127.109 51.428C127.081 51.624 127.169 51.7967 127.375 51.946C127.589 52.0953 127.893 52.2307 128.285 52.352C128.845 52.5293 129.302 52.7113 129.657 52.898C130.021 53.0847 130.305 53.3273 130.511 53.626C130.716 53.9247 130.819 54.3073 130.819 54.774C130.819 55.4647 130.571 56.0293 130.077 56.468C129.582 56.8973 128.947 57.1307 128.173 57.168ZM138.971 57.182C138.261 57.182 137.641 57.014 137.109 56.678C136.586 56.342 136.18 55.88 135.891 55.292C135.611 54.704 135.471 54.018 135.471 53.234C135.471 52.4593 135.611 51.7733 135.891 51.176C136.18 50.5693 136.581 50.098 137.095 49.762C137.617 49.426 138.224 49.258 138.915 49.258C139.232 49.258 139.549 49.3187 139.867 49.44C140.193 49.552 140.497 49.7107 140.777 49.916V49.44H143.017V55.236C143.017 55.992 143.11 56.58 143.297 57H141.197C141.131 56.8693 141.075 56.7013 141.029 56.496C140.45 56.9533 139.764 57.182 138.971 57.182ZM137.613 53.234C137.613 53.6633 137.697 54.0553 137.865 54.41C138.042 54.7647 138.271 55.0493 138.551 55.264C138.84 55.4693 139.143 55.572 139.461 55.572C139.685 55.572 139.937 55.5253 140.217 55.432C140.497 55.3293 140.739 55.1147 140.945 54.788V51.652C140.739 51.3253 140.497 51.1153 140.217 51.022C139.946 50.9287 139.694 50.882 139.461 50.882C139.143 50.882 138.84 50.9847 138.551 51.19C138.271 51.3953 138.042 51.68 137.865 52.044C137.697 52.3987 137.613 52.7953 137.613 53.234ZM146.799 49.412V50.322C147.144 50.0233 147.536 49.79 147.975 49.622C148.423 49.454 148.866 49.37 149.305 49.37C150.023 49.37 150.593 49.58 151.013 50C151.442 50.42 151.657 50.966 151.657 51.638V56.972H149.417V52.016C149.417 51.7453 149.305 51.526 149.081 51.358C148.857 51.1807 148.591 51.092 148.283 51.092C148.087 51.092 147.839 51.1573 147.541 51.288C147.251 51.4187 147.004 51.5773 146.799 51.764V56.972H144.559V49.412H146.799ZM156.367 57.182C155.676 57.182 155.069 57.0187 154.547 56.692C154.024 56.356 153.623 55.8893 153.343 55.292C153.063 54.6947 152.923 54.0133 152.923 53.248C152.923 52.4733 153.063 51.7873 153.343 51.19C153.632 50.5833 154.033 50.112 154.547 49.776C155.069 49.44 155.676 49.272 156.367 49.272C156.684 49.272 157.001 49.328 157.319 49.44C157.645 49.552 157.949 49.7153 158.229 49.93V46.234H160.469V55.25C160.469 55.9967 160.562 56.58 160.749 57H158.649C158.583 56.8693 158.527 56.7013 158.481 56.496C157.893 56.9533 157.188 57.182 156.367 57.182ZM155.065 53.248C155.065 53.6773 155.149 54.0693 155.317 54.424C155.494 54.7787 155.723 55.0633 156.003 55.278C156.292 55.4833 156.595 55.586 156.913 55.586C157.165 55.586 157.44 55.5253 157.739 55.404C158.047 55.2827 158.299 55.0307 158.495 54.648V51.834C158.299 51.442 158.047 51.1853 157.739 51.064C157.44 50.9427 157.165 50.882 156.913 50.882C156.595 50.882 156.292 50.9847 156.003 51.19C155.723 51.3953 155.494 51.68 155.317 52.044C155.149 52.408 155.065 52.8093 155.065 53.248ZM172.087 56.748C171.369 57.0373 170.631 57.182 169.875 57.182C169.082 57.182 168.349 57.0233 167.677 56.706C167.015 56.3793 166.487 55.922 166.095 55.334C165.703 54.7367 165.507 54.0507 165.507 53.276C165.507 52.464 165.694 51.7547 166.067 51.148C166.441 50.5413 166.949 50.0793 167.593 49.762C168.247 49.4353 168.975 49.272 169.777 49.272C170.505 49.272 171.243 49.4027 171.989 49.664V51.386C171.42 51.1433 170.837 51.022 170.239 51.022C169.502 51.022 168.891 51.1993 168.405 51.554C167.92 51.8993 167.677 52.4733 167.677 53.276C167.677 53.7333 167.803 54.1207 168.055 54.438C168.307 54.7553 168.634 54.998 169.035 55.166C169.437 55.3247 169.861 55.404 170.309 55.404C170.655 55.404 170.981 55.3573 171.289 55.264C171.607 55.1613 171.873 55.0213 172.087 54.844V56.748ZM177.047 57.182C176.254 57.182 175.554 57.0187 174.947 56.692C174.35 56.3653 173.888 55.9033 173.561 55.306C173.234 54.6993 173.071 53.9853 173.071 53.164C173.071 51.904 173.426 50.938 174.135 50.266C174.844 49.594 175.815 49.258 177.047 49.258C178.27 49.258 179.236 49.594 179.945 50.266C180.654 50.938 181.009 51.904 181.009 53.164C181.009 53.9853 180.846 54.6993 180.519 55.306C180.192 55.9033 179.73 56.3653 179.133 56.692C178.536 57.0187 177.84 57.182 177.047 57.182ZM175.283 53.164C175.283 53.8827 175.446 54.4613 175.773 54.9C176.1 55.3387 176.524 55.558 177.047 55.558C177.57 55.558 177.99 55.3387 178.307 54.9C178.634 54.4613 178.797 53.8827 178.797 53.164C178.797 52.4173 178.638 51.8527 178.321 51.47C178.013 51.078 177.588 50.882 177.047 50.882C176.506 50.882 176.076 51.078 175.759 51.47C175.442 51.8527 175.283 52.4173 175.283 53.164ZM184.508 49.412V50.322C184.854 50.0233 185.246 49.79 185.684 49.622C186.132 49.454 186.576 49.37 187.014 49.37C187.733 49.37 188.302 49.58 188.722 50C189.152 50.42 189.366 50.966 189.366 51.638V56.972H187.126V52.016C187.126 51.7453 187.014 51.526 186.79 51.358C186.566 51.1807 186.3 51.092 185.992 51.092C185.796 51.092 185.549 51.1573 185.25 51.288C184.961 51.4187 184.714 51.5773 184.508 51.764V56.972H182.268V49.412H184.508ZM191.5 49.44V47.284H193.6V49.44H195.056V51.148H193.6V54.396C193.6 54.6667 193.619 54.872 193.656 55.012C193.703 55.152 193.782 55.25 193.894 55.306C194.006 55.3527 194.17 55.376 194.384 55.376C194.524 55.376 194.641 55.3713 194.734 55.362C194.837 55.3527 194.926 55.3387 195 55.32V57.042C194.608 57.0887 194.244 57.112 193.908 57.112C193.264 57.112 192.784 57.0467 192.466 56.916C192.149 56.7853 191.906 56.5613 191.738 56.244C191.58 55.9173 191.5 55.4553 191.5 54.858V51.148H190.408V49.44H191.5ZM198.601 49.44V57H196.361V49.44H198.601ZM196.361 46.234H198.601V48.474H196.361V46.234ZM202.565 49.412V50.322C202.91 50.0233 203.302 49.79 203.741 49.622C204.189 49.454 204.632 49.37 205.071 49.37C205.79 49.37 206.359 49.58 206.779 50C207.208 50.42 207.423 50.966 207.423 51.638V56.972H205.183V52.016C205.183 51.7453 205.071 51.526 204.847 51.358C204.623 51.1807 204.357 51.092 204.049 51.092C203.853 51.092 203.606 51.1573 203.307 51.288C203.018 51.4187 202.77 51.5773 202.565 51.764V56.972H200.325V49.412H202.565ZM214.233 57.014C214.084 56.734 213.995 56.4353 213.967 56.118C213.622 56.426 213.206 56.6827 212.721 56.888C212.245 57.084 211.774 57.182 211.307 57.182C210.588 57.182 210.014 56.972 209.585 56.552C209.165 56.132 208.955 55.5907 208.955 54.928V49.44H211.195V54.55C211.195 54.8207 211.284 55.0447 211.461 55.222C211.648 55.39 211.89 55.474 212.189 55.474C212.385 55.474 212.646 55.404 212.973 55.264C213.309 55.124 213.589 54.97 213.813 54.802V49.44H216.053V55.558C216.053 55.866 216.072 56.1273 216.109 56.342C216.146 56.5473 216.221 56.7713 216.333 57.014H214.233ZM224.473 56.594C224.119 56.8087 223.703 56.9673 223.227 57.07C222.761 57.1727 222.308 57.224 221.869 57.224C220.376 57.224 219.242 56.8693 218.467 56.16C217.702 55.4507 217.319 54.4567 217.319 53.178C217.319 51.9087 217.66 50.938 218.341 50.266C219.032 49.5847 219.97 49.244 221.155 49.244C222.331 49.244 223.26 49.5847 223.941 50.266C224.632 50.938 224.977 51.9087 224.977 53.178C224.977 53.318 224.968 53.5187 224.949 53.78H219.503C219.709 54.984 220.497 55.586 221.869 55.586C222.831 55.586 223.699 55.3013 224.473 54.732V56.594ZM222.863 52.212C222.742 51.7453 222.532 51.4 222.233 51.176C221.935 50.952 221.575 50.84 221.155 50.84C220.763 50.84 220.427 50.9567 220.147 51.19C219.877 51.4233 219.685 51.764 219.573 52.212H222.863ZM229.281 57.168C228.712 57.196 228.133 57.1493 227.545 57.028C226.967 56.916 226.463 56.7387 226.033 56.496V54.48C226.416 54.76 226.873 54.9933 227.405 55.18C227.947 55.3573 228.423 55.432 228.833 55.404C229.123 55.3853 229.333 55.3247 229.463 55.222C229.594 55.11 229.669 54.998 229.687 54.886C229.734 54.5967 229.664 54.3773 229.477 54.228C229.291 54.0787 228.941 53.934 228.427 53.794C227.858 53.6353 227.405 53.4533 227.069 53.248C226.733 53.0333 226.477 52.7953 226.299 52.534C226.131 52.2633 226.047 51.9227 226.047 51.512C226.047 51.0827 226.159 50.7 226.383 50.364C226.607 50.0187 226.962 49.748 227.447 49.552C227.933 49.356 228.455 49.258 229.015 49.258C229.435 49.258 229.86 49.3 230.289 49.384C230.719 49.4587 231.078 49.5613 231.367 49.692V51.498C231.069 51.3487 230.714 51.218 230.303 51.106C229.902 50.9847 229.552 50.924 229.253 50.924C228.619 50.924 228.273 51.092 228.217 51.428C228.189 51.624 228.278 51.7967 228.483 51.946C228.698 52.0953 229.001 52.2307 229.393 52.352C229.953 52.5293 230.411 52.7113 230.765 52.898C231.129 53.0847 231.414 53.3273 231.619 53.626C231.825 53.9247 231.927 54.3073 231.927 54.774C231.927 55.4647 231.68 56.0293 231.185 56.468C230.691 56.8973 230.056 57.1307 229.281 57.168ZM239.099 49.412V50.322C239.444 50.0233 239.836 49.79 240.275 49.622C240.723 49.454 241.166 49.37 241.605 49.37C242.324 49.37 242.893 49.58 243.313 50C243.742 50.42 243.957 50.966 243.957 51.638V56.972H241.717V52.016C241.717 51.7453 241.605 51.526 241.381 51.358C241.157 51.1807 240.891 51.092 240.583 51.092C240.387 51.092 240.14 51.1573 239.841 51.288C239.552 51.4187 239.304 51.5773 239.099 51.764V56.972H236.859V49.412H239.099ZM252.377 56.594C252.022 56.8087 251.607 56.9673 251.131 57.07C250.664 57.1727 250.212 57.224 249.773 57.224C248.28 57.224 247.146 56.8693 246.371 56.16C245.606 55.4507 245.223 54.4567 245.223 53.178C245.223 51.9087 245.564 50.938 246.245 50.266C246.936 49.5847 247.874 49.244 249.059 49.244C250.235 49.244 251.164 49.5847 251.845 50.266C252.536 50.938 252.881 51.9087 252.881 53.178C252.881 53.318 252.872 53.5187 252.853 53.78H247.407C247.612 54.984 248.401 55.586 249.773 55.586C250.734 55.586 251.602 55.3013 252.377 54.732V56.594ZM250.767 52.212C250.646 51.7453 250.436 51.4 250.137 51.176C249.838 50.952 249.479 50.84 249.059 50.84C248.667 50.84 248.331 50.9567 248.051 51.19C247.78 51.4233 247.589 51.764 247.477 52.212H250.767ZM257.444 54.592H257.388L255.806 57H253.51L256.156 53.248L253.454 49.44H255.722L257.388 51.918H257.444L259.11 49.44H261.378L258.676 53.248L261.322 57H259.026L257.444 54.592ZM263.092 49.44V47.284H265.192V49.44H266.648V51.148H265.192V54.396C265.192 54.6667 265.21 54.872 265.248 55.012C265.294 55.152 265.374 55.25 265.486 55.306C265.598 55.3527 265.761 55.376 265.976 55.376C266.116 55.376 266.232 55.3713 266.326 55.362C266.428 55.3527 266.517 55.3387 266.592 55.32V57.042C266.2 57.0887 265.836 57.112 265.5 57.112C264.856 57.112 264.375 57.0467 264.058 56.916C263.74 56.7853 263.498 56.5613 263.33 56.244C263.171 55.9173 263.092 55.4553 263.092 54.858V51.148H262V49.44H263.092ZM273.787 49.44V50.252C274.03 49.9907 274.319 49.79 274.655 49.65C275.001 49.5007 275.341 49.426 275.677 49.426C275.911 49.426 276.13 49.4587 276.335 49.524V51.246C276.074 51.1807 275.827 51.148 275.593 51.148C275.239 51.148 274.903 51.2087 274.585 51.33C274.268 51.442 274.002 51.624 273.787 51.876V57H271.547V49.44H273.787ZM280.825 57.182C280.031 57.182 279.331 57.0187 278.725 56.692C278.127 56.3653 277.665 55.9033 277.339 55.306C277.012 54.6993 276.849 53.9853 276.849 53.164C276.849 51.904 277.203 50.938 277.913 50.266C278.622 49.594 279.593 49.258 280.825 49.258C282.047 49.258 283.014 49.594 283.723 50.266C284.432 50.938 284.787 51.904 284.787 53.164C284.787 53.9853 284.623 54.6993 284.297 55.306C283.97 55.9033 283.508 56.3653 282.911 56.692C282.313 57.0187 281.618 57.182 280.825 57.182ZM279.061 53.164C279.061 53.8827 279.224 54.4613 279.551 54.9C279.877 55.3387 280.302 55.558 280.825 55.558C281.347 55.558 281.767 55.3387 282.085 54.9C282.411 54.4613 282.575 53.8827 282.575 53.164C282.575 52.4173 282.416 51.8527 282.099 51.47C281.791 51.078 281.366 50.882 280.825 50.882C280.283 50.882 279.854 51.078 279.537 51.47C279.219 51.8527 279.061 52.4173 279.061 53.164ZM291.31 57.014C291.161 56.734 291.072 56.4353 291.044 56.118C290.699 56.426 290.284 56.6827 289.798 56.888C289.322 57.084 288.851 57.182 288.384 57.182C287.666 57.182 287.092 56.972 286.662 56.552C286.242 56.132 286.032 55.5907 286.032 54.928V49.44H288.272V54.55C288.272 54.8207 288.361 55.0447 288.538 55.222C288.725 55.39 288.968 55.474 289.266 55.474C289.462 55.474 289.724 55.404 290.05 55.264C290.386 55.124 290.666 54.97 290.89 54.802V49.44H293.13V55.558C293.13 55.866 293.149 56.1273 293.186 56.342C293.224 56.5473 293.298 56.7713 293.41 57.014H291.31ZM296.916 49.412V50.322C297.262 50.0233 297.654 49.79 298.092 49.622C298.54 49.454 298.984 49.37 299.422 49.37C300.141 49.37 300.71 49.58 301.13 50C301.56 50.42 301.774 50.966 301.774 51.638V56.972H299.534V52.016C299.534 51.7453 299.422 51.526 299.198 51.358C298.974 51.1807 298.708 51.092 298.4 51.092C298.204 51.092 297.957 51.1573 297.658 51.288C297.369 51.4187 297.122 51.5773 296.916 51.764V56.972H294.676V49.412H296.916ZM306.484 57.182C305.794 57.182 305.187 57.0187 304.664 56.692C304.142 56.356 303.74 55.8893 303.46 55.292C303.18 54.6947 303.04 54.0133 303.04 53.248C303.04 52.4733 303.18 51.7873 303.46 51.19C303.75 50.5833 304.151 50.112 304.664 49.776C305.187 49.44 305.794 49.272 306.484 49.272C306.802 49.272 307.119 49.328 307.436 49.44C307.763 49.552 308.066 49.7153 308.346 49.93V46.234H310.586V55.25C310.586 55.9967 310.68 56.58 310.866 57H308.766C308.701 56.8693 308.645 56.7013 308.598 56.496C308.01 56.9533 307.306 57.182 306.484 57.182ZM305.182 53.248C305.182 53.6773 305.266 54.0693 305.434 54.424C305.612 54.7787 305.84 55.0633 306.12 55.278C306.41 55.4833 306.713 55.586 307.03 55.586C307.282 55.586 307.558 55.5253 307.856 55.404C308.164 55.2827 308.416 55.0307 308.612 54.648V51.834C308.416 51.442 308.164 51.1853 307.856 51.064C307.558 50.9427 307.282 50.882 307.03 50.882C306.713 50.882 306.41 50.9847 306.12 51.19C305.84 51.3953 305.612 51.68 305.434 52.044C305.266 52.408 305.182 52.8093 305.182 53.248Z" fill="#919191"/>
</svg>
