<svg width="140" height="60" viewBox="0 0 140 60" fill="none" xmlns="http://www.w3.org/2000/svg">
<rect x="2" y="2" width="136" height="56" rx="16" fill="white"/>
<rect x="2" y="2" width="136" height="56" rx="16" stroke="#747FF0" stroke-width="3"/>
<path d="M26.5834 38H37.2501L41.2501 42V27.3333C41.2501 25.8593 40.0574 24.6666 38.5834 24.6666H26.5834C25.1095 24.6666 23.9167 25.8593 23.9167 27.3333V35.3333C23.9167 36.8073 25.1095 38 26.5834 38Z" fill="#F6A711"/>
<path d="M32.5833 31.3333H21.25L17.25 35.3333V20.6667C17.25 19.1927 18.4427 18 19.9167 18H32.5833C34.0573 18 35.25 19.1927 35.25 20.6667V28.6667C35.25 30.1406 34.0573 31.3333 32.5833 31.3333Z" fill="#FFDB8B"/>
<path d="M51.132 35.712C52.536 35.4 53.682 35.052 54.57 34.668C55.47 34.284 56.22 33.792 56.82 33.192H50.79V31.032H52.266V26.46H58.098V25.128H60.402V26.46H66.234V31.032H67.71V33.192H61.68C62.28 33.792 63.024 34.284 63.912 34.668C64.812 35.052 65.964 35.4 67.368 35.712V37.98C65.256 37.548 63.552 36.99 62.256 36.306C60.972 35.634 59.97 34.794 59.25 33.786C58.53 34.794 57.522 35.634 56.226 36.306C54.942 36.99 53.244 37.548 51.132 37.98V35.712ZM51.33 22.41H54.876V21.33H57.216V22.41H61.284V21.33H63.624V22.41H67.17V24.642H63.624V25.65H61.284V24.642H57.216V25.65H54.876V24.642H51.33V22.41ZM58.116 31.032V28.62H54.57V31.032H58.116ZM63.93 31.032V28.62H60.402V31.032H63.93ZM85.35 37.98C82.05 37.26 79.35 36.222 77.25 34.866C75.15 36.222 72.45 37.26 69.15 37.98V35.496C71.67 34.812 73.674 34.062 75.162 33.246C73.026 31.254 71.67 28.65 71.094 25.434H69.15V23.13H76.08V21.42H78.42V23.13H85.35V25.434H83.406C82.83 28.65 81.474 31.254 79.338 33.246C80.826 34.062 82.83 34.812 85.35 35.496V37.98ZM73.578 25.434C73.866 26.826 74.316 28.05 74.928 29.106C75.54 30.15 76.314 31.062 77.25 31.842C78.186 31.062 78.96 30.15 79.572 29.106C80.184 28.05 80.634 26.826 80.922 25.434H73.578ZM94.71 27.738H96.924L98.274 33.246H96.06L94.71 27.738ZM87.312 22.752H94.314L94.188 24.696C94.116 26.208 93.924 27.588 93.612 28.836C93.3 30.072 92.85 31.23 92.262 32.31C92.862 33.15 93.636 33.942 94.584 34.686V37.692C93.132 36.612 91.926 35.466 90.966 34.254C89.982 35.478 88.77 36.624 87.33 37.692V34.686C88.278 33.942 89.052 33.15 89.652 32.31C89.064 31.254 88.614 30.114 88.302 28.89C88.002 27.666 87.81 26.316 87.726 24.84H87.312V22.752ZM89.94 24.84C90.024 26.796 90.366 28.506 90.966 29.97C91.554 28.494 91.89 26.784 91.974 24.84H89.94ZM94.638 23.688H99.552V21.6H101.856V23.688H103.44V25.992H101.856L101.838 37.8H97.77V35.46H99.552V25.992H94.638V23.688ZM120.936 37.62H111.396V30.51H114.978V28.314H110.856V26.154H114.996V24.048C113.784 24.096 112.56 24.12 111.324 24.12V21.96C112.752 21.96 114.462 21.918 116.454 21.834C118.458 21.75 119.976 21.636 121.008 21.492V23.652C120.144 23.784 118.914 23.886 117.318 23.958V26.154H121.476V28.314H117.3V30.51H120.936V37.62ZM104.88 26.73H108.948V34.326L110.694 33.732V36.414L106.59 37.8V29.124H104.88V26.73ZM108.228 21.6L109.47 25.506H107.022L105.78 21.6H108.228ZM118.596 35.442V32.688H113.736V35.442H118.596Z" fill="#273430"/>
</svg>
