<svg width="165" height="60" viewBox="0 0 165 60" fill="none" xmlns="http://www.w3.org/2000/svg">
<rect x="2" y="2" width="161" height="56" rx="16" fill="white"/>
<rect x="2" y="2" width="161" height="56" rx="16" stroke="#E6E6E6" stroke-width="3"/>
<path d="M26.5834 38H37.2501L41.2501 42V27.3333C41.2501 25.8593 40.0574 24.6666 38.5834 24.6666H26.5834C25.1095 24.6666 23.9167 25.8593 23.9167 27.3333V35.3333C23.9167 36.8073 25.1095 38 26.5834 38Z" fill="#F6A711"/>
<path d="M32.5833 31.3333H21.25L17.25 35.3333V20.6667C17.25 19.1927 18.4427 18 19.9167 18H32.5833C34.0573 18 35.25 19.1927 35.25 20.6667V28.6667C35.25 30.1406 34.0573 31.3333 32.5833 31.3333Z" fill="#FFDB8B"/>
<path d="M53.6786 23.4H62.5346V25.848H56.6486V28.548H61.7606V30.834H56.6486V33.552H62.5346V36H53.6786V23.4ZM67.1792 26.208H67.0712V36H64.1552V23.4H68.8892L71.8952 33.354H72.1292V23.4H75.0452V36H70.2032L67.1792 26.208ZM85.7619 36.234C84.8739 36.234 84.0939 36.024 83.4219 35.604C82.7499 35.172 82.2339 34.572 81.8739 33.804C81.5139 33.036 81.3339 32.16 81.3339 31.176C81.3339 30.18 81.5139 29.298 81.8739 28.53C82.2459 27.75 82.7619 27.144 83.4219 26.712C84.0939 26.28 84.8739 26.064 85.7619 26.064C86.1699 26.064 86.5779 26.136 86.9859 26.28C87.4059 26.424 87.7959 26.634 88.1559 26.91V22.158H91.0359V33.75C91.0359 34.71 91.1559 35.46 91.3959 36H88.6959C88.6119 35.832 88.5399 35.616 88.4799 35.352C87.7239 35.94 86.8179 36.234 85.7619 36.234ZM84.0879 31.176C84.0879 31.728 84.1959 32.232 84.4119 32.688C84.6399 33.144 84.9339 33.51 85.2939 33.786C85.6659 34.05 86.0559 34.182 86.4639 34.182C86.7879 34.182 87.1419 34.104 87.5259 33.948C87.9219 33.792 88.2459 33.468 88.4979 32.976V29.358C88.2459 28.854 87.9219 28.524 87.5259 28.368C87.1419 28.212 86.7879 28.134 86.4639 28.134C86.0559 28.134 85.6659 28.266 85.2939 28.53C84.9339 28.794 84.6399 29.16 84.4119 29.628C84.1959 30.096 84.0879 30.612 84.0879 31.176ZM95.9525 26.28V36H93.0725V26.28H95.9525ZM93.0725 22.158H95.9525V25.038H93.0725V22.158ZM102.129 36.234C101.217 36.234 100.419 36.018 99.7349 35.586C99.0629 35.154 98.5409 34.56 98.1689 33.804C97.8089 33.048 97.6289 32.166 97.6289 31.158C97.6289 30.162 97.8089 29.28 98.1689 28.512C98.5409 27.732 99.0569 27.126 99.7169 26.694C100.389 26.262 101.169 26.046 102.057 26.046C102.465 26.046 102.873 26.124 103.281 26.28C103.701 26.424 104.091 26.628 104.451 26.892V26.28H107.331V33.732C107.331 34.704 107.451 35.46 107.691 36H104.991C104.907 35.832 104.835 35.616 104.775 35.352C104.031 35.94 103.149 36.234 102.129 36.234ZM100.383 31.158C100.383 31.71 100.491 32.214 100.707 32.67C100.935 33.126 101.229 33.492 101.589 33.768C101.961 34.032 102.351 34.164 102.759 34.164C103.047 34.164 103.371 34.104 103.731 33.984C104.091 33.852 104.403 33.576 104.667 33.156V29.124C104.403 28.704 104.091 28.434 103.731 28.314C103.383 28.194 103.059 28.134 102.759 28.134C102.351 28.134 101.961 28.266 101.589 28.53C101.229 28.794 100.935 29.16 100.707 29.628C100.491 30.084 100.383 30.594 100.383 31.158ZM112.409 36.144C111.329 36.144 110.513 35.844 109.961 35.244C109.409 34.632 109.133 33.738 109.133 32.562V22.158H112.013V31.842C112.013 32.322 112.049 32.688 112.121 32.94C112.193 33.192 112.313 33.384 112.481 33.516C112.613 33.624 112.757 33.696 112.913 33.732C113.081 33.756 113.369 33.768 113.777 33.768V36.144H112.409ZM119.616 36.234C118.596 36.234 117.696 36.024 116.916 35.604C116.148 35.184 115.554 34.59 115.134 33.822C114.714 33.042 114.504 32.124 114.504 31.068C114.504 29.448 114.96 28.206 115.872 27.342C116.784 26.478 118.032 26.046 119.616 26.046C121.188 26.046 122.43 26.478 123.342 27.342C124.254 28.206 124.71 29.448 124.71 31.068C124.71 32.124 124.5 33.042 124.08 33.822C123.66 34.59 123.066 35.184 122.298 35.604C121.53 36.024 120.636 36.234 119.616 36.234ZM117.348 31.068C117.348 31.992 117.558 32.736 117.978 33.3C118.398 33.864 118.944 34.146 119.616 34.146C120.288 34.146 120.828 33.864 121.236 33.3C121.656 32.736 121.866 31.992 121.866 31.068C121.866 30.108 121.662 29.382 121.254 28.89C120.858 28.386 120.312 28.134 119.616 28.134C118.92 28.134 118.368 28.386 117.96 28.89C117.552 29.382 117.348 30.108 117.348 31.068ZM130.433 40.104C129.701 40.104 128.963 40.056 128.219 39.96C127.487 39.864 126.827 39.726 126.239 39.546V37.188C127.523 37.476 128.807 37.62 130.091 37.62C130.907 37.62 131.525 37.44 131.945 37.08C132.365 36.72 132.575 36.222 132.575 35.586C131.915 36.018 131.129 36.234 130.217 36.234C129.329 36.234 128.549 36.018 127.877 35.586C127.205 35.154 126.689 34.56 126.329 33.804C125.969 33.036 125.789 32.154 125.789 31.158C125.789 30.162 125.969 29.28 126.329 28.512C126.701 27.732 127.217 27.126 127.877 26.694C128.549 26.262 129.329 26.046 130.217 26.046C131.045 26.046 131.831 26.322 132.575 26.874V26.28H135.383V35.964C135.383 38.724 133.733 40.104 130.433 40.104ZM128.543 31.158C128.543 31.71 128.651 32.214 128.867 32.67C129.095 33.126 129.389 33.492 129.749 33.768C130.121 34.032 130.511 34.164 130.919 34.164C131.219 34.164 131.555 34.098 131.927 33.966C132.299 33.822 132.617 33.528 132.881 33.084L132.971 32.724V29.394C132.719 28.878 132.395 28.542 131.999 28.386C131.603 28.218 131.243 28.134 130.919 28.134C130.511 28.134 130.121 28.266 129.749 28.53C129.389 28.794 129.095 29.16 128.867 29.628C128.651 30.084 128.543 30.594 128.543 31.158ZM141.094 36.216C140.362 36.252 139.618 36.192 138.862 36.036C138.118 35.892 137.47 35.664 136.918 35.352V32.76C137.41 33.12 137.998 33.42 138.682 33.66C139.378 33.888 139.99 33.984 140.518 33.948C140.89 33.924 141.16 33.846 141.328 33.714C141.496 33.57 141.592 33.426 141.616 33.282C141.676 32.91 141.586 32.628 141.346 32.436C141.106 32.244 140.656 32.058 139.996 31.878C139.264 31.674 138.682 31.44 138.25 31.176C137.818 30.9 137.488 30.594 137.26 30.258C137.044 29.91 136.936 29.472 136.936 28.944C136.936 28.392 137.08 27.9 137.368 27.468C137.656 27.024 138.112 26.676 138.736 26.424C139.36 26.172 140.032 26.046 140.752 26.046C141.292 26.046 141.838 26.1 142.39 26.208C142.942 26.304 143.404 26.436 143.776 26.604V28.926C143.392 28.734 142.936 28.566 142.408 28.422C141.892 28.266 141.442 28.188 141.058 28.188C140.242 28.188 139.798 28.404 139.726 28.836C139.69 29.088 139.804 29.31 140.068 29.502C140.344 29.694 140.734 29.868 141.238 30.024C141.958 30.252 142.546 30.486 143.002 30.726C143.47 30.966 143.836 31.278 144.1 31.662C144.364 32.046 144.496 32.538 144.496 33.138C144.496 34.026 144.178 34.752 143.542 35.316C142.906 35.868 142.09 36.168 141.094 36.216Z" fill="#273430"/>
</svg>
