<svg width="257" height="23" viewBox="0 0 257 23" fill="none" xmlns="http://www.w3.org/2000/svg">
<path d="M10.8159 20.364C8.78122 20.364 6.98922 19.9533 5.43989 19.132C3.90922 18.3107 2.73322 17.1533 1.91189 15.66C1.10922 14.148 0.707891 12.3747 0.707891 10.34C0.707891 8.34267 1.11856 6.56 1.93989 4.992C2.77989 3.424 3.96522 2.21067 5.49589 1.352C7.04522 0.474665 8.81856 0.0359983 10.8159 0.0359983C12.7199 0.0359983 14.4466 0.465332 15.9959 1.324C17.5639 2.18267 18.7679 3.396 19.6079 4.964C20.4666 6.532 20.8959 8.324 20.8959 10.34C20.8959 12.524 20.4292 14.3907 19.4959 15.94C18.5812 17.4707 17.2839 18.6093 15.6039 19.356C16.0519 20.2333 16.5279 21.2693 17.0319 22.464H12.8879C12.4772 21.568 12.1319 20.8493 11.8519 20.308C11.4226 20.3453 11.0772 20.364 10.8159 20.364ZM5.13189 10.34C5.13189 11.6467 5.36522 12.7947 5.83189 13.784C6.31722 14.7547 6.97989 15.52 7.81989 16.08C8.65989 16.6213 9.65856 16.892 10.8159 16.892C11.9546 16.892 12.9346 16.6213 13.7559 16.08C14.5959 15.52 15.2492 14.7547 15.7159 13.784C16.2012 12.7947 16.4439 11.6467 16.4439 10.34C16.4439 9.14533 16.2106 8.03467 15.7439 7.008C15.2959 5.96267 14.6426 5.104 13.7839 4.432C12.9439 3.76 11.9359 3.424 10.7599 3.424C9.65856 3.424 8.68789 3.75067 7.84789 4.404C7.00789 5.03867 6.34522 5.87867 5.85989 6.924C5.37456 7.95067 5.13189 9.08933 5.13189 10.34ZM32.3138 20.364C29.6818 20.364 27.5818 19.6547 26.0138 18.236C24.4644 16.8173 23.6898 14.8667 23.6898 12.384V0.399999H28.3098V12.384C28.3098 13.2053 28.4871 13.9147 28.8418 14.512C29.2151 15.1093 29.7098 15.576 30.3258 15.912C30.9418 16.2293 31.6044 16.388 32.3138 16.388C33.0418 16.388 33.7044 16.2293 34.3018 15.912C34.9178 15.576 35.4031 15.1093 35.7578 14.512C36.1124 13.896 36.2898 13.1867 36.2898 12.384V0.399999H40.9098V12.384C40.9098 14.8667 40.1258 16.8173 38.5578 18.236C37.0084 19.6547 34.9271 20.364 32.3138 20.364ZM44.3636 0.399999H48.9836V20H44.3636V0.399999ZM62.844 20.364C60.716 20.364 58.8214 19.972 57.16 19.188C55.5174 18.404 54.22 17.2653 53.268 15.772C52.3347 14.2787 51.868 12.5053 51.868 10.452C51.868 8.28667 52.3254 6.42933 53.24 4.88C54.1547 3.312 55.4334 2.11733 57.076 1.296C58.7187 0.455999 60.5947 0.0359983 62.704 0.0359983C63.7494 0.0359983 64.804 0.138665 65.868 0.343999C66.932 0.549332 67.8094 0.810666 68.5 1.128V4.6C66.6147 3.90933 64.86 3.564 63.236 3.564C61.2947 3.564 59.7174 4.13333 58.504 5.272C57.3094 6.41067 56.712 8.13733 56.712 10.452C56.712 11.684 57.0107 12.776 57.608 13.728C58.2054 14.6613 58.9894 15.3893 59.96 15.912C60.9307 16.4347 61.976 16.7333 63.096 16.808L63.712 16.836C64.5707 16.836 65.42 16.7147 66.26 16.472C67.1 16.2293 67.8467 15.9027 68.5 15.492V19.356C67.6974 19.7293 66.8387 19.9907 65.924 20.14C65.028 20.2893 64.0014 20.364 62.844 20.364ZM83.8887 19.972C82.6567 17.9373 81.6393 16.388 80.8367 15.324C80.034 14.26 79.0353 13.1773 77.8407 12.076H76.1887V20H71.5687V0.399999H76.1887V8.324H77.2247L82.6847 0.399999H87.7247L81.0047 9.976C82.5167 11.3573 83.8327 12.7853 84.9527 14.26C86.0727 15.7347 87.3233 17.6387 88.7047 19.972H83.8887ZM108.098 20.364C105.97 20.364 104.075 19.972 102.414 19.188C100.771 18.404 99.474 17.2653 98.522 15.772C97.5886 14.2787 97.122 12.5053 97.122 10.452C97.122 8.28667 97.5793 6.42933 98.494 4.88C99.4086 3.312 100.687 2.11733 102.33 1.296C103.973 0.455999 105.849 0.0359983 107.958 0.0359983C109.003 0.0359983 110.058 0.138665 111.122 0.343999C112.186 0.549332 113.063 0.810666 113.754 1.128V4.6C111.869 3.90933 110.114 3.564 108.49 3.564C106.549 3.564 104.971 4.13333 103.758 5.272C102.563 6.41067 101.966 8.13733 101.966 10.452C101.966 11.684 102.265 12.776 102.862 13.728C103.459 14.6613 104.243 15.3893 105.214 15.912C106.185 16.4347 107.23 16.7333 108.35 16.808L108.966 16.836C109.825 16.836 110.674 16.7147 111.514 16.472C112.354 16.2293 113.101 15.9027 113.754 15.492V19.356C112.951 19.7293 112.093 19.9907 111.178 20.14C110.282 20.2893 109.255 20.364 108.098 20.364ZM133.595 0.399999V20H128.975V11.712H121.443V20H116.823V0.399999H121.443V7.932H128.975V0.399999H133.595ZM148.54 14.456H142.268L140.784 20H135.884L141.568 0.399999H149.268L154.952 20H150.024L148.54 14.456ZM147.644 11.096L145.432 2.892H145.376L143.164 11.096H147.644ZM161.857 0.399999V16.22H169.781V20H157.237V0.399999H161.857ZM176.486 0.399999V16.22H184.41V20H171.866V0.399999H176.486ZM186.494 0.399999H200.27V4.208H191.114V8.408H199.066V11.964H191.114V16.192H200.27V20H186.494V0.399999ZM207.495 4.768H207.327V20H202.791V0.399999H210.155L214.831 15.884H215.195V0.399999H219.731V20H212.199L207.495 4.768ZM239.712 19.16C238.854 19.5707 237.93 19.8693 236.94 20.056C235.951 20.2613 234.803 20.364 233.496 20.364C231.35 20.364 229.455 19.9627 227.812 19.16C226.17 18.3573 224.872 17.2187 223.92 15.744C222.987 14.2507 222.52 12.5053 222.52 10.508C222.52 8.492 222.978 6.7 223.892 5.132C224.826 3.54533 226.104 2.304 227.728 1.408C229.371 0.493332 231.247 0.0359983 233.356 0.0359983C234.383 0.0359983 235.419 0.138665 236.464 0.343999C237.528 0.549332 238.424 0.801332 239.152 1.1V4.46C237.267 3.82533 235.512 3.508 233.888 3.508C231.872 3.508 230.239 4.08667 228.988 5.244C227.738 6.40133 227.112 8.156 227.112 10.508C227.112 11.7773 227.411 12.9067 228.008 13.896C228.624 14.8667 229.436 15.576 230.444 16.024C231.471 16.472 232.572 16.696 233.748 16.696C234.532 16.696 235.223 16.668 235.82 16.612V12.3H233.608V8.8H239.712V19.16ZM242.795 0.399999H256.571V4.208H247.415V8.408H255.367V11.964H247.415V16.192H256.571V20H242.795V0.399999Z" fill="#273430"/>
</svg>
