<svg width="111" height="27" viewBox="0 0 111 27" fill="none" xmlns="http://www.w3.org/2000/svg">
<path d="M21.732 25.856C20.556 23.2987 19.5293 19.9573 18.652 15.832H16.944C16.5333 17.848 16.076 19.6773 15.572 21.32C15.0867 22.9627 14.508 24.4747 13.836 25.856H9.916C11.3907 22.5893 12.52 19.248 13.304 15.832H10.476V13.088L8.068 11.576V26.024H4.512L4.484 0.375999H8.068V7.46L10.672 9.084V12.248H15.04V6.452H11.036V2.868H15.04V0.319998H18.68V2.868H25.288V12.248H26.632V15.832H22.292C23.0947 19.2853 24.2147 22.6267 25.652 25.856H21.732ZM0.452 15.58C0.844 12.2013 1.04 8.59867 1.04 4.772H3.672C3.672 8.56133 3.51333 12.164 3.196 15.58H0.452ZM21.816 12.248V6.452H18.568V12.248H21.816ZM54.38 22.02V25.52H40.66C38.9053 25.52 37.44 25.408 36.264 25.184C35.1067 24.9787 34.0613 24.6333 33.128 24.148L32.652 25.8H28.76C29.656 23.3733 30.3093 21.1147 30.72 19.024C31.1493 16.9147 31.4107 14.6467 31.504 12.22H28.34V8.58H35.116C35.116 10.9507 35.032 13.088 34.864 14.992C34.696 16.8773 34.416 18.7627 34.024 20.648C34.8827 21.1333 35.8253 21.488 36.852 21.712C37.8973 21.9173 39.1667 22.02 40.66 22.02H54.38ZM33.268 0.6L35.2 6.676H31.42L29.488 0.6H33.268ZM35.676 20.732C36.796 18.7907 37.4493 16.784 37.636 14.712H41.024C40.8 16.9893 40.268 18.996 39.428 20.732H35.676ZM36.152 1.44H43.348V0.319998H46.932V1.44H53.848V4.688H46.932V6.2H53.288V14.068H46.876V20.928H43.404V14.068H36.992V6.2H43.348V4.688H36.152V1.44ZM43.404 11.1V9.168H40.408V11.1H43.404ZM49.872 11.1V9.168H46.876V11.1H49.872ZM52.644 14.712C52.8307 16.784 53.484 18.7907 54.604 20.732H50.852C50.012 18.996 49.48 16.9893 49.256 14.712H52.644ZM64.376 22.216C66.3173 21.2267 67.6333 20.1533 68.324 18.996C69.0147 17.82 69.388 16.6067 69.444 15.356L65.216 18.268V15.496L63.2 16.028V25.8H57.544V22.412H59.56V16.952L56.788 17.652V13.76L59.56 13.06V7.88H57.068V4.352H59.56V0.459998H63.2V4.352H65.3V7.88H63.2V12.136L65.58 11.52V14.236L69.444 11.576V0.459998H72.804V14.6C72.804 16.168 72.6173 17.652 72.244 19.052C71.8707 20.452 71.0587 21.796 69.808 23.084C68.576 24.372 66.7653 25.3707 64.376 26.08V22.216ZM68.352 1.608L69.276 10.036H66.392L65.468 1.608H68.352ZM74.764 0.459998H78.124V12.248L82.268 15.3V19.192L78.124 16.14V22.132H82.66V25.716H74.764V0.459998ZM79.468 1.608H82.352L81.288 10.036H78.404L79.468 1.608ZM110.38 26.304C107.561 25.464 105.368 24.0733 103.8 22.132C103.072 22.8413 102.26 23.4387 101.364 23.924C100.487 24.428 99.4973 24.8947 98.396 25.324V21.208C99.8707 20.6293 101.056 19.864 101.952 18.912C101.037 16.616 100.58 13.732 100.58 10.26H98.032V6.844H100.524V0.459998H103.856V6.844H109.288V10.26H103.912C103.931 11.492 103.968 12.5373 104.024 13.396C104.08 14.2547 104.192 15.048 104.36 15.776C104.864 14.7493 105.256 13.5453 105.536 12.164H108.644C108.14 14.8147 107.272 17.204 106.04 19.332C107.011 20.5267 108.457 21.4973 110.38 22.244V26.304ZM85.432 11.968H89.212V0.459998H92.796V4.044H97.668V7.684H92.796V11.968H96.996V25.52H85.432V11.968ZM93.524 21.908V15.58H88.904V21.908H93.524ZM107.384 1.076L108.392 5.948H105.34L104.36 1.076H107.384Z" fill="#273430"/>
</svg>
