<svg width="165" height="60" viewBox="0 0 165 60" fill="none" xmlns="http://www.w3.org/2000/svg">
<rect x="2" y="2" width="161" height="56" rx="16" fill="white"/>
<rect x="2" y="2" width="161" height="56" rx="16" stroke="#747FF0" stroke-width="3"/>
<path d="M26.5834 38H37.2501L41.2501 42V27.3333C41.2501 25.8593 40.0574 24.6666 38.5834 24.6666H26.5834C25.1095 24.6666 23.9167 25.8593 23.9167 27.3333V35.3333C23.9167 36.8073 25.1095 38 26.5834 38Z" fill="#2EC28A"/>
<path d="M32.5833 31.3333H21.25L17.25 35.3333V20.6667C17.25 19.1927 18.4427 18 19.9167 18H32.5833C34.0573 18 35.25 19.1927 35.25 20.6667V28.6667C35.25 30.1406 34.0573 31.3333 32.5833 31.3333Z" fill="#92E6A9"/>
<path d="M59.4606 36.234C58.0926 36.234 56.8746 35.982 55.8066 35.478C54.7506 34.974 53.9166 34.242 53.3046 33.282C52.7046 32.322 52.4046 31.182 52.4046 29.862C52.4046 28.47 52.6986 27.276 53.2866 26.28C53.8746 25.272 54.6966 24.504 55.7526 23.976C56.8086 23.436 58.0146 23.166 59.3706 23.166C60.0426 23.166 60.7206 23.232 61.4046 23.364C62.0886 23.496 62.6526 23.664 63.0966 23.868V26.1C61.8846 25.656 60.7566 25.434 59.7126 25.434C58.4646 25.434 57.4506 25.8 56.6706 26.532C55.9026 27.264 55.5186 28.374 55.5186 29.862C55.5186 30.654 55.7106 31.356 56.0946 31.968C56.4786 32.568 56.9826 33.036 57.6066 33.372C58.2306 33.708 58.9026 33.9 59.6226 33.948L60.0186 33.966C60.5706 33.966 61.1166 33.888 61.6566 33.732C62.1966 33.576 62.6766 33.366 63.0966 33.102V35.586C62.5806 35.826 62.0286 35.994 61.4406 36.09C60.8646 36.186 60.2046 36.234 59.4606 36.234ZM68.0933 26.208H67.9853V36H65.0693V23.4H69.8033L72.8093 33.354H73.0433V23.4H75.9593V36H71.1173L68.0933 26.208ZM86.676 36.234C85.788 36.234 85.008 36.024 84.336 35.604C83.664 35.172 83.148 34.572 82.788 33.804C82.428 33.036 82.248 32.16 82.248 31.176C82.248 30.18 82.428 29.298 82.788 28.53C83.16 27.75 83.676 27.144 84.336 26.712C85.008 26.28 85.788 26.064 86.676 26.064C87.084 26.064 87.492 26.136 87.9 26.28C88.32 26.424 88.71 26.634 89.07 26.91V22.158H91.95V33.75C91.95 34.71 92.07 35.46 92.31 36H89.61C89.526 35.832 89.454 35.616 89.394 35.352C88.638 35.94 87.732 36.234 86.676 36.234ZM85.002 31.176C85.002 31.728 85.11 32.232 85.326 32.688C85.554 33.144 85.848 33.51 86.208 33.786C86.58 34.05 86.97 34.182 87.378 34.182C87.702 34.182 88.056 34.104 88.44 33.948C88.836 33.792 89.16 33.468 89.412 32.976V29.358C89.16 28.854 88.836 28.524 88.44 28.368C88.056 28.212 87.702 28.134 87.378 28.134C86.97 28.134 86.58 28.266 86.208 28.53C85.848 28.794 85.554 29.16 85.326 29.628C85.11 30.096 85.002 30.612 85.002 31.176ZM96.8665 26.28V36H93.9865V26.28H96.8665ZM93.9865 22.158H96.8665V25.038H93.9865V22.158ZM103.043 36.234C102.131 36.234 101.333 36.018 100.649 35.586C99.9769 35.154 99.4549 34.56 99.0829 33.804C98.7229 33.048 98.5429 32.166 98.5429 31.158C98.5429 30.162 98.7229 29.28 99.0829 28.512C99.4549 27.732 99.9709 27.126 100.631 26.694C101.303 26.262 102.083 26.046 102.971 26.046C103.379 26.046 103.787 26.124 104.195 26.28C104.615 26.424 105.005 26.628 105.365 26.892V26.28H108.245V33.732C108.245 34.704 108.365 35.46 108.605 36H105.905C105.821 35.832 105.749 35.616 105.689 35.352C104.945 35.94 104.063 36.234 103.043 36.234ZM101.297 31.158C101.297 31.71 101.405 32.214 101.621 32.67C101.849 33.126 102.143 33.492 102.503 33.768C102.875 34.032 103.265 34.164 103.673 34.164C103.961 34.164 104.285 34.104 104.645 33.984C105.005 33.852 105.317 33.576 105.581 33.156V29.124C105.317 28.704 105.005 28.434 104.645 28.314C104.297 28.194 103.973 28.134 103.673 28.134C103.265 28.134 102.875 28.266 102.503 28.53C102.143 28.794 101.849 29.16 101.621 29.628C101.405 30.084 101.297 30.594 101.297 31.158ZM113.323 36.144C112.243 36.144 111.427 35.844 110.875 35.244C110.323 34.632 110.047 33.738 110.047 32.562V22.158H112.927V31.842C112.927 32.322 112.963 32.688 113.035 32.94C113.107 33.192 113.227 33.384 113.395 33.516C113.527 33.624 113.671 33.696 113.827 33.732C113.995 33.756 114.283 33.768 114.691 33.768V36.144H113.323ZM120.53 36.234C119.51 36.234 118.61 36.024 117.83 35.604C117.062 35.184 116.468 34.59 116.048 33.822C115.628 33.042 115.418 32.124 115.418 31.068C115.418 29.448 115.874 28.206 116.786 27.342C117.698 26.478 118.946 26.046 120.53 26.046C122.102 26.046 123.344 26.478 124.256 27.342C125.168 28.206 125.624 29.448 125.624 31.068C125.624 32.124 125.414 33.042 124.994 33.822C124.574 34.59 123.98 35.184 123.212 35.604C122.444 36.024 121.55 36.234 120.53 36.234ZM118.262 31.068C118.262 31.992 118.472 32.736 118.892 33.3C119.312 33.864 119.858 34.146 120.53 34.146C121.202 34.146 121.742 33.864 122.15 33.3C122.57 32.736 122.78 31.992 122.78 31.068C122.78 30.108 122.576 29.382 122.168 28.89C121.772 28.386 121.226 28.134 120.53 28.134C119.834 28.134 119.282 28.386 118.874 28.89C118.466 29.382 118.262 30.108 118.262 31.068ZM131.347 40.104C130.615 40.104 129.877 40.056 129.133 39.96C128.401 39.864 127.741 39.726 127.153 39.546V37.188C128.437 37.476 129.721 37.62 131.005 37.62C131.821 37.62 132.439 37.44 132.859 37.08C133.279 36.72 133.489 36.222 133.489 35.586C132.829 36.018 132.043 36.234 131.131 36.234C130.243 36.234 129.463 36.018 128.791 35.586C128.119 35.154 127.603 34.56 127.243 33.804C126.883 33.036 126.703 32.154 126.703 31.158C126.703 30.162 126.883 29.28 127.243 28.512C127.615 27.732 128.131 27.126 128.791 26.694C129.463 26.262 130.243 26.046 131.131 26.046C131.959 26.046 132.745 26.322 133.489 26.874V26.28H136.297V35.964C136.297 38.724 134.647 40.104 131.347 40.104ZM129.457 31.158C129.457 31.71 129.565 32.214 129.781 32.67C130.009 33.126 130.303 33.492 130.663 33.768C131.035 34.032 131.425 34.164 131.833 34.164C132.133 34.164 132.469 34.098 132.841 33.966C133.213 33.822 133.531 33.528 133.795 33.084L133.885 32.724V29.394C133.633 28.878 133.309 28.542 132.913 28.386C132.517 28.218 132.157 28.134 131.833 28.134C131.425 28.134 131.035 28.266 130.663 28.53C130.303 28.794 130.009 29.16 129.781 29.628C129.565 30.084 129.457 30.594 129.457 31.158ZM142.008 36.216C141.276 36.252 140.532 36.192 139.776 36.036C139.032 35.892 138.384 35.664 137.832 35.352V32.76C138.324 33.12 138.912 33.42 139.596 33.66C140.292 33.888 140.904 33.984 141.432 33.948C141.804 33.924 142.074 33.846 142.242 33.714C142.41 33.57 142.506 33.426 142.53 33.282C142.59 32.91 142.5 32.628 142.26 32.436C142.02 32.244 141.57 32.058 140.91 31.878C140.178 31.674 139.596 31.44 139.164 31.176C138.732 30.9 138.402 30.594 138.174 30.258C137.958 29.91 137.85 29.472 137.85 28.944C137.85 28.392 137.994 27.9 138.282 27.468C138.57 27.024 139.026 26.676 139.65 26.424C140.274 26.172 140.946 26.046 141.666 26.046C142.206 26.046 142.752 26.1 143.304 26.208C143.856 26.304 144.318 26.436 144.69 26.604V28.926C144.306 28.734 143.85 28.566 143.322 28.422C142.806 28.266 142.356 28.188 141.972 28.188C141.156 28.188 140.712 28.404 140.64 28.836C140.604 29.088 140.718 29.31 140.982 29.502C141.258 29.694 141.648 29.868 142.152 30.024C142.872 30.252 143.46 30.486 143.916 30.726C144.384 30.966 144.75 31.278 145.014 31.662C145.278 32.046 145.41 32.538 145.41 33.138C145.41 34.026 145.092 34.752 144.456 35.316C143.82 35.868 143.004 36.168 142.008 36.216Z" fill="#273430"/>
</svg>
