<svg width="280" height="320" viewBox="0 0 280 320" fill="none" xmlns="http://www.w3.org/2000/svg">
<g filter="url(#filter0_ddd_539_2165)">
<path d="M47.7258 98.3522C47.4773 91.5339 47.3531 88.1247 48.6567 84.4937C49.7748 81.3793 51.8313 78.3654 54.3234 76.1886C57.2291 73.6507 61.4485 72.1731 69.8875 69.2179C87.8437 62.9299 105.167 54.497 121.5 44.6987C128.923 40.2451 132.635 38.0183 135.83 37.3168C139.002 36.6203 141.237 36.6203 144.408 37.3168C147.603 38.0183 151.315 40.2451 158.739 44.6987C175.072 54.497 192.395 62.9299 210.351 69.2179C218.79 72.1731 223.009 73.6507 225.915 76.1886C228.407 78.3654 230.463 81.3793 231.582 84.4937C232.885 88.1247 232.761 91.5339 232.512 98.3522C231.805 117.756 228.303 146.593 215.502 172.621C198.622 206.945 170.429 229.459 153.722 240.549C150.054 242.984 148.22 244.201 144.765 245.027C142.369 245.599 137.869 245.599 135.474 245.027C132.018 244.201 130.184 242.984 126.516 240.549C109.81 229.459 81.6164 206.945 64.736 172.621C51.9354 146.593 48.433 117.756 47.7258 98.3522Z" fill="black"/>
</g>
<mask id="mask0_539_2165" style="mask-type:alpha" maskUnits="userSpaceOnUse" x="47" y="36" width="186" height="210">
<path d="M47.7258 98.3522C47.4773 91.5339 47.3531 88.1247 48.6567 84.4937C49.7748 81.3793 51.8313 78.3654 54.3234 76.1886C57.2291 73.6507 61.4485 72.1731 69.8875 69.2179C87.8437 62.9299 105.167 54.497 121.5 44.6987C128.923 40.2451 132.635 38.0183 135.83 37.3168C139.002 36.6203 141.237 36.6203 144.408 37.3168C147.603 38.0183 151.315 40.2451 158.739 44.6987C175.072 54.497 192.395 62.9299 210.351 69.2179C218.79 72.1731 223.009 73.6507 225.915 76.1886C228.407 78.3654 230.463 81.3793 231.582 84.4937C232.885 88.1247 232.761 91.5339 232.512 98.3522C231.805 117.756 228.303 146.593 215.502 172.621C198.622 206.945 170.429 229.459 153.722 240.549C150.054 242.984 148.22 244.201 144.765 245.027C142.369 245.599 137.869 245.599 135.474 245.027C132.018 244.201 130.184 242.984 126.516 240.549C109.81 229.459 81.6164 206.945 64.736 172.621C51.9354 146.593 48.433 117.756 47.7258 98.3522Z" fill="black"/>
</mask>
<g mask="url(#mask0_539_2165)">
<mask id="mask1_539_2165" style="mask-type:alpha" maskUnits="userSpaceOnUse" x="47" y="36" width="186" height="210">
<path d="M47.7258 98.3522C47.4773 91.5339 47.3531 88.1247 48.6567 84.4937C49.7748 81.3793 51.8313 78.3654 54.3234 76.1886C57.2291 73.6507 61.4485 72.1731 69.8875 69.2179C87.8437 62.9299 105.167 54.497 121.5 44.6987C128.923 40.2451 132.635 38.0183 135.83 37.3168C139.002 36.6203 141.237 36.6203 144.408 37.3168C147.603 38.0183 151.315 40.2451 158.739 44.6987C175.072 54.497 192.395 62.9299 210.351 69.2179C218.79 72.1731 223.009 73.6507 225.915 76.1886C228.407 78.3654 230.463 81.3793 231.582 84.4937C232.885 88.1247 232.761 91.5339 232.512 98.3522C231.805 117.756 228.303 146.593 215.502 172.621C198.622 206.945 170.429 229.459 153.722 240.549C150.054 242.984 148.22 244.201 144.765 245.027C142.369 245.599 137.869 245.599 135.474 245.027C132.018 244.201 130.184 242.984 126.516 240.549C109.81 229.459 81.6164 206.945 64.736 172.621C51.9354 146.593 48.433 117.756 47.7258 98.3522Z" fill="black"/>
</mask>
<g mask="url(#mask1_539_2165)">
<rect width="280" height="280" fill="#4AB04D"/>
<rect width="280" height="280" fill="url(#paint0_linear_539_2165)" fill-opacity="0.6" style="mix-blend-mode:overlay"/>
<rect width="280" height="280" fill="url(#paint1_radial_539_2165)" fill-opacity="0.6" style="mix-blend-mode:overlay"/>
<rect width="280" height="280" fill="black" fill-opacity="0.16" style="mix-blend-mode:overlay"/>
<rect width="280" height="280" fill="black" fill-opacity="0.12" style="mix-blend-mode:darken"/>
</g>
<g filter="url(#filter1_d_539_2165)">
<mask id="mask2_539_2165" style="mask-type:alpha" maskUnits="userSpaceOnUse" x="47" y="36" width="186" height="210">
<path d="M135.83 37.3167C139.002 36.6203 141.237 36.6203 144.408 37.3167C147.603 38.0182 151.315 40.2451 158.739 44.6986C175.071 54.4969 192.395 62.9301 210.351 69.2181C218.79 72.1733 223.01 73.6509 225.915 76.1888C228.407 78.3656 230.464 81.3793 231.582 84.4935C232.886 88.1245 232.761 91.5338 232.513 98.3519L232.438 100.199C231.577 119.555 227.903 147.407 215.502 172.621L214.703 174.221C197.744 207.645 170.168 229.632 153.722 240.549C150.054 242.984 148.221 244.201 144.765 245.027L144.292 245.127C141.98 245.565 138.259 245.565 135.947 245.127L135.474 245.027C132.45 244.305 130.668 243.282 127.813 241.407L126.517 240.549C110.071 229.632 82.4945 207.645 65.5354 174.221L64.7366 172.621C51.9359 146.593 48.433 117.756 47.7258 98.3519C47.4773 91.5338 47.3529 88.1245 48.6565 84.4935C49.7047 81.5737 51.578 78.7419 53.8616 76.6058L54.3235 76.1888C56.8659 73.9681 60.4146 72.5593 66.9153 70.262L69.8879 69.2181C87.2832 63.1266 104.084 55.0215 119.966 45.6126L121.5 44.6986C128.691 40.3845 132.399 38.1597 135.529 37.387L135.83 37.3167ZM142.693 45.1302C140.651 44.6821 139.587 44.6821 137.546 45.1302C137.011 45.2476 136.042 45.5797 134.011 46.6615C131.978 47.744 129.399 49.2889 125.615 51.5589C108.886 61.5949 91.0717 70.2754 72.5315 76.7679C68.2113 78.2808 65.3421 79.2905 63.1721 80.2171C61.0712 81.1143 60.1453 81.7249 59.5862 82.2132C58.1202 83.4937 56.8445 85.3647 56.1868 87.1966C55.5115 89.0774 55.4553 90.7725 55.7209 98.0609C56.4095 116.953 59.8253 144.507 71.9153 169.09C87.9039 201.6 114.779 223.155 130.941 233.884C134.649 236.346 135.416 236.788 137.332 237.245C137.667 237.325 138.69 237.455 140.119 237.455C141.549 237.455 142.572 237.325 142.906 237.245C144.823 236.788 145.59 236.346 149.298 233.884C165.46 223.155 192.335 201.6 208.323 169.09C220.413 144.507 223.829 116.953 224.518 98.0609C224.783 90.7725 224.727 89.0774 224.052 87.1966C223.394 85.3647 222.119 83.4937 220.653 82.2132C220.093 81.7249 219.168 81.1143 217.067 80.2171C214.897 79.2905 212.027 78.2808 207.707 76.7679C189.167 70.2754 171.352 61.5949 154.623 51.5589C150.839 49.2889 148.26 47.744 146.228 46.6615C144.197 45.5797 143.227 45.2476 142.693 45.1302ZM139.292 62.2562C139.834 62.1417 140.405 62.1417 140.947 62.2562C141.563 62.3864 142.136 62.7154 143.281 63.3724C153.768 69.3851 164.144 75.4839 175.113 80.6527C184.647 85.1455 194.499 88.8211 204.363 92.4925C205.9 93.0648 206.669 93.3514 207.237 93.8636C207.73 94.3088 208.12 94.8977 208.337 95.5257C208.587 96.2484 208.552 97.05 208.48 98.6527C207.505 120.384 203.613 142.415 193.966 162.03C182.725 184.885 164.435 203.892 143.631 218.384C142.41 219.235 141.8 219.66 141.083 219.838C140.474 219.99 139.765 219.989 139.156 219.838C138.439 219.66 137.828 219.235 136.607 218.384C115.803 203.892 97.5132 184.885 86.2727 162.03C76.6261 142.415 72.7338 120.384 71.759 98.6527C71.6872 97.0502 71.6507 96.2484 71.9006 95.5257C72.1178 94.8978 72.508 94.3088 73.0012 93.8636C73.569 93.3513 74.3386 93.0648 75.8762 92.4925C85.7445 88.8198 95.5676 85.1572 105.126 80.6527C116.094 75.4839 126.47 69.3851 136.956 63.3724C138.103 62.7152 138.676 62.3864 139.292 62.2562Z" fill="url(#paint2_linear_539_2165)"/>
</mask>
<g mask="url(#mask2_539_2165)">
<rect x="-0.000488281" width="280" height="280" fill="#4AB04D"/>
<rect x="-1" width="280" height="280" fill="url(#paint3_linear_539_2165)" fill-opacity="0.6" style="mix-blend-mode:overlay"/>
<rect x="-1" width="280" height="280" fill="url(#paint4_radial_539_2165)" fill-opacity="0.6" style="mix-blend-mode:overlay"/>
<g style="mix-blend-mode:soft-light">
<path fill-rule="evenodd" clip-rule="evenodd" d="M0 0H140V280H0V0Z" fill="url(#paint5_linear_539_2165)" style="mix-blend-mode:lighten"/>
</g>
<g style="mix-blend-mode:soft-light">
<mask id="path-11-inside-1_539_2165" fill="white">
<path d="M135.83 37.3167C139.002 36.6203 141.237 36.6203 144.408 37.3167C147.603 38.0182 151.315 40.2451 158.739 44.6986C175.071 54.4969 192.395 62.9301 210.351 69.2181C218.79 72.1733 223.01 73.6509 225.915 76.1888C228.407 78.3656 230.464 81.3793 231.582 84.4935C232.886 88.1245 232.761 91.5338 232.513 98.3519L232.438 100.199C231.577 119.555 227.903 147.407 215.502 172.621L214.703 174.221C197.744 207.645 170.168 229.632 153.722 240.549C150.054 242.984 148.221 244.201 144.765 245.027L144.292 245.127C141.98 245.565 138.259 245.565 135.947 245.127L135.474 245.027C132.45 244.305 130.668 243.282 127.813 241.407L126.517 240.549C110.071 229.632 82.4945 207.645 65.5354 174.221L64.7366 172.621C51.9359 146.593 48.433 117.756 47.7258 98.3519C47.4773 91.5338 47.3529 88.1245 48.6565 84.4935C49.7047 81.5737 51.578 78.7419 53.8616 76.6058L54.3235 76.1888C56.8659 73.9681 60.4146 72.5593 66.9153 70.262L69.8879 69.2181C87.2832 63.1266 104.084 55.0215 119.966 45.6126L121.5 44.6986C128.691 40.3845 132.399 38.1597 135.529 37.387L135.83 37.3167ZM142.693 45.1302C140.651 44.6821 139.587 44.6821 137.546 45.1302C137.011 45.2476 136.042 45.5797 134.011 46.6615C131.978 47.744 129.399 49.2889 125.615 51.5589C108.886 61.5949 91.0717 70.2754 72.5315 76.7679C68.2113 78.2808 65.3421 79.2905 63.1721 80.2171C61.0712 81.1143 60.1453 81.7249 59.5862 82.2132C58.1202 83.4937 56.8445 85.3647 56.1868 87.1966C55.5115 89.0774 55.4553 90.7725 55.7209 98.0609C56.4095 116.953 59.8253 144.507 71.9153 169.09C87.9039 201.6 114.779 223.155 130.941 233.884C134.649 236.346 135.416 236.788 137.332 237.245C137.667 237.325 138.69 237.455 140.119 237.455C141.549 237.455 142.572 237.325 142.906 237.245C144.823 236.788 145.59 236.346 149.298 233.884C165.46 223.155 192.335 201.6 208.323 169.09C220.413 144.507 223.829 116.953 224.518 98.0609C224.783 90.7725 224.727 89.0774 224.052 87.1966C223.394 85.3647 222.119 83.4937 220.653 82.2132C220.093 81.7249 219.168 81.1143 217.067 80.2171C214.897 79.2905 212.027 78.2808 207.707 76.7679C189.167 70.2754 171.352 61.5949 154.623 51.5589C150.839 49.2889 148.26 47.744 146.228 46.6615C144.197 45.5797 143.227 45.2476 142.693 45.1302ZM139.292 62.2562C139.834 62.1417 140.405 62.1417 140.947 62.2562C141.563 62.3864 142.136 62.7154 143.281 63.3724C153.768 69.3851 164.144 75.4839 175.113 80.6527C184.647 85.1455 194.499 88.8211 204.363 92.4925C205.9 93.0648 206.669 93.3514 207.237 93.8636C207.73 94.3088 208.12 94.8977 208.337 95.5257C208.587 96.2484 208.552 97.05 208.48 98.6527C207.505 120.384 203.613 142.415 193.966 162.03C182.725 184.885 164.435 203.892 143.631 218.384C142.41 219.235 141.8 219.66 141.083 219.838C140.474 219.99 139.765 219.989 139.156 219.838C138.439 219.66 137.828 219.235 136.607 218.384C115.803 203.892 97.5132 184.885 86.2727 162.03C76.6261 142.415 72.7338 120.384 71.759 98.6527C71.6872 97.0502 71.6507 96.2484 71.9006 95.5257C72.1178 94.8978 72.508 94.3088 73.0012 93.8636C73.569 93.3513 74.3386 93.0648 75.8762 92.4925C85.7445 88.8198 95.5676 85.1572 105.126 80.6527C116.094 75.4839 126.47 69.3851 136.956 63.3724C138.103 62.7152 138.676 62.3864 139.292 62.2562Z"/>
</mask>
<path d="M135.83 37.3167L135.723 36.8283L135.717 36.8298L135.83 37.3167ZM144.408 37.3167L144.516 36.8284L144.516 36.8284L144.408 37.3167ZM158.739 44.6986L158.481 45.1273L158.739 44.6986ZM210.351 69.2181L210.186 69.69L210.351 69.2181ZM225.915 76.1888L226.244 75.8122V75.8122L225.915 76.1888ZM231.582 84.4935L232.053 84.3245V84.3245L231.582 84.4935ZM232.513 98.3519L233.013 98.3722L233.013 98.3701L232.513 98.3519ZM232.438 100.199L232.937 100.221L232.937 100.219L232.438 100.199ZM215.502 172.621L215.95 172.845L215.951 172.842L215.502 172.621ZM214.703 174.221L215.149 174.447L215.151 174.444L214.703 174.221ZM153.722 240.549L153.998 240.966L153.722 240.549ZM144.765 245.027L144.869 245.516L144.881 245.513L144.765 245.027ZM144.292 245.127L144.385 245.619L144.396 245.616L144.292 245.127ZM135.947 245.127L135.842 245.616L135.853 245.619L135.947 245.127ZM135.474 245.027L135.358 245.513L135.37 245.516L135.474 245.027ZM127.813 241.407L127.537 241.824L127.538 241.824L127.813 241.407ZM126.517 240.549L126.24 240.966L126.241 240.966L126.517 240.549ZM65.5354 174.221L65.0881 174.444L65.0895 174.447L65.5354 174.221ZM64.7366 172.621L64.2879 172.842L64.2892 172.845L64.7366 172.621ZM47.7258 98.3519L48.2255 98.3337L47.7258 98.3519ZM48.6565 84.4935L48.1859 84.3245L48.1859 84.3245L48.6565 84.4935ZM53.8616 76.6058L53.5265 76.2346L53.52 76.2407L53.8616 76.6058ZM54.3235 76.1888L53.9945 75.8122L53.9884 75.8177L54.3235 76.1888ZM66.9153 70.262L66.7496 69.7903L66.7487 69.7906L66.9153 70.262ZM69.8879 69.2181L69.7227 68.7462L69.7223 68.7463L69.8879 69.2181ZM119.966 45.6126L120.221 46.0428L120.222 46.0422L119.966 45.6126ZM121.5 44.6986L121.756 45.1281L121.757 45.1273L121.5 44.6986ZM135.529 37.387L135.415 36.9L135.409 36.9016L135.529 37.387ZM142.693 45.1302L142.8 44.6418L142.8 44.6418L142.693 45.1302ZM137.546 45.1302L137.439 44.6418L137.439 44.6418L137.546 45.1302ZM134.011 46.6615L133.776 46.2201V46.2201L134.011 46.6615ZM125.615 51.5589L125.358 51.1302L125.615 51.5589ZM72.5315 76.7679L72.6967 77.2398L72.5315 76.7679ZM63.1721 80.2171L62.9757 79.7573H62.9757L63.1721 80.2171ZM59.5862 82.2132L59.2573 81.8366L59.2573 81.8366L59.5862 82.2132ZM56.1868 87.1966L55.7162 87.0277L55.7162 87.0277L56.1868 87.1966ZM55.7209 98.0609L55.2213 98.0791L55.7209 98.0609ZM71.9153 169.09L71.4666 169.311L71.9153 169.09ZM130.941 233.884L130.664 234.301L130.941 233.884ZM137.332 237.245L137.216 237.732L137.216 237.732L137.332 237.245ZM140.119 237.455V237.955V237.455ZM142.906 237.245L143.023 237.732L143.023 237.732L142.906 237.245ZM149.298 233.884L149.575 234.301L149.298 233.884ZM208.323 169.09L208.772 169.311L208.323 169.09ZM224.518 98.0609L225.017 98.0791L224.518 98.0609ZM224.052 87.1966L224.523 87.0277V87.0277L224.052 87.1966ZM220.653 82.2132L220.982 81.8366L220.981 81.8366L220.653 82.2132ZM217.067 80.2171L217.263 79.7573H217.263L217.067 80.2171ZM207.707 76.7679L207.873 76.296L207.707 76.7679ZM154.623 51.5589L154.366 51.9877L154.623 51.5589ZM146.228 46.6615L146.463 46.2201L146.463 46.2201L146.228 46.6615ZM139.292 62.2562L139.189 61.767H139.189L139.292 62.2562ZM140.947 62.2562L141.05 61.767L141.05 61.767L140.947 62.2562ZM143.281 63.3724L143.53 62.9386L143.281 63.3724ZM175.113 80.6527L174.899 81.105L175.113 80.6527ZM204.363 92.4925L204.188 92.9611L204.363 92.4925ZM207.237 93.8636L207.572 93.4924L207.572 93.4924L207.237 93.8636ZM208.337 95.5257L208.81 95.3623V95.3623L208.337 95.5257ZM208.48 98.6527L208.979 98.6751L208.48 98.6527ZM193.966 162.03L194.415 162.25L193.966 162.03ZM143.631 218.384L143.917 218.794L143.631 218.384ZM141.083 219.838L141.204 220.323H141.204L141.083 219.838ZM139.156 219.838L139.035 220.323H139.035L139.156 219.838ZM136.607 218.384L136.321 218.794L136.607 218.384ZM86.2727 162.03L85.824 162.25L86.2727 162.03ZM71.759 98.6527L71.2595 98.6751L71.759 98.6527ZM71.9006 95.5257L71.4281 95.3623L71.4281 95.3623L71.9006 95.5257ZM73.0012 93.8636L72.6663 93.4924L72.6662 93.4924L73.0012 93.8636ZM75.8762 92.4925L76.0506 92.9611L75.8762 92.4925ZM105.126 80.6527L105.339 81.105L105.126 80.6527ZM136.956 63.3724L136.708 62.9386L136.956 63.3724ZM135.83 37.3167L135.938 37.8051C139.039 37.1242 141.2 37.1242 144.301 37.8051L144.408 37.3167L144.516 36.8284C141.273 36.1165 138.965 36.1165 135.723 36.8284L135.83 37.3167ZM144.408 37.3167L144.301 37.8051C145.832 38.1413 147.511 38.8483 149.753 40.042C151.994 41.2357 154.765 42.8979 158.481 45.1273L158.739 44.6986L158.996 44.2698C155.289 42.0458 152.492 40.3678 150.223 39.1593C147.953 37.9508 146.179 37.1937 144.516 36.8284L144.408 37.3167ZM158.739 44.6986L158.481 45.1273C174.839 54.9405 192.193 63.3893 210.186 69.69L210.351 69.2181L210.516 68.7462C192.596 62.471 175.304 54.0533 158.996 44.2698L158.739 44.6986ZM210.351 69.2181L210.186 69.69C214.411 71.1698 217.558 72.2718 220.012 73.3197C222.462 74.3659 224.189 75.3452 225.586 76.5654L225.915 76.1888L226.244 75.8122C224.736 74.4945 222.901 73.466 220.404 72.4001C217.912 71.336 214.729 70.2216 210.516 68.7462L210.351 69.2181ZM225.915 76.1888L225.586 76.5654C228.014 78.6861 230.022 81.6284 231.112 84.6624L231.582 84.4935L232.053 84.3245C230.906 81.1301 228.8 78.045 226.244 75.8122L225.915 76.1888ZM231.582 84.4935L231.112 84.6624C232.376 88.184 232.263 91.4862 232.013 98.3337L232.513 98.3519L233.013 98.3701C233.26 91.5814 233.396 88.0649 232.053 84.3245L231.582 84.4935ZM232.513 98.3519L232.013 98.3315L231.938 100.178L232.438 100.199L232.937 100.219L233.013 98.3722L232.513 98.3519ZM232.438 100.199L231.938 100.176C231.079 119.501 227.411 147.274 215.054 172.401L215.502 172.621L215.951 172.842C228.395 147.54 232.075 119.61 232.937 100.221L232.438 100.199ZM215.502 172.621L215.055 172.398L214.256 173.998L214.703 174.221L215.151 174.444L215.95 172.845L215.502 172.621ZM214.703 174.221L214.257 173.995C197.354 207.309 169.857 229.238 153.445 240.133L153.722 240.549L153.998 240.966C170.478 230.026 198.135 207.981 215.149 174.447L214.703 174.221ZM153.722 240.549L153.445 240.133C149.775 242.569 148.008 243.738 144.649 244.54L144.765 245.027L144.881 245.513C148.433 244.665 150.333 243.399 153.998 240.966L153.722 240.549ZM144.765 245.027L144.661 244.538L144.188 244.638L144.292 245.127L144.396 245.616L144.869 245.516L144.765 245.027ZM144.292 245.127L144.199 244.636C141.949 245.062 138.29 245.062 136.04 244.636L135.947 245.127L135.853 245.619C138.227 246.068 142.012 246.068 144.385 245.619L144.292 245.127ZM135.947 245.127L136.051 244.638L135.578 244.538L135.474 245.027L135.37 245.516L135.842 245.616L135.947 245.127ZM135.474 245.027L135.59 244.54C132.65 243.838 130.926 242.853 128.087 240.989L127.813 241.407L127.538 241.824C130.41 243.711 132.25 244.771 135.358 245.513L135.474 245.027ZM127.813 241.407L128.089 240.99L126.793 240.132L126.517 240.549L126.241 240.966L127.537 241.824L127.813 241.407ZM126.517 240.549L126.793 240.133C110.381 229.238 82.8848 207.309 65.9813 173.995L65.5354 174.221L65.0895 174.447C82.1042 207.981 109.761 230.026 126.24 240.966L126.517 240.549ZM65.5354 174.221L65.9827 173.998L65.1839 172.398L64.7366 172.621L64.2892 172.845L65.0881 174.444L65.5354 174.221ZM64.7366 172.621L65.1852 172.401C52.429 146.463 48.9315 117.705 48.2255 98.3337L47.7258 98.3519L47.2262 98.3701C47.9345 117.806 51.4428 146.724 64.2879 172.842L64.7366 172.621ZM47.7258 98.3519L48.2255 98.3337C47.9759 91.4862 47.8628 88.184 49.1271 84.6624L48.6565 84.4935L48.1859 84.3245C46.8431 88.0649 46.9787 91.5814 47.2262 98.3701L47.7258 98.3519ZM48.6565 84.4935L49.1271 84.6624C50.1481 81.8186 51.9766 79.0537 54.2031 76.9709L53.8616 76.6058L53.52 76.2407C51.1794 78.4301 49.2614 81.3289 48.1859 84.3245L48.6565 84.4935ZM53.8616 76.6058L54.1966 76.9769L54.6585 76.5599L54.3235 76.1888L53.9884 75.8177L53.5265 76.2347L53.8616 76.6058ZM54.3235 76.1888L54.6524 76.5654C57.109 74.4197 60.558 73.0389 67.0819 70.7335L66.9153 70.262L66.7487 69.7906C60.2711 72.0797 56.6228 73.5166 53.9946 75.8122L54.3235 76.1888ZM66.9153 70.262L67.0809 70.7338L70.0536 69.6899L69.8879 69.2181L69.7223 68.7463L66.7496 69.7903L66.9153 70.262ZM69.8879 69.2181L70.0532 69.69C87.4838 63.5861 104.314 55.466 120.221 46.0428L119.966 45.6126L119.711 45.1825C103.853 54.5769 87.0825 62.6671 69.7227 68.7462L69.8879 69.2181ZM119.966 45.6126L120.222 46.0422L121.756 45.1281L121.5 44.6986L121.244 44.269L119.71 45.1831L119.966 45.6126ZM121.5 44.6986L121.757 45.1273C125.357 42.9678 128.07 41.3403 130.274 40.1551C132.479 38.9698 134.145 38.2438 135.648 37.8725L135.529 37.387L135.409 36.9016C133.783 37.303 132.03 38.0756 129.801 39.2744C127.571 40.4733 124.835 42.1152 121.243 44.2698L121.5 44.6986ZM135.529 37.387L135.642 37.874L135.944 37.8037L135.83 37.3167L135.717 36.8298L135.415 36.9001L135.529 37.387ZM142.693 45.1302L142.8 44.6418C141.762 44.414 140.947 44.2941 140.119 44.2941C139.292 44.2941 138.476 44.414 137.439 44.6418L137.546 45.1302L137.653 45.6186C138.657 45.3982 139.394 45.2941 140.119 45.2941C140.845 45.2941 141.582 45.3982 142.585 45.6186L142.693 45.1302ZM137.546 45.1302L137.439 44.6418C136.837 44.7739 135.821 45.1312 133.776 46.2201L134.011 46.6615L134.246 47.1028C136.264 46.0282 137.185 45.7213 137.653 45.6186L137.546 45.1302ZM134.011 46.6615L133.776 46.2201C131.729 47.3101 129.137 48.863 125.358 51.1302L125.615 51.5589L125.873 51.9877C129.661 49.7149 132.227 48.1779 134.246 47.1028L134.011 46.6615ZM125.615 51.5589L125.358 51.1302C108.654 61.1513 90.8699 69.8163 72.3662 76.296L72.5315 76.7679L72.6967 77.2398C91.2734 70.7346 109.119 62.0386 125.873 51.9877L125.615 51.5589ZM72.5315 76.7679L72.3662 76.296C68.0525 77.8066 65.1647 78.8225 62.9757 79.7573L63.1721 80.2171L63.3685 80.677C65.5195 79.7584 68.3701 78.7549 72.6967 77.2398L72.5315 76.7679ZM63.1721 80.2171L62.9757 79.7573C60.8521 80.6642 59.8725 81.2993 59.2573 81.8366L59.5862 82.2132L59.9151 82.5898C60.4181 82.1504 61.2903 81.5644 63.3685 80.6769L63.1721 80.2171ZM59.5862 82.2132L59.2573 81.8366C57.7271 83.1732 56.4027 85.1157 55.7162 87.0277L56.1868 87.1966L56.6573 87.3656C57.2864 85.6136 58.5134 83.8142 59.9151 82.5898L59.5862 82.2132ZM56.1868 87.1966L55.7162 87.0277C55.0012 89.0193 54.9569 90.8255 55.2213 98.0791L55.7209 98.0609L56.2206 98.0427C55.9537 90.7195 56.0219 89.1356 56.6574 87.3656L56.1868 87.1966ZM55.7209 98.0609L55.2213 98.0791C55.911 117.003 59.3322 144.638 71.4666 169.311L71.9153 169.09L72.364 168.87C60.3184 144.377 56.908 116.903 56.2206 98.0427L55.7209 98.0609ZM71.9153 169.09L71.4666 169.311C87.5109 201.934 114.468 223.549 130.664 234.301L130.941 233.884L131.217 233.468C115.089 222.761 88.2968 201.266 72.364 168.87L71.9153 169.09ZM130.941 233.884L130.664 234.301C134.367 236.759 135.202 237.251 137.216 237.732L137.332 237.245L137.448 236.759C135.629 236.325 134.93 235.932 131.217 233.468L130.941 233.884ZM137.332 237.245L137.216 237.732C137.605 237.825 138.672 237.955 140.119 237.955V237.455V236.955C138.708 236.955 137.729 236.826 137.448 236.759L137.332 237.245ZM140.119 237.455V237.955C141.566 237.955 142.634 237.825 143.023 237.732L142.906 237.245L142.79 236.759C142.51 236.826 141.531 236.955 140.119 236.955V237.455ZM142.906 237.245L143.023 237.732C145.036 237.251 145.871 236.759 149.575 234.301L149.298 233.884L149.022 233.468C145.309 235.932 144.61 236.325 142.79 236.759L142.906 237.245ZM149.298 233.884L149.575 234.301C165.771 223.549 192.728 201.934 208.772 169.311L208.323 169.09L207.875 168.87C191.942 201.266 165.15 222.761 149.022 233.468L149.298 233.884ZM208.323 169.09L208.772 169.311C220.907 144.638 224.328 117.003 225.017 98.0791L224.518 98.0609L224.018 98.0427C223.331 116.903 219.92 144.377 207.875 168.87L208.323 169.09ZM224.518 98.0609L225.017 98.0791C225.282 90.8256 225.238 89.0193 224.523 87.0277L224.052 87.1966L223.581 87.3656C224.217 89.1356 224.285 90.7195 224.018 98.0427L224.518 98.0609ZM224.052 87.1966L224.523 87.0277C223.836 85.1157 222.512 83.1732 220.982 81.8366L220.653 82.2132L220.324 82.5898C221.725 83.8142 222.952 85.6136 223.581 87.3656L224.052 87.1966ZM220.653 82.2132L220.981 81.8366C220.366 81.2993 219.387 80.6642 217.263 79.7573L217.067 80.2171L216.87 80.6769C218.948 81.5644 219.821 82.1504 220.324 82.5898L220.653 82.2132ZM217.067 80.2171L217.263 79.7573C215.074 78.8225 212.186 77.8066 207.873 76.296L207.707 76.7679L207.542 77.2398C211.869 78.7549 214.719 79.7584 216.87 80.677L217.067 80.2171ZM207.707 76.7679L207.873 76.296C189.369 69.8163 171.585 61.1513 154.881 51.1302L154.623 51.5589L154.366 51.9877C171.12 62.0386 188.965 70.7346 207.542 77.2398L207.707 76.7679ZM154.623 51.5589L154.881 51.1302C151.101 48.863 148.509 47.3101 146.463 46.2201L146.228 46.6615L145.993 47.1028C148.011 48.1779 150.578 49.7149 154.366 51.9877L154.623 51.5589ZM146.228 46.6615L146.463 46.2201C144.418 45.1312 143.401 44.7739 142.8 44.6418L142.693 45.1302L142.585 45.6186C143.053 45.7213 143.975 46.0282 145.993 47.1028L146.228 46.6615ZM139.292 62.2562L139.396 62.7454C139.869 62.6453 140.369 62.6453 140.843 62.7454L140.947 62.2562L141.05 61.767C140.44 61.6381 139.799 61.6381 139.189 61.767L139.292 62.2562ZM140.947 62.2562L140.843 62.7454C141.364 62.8555 141.858 63.1327 143.033 63.8062L143.281 63.3724L143.53 62.9386C142.413 62.2981 141.761 61.9174 141.05 61.767L140.947 62.2562ZM143.281 63.3724L143.033 63.8062C153.512 69.8144 163.909 75.9255 174.899 81.105L175.113 80.6527L175.326 80.2004C164.38 75.0422 154.025 68.9558 143.53 62.9386L143.281 63.3724ZM175.113 80.6527L174.899 81.105C184.455 85.6082 194.327 89.2908 204.188 92.9611L204.363 92.4925L204.537 92.0239C194.67 88.3514 184.838 84.6828 175.326 80.2004L175.113 80.6527ZM204.363 92.4925L204.188 92.9611C205.765 93.5479 206.422 93.8019 206.902 94.2348L207.237 93.8636L207.572 93.4924C206.916 92.9008 206.036 92.5817 204.537 92.0239L204.363 92.4925ZM207.237 93.8636L206.902 94.2348C207.332 94.6235 207.675 95.1409 207.865 95.6891L208.337 95.5257L208.81 95.3623C208.565 94.6544 208.128 93.9941 207.572 93.4924L207.237 93.8636ZM208.337 95.5257L207.865 95.6891C208.076 96.3003 208.054 96.9875 207.98 98.6303L208.48 98.6527L208.979 98.6751C209.049 97.1126 209.098 96.1966 208.81 95.3623L208.337 95.5257ZM208.48 98.6527L207.98 98.6303C207.007 120.322 203.123 142.278 193.517 161.809L193.966 162.03L194.415 162.25C204.102 142.552 208.003 120.447 208.979 98.6751L208.48 98.6527ZM193.966 162.03L193.517 161.809C182.322 184.572 164.097 203.518 143.345 217.974L143.631 218.384L143.917 218.794C164.773 204.266 183.128 185.199 194.415 162.25L193.966 162.03ZM143.631 218.384L143.345 217.974C142.094 218.845 141.569 219.202 140.963 219.353L141.083 219.838L141.204 220.323C142.03 220.118 142.726 219.624 143.917 218.794L143.631 218.384ZM141.083 219.838L140.963 219.353C140.433 219.485 139.806 219.485 139.276 219.353L139.156 219.838L139.035 220.323C139.723 220.494 140.515 220.494 141.204 220.323L141.083 219.838ZM139.156 219.838L139.276 219.353C138.67 219.202 138.143 218.845 136.892 217.974L136.607 218.384L136.321 218.794C137.512 219.624 138.208 220.118 139.035 220.323L139.156 219.838ZM136.607 218.384L136.892 217.974C116.141 203.518 97.9162 184.572 86.7214 161.809L86.2727 162.03L85.824 162.25C97.1101 185.199 115.465 204.266 136.321 218.794L136.607 218.384ZM86.2727 162.03L86.7214 161.809C77.1158 142.278 73.2315 120.322 72.2585 98.6303L71.759 98.6527L71.2595 98.6751C72.2361 120.447 76.1365 142.552 85.824 162.25L86.2727 162.03ZM71.759 98.6527L72.2585 98.6303C72.1848 96.9872 72.1619 96.3001 72.3732 95.6891L71.9006 95.5257L71.4281 95.3623C71.1396 96.1967 71.1895 97.1132 71.2595 98.6751L71.759 98.6527ZM71.9006 95.5257L72.3732 95.6891C72.5627 95.1411 72.9056 94.6235 73.3362 94.2348L73.0012 93.8636L72.6662 93.4924C72.1104 93.9941 71.6729 94.6545 71.4281 95.3623L71.9006 95.5257ZM73.0012 93.8636L73.3362 94.2348C73.816 93.8019 74.4738 93.5479 76.0506 92.9611L75.8762 92.4925L75.7018 92.0239C74.2034 92.5816 73.322 92.9007 72.6663 93.4924L73.0012 93.8636ZM75.8762 92.4925L76.0506 92.9611C85.916 89.2895 95.7586 85.6199 105.339 81.105L105.126 80.6527L104.913 80.2004C95.3765 84.6945 85.5731 88.3501 75.7018 92.0239L75.8762 92.4925ZM105.126 80.6527L105.339 81.105C116.33 75.9255 126.726 69.8144 137.205 63.8062L136.956 63.3724L136.708 62.9386C126.213 68.9557 115.859 75.0422 104.913 80.2004L105.126 80.6527ZM136.956 63.3724L137.205 63.8062C138.38 63.1326 138.875 62.8555 139.396 62.7454L139.292 62.2562L139.189 61.767C138.477 61.9173 137.825 62.2978 136.708 62.9386L136.956 63.3724Z" fill="url(#paint6_linear_539_2165)" mask="url(#path-11-inside-1_539_2165)"/>
</g>
</g>
</g>
<g filter="url(#filter2_d_539_2165)">
<path fill-rule="evenodd" clip-rule="evenodd" d="M124 92C124 89.7909 125.791 88 128 88H152C154.209 88 156 89.7909 156 92C156 94.2091 154.209 96 152 96H148.667V99.6957C163.619 103.548 174.667 117.133 174.667 133.301C174.667 152.465 159.146 168 140 168C120.854 168 105.333 152.465 105.333 133.301C105.333 117.133 116.381 103.548 131.333 99.6958V96H128C125.791 96 124 94.2091 124 92ZM135.085 121.546C131.861 122.622 129.331 125.153 128.257 128.379L121.633 148.269C120.93 150.38 122.938 152.388 125.049 151.684L144.914 145.056C148.138 143.98 150.668 141.449 151.742 138.224L158.367 118.333C159.07 116.222 157.061 114.214 154.95 114.918L135.085 121.546Z" fill="white"/>
<path d="M152 87.75C154.348 87.7501 156.25 89.6529 156.25 92C156.25 94.3471 154.348 96.2499 152 96.25H148.917V99.5039C163.881 103.449 174.917 117.085 174.917 133.302C174.916 152.603 159.284 168.25 140 168.25C120.716 168.25 105.084 152.603 105.083 133.302C105.083 117.085 116.119 103.449 131.083 99.5039V96.25H128C125.653 96.25 123.75 94.3472 123.75 92C123.75 89.6528 125.653 87.75 128 87.75H152ZM158.129 118.254C158.767 116.339 156.945 114.517 155.03 115.155L135.165 121.783C132.015 122.834 129.543 125.307 128.494 128.458L121.87 148.349C121.232 150.264 123.055 152.085 124.97 151.446L144.834 144.818C147.984 143.767 150.456 141.295 151.505 138.145L158.129 118.254Z" stroke="url(#paint7_linear_539_2165)" stroke-width="0.5" stroke-linecap="round" style="mix-blend-mode:color-burn"/>
</g>
</g>
<g filter="url(#filter3_dd_539_2165)">
<mask id="path-15-inside-2_539_2165" fill="white">
<path d="M60.3717 182C64.8519 182 67.0921 182 68.8034 182.872C70.3086 183.639 71.5325 184.863 72.2995 186.368C73.1714 188.079 73.1715 190.32 73.1715 194.8V215.2C73.1715 219.68 73.1714 221.921 72.2995 223.632C71.5325 225.137 70.3086 226.361 68.8034 227.128C67.0921 228 64.8519 228 60.3717 228H43.6491C40.3833 228 38.7499 228 37.734 227.312C36.8463 226.711 36.2368 225.779 36.0426 224.725C35.8205 223.518 36.4758 222.022 37.7868 219.031L43.9372 205L37.7868 190.969C36.4758 187.978 35.8205 186.482 36.0426 185.275C36.2368 184.221 36.8463 183.289 37.734 182.688C38.7499 182 40.3833 182 43.6491 182H60.3717ZM236.063 182C239.329 182 240.962 182 241.978 182.688C242.866 183.289 243.475 184.221 243.67 185.275C243.892 186.482 243.236 187.978 241.924 190.969L235.775 205L241.924 219.031C243.236 222.022 243.892 223.518 243.67 224.725C243.475 225.779 242.866 226.711 241.978 227.312C240.962 228 239.329 228 236.063 228H219.34C214.86 228 212.62 228 210.909 227.128C209.404 226.361 208.18 225.137 207.413 223.632C206.541 221.921 206.541 219.68 206.541 215.2V194.8C206.541 190.32 206.541 188.079 207.413 186.368C208.18 184.863 209.404 183.639 210.909 182.872C212.62 182 214.86 182 219.34 182H236.063Z"/>
</mask>
<path d="M60.3717 182C64.8519 182 67.0921 182 68.8034 182.872C70.3086 183.639 71.5325 184.863 72.2995 186.368C73.1714 188.079 73.1715 190.32 73.1715 194.8V215.2C73.1715 219.68 73.1714 221.921 72.2995 223.632C71.5325 225.137 70.3086 226.361 68.8034 227.128C67.0921 228 64.8519 228 60.3717 228H43.6491C40.3833 228 38.7499 228 37.734 227.312C36.8463 226.711 36.2368 225.779 36.0426 224.725C35.8205 223.518 36.4758 222.022 37.7868 219.031L43.9372 205L37.7868 190.969C36.4758 187.978 35.8205 186.482 36.0426 185.275C36.2368 184.221 36.8463 183.289 37.734 182.688C38.7499 182 40.3833 182 43.6491 182H60.3717ZM236.063 182C239.329 182 240.962 182 241.978 182.688C242.866 183.289 243.475 184.221 243.67 185.275C243.892 186.482 243.236 187.978 241.924 190.969L235.775 205L241.924 219.031C243.236 222.022 243.892 223.518 243.67 224.725C243.475 225.779 242.866 226.711 241.978 227.312C240.962 228 239.329 228 236.063 228H219.34C214.86 228 212.62 228 210.909 227.128C209.404 226.361 208.18 225.137 207.413 223.632C206.541 221.921 206.541 219.68 206.541 215.2V194.8C206.541 190.32 206.541 188.079 207.413 186.368C208.18 184.863 209.404 183.639 210.909 182.872C212.62 182 214.86 182 219.34 182H236.063Z" fill="#F5F0F0"/>
<path d="M60.3717 182V181.5V182ZM68.8034 182.872L69.0304 182.427L69.0304 182.427L68.8034 182.872ZM72.2995 186.368L72.745 186.141V186.141L72.2995 186.368ZM73.1715 194.8H73.6715H73.1715ZM73.1715 215.2H73.6715H73.1715ZM72.2995 223.632L72.745 223.859V223.859L72.2995 223.632ZM68.8034 227.128L69.0304 227.573L69.0304 227.573L68.8034 227.128ZM60.3717 228V228.5V228ZM37.734 227.312L37.4537 227.727L37.4538 227.727L37.734 227.312ZM36.0426 224.725L35.5509 224.815L35.5509 224.815L36.0426 224.725ZM37.7868 219.031L37.3288 218.831L37.3288 218.831L37.7868 219.031ZM43.9372 205L44.3951 205.201L44.4831 205L44.3951 204.799L43.9372 205ZM37.7868 190.969L37.3288 191.169L37.3288 191.169L37.7868 190.969ZM36.0426 185.275L35.5509 185.185L35.5509 185.185L36.0426 185.275ZM37.734 182.688L37.4538 182.273L37.4537 182.273L37.734 182.688ZM236.063 182V181.5V182ZM241.978 182.688L242.259 182.273L242.258 182.273L241.978 182.688ZM243.67 185.275L244.161 185.185V185.185L243.67 185.275ZM241.924 190.969L241.467 190.768V190.768L241.924 190.969ZM235.775 205L235.317 204.799L235.229 205L235.317 205.201L235.775 205ZM241.924 219.031L241.467 219.232V219.232L241.924 219.031ZM243.67 224.725L244.161 224.815V224.815L243.67 224.725ZM241.978 227.312L242.258 227.727L242.259 227.727L241.978 227.312ZM236.063 228V228.5V228ZM210.909 227.128L210.682 227.573L210.682 227.573L210.909 227.128ZM207.413 223.632L206.967 223.859V223.859L207.413 223.632ZM206.541 215.2H206.041H206.541ZM206.541 194.8H206.041H206.541ZM207.413 186.368L206.967 186.141V186.141L207.413 186.368ZM210.909 182.872L210.682 182.427L210.682 182.427L210.909 182.872ZM60.3717 182V182.5C62.6201 182.5 64.2763 182.5 65.5852 182.607C66.8882 182.714 67.803 182.924 68.5764 183.318L68.8034 182.872L69.0304 182.427C68.0925 181.949 67.0315 181.722 65.6666 181.611C64.3076 181.5 62.6036 181.5 60.3717 181.5V182ZM68.8034 182.872L68.5764 183.318C69.9876 184.037 71.1349 185.184 71.854 186.595L72.2995 186.368L72.745 186.141C71.9301 184.542 70.6297 183.241 69.0304 182.427L68.8034 182.872ZM72.2995 186.368L71.854 186.595C72.248 187.369 72.4576 188.283 72.5641 189.586C72.6711 190.895 72.6715 192.551 72.6715 194.8H73.1715H73.6715C73.6715 192.568 73.6719 190.864 73.5608 189.505C73.4492 188.14 73.2228 187.079 72.745 186.141L72.2995 186.368ZM73.1715 194.8H72.6715V215.2H73.1715H73.6715V194.8H73.1715ZM73.1715 215.2H72.6715C72.6715 217.449 72.6711 219.105 72.5641 220.414C72.4576 221.717 72.248 222.631 71.854 223.405L72.2995 223.632L72.745 223.859C73.2228 222.921 73.4492 221.86 73.5608 220.495C73.6719 219.136 73.6715 217.432 73.6715 215.2H73.1715ZM72.2995 223.632L71.854 223.405C71.1349 224.816 69.9876 225.963 68.5764 226.682L68.8034 227.128L69.0304 227.573C70.6297 226.759 71.9301 225.458 72.745 223.859L72.2995 223.632ZM68.8034 227.128L68.5764 226.682C67.803 227.076 66.8882 227.286 65.5852 227.393C64.2763 227.5 62.6201 227.5 60.3717 227.5V228V228.5C62.6036 228.5 64.3076 228.5 65.6666 228.389C67.0315 228.278 68.0925 228.051 69.0304 227.573L68.8034 227.128ZM60.3717 228V227.5H43.6491V228V228.5H60.3717V228ZM43.6491 228V227.5C42.0065 227.5 40.8087 227.5 39.8932 227.416C38.9782 227.333 38.4173 227.171 38.0143 226.898L37.734 227.312L37.4538 227.727C38.0666 228.141 38.8303 228.324 39.8025 228.412C40.7741 228.501 42.0258 228.5 43.6491 228.5V228ZM37.734 227.312L38.0144 226.898C37.2376 226.373 36.7043 225.557 36.5344 224.634L36.0426 224.725L35.5509 224.815C35.7694 226.001 36.455 227.05 37.4537 227.727L37.734 227.312ZM36.0426 224.725L36.5344 224.634C36.4462 224.155 36.5233 223.577 36.8141 222.705C37.1051 221.834 37.5854 220.736 38.2447 219.232L37.7868 219.031L37.3288 218.831C36.6772 220.317 36.1744 221.463 35.8655 222.389C35.5565 223.315 35.4169 224.087 35.5509 224.815L36.0426 224.725ZM37.7868 219.031L38.2447 219.232L44.3951 205.201L43.9372 205L43.4792 204.799L37.3288 218.831L37.7868 219.031ZM43.9372 205L44.3951 204.799L38.2447 190.768L37.7868 190.969L37.3288 191.169L43.4792 205.201L43.9372 205ZM37.7868 190.969L38.2447 190.768C37.5854 189.264 37.1051 188.166 36.8141 187.295C36.5233 186.423 36.4462 185.845 36.5344 185.366L36.0426 185.275L35.5509 185.185C35.4169 185.913 35.5565 186.685 35.8655 187.611C36.1744 188.537 36.6772 189.683 37.3288 191.169L37.7868 190.969ZM36.0426 185.275L36.5344 185.366C36.7043 184.443 37.2376 183.627 38.0144 183.102L37.734 182.688L37.4537 182.273C36.455 182.95 35.7694 183.999 35.5509 185.185L36.0426 185.275ZM37.734 182.688L38.0143 183.102C38.4173 182.829 38.9782 182.667 39.8932 182.584C40.8087 182.5 42.0065 182.5 43.6491 182.5V182V181.5C42.0258 181.5 40.7741 181.499 39.8025 181.588C38.8303 181.676 38.0666 181.859 37.4538 182.273L37.734 182.688ZM43.6491 182V182.5H60.3717V182V181.5H43.6491V182ZM236.063 182V182.5C237.706 182.5 238.904 182.5 239.819 182.584C240.734 182.667 241.295 182.829 241.698 183.102L241.978 182.688L242.258 182.273C241.646 181.859 240.882 181.676 239.91 181.588C238.938 181.499 237.686 181.5 236.063 181.5V182ZM241.978 182.688L241.698 183.102C242.475 183.627 243.008 184.443 243.178 185.366L243.67 185.275L244.161 185.185C243.943 183.999 243.257 182.95 242.259 182.273L241.978 182.688ZM243.67 185.275L243.178 185.366C243.266 185.844 243.189 186.423 242.898 187.294C242.606 188.166 242.126 189.264 241.467 190.768L241.924 190.969L242.382 191.169C243.034 189.683 243.537 188.537 243.846 187.611C244.155 186.685 244.295 185.913 244.161 185.185L243.67 185.275ZM241.924 190.969L241.467 190.768L235.317 204.799L235.775 205L236.233 205.201L242.382 191.169L241.924 190.969ZM235.775 205L235.317 205.201L241.467 219.232L241.924 219.031L242.382 218.831L236.233 204.799L235.775 205ZM241.924 219.031L241.467 219.232C242.126 220.736 242.606 221.834 242.898 222.706C243.189 223.577 243.266 224.156 243.178 224.634L243.67 224.725L244.161 224.815C244.295 224.087 244.155 223.315 243.846 222.389C243.537 221.463 243.034 220.317 242.382 218.831L241.924 219.031ZM243.67 224.725L243.178 224.634C243.008 225.557 242.475 226.373 241.698 226.898L241.978 227.312L242.259 227.727C243.257 227.05 243.943 226.001 244.161 224.815L243.67 224.725ZM241.978 227.312L241.698 226.898C241.295 227.171 240.734 227.333 239.819 227.416C238.904 227.5 237.706 227.5 236.063 227.5V228V228.5C237.686 228.5 238.938 228.501 239.91 228.412C240.882 228.324 241.646 228.141 242.258 227.727L241.978 227.312ZM236.063 228V227.5H219.34V228V228.5H236.063V228ZM219.34 228V227.5C217.092 227.5 215.436 227.5 214.127 227.393C212.824 227.286 211.909 227.076 211.136 226.682L210.909 227.128L210.682 227.573C211.62 228.051 212.681 228.278 214.046 228.389C215.405 228.5 217.109 228.5 219.34 228.5V228ZM210.909 227.128L211.136 226.682C209.725 225.963 208.577 224.816 207.858 223.405L207.413 223.632L206.967 223.859C207.782 225.458 209.083 226.759 210.682 227.573L210.909 227.128ZM207.413 223.632L207.858 223.405C207.464 222.631 207.255 221.717 207.148 220.414C207.041 219.105 207.041 217.449 207.041 215.2H206.541H206.041C206.041 217.432 206.04 219.136 206.151 220.495C206.263 221.86 206.489 222.921 206.967 223.859L207.413 223.632ZM206.541 215.2H207.041V194.8H206.541H206.041V215.2H206.541ZM206.541 194.8H207.041C207.041 192.551 207.041 190.895 207.148 189.586C207.255 188.283 207.464 187.369 207.858 186.595L207.413 186.368L206.967 186.141C206.489 187.079 206.263 188.14 206.151 189.505C206.04 190.864 206.041 192.568 206.041 194.8H206.541ZM207.413 186.368L207.858 186.595C208.577 185.184 209.725 184.037 211.136 183.318L210.909 182.872L210.682 182.427C209.083 183.241 207.782 184.542 206.967 186.141L207.413 186.368ZM210.909 182.872L211.136 183.318C211.909 182.924 212.824 182.714 214.127 182.607C215.436 182.5 217.092 182.5 219.34 182.5V182V181.5C217.109 181.5 215.405 181.5 214.046 181.611C212.681 181.722 211.62 181.949 210.682 182.427L210.909 182.872ZM219.34 182V182.5H236.063V182V181.5H219.34V182Z" fill="url(#paint8_linear_539_2165)" style="mix-blend-mode:darken" mask="url(#path-15-inside-2_539_2165)"/>
</g>
<path d="M60.3717 182C64.8519 182 67.0921 182 68.8034 182.872C70.3086 183.639 71.5325 184.863 72.2995 186.368C73.1714 188.079 73.1715 190.32 73.1715 194.8V215.2C73.1715 219.68 73.1714 221.921 72.2995 223.632C71.5325 225.137 70.3086 226.361 68.8034 227.128C67.0921 228 64.8519 228 60.3717 228H43.6491C40.3833 228 38.7499 228 37.734 227.312C36.8463 226.711 36.2368 225.779 36.0426 224.725C35.8205 223.518 36.4758 222.022 37.7868 219.031L43.9372 205L37.7868 190.969C36.4758 187.978 35.8205 186.482 36.0426 185.275C36.2368 184.221 36.8463 183.289 37.734 182.688C38.7499 182 40.3833 182 43.6491 182H60.3717ZM236.063 182C239.329 182 240.962 182 241.978 182.688C242.866 183.289 243.475 184.221 243.67 185.275C243.892 186.482 243.236 187.978 241.924 190.969L235.775 205L241.924 219.031C243.236 222.022 243.892 223.518 243.67 224.725C243.475 225.779 242.866 226.711 241.978 227.312C240.962 228 239.329 228 236.063 228H219.34C214.86 228 212.62 228 210.909 227.128C209.404 226.361 208.18 225.137 207.413 223.632C206.541 221.921 206.541 219.68 206.541 215.2V194.8C206.541 190.32 206.541 188.079 207.413 186.368C208.18 184.863 209.404 183.639 210.909 182.872C212.62 182 214.86 182 219.34 182H236.063Z" fill="url(#paint9_linear_539_2165)" fill-opacity="0.3" style="mix-blend-mode:overlay"/>
<path d="M60.3717 182C64.8519 182 67.0921 182 68.8034 182.872C70.3086 183.639 71.5325 184.863 72.2995 186.368C73.1714 188.079 73.1715 190.32 73.1715 194.8V215.2C73.1715 219.68 73.1714 221.921 72.2995 223.632C71.5325 225.137 70.3086 226.361 68.8034 227.128C67.0921 228 64.8519 228 60.3717 228H43.6491C40.3833 228 38.7499 228 37.734 227.312C36.8463 226.711 36.2368 225.779 36.0426 224.725C35.8205 223.518 36.4758 222.022 37.7868 219.031L43.9372 205L37.7868 190.969C36.4758 187.978 35.8205 186.482 36.0426 185.275C36.2368 184.221 36.8463 183.289 37.734 182.688C38.7499 182 40.3833 182 43.6491 182H60.3717ZM236.063 182C239.329 182 240.962 182 241.978 182.688C242.866 183.289 243.475 184.221 243.67 185.275C243.892 186.482 243.236 187.978 241.924 190.969L235.775 205L241.924 219.031C243.236 222.022 243.892 223.518 243.67 224.725C243.475 225.779 242.866 226.711 241.978 227.312C240.962 228 239.329 228 236.063 228H219.34C214.86 228 212.62 228 210.909 227.128C209.404 226.361 208.18 225.137 207.413 223.632C206.541 221.921 206.541 219.68 206.541 215.2V194.8C206.541 190.32 206.541 188.079 207.413 186.368C208.18 184.863 209.404 183.639 210.909 182.872C212.62 182 214.86 182 219.34 182H236.063Z" fill="url(#paint10_radial_539_2165)" fill-opacity="0.6" style="mix-blend-mode:overlay"/>
<path d="M60.3717 182C64.8519 182 67.0921 182 68.8034 182.872C70.3086 183.639 71.5325 184.863 72.2995 186.368C73.1714 188.079 73.1715 190.32 73.1715 194.8V215.2C73.1715 219.68 73.1714 221.921 72.2995 223.632C71.5325 225.137 70.3086 226.361 68.8034 227.128C67.0921 228 64.8519 228 60.3717 228H43.6491C40.3833 228 38.7499 228 37.734 227.312C36.8463 226.711 36.2368 225.779 36.0426 224.725C35.8205 223.518 36.4758 222.022 37.7868 219.031L43.9372 205L37.7868 190.969C36.4758 187.978 35.8205 186.482 36.0426 185.275C36.2368 184.221 36.8463 183.289 37.734 182.688C38.7499 182 40.3833 182 43.6491 182H60.3717ZM236.063 182C239.329 182 240.962 182 241.978 182.688C242.866 183.289 243.475 184.221 243.67 185.275C243.892 186.482 243.236 187.978 241.924 190.969L235.775 205L241.924 219.031C243.236 222.022 243.892 223.518 243.67 224.725C243.475 225.779 242.866 226.711 241.978 227.312C240.962 228 239.329 228 236.063 228H219.34C214.86 228 212.62 228 210.909 227.128C209.404 226.361 208.18 225.137 207.413 223.632C206.541 221.921 206.541 219.68 206.541 215.2V194.8C206.541 190.32 206.541 188.079 207.413 186.368C208.18 184.863 209.404 183.639 210.909 182.872C212.62 182 214.86 182 219.34 182H236.063Z" fill="black" fill-opacity="0.24" style="mix-blend-mode:overlay"/>
<path d="M60.3717 182C64.8519 182 67.0921 182 68.8034 182.872C70.3086 183.639 71.5325 184.863 72.2995 186.368C73.1714 188.079 73.1715 190.32 73.1715 194.8V215.2C73.1715 219.68 73.1714 221.921 72.2995 223.632C71.5325 225.137 70.3086 226.361 68.8034 227.128C67.0921 228 64.8519 228 60.3717 228H43.6491C40.3833 228 38.7499 228 37.734 227.312C36.8463 226.711 36.2368 225.779 36.0426 224.725C35.8205 223.518 36.4758 222.022 37.7868 219.031L43.9372 205L37.7868 190.969C36.4758 187.978 35.8205 186.482 36.0426 185.275C36.2368 184.221 36.8463 183.289 37.734 182.688C38.7499 182 40.3833 182 43.6491 182H60.3717ZM236.063 182C239.329 182 240.962 182 241.978 182.688C242.866 183.289 243.475 184.221 243.67 185.275C243.892 186.482 243.236 187.978 241.924 190.969L235.775 205L241.924 219.031C243.236 222.022 243.892 223.518 243.67 224.725C243.475 225.779 242.866 226.711 241.978 227.312C240.962 228 239.329 228 236.063 228H219.34C214.86 228 212.62 228 210.909 227.128C209.404 226.361 208.18 225.137 207.413 223.632C206.541 221.921 206.541 219.68 206.541 215.2V194.8C206.541 190.32 206.541 188.079 207.413 186.368C208.18 184.863 209.404 183.639 210.909 182.872C212.62 182 214.86 182 219.34 182H236.063Z" fill="black" fill-opacity="0.12" style="mix-blend-mode:darken"/>
<g filter="url(#filter4_dd_539_2165)">
<rect x="51.856" y="170" width="176" height="46" rx="8" fill="#F5F0F0"/>
<rect x="52.106" y="170.25" width="175.5" height="45.5" rx="7.75" stroke="url(#paint11_linear_539_2165)" stroke-width="0.5" stroke-linecap="round" style="mix-blend-mode:darken"/>
</g>
<rect x="51.856" y="170" width="176" height="46" rx="8" fill="url(#paint12_linear_539_2165)" fill-opacity="0.3" style="mix-blend-mode:overlay"/>
<rect x="51.856" y="170" width="176" height="46" rx="8" fill="url(#paint13_radial_539_2165)" fill-opacity="0.6" style="mix-blend-mode:overlay"/>
<g filter="url(#filter5_i_539_2165)">
<circle cx="62.856" cy="193" r="3" fill="black" fill-opacity="0.24" style="mix-blend-mode:color-burn"/>
<circle cx="62.856" cy="193" r="3" fill="black" fill-opacity="0.32" style="mix-blend-mode:darken"/>
</g>
<g filter="url(#filter6_i_539_2165)">
<circle cx="216.856" cy="193" r="3" fill="black" fill-opacity="0.24" style="mix-blend-mode:color-burn"/>
<circle cx="216.856" cy="193" r="3" fill="black" fill-opacity="0.32" style="mix-blend-mode:darken"/>
</g>
<g filter="url(#filter7_i_539_2165)">
<path d="M92.3676 194.024H88.7436V187.4C88.7436 186.792 88.9196 186.32 89.2716 185.984C89.6236 185.632 90.0956 185.456 90.6876 185.456C91.0236 185.456 91.3436 185.48 91.6476 185.528C91.9676 185.576 92.2076 185.616 92.3676 185.648V194.024ZM90.6396 194.576V191.648H97.8636C97.9596 191.808 98.0476 192.016 98.1276 192.272C98.2076 192.512 98.2476 192.776 98.2476 193.064C98.2476 193.576 98.1276 193.96 97.8876 194.216C97.6636 194.456 97.3516 194.576 96.9516 194.576H90.6396ZM90.6876 188.384V185.456H98.6796C98.7756 185.6 98.8636 185.8 98.9436 186.056C99.0236 186.312 99.0636 186.584 99.0636 186.872C99.0636 187.384 98.9436 187.768 98.7036 188.024C98.4796 188.264 98.1676 188.384 97.7676 188.384H90.6876ZM88.7436 192.608H92.3916V199.976C92.2476 200.024 92.0156 200.064 91.6956 200.096C91.3756 200.144 91.0476 200.168 90.7116 200.168C89.9916 200.168 89.4796 200.04 89.1756 199.784C88.8876 199.528 88.7436 199.088 88.7436 198.464V192.608ZM101.423 189.848H105.071V199.976C104.927 200.024 104.695 200.064 104.375 200.096C104.055 200.144 103.727 200.168 103.391 200.168C102.671 200.168 102.159 200.04 101.855 199.784C101.567 199.528 101.423 199.08 101.423 198.44V189.848ZM105.071 194.456H101.423V185.408C101.583 185.376 101.823 185.336 102.143 185.288C102.479 185.24 102.807 185.216 103.127 185.216C103.815 185.216 104.311 185.336 104.615 185.576C104.919 185.816 105.071 186.272 105.071 186.944V194.456ZM112.125 192.272H113.685C114.485 192.272 115.125 192.096 115.605 191.744C116.101 191.376 116.349 190.84 116.349 190.136C116.349 189.448 116.117 188.928 115.653 188.576C115.189 188.208 114.477 188.024 113.517 188.024C113.245 188.024 112.997 188.032 112.773 188.048C112.549 188.064 112.333 188.096 112.125 188.144V192.272ZM114.021 195.104H108.501V186.728C108.501 186.424 108.589 186.184 108.765 186.008C108.941 185.832 109.173 185.696 109.461 185.6C109.989 185.408 110.605 185.272 111.309 185.192C112.029 185.112 112.773 185.072 113.541 185.072C115.701 185.072 117.325 185.528 118.413 186.44C119.501 187.336 120.045 188.56 120.045 190.112C120.045 191.072 119.781 191.936 119.253 192.704C118.741 193.456 118.029 194.048 117.117 194.48C116.221 194.896 115.189 195.104 114.021 195.104ZM113.349 194.24L116.613 193.472C116.981 193.984 117.357 194.488 117.741 194.984C118.141 195.48 118.517 195.96 118.869 196.424C119.237 196.888 119.565 197.32 119.853 197.72C120.141 198.104 120.373 198.432 120.549 198.704C120.405 199.184 120.149 199.56 119.781 199.832C119.413 200.088 118.997 200.216 118.533 200.216C117.941 200.216 117.485 200.088 117.165 199.832C116.861 199.56 116.573 199.208 116.301 198.776L113.349 194.24ZM108.501 193.736H112.149V199.976C112.005 200.024 111.773 200.064 111.453 200.096C111.133 200.144 110.805 200.168 110.469 200.168C109.749 200.168 109.237 200.04 108.933 199.784C108.645 199.528 108.501 199.08 108.501 198.44V193.736ZM127.33 197.432C128.194 197.432 128.81 197.28 129.178 196.976C129.562 196.656 129.754 196.28 129.754 195.848C129.754 195.448 129.602 195.128 129.298 194.888C129.01 194.632 128.578 194.416 128.002 194.24L126.73 193.832C125.866 193.544 125.098 193.224 124.426 192.872C123.77 192.52 123.258 192.064 122.89 191.504C122.538 190.944 122.362 190.232 122.362 189.368C122.362 188.04 122.866 186.984 123.874 186.2C124.882 185.416 126.282 185.024 128.074 185.024C128.986 185.024 129.794 185.112 130.498 185.288C131.218 185.464 131.778 185.728 132.178 186.08C132.594 186.416 132.802 186.832 132.802 187.328C132.802 187.696 132.714 188.016 132.538 188.288C132.378 188.544 132.17 188.768 131.914 188.96C131.546 188.704 131.058 188.488 130.45 188.312C129.842 188.12 129.17 188.024 128.434 188.024C127.666 188.024 127.09 188.152 126.706 188.408C126.322 188.648 126.13 188.968 126.13 189.368C126.13 189.688 126.258 189.952 126.514 190.16C126.77 190.352 127.154 190.528 127.666 190.688L128.986 191.096C130.442 191.544 131.562 192.144 132.346 192.896C133.13 193.632 133.522 194.624 133.522 195.872C133.522 197.216 133.002 198.312 131.962 199.16C130.922 199.992 129.418 200.408 127.45 200.408C126.474 200.408 125.602 200.304 124.834 200.096C124.066 199.888 123.45 199.584 122.986 199.184C122.538 198.784 122.314 198.32 122.314 197.792C122.314 197.376 122.434 197.024 122.674 196.736C122.93 196.432 123.21 196.208 123.514 196.064C123.946 196.416 124.482 196.736 125.122 197.024C125.778 197.296 126.514 197.432 127.33 197.432ZM138.88 188.384L138.856 185.456H146.272C146.368 185.6 146.456 185.8 146.536 186.056C146.616 186.312 146.656 186.584 146.656 186.872C146.656 187.384 146.536 187.768 146.296 188.024C146.072 188.264 145.76 188.384 145.36 188.384H138.88ZM142.264 185.456L142.288 188.384H134.872C134.76 188.24 134.664 188.04 134.584 187.784C134.52 187.528 134.488 187.256 134.488 186.968C134.488 186.44 134.6 186.056 134.824 185.816C135.064 185.576 135.376 185.456 135.76 185.456H142.264ZM138.688 187.736H142.36V199.976C142.2 200.024 141.96 200.064 141.64 200.096C141.32 200.144 140.992 200.168 140.656 200.168C139.936 200.168 139.424 200.04 139.12 199.784C138.832 199.528 138.688 199.08 138.688 198.44V187.736ZM156.833 188.384L156.809 185.456H164.225C164.321 185.6 164.409 185.8 164.489 186.056C164.569 186.312 164.609 186.584 164.609 186.872C164.609 187.384 164.489 187.768 164.249 188.024C164.025 188.264 163.713 188.384 163.313 188.384H156.833ZM160.217 185.456L160.241 188.384H152.825C152.713 188.24 152.617 188.04 152.537 187.784C152.473 187.528 152.441 187.256 152.441 186.968C152.441 186.44 152.553 186.056 152.777 185.816C153.017 185.576 153.329 185.456 153.713 185.456H160.217ZM156.641 187.736H160.313V199.976C160.153 200.024 159.913 200.064 159.593 200.096C159.273 200.144 158.945 200.168 158.609 200.168C157.889 200.168 157.377 200.04 157.073 199.784C156.785 199.528 156.641 199.08 156.641 198.44V187.736ZM170.438 192.272H171.998C172.798 192.272 173.438 192.096 173.918 191.744C174.414 191.376 174.662 190.84 174.662 190.136C174.662 189.448 174.43 188.928 173.966 188.576C173.502 188.208 172.79 188.024 171.83 188.024C171.558 188.024 171.31 188.032 171.086 188.048C170.862 188.064 170.646 188.096 170.438 188.144V192.272ZM172.334 195.104H166.814V186.728C166.814 186.424 166.902 186.184 167.078 186.008C167.254 185.832 167.486 185.696 167.774 185.6C168.302 185.408 168.918 185.272 169.622 185.192C170.342 185.112 171.086 185.072 171.854 185.072C174.014 185.072 175.638 185.528 176.726 186.44C177.814 187.336 178.358 188.56 178.358 190.112C178.358 191.072 178.094 191.936 177.566 192.704C177.054 193.456 176.342 194.048 175.43 194.48C174.534 194.896 173.502 195.104 172.334 195.104ZM171.662 194.24L174.926 193.472C175.294 193.984 175.67 194.488 176.054 194.984C176.454 195.48 176.83 195.96 177.182 196.424C177.55 196.888 177.878 197.32 178.166 197.72C178.454 198.104 178.686 198.432 178.862 198.704C178.718 199.184 178.462 199.56 178.094 199.832C177.726 200.088 177.31 200.216 176.846 200.216C176.254 200.216 175.798 200.088 175.478 199.832C175.174 199.56 174.886 199.208 174.614 198.776L171.662 194.24ZM166.814 193.736H170.462V199.976C170.318 200.024 170.086 200.064 169.766 200.096C169.446 200.144 169.118 200.168 168.782 200.168C168.062 200.168 167.55 200.04 167.246 199.784C166.958 199.528 166.814 199.08 166.814 198.44V193.736ZM187.72 195.32H184.456C184.04 194.712 183.584 194.024 183.088 193.256C182.592 192.488 182.104 191.696 181.624 190.88C181.144 190.048 180.688 189.248 180.256 188.48C179.84 187.712 179.504 187.024 179.248 186.416C179.424 186.16 179.664 185.92 179.968 185.696C180.288 185.472 180.688 185.36 181.168 185.36C181.712 185.36 182.152 185.48 182.488 185.72C182.824 185.944 183.144 186.36 183.448 186.968C183.656 187.352 183.864 187.752 184.072 188.168C184.296 188.568 184.512 188.984 184.72 189.416C184.944 189.832 185.16 190.248 185.368 190.664C185.592 191.064 185.8 191.448 185.992 191.816H186.112C186.48 191.08 186.808 190.4 187.096 189.776C187.384 189.152 187.664 188.52 187.936 187.88C188.224 187.224 188.536 186.512 188.872 185.744C189.112 185.616 189.384 185.52 189.688 185.456C189.992 185.392 190.28 185.36 190.552 185.36C191.048 185.36 191.464 185.488 191.8 185.744C192.136 186 192.304 186.384 192.304 186.896C192.304 187.088 192.232 187.368 192.088 187.736C191.944 188.104 191.696 188.616 191.344 189.272C190.992 189.912 190.52 190.728 189.928 191.72C189.352 192.696 188.616 193.896 187.72 195.32ZM184.264 194H187.864V199.976C187.704 200.024 187.464 200.064 187.144 200.096C186.84 200.144 186.528 200.168 186.208 200.168C185.488 200.168 184.984 200.048 184.696 199.808C184.408 199.552 184.264 199.112 184.264 198.488V194Z" fill="black" fill-opacity="0.24" style="mix-blend-mode:color-burn"/>
<path d="M92.3676 194.024H88.7436V187.4C88.7436 186.792 88.9196 186.32 89.2716 185.984C89.6236 185.632 90.0956 185.456 90.6876 185.456C91.0236 185.456 91.3436 185.48 91.6476 185.528C91.9676 185.576 92.2076 185.616 92.3676 185.648V194.024ZM90.6396 194.576V191.648H97.8636C97.9596 191.808 98.0476 192.016 98.1276 192.272C98.2076 192.512 98.2476 192.776 98.2476 193.064C98.2476 193.576 98.1276 193.96 97.8876 194.216C97.6636 194.456 97.3516 194.576 96.9516 194.576H90.6396ZM90.6876 188.384V185.456H98.6796C98.7756 185.6 98.8636 185.8 98.9436 186.056C99.0236 186.312 99.0636 186.584 99.0636 186.872C99.0636 187.384 98.9436 187.768 98.7036 188.024C98.4796 188.264 98.1676 188.384 97.7676 188.384H90.6876ZM88.7436 192.608H92.3916V199.976C92.2476 200.024 92.0156 200.064 91.6956 200.096C91.3756 200.144 91.0476 200.168 90.7116 200.168C89.9916 200.168 89.4796 200.04 89.1756 199.784C88.8876 199.528 88.7436 199.088 88.7436 198.464V192.608ZM101.423 189.848H105.071V199.976C104.927 200.024 104.695 200.064 104.375 200.096C104.055 200.144 103.727 200.168 103.391 200.168C102.671 200.168 102.159 200.04 101.855 199.784C101.567 199.528 101.423 199.08 101.423 198.44V189.848ZM105.071 194.456H101.423V185.408C101.583 185.376 101.823 185.336 102.143 185.288C102.479 185.24 102.807 185.216 103.127 185.216C103.815 185.216 104.311 185.336 104.615 185.576C104.919 185.816 105.071 186.272 105.071 186.944V194.456ZM112.125 192.272H113.685C114.485 192.272 115.125 192.096 115.605 191.744C116.101 191.376 116.349 190.84 116.349 190.136C116.349 189.448 116.117 188.928 115.653 188.576C115.189 188.208 114.477 188.024 113.517 188.024C113.245 188.024 112.997 188.032 112.773 188.048C112.549 188.064 112.333 188.096 112.125 188.144V192.272ZM114.021 195.104H108.501V186.728C108.501 186.424 108.589 186.184 108.765 186.008C108.941 185.832 109.173 185.696 109.461 185.6C109.989 185.408 110.605 185.272 111.309 185.192C112.029 185.112 112.773 185.072 113.541 185.072C115.701 185.072 117.325 185.528 118.413 186.44C119.501 187.336 120.045 188.56 120.045 190.112C120.045 191.072 119.781 191.936 119.253 192.704C118.741 193.456 118.029 194.048 117.117 194.48C116.221 194.896 115.189 195.104 114.021 195.104ZM113.349 194.24L116.613 193.472C116.981 193.984 117.357 194.488 117.741 194.984C118.141 195.48 118.517 195.96 118.869 196.424C119.237 196.888 119.565 197.32 119.853 197.72C120.141 198.104 120.373 198.432 120.549 198.704C120.405 199.184 120.149 199.56 119.781 199.832C119.413 200.088 118.997 200.216 118.533 200.216C117.941 200.216 117.485 200.088 117.165 199.832C116.861 199.56 116.573 199.208 116.301 198.776L113.349 194.24ZM108.501 193.736H112.149V199.976C112.005 200.024 111.773 200.064 111.453 200.096C111.133 200.144 110.805 200.168 110.469 200.168C109.749 200.168 109.237 200.04 108.933 199.784C108.645 199.528 108.501 199.08 108.501 198.44V193.736ZM127.33 197.432C128.194 197.432 128.81 197.28 129.178 196.976C129.562 196.656 129.754 196.28 129.754 195.848C129.754 195.448 129.602 195.128 129.298 194.888C129.01 194.632 128.578 194.416 128.002 194.24L126.73 193.832C125.866 193.544 125.098 193.224 124.426 192.872C123.77 192.52 123.258 192.064 122.89 191.504C122.538 190.944 122.362 190.232 122.362 189.368C122.362 188.04 122.866 186.984 123.874 186.2C124.882 185.416 126.282 185.024 128.074 185.024C128.986 185.024 129.794 185.112 130.498 185.288C131.218 185.464 131.778 185.728 132.178 186.08C132.594 186.416 132.802 186.832 132.802 187.328C132.802 187.696 132.714 188.016 132.538 188.288C132.378 188.544 132.17 188.768 131.914 188.96C131.546 188.704 131.058 188.488 130.45 188.312C129.842 188.12 129.17 188.024 128.434 188.024C127.666 188.024 127.09 188.152 126.706 188.408C126.322 188.648 126.13 188.968 126.13 189.368C126.13 189.688 126.258 189.952 126.514 190.16C126.77 190.352 127.154 190.528 127.666 190.688L128.986 191.096C130.442 191.544 131.562 192.144 132.346 192.896C133.13 193.632 133.522 194.624 133.522 195.872C133.522 197.216 133.002 198.312 131.962 199.16C130.922 199.992 129.418 200.408 127.45 200.408C126.474 200.408 125.602 200.304 124.834 200.096C124.066 199.888 123.45 199.584 122.986 199.184C122.538 198.784 122.314 198.32 122.314 197.792C122.314 197.376 122.434 197.024 122.674 196.736C122.93 196.432 123.21 196.208 123.514 196.064C123.946 196.416 124.482 196.736 125.122 197.024C125.778 197.296 126.514 197.432 127.33 197.432ZM138.88 188.384L138.856 185.456H146.272C146.368 185.6 146.456 185.8 146.536 186.056C146.616 186.312 146.656 186.584 146.656 186.872C146.656 187.384 146.536 187.768 146.296 188.024C146.072 188.264 145.76 188.384 145.36 188.384H138.88ZM142.264 185.456L142.288 188.384H134.872C134.76 188.24 134.664 188.04 134.584 187.784C134.52 187.528 134.488 187.256 134.488 186.968C134.488 186.44 134.6 186.056 134.824 185.816C135.064 185.576 135.376 185.456 135.76 185.456H142.264ZM138.688 187.736H142.36V199.976C142.2 200.024 141.96 200.064 141.64 200.096C141.32 200.144 140.992 200.168 140.656 200.168C139.936 200.168 139.424 200.04 139.12 199.784C138.832 199.528 138.688 199.08 138.688 198.44V187.736ZM156.833 188.384L156.809 185.456H164.225C164.321 185.6 164.409 185.8 164.489 186.056C164.569 186.312 164.609 186.584 164.609 186.872C164.609 187.384 164.489 187.768 164.249 188.024C164.025 188.264 163.713 188.384 163.313 188.384H156.833ZM160.217 185.456L160.241 188.384H152.825C152.713 188.24 152.617 188.04 152.537 187.784C152.473 187.528 152.441 187.256 152.441 186.968C152.441 186.44 152.553 186.056 152.777 185.816C153.017 185.576 153.329 185.456 153.713 185.456H160.217ZM156.641 187.736H160.313V199.976C160.153 200.024 159.913 200.064 159.593 200.096C159.273 200.144 158.945 200.168 158.609 200.168C157.889 200.168 157.377 200.04 157.073 199.784C156.785 199.528 156.641 199.08 156.641 198.44V187.736ZM170.438 192.272H171.998C172.798 192.272 173.438 192.096 173.918 191.744C174.414 191.376 174.662 190.84 174.662 190.136C174.662 189.448 174.43 188.928 173.966 188.576C173.502 188.208 172.79 188.024 171.83 188.024C171.558 188.024 171.31 188.032 171.086 188.048C170.862 188.064 170.646 188.096 170.438 188.144V192.272ZM172.334 195.104H166.814V186.728C166.814 186.424 166.902 186.184 167.078 186.008C167.254 185.832 167.486 185.696 167.774 185.6C168.302 185.408 168.918 185.272 169.622 185.192C170.342 185.112 171.086 185.072 171.854 185.072C174.014 185.072 175.638 185.528 176.726 186.44C177.814 187.336 178.358 188.56 178.358 190.112C178.358 191.072 178.094 191.936 177.566 192.704C177.054 193.456 176.342 194.048 175.43 194.48C174.534 194.896 173.502 195.104 172.334 195.104ZM171.662 194.24L174.926 193.472C175.294 193.984 175.67 194.488 176.054 194.984C176.454 195.48 176.83 195.96 177.182 196.424C177.55 196.888 177.878 197.32 178.166 197.72C178.454 198.104 178.686 198.432 178.862 198.704C178.718 199.184 178.462 199.56 178.094 199.832C177.726 200.088 177.31 200.216 176.846 200.216C176.254 200.216 175.798 200.088 175.478 199.832C175.174 199.56 174.886 199.208 174.614 198.776L171.662 194.24ZM166.814 193.736H170.462V199.976C170.318 200.024 170.086 200.064 169.766 200.096C169.446 200.144 169.118 200.168 168.782 200.168C168.062 200.168 167.55 200.04 167.246 199.784C166.958 199.528 166.814 199.08 166.814 198.44V193.736ZM187.72 195.32H184.456C184.04 194.712 183.584 194.024 183.088 193.256C182.592 192.488 182.104 191.696 181.624 190.88C181.144 190.048 180.688 189.248 180.256 188.48C179.84 187.712 179.504 187.024 179.248 186.416C179.424 186.16 179.664 185.92 179.968 185.696C180.288 185.472 180.688 185.36 181.168 185.36C181.712 185.36 182.152 185.48 182.488 185.72C182.824 185.944 183.144 186.36 183.448 186.968C183.656 187.352 183.864 187.752 184.072 188.168C184.296 188.568 184.512 188.984 184.72 189.416C184.944 189.832 185.16 190.248 185.368 190.664C185.592 191.064 185.8 191.448 185.992 191.816H186.112C186.48 191.08 186.808 190.4 187.096 189.776C187.384 189.152 187.664 188.52 187.936 187.88C188.224 187.224 188.536 186.512 188.872 185.744C189.112 185.616 189.384 185.52 189.688 185.456C189.992 185.392 190.28 185.36 190.552 185.36C191.048 185.36 191.464 185.488 191.8 185.744C192.136 186 192.304 186.384 192.304 186.896C192.304 187.088 192.232 187.368 192.088 187.736C191.944 188.104 191.696 188.616 191.344 189.272C190.992 189.912 190.52 190.728 189.928 191.72C189.352 192.696 188.616 193.896 187.72 195.32ZM184.264 194H187.864V199.976C187.704 200.024 187.464 200.064 187.144 200.096C186.84 200.144 186.528 200.168 186.208 200.168C185.488 200.168 184.984 200.048 184.696 199.808C184.408 199.552 184.264 199.112 184.264 198.488V194Z" fill="black" fill-opacity="0.32" style="mix-blend-mode:darken"/>
</g>
<defs>
<filter id="filter0_ddd_539_2165" x="19.5664" y="30.7944" width="241.105" height="288.661" filterUnits="userSpaceOnUse" color-interpolation-filters="sRGB">
<feFlood flood-opacity="0" result="BackgroundImageFix"/>
<feColorMatrix in="SourceAlpha" type="matrix" values="0 0 0 0 0 0 0 0 0 0 0 0 0 0 0 0 0 0 127 0" result="hardAlpha"/>
<feOffset dy="5"/>
<feGaussianBlur stdDeviation="5.5"/>
<feColorMatrix type="matrix" values="0 0 0 0 0 0 0 0 0 0 0 0 0 0 0 0 0 0 0.24 0"/>
<feBlend mode="normal" in2="BackgroundImageFix" result="effect1_dropShadow_539_2165"/>
<feColorMatrix in="SourceAlpha" type="matrix" values="0 0 0 0 0 0 0 0 0 0 0 0 0 0 0 0 0 0 127 0" result="hardAlpha"/>
<feOffset dy="21"/>
<feGaussianBlur stdDeviation="10.5"/>
<feColorMatrix type="matrix" values="0 0 0 0 0 0 0 0 0 0 0 0 0 0 0 0 0 0 0.21 0"/>
<feBlend mode="normal" in2="effect1_dropShadow_539_2165" result="effect2_dropShadow_539_2165"/>
<feColorMatrix in="SourceAlpha" type="matrix" values="0 0 0 0 0 0 0 0 0 0 0 0 0 0 0 0 0 0 127 0" result="hardAlpha"/>
<feOffset dy="46"/>
<feGaussianBlur stdDeviation="14"/>
<feColorMatrix type="matrix" values="0 0 0 0 0 0 0 0 0 0 0 0 0 0 0 0 0 0 0.12 0"/>
<feBlend mode="normal" in2="effect2_dropShadow_539_2165" result="effect3_dropShadow_539_2165"/>
<feBlend mode="normal" in="SourceGraphic" in2="effect3_dropShadow_539_2165" result="shape"/>
</filter>
<filter id="filter1_d_539_2165" x="39.5664" y="30.7944" width="201.106" height="224.661" filterUnits="userSpaceOnUse" color-interpolation-filters="sRGB">
<feFlood flood-opacity="0" result="BackgroundImageFix"/>
<feColorMatrix in="SourceAlpha" type="matrix" values="0 0 0 0 0 0 0 0 0 0 0 0 0 0 0 0 0 0 127 0" result="hardAlpha"/>
<feOffset dy="2"/>
<feGaussianBlur stdDeviation="4"/>
<feColorMatrix type="matrix" values="0 0 0 0 0 0 0 0 0 0 0 0 0 0 0 0 0 0 0.16 0"/>
<feBlend mode="color-burn" in2="BackgroundImageFix" result="effect1_dropShadow_539_2165"/>
<feBlend mode="normal" in="SourceGraphic" in2="effect1_dropShadow_539_2165" result="shape"/>
</filter>
<filter id="filter2_d_539_2165" x="92.8335" y="77.5" width="94.3335" height="105" filterUnits="userSpaceOnUse" color-interpolation-filters="sRGB">
<feFlood flood-opacity="0" result="BackgroundImageFix"/>
<feColorMatrix in="SourceAlpha" type="matrix" values="0 0 0 0 0 0 0 0 0 0 0 0 0 0 0 0 0 0 127 0" result="hardAlpha"/>
<feOffset dy="2"/>
<feGaussianBlur stdDeviation="6"/>
<feColorMatrix type="matrix" values="0 0 0 0 0 0 0 0 0 0 0 0 0 0 0 0 0 0 0.12 0"/>
<feBlend mode="plus-darker" in2="BackgroundImageFix" result="effect1_dropShadow_539_2165"/>
<feBlend mode="normal" in="SourceGraphic" in2="effect1_dropShadow_539_2165" result="shape"/>
</filter>
<filter id="filter3_dd_539_2165" x="24" y="174" width="231.712" height="70" filterUnits="userSpaceOnUse" color-interpolation-filters="sRGB">
<feFlood flood-opacity="0" result="BackgroundImageFix"/>
<feColorMatrix in="SourceAlpha" type="matrix" values="0 0 0 0 0 0 0 0 0 0 0 0 0 0 0 0 0 0 127 0" result="hardAlpha"/>
<feOffset dy="4"/>
<feGaussianBlur stdDeviation="6"/>
<feColorMatrix type="matrix" values="0 0 0 0 0 0 0 0 0 0 0 0 0 0 0 0 0 0 0.16 0"/>
<feBlend mode="normal" in2="BackgroundImageFix" result="effect1_dropShadow_539_2165"/>
<feColorMatrix in="SourceAlpha" type="matrix" values="0 0 0 0 0 0 0 0 0 0 0 0 0 0 0 0 0 0 127 0" result="hardAlpha"/>
<feOffset dy="2"/>
<feGaussianBlur stdDeviation="2"/>
<feColorMatrix type="matrix" values="0 0 0 0 0 0 0 0 0 0 0 0 0 0 0 0 0 0 0.24 0"/>
<feBlend mode="normal" in2="effect1_dropShadow_539_2165" result="effect2_dropShadow_539_2165"/>
<feBlend mode="normal" in="SourceGraphic" in2="effect2_dropShadow_539_2165" result="shape"/>
</filter>
<filter id="filter4_dd_539_2165" x="39.856" y="162" width="200" height="70" filterUnits="userSpaceOnUse" color-interpolation-filters="sRGB">
<feFlood flood-opacity="0" result="BackgroundImageFix"/>
<feColorMatrix in="SourceAlpha" type="matrix" values="0 0 0 0 0 0 0 0 0 0 0 0 0 0 0 0 0 0 127 0" result="hardAlpha"/>
<feOffset dy="4"/>
<feGaussianBlur stdDeviation="6"/>
<feColorMatrix type="matrix" values="0 0 0 0 0 0 0 0 0 0 0 0 0 0 0 0 0 0 0.16 0"/>
<feBlend mode="normal" in2="BackgroundImageFix" result="effect1_dropShadow_539_2165"/>
<feColorMatrix in="SourceAlpha" type="matrix" values="0 0 0 0 0 0 0 0 0 0 0 0 0 0 0 0 0 0 127 0" result="hardAlpha"/>
<feOffset dy="2"/>
<feGaussianBlur stdDeviation="2"/>
<feColorMatrix type="matrix" values="0 0 0 0 0 0 0 0 0 0 0 0 0 0 0 0 0 0 0.24 0"/>
<feBlend mode="normal" in2="effect1_dropShadow_539_2165" result="effect2_dropShadow_539_2165"/>
<feBlend mode="normal" in="SourceGraphic" in2="effect2_dropShadow_539_2165" result="shape"/>
</filter>
<filter id="filter5_i_539_2165" x="59.856" y="190" width="6" height="7" filterUnits="userSpaceOnUse" color-interpolation-filters="sRGB">
<feFlood flood-opacity="0" result="BackgroundImageFix"/>
<feBlend mode="normal" in="SourceGraphic" in2="BackgroundImageFix" result="shape"/>
<feColorMatrix in="SourceAlpha" type="matrix" values="0 0 0 0 0 0 0 0 0 0 0 0 0 0 0 0 0 0 127 0" result="hardAlpha"/>
<feOffset dy="1"/>
<feGaussianBlur stdDeviation="1"/>
<feComposite in2="hardAlpha" operator="arithmetic" k2="-1" k3="1"/>
<feColorMatrix type="matrix" values="0 0 0 0 0 0 0 0 0 0 0 0 0 0 0 0 0 0 0.24 0"/>
<feBlend mode="darken" in2="shape" result="effect1_innerShadow_539_2165"/>
</filter>
<filter id="filter6_i_539_2165" x="213.856" y="190" width="6" height="7" filterUnits="userSpaceOnUse" color-interpolation-filters="sRGB">
<feFlood flood-opacity="0" result="BackgroundImageFix"/>
<feBlend mode="normal" in="SourceGraphic" in2="BackgroundImageFix" result="shape"/>
<feColorMatrix in="SourceAlpha" type="matrix" values="0 0 0 0 0 0 0 0 0 0 0 0 0 0 0 0 0 0 127 0" result="hardAlpha"/>
<feOffset dy="1"/>
<feGaussianBlur stdDeviation="1"/>
<feComposite in2="hardAlpha" operator="arithmetic" k2="-1" k3="1"/>
<feColorMatrix type="matrix" values="0 0 0 0 0 0 0 0 0 0 0 0 0 0 0 0 0 0 0.24 0"/>
<feBlend mode="darken" in2="shape" result="effect1_innerShadow_539_2165"/>
</filter>
<filter id="filter7_i_539_2165" x="88.7437" y="185.024" width="103.56" height="16.3839" filterUnits="userSpaceOnUse" color-interpolation-filters="sRGB">
<feFlood flood-opacity="0" result="BackgroundImageFix"/>
<feBlend mode="normal" in="SourceGraphic" in2="BackgroundImageFix" result="shape"/>
<feColorMatrix in="SourceAlpha" type="matrix" values="0 0 0 0 0 0 0 0 0 0 0 0 0 0 0 0 0 0 127 0" result="hardAlpha"/>
<feOffset dy="1"/>
<feGaussianBlur stdDeviation="1"/>
<feComposite in2="hardAlpha" operator="arithmetic" k2="-1" k3="1"/>
<feColorMatrix type="matrix" values="0 0 0 0 0 0 0 0 0 0 0 0 0 0 0 0 0 0 0.24 0"/>
<feBlend mode="darken" in2="shape" result="effect1_innerShadow_539_2165"/>
</filter>
<linearGradient id="paint0_linear_539_2165" x1="140" y1="31.7284" x2="140" y2="246.82" gradientUnits="userSpaceOnUse">
<stop stop-color="white"/>
<stop offset="1" stop-color="white" stop-opacity="0"/>
</linearGradient>
<radialGradient id="paint1_radial_539_2165" cx="0" cy="0" r="1" gradientUnits="userSpaceOnUse" gradientTransform="translate(140 93.51) rotate(90) scale(141.869 107.639)">
<stop stop-color="white"/>
<stop offset="1" stop-color="white" stop-opacity="0"/>
</radialGradient>
<linearGradient id="paint2_linear_539_2165" x1="232.12" y1="40.6237" x2="232.12" y2="245.588" gradientUnits="userSpaceOnUse">
<stop stop-color="#49F0BC"/>
<stop offset="1" stop-color="#29DCCC"/>
</linearGradient>
<linearGradient id="paint3_linear_539_2165" x1="139" y1="31.7284" x2="139" y2="246.82" gradientUnits="userSpaceOnUse">
<stop stop-color="white"/>
<stop offset="1" stop-color="white" stop-opacity="0"/>
</linearGradient>
<radialGradient id="paint4_radial_539_2165" cx="0" cy="0" r="1" gradientUnits="userSpaceOnUse" gradientTransform="translate(139 93.51) rotate(90) scale(141.869 107.639)">
<stop stop-color="white"/>
<stop offset="1" stop-color="white" stop-opacity="0"/>
</radialGradient>
<linearGradient id="paint5_linear_539_2165" x1="0" y1="0" x2="0" y2="280" gradientUnits="userSpaceOnUse">
<stop stop-color="white"/>
<stop offset="1" stop-color="white" stop-opacity="0.01"/>
</linearGradient>
<linearGradient id="paint6_linear_539_2165" x1="140.119" y1="36.7944" x2="140.119" y2="245.456" gradientUnits="userSpaceOnUse">
<stop stop-color="white"/>
<stop offset="1" stop-color="#999999"/>
</linearGradient>
<linearGradient id="paint7_linear_539_2165" x1="140" y1="88" x2="140" y2="168" gradientUnits="userSpaceOnUse">
<stop stop-color="#DFDFDF"/>
<stop offset="1" stop-color="#A9A9A9"/>
</linearGradient>
<linearGradient id="paint8_linear_539_2165" x1="139.856" y1="182" x2="139.856" y2="228" gradientUnits="userSpaceOnUse">
<stop stop-opacity="0"/>
<stop offset="1" stop-opacity="0.16"/>
</linearGradient>
<linearGradient id="paint9_linear_539_2165" x1="139.856" y1="159" x2="139.856" y2="228" gradientUnits="userSpaceOnUse">
<stop stop-color="white"/>
<stop offset="1" stop-color="white" stop-opacity="0"/>
</linearGradient>
<radialGradient id="paint10_radial_539_2165" cx="0" cy="0" r="1" gradientUnits="userSpaceOnUse" gradientTransform="translate(139.856 182) rotate(90) scale(46 193.221)">
<stop stop-color="white"/>
<stop offset="1" stop-color="white" stop-opacity="0"/>
</radialGradient>
<linearGradient id="paint11_linear_539_2165" x1="139.856" y1="170" x2="139.856" y2="216" gradientUnits="userSpaceOnUse">
<stop stop-opacity="0"/>
<stop offset="1" stop-opacity="0.16"/>
</linearGradient>
<linearGradient id="paint12_linear_539_2165" x1="139.856" y1="170" x2="139.856" y2="216" gradientUnits="userSpaceOnUse">
<stop stop-color="white"/>
<stop offset="1" stop-color="white" stop-opacity="0"/>
</linearGradient>
<radialGradient id="paint13_radial_539_2165" cx="0" cy="0" r="1" gradientUnits="userSpaceOnUse" gradientTransform="translate(139.856 178.027) rotate(90) scale(37.9729 88)">
<stop stop-color="white"/>
<stop offset="1" stop-color="white" stop-opacity="0"/>
</radialGradient>
</defs>
</svg>




