<svg width="280" height="320" viewBox="0 0 280 320" fill="none" xmlns="http://www.w3.org/2000/svg">
<g filter="url(#filter0_ddd_539_2165)">
<path d="M47.7258 98.3522C47.4773 91.5339 47.3531 88.1247 48.6567 84.4937C49.7748 81.3793 51.8313 78.3654 54.3234 76.1886C57.2291 73.6507 61.4485 72.1731 69.8875 69.2179C87.8437 62.9299 105.167 54.497 121.5 44.6987C128.923 40.2451 132.635 38.0183 135.83 37.3168C139.002 36.6203 141.237 36.6203 144.408 37.3168C147.603 38.0183 151.315 40.2451 158.739 44.6987C175.072 54.497 192.395 62.9299 210.351 69.2179C218.79 72.1731 223.009 73.6507 225.915 76.1886C228.407 78.3654 230.463 81.3793 231.582 84.4937C232.885 88.1247 232.761 91.5339 232.512 98.3522C231.805 117.756 228.303 146.593 215.502 172.621C198.622 206.945 170.429 229.459 153.722 240.549C150.054 242.984 148.22 244.201 144.765 245.027C142.369 245.599 137.869 245.599 135.474 245.027C132.018 244.201 130.184 242.984 126.516 240.549C109.81 229.459 81.6164 206.945 64.736 172.621C51.9354 146.593 48.433 117.756 47.7258 98.3522Z" fill="black"/>
</g>
<mask id="mask0_539_2165" style="mask-type:alpha" maskUnits="userSpaceOnUse" x="47" y="36" width="186" height="210">
<path d="M47.7258 98.3522C47.4773 91.5339 47.3531 88.1247 48.6567 84.4937C49.7748 81.3793 51.8313 78.3654 54.3234 76.1886C57.2291 73.6507 61.4485 72.1731 69.8875 69.2179C87.8437 62.9299 105.167 54.497 121.5 44.6987C128.923 40.2451 132.635 38.0183 135.83 37.3168C139.002 36.6203 141.237 36.6203 144.408 37.3168C147.603 38.0183 151.315 40.2451 158.739 44.6987C175.072 54.497 192.395 62.9299 210.351 69.2179C218.79 72.1731 223.009 73.6507 225.915 76.1886C228.407 78.3654 230.463 81.3793 231.582 84.4937C232.885 88.1247 232.761 91.5339 232.512 98.3522C231.805 117.756 228.303 146.593 215.502 172.621C198.622 206.945 170.429 229.459 153.722 240.549C150.054 242.984 148.22 244.201 144.765 245.027C142.369 245.599 137.869 245.599 135.474 245.027C132.018 244.201 130.184 242.984 126.516 240.549C109.81 229.459 81.6164 206.945 64.736 172.621C51.9354 146.593 48.433 117.756 47.7258 98.3522Z" fill="black"/>
</mask>
<g mask="url(#mask0_539_2165)">
<mask id="mask1_539_2165" style="mask-type:alpha" maskUnits="userSpaceOnUse" x="47" y="36" width="186" height="210">
<path d="M47.7258 98.3522C47.4773 91.5339 47.3531 88.1247 48.6567 84.4937C49.7748 81.3793 51.8313 78.3654 54.3234 76.1886C57.2291 73.6507 61.4485 72.1731 69.8875 69.2179C87.8437 62.9299 105.167 54.497 121.5 44.6987C128.923 40.2451 132.635 38.0183 135.83 37.3168C139.002 36.6203 141.237 36.6203 144.408 37.3168C147.603 38.0183 151.315 40.2451 158.739 44.6987C175.072 54.497 192.395 62.9299 210.351 69.2179C218.79 72.1731 223.009 73.6507 225.915 76.1886C228.407 78.3654 230.463 81.3793 231.582 84.4937C232.885 88.1247 232.761 91.5339 232.512 98.3522C231.805 117.756 228.303 146.593 215.502 172.621C198.622 206.945 170.429 229.459 153.722 240.549C150.054 242.984 148.22 244.201 144.765 245.027C142.369 245.599 137.869 245.599 135.474 245.027C132.018 244.201 130.184 242.984 126.516 240.549C109.81 229.459 81.6164 206.945 64.736 172.621C51.9354 146.593 48.433 117.756 47.7258 98.3522Z" fill="black"/>
</mask>
<g mask="url(#mask1_539_2165)">
<rect width="280" height="280" fill="#4AB04D"/>
<rect width="280" height="280" fill="url(#paint0_linear_539_2165)" fill-opacity="0.6" style="mix-blend-mode:overlay"/>
<rect width="280" height="280" fill="url(#paint1_radial_539_2165)" fill-opacity="0.6" style="mix-blend-mode:overlay"/>
<rect width="280" height="280" fill="black" fill-opacity="0.16" style="mix-blend-mode:overlay"/>
<rect width="280" height="280" fill="black" fill-opacity="0.12" style="mix-blend-mode:darken"/>
</g>
<g filter="url(#filter1_d_539_2165)">
<mask id="mask2_539_2165" style="mask-type:alpha" maskUnits="userSpaceOnUse" x="47" y="36" width="186" height="210">
<path d="M135.83 37.3167C139.002 36.6203 141.237 36.6203 144.408 37.3167C147.603 38.0182 151.315 40.2451 158.739 44.6986C175.071 54.4969 192.395 62.9301 210.351 69.2181C218.79 72.1733 223.01 73.6509 225.915 76.1888C228.407 78.3656 230.464 81.3793 231.582 84.4935C232.886 88.1245 232.761 91.5338 232.513 98.3519L232.438 100.199C231.577 119.555 227.903 147.407 215.502 172.621L214.703 174.221C197.744 207.645 170.168 229.632 153.722 240.549C150.054 242.984 148.221 244.201 144.765 245.027L144.292 245.127C141.98 245.565 138.259 245.565 135.947 245.127L135.474 245.027C132.45 244.305 130.668 243.282 127.813 241.407L126.517 240.549C110.071 229.632 82.4945 207.645 65.5354 174.221L64.7366 172.621C51.9359 146.593 48.433 117.756 47.7258 98.3519C47.4773 91.5338 47.3529 88.1245 48.6565 84.4935C49.7047 81.5737 51.578 78.7419 53.8616 76.6058L54.3235 76.1888C56.8659 73.9681 60.4146 72.5593 66.9153 70.262L69.8879 69.2181C87.2832 63.1266 104.084 55.0215 119.966 45.6126L121.5 44.6986C128.691 40.3845 132.399 38.1597 135.529 37.387L135.83 37.3167ZM142.693 45.1302C140.651 44.6821 139.587 44.6821 137.546 45.1302C137.011 45.2476 136.042 45.5797 134.011 46.6615C131.978 47.744 129.399 49.2889 125.615 51.5589C108.886 61.5949 91.0717 70.2754 72.5315 76.7679C68.2113 78.2808 65.3421 79.2905 63.1721 80.2171C61.0712 81.1143 60.1453 81.7249 59.5862 82.2132C58.1202 83.4937 56.8445 85.3647 56.1868 87.1966C55.5115 89.0774 55.4553 90.7725 55.7209 98.0609C56.4095 116.953 59.8253 144.507 71.9153 169.09C87.9039 201.6 114.779 223.155 130.941 233.884C134.649 236.346 135.416 236.788 137.332 237.245C137.667 237.325 138.69 237.455 140.119 237.455C141.549 237.455 142.572 237.325 142.906 237.245C144.823 236.788 145.59 236.346 149.298 233.884C165.46 223.155 192.335 201.6 208.323 169.09C220.413 144.507 223.829 116.953 224.518 98.0609C224.783 90.7725 224.727 89.0774 224.052 87.1966C223.394 85.3647 222.119 83.4937 220.653 82.2132C220.093 81.7249 219.168 81.1143 217.067 80.2171C214.897 79.2905 212.027 78.2808 207.707 76.7679C189.167 70.2754 171.352 61.5949 154.623 51.5589C150.839 49.2889 148.26 47.744 146.228 46.6615C144.197 45.5797 143.227 45.2476 142.693 45.1302ZM139.292 62.2562C139.834 62.1417 140.405 62.1417 140.947 62.2562C141.563 62.3864 142.136 62.7154 143.281 63.3724C153.768 69.3851 164.144 75.4839 175.113 80.6527C184.647 85.1455 194.499 88.8211 204.363 92.4925C205.9 93.0648 206.669 93.3514 207.237 93.8636C207.73 94.3088 208.12 94.8977 208.337 95.5257C208.587 96.2484 208.552 97.05 208.48 98.6527C207.505 120.384 203.613 142.415 193.966 162.03C182.725 184.885 164.435 203.892 143.631 218.384C142.41 219.235 141.8 219.66 141.083 219.838C140.474 219.99 139.765 219.989 139.156 219.838C138.439 219.66 137.828 219.235 136.607 218.384C115.803 203.892 97.5132 184.885 86.2727 162.03C76.6261 142.415 72.7338 120.384 71.759 98.6527C71.6872 97.0502 71.6507 96.2484 71.9006 95.5257C72.1178 94.8978 72.508 94.3088 73.0012 93.8636C73.569 93.3513 74.3386 93.0648 75.8762 92.4925C85.7445 88.8198 95.5676 85.1572 105.126 80.6527C116.094 75.4839 126.47 69.3851 136.956 63.3724C138.103 62.7152 138.676 62.3864 139.292 62.2562Z" fill="url(#paint2_linear_539_2165)"/>
</mask>
<g mask="url(#mask2_539_2165)">
<rect x="-0.000488281" width="280" height="280" fill="#4AB04D"/>
<rect x="-1" width="280" height="280" fill="url(#paint3_linear_539_2165)" fill-opacity="0.6" style="mix-blend-mode:overlay"/>
<rect x="-1" width="280" height="280" fill="url(#paint4_radial_539_2165)" fill-opacity="0.6" style="mix-blend-mode:overlay"/>
<g style="mix-blend-mode:soft-light">
<path fill-rule="evenodd" clip-rule="evenodd" d="M0 0H140V280H0V0Z" fill="url(#paint5_linear_539_2165)" style="mix-blend-mode:lighten"/>
</g>
</g>
</g>
<g filter="url(#filter2_d_539_2165)">
<path fill-rule="evenodd" clip-rule="evenodd" d="M124 92C124 89.7909 125.791 88 128 88H152C154.209 88 156 89.7909 156 92C156 94.2091 154.209 96 152 96H148.667V99.6957C163.619 103.548 174.667 117.133 174.667 133.301C174.667 152.465 159.146 168 140 168C120.854 168 105.333 152.465 105.333 133.301C105.333 117.133 116.381 103.548 131.333 99.6958V96H128C125.791 96 124 94.2091 124 92ZM135.085 121.546C131.861 122.622 129.331 125.153 128.257 128.379L121.633 148.269C120.93 150.38 122.938 152.388 125.049 151.684L144.914 145.056C148.138 143.98 150.668 141.449 151.742 138.224L158.367 118.333C159.07 116.222 157.061 114.214 154.95 114.918L135.085 121.546Z" fill="white"/>
</g>
</g>
<g filter="url(#filter3_dd_539_2165)">
<mask id="path-12-inside-1_539_2165" fill="white">
<path d="M60.3717 182C64.8519 182 67.0921 182 68.8034 182.872C70.3086 183.639 71.5325 184.863 72.2995 186.368C73.1714 188.079 73.1715 190.32 73.1715 194.8V215.2C73.1715 219.68 73.1714 221.921 72.2995 223.632C71.5325 225.137 70.3086 226.361 68.8034 227.128C67.0921 228 64.8519 228 60.3717 228H43.6491C40.3833 228 38.7499 228 37.734 227.312C36.8463 226.711 36.2368 225.779 36.0426 224.725C35.8205 223.518 36.4758 222.022 37.7868 219.031L43.9372 205L37.7868 190.969C36.4758 187.978 35.8205 186.482 36.0426 185.275C36.2368 184.221 36.8463 183.289 37.734 182.688C38.7499 182 40.3833 182 43.6491 182H60.3717ZM236.063 182C239.329 182 240.962 182 241.978 182.688C242.866 183.289 243.475 184.221 243.67 185.275C243.892 186.482 243.236 187.978 241.924 190.969L235.775 205L241.924 219.031C243.236 222.022 243.892 223.518 243.67 224.725C243.475 225.779 242.866 226.711 241.978 227.312C240.962 228 239.329 228 236.063 228H219.34C214.86 228 212.62 228 210.909 227.128C209.404 226.361 208.18 225.137 207.413 223.632C206.541 221.921 206.541 219.68 206.541 215.2V194.8C206.541 190.32 206.541 188.079 207.413 186.368C208.18 184.863 209.404 183.639 210.909 182.872C212.62 182 214.86 182 219.34 182H236.063Z"/>
</mask>
<path d="M60.3717 182C64.8519 182 67.0921 182 68.8034 182.872C70.3086 183.639 71.5325 184.863 72.2995 186.368C73.1714 188.079 73.1715 190.32 73.1715 194.8V215.2C73.1715 219.68 73.1714 221.921 72.2995 223.632C71.5325 225.137 70.3086 226.361 68.8034 227.128C67.0921 228 64.8519 228 60.3717 228H43.6491C40.3833 228 38.7499 228 37.734 227.312C36.8463 226.711 36.2368 225.779 36.0426 224.725C35.8205 223.518 36.4758 222.022 37.7868 219.031L43.9372 205L37.7868 190.969C36.4758 187.978 35.8205 186.482 36.0426 185.275C36.2368 184.221 36.8463 183.289 37.734 182.688C38.7499 182 40.3833 182 43.6491 182H60.3717ZM236.063 182C239.329 182 240.962 182 241.978 182.688C242.866 183.289 243.475 184.221 243.67 185.275C243.892 186.482 243.236 187.978 241.924 190.969L235.775 205L241.924 219.031C243.236 222.022 243.892 223.518 243.67 224.725C243.475 225.779 242.866 226.711 241.978 227.312C240.962 228 239.329 228 236.063 228H219.34C214.86 228 212.62 228 210.909 227.128C209.404 226.361 208.18 225.137 207.413 223.632C206.541 221.921 206.541 219.68 206.541 215.2V194.8C206.541 190.32 206.541 188.079 207.413 186.368C208.18 184.863 209.404 183.639 210.909 182.872C212.62 182 214.86 182 219.34 182H236.063Z" fill="#F5F0F0"/>
<path d="M60.3717 182V181.5V182ZM68.8034 182.872L69.0304 182.427L69.0304 182.427L68.8034 182.872ZM72.2995 186.368L72.745 186.141V186.141L72.2995 186.368ZM73.1715 194.8H73.6715H73.1715ZM73.1715 215.2H73.6715H73.1715ZM72.2995 223.632L72.745 223.859V223.859L72.2995 223.632ZM68.8034 227.128L69.0304 227.573L69.0304 227.573L68.8034 227.128ZM60.3717 228V228.5V228ZM37.734 227.312L37.4537 227.727L37.4538 227.727L37.734 227.312ZM36.0426 224.725L35.5509 224.815L35.5509 224.815L36.0426 224.725ZM37.7868 219.031L37.3288 218.831L37.3288 218.831L37.7868 219.031ZM43.9372 205L44.3951 205.201L44.4831 205L44.3951 204.799L43.9372 205ZM37.7868 190.969L37.3288 191.169L37.3288 191.169L37.7868 190.969ZM36.0426 185.275L35.5509 185.185L35.5509 185.185L36.0426 185.275ZM37.734 182.688L37.4538 182.273L37.4537 182.273L37.734 182.688ZM236.063 182V181.5V182ZM241.978 182.688L242.259 182.273L242.258 182.273L241.978 182.688ZM243.67 185.275L244.161 185.185V185.185L243.67 185.275ZM241.924 190.969L241.467 190.768V190.768L241.924 190.969ZM235.775 205L235.317 204.799L235.229 205L235.317 205.201L235.775 205ZM241.924 219.031L241.467 219.232V219.232L241.924 219.031ZM243.67 224.725L244.161 224.815V224.815L243.67 224.725ZM241.978 227.312L242.258 227.727L242.259 227.727L241.978 227.312ZM236.063 228V228.5V228ZM210.909 227.128L210.682 227.573L210.682 227.573L210.909 227.128ZM207.413 223.632L206.967 223.859V223.859L207.413 223.632ZM206.541 215.2H206.041H206.541ZM206.541 194.8H206.041H206.541ZM207.413 186.368L206.967 186.141V186.141L207.413 186.368ZM210.909 182.872L210.682 182.427L210.682 182.427L210.909 182.872ZM60.3717 182V182.5C62.6201 182.5 64.2763 182.5 65.5852 182.607C66.8882 182.714 67.803 182.924 68.5764 183.318L68.8034 182.872L69.0304 182.427C68.0925 181.949 67.0315 181.722 65.6666 181.611C64.3076 181.5 62.6036 181.5 60.3717 181.5V182ZM68.8034 182.872L68.5764 183.318C69.9876 184.037 71.1349 185.184 71.854 186.595L72.2995 186.368L72.745 186.141C71.9301 184.542 70.6297 183.241 69.0304 182.427L68.8034 182.872ZM72.2995 186.368L71.854 186.595C72.248 187.369 72.4576 188.283 72.5641 189.586C72.6711 190.895 72.6715 192.551 72.6715 194.8H73.1715H73.6715C73.6715 192.568 73.6719 190.864 73.5608 189.505C73.4492 188.14 73.2228 187.079 72.745 186.141L72.2995 186.368ZM73.1715 194.8H72.6715V215.2H73.1715H73.6715V194.8H73.1715ZM73.1715 215.2H72.6715C72.6715 217.449 72.6711 219.105 72.5641 220.414C72.4576 221.717 72.248 222.631 71.854 223.405L72.2995 223.632L72.745 223.859C73.2228 222.921 73.4492 221.86 73.5608 220.495C73.6719 219.136 73.6715 217.432 73.6715 215.2H73.1715ZM72.2995 223.632L71.854 223.405C71.1349 224.816 69.9876 225.963 68.5764 226.682L68.8034 227.128L69.0304 227.573C70.6297 226.759 71.9301 225.458 72.745 223.859L72.2995 223.632ZM68.8034 227.128L68.5764 226.682C67.803 227.076 66.8882 227.286 65.5852 227.393C64.2763 227.5 62.6201 227.5 60.3717 227.5V228V228.5C62.6036 228.5 64.3076 228.5 65.6666 228.389C67.0315 228.278 68.0925 228.051 69.0304 227.573L68.8034 227.128ZM60.3717 228V227.5H43.6491V228V228.5H60.3717V228ZM43.6491 228V227.5C42.0065 227.5 40.8087 227.5 39.8932 227.416C38.9782 227.333 38.4173 227.171 38.0143 226.898L37.734 227.312L37.4538 227.727C38.0666 228.141 38.8303 228.324 39.8025 228.412C40.7741 228.501 42.0258 228.5 43.6491 228.5V228ZM37.734 227.312L38.0144 226.898C37.2376 226.373 36.7043 225.557 36.5344 224.634L36.0426 224.725L35.5509 224.815C35.7694 226.001 36.455 227.05 37.4537 227.727L37.734 227.312ZM36.0426 224.725L36.5344 224.634C36.4462 224.155 36.5233 223.577 36.8141 222.705C37.1051 221.834 37.5854 220.736 38.2447 219.232L37.7868 219.031L37.3288 218.831C36.6772 220.317 36.1744 221.463 35.8655 222.389C35.5565 223.315 35.4169 224.087 35.5509 224.815L36.0426 224.725ZM37.7868 219.031L38.2447 219.232L44.3951 205.201L43.9372 205L43.4792 204.799L37.3288 218.831L37.7868 219.031ZM43.9372 205L44.3951 204.799L38.2447 190.768L37.7868 190.969L37.3288 191.169L43.4792 205.201L43.9372 205ZM37.7868 190.969L38.2447 190.768C37.5854 189.264 37.1051 188.166 36.8141 187.295C36.5233 186.423 36.4462 185.845 36.5344 185.366L36.0426 185.275L35.5509 185.185C35.4169 185.913 35.5565 186.685 35.8655 187.611C36.1744 188.537 36.6772 189.683 37.3288 191.169L37.7868 190.969ZM36.0426 185.275L36.5344 185.366C36.7043 184.443 37.2376 183.627 38.0144 183.102L37.734 182.688L37.4537 182.273C36.455 182.95 35.7694 183.999 35.5509 185.185L36.0426 185.275ZM37.734 182.688L38.0143 183.102C38.4173 182.829 38.9782 182.667 39.8932 182.584C40.8087 182.5 42.0065 182.5 43.6491 182.5V182V181.5C42.0258 181.5 40.7741 181.499 39.8025 181.588C38.8303 181.676 38.0666 181.859 37.4538 182.273L37.734 182.688ZM43.6491 182V182.5H60.3717V182V181.5H43.6491V182ZM236.063 182V182.5C237.706 182.5 238.904 182.5 239.819 182.584C240.734 182.667 241.295 182.829 241.698 183.102L241.978 182.688L242.258 182.273C241.646 181.859 240.882 181.676 239.91 181.588C238.938 181.499 237.686 181.5 236.063 181.5V182ZM241.978 182.688L241.698 183.102C242.475 183.627 243.008 184.443 243.178 185.366L243.67 185.275L244.161 185.185C243.943 183.999 243.257 182.95 242.259 182.273L241.978 182.688ZM243.67 185.275L243.178 185.366C243.266 185.844 243.189 186.423 242.898 187.294C242.606 188.166 242.126 189.264 241.467 190.768L241.924 190.969L242.382 191.169C243.034 189.683 243.537 188.537 243.846 187.611C244.155 186.685 244.295 185.913 244.161 185.185L243.67 185.275ZM241.924 190.969L241.467 190.768L235.317 204.799L235.775 205L236.233 205.201L242.382 191.169L241.924 190.969ZM235.775 205L235.317 205.201L241.467 219.232L241.924 219.031L242.382 218.831L236.233 204.799L235.775 205ZM241.924 219.031L241.467 219.232C242.126 220.736 242.606 221.834 242.898 222.706C243.189 223.577 243.266 224.156 243.178 224.634L243.67 224.725L244.161 224.815C244.295 224.087 244.155 223.315 243.846 222.389C243.537 221.463 243.034 220.317 242.382 218.831L241.924 219.031ZM243.67 224.725L243.178 224.634C243.008 225.557 242.475 226.373 241.698 226.898L241.978 227.312L242.259 227.727C243.257 227.05 243.943 226.001 244.161 224.815L243.67 224.725ZM241.978 227.312L241.698 226.898C241.295 227.171 240.734 227.333 239.819 227.416C238.904 227.5 237.706 227.5 236.063 227.5V228V228.5C237.686 228.5 238.938 228.501 239.91 228.412C240.882 228.324 241.646 228.141 242.258 227.727L241.978 227.312ZM236.063 228V227.5H219.34V228V228.5H236.063V228ZM219.34 228V227.5C217.092 227.5 215.436 227.5 214.127 227.393C212.824 227.286 211.909 227.076 211.136 226.682L210.909 227.128L210.682 227.573C211.62 228.051 212.681 228.278 214.046 228.389C215.405 228.5 217.109 228.5 219.34 228.5V228ZM210.909 227.128L211.136 226.682C209.725 225.963 208.577 224.816 207.858 223.405L207.413 223.632L206.967 223.859C207.782 225.458 209.083 226.759 210.682 227.573L210.909 227.128ZM207.413 223.632L207.858 223.405C207.464 222.631 207.255 221.717 207.148 220.414C207.041 219.105 207.041 217.449 207.041 215.2H206.541H206.041C206.041 217.432 206.04 219.136 206.151 220.495C206.263 221.86 206.489 222.921 206.967 223.859L207.413 223.632ZM206.541 215.2H207.041V194.8H206.541H206.041V215.2H206.541ZM206.541 194.8H207.041C207.041 192.551 207.041 190.895 207.148 189.586C207.255 188.283 207.464 187.369 207.858 186.595L207.413 186.368L206.967 186.141C206.489 187.079 206.263 188.14 206.151 189.505C206.04 190.864 206.041 192.568 206.041 194.8H206.541ZM207.413 186.368L207.858 186.595C208.577 185.184 209.725 184.037 211.136 183.318L210.909 182.872L210.682 182.427C209.083 183.241 207.782 184.542 206.967 186.141L207.413 186.368ZM210.909 182.872L211.136 183.318C211.909 182.924 212.824 182.714 214.127 182.607C215.436 182.5 217.092 182.5 219.34 182.5V182V181.5C217.109 181.5 215.405 181.5 214.046 181.611C212.681 181.722 211.62 181.949 210.682 182.427L210.909 182.872ZM219.34 182V182.5H236.063V182V181.5H219.34V182Z" fill="url(#paint6_linear_539_2165)" style="mix-blend-mode:darken" mask="url(#path-12-inside-1_539_2165)"/>
</g>
<path d="M60.3717 182C64.8519 182 67.0921 182 68.8034 182.872C70.3086 183.639 71.5325 184.863 72.2995 186.368C73.1714 188.079 73.1715 190.32 73.1715 194.8V215.2C73.1715 219.68 73.1714 221.921 72.2995 223.632C71.5325 225.137 70.3086 226.361 68.8034 227.128C67.0921 228 64.8519 228 60.3717 228H43.6491C40.3833 228 38.7499 228 37.734 227.312C36.8463 226.711 36.2368 225.779 36.0426 224.725C35.8205 223.518 36.4758 222.022 37.7868 219.031L43.9372 205L37.7868 190.969C36.4758 187.978 35.8205 186.482 36.0426 185.275C36.2368 184.221 36.8463 183.289 37.734 182.688C38.7499 182 40.3833 182 43.6491 182H60.3717ZM236.063 182C239.329 182 240.962 182 241.978 182.688C242.866 183.289 243.475 184.221 243.67 185.275C243.892 186.482 243.236 187.978 241.924 190.969L235.775 205L241.924 219.031C243.236 222.022 243.892 223.518 243.67 224.725C243.475 225.779 242.866 226.711 241.978 227.312C240.962 228 239.329 228 236.063 228H219.34C214.86 228 212.62 228 210.909 227.128C209.404 226.361 208.18 225.137 207.413 223.632C206.541 221.921 206.541 219.68 206.541 215.2V194.8C206.541 190.32 206.541 188.079 207.413 186.368C208.18 184.863 209.404 183.639 210.909 182.872C212.62 182 214.86 182 219.34 182H236.063Z" fill="url(#paint7_linear_539_2165)" fill-opacity="0.3" style="mix-blend-mode:overlay"/>
<path d="M60.3717 182C64.8519 182 67.0921 182 68.8034 182.872C70.3086 183.639 71.5325 184.863 72.2995 186.368C73.1714 188.079 73.1715 190.32 73.1715 194.8V215.2C73.1715 219.68 73.1714 221.921 72.2995 223.632C71.5325 225.137 70.3086 226.361 68.8034 227.128C67.0921 228 64.8519 228 60.3717 228H43.6491C40.3833 228 38.7499 228 37.734 227.312C36.8463 226.711 36.2368 225.779 36.0426 224.725C35.8205 223.518 36.4758 222.022 37.7868 219.031L43.9372 205L37.7868 190.969C36.4758 187.978 35.8205 186.482 36.0426 185.275C36.2368 184.221 36.8463 183.289 37.734 182.688C38.7499 182 40.3833 182 43.6491 182H60.3717ZM236.063 182C239.329 182 240.962 182 241.978 182.688C242.866 183.289 243.475 184.221 243.67 185.275C243.892 186.482 243.236 187.978 241.924 190.969L235.775 205L241.924 219.031C243.236 222.022 243.892 223.518 243.67 224.725C243.475 225.779 242.866 226.711 241.978 227.312C240.962 228 239.329 228 236.063 228H219.34C214.86 228 212.62 228 210.909 227.128C209.404 226.361 208.18 225.137 207.413 223.632C206.541 221.921 206.541 219.68 206.541 215.2V194.8C206.541 190.32 206.541 188.079 207.413 186.368C208.18 184.863 209.404 183.639 210.909 182.872C212.62 182 214.86 182 219.34 182H236.063Z" fill="url(#paint8_radial_539_2165)" fill-opacity="0.6" style="mix-blend-mode:overlay"/>
<path d="M60.3717 182C64.8519 182 67.0921 182 68.8034 182.872C70.3086 183.639 71.5325 184.863 72.2995 186.368C73.1714 188.079 73.1715 190.32 73.1715 194.8V215.2C73.1715 219.68 73.1714 221.921 72.2995 223.632C71.5325 225.137 70.3086 226.361 68.8034 227.128C67.0921 228 64.8519 228 60.3717 228H43.6491C40.3833 228 38.7499 228 37.734 227.312C36.8463 226.711 36.2368 225.779 36.0426 224.725C35.8205 223.518 36.4758 222.022 37.7868 219.031L43.9372 205L37.7868 190.969C36.4758 187.978 35.8205 186.482 36.0426 185.275C36.2368 184.221 36.8463 183.289 37.734 182.688C38.7499 182 40.3833 182 43.6491 182H60.3717ZM236.063 182C239.329 182 240.962 182 241.978 182.688C242.866 183.289 243.475 184.221 243.67 185.275C243.892 186.482 243.236 187.978 241.924 190.969L235.775 205L241.924 219.031C243.236 222.022 243.892 223.518 243.67 224.725C243.475 225.779 242.866 226.711 241.978 227.312C240.962 228 239.329 228 236.063 228H219.34C214.86 228 212.62 228 210.909 227.128C209.404 226.361 208.18 225.137 207.413 223.632C206.541 221.921 206.541 219.68 206.541 215.2V194.8C206.541 190.32 206.541 188.079 207.413 186.368C208.18 184.863 209.404 183.639 210.909 182.872C212.62 182 214.86 182 219.34 182H236.063Z" fill="black" fill-opacity="0.24" style="mix-blend-mode:overlay"/>
<path d="M60.3717 182C64.8519 182 67.0921 182 68.8034 182.872C70.3086 183.639 71.5325 184.863 72.2995 186.368C73.1714 188.079 73.1715 190.32 73.1715 194.8V215.2C73.1715 219.68 73.1714 221.921 72.2995 223.632C71.5325 225.137 70.3086 226.361 68.8034 227.128C67.0921 228 64.8519 228 60.3717 228H43.6491C40.3833 228 38.7499 228 37.734 227.312C36.8463 226.711 36.2368 225.779 36.0426 224.725C35.8205 223.518 36.4758 222.022 37.7868 219.031L43.9372 205L37.7868 190.969C36.4758 187.978 35.8205 186.482 36.0426 185.275C36.2368 184.221 36.8463 183.289 37.734 182.688C38.7499 182 40.3833 182 43.6491 182H60.3717ZM236.063 182C239.329 182 240.962 182 241.978 182.688C242.866 183.289 243.475 184.221 243.67 185.275C243.892 186.482 243.236 187.978 241.924 190.969L235.775 205L241.924 219.031C243.236 222.022 243.892 223.518 243.67 224.725C243.475 225.779 242.866 226.711 241.978 227.312C240.962 228 239.329 228 236.063 228H219.34C214.86 228 212.62 228 210.909 227.128C209.404 226.361 208.18 225.137 207.413 223.632C206.541 221.921 206.541 219.68 206.541 215.2V194.8C206.541 190.32 206.541 188.079 207.413 186.368C208.18 184.863 209.404 183.639 210.909 182.872C212.62 182 214.86 182 219.34 182H236.063Z" fill="black" fill-opacity="0.12" style="mix-blend-mode:darken"/>
<g filter="url(#filter4_dd_539_2165)">
<rect x="51.856" y="170" width="176" height="46" rx="8" fill="#F5F0F0"/>
<rect x="52.106" y="170.25" width="175.5" height="45.5" rx="7.75" stroke="url(#paint9_linear_539_2165)" stroke-width="0.5" stroke-linecap="round" style="mix-blend-mode:darken"/>
</g>
<rect x="51.856" y="170" width="176" height="46" rx="8" fill="url(#paint10_linear_539_2165)" fill-opacity="0.3" style="mix-blend-mode:overlay"/>
<rect x="51.856" y="170" width="176" height="46" rx="8" fill="url(#paint11_radial_539_2165)" fill-opacity="0.6" style="mix-blend-mode:overlay"/>
<g filter="url(#filter5_i_539_2165)">
<circle cx="62.856" cy="193" r="3" fill="black" fill-opacity="0.24" style="mix-blend-mode:color-burn"/>
<circle cx="62.856" cy="193" r="3" fill="black" fill-opacity="0.32" style="mix-blend-mode:darken"/>
</g>
<g filter="url(#filter6_i_539_2165)">
<circle cx="216.856" cy="193" r="3" fill="black" fill-opacity="0.24" style="mix-blend-mode:color-burn"/>
<circle cx="216.856" cy="193" r="3" fill="black" fill-opacity="0.32" style="mix-blend-mode:darken"/>
</g>
<g filter="url(#filter7_i_539_2165)">
<path d="M92.3676 194.024H88.7436V187.4C88.7436 186.792 88.9196 186.32 89.2716 185.984C89.6236 185.632 90.0956 185.456 90.6876 185.456C91.0236 185.456 91.3436 185.48 91.6476 185.528C91.9676 185.576 92.2076 185.616 92.3676 185.648V194.024ZM90.6396 194.576V191.648H97.8636C97.9596 191.808 98.0476 192.016 98.1276 192.272C98.2076 192.512 98.2476 192.776 98.2476 193.064C98.2476 193.576 98.1276 193.96 97.8876 194.216C97.6636 194.456 97.3516 194.576 96.9516 194.576H90.6396ZM90.6876 188.384V185.456H98.6796C98.7756 185.6 98.8636 185.8 98.9436 186.056C99.0236 186.312 99.0636 186.584 99.0636 186.872C99.0636 187.384 98.9436 187.768 98.7036 188.024C98.4796 188.264 98.1676 188.384 97.7676 188.384H90.6876ZM88.7436 192.608H92.3916V199.976C92.2476 200.024 92.0156 200.064 91.6956 200.096C91.3756 200.144 91.0476 200.168 90.7116 200.168C89.9916 200.168 89.4796 200.04 89.1756 199.784C88.8876 199.528 88.7436 199.088 88.7436 198.464V192.608ZM101.423 189.848H105.071V199.976C104.927 200.024 104.695 200.064 104.375 200.096C104.055 200.144 103.727 200.168 103.391 200.168C102.671 200.168 102.159 200.04 101.855 199.784C101.567 199.528 101.423 199.08 101.423 198.44V189.848ZM105.071 194.456H101.423V185.408C101.583 185.376 101.823 185.336 102.143 185.288C102.479 185.24 102.807 185.216 103.127 185.216C103.815 185.216 104.311 185.336 104.615 185.576C104.919 185.816 105.071 186.272 105.071 186.944V194.456ZM112.125 192.272H113.685C114.485 192.272 115.125 192.096 115.605 191.744C116.101 191.376 116.349 190.84 116.349 190.136C116.349 189.448 116.117 188.928 115.653 188.576C115.189 188.208 114.477 188.024 113.517 188.024C113.245 188.024 112.997 188.032 112.773 188.048C112.549 188.064 112.333 188.096 112.125 188.144V192.272ZM114.021 195.104H108.501V186.728C108.501 186.424 108.589 186.184 108.765 186.008C108.941 185.832 109.173 185.696 109.461 185.6C109.989 185.408 110.605 185.272 111.309 185.192C112.029 185.112 112.773 185.072 113.541 185.072C115.701 185.072 117.325 185.528 118.413 186.44C119.501 187.336 120.045 188.56 120.045 190.112C120.045 191.072 119.781 191.936 119.253 192.704C118.741 193.456 118.029 194.048 117.117 194.48C116.221 194.896 115.189 195.104 114.021 195.104ZM113.349 194.24L116.613 193.472C116.981 193.984 117.357 194.488 117.741 194.984C118.141 195.48 118.517 195.96 118.869 196.424C119.237 196.888 119.565 197.32 119.853 197.72C120.141 198.104 120.373 198.432 120.549 198.704C120.405 199.184 120.149 199.56 119.781 199.832C119.413 200.088 118.997 200.216 118.533 200.216C117.941 200.216 117.485 200.088 117.165 199.832C116.861 199.56 116.573 199.208 116.301 198.776L113.349 194.24ZM108.501 193.736H112.149V199.976C112.005 200.024 111.773 200.064 111.453 200.096C111.133 200.144 110.805 200.168 110.469 200.168C109.749 200.168 109.237 200.04 108.933 199.784C108.645 199.528 108.501 199.08 108.501 198.44V193.736ZM127.33 197.432C128.194 197.432 128.81 197.28 129.178 196.976C129.562 196.656 129.754 196.28 129.754 195.848C129.754 195.448 129.602 195.128 129.298 194.888C129.01 194.632 128.578 194.416 128.002 194.24L126.73 193.832C125.866 193.544 125.098 193.224 124.426 192.872C123.77 192.52 123.258 192.064 122.89 191.504C122.538 190.944 122.362 190.232 122.362 189.368C122.362 188.04 122.866 186.984 123.874 186.2C124.882 185.416 126.282 185.024 128.074 185.024C128.986 185.024 129.794 185.112 130.498 185.288C131.218 185.464 131.778 185.728 132.178 186.08C132.594 186.416 132.802 186.832 132.802 187.328C132.802 187.696 132.714 188.016 132.538 188.288C132.378 188.544 132.17 188.768 131.914 188.96C131.546 188.704 131.058 188.488 130.45 188.312C129.842 188.12 129.17 188.024 128.434 188.024C127.666 188.024 127.09 188.152 126.706 188.408C126.322 188.648 126.13 188.968 126.13 189.368C126.13 189.688 126.258 189.952 126.514 190.16C126.77 190.352 127.154 190.528 127.666 190.688L128.986 191.096C130.442 191.544 131.562 192.144 132.346 192.896C133.13 193.632 133.522 194.624 133.522 195.872C133.522 197.216 133.002 198.312 131.962 199.16C130.922 199.992 129.418 200.408 127.45 200.408C126.474 200.408 125.602 200.304 124.834 200.096C124.066 199.888 123.45 199.584 122.986 199.184C122.538 198.784 122.314 198.32 122.314 197.792C122.314 197.376 122.434 197.024 122.674 196.736C122.93 196.432 123.21 196.208 123.514 196.064C123.946 196.416 124.482 196.736 125.122 197.024C125.778 197.296 126.514 197.432 127.33 197.432ZM138.88 188.384L138.856 185.456H146.272C146.368 185.6 146.456 185.8 146.536 186.056C146.616 186.312 146.656 186.584 146.656 186.872C146.656 187.384 146.536 187.768 146.296 188.024C146.072 188.264 145.76 188.384 145.36 188.384H138.88ZM142.264 185.456L142.288 188.384H134.872C134.76 188.24 134.664 188.04 134.584 187.784C134.52 187.528 134.488 187.256 134.488 186.968C134.488 186.44 134.6 186.056 134.824 185.816C135.064 185.576 135.376 185.456 135.76 185.456H142.264ZM138.688 187.736H142.36V199.976C142.2 200.024 141.96 200.064 141.64 200.096C141.32 200.144 140.992 200.168 140.656 200.168C139.936 200.168 139.424 200.04 139.12 199.784C138.832 199.528 138.688 199.08 138.688 198.44V187.736ZM156.833 188.384L156.809 185.456H164.225C164.321 185.6 164.409 185.8 164.489 186.056C164.569 186.312 164.609 186.584 164.609 186.872C164.609 187.384 164.489 187.768 164.249 188.024C164.025 188.264 163.713 188.384 163.313 188.384H156.833ZM160.217 185.456L160.241 188.384H152.825C152.713 188.24 152.617 188.04 152.537 187.784C152.473 187.528 152.441 187.256 152.441 186.968C152.441 186.44 152.553 186.056 152.777 185.816C153.017 185.576 153.329 185.456 153.713 185.456H160.217ZM156.641 187.736H160.313V199.976C160.153 200.024 159.913 200.064 159.593 200.096C159.273 200.144 158.945 200.168 158.609 200.168C157.889 200.168 157.377 200.04 157.073 199.784C156.785 199.528 156.641 199.08 156.641 198.44V187.736ZM170.438 192.272H171.998C172.798 192.272 173.438 192.096 173.918 191.744C174.414 191.376 174.662 190.84 174.662 190.136C174.662 189.448 174.43 188.928 173.966 188.576C173.502 188.208 172.79 188.024 171.83 188.024C171.558 188.024 171.31 188.032 171.086 188.048C170.862 188.064 170.646 188.096 170.438 188.144V192.272ZM172.334 195.104H166.814V186.728C166.814 186.424 166.902 186.184 167.078 186.008C167.254 185.832 167.486 185.696 167.774 185.6C168.302 185.408 168.918 185.272 169.622 185.192C170.342 185.112 171.086 185.072 171.854 185.072C174.014 185.072 175.638 185.528 176.726 186.44C177.814 187.336 178.358 188.56 178.358 190.112C178.358 191.072 178.094 191.936 177.566 192.704C177.054 193.456 176.342 194.048 175.43 194.48C174.534 194.896 173.502 195.104 172.334 195.104ZM171.662 194.24L174.926 193.472C175.294 193.984 175.67 194.488 176.054 194.984C176.454 195.48 176.83 195.96 177.182 196.424C177.55 196.888 177.878 197.32 178.166 197.72C178.454 198.104 178.686 198.432 178.862 198.704C178.718 199.184 178.462 199.56 178.094 199.832C177.726 200.088 177.31 200.216 176.846 200.216C176.254 200.216 175.798 200.088 175.478 199.832C175.174 199.56 174.886 199.208 174.614 198.776L171.662 194.24ZM166.814 193.736H170.462V199.976C170.318 200.024 170.086 200.064 169.766 200.096C169.446 200.144 169.118 200.168 168.782 200.168C168.062 200.168 167.55 200.04 167.246 199.784C166.958 199.528 166.814 199.08 166.814 198.44V193.736ZM187.72 195.32H184.456C184.04 194.712 183.584 194.024 183.088 193.256C182.592 192.488 182.104 191.696 181.624 190.88C181.144 190.048 180.688 189.248 180.256 188.48C179.84 187.712 179.504 187.024 179.248 186.416C179.424 186.16 179.664 185.92 179.968 185.696C180.288 185.472 180.688 185.36 181.168 185.36C181.712 185.36 182.152 185.48 182.488 185.72C182.824 185.944 183.144 186.36 183.448 186.968C183.656 187.352 183.864 187.752 184.072 188.168C184.296 188.568 184.512 188.984 184.72 189.416C184.944 189.832 185.16 190.248 185.368 190.664C185.592 191.064 185.8 191.448 185.992 191.816H186.112C186.48 191.08 186.808 190.4 187.096 189.776C187.384 189.152 187.664 188.52 187.936 187.88C188.224 187.224 188.536 186.512 188.872 185.744C189.112 185.616 189.384 185.52 189.688 185.456C189.992 185.392 190.28 185.36 190.552 185.36C191.048 185.36 191.464 185.488 191.8 185.744C192.136 186 192.304 186.384 192.304 186.896C192.304 187.088 192.232 187.368 192.088 187.736C191.944 188.104 191.696 188.616 191.344 189.272C190.992 189.912 190.52 190.728 189.928 191.72C189.352 192.696 188.616 193.896 187.72 195.32ZM184.264 194H187.864V199.976C187.704 200.024 187.464 200.064 187.144 200.096C186.84 200.144 186.528 200.168 186.208 200.168C185.488 200.168 184.984 200.048 184.696 199.808C184.408 199.552 184.264 199.112 184.264 198.488V194Z" fill="black" fill-opacity="0.24" style="mix-blend-mode:color-burn"/>
<path d="M92.3676 194.024H88.7436V187.4C88.7436 186.792 88.9196 186.32 89.2716 185.984C89.6236 185.632 90.0956 185.456 90.6876 185.456C91.0236 185.456 91.3436 185.48 91.6476 185.528C91.9676 185.576 92.2076 185.616 92.3676 185.648V194.024ZM90.6396 194.576V191.648H97.8636C97.9596 191.808 98.0476 192.016 98.1276 192.272C98.2076 192.512 98.2476 192.776 98.2476 193.064C98.2476 193.576 98.1276 193.96 97.8876 194.216C97.6636 194.456 97.3516 194.576 96.9516 194.576H90.6396ZM90.6876 188.384V185.456H98.6796C98.7756 185.6 98.8636 185.8 98.9436 186.056C99.0236 186.312 99.0636 186.584 99.0636 186.872C99.0636 187.384 98.9436 187.768 98.7036 188.024C98.4796 188.264 98.1676 188.384 97.7676 188.384H90.6876ZM88.7436 192.608H92.3916V199.976C92.2476 200.024 92.0156 200.064 91.6956 200.096C91.3756 200.144 91.0476 200.168 90.7116 200.168C89.9916 200.168 89.4796 200.04 89.1756 199.784C88.8876 199.528 88.7436 199.088 88.7436 198.464V192.608ZM101.423 189.848H105.071V199.976C104.927 200.024 104.695 200.064 104.375 200.096C104.055 200.144 103.727 200.168 103.391 200.168C102.671 200.168 102.159 200.04 101.855 199.784C101.567 199.528 101.423 199.08 101.423 198.44V189.848ZM105.071 194.456H101.423V185.408C101.583 185.376 101.823 185.336 102.143 185.288C102.479 185.24 102.807 185.216 103.127 185.216C103.815 185.216 104.311 185.336 104.615 185.576C104.919 185.816 105.071 186.272 105.071 186.944V194.456ZM112.125 192.272H113.685C114.485 192.272 115.125 192.096 115.605 191.744C116.101 191.376 116.349 190.84 116.349 190.136C116.349 189.448 116.117 188.928 115.653 188.576C115.189 188.208 114.477 188.024 113.517 188.024C113.245 188.024 112.997 188.032 112.773 188.048C112.549 188.064 112.333 188.096 112.125 188.144V192.272ZM114.021 195.104H108.501V186.728C108.501 186.424 108.589 186.184 108.765 186.008C108.941 185.832 109.173 185.696 109.461 185.6C109.989 185.408 110.605 185.272 111.309 185.192C112.029 185.112 112.773 185.072 113.541 185.072C115.701 185.072 117.325 185.528 118.413 186.44C119.501 187.336 120.045 188.56 120.045 190.112C120.045 191.072 119.781 191.936 119.253 192.704C118.741 193.456 118.029 194.048 117.117 194.48C116.221 194.896 115.189 195.104 114.021 195.104ZM113.349 194.24L116.613 193.472C116.981 193.984 117.357 194.488 117.741 194.984C118.141 195.48 118.517 195.96 118.869 196.424C119.237 196.888 119.565 197.32 119.853 197.72C120.141 198.104 120.373 198.432 120.549 198.704C120.405 199.184 120.149 199.56 119.781 199.832C119.413 200.088 118.997 200.216 118.533 200.216C117.941 200.216 117.485 200.088 117.165 199.832C116.861 199.56 116.573 199.208 116.301 198.776L113.349 194.24ZM108.501 193.736H112.149V199.976C112.005 200.024 111.773 200.064 111.453 200.096C111.133 200.144 110.805 200.168 110.469 200.168C109.749 200.168 109.237 200.04 108.933 199.784C108.645 199.528 108.501 199.08 108.501 198.44V193.736ZM127.33 197.432C128.194 197.432 128.81 197.28 129.178 196.976C129.562 196.656 129.754 196.28 129.754 195.848C129.754 195.448 129.602 195.128 129.298 194.888C129.01 194.632 128.578 194.416 128.002 194.24L126.73 193.832C125.866 193.544 125.098 193.224 124.426 192.872C123.77 192.52 123.258 192.064 122.89 191.504C122.538 190.944 122.362 190.232 122.362 189.368C122.362 188.04 122.866 186.984 123.874 186.2C124.882 185.416 126.282 185.024 128.074 185.024C128.986 185.024 129.794 185.112 130.498 185.288C131.218 185.464 131.778 185.728 132.178 186.08C132.594 186.416 132.802 186.832 132.802 187.328C132.802 187.696 132.714 188.016 132.538 188.288C132.378 188.544 132.17 188.768 131.914 188.96C131.546 188.704 131.058 188.488 130.45 188.312C129.842 188.12 129.17 188.024 128.434 188.024C127.666 188.024 127.09 188.152 126.706 188.408C126.322 188.648 126.13 188.968 126.13 189.368C126.13 189.688 126.258 189.952 126.514 190.16C126.77 190.352 127.154 190.528 127.666 190.688L128.986 191.096C130.442 191.544 131.562 192.144 132.346 192.896C133.13 193.632 133.522 194.624 133.522 195.872C133.522 197.216 133.002 198.312 131.962 199.16C130.922 199.992 129.418 200.408 127.45 200.408C126.474 200.408 125.602 200.304 124.834 200.096C124.066 199.888 123.45 199.584 122.986 199.184C122.538 198.784 122.314 198.32 122.314 197.792C122.314 197.376 122.434 197.024 122.674 196.736C122.93 196.432 123.21 196.208 123.514 196.064C123.946 196.416 124.482 196.736 125.122 197.024C125.778 197.296 126.514 197.432 127.33 197.432ZM138.88 188.384L138.856 185.456H146.272C146.368 185.6 146.456 185.8 146.536 186.056C146.616 186.312 146.656 186.584 146.656 186.872C146.656 187.384 146.536 187.768 146.296 188.024C146.072 188.264 145.76 188.384 145.36 188.384H138.88ZM142.264 185.456L142.288 188.384H134.872C134.76 188.24 134.664 188.04 134.584 187.784C134.52 187.528 134.488 187.256 134.488 186.968C134.488 186.44 134.6 186.056 134.824 185.816C135.064 185.576 135.376 185.456 135.76 185.456H142.264ZM138.688 187.736H142.36V199.976C142.2 200.024 141.96 200.064 141.64 200.096C141.32 200.144 140.992 200.168 140.656 200.168C139.936 200.168 139.424 200.04 139.12 199.784C138.832 199.528 138.688 199.08 138.688 198.44V187.736ZM156.833 188.384L156.809 185.456H164.225C164.321 185.6 164.409 185.8 164.489 186.056C164.569 186.312 164.609 186.584 164.609 186.872C164.609 187.384 164.489 187.768 164.249 188.024C164.025 188.264 163.713 188.384 163.313 188.384H156.833ZM160.217 185.456L160.241 188.384H152.825C152.713 188.24 152.617 188.04 152.537 187.784C152.473 187.528 152.441 187.256 152.441 186.968C152.441 186.44 152.553 186.056 152.777 185.816C153.017 185.576 153.329 185.456 153.713 185.456H160.217ZM156.641 187.736H160.313V199.976C160.153 200.024 159.913 200.064 159.593 200.096C159.273 200.144 158.945 200.168 158.609 200.168C157.889 200.168 157.377 200.04 157.073 199.784C156.785 199.528 156.641 199.08 156.641 198.44V187.736ZM170.438 192.272H171.998C172.798 192.272 173.438 192.096 173.918 191.744C174.414 191.376 174.662 190.84 174.662 190.136C174.662 189.448 174.43 188.928 173.966 188.576C173.502 188.208 172.79 188.024 171.83 188.024C171.558 188.024 171.31 188.032 171.086 188.048C170.862 188.064 170.646 188.096 170.438 188.144V192.272ZM172.334 195.104H166.814V186.728C166.814 186.424 166.902 186.184 167.078 186.008C167.254 185.832 167.486 185.696 167.774 185.6C168.302 185.408 168.918 185.272 169.622 185.192C170.342 185.112 171.086 185.072 171.854 185.072C174.014 185.072 175.638 185.528 176.726 186.44C177.814 187.336 178.358 188.56 178.358 190.112C178.358 191.072 178.094 191.936 177.566 192.704C177.054 193.456 176.342 194.048 175.43 194.48C174.534 194.896 173.502 195.104 172.334 195.104ZM171.662 194.24L174.926 193.472C175.294 193.984 175.67 194.488 176.054 194.984C176.454 195.48 176.83 195.96 177.182 196.424C177.55 196.888 177.878 197.32 178.166 197.72C178.454 198.104 178.686 198.432 178.862 198.704C178.718 199.184 178.462 199.56 178.094 199.832C177.726 200.088 177.31 200.216 176.846 200.216C176.254 200.216 175.798 200.088 175.478 199.832C175.174 199.56 174.886 199.208 174.614 198.776L171.662 194.24ZM166.814 193.736H170.462V199.976C170.318 200.024 170.086 200.064 169.766 200.096C169.446 200.144 169.118 200.168 168.782 200.168C168.062 200.168 167.55 200.04 167.246 199.784C166.958 199.528 166.814 199.08 166.814 198.44V193.736ZM187.72 195.32H184.456C184.04 194.712 183.584 194.024 183.088 193.256C182.592 192.488 182.104 191.696 181.624 190.88C181.144 190.048 180.688 189.248 180.256 188.48C179.84 187.712 179.504 187.024 179.248 186.416C179.424 186.16 179.664 185.92 179.968 185.696C180.288 185.472 180.688 185.36 181.168 185.36C181.712 185.36 182.152 185.48 182.488 185.72C182.824 185.944 183.144 186.36 183.448 186.968C183.656 187.352 183.864 187.752 184.072 188.168C184.296 188.568 184.512 188.984 184.72 189.416C184.944 189.832 185.16 190.248 185.368 190.664C185.592 191.064 185.8 191.448 185.992 191.816H186.112C186.48 191.08 186.808 190.4 187.096 189.776C187.384 189.152 187.664 188.52 187.936 187.88C188.224 187.224 188.536 186.512 188.872 185.744C189.112 185.616 189.384 185.52 189.688 185.456C189.992 185.392 190.28 185.36 190.552 185.36C191.048 185.36 191.464 185.488 191.8 185.744C192.136 186 192.304 186.384 192.304 186.896C192.304 187.088 192.232 187.368 192.088 187.736C191.944 188.104 191.696 188.616 191.344 189.272C190.992 189.912 190.52 190.728 189.928 191.72C189.352 192.696 188.616 193.896 187.72 195.32ZM184.264 194H187.864V199.976C187.704 200.024 187.464 200.064 187.144 200.096C186.84 200.144 186.528 200.168 186.208 200.168C185.488 200.168 184.984 200.048 184.696 199.808C184.408 199.552 184.264 199.112 184.264 198.488V194Z" fill="black" fill-opacity="0.32" style="mix-blend-mode:darken"/>
</g>
<defs>
<filter id="filter0_ddd_539_2165" x="19.5664" y="30.7944" width="241.105" height="288.661" filterUnits="userSpaceOnUse" color-interpolation-filters="sRGB">
<feFlood flood-opacity="0" result="BackgroundImageFix"/>
<feColorMatrix in="SourceAlpha" type="matrix" values="0 0 0 0 0 0 0 0 0 0 0 0 0 0 0 0 0 0 127 0" result="hardAlpha"/>
<feOffset dy="5"/>
<feGaussianBlur stdDeviation="5.5"/>
<feColorMatrix type="matrix" values="0 0 0 0 0 0 0 0 0 0 0 0 0 0 0 0 0 0 0.24 0"/>
<feBlend mode="normal" in2="BackgroundImageFix" result="effect1_dropShadow_539_2165"/>
<feColorMatrix in="SourceAlpha" type="matrix" values="0 0 0 0 0 0 0 0 0 0 0 0 0 0 0 0 0 0 127 0" result="hardAlpha"/>
<feOffset dy="21"/>
<feGaussianBlur stdDeviation="10.5"/>
<feColorMatrix type="matrix" values="0 0 0 0 0 0 0 0 0 0 0 0 0 0 0 0 0 0 0.21 0"/>
<feBlend mode="normal" in2="effect1_dropShadow_539_2165" result="effect2_dropShadow_539_2165"/>
<feColorMatrix in="SourceAlpha" type="matrix" values="0 0 0 0 0 0 0 0 0 0 0 0 0 0 0 0 0 0 127 0" result="hardAlpha"/>
<feOffset dy="46"/>
<feGaussianBlur stdDeviation="14"/>
<feColorMatrix type="matrix" values="0 0 0 0 0 0 0 0 0 0 0 0 0 0 0 0 0 0 0.12 0"/>
<feBlend mode="normal" in2="effect2_dropShadow_539_2165" result="effect3_dropShadow_539_2165"/>
<feBlend mode="normal" in="SourceGraphic" in2="effect3_dropShadow_539_2165" result="shape"/>
</filter>
<filter id="filter1_d_539_2165" x="39.5664" y="30.7944" width="201.106" height="224.661" filterUnits="userSpaceOnUse" color-interpolation-filters="sRGB">
<feFlood flood-opacity="0" result="BackgroundImageFix"/>
<feColorMatrix in="SourceAlpha" type="matrix" values="0 0 0 0 0 0 0 0 0 0 0 0 0 0 0 0 0 0 127 0" result="hardAlpha"/>
<feOffset dy="2"/>
<feGaussianBlur stdDeviation="4"/>
<feColorMatrix type="matrix" values="0 0 0 0 0 0 0 0 0 0 0 0 0 0 0 0 0 0 0.16 0"/>
<feBlend mode="color-burn" in2="BackgroundImageFix" result="effect1_dropShadow_539_2165"/>
<feBlend mode="normal" in="SourceGraphic" in2="effect1_dropShadow_539_2165" result="shape"/>
</filter>
<filter id="filter2_d_539_2165" x="93.3335" y="78" width="93.3335" height="104" filterUnits="userSpaceOnUse" color-interpolation-filters="sRGB">
<feFlood flood-opacity="0" result="BackgroundImageFix"/>
<feColorMatrix in="SourceAlpha" type="matrix" values="0 0 0 0 0 0 0 0 0 0 0 0 0 0 0 0 0 0 127 0" result="hardAlpha"/>
<feOffset dy="2"/>
<feGaussianBlur stdDeviation="6"/>
<feColorMatrix type="matrix" values="0 0 0 0 0 0 0 0 0 0 0 0 0 0 0 0 0 0 0.12 0"/>
<feBlend mode="plus-darker" in2="BackgroundImageFix" result="effect1_dropShadow_539_2165"/>
<feBlend mode="normal" in="SourceGraphic" in2="effect1_dropShadow_539_2165" result="shape"/>
</filter>
<filter id="filter3_dd_539_2165" x="24" y="174" width="231.712" height="70" filterUnits="userSpaceOnUse" color-interpolation-filters="sRGB">
<feFlood flood-opacity="0" result="BackgroundImageFix"/>
<feColorMatrix in="SourceAlpha" type="matrix" values="0 0 0 0 0 0 0 0 0 0 0 0 0 0 0 0 0 0 127 0" result="hardAlpha"/>
<feOffset dy="4"/>
<feGaussianBlur stdDeviation="6"/>
<feColorMatrix type="matrix" values="0 0 0 0 0 0 0 0 0 0 0 0 0 0 0 0 0 0 0.16 0"/>
<feBlend mode="normal" in2="BackgroundImageFix" result="effect1_dropShadow_539_2165"/>
<feColorMatrix in="SourceAlpha" type="matrix" values="0 0 0 0 0 0 0 0 0 0 0 0 0 0 0 0 0 0 127 0" result="hardAlpha"/>
<feOffset dy="2"/>
<feGaussianBlur stdDeviation="2"/>
<feColorMatrix type="matrix" values="0 0 0 0 0 0 0 0 0 0 0 0 0 0 0 0 0 0 0.24 0"/>
<feBlend mode="normal" in2="effect1_dropShadow_539_2165" result="effect2_dropShadow_539_2165"/>
<feBlend mode="normal" in="SourceGraphic" in2="effect2_dropShadow_539_2165" result="shape"/>
</filter>
<filter id="filter4_dd_539_2165" x="39.856" y="162" width="200" height="70" filterUnits="userSpaceOnUse" color-interpolation-filters="sRGB">
<feFlood flood-opacity="0" result="BackgroundImageFix"/>
<feColorMatrix in="SourceAlpha" type="matrix" values="0 0 0 0 0 0 0 0 0 0 0 0 0 0 0 0 0 0 127 0" result="hardAlpha"/>
<feOffset dy="4"/>
<feGaussianBlur stdDeviation="6"/>
<feColorMatrix type="matrix" values="0 0 0 0 0 0 0 0 0 0 0 0 0 0 0 0 0 0 0.16 0"/>
<feBlend mode="normal" in2="BackgroundImageFix" result="effect1_dropShadow_539_2165"/>
<feColorMatrix in="SourceAlpha" type="matrix" values="0 0 0 0 0 0 0 0 0 0 0 0 0 0 0 0 0 0 127 0" result="hardAlpha"/>
<feOffset dy="2"/>
<feGaussianBlur stdDeviation="2"/>
<feColorMatrix type="matrix" values="0 0 0 0 0 0 0 0 0 0 0 0 0 0 0 0 0 0 0.24 0"/>
<feBlend mode="normal" in2="effect1_dropShadow_539_2165" result="effect2_dropShadow_539_2165"/>
<feBlend mode="normal" in="SourceGraphic" in2="effect2_dropShadow_539_2165" result="shape"/>
</filter>
<filter id="filter5_i_539_2165" x="59.856" y="190" width="6" height="7" filterUnits="userSpaceOnUse" color-interpolation-filters="sRGB">
<feFlood flood-opacity="0" result="BackgroundImageFix"/>
<feBlend mode="normal" in="SourceGraphic" in2="BackgroundImageFix" result="shape"/>
<feColorMatrix in="SourceAlpha" type="matrix" values="0 0 0 0 0 0 0 0 0 0 0 0 0 0 0 0 0 0 127 0" result="hardAlpha"/>
<feOffset dy="1"/>
<feGaussianBlur stdDeviation="1"/>
<feComposite in2="hardAlpha" operator="arithmetic" k2="-1" k3="1"/>
<feColorMatrix type="matrix" values="0 0 0 0 0 0 0 0 0 0 0 0 0 0 0 0 0 0 0.24 0"/>
<feBlend mode="darken" in2="shape" result="effect1_innerShadow_539_2165"/>
</filter>
<filter id="filter6_i_539_2165" x="213.856" y="190" width="6" height="7" filterUnits="userSpaceOnUse" color-interpolation-filters="sRGB">
<feFlood flood-opacity="0" result="BackgroundImageFix"/>
<feBlend mode="normal" in="SourceGraphic" in2="BackgroundImageFix" result="shape"/>
<feColorMatrix in="SourceAlpha" type="matrix" values="0 0 0 0 0 0 0 0 0 0 0 0 0 0 0 0 0 0 127 0" result="hardAlpha"/>
<feOffset dy="1"/>
<feGaussianBlur stdDeviation="1"/>
<feComposite in2="hardAlpha" operator="arithmetic" k2="-1" k3="1"/>
<feColorMatrix type="matrix" values="0 0 0 0 0 0 0 0 0 0 0 0 0 0 0 0 0 0 0.24 0"/>
<feBlend mode="darken" in2="shape" result="effect1_innerShadow_539_2165"/>
</filter>
<filter id="filter7_i_539_2165" x="88.7437" y="185.024" width="103.56" height="16.3839" filterUnits="userSpaceOnUse" color-interpolation-filters="sRGB">
<feFlood flood-opacity="0" result="BackgroundImageFix"/>
<feBlend mode="normal" in="SourceGraphic" in2="BackgroundImageFix" result="shape"/>
<feColorMatrix in="SourceAlpha" type="matrix" values="0 0 0 0 0 0 0 0 0 0 0 0 0 0 0 0 0 0 127 0" result="hardAlpha"/>
<feOffset dy="1"/>
<feGaussianBlur stdDeviation="1"/>
<feComposite in2="hardAlpha" operator="arithmetic" k2="-1" k3="1"/>
<feColorMatrix type="matrix" values="0 0 0 0 0 0 0 0 0 0 0 0 0 0 0 0 0 0 0.24 0"/>
<feBlend mode="darken" in2="shape" result="effect1_innerShadow_539_2165"/>
</filter>
<linearGradient id="paint0_linear_539_2165" x1="140" y1="31.7284" x2="140" y2="246.82" gradientUnits="userSpaceOnUse">
<stop stop-color="white"/>
<stop offset="1" stop-color="white" stop-opacity="0"/>
</linearGradient>
<radialGradient id="paint1_radial_539_2165" cx="0" cy="0" r="1" gradientUnits="userSpaceOnUse" gradientTransform="translate(140 93.51) rotate(90) scale(141.869 107.639)">
<stop stop-color="white"/>
<stop offset="1" stop-color="white" stop-opacity="0"/>
</radialGradient>
<linearGradient id="paint2_linear_539_2165" x1="232.12" y1="40.6237" x2="232.12" y2="245.588" gradientUnits="userSpaceOnUse">
<stop stop-color="#49F0BC"/>
<stop offset="1" stop-color="#29DCCC"/>
</linearGradient>
<linearGradient id="paint3_linear_539_2165" x1="139" y1="31.7284" x2="139" y2="246.82" gradientUnits="userSpaceOnUse">
<stop stop-color="white"/>
<stop offset="1" stop-color="white" stop-opacity="0"/>
</linearGradient>
<radialGradient id="paint4_radial_539_2165" cx="0" cy="0" r="1" gradientUnits="userSpaceOnUse" gradientTransform="translate(139 93.51) rotate(90) scale(141.869 107.639)">
<stop stop-color="white"/>
<stop offset="1" stop-color="white" stop-opacity="0"/>
</radialGradient>
<linearGradient id="paint5_linear_539_2165" x1="0" y1="0" x2="0" y2="280" gradientUnits="userSpaceOnUse">
<stop stop-color="white"/>
<stop offset="1" stop-color="white" stop-opacity="0.01"/>
</linearGradient>
<linearGradient id="paint6_linear_539_2165" x1="139.856" y1="182" x2="139.856" y2="228" gradientUnits="userSpaceOnUse">
<stop stop-opacity="0"/>
<stop offset="1" stop-opacity="0.16"/>
</linearGradient>
<linearGradient id="paint7_linear_539_2165" x1="139.856" y1="159" x2="139.856" y2="228" gradientUnits="userSpaceOnUse">
<stop stop-color="white"/>
<stop offset="1" stop-color="white" stop-opacity="0"/>
</linearGradient>
<radialGradient id="paint8_radial_539_2165" cx="0" cy="0" r="1" gradientUnits="userSpaceOnUse" gradientTransform="translate(139.856 182) rotate(90) scale(46 193.221)">
<stop stop-color="white"/>
<stop offset="1" stop-color="white" stop-opacity="0"/>
</radialGradient>
<linearGradient id="paint9_linear_539_2165" x1="139.856" y1="170" x2="139.856" y2="216" gradientUnits="userSpaceOnUse">
<stop stop-opacity="0"/>
<stop offset="1" stop-opacity="0.16"/>
</linearGradient>
<linearGradient id="paint10_linear_539_2165" x1="139.856" y1="170" x2="139.856" y2="216" gradientUnits="userSpaceOnUse">
<stop stop-color="white"/>
<stop offset="1" stop-color="white" stop-opacity="0"/>
</linearGradient>
<radialGradient id="paint11_radial_539_2165" cx="0" cy="0" r="1" gradientUnits="userSpaceOnUse" gradientTransform="translate(139.856 178.027) rotate(90) scale(37.9729 88)">
<stop stop-color="white"/>
<stop offset="1" stop-color="white" stop-opacity="0"/>
</radialGradient>
</defs>
</svg>






