<svg width="428" height="481" viewBox="0 0 428 481" fill="none" xmlns="http://www.w3.org/2000/svg">
<path d="M191.953 166.139L184.615 0H243.314L235.977 166.139H191.953Z" fill="url(#paint0_linear_1774_35)"/>
<path d="M260.609 213.636L408.159 290.352L378.81 341.187L238.597 251.762L260.609 213.636Z" fill="url(#paint1_linear_1774_35)"/>
<path d="M234.928 254.712L242.265 420.852H183.566L190.903 254.712H234.928Z" fill="url(#paint2_linear_1774_35)"/>
<path d="M188.562 252.289L48.3496 341.713L19 290.878L166.55 214.163L188.562 252.289Z" fill="url(#paint3_linear_1774_35)"/>
<path d="M260.609 207.477L408.159 130.762L378.81 79.9268L238.597 169.351L260.609 207.477Z" fill="url(#paint4_linear_1774_35)"/>
<path d="M188.562 168.825L48.3496 79.4014L19 130.236L166.55 206.952L188.562 168.825Z" fill="url(#paint5_linear_1774_35)"/>
<g filter="url(#filter0_dd_1774_35)">
<path d="M63 170H99V255C76.5 255 63 239.094 63 226.17V170Z" fill="url(#paint6_linear_1774_35)"/>
<path d="M63 170H99V255C76.5 255 63 239.094 63 226.17V170Z" stroke="url(#paint7_linear_1774_35)" stroke-width="2"/>
<path d="M365 170H329V255C351.5 255 365 239.094 365 226.17V170Z" fill="url(#paint8_linear_1774_35)"/>
<path d="M365 170H329V255C351.5 255 365 239.094 365 226.17V170Z" stroke="url(#paint9_linear_1774_35)" stroke-width="2"/>
<path d="M166.001 247H263.504V386.775L215.573 414.281C214.681 414.793 213.585 414.791 212.695 414.276L166.001 387.256V247Z" fill="#BB9986" stroke="url(#paint10_linear_1774_35)" stroke-width="2"/>
<path fill-rule="evenodd" clip-rule="evenodd" d="M159.001 247V384.043L118.424 360.239C117.542 359.721 117 358.775 117 357.753V247H159.001Z" fill="#8C685C" stroke="url(#paint11_linear_1774_35)" stroke-width="2"/>
<path fill-rule="evenodd" clip-rule="evenodd" d="M269.999 247V384.043L310.576 360.239C311.458 359.721 312 358.775 312 357.753V247H269.999Z" fill="#8C685C" stroke="url(#paint12_linear_1774_35)" stroke-width="2"/>
<path d="M308.5 306.5V354C306.333 354.167 301.9 356 301.5 362L274 378V323.5" stroke="url(#paint13_linear_1774_35)"/>
<path fill-rule="evenodd" clip-rule="evenodd" d="M170.5 333H169.5V382.424L169.918 382.493C171.391 382.739 172.65 383.094 173.729 384.06C174.813 385.03 175.777 386.671 176.515 389.621L176.567 389.829L213.868 411H215L215.28 410.916L252.433 389.829L252.485 389.621C253.223 386.671 254.187 385.03 255.271 384.06C256.35 383.094 257.609 382.739 259.082 382.493L259.5 382.424V333H258.5V381.581C257.12 381.84 255.781 382.262 254.604 383.315C253.342 384.444 252.325 386.243 251.568 389.17L214.868 410H214.132L177.432 389.17C176.675 386.243 175.658 384.444 174.396 383.315C173.219 382.262 171.88 381.84 170.5 381.581V333Z" fill="url(#paint14_linear_1774_35)"/>
<path d="M121 306.5V354C123.167 354.167 127.6 356 128 362L155.5 378V323.5" stroke="url(#paint15_linear_1774_35)"/>
<g filter="url(#filter1_d_1774_35)">
<path d="M205.876 72.4192L97.8764 131.17C92.4056 134.146 89 139.875 89 146.103L89 280.402C89 286.63 92.4055 292.359 97.8764 295.335L205.876 354.086C210.942 356.841 217.058 356.841 222.124 354.086L330.124 295.335C335.594 292.359 339 286.629 339 280.402L339 146.103C339 139.875 335.594 134.146 330.124 131.17L222.124 72.4192C217.058 69.6637 210.942 69.6637 205.876 72.4192Z" fill="url(#paint16_linear_1774_35)"/>
<path d="M205.757 94.4025L116.843 142.771C111.393 145.736 108 151.444 108 157.648L108 268.352C108 274.556 111.393 280.264 116.843 283.229L205.757 331.597C210.803 334.343 216.897 334.343 221.943 331.597L310.857 283.229C316.308 280.264 319.7 274.556 319.7 268.352L319.7 157.648C319.7 151.444 316.308 145.736 310.857 142.771L221.943 94.4025C216.897 91.6575 210.803 91.6575 205.757 94.4025Z" fill="url(#paint17_linear_1774_35)"/>
<g filter="url(#filter2_f_1774_35)">
<path d="M205.757 94.4025L116.843 142.771C111.393 145.736 108 151.444 108 157.648L108 268.352C108 274.556 111.393 280.264 116.843 283.229L205.757 331.597C210.803 334.343 216.897 334.343 221.943 331.597L310.857 283.229C316.308 280.264 319.7 274.556 319.7 268.352L319.7 157.648C319.7 151.444 316.308 145.736 310.857 142.771L221.943 94.4025C216.897 91.6575 210.803 91.6575 205.757 94.4025Z" stroke="url(#paint18_linear_1774_35)"/>
</g>
<g opacity="0.5">
<mask id="mask0_1774_35" style="mask-type:alpha" maskUnits="userSpaceOnUse" x="117" y="102" width="195" height="223">
<path d="M206.807 104.181L125.417 148.417C120.23 151.236 117 156.667 117 162.571L117 263.819C117 269.723 120.23 275.154 125.417 277.974L206.807 322.209C211.604 324.816 217.396 324.816 222.193 322.209L303.583 277.974C308.77 275.154 312 269.723 312 263.819L312 162.571C312 156.667 308.77 151.236 303.583 148.417L222.193 104.181C217.396 101.574 211.604 101.574 206.807 104.181Z" fill="#A6D3DE"/>
</mask>
<g mask="url(#mask0_1774_35)">
<path d="M206.807 104.181L125.417 148.417C120.23 151.236 117 156.667 117 162.571L117 263.819C117 269.723 120.23 275.154 125.417 277.974L206.807 322.209C211.604 324.816 217.396 324.816 222.193 322.209L303.583 277.974C308.77 275.154 312 269.723 312 263.819L312 162.571C312 156.667 308.77 151.236 303.583 148.417L222.193 104.181C217.396 101.574 211.604 101.574 206.807 104.181Z" fill="url(#paint19_radial_1774_35)"/>
<path opacity="0.5" d="M198.201 330.862L194.328 95.5176H234.672L230.799 330.862H198.201Z" fill="url(#paint20_linear_1774_35)"/>
<path opacity="0.5" d="M197.682 328.775L76.6553 126.896L111.595 106.724L225.913 312.475L197.682 328.775Z" fill="url(#paint21_linear_1774_35)"/>
<path opacity="0.5" d="M194.319 312.476L308.638 106.725L343.577 126.897L222.551 328.775L194.319 312.476Z" fill="url(#paint22_linear_1774_35)"/>
<rect x="117" y="199.742" width="195" height="126.638" fill="url(#paint23_linear_1774_35)"/>
<g filter="url(#filter3_i_1774_35)">
<path d="M206.807 104.181L125.417 148.417C120.23 151.236 117 156.667 117 162.571L117 263.819C117 269.723 120.23 275.154 125.417 277.974L206.807 322.209C211.604 324.816 217.396 324.816 222.193 322.209L303.583 277.974C308.77 275.154 312 269.723 312 263.819L312 162.571C312 156.667 308.77 151.236 303.583 148.417L222.193 104.181C217.396 101.574 211.604 101.574 206.807 104.181Z" fill="#F5C4AF" fill-opacity="0.03"/>
</g>
</g>
</g>
</g>
</g>
<g filter="url(#filter4_d_1774_35)">
<path fill-rule="evenodd" clip-rule="evenodd" d="M221.168 271C206.692 271 201.306 255.452 206.618 248.646C211.93 241.84 218.994 243.459 221.168 236.916C225.143 224.953 207.125 227.985 195.714 219.503C186.761 212.848 179.625 196.509 200.49 186.072C221.354 175.635 251.468 186.072 251.468 219.503C251.468 252.933 235.643 271 221.168 271ZM173.783 196.822C164.514 196.822 157 189.289 157 179.996C157 170.702 164.514 163.169 173.783 163.169C183.052 163.169 190.566 170.702 190.566 179.996C190.566 189.289 183.052 196.822 173.783 196.822ZM204.43 177.801C196.773 177.801 190.566 171.577 190.566 163.9C190.566 156.223 196.773 150 204.43 150C212.087 150 218.294 156.223 218.294 163.9C218.294 171.577 212.087 177.801 204.43 177.801ZM232.158 179.264C226.919 179.264 222.672 175.006 222.672 169.753C222.672 164.5 226.919 160.242 232.158 160.242C237.397 160.242 241.644 164.5 241.644 169.753C241.644 175.006 237.397 179.264 232.158 179.264ZM248.211 190.97C244.584 190.97 241.644 188.022 241.644 184.385C241.644 180.749 244.584 177.801 248.211 177.801C251.838 177.801 254.778 180.749 254.778 184.385C254.778 188.022 251.838 190.97 248.211 190.97Z" fill="url(#paint24_linear_1774_35)"/>
</g>
<defs>
<filter id="filter0_dd_1774_35" x="0.803555" y="13.2359" width="426.393" height="467.704" filterUnits="userSpaceOnUse" color-interpolation-filters="sRGB">
<feFlood flood-opacity="0" result="BackgroundImageFix"/>
<feColorMatrix in="SourceAlpha" type="matrix" values="0 0 0 0 0 0 0 0 0 0 0 0 0 0 0 0 0 0 127 0" result="hardAlpha"/>
<feOffset/>
<feGaussianBlur stdDeviation="10.1994"/>
<feColorMatrix type="matrix" values="0 0 0 0 0.9375 0 0 0 0 0.695 0 0 0 0 0.558594 0 0 0 1 0"/>
<feBlend mode="normal" in2="BackgroundImageFix" result="effect1_dropShadow_1774_35"/>
<feColorMatrix in="SourceAlpha" type="matrix" values="0 0 0 0 0 0 0 0 0 0 0 0 0 0 0 0 0 0 127 0" result="hardAlpha"/>
<feOffset dy="4.07976"/>
<feGaussianBlur stdDeviation="30.5982"/>
<feColorMatrix type="matrix" values="0 0 0 0 1 0 0 0 0 0.749833 0 0 0 0 0.670833 0 0 0 0.6 0"/>
<feBlend mode="normal" in2="effect1_dropShadow_1774_35" result="effect2_dropShadow_1774_35"/>
<feBlend mode="normal" in="SourceGraphic" in2="effect2_dropShadow_1774_35" result="shape"/>
</filter>
<filter id="filter1_d_1774_35" x="83" y="70.3525" width="262" height="299.8" filterUnits="userSpaceOnUse" color-interpolation-filters="sRGB">
<feFlood flood-opacity="0" result="BackgroundImageFix"/>
<feColorMatrix in="SourceAlpha" type="matrix" values="0 0 0 0 0 0 0 0 0 0 0 0 0 0 0 0 0 0 127 0" result="hardAlpha"/>
<feOffset dy="8"/>
<feGaussianBlur stdDeviation="3"/>
<feColorMatrix type="matrix" values="0 0 0 0 0.491667 0 0 0 0 0.276808 0 0 0 0 0.208958 0 0 0 0.54 0"/>
<feBlend mode="normal" in2="BackgroundImageFix" result="effect1_dropShadow_1774_35"/>
<feBlend mode="normal" in="SourceGraphic" in2="effect1_dropShadow_1774_35" result="shape"/>
</filter>
<filter id="filter2_f_1774_35" x="106.9" y="91.2437" width="213.9" height="243.513" filterUnits="userSpaceOnUse" color-interpolation-filters="sRGB">
<feFlood flood-opacity="0" result="BackgroundImageFix"/>
<feBlend mode="normal" in="SourceGraphic" in2="BackgroundImageFix" result="shape"/>
<feGaussianBlur stdDeviation="0.3" result="effect1_foregroundBlur_1774_35"/>
</filter>
<filter id="filter3_i_1774_35" x="117" y="102.226" width="195" height="221.939" filterUnits="userSpaceOnUse" color-interpolation-filters="sRGB">
<feFlood flood-opacity="0" result="BackgroundImageFix"/>
<feBlend mode="normal" in="SourceGraphic" in2="BackgroundImageFix" result="shape"/>
<feColorMatrix in="SourceAlpha" type="matrix" values="0 0 0 0 0 0 0 0 0 0 0 0 0 0 0 0 0 0 127 0" result="hardAlpha"/>
<feOffset/>
<feGaussianBlur stdDeviation="6.72414"/>
<feComposite in2="hardAlpha" operator="arithmetic" k2="-1" k3="1"/>
<feColorMatrix type="matrix" values="0 0 0 0 0.283333 0 0 0 0 0.158667 0 0 0 0 0.0566667 0 0 0 1 0"/>
<feBlend mode="normal" in2="shape" result="effect1_innerShadow_1774_35"/>
</filter>
<filter id="filter4_d_1774_35" x="150.129" y="146.384" width="112.244" height="135.466" filterUnits="userSpaceOnUse" color-interpolation-filters="sRGB">
<feFlood flood-opacity="0" result="BackgroundImageFix"/>
<feColorMatrix in="SourceAlpha" type="matrix" values="0 0 0 0 0 0 0 0 0 0 0 0 0 0 0 0 0 0 127 0" result="hardAlpha"/>
<feOffset dx="0.361644" dy="3.61644"/>
<feGaussianBlur stdDeviation="3.61644"/>
<feColorMatrix type="matrix" values="0 0 0 0 0.620833 0 0 0 0 0.428789 0 0 0 0 0.320764 0 0 0 0.44 0"/>
<feBlend mode="normal" in2="BackgroundImageFix" result="effect1_dropShadow_1774_35"/>
<feBlend mode="normal" in="SourceGraphic" in2="effect1_dropShadow_1774_35" result="shape"/>
</filter>
<linearGradient id="paint0_linear_1774_35" x1="213.965" y1="0" x2="213.965" y2="166.139" gradientUnits="userSpaceOnUse">
<stop stop-color="#FFBEAA" stop-opacity="0"/>
<stop offset="1" stop-color="#FFC9AA" stop-opacity="0.3"/>
</linearGradient>
<linearGradient id="paint1_linear_1774_35" x1="393.484" y1="315.769" x2="249.603" y2="232.699" gradientUnits="userSpaceOnUse">
<stop stop-color="#FFBEAA" stop-opacity="0"/>
<stop offset="1" stop-color="#FFC9AA" stop-opacity="0.3"/>
</linearGradient>
<linearGradient id="paint2_linear_1774_35" x1="212.916" y1="420.852" x2="212.916" y2="254.712" gradientUnits="userSpaceOnUse">
<stop stop-color="#FFBEAA" stop-opacity="0"/>
<stop offset="1" stop-color="#FFC9AA" stop-opacity="0.3"/>
</linearGradient>
<linearGradient id="paint3_linear_1774_35" x1="33.6748" y1="316.295" x2="177.556" y2="233.226" gradientUnits="userSpaceOnUse">
<stop stop-color="#FFBEAA" stop-opacity="0"/>
<stop offset="1" stop-color="#FFC9AA" stop-opacity="0.3"/>
</linearGradient>
<linearGradient id="paint4_linear_1774_35" x1="393.484" y1="105.344" x2="249.603" y2="188.414" gradientUnits="userSpaceOnUse">
<stop stop-color="#FFBEAA" stop-opacity="0"/>
<stop offset="1" stop-color="#FFC9AA" stop-opacity="0.3"/>
</linearGradient>
<linearGradient id="paint5_linear_1774_35" x1="33.6748" y1="104.819" x2="177.556" y2="187.889" gradientUnits="userSpaceOnUse">
<stop stop-color="#FFBEAA" stop-opacity="0"/>
<stop offset="1" stop-color="#FFC9AA" stop-opacity="0.3"/>
</linearGradient>
<linearGradient id="paint6_linear_1774_35" x1="81" y1="170" x2="81" y2="255" gradientUnits="userSpaceOnUse">
<stop stop-color="#EFD9BD"/>
<stop offset="1" stop-color="#C39470"/>
</linearGradient>
<linearGradient id="paint7_linear_1774_35" x1="63" y1="170" x2="81" y2="255" gradientUnits="userSpaceOnUse">
<stop stop-color="#F3DDC4"/>
<stop offset="0.378992" stop-color="#F3DDC4"/>
<stop offset="0.46253" stop-color="#F3DDC4"/>
<stop offset="1" stop-color="#74523F"/>
</linearGradient>
<linearGradient id="paint8_linear_1774_35" x1="347" y1="170" x2="347" y2="255" gradientUnits="userSpaceOnUse">
<stop stop-color="#EFD9BD"/>
<stop offset="1" stop-color="#C39470"/>
</linearGradient>
<linearGradient id="paint9_linear_1774_35" x1="365" y1="170" x2="347" y2="255" gradientUnits="userSpaceOnUse">
<stop stop-color="#F3DDC4"/>
<stop offset="0.378992" stop-color="#F3DDC4"/>
<stop offset="0.46253" stop-color="#F3DDC4"/>
<stop offset="1" stop-color="#74523F"/>
</linearGradient>
<linearGradient id="paint10_linear_1774_35" x1="166" y1="377" x2="264" y2="385.5" gradientUnits="userSpaceOnUse">
<stop stop-color="#D8B697"/>
<stop offset="0.374385" stop-color="#F0D6BD"/>
<stop offset="0.71988" stop-color="#C89E78"/>
<stop offset="0.9381" stop-color="#DFCBB9"/>
</linearGradient>
<linearGradient id="paint11_linear_1774_35" x1="116.999" y1="352.977" x2="159.443" y2="354.923" gradientUnits="userSpaceOnUse">
<stop stop-color="#D8B697"/>
<stop offset="0.374385" stop-color="#F0D6BD"/>
<stop offset="0.71988" stop-color="#C89E78"/>
<stop offset="0.9381" stop-color="#DFCBB9"/>
</linearGradient>
<linearGradient id="paint12_linear_1774_35" x1="312.001" y1="352.977" x2="269.557" y2="354.923" gradientUnits="userSpaceOnUse">
<stop stop-color="#D8B697"/>
<stop offset="0.374385" stop-color="#F0D6BD"/>
<stop offset="0.71988" stop-color="#C89E78"/>
<stop offset="0.9381" stop-color="#DFCBB9"/>
</linearGradient>
<linearGradient id="paint13_linear_1774_35" x1="308.501" y1="361.792" x2="273.745" y2="364.3" gradientUnits="userSpaceOnUse">
<stop stop-color="#D8B697"/>
<stop offset="0.374385" stop-color="#F0D6BD"/>
<stop offset="0.71988" stop-color="#C89E78"/>
<stop offset="0.9381" stop-color="#DFCBB9"/>
</linearGradient>
<linearGradient id="paint14_linear_1774_35" x1="171.5" y1="356" x2="252" y2="389" gradientUnits="userSpaceOnUse">
<stop offset="0.192454" stop-color="#DFCBB9"/>
<stop offset="0.475371" stop-color="#D8B290"/>
<stop offset="0.678187" stop-color="#DEBFA4"/>
<stop offset="0.866423" stop-color="#DFCBB9"/>
</linearGradient>
<linearGradient id="paint15_linear_1774_35" x1="120.999" y1="361.792" x2="155.755" y2="364.3" gradientUnits="userSpaceOnUse">
<stop stop-color="#D8B697"/>
<stop offset="0.374385" stop-color="#F0D6BD"/>
<stop offset="0.71988" stop-color="#C89E78"/>
<stop offset="0.9381" stop-color="#DFCBB9"/>
</linearGradient>
<linearGradient id="paint16_linear_1774_35" x1="161.5" y1="103" x2="274" y2="326.5" gradientUnits="userSpaceOnUse">
<stop stop-color="#F1DCC1"/>
<stop offset="1" stop-color="#BD8A65"/>
</linearGradient>
<linearGradient id="paint17_linear_1774_35" x1="160.5" y1="121.5" x2="257.5" y2="300.5" gradientUnits="userSpaceOnUse">
<stop stop-color="#BF8E69"/>
<stop offset="1" stop-color="#E4C196"/>
</linearGradient>
<linearGradient id="paint18_linear_1774_35" x1="171" y1="115" x2="275.5" y2="303" gradientUnits="userSpaceOnUse">
<stop stop-color="#EBD4B7"/>
<stop offset="1" stop-color="#FFE3CE"/>
</linearGradient>
<radialGradient id="paint19_radial_1774_35" cx="0" cy="0" r="1" gradientUnits="userSpaceOnUse" gradientTransform="translate(214.5 213.195) rotate(90) scale(113.195 97.5)">
<stop stop-color="#E3C29C"/>
<stop offset="1" stop-color="#D1A479"/>
</radialGradient>
<linearGradient id="paint20_linear_1774_35" x1="214.5" y1="95.5176" x2="214.5" y2="330.862" gradientUnits="userSpaceOnUse">
<stop stop-color="white"/>
<stop offset="1" stop-color="#F2EDED" stop-opacity="0"/>
</linearGradient>
<linearGradient id="paint21_linear_1774_35" x1="94.1251" y1="116.81" x2="211.798" y2="320.625" gradientUnits="userSpaceOnUse">
<stop stop-color="white"/>
<stop offset="1" stop-color="#F2EDED" stop-opacity="0"/>
</linearGradient>
<linearGradient id="paint22_linear_1774_35" x1="326.108" y1="116.811" x2="208.435" y2="320.625" gradientUnits="userSpaceOnUse">
<stop stop-color="white"/>
<stop offset="1" stop-color="#F2EDED" stop-opacity="0"/>
</linearGradient>
<linearGradient id="paint23_linear_1774_35" x1="214.5" y1="254.656" x2="213.912" y2="318.534" gradientUnits="userSpaceOnUse">
<stop offset="0.291667" stop-color="#FFFAF7" stop-opacity="0"/>
<stop offset="1" stop-color="#E4CBAD"/>
</linearGradient>
<linearGradient id="paint24_linear_1774_35" x1="198.145" y1="119.669" x2="267.184" y2="136.624" gradientUnits="userSpaceOnUse">
<stop offset="0.168737" stop-color="#FFEFDC"/>
<stop offset="0.360439" stop-color="#FFF3E3"/>
<stop offset="0.47754" stop-color="#FFEAD1"/>
<stop offset="0.655872" stop-color="#F0DBC0"/>
<stop offset="0.80404" stop-color="#F0DBC2"/>
</linearGradient>
</defs>
</svg>
