<svg width="280" height="320" viewBox="0 0 280 320" fill="none" xmlns="http://www.w3.org/2000/svg">
<g filter="url(#filter0_ddd_538_2090)">
<path d="M47.7258 98.3522C47.4773 91.5339 47.3531 88.1247 48.6567 84.4937C49.7748 81.3793 51.8313 78.3654 54.3234 76.1886C57.2291 73.6507 61.4485 72.1731 69.8875 69.2179C87.8437 62.9299 105.167 54.497 121.5 44.6987C128.923 40.2451 132.635 38.0183 135.83 37.3168C139.002 36.6203 141.237 36.6203 144.408 37.3168C147.603 38.0183 151.315 40.2451 158.739 44.6987C175.072 54.497 192.395 62.9299 210.351 69.2179C218.79 72.1731 223.009 73.6507 225.915 76.1886C228.407 78.3654 230.463 81.3793 231.582 84.4937C232.885 88.1247 232.761 91.5339 232.512 98.3522C231.805 117.756 228.303 146.593 215.502 172.621C198.622 206.945 170.429 229.459 153.722 240.549C150.054 242.984 148.22 244.201 144.765 245.027C142.369 245.599 137.869 245.599 135.474 245.027C132.018 244.201 130.184 242.984 126.516 240.549C109.81 229.459 81.6164 206.945 64.736 172.621C51.9354 146.593 48.433 117.756 47.7258 98.3522Z" fill="black"/>
</g>
<mask id="mask0_538_2090" style="mask-type:alpha" maskUnits="userSpaceOnUse" x="47" y="36" width="186" height="210">
<path d="M47.7258 98.3522C47.4773 91.5339 47.3531 88.1247 48.6567 84.4937C49.7748 81.3793 51.8313 78.3654 54.3234 76.1886C57.2291 73.6507 61.4485 72.1731 69.8875 69.2179C87.8437 62.9299 105.167 54.497 121.5 44.6987C128.923 40.2451 132.635 38.0183 135.83 37.3168C139.002 36.6203 141.237 36.6203 144.408 37.3168C147.603 38.0183 151.315 40.2451 158.739 44.6987C175.072 54.497 192.395 62.9299 210.351 69.2179C218.79 72.1731 223.009 73.6507 225.915 76.1886C228.407 78.3654 230.463 81.3793 231.582 84.4937C232.885 88.1247 232.761 91.5339 232.512 98.3522C231.805 117.756 228.303 146.593 215.502 172.621C198.622 206.945 170.429 229.459 153.722 240.549C150.054 242.984 148.22 244.201 144.765 245.027C142.369 245.599 137.869 245.599 135.474 245.027C132.018 244.201 130.184 242.984 126.516 240.549C109.81 229.459 81.6164 206.945 64.736 172.621C51.9354 146.593 48.433 117.756 47.7258 98.3522Z" fill="black"/>
</mask>
<g mask="url(#mask0_538_2090)">
<mask id="mask1_538_2090" style="mask-type:alpha" maskUnits="userSpaceOnUse" x="47" y="36" width="186" height="210">
<path d="M47.7258 98.3522C47.4773 91.5339 47.3531 88.1247 48.6567 84.4937C49.7748 81.3793 51.8313 78.3654 54.3234 76.1886C57.2291 73.6507 61.4485 72.1731 69.8875 69.2179C87.8437 62.9299 105.167 54.497 121.5 44.6987C128.923 40.2451 132.635 38.0183 135.83 37.3168C139.002 36.6203 141.237 36.6203 144.408 37.3168C147.603 38.0183 151.315 40.2451 158.739 44.6987C175.072 54.497 192.395 62.9299 210.351 69.2179C218.79 72.1731 223.009 73.6507 225.915 76.1886C228.407 78.3654 230.463 81.3793 231.582 84.4937C232.885 88.1247 232.761 91.5339 232.512 98.3522C231.805 117.756 228.303 146.593 215.502 172.621C198.622 206.945 170.429 229.459 153.722 240.549C150.054 242.984 148.22 244.201 144.765 245.027C142.369 245.599 137.869 245.599 135.474 245.027C132.018 244.201 130.184 242.984 126.516 240.549C109.81 229.459 81.6164 206.945 64.736 172.621C51.9354 146.593 48.433 117.756 47.7258 98.3522Z" fill="black"/>
</mask>
<g mask="url(#mask1_538_2090)">
<rect width="280" height="280" fill="#577CE2"/>
<rect width="280" height="280" fill="url(#paint0_linear_538_2090)" fill-opacity="0.6" style="mix-blend-mode:overlay"/>
<rect width="280" height="280" fill="url(#paint1_radial_538_2090)" fill-opacity="0.6" style="mix-blend-mode:overlay"/>
<rect width="280" height="280" fill="black" fill-opacity="0.16" style="mix-blend-mode:overlay"/>
<rect width="280" height="280" fill="black" fill-opacity="0.12" style="mix-blend-mode:darken"/>
</g>
<g filter="url(#filter1_d_538_2090)">
<mask id="mask2_538_2090" style="mask-type:alpha" maskUnits="userSpaceOnUse" x="47" y="36" width="186" height="210">
<path d="M135.83 37.3167C139.002 36.6203 141.237 36.6203 144.408 37.3167C147.603 38.0182 151.315 40.2451 158.739 44.6986C175.071 54.4969 192.395 62.9301 210.351 69.2181C218.79 72.1733 223.01 73.6509 225.915 76.1888C228.407 78.3656 230.464 81.3793 231.582 84.4935C232.886 88.1245 232.761 91.5338 232.513 98.3519L232.438 100.199C231.577 119.555 227.903 147.407 215.502 172.621L214.703 174.221C197.744 207.645 170.168 229.632 153.722 240.549C150.054 242.984 148.221 244.201 144.765 245.027L144.292 245.127C141.98 245.565 138.259 245.565 135.947 245.127L135.474 245.027C132.45 244.305 130.668 243.282 127.813 241.407L126.517 240.549C110.071 229.632 82.4945 207.645 65.5354 174.221L64.7366 172.621C51.9359 146.593 48.433 117.756 47.7258 98.3519C47.4773 91.5338 47.3529 88.1245 48.6565 84.4935C49.7047 81.5737 51.578 78.7419 53.8616 76.6058L54.3235 76.1888C56.8659 73.9681 60.4146 72.5593 66.9153 70.262L69.8879 69.2181C87.2832 63.1266 104.084 55.0215 119.966 45.6126L121.5 44.6986C128.691 40.3845 132.399 38.1597 135.529 37.387L135.83 37.3167ZM142.693 45.1302C140.651 44.6821 139.587 44.6821 137.546 45.1302C137.011 45.2476 136.042 45.5797 134.011 46.6615C131.978 47.744 129.399 49.2889 125.615 51.5589C108.886 61.5949 91.0717 70.2754 72.5315 76.7679C68.2113 78.2808 65.3421 79.2905 63.1721 80.2171C61.0712 81.1143 60.1453 81.7249 59.5862 82.2132C58.1202 83.4937 56.8445 85.3647 56.1868 87.1966C55.5115 89.0774 55.4553 90.7725 55.7209 98.0609C56.4095 116.953 59.8253 144.507 71.9153 169.09C87.9039 201.6 114.779 223.155 130.941 233.884C134.649 236.346 135.416 236.788 137.332 237.245C137.667 237.325 138.69 237.455 140.119 237.455C141.549 237.455 142.572 237.325 142.906 237.245C144.823 236.788 145.59 236.346 149.298 233.884C165.46 223.155 192.335 201.6 208.323 169.09C220.413 144.507 223.829 116.953 224.518 98.0609C224.783 90.7725 224.727 89.0774 224.052 87.1966C223.394 85.3647 222.119 83.4937 220.653 82.2132C220.093 81.7249 219.168 81.1143 217.067 80.2171C214.897 79.2905 212.027 78.2808 207.707 76.7679C189.167 70.2754 171.352 61.5949 154.623 51.5589C150.839 49.2889 148.26 47.744 146.228 46.6615C144.197 45.5797 143.227 45.2476 142.693 45.1302ZM139.292 62.2562C139.834 62.1417 140.405 62.1417 140.947 62.2562C141.563 62.3864 142.136 62.7154 143.281 63.3724C153.768 69.3851 164.144 75.4839 175.113 80.6527C184.647 85.1455 194.499 88.8211 204.363 92.4925C205.9 93.0648 206.669 93.3514 207.237 93.8636C207.73 94.3088 208.12 94.8977 208.337 95.5257C208.587 96.2484 208.552 97.05 208.48 98.6527C207.505 120.384 203.613 142.415 193.966 162.03C182.725 184.885 164.435 203.892 143.631 218.384C142.41 219.235 141.8 219.66 141.083 219.838C140.474 219.99 139.765 219.989 139.156 219.838C138.439 219.66 137.828 219.235 136.607 218.384C115.803 203.892 97.5132 184.885 86.2727 162.03C76.6261 142.415 72.7338 120.384 71.759 98.6527C71.6872 97.0502 71.6507 96.2484 71.9006 95.5257C72.1178 94.8978 72.508 94.3088 73.0012 93.8636C73.569 93.3513 74.3386 93.0648 75.8762 92.4925C85.7445 88.8198 95.5676 85.1572 105.126 80.6527C116.094 75.4839 126.47 69.3851 136.956 63.3724C138.103 62.7152 138.676 62.3864 139.292 62.2562Z" fill="url(#paint2_linear_538_2090)"/>
</mask>
<g mask="url(#mask2_538_2090)">
<rect x="-0.000488281" width="280" height="280" fill="#577CE2"/>
<rect x="-1" width="280" height="280" fill="url(#paint3_linear_538_2090)" fill-opacity="0.6" style="mix-blend-mode:overlay"/>
<rect x="-1" width="280" height="280" fill="url(#paint4_radial_538_2090)" fill-opacity="0.6" style="mix-blend-mode:overlay"/>
<g style="mix-blend-mode:soft-light">
<path fill-rule="evenodd" clip-rule="evenodd" d="M0 0H140V280H0V0Z" fill="url(#paint5_linear_538_2090)" style="mix-blend-mode:lighten"/>
</g>
<g style="mix-blend-mode:soft-light">
<mask id="path-11-inside-1_538_2090" fill="white">
<path d="M135.83 37.3167C139.002 36.6203 141.237 36.6203 144.408 37.3167C147.603 38.0182 151.315 40.2451 158.739 44.6986C175.071 54.4969 192.395 62.9301 210.351 69.2181C218.79 72.1733 223.01 73.6509 225.915 76.1888C228.407 78.3656 230.464 81.3793 231.582 84.4935C232.886 88.1245 232.761 91.5338 232.513 98.3519L232.438 100.199C231.577 119.555 227.903 147.407 215.502 172.621L214.703 174.221C197.744 207.645 170.168 229.632 153.722 240.549C150.054 242.984 148.221 244.201 144.765 245.027L144.292 245.127C141.98 245.565 138.259 245.565 135.947 245.127L135.474 245.027C132.45 244.305 130.668 243.282 127.813 241.407L126.517 240.549C110.071 229.632 82.4945 207.645 65.5354 174.221L64.7366 172.621C51.9359 146.593 48.433 117.756 47.7258 98.3519C47.4773 91.5338 47.3529 88.1245 48.6565 84.4935C49.7047 81.5737 51.578 78.7419 53.8616 76.6058L54.3235 76.1888C56.8659 73.9681 60.4146 72.5593 66.9153 70.262L69.8879 69.2181C87.2832 63.1266 104.084 55.0215 119.966 45.6126L121.5 44.6986C128.691 40.3845 132.399 38.1597 135.529 37.387L135.83 37.3167ZM142.693 45.1302C140.651 44.6821 139.587 44.6821 137.546 45.1302C137.011 45.2476 136.042 45.5797 134.011 46.6615C131.978 47.744 129.399 49.2889 125.615 51.5589C108.886 61.5949 91.0717 70.2754 72.5315 76.7679C68.2113 78.2808 65.3421 79.2905 63.1721 80.2171C61.0712 81.1143 60.1453 81.7249 59.5862 82.2132C58.1202 83.4937 56.8445 85.3647 56.1868 87.1966C55.5115 89.0774 55.4553 90.7725 55.7209 98.0609C56.4095 116.953 59.8253 144.507 71.9153 169.09C87.9039 201.6 114.779 223.155 130.941 233.884C134.649 236.346 135.416 236.788 137.332 237.245C137.667 237.325 138.69 237.455 140.119 237.455C141.549 237.455 142.572 237.325 142.906 237.245C144.823 236.788 145.59 236.346 149.298 233.884C165.46 223.155 192.335 201.6 208.323 169.09C220.413 144.507 223.829 116.953 224.518 98.0609C224.783 90.7725 224.727 89.0774 224.052 87.1966C223.394 85.3647 222.119 83.4937 220.653 82.2132C220.093 81.7249 219.168 81.1143 217.067 80.2171C214.897 79.2905 212.027 78.2808 207.707 76.7679C189.167 70.2754 171.352 61.5949 154.623 51.5589C150.839 49.2889 148.26 47.744 146.228 46.6615C144.197 45.5797 143.227 45.2476 142.693 45.1302ZM139.292 62.2562C139.834 62.1417 140.405 62.1417 140.947 62.2562C141.563 62.3864 142.136 62.7154 143.281 63.3724C153.768 69.3851 164.144 75.4839 175.113 80.6527C184.647 85.1455 194.499 88.8211 204.363 92.4925C205.9 93.0648 206.669 93.3514 207.237 93.8636C207.73 94.3088 208.12 94.8977 208.337 95.5257C208.587 96.2484 208.552 97.05 208.48 98.6527C207.505 120.384 203.613 142.415 193.966 162.03C182.725 184.885 164.435 203.892 143.631 218.384C142.41 219.235 141.8 219.66 141.083 219.838C140.474 219.99 139.765 219.989 139.156 219.838C138.439 219.66 137.828 219.235 136.607 218.384C115.803 203.892 97.5132 184.885 86.2727 162.03C76.6261 142.415 72.7338 120.384 71.759 98.6527C71.6872 97.0502 71.6507 96.2484 71.9006 95.5257C72.1178 94.8978 72.508 94.3088 73.0012 93.8636C73.569 93.3513 74.3386 93.0648 75.8762 92.4925C85.7445 88.8198 95.5676 85.1572 105.126 80.6527C116.094 75.4839 126.47 69.3851 136.956 63.3724C138.103 62.7152 138.676 62.3864 139.292 62.2562Z"/>
</mask>
<path d="M135.83 37.3167L135.723 36.8283L135.717 36.8298L135.83 37.3167ZM144.408 37.3167L144.516 36.8284L144.516 36.8284L144.408 37.3167ZM158.739 44.6986L158.481 45.1273L158.739 44.6986ZM210.351 69.2181L210.186 69.69L210.351 69.2181ZM225.915 76.1888L226.244 75.8122V75.8122L225.915 76.1888ZM231.582 84.4935L232.053 84.3245V84.3245L231.582 84.4935ZM232.513 98.3519L233.013 98.3722L233.013 98.3701L232.513 98.3519ZM232.438 100.199L232.937 100.221L232.937 100.219L232.438 100.199ZM215.502 172.621L215.95 172.845L215.951 172.842L215.502 172.621ZM214.703 174.221L215.149 174.447L215.151 174.444L214.703 174.221ZM153.722 240.549L153.998 240.966L153.722 240.549ZM144.765 245.027L144.869 245.516L144.881 245.513L144.765 245.027ZM144.292 245.127L144.385 245.619L144.396 245.616L144.292 245.127ZM135.947 245.127L135.842 245.616L135.853 245.619L135.947 245.127ZM135.474 245.027L135.358 245.513L135.37 245.516L135.474 245.027ZM127.813 241.407L127.537 241.824L127.538 241.824L127.813 241.407ZM126.517 240.549L126.24 240.966L126.241 240.966L126.517 240.549ZM65.5354 174.221L65.0881 174.444L65.0895 174.447L65.5354 174.221ZM64.7366 172.621L64.2879 172.842L64.2892 172.845L64.7366 172.621ZM47.7258 98.3519L48.2255 98.3337L47.7258 98.3519ZM48.6565 84.4935L48.1859 84.3245L48.1859 84.3245L48.6565 84.4935ZM53.8616 76.6058L53.5265 76.2346L53.52 76.2407L53.8616 76.6058ZM54.3235 76.1888L53.9945 75.8122L53.9884 75.8177L54.3235 76.1888ZM66.9153 70.262L66.7496 69.7903L66.7487 69.7906L66.9153 70.262ZM69.8879 69.2181L69.7227 68.7462L69.7223 68.7463L69.8879 69.2181ZM119.966 45.6126L120.221 46.0428L120.222 46.0422L119.966 45.6126ZM121.5 44.6986L121.756 45.1281L121.757 45.1273L121.5 44.6986ZM135.529 37.387L135.415 36.9L135.409 36.9016L135.529 37.387ZM142.693 45.1302L142.8 44.6418L142.8 44.6418L142.693 45.1302ZM137.546 45.1302L137.439 44.6418L137.439 44.6418L137.546 45.1302ZM134.011 46.6615L133.776 46.2201V46.2201L134.011 46.6615ZM125.615 51.5589L125.358 51.1302L125.615 51.5589ZM72.5315 76.7679L72.6967 77.2398L72.5315 76.7679ZM63.1721 80.2171L62.9757 79.7573H62.9757L63.1721 80.2171ZM59.5862 82.2132L59.2573 81.8366L59.2573 81.8366L59.5862 82.2132ZM56.1868 87.1966L55.7162 87.0277L55.7162 87.0277L56.1868 87.1966ZM55.7209 98.0609L55.2213 98.0791L55.7209 98.0609ZM71.9153 169.09L71.4666 169.311L71.9153 169.09ZM130.941 233.884L130.664 234.301L130.941 233.884ZM137.332 237.245L137.216 237.732L137.216 237.732L137.332 237.245ZM140.119 237.455V237.955V237.455ZM142.906 237.245L143.023 237.732L143.023 237.732L142.906 237.245ZM149.298 233.884L149.575 234.301L149.298 233.884ZM208.323 169.09L208.772 169.311L208.323 169.09ZM224.518 98.0609L225.017 98.0791L224.518 98.0609ZM224.052 87.1966L224.523 87.0277V87.0277L224.052 87.1966ZM220.653 82.2132L220.982 81.8366L220.981 81.8366L220.653 82.2132ZM217.067 80.2171L217.263 79.7573H217.263L217.067 80.2171ZM207.707 76.7679L207.873 76.296L207.707 76.7679ZM154.623 51.5589L154.366 51.9877L154.623 51.5589ZM146.228 46.6615L146.463 46.2201L146.463 46.2201L146.228 46.6615ZM139.292 62.2562L139.189 61.767H139.189L139.292 62.2562ZM140.947 62.2562L141.05 61.767L141.05 61.767L140.947 62.2562ZM143.281 63.3724L143.53 62.9386L143.281 63.3724ZM175.113 80.6527L174.899 81.105L175.113 80.6527ZM204.363 92.4925L204.188 92.9611L204.363 92.4925ZM207.237 93.8636L207.572 93.4924L207.572 93.4924L207.237 93.8636ZM208.337 95.5257L208.81 95.3623V95.3623L208.337 95.5257ZM208.48 98.6527L208.979 98.6751L208.48 98.6527ZM193.966 162.03L194.415 162.25L193.966 162.03ZM143.631 218.384L143.917 218.794L143.631 218.384ZM141.083 219.838L141.204 220.323H141.204L141.083 219.838ZM139.156 219.838L139.035 220.323H139.035L139.156 219.838ZM136.607 218.384L136.321 218.794L136.607 218.384ZM86.2727 162.03L85.824 162.25L86.2727 162.03ZM71.759 98.6527L71.2595 98.6751L71.759 98.6527ZM71.9006 95.5257L71.4281 95.3623L71.4281 95.3623L71.9006 95.5257ZM73.0012 93.8636L72.6663 93.4924L72.6662 93.4924L73.0012 93.8636ZM75.8762 92.4925L76.0506 92.9611L75.8762 92.4925ZM105.126 80.6527L105.339 81.105L105.126 80.6527ZM136.956 63.3724L136.708 62.9386L136.956 63.3724ZM135.83 37.3167L135.938 37.8051C139.039 37.1242 141.2 37.1242 144.301 37.8051L144.408 37.3167L144.516 36.8284C141.273 36.1165 138.965 36.1165 135.723 36.8284L135.83 37.3167ZM144.408 37.3167L144.301 37.8051C145.832 38.1413 147.511 38.8483 149.753 40.042C151.994 41.2357 154.765 42.8979 158.481 45.1273L158.739 44.6986L158.996 44.2698C155.289 42.0458 152.492 40.3678 150.223 39.1593C147.953 37.9508 146.179 37.1937 144.516 36.8284L144.408 37.3167ZM158.739 44.6986L158.481 45.1273C174.839 54.9405 192.193 63.3893 210.186 69.69L210.351 69.2181L210.516 68.7462C192.596 62.471 175.304 54.0533 158.996 44.2698L158.739 44.6986ZM210.351 69.2181L210.186 69.69C214.411 71.1698 217.558 72.2718 220.012 73.3197C222.462 74.3659 224.189 75.3452 225.586 76.5654L225.915 76.1888L226.244 75.8122C224.736 74.4945 222.901 73.466 220.404 72.4001C217.912 71.336 214.729 70.2216 210.516 68.7462L210.351 69.2181ZM225.915 76.1888L225.586 76.5654C228.014 78.6861 230.022 81.6284 231.112 84.6624L231.582 84.4935L232.053 84.3245C230.906 81.1301 228.8 78.045 226.244 75.8122L225.915 76.1888ZM231.582 84.4935L231.112 84.6624C232.376 88.184 232.263 91.4862 232.013 98.3337L232.513 98.3519L233.013 98.3701C233.26 91.5814 233.396 88.0649 232.053 84.3245L231.582 84.4935ZM232.513 98.3519L232.013 98.3315L231.938 100.178L232.438 100.199L232.937 100.219L233.013 98.3722L232.513 98.3519ZM232.438 100.199L231.938 100.176C231.079 119.501 227.411 147.274 215.054 172.401L215.502 172.621L215.951 172.842C228.395 147.54 232.075 119.61 232.937 100.221L232.438 100.199ZM215.502 172.621L215.055 172.398L214.256 173.998L214.703 174.221L215.151 174.444L215.95 172.845L215.502 172.621ZM214.703 174.221L214.257 173.995C197.354 207.309 169.857 229.238 153.445 240.133L153.722 240.549L153.998 240.966C170.478 230.026 198.135 207.981 215.149 174.447L214.703 174.221ZM153.722 240.549L153.445 240.133C149.775 242.569 148.008 243.738 144.649 244.54L144.765 245.027L144.881 245.513C148.433 244.665 150.333 243.399 153.998 240.966L153.722 240.549ZM144.765 245.027L144.661 244.538L144.188 244.638L144.292 245.127L144.396 245.616L144.869 245.516L144.765 245.027ZM144.292 245.127L144.199 244.636C141.949 245.062 138.29 245.062 136.04 244.636L135.947 245.127L135.853 245.619C138.227 246.068 142.012 246.068 144.385 245.619L144.292 245.127ZM135.947 245.127L136.051 244.638L135.578 244.538L135.474 245.027L135.37 245.516L135.842 245.616L135.947 245.127ZM135.474 245.027L135.59 244.54C132.65 243.838 130.926 242.853 128.087 240.989L127.813 241.407L127.538 241.824C130.41 243.711 132.25 244.771 135.358 245.513L135.474 245.027ZM127.813 241.407L128.089 240.99L126.793 240.132L126.517 240.549L126.241 240.966L127.537 241.824L127.813 241.407ZM126.517 240.549L126.793 240.133C110.381 229.238 82.8848 207.309 65.9813 173.995L65.5354 174.221L65.0895 174.447C82.1042 207.981 109.761 230.026 126.24 240.966L126.517 240.549ZM65.5354 174.221L65.9827 173.998L65.1839 172.398L64.7366 172.621L64.2892 172.845L65.0881 174.444L65.5354 174.221ZM64.7366 172.621L65.1852 172.401C52.429 146.463 48.9315 117.705 48.2255 98.3337L47.7258 98.3519L47.2262 98.3701C47.9345 117.806 51.4428 146.724 64.2879 172.842L64.7366 172.621ZM47.7258 98.3519L48.2255 98.3337C47.9759 91.4862 47.8628 88.184 49.1271 84.6624L48.6565 84.4935L48.1859 84.3245C46.8431 88.0649 46.9787 91.5814 47.2262 98.3701L47.7258 98.3519ZM48.6565 84.4935L49.1271 84.6624C50.1481 81.8186 51.9766 79.0537 54.2031 76.9709L53.8616 76.6058L53.52 76.2407C51.1794 78.4301 49.2614 81.3289 48.1859 84.3245L48.6565 84.4935ZM53.8616 76.6058L54.1966 76.9769L54.6585 76.5599L54.3235 76.1888L53.9884 75.8177L53.5265 76.2347L53.8616 76.6058ZM54.3235 76.1888L54.6524 76.5654C57.109 74.4197 60.558 73.0389 67.0819 70.7335L66.9153 70.262L66.7487 69.7906C60.2711 72.0797 56.6228 73.5166 53.9946 75.8122L54.3235 76.1888ZM66.9153 70.262L67.0809 70.7338L70.0536 69.6899L69.8879 69.2181L69.7223 68.7463L66.7496 69.7903L66.9153 70.262ZM69.8879 69.2181L70.0532 69.69C87.4838 63.5861 104.314 55.466 120.221 46.0428L119.966 45.6126L119.711 45.1825C103.853 54.5769 87.0825 62.6671 69.7227 68.7462L69.8879 69.2181ZM119.966 45.6126L120.222 46.0422L121.756 45.1281L121.5 44.6986L121.244 44.269L119.71 45.1831L119.966 45.6126ZM121.5 44.6986L121.757 45.1273C125.357 42.9678 128.07 41.3403 130.274 40.1551C132.479 38.9698 134.145 38.2438 135.648 37.8725L135.529 37.387L135.409 36.9016C133.783 37.303 132.03 38.0756 129.801 39.2744C127.571 40.4733 124.835 42.1152 121.243 44.2698L121.5 44.6986ZM135.529 37.387L135.642 37.874L135.944 37.8037L135.83 37.3167L135.717 36.8298L135.415 36.9001L135.529 37.387ZM142.693 45.1302L142.8 44.6418C141.762 44.414 140.947 44.2941 140.119 44.2941C139.292 44.2941 138.476 44.414 137.439 44.6418L137.546 45.1302L137.653 45.6186C138.657 45.3982 139.394 45.2941 140.119 45.2941C140.845 45.2941 141.582 45.3982 142.585 45.6186L142.693 45.1302ZM137.546 45.1302L137.439 44.6418C136.837 44.7739 135.821 45.1312 133.776 46.2201L134.011 46.6615L134.246 47.1028C136.264 46.0282 137.185 45.7213 137.653 45.6186L137.546 45.1302ZM134.011 46.6615L133.776 46.2201C131.729 47.3101 129.137 48.863 125.358 51.1302L125.615 51.5589L125.873 51.9877C129.661 49.7149 132.227 48.1779 134.246 47.1028L134.011 46.6615ZM125.615 51.5589L125.358 51.1302C108.654 61.1513 90.8699 69.8163 72.3662 76.296L72.5315 76.7679L72.6967 77.2398C91.2734 70.7346 109.119 62.0386 125.873 51.9877L125.615 51.5589ZM72.5315 76.7679L72.3662 76.296C68.0525 77.8066 65.1647 78.8225 62.9757 79.7573L63.1721 80.2171L63.3685 80.677C65.5195 79.7584 68.3701 78.7549 72.6967 77.2398L72.5315 76.7679ZM63.1721 80.2171L62.9757 79.7573C60.8521 80.6642 59.8725 81.2993 59.2573 81.8366L59.5862 82.2132L59.9151 82.5898C60.4181 82.1504 61.2903 81.5644 63.3685 80.6769L63.1721 80.2171ZM59.5862 82.2132L59.2573 81.8366C57.7271 83.1732 56.4027 85.1157 55.7162 87.0277L56.1868 87.1966L56.6573 87.3656C57.2864 85.6136 58.5134 83.8142 59.9151 82.5898L59.5862 82.2132ZM56.1868 87.1966L55.7162 87.0277C55.0012 89.0193 54.9569 90.8255 55.2213 98.0791L55.7209 98.0609L56.2206 98.0427C55.9537 90.7195 56.0219 89.1356 56.6574 87.3656L56.1868 87.1966ZM55.7209 98.0609L55.2213 98.0791C55.911 117.003 59.3322 144.638 71.4666 169.311L71.9153 169.09L72.364 168.87C60.3184 144.377 56.908 116.903 56.2206 98.0427L55.7209 98.0609ZM71.9153 169.09L71.4666 169.311C87.5109 201.934 114.468 223.549 130.664 234.301L130.941 233.884L131.217 233.468C115.089 222.761 88.2968 201.266 72.364 168.87L71.9153 169.09ZM130.941 233.884L130.664 234.301C134.367 236.759 135.202 237.251 137.216 237.732L137.332 237.245L137.448 236.759C135.629 236.325 134.93 235.932 131.217 233.468L130.941 233.884ZM137.332 237.245L137.216 237.732C137.605 237.825 138.672 237.955 140.119 237.955V237.455V236.955C138.708 236.955 137.729 236.826 137.448 236.759L137.332 237.245ZM140.119 237.455V237.955C141.566 237.955 142.634 237.825 143.023 237.732L142.906 237.245L142.79 236.759C142.51 236.826 141.531 236.955 140.119 236.955V237.455ZM142.906 237.245L143.023 237.732C145.036 237.251 145.871 236.759 149.575 234.301L149.298 233.884L149.022 233.468C145.309 235.932 144.61 236.325 142.79 236.759L142.906 237.245ZM149.298 233.884L149.575 234.301C165.771 223.549 192.728 201.934 208.772 169.311L208.323 169.09L207.875 168.87C191.942 201.266 165.15 222.761 149.022 233.468L149.298 233.884ZM208.323 169.09L208.772 169.311C220.907 144.638 224.328 117.003 225.017 98.0791L224.518 98.0609L224.018 98.0427C223.331 116.903 219.92 144.377 207.875 168.87L208.323 169.09ZM224.518 98.0609L225.017 98.0791C225.282 90.8256 225.238 89.0193 224.523 87.0277L224.052 87.1966L223.581 87.3656C224.217 89.1356 224.285 90.7195 224.018 98.0427L224.518 98.0609ZM224.052 87.1966L224.523 87.0277C223.836 85.1157 222.512 83.1732 220.982 81.8366L220.653 82.2132L220.324 82.5898C221.725 83.8142 222.952 85.6136 223.581 87.3656L224.052 87.1966ZM220.653 82.2132L220.981 81.8366C220.366 81.2993 219.387 80.6642 217.263 79.7573L217.067 80.2171L216.87 80.6769C218.948 81.5644 219.821 82.1504 220.324 82.5898L220.653 82.2132ZM217.067 80.2171L217.263 79.7573C215.074 78.8225 212.186 77.8066 207.873 76.296L207.707 76.7679L207.542 77.2398C211.869 78.7549 214.719 79.7584 216.87 80.677L217.067 80.2171ZM207.707 76.7679L207.873 76.296C189.369 69.8163 171.585 61.1513 154.881 51.1302L154.623 51.5589L154.366 51.9877C171.12 62.0386 188.965 70.7346 207.542 77.2398L207.707 76.7679ZM154.623 51.5589L154.881 51.1302C151.101 48.863 148.509 47.3101 146.463 46.2201L146.228 46.6615L145.993 47.1028C148.011 48.1779 150.578 49.7149 154.366 51.9877L154.623 51.5589ZM146.228 46.6615L146.463 46.2201C144.418 45.1312 143.401 44.7739 142.8 44.6418L142.693 45.1302L142.585 45.6186C143.053 45.7213 143.975 46.0282 145.993 47.1028L146.228 46.6615ZM139.292 62.2562L139.396 62.7454C139.869 62.6453 140.369 62.6453 140.843 62.7454L140.947 62.2562L141.05 61.767C140.44 61.6381 139.799 61.6381 139.189 61.767L139.292 62.2562ZM140.947 62.2562L140.843 62.7454C141.364 62.8555 141.858 63.1327 143.033 63.8062L143.281 63.3724L143.53 62.9386C142.413 62.2981 141.761 61.9174 141.05 61.767L140.947 62.2562ZM143.281 63.3724L143.033 63.8062C153.512 69.8144 163.909 75.9255 174.899 81.105L175.113 80.6527L175.326 80.2004C164.38 75.0422 154.025 68.9558 143.53 62.9386L143.281 63.3724ZM175.113 80.6527L174.899 81.105C184.455 85.6082 194.327 89.2908 204.188 92.9611L204.363 92.4925L204.537 92.0239C194.67 88.3514 184.838 84.6828 175.326 80.2004L175.113 80.6527ZM204.363 92.4925L204.188 92.9611C205.765 93.5479 206.422 93.8019 206.902 94.2348L207.237 93.8636L207.572 93.4924C206.916 92.9008 206.036 92.5817 204.537 92.0239L204.363 92.4925ZM207.237 93.8636L206.902 94.2348C207.332 94.6235 207.675 95.1409 207.865 95.6891L208.337 95.5257L208.81 95.3623C208.565 94.6544 208.128 93.9941 207.572 93.4924L207.237 93.8636ZM208.337 95.5257L207.865 95.6891C208.076 96.3003 208.054 96.9875 207.98 98.6303L208.48 98.6527L208.979 98.6751C209.049 97.1126 209.098 96.1966 208.81 95.3623L208.337 95.5257ZM208.48 98.6527L207.98 98.6303C207.007 120.322 203.123 142.278 193.517 161.809L193.966 162.03L194.415 162.25C204.102 142.552 208.003 120.447 208.979 98.6751L208.48 98.6527ZM193.966 162.03L193.517 161.809C182.322 184.572 164.097 203.518 143.345 217.974L143.631 218.384L143.917 218.794C164.773 204.266 183.128 185.199 194.415 162.25L193.966 162.03ZM143.631 218.384L143.345 217.974C142.094 218.845 141.569 219.202 140.963 219.353L141.083 219.838L141.204 220.323C142.03 220.118 142.726 219.624 143.917 218.794L143.631 218.384ZM141.083 219.838L140.963 219.353C140.433 219.485 139.806 219.485 139.276 219.353L139.156 219.838L139.035 220.323C139.723 220.494 140.515 220.494 141.204 220.323L141.083 219.838ZM139.156 219.838L139.276 219.353C138.67 219.202 138.143 218.845 136.892 217.974L136.607 218.384L136.321 218.794C137.512 219.624 138.208 220.118 139.035 220.323L139.156 219.838ZM136.607 218.384L136.892 217.974C116.141 203.518 97.9162 184.572 86.7214 161.809L86.2727 162.03L85.824 162.25C97.1101 185.199 115.465 204.266 136.321 218.794L136.607 218.384ZM86.2727 162.03L86.7214 161.809C77.1158 142.278 73.2315 120.322 72.2585 98.6303L71.759 98.6527L71.2595 98.6751C72.2361 120.447 76.1365 142.552 85.824 162.25L86.2727 162.03ZM71.759 98.6527L72.2585 98.6303C72.1848 96.9872 72.1619 96.3001 72.3732 95.6891L71.9006 95.5257L71.4281 95.3623C71.1396 96.1967 71.1895 97.1132 71.2595 98.6751L71.759 98.6527ZM71.9006 95.5257L72.3732 95.6891C72.5627 95.1411 72.9056 94.6235 73.3362 94.2348L73.0012 93.8636L72.6662 93.4924C72.1104 93.9941 71.6729 94.6545 71.4281 95.3623L71.9006 95.5257ZM73.0012 93.8636L73.3362 94.2348C73.816 93.8019 74.4738 93.5479 76.0506 92.9611L75.8762 92.4925L75.7018 92.0239C74.2034 92.5816 73.322 92.9007 72.6663 93.4924L73.0012 93.8636ZM75.8762 92.4925L76.0506 92.9611C85.916 89.2895 95.7586 85.6199 105.339 81.105L105.126 80.6527L104.913 80.2004C95.3765 84.6945 85.5731 88.3501 75.7018 92.0239L75.8762 92.4925ZM105.126 80.6527L105.339 81.105C116.33 75.9255 126.726 69.8144 137.205 63.8062L136.956 63.3724L136.708 62.9386C126.213 68.9557 115.859 75.0422 104.913 80.2004L105.126 80.6527ZM136.956 63.3724L137.205 63.8062C138.38 63.1326 138.875 62.8555 139.396 62.7454L139.292 62.2562L139.189 61.767C138.477 61.9173 137.825 62.2978 136.708 62.9386L136.956 63.3724Z" fill="url(#paint6_linear_538_2090)" mask="url(#path-11-inside-1_538_2090)"/>
</g>
</g>
</g>
<g filter="url(#filter2_d_538_2090)">
<path d="M110.285 125.406C105.761 130.333 108.922 138.306 115.592 138.796L130.204 139.868L126.371 167.011C125.822 170.9 130.622 173.169 133.278 170.276L169.715 130.594C174.239 125.668 171.079 117.695 164.408 117.205L149.796 116.132L153.629 88.9899C154.178 85.1007 149.379 82.832 146.722 85.7251L110.285 125.406Z" fill="white"/>
<path d="M146.538 85.5557C149.361 82.4822 154.46 84.8926 153.877 89.0244L150.081 115.902L164.427 116.956C171.306 117.461 174.565 125.683 169.899 130.764L133.462 170.444C130.639 173.518 125.54 171.108 126.124 166.976L129.919 140.098L115.574 139.045C108.695 138.54 105.436 130.318 110.102 125.237L146.538 85.5557Z" stroke="url(#paint7_linear_538_2090)" stroke-width="0.5" stroke-linecap="round" style="mix-blend-mode:color-burn"/>
</g>
</g>
<g filter="url(#filter3_dd_538_2090)">
<mask id="path-15-inside-2_538_2090" fill="white">
<path d="M60.3717 182C64.852 182 67.0921 182 68.8033 182.872C70.3086 183.639 71.5324 184.863 72.2994 186.368C73.1714 188.079 73.1715 190.32 73.1715 194.8V215.2C73.1715 219.68 73.1714 221.921 72.2994 223.632C71.5324 225.137 70.3086 226.361 68.8033 227.128C67.0921 228 64.852 228 60.3717 228H43.649C40.383 228 38.7498 228 37.734 227.312C36.8463 226.711 36.2368 225.779 36.0426 224.725C35.8205 223.518 36.4767 222.022 37.7877 219.031L43.9371 205L37.7877 190.969C36.4767 187.978 35.8205 186.482 36.0426 185.275C36.2368 184.221 36.8463 183.289 37.734 182.688C38.7498 182 40.383 182 43.649 182H60.3717ZM236.063 182C239.329 182 240.962 182 241.978 182.688C242.866 183.289 243.475 184.221 243.67 185.275C243.892 186.482 243.236 187.978 241.925 190.969L235.775 205L241.925 219.031C243.236 222.022 243.892 223.518 243.67 224.725C243.475 225.779 242.866 226.711 241.978 227.312C240.962 228 239.329 228 236.063 228H219.34C214.86 228 212.62 228 210.909 227.128C209.404 226.361 208.18 225.137 207.413 223.632C206.541 221.921 206.541 219.68 206.541 215.2V194.8C206.541 190.32 206.541 188.079 207.413 186.368C208.18 184.863 209.404 183.639 210.909 182.872C212.62 182 214.86 182 219.34 182H236.063Z"/>
</mask>
<path d="M60.3717 182C64.852 182 67.0921 182 68.8033 182.872C70.3086 183.639 71.5324 184.863 72.2994 186.368C73.1714 188.079 73.1715 190.32 73.1715 194.8V215.2C73.1715 219.68 73.1714 221.921 72.2994 223.632C71.5324 225.137 70.3086 226.361 68.8033 227.128C67.0921 228 64.852 228 60.3717 228H43.649C40.383 228 38.7498 228 37.734 227.312C36.8463 226.711 36.2368 225.779 36.0426 224.725C35.8205 223.518 36.4767 222.022 37.7877 219.031L43.9371 205L37.7877 190.969C36.4767 187.978 35.8205 186.482 36.0426 185.275C36.2368 184.221 36.8463 183.289 37.734 182.688C38.7498 182 40.383 182 43.649 182H60.3717ZM236.063 182C239.329 182 240.962 182 241.978 182.688C242.866 183.289 243.475 184.221 243.67 185.275C243.892 186.482 243.236 187.978 241.925 190.969L235.775 205L241.925 219.031C243.236 222.022 243.892 223.518 243.67 224.725C243.475 225.779 242.866 226.711 241.978 227.312C240.962 228 239.329 228 236.063 228H219.34C214.86 228 212.62 228 210.909 227.128C209.404 226.361 208.18 225.137 207.413 223.632C206.541 221.921 206.541 219.68 206.541 215.2V194.8C206.541 190.32 206.541 188.079 207.413 186.368C208.18 184.863 209.404 183.639 210.909 182.872C212.62 182 214.86 182 219.34 182H236.063Z" fill="#F5F0F0"/>
<path d="M68.8033 182.872L69.0303 182.427L69.0303 182.427L68.8033 182.872ZM72.2994 186.368L72.7449 186.141V186.141L72.2994 186.368ZM73.1715 194.8H73.6715H73.1715ZM73.1715 215.2H73.6715H73.1715ZM72.2994 223.632L72.7449 223.859V223.859L72.2994 223.632ZM68.8033 227.128L69.0303 227.573L69.0303 227.573L68.8033 227.128ZM60.3717 228V228.5V228ZM37.734 227.312L37.4537 227.727L37.4537 227.727L37.734 227.312ZM36.0426 224.725L35.5509 224.815L35.5509 224.815L36.0426 224.725ZM37.7877 219.031L38.2457 219.232L38.2457 219.232L37.7877 219.031ZM43.9371 205L44.3951 205.201L44.483 205L44.3951 204.799L43.9371 205ZM37.7877 190.969L38.2457 190.768L38.2457 190.768L37.7877 190.969ZM36.0426 185.275L35.5509 185.185L35.5509 185.185L36.0426 185.275ZM37.734 182.688L37.4537 182.273L37.4537 182.273L37.734 182.688ZM241.978 182.688L242.258 182.273L242.258 182.273L241.978 182.688ZM243.67 185.275L244.161 185.185L244.161 185.185L243.67 185.275ZM241.925 190.969L242.383 191.169V191.169L241.925 190.969ZM235.775 205L235.317 204.799L235.229 205L235.317 205.201L235.775 205ZM241.925 219.031L242.383 218.831V218.831L241.925 219.031ZM243.67 224.725L244.161 224.815L244.161 224.815L243.67 224.725ZM241.978 227.312L242.258 227.727L242.258 227.727L241.978 227.312ZM219.34 228V228.5V228ZM210.909 227.128L210.682 227.573L210.909 227.128ZM207.413 223.632L206.967 223.859L207.413 223.632ZM206.541 215.2H206.041H206.541ZM206.541 194.8H206.041H206.541ZM207.413 186.368L206.967 186.141V186.141L207.413 186.368ZM210.909 182.872L210.682 182.427V182.427L210.909 182.872ZM219.34 182V181.5V182ZM60.3717 182V182.5C62.6201 182.5 64.2763 182.5 65.5852 182.607C66.8882 182.714 67.8029 182.924 68.5764 183.318L68.8033 182.872L69.0303 182.427C68.0925 181.949 67.0315 181.722 65.6666 181.611C64.3076 181.5 62.6036 181.5 60.3717 181.5V182ZM68.8033 182.872L68.5763 183.318C69.9875 184.037 71.1349 185.184 71.8539 186.595L72.2994 186.368L72.7449 186.141C71.93 184.542 70.6297 183.241 69.0303 182.427L68.8033 182.872ZM72.2994 186.368L71.8539 186.595C72.248 187.369 72.4576 188.283 72.5641 189.586C72.6711 190.895 72.6715 192.551 72.6715 194.8H73.1715H73.6715C73.6715 192.568 73.6719 190.864 73.5608 189.505C73.4492 188.14 73.2228 187.079 72.7449 186.141L72.2994 186.368ZM73.1715 194.8H72.6715V215.2H73.1715H73.6715V194.8H73.1715ZM73.1715 215.2H72.6715C72.6715 217.449 72.6711 219.105 72.5641 220.414C72.4576 221.717 72.248 222.631 71.8539 223.405L72.2994 223.632L72.7449 223.859C73.2228 222.921 73.4492 221.86 73.5608 220.495C73.6719 219.136 73.6715 217.432 73.6715 215.2H73.1715ZM72.2994 223.632L71.8539 223.405C71.1349 224.816 69.9875 225.963 68.5763 226.682L68.8033 227.128L69.0303 227.573C70.6297 226.759 71.93 225.458 72.7449 223.859L72.2994 223.632ZM68.8033 227.128L68.5764 226.682C67.8029 227.076 66.8882 227.286 65.5852 227.393C64.2763 227.5 62.6201 227.5 60.3717 227.5V228V228.5C62.6036 228.5 64.3076 228.5 65.6666 228.389C67.0315 228.278 68.0925 228.051 69.0303 227.573L68.8033 227.128ZM60.3717 228V227.5H43.649V228V228.5H60.3717V228ZM43.649 228V227.5C42.0064 227.5 40.8085 227.5 39.893 227.416C38.9781 227.333 38.4173 227.171 38.0143 226.898L37.734 227.312L37.4537 227.727C38.0665 228.141 38.8302 228.324 39.8024 228.412C40.7739 228.501 42.0257 228.5 43.649 228.5V228ZM37.734 227.312L38.0143 226.898C37.2375 226.373 36.7042 225.557 36.5343 224.634L36.0426 224.725L35.5509 224.815C35.7693 226.001 36.455 227.05 37.4537 227.727L37.734 227.312ZM36.0426 224.725L36.5343 224.634C36.4462 224.156 36.5234 223.577 36.8145 222.706C37.1057 221.834 37.5862 220.736 38.2457 219.232L37.7877 219.031L37.3298 218.831C36.6781 220.317 36.175 221.463 35.866 222.389C35.5567 223.315 35.4168 224.087 35.5509 224.815L36.0426 224.725ZM37.7877 219.031L38.2457 219.232L44.3951 205.201L43.9371 205L43.4792 204.799L37.3298 218.831L37.7877 219.031ZM43.9371 205L44.3951 204.799L38.2457 190.768L37.7877 190.969L37.3298 191.169L43.4792 205.201L43.9371 205ZM37.7877 190.969L38.2457 190.768C37.5862 189.264 37.1057 188.166 36.8145 187.294C36.5234 186.423 36.4462 185.844 36.5343 185.366L36.0426 185.275L35.5509 185.185C35.4168 185.913 35.5567 186.685 35.866 187.611C36.175 188.537 36.6781 189.683 37.3298 191.169L37.7877 190.969ZM36.0426 185.275L36.5343 185.366C36.7042 184.443 37.2375 183.627 38.0143 183.102L37.734 182.688L37.4537 182.273C36.455 182.95 35.7693 183.999 35.5509 185.185L36.0426 185.275ZM37.734 182.688L38.0143 183.102C38.4173 182.829 38.9781 182.667 39.893 182.584C40.8085 182.5 42.0064 182.5 43.649 182.5V182V181.5C42.0257 181.5 40.7739 181.499 39.8024 181.588C38.8302 181.676 38.0665 181.859 37.4537 182.273L37.734 182.688ZM43.649 182V182.5H60.3717V182V181.5H43.649V182ZM236.063 182V182.5C237.706 182.5 238.904 182.5 239.819 182.584C240.734 182.667 241.295 182.829 241.698 183.102L241.978 182.688L242.258 182.273C241.646 181.859 240.882 181.676 239.91 181.588C238.938 181.499 237.686 181.5 236.063 181.5V182ZM241.978 182.688L241.698 183.102C242.475 183.627 243.008 184.443 243.178 185.366L243.67 185.275L244.161 185.185C243.943 183.999 243.257 182.95 242.258 182.273L241.978 182.688ZM243.67 185.275L243.178 185.366C243.266 185.845 243.189 186.423 242.898 187.295C242.607 188.166 242.127 189.264 241.467 190.768L241.925 190.969L242.383 191.169C243.035 189.683 243.538 188.537 243.847 187.611C244.156 186.685 244.295 185.913 244.161 185.185L243.67 185.275ZM241.925 190.969L241.467 190.768L235.317 204.799L235.775 205L236.233 205.201L242.383 191.169L241.925 190.969ZM235.775 205L235.317 205.201L241.467 219.232L241.925 219.031L242.383 218.831L236.233 204.799L235.775 205ZM241.925 219.031L241.467 219.232C242.127 220.736 242.607 221.834 242.898 222.705C243.189 223.577 243.266 224.155 243.178 224.634L243.67 224.725L244.161 224.815C244.295 224.087 244.156 223.315 243.847 222.389C243.538 221.463 243.035 220.317 242.383 218.831L241.925 219.031ZM243.67 224.725L243.178 224.634C243.008 225.557 242.475 226.373 241.698 226.898L241.978 227.312L242.258 227.727C243.257 227.05 243.943 226.001 244.161 224.815L243.67 224.725ZM241.978 227.312L241.698 226.898C241.295 227.171 240.734 227.333 239.819 227.416C238.904 227.5 237.706 227.5 236.063 227.5V228V228.5C237.686 228.5 238.938 228.501 239.91 228.412C240.882 228.324 241.646 228.141 242.258 227.727L241.978 227.312ZM236.063 228V227.5H219.34V228V228.5H236.063V228ZM219.34 228V227.5C217.092 227.5 215.436 227.5 214.127 227.393C212.824 227.286 211.909 227.076 211.136 226.682L210.909 227.128L210.682 227.573C211.62 228.051 212.681 228.278 214.046 228.389C215.405 228.5 217.109 228.5 219.34 228.5V228ZM210.909 227.128L211.136 226.682C209.725 225.963 208.577 224.816 207.858 223.405L207.413 223.632L206.967 223.859C207.782 225.458 209.082 226.759 210.682 227.573L210.909 227.128ZM207.413 223.632L207.858 223.405C207.464 222.631 207.255 221.717 207.148 220.414C207.041 219.105 207.041 217.449 207.041 215.2H206.541H206.041C206.041 217.432 206.04 219.136 206.151 220.495C206.263 221.86 206.489 222.921 206.967 223.859L207.413 223.632ZM206.541 215.2H207.041V194.8H206.541H206.041V215.2H206.541ZM206.541 194.8H207.041C207.041 192.551 207.041 190.895 207.148 189.586C207.255 188.283 207.464 187.369 207.858 186.595L207.413 186.368L206.967 186.141C206.489 187.079 206.263 188.14 206.151 189.505C206.04 190.864 206.041 192.568 206.041 194.8H206.541ZM207.413 186.368L207.858 186.595C208.577 185.184 209.725 184.037 211.136 183.318L210.909 182.872L210.682 182.427C209.082 183.241 207.782 184.542 206.967 186.141L207.413 186.368ZM210.909 182.872L211.136 183.318C211.909 182.924 212.824 182.714 214.127 182.607C215.436 182.5 217.092 182.5 219.34 182.5V182V181.5C217.109 181.5 215.405 181.5 214.046 181.611C212.681 181.722 211.62 181.949 210.682 182.427L210.909 182.872ZM219.34 182V182.5H236.063V182V181.5H219.34V182Z" fill="url(#paint8_linear_538_2090)" style="mix-blend-mode:darken" mask="url(#path-15-inside-2_538_2090)"/>
</g>
<path d="M60.3717 182C64.852 182 67.0921 182 68.8033 182.872C70.3086 183.639 71.5324 184.863 72.2994 186.368C73.1714 188.079 73.1715 190.32 73.1715 194.8V215.2C73.1715 219.68 73.1714 221.921 72.2994 223.632C71.5324 225.137 70.3086 226.361 68.8033 227.128C67.0921 228 64.852 228 60.3717 228H43.649C40.383 228 38.7498 228 37.734 227.312C36.8463 226.711 36.2368 225.779 36.0426 224.725C35.8205 223.518 36.4767 222.022 37.7877 219.031L43.9371 205L37.7877 190.969C36.4767 187.978 35.8205 186.482 36.0426 185.275C36.2368 184.221 36.8463 183.289 37.734 182.688C38.7498 182 40.383 182 43.649 182H60.3717ZM236.063 182C239.329 182 240.962 182 241.978 182.688C242.866 183.289 243.475 184.221 243.67 185.275C243.892 186.482 243.236 187.978 241.925 190.969L235.775 205L241.925 219.031C243.236 222.022 243.892 223.518 243.67 224.725C243.475 225.779 242.866 226.711 241.978 227.312C240.962 228 239.329 228 236.063 228H219.34C214.86 228 212.62 228 210.909 227.128C209.404 226.361 208.18 225.137 207.413 223.632C206.541 221.921 206.541 219.68 206.541 215.2V194.8C206.541 190.32 206.541 188.079 207.413 186.368C208.18 184.863 209.404 183.639 210.909 182.872C212.62 182 214.86 182 219.34 182H236.063Z" fill="black" fill-opacity="0.24" style="mix-blend-mode:overlay"/>
<path d="M60.3717 182C64.852 182 67.0921 182 68.8033 182.872C70.3086 183.639 71.5324 184.863 72.2994 186.368C73.1714 188.079 73.1715 190.32 73.1715 194.8V215.2C73.1715 219.68 73.1714 221.921 72.2994 223.632C71.5324 225.137 70.3086 226.361 68.8033 227.128C67.0921 228 64.852 228 60.3717 228H43.649C40.383 228 38.7498 228 37.734 227.312C36.8463 226.711 36.2368 225.779 36.0426 224.725C35.8205 223.518 36.4767 222.022 37.7877 219.031L43.9371 205L37.7877 190.969C36.4767 187.978 35.8205 186.482 36.0426 185.275C36.2368 184.221 36.8463 183.289 37.734 182.688C38.7498 182 40.383 182 43.649 182H60.3717ZM236.063 182C239.329 182 240.962 182 241.978 182.688C242.866 183.289 243.475 184.221 243.67 185.275C243.892 186.482 243.236 187.978 241.925 190.969L235.775 205L241.925 219.031C243.236 222.022 243.892 223.518 243.67 224.725C243.475 225.779 242.866 226.711 241.978 227.312C240.962 228 239.329 228 236.063 228H219.34C214.86 228 212.62 228 210.909 227.128C209.404 226.361 208.18 225.137 207.413 223.632C206.541 221.921 206.541 219.68 206.541 215.2V194.8C206.541 190.32 206.541 188.079 207.413 186.368C208.18 184.863 209.404 183.639 210.909 182.872C212.62 182 214.86 182 219.34 182H236.063Z" fill="black" fill-opacity="0.12" style="mix-blend-mode:darken"/>
<g filter="url(#filter4_dd_538_2090)">
<rect x="36" y="170" width="208" height="46" rx="8" fill="#F5F0F0"/>
<rect x="36.25" y="170.25" width="207.5" height="45.5" rx="7.75" stroke="url(#paint9_linear_538_2090)" stroke-width="0.5" stroke-linecap="round" style="mix-blend-mode:darken"/>
</g>
<rect x="51.856" y="170" width="176" height="46" rx="8" fill="url(#paint10_linear_538_2090)" fill-opacity="0.3" style="mix-blend-mode:overlay"/>
<rect x="51.856" y="170" width="176" height="46" rx="8" fill="url(#paint11_radial_538_2090)" fill-opacity="0.6" style="mix-blend-mode:overlay"/>
<g filter="url(#filter5_i_538_2090)">
<circle cx="46.856" cy="193" r="3" fill="black" fill-opacity="0.24" style="mix-blend-mode:color-burn"/>
<circle cx="46.856" cy="193" r="3" fill="black" fill-opacity="0.32" style="mix-blend-mode:darken"/>
</g>
<g filter="url(#filter6_i_538_2090)">
<circle cx="232.856" cy="193" r="3" fill="black" fill-opacity="0.24" style="mix-blend-mode:color-burn"/>
<circle cx="232.856" cy="193" r="3" fill="black" fill-opacity="0.32" style="mix-blend-mode:darken"/>
</g>
<g filter="url(#filter7_i_538_2090)">
<path d="M71.5056 187.424C71.5056 187.792 71.4096 188.112 71.2175 188.384C71.0256 188.656 70.8096 188.872 70.5695 189.032C70.1695 188.76 69.7136 188.52 69.2016 188.312C68.7056 188.104 68.1136 188 67.4255 188C66.5775 188 65.8415 188.184 65.2175 188.552C64.5935 188.92 64.1135 189.456 63.7775 190.16C63.4575 190.864 63.2975 191.72 63.2975 192.728C63.2975 194.264 63.6815 195.432 64.4495 196.232C65.2175 197.032 66.2735 197.432 67.6175 197.432C68.3055 197.432 68.8976 197.336 69.3936 197.144C69.8896 196.952 70.3456 196.736 70.7615 196.496C71.0015 196.672 71.1935 196.904 71.3375 197.192C71.4976 197.464 71.5776 197.784 71.5776 198.152C71.5776 198.472 71.4896 198.768 71.3135 199.04C71.1536 199.312 70.8736 199.544 70.4736 199.736C70.1696 199.896 69.7376 200.048 69.1776 200.192C68.6175 200.336 67.9375 200.408 67.1376 200.408C65.7296 200.408 64.4416 200.136 63.2735 199.592C62.1215 199.032 61.2095 198.192 60.5375 197.072C59.8655 195.936 59.5295 194.488 59.5295 192.728C59.5295 191.064 59.8575 189.664 60.5135 188.528C61.1855 187.376 62.0815 186.504 63.2015 185.912C64.3215 185.32 65.5615 185.024 66.9216 185.024C67.8655 185.024 68.6815 185.136 69.3695 185.36C70.0576 185.568 70.5856 185.856 70.9536 186.224C71.3216 186.576 71.5056 186.976 71.5056 187.424ZM87.0199 192.704C87.0199 194.368 86.6919 195.776 86.0359 196.928C85.3959 198.064 84.5079 198.928 83.3719 199.52C82.2519 200.112 80.9799 200.408 79.5559 200.408C78.1319 200.408 76.8599 200.112 75.7399 199.52C74.6199 198.928 73.7399 198.064 73.0999 196.928C72.4599 195.776 72.1399 194.368 72.1399 192.704C72.1399 191.04 72.4679 189.64 73.1239 188.504C73.7799 187.352 74.6679 186.488 75.7879 185.912C76.9079 185.32 78.1639 185.024 79.5559 185.024C80.9639 185.024 82.2279 185.32 83.3479 185.912C84.4839 186.488 85.3799 187.352 86.0359 188.504C86.6919 189.64 87.0199 191.04 87.0199 192.704ZM83.2519 192.704C83.2519 191.168 82.9159 190 82.2439 189.2C81.5879 188.4 80.6919 188 79.5559 188C78.4679 188 77.5879 188.4 76.9159 189.2C76.2439 189.984 75.9079 191.152 75.9079 192.704C75.9079 194.272 76.2359 195.456 76.8919 196.256C77.5639 197.04 78.4599 197.432 79.5799 197.432C80.6999 197.432 81.5879 197.04 82.2439 196.256C82.9159 195.456 83.2519 194.272 83.2519 192.704ZM98.2822 196.376C98.1062 196.52 97.8662 196.64 97.5622 196.736C97.2742 196.832 96.9382 196.88 96.5542 196.88C96.0582 196.88 95.6422 196.816 95.3062 196.688C94.9702 196.56 94.7542 196.344 94.6582 196.04C94.1142 194.52 93.6502 193.256 93.2662 192.248C92.8982 191.24 92.6102 190.368 92.4022 189.632H92.2822C92.2342 190.64 92.1942 191.56 92.1622 192.392C92.1302 193.224 92.1062 194.04 92.0902 194.84C92.0742 195.624 92.0502 196.424 92.0182 197.24C91.9862 198.056 91.9382 198.952 91.8742 199.928C91.6982 199.976 91.4582 200.032 91.1542 200.096C90.8662 200.16 90.5782 200.192 90.2902 200.192C89.6822 200.192 89.2022 200.088 88.8502 199.88C88.5142 199.672 88.3462 199.312 88.3462 198.8C88.3462 198.448 88.3622 197.928 88.3942 197.24C88.4422 196.536 88.4902 195.736 88.5382 194.84C88.6022 193.928 88.6582 192.968 88.7062 191.96C88.7702 190.952 88.8342 189.96 88.8982 188.984C88.9782 187.992 89.0502 187.08 89.1142 186.248C89.2422 186.056 89.4982 185.864 89.8822 185.672C90.2662 185.464 90.7942 185.36 91.4662 185.36C92.1862 185.36 92.7622 185.48 93.1942 185.72C93.6422 185.944 93.9622 186.32 94.1542 186.848C94.3942 187.424 94.6502 188.096 94.9222 188.864C95.1942 189.616 95.4582 190.384 95.7142 191.168C95.9862 191.936 96.2342 192.632 96.4582 193.256H96.5782C97.0262 191.848 97.4822 190.472 97.9462 189.128C98.4262 187.784 98.8342 186.664 99.1702 185.768C99.3942 185.64 99.6742 185.544 100.01 185.48C100.362 185.4 100.73 185.36 101.114 185.36C101.802 185.36 102.354 185.464 102.77 185.672C103.202 185.864 103.458 186.16 103.538 186.56C103.602 186.864 103.666 187.344 103.73 188C103.81 188.656 103.89 189.416 103.97 190.28C104.05 191.128 104.13 192.024 104.21 192.968C104.29 193.896 104.362 194.808 104.426 195.704C104.506 196.584 104.57 197.376 104.618 198.08C104.666 198.784 104.698 199.344 104.714 199.76C104.474 199.904 104.218 200.008 103.946 200.072C103.69 200.152 103.362 200.192 102.962 200.192C102.45 200.192 102.01 200.096 101.642 199.904C101.29 199.712 101.098 199.344 101.066 198.8C100.986 197.552 100.922 196.368 100.874 195.248C100.826 194.112 100.786 193.08 100.754 192.152C100.738 191.208 100.714 190.4 100.682 189.728H100.562C100.354 190.416 100.058 191.288 99.6742 192.344C99.3062 193.384 98.8422 194.728 98.2822 196.376ZM114.361 191.264V193.856H109.009V191.264H114.361ZM112.561 193.856L112.849 191.864C114.177 191.864 115.281 192.024 116.161 192.344C117.041 192.664 117.697 193.112 118.129 193.688C118.577 194.264 118.801 194.96 118.801 195.776C118.801 197.328 118.225 198.48 117.073 199.232C115.921 199.984 114.281 200.36 112.153 200.36C111.769 200.36 111.329 200.344 110.833 200.312C110.353 200.28 109.857 200.224 109.345 200.144C108.849 200.064 108.393 199.952 107.977 199.808C107.145 199.504 106.729 198.968 106.729 198.2V186.728C106.729 186.424 106.817 186.184 106.993 186.008C107.169 185.832 107.401 185.696 107.689 185.6C108.233 185.408 108.889 185.272 109.657 185.192C110.441 185.112 111.241 185.072 112.057 185.072C114.041 185.072 115.569 185.416 116.641 186.104C117.729 186.792 118.273 187.832 118.273 189.224C118.273 189.992 118.049 190.648 117.601 191.192C117.153 191.736 116.497 192.152 115.633 192.44C114.785 192.728 113.753 192.872 112.537 192.872L112.369 191.264C113.137 191.264 113.705 191.112 114.073 190.808C114.441 190.504 114.625 190.072 114.625 189.512C114.625 188.984 114.409 188.576 113.977 188.288C113.561 188 112.929 187.856 112.081 187.856C111.777 187.856 111.457 187.872 111.121 187.904C110.785 187.92 110.505 187.952 110.281 188V197.336C110.553 197.4 110.881 197.448 111.265 197.48C111.665 197.512 112.041 197.528 112.393 197.528C113.193 197.528 113.833 197.376 114.313 197.072C114.809 196.752 115.057 196.272 115.057 195.632C115.057 195.024 114.849 194.576 114.433 194.288C114.017 194 113.393 193.856 112.561 193.856ZM134.648 192.704C134.648 194.368 134.32 195.776 133.664 196.928C133.024 198.064 132.136 198.928 131 199.52C129.88 200.112 128.608 200.408 127.184 200.408C125.76 200.408 124.488 200.112 123.368 199.52C122.248 198.928 121.368 198.064 120.728 196.928C120.088 195.776 119.768 194.368 119.768 192.704C119.768 191.04 120.096 189.64 120.752 188.504C121.408 187.352 122.296 186.488 123.416 185.912C124.536 185.32 125.792 185.024 127.184 185.024C128.592 185.024 129.856 185.32 130.976 185.912C132.112 186.488 133.008 187.352 133.664 188.504C134.32 189.64 134.648 191.04 134.648 192.704ZM130.88 192.704C130.88 191.168 130.544 190 129.872 189.2C129.216 188.4 128.32 188 127.184 188C126.096 188 125.216 188.4 124.544 189.2C123.872 189.984 123.536 191.152 123.536 192.704C123.536 194.272 123.864 195.456 124.52 196.256C125.192 197.04 126.088 197.432 127.208 197.432C128.328 197.432 129.216 197.04 129.872 196.256C130.544 195.456 130.88 194.272 130.88 192.704ZM149.825 196.376C149.649 196.52 149.409 196.64 149.105 196.736C148.817 196.832 148.481 196.88 148.097 196.88C147.601 196.88 147.185 196.816 146.849 196.688C146.513 196.56 146.297 196.344 146.201 196.04C145.657 194.52 145.193 193.256 144.809 192.248C144.441 191.24 144.153 190.368 143.945 189.632H143.825C143.777 190.64 143.737 191.56 143.705 192.392C143.673 193.224 143.649 194.04 143.633 194.84C143.617 195.624 143.593 196.424 143.561 197.24C143.529 198.056 143.481 198.952 143.417 199.928C143.241 199.976 143.001 200.032 142.697 200.096C142.409 200.16 142.121 200.192 141.833 200.192C141.225 200.192 140.745 200.088 140.393 199.88C140.057 199.672 139.889 199.312 139.889 198.8C139.889 198.448 139.905 197.928 139.937 197.24C139.985 196.536 140.033 195.736 140.081 194.84C140.145 193.928 140.201 192.968 140.249 191.96C140.313 190.952 140.377 189.96 140.441 188.984C140.521 187.992 140.593 187.08 140.657 186.248C140.785 186.056 141.041 185.864 141.425 185.672C141.809 185.464 142.337 185.36 143.009 185.36C143.729 185.36 144.305 185.48 144.737 185.72C145.185 185.944 145.505 186.32 145.697 186.848C145.937 187.424 146.193 188.096 146.465 188.864C146.737 189.616 147.001 190.384 147.257 191.168C147.529 191.936 147.777 192.632 148.001 193.256H148.121C148.569 191.848 149.025 190.472 149.489 189.128C149.969 187.784 150.377 186.664 150.713 185.768C150.937 185.64 151.217 185.544 151.553 185.48C151.905 185.4 152.273 185.36 152.657 185.36C153.345 185.36 153.897 185.464 154.313 185.672C154.745 185.864 155.001 186.16 155.081 186.56C155.145 186.864 155.209 187.344 155.273 188C155.353 188.656 155.433 189.416 155.513 190.28C155.593 191.128 155.673 192.024 155.753 192.968C155.833 193.896 155.905 194.808 155.969 195.704C156.049 196.584 156.113 197.376 156.161 198.08C156.209 198.784 156.241 199.344 156.257 199.76C156.017 199.904 155.761 200.008 155.489 200.072C155.233 200.152 154.905 200.192 154.505 200.192C153.993 200.192 153.553 200.096 153.185 199.904C152.833 199.712 152.641 199.344 152.609 198.8C152.529 197.552 152.465 196.368 152.417 195.248C152.369 194.112 152.329 193.08 152.297 192.152C152.281 191.208 152.257 190.4 152.225 189.728H152.105C151.897 190.416 151.601 191.288 151.217 192.344C150.849 193.384 150.385 194.728 149.825 196.376ZM164.245 188.48H164.101C163.941 188.992 163.749 189.56 163.525 190.184C163.317 190.808 163.101 191.464 162.877 192.152C162.653 192.824 162.437 193.496 162.229 194.168L161.797 196.328C161.701 196.632 161.605 196.952 161.509 197.288C161.429 197.624 161.341 197.952 161.245 198.272C161.149 198.592 161.061 198.896 160.981 199.184C160.901 199.472 160.821 199.744 160.741 200C160.565 200.048 160.365 200.096 160.141 200.144C159.917 200.208 159.653 200.24 159.349 200.24C158.677 200.24 158.165 200.12 157.813 199.88C157.461 199.64 157.285 199.288 157.285 198.824C157.285 198.632 157.309 198.432 157.357 198.224C157.421 198.016 157.493 197.776 157.573 197.504C157.717 196.976 157.917 196.312 158.173 195.512C158.445 194.712 158.733 193.848 159.037 192.92C159.357 191.976 159.677 191.048 159.997 190.136C160.333 189.224 160.637 188.384 160.909 187.616C161.197 186.848 161.429 186.248 161.605 185.816C161.829 185.672 162.181 185.544 162.661 185.432C163.157 185.304 163.645 185.24 164.125 185.24C164.813 185.24 165.429 185.344 165.973 185.552C166.517 185.744 166.861 186.056 167.005 186.488C167.309 187.336 167.637 188.32 167.989 189.44C168.357 190.544 168.725 191.704 169.093 192.92C169.461 194.136 169.813 195.32 170.149 196.472C170.501 197.608 170.805 198.632 171.061 199.544C170.885 199.736 170.629 199.896 170.293 200.024C169.957 200.168 169.557 200.24 169.093 200.24C168.437 200.24 167.973 200.12 167.701 199.88C167.429 199.64 167.221 199.28 167.077 198.8L166.309 196.112L165.901 194.072C165.709 193.352 165.509 192.656 165.301 191.984C165.093 191.312 164.901 190.68 164.725 190.088C164.549 189.48 164.389 188.944 164.245 188.48ZM160.189 196.76L161.605 193.928H167.221L167.701 196.76H160.189ZM176.656 197.432C177.52 197.432 178.136 197.28 178.504 196.976C178.888 196.656 179.08 196.28 179.08 195.848C179.08 195.448 178.928 195.128 178.624 194.888C178.336 194.632 177.904 194.416 177.328 194.24L176.056 193.832C175.192 193.544 174.424 193.224 173.752 192.872C173.096 192.52 172.584 192.064 172.216 191.504C171.864 190.944 171.688 190.232 171.688 189.368C171.688 188.04 172.192 186.984 173.2 186.2C174.208 185.416 175.608 185.024 177.4 185.024C178.312 185.024 179.12 185.112 179.824 185.288C180.544 185.464 181.104 185.728 181.504 186.08C181.92 186.416 182.128 186.832 182.128 187.328C182.128 187.696 182.04 188.016 181.864 188.288C181.704 188.544 181.496 188.768 181.24 188.96C180.872 188.704 180.384 188.488 179.776 188.312C179.168 188.12 178.496 188.024 177.76 188.024C176.992 188.024 176.416 188.152 176.032 188.408C175.648 188.648 175.456 188.968 175.456 189.368C175.456 189.688 175.584 189.952 175.84 190.16C176.096 190.352 176.48 190.528 176.992 190.688L178.312 191.096C179.768 191.544 180.888 192.144 181.672 192.896C182.456 193.632 182.848 194.624 182.848 195.872C182.848 197.216 182.328 198.312 181.288 199.16C180.248 199.992 178.744 200.408 176.776 200.408C175.8 200.408 174.928 200.304 174.16 200.096C173.392 199.888 172.776 199.584 172.312 199.184C171.864 198.784 171.64 198.32 171.64 197.792C171.64 197.376 171.76 197.024 172 196.736C172.256 196.432 172.536 196.208 172.84 196.064C173.272 196.416 173.808 196.736 174.448 197.024C175.104 197.296 175.84 197.432 176.656 197.432ZM187.247 188.384L187.223 185.456H194.639C194.735 185.6 194.823 185.8 194.903 186.056C194.983 186.312 195.023 186.584 195.023 186.872C195.023 187.384 194.903 187.768 194.663 188.024C194.439 188.264 194.127 188.384 193.727 188.384H187.247ZM190.631 185.456L190.655 188.384H183.239C183.127 188.24 183.031 188.04 182.951 187.784C182.887 187.528 182.855 187.256 182.855 186.968C182.855 186.44 182.967 186.056 183.191 185.816C183.431 185.576 183.743 185.456 184.127 185.456H190.631ZM187.055 187.736H190.727V199.976C190.567 200.024 190.327 200.064 190.007 200.096C189.687 200.144 189.359 200.168 189.023 200.168C188.303 200.168 187.791 200.04 187.487 199.784C187.199 199.528 187.055 199.08 187.055 198.44V187.736ZM196.267 189.824H199.819V199.856C199.675 199.888 199.451 199.928 199.147 199.976C198.859 200.024 198.547 200.048 198.211 200.048C197.619 200.048 197.147 199.872 196.795 199.52C196.443 199.168 196.267 198.696 196.267 198.104V189.824ZM199.819 195.632H196.267V187.4C196.267 186.792 196.443 186.32 196.795 185.984C197.147 185.632 197.619 185.456 198.211 185.456C198.547 185.456 198.859 185.48 199.147 185.528C199.451 185.576 199.675 185.616 199.819 185.648V195.632ZM198.211 194.024V191.144H205.459C205.555 191.304 205.643 191.504 205.723 191.744C205.803 191.984 205.843 192.248 205.843 192.536C205.843 193.048 205.723 193.424 205.483 193.664C205.259 193.904 204.955 194.024 204.571 194.024H198.211ZM198.211 200.048V197.144H206.251C206.347 197.288 206.435 197.488 206.515 197.744C206.595 198 206.635 198.272 206.635 198.56C206.635 199.072 206.515 199.448 206.275 199.688C206.051 199.928 205.747 200.048 205.363 200.048H198.211ZM198.211 188.336V185.456H206.131C206.243 185.6 206.331 185.792 206.395 186.032C206.475 186.272 206.515 186.536 206.515 186.824C206.515 187.336 206.403 187.72 206.179 187.976C205.955 188.216 205.643 188.336 205.243 188.336H198.211ZM211.986 192.272H213.546C214.346 192.272 214.986 192.096 215.466 191.744C215.962 191.376 216.21 190.84 216.21 190.136C216.21 189.448 215.978 188.928 215.514 188.576C215.05 188.208 214.338 188.024 213.378 188.024C213.106 188.024 212.858 188.032 212.634 188.048C212.41 188.064 212.194 188.096 211.986 188.144V192.272ZM213.882 195.104H208.362V186.728C208.362 186.424 208.45 186.184 208.626 186.008C208.802 185.832 209.034 185.696 209.322 185.6C209.85 185.408 210.466 185.272 211.17 185.192C211.89 185.112 212.634 185.072 213.402 185.072C215.562 185.072 217.186 185.528 218.274 186.44C219.362 187.336 219.906 188.56 219.906 190.112C219.906 191.072 219.642 191.936 219.114 192.704C218.602 193.456 217.89 194.048 216.978 194.48C216.082 194.896 215.05 195.104 213.882 195.104ZM213.21 194.24L216.474 193.472C216.842 193.984 217.218 194.488 217.602 194.984C218.002 195.48 218.378 195.96 218.73 196.424C219.098 196.888 219.426 197.32 219.714 197.72C220.002 198.104 220.234 198.432 220.41 198.704C220.266 199.184 220.01 199.56 219.642 199.832C219.274 200.088 218.858 200.216 218.394 200.216C217.802 200.216 217.346 200.088 217.026 199.832C216.722 199.56 216.434 199.208 216.162 198.776L213.21 194.24ZM208.362 193.736H212.01V199.976C211.866 200.024 211.634 200.064 211.314 200.096C210.994 200.144 210.666 200.168 210.33 200.168C209.61 200.168 209.098 200.04 208.794 199.784C208.506 199.528 208.362 199.08 208.362 198.44V193.736Z" fill="black" fill-opacity="0.24" style="mix-blend-mode:color-burn"/>
<path d="M71.5056 187.424C71.5056 187.792 71.4096 188.112 71.2175 188.384C71.0256 188.656 70.8096 188.872 70.5695 189.032C70.1695 188.76 69.7136 188.52 69.2016 188.312C68.7056 188.104 68.1136 188 67.4255 188C66.5775 188 65.8415 188.184 65.2175 188.552C64.5935 188.92 64.1135 189.456 63.7775 190.16C63.4575 190.864 63.2975 191.72 63.2975 192.728C63.2975 194.264 63.6815 195.432 64.4495 196.232C65.2175 197.032 66.2735 197.432 67.6175 197.432C68.3055 197.432 68.8976 197.336 69.3936 197.144C69.8896 196.952 70.3456 196.736 70.7615 196.496C71.0015 196.672 71.1935 196.904 71.3375 197.192C71.4976 197.464 71.5776 197.784 71.5776 198.152C71.5776 198.472 71.4896 198.768 71.3135 199.04C71.1536 199.312 70.8736 199.544 70.4736 199.736C70.1696 199.896 69.7376 200.048 69.1776 200.192C68.6175 200.336 67.9375 200.408 67.1376 200.408C65.7296 200.408 64.4416 200.136 63.2735 199.592C62.1215 199.032 61.2095 198.192 60.5375 197.072C59.8655 195.936 59.5295 194.488 59.5295 192.728C59.5295 191.064 59.8575 189.664 60.5135 188.528C61.1855 187.376 62.0815 186.504 63.2015 185.912C64.3215 185.32 65.5615 185.024 66.9216 185.024C67.8655 185.024 68.6815 185.136 69.3695 185.36C70.0576 185.568 70.5856 185.856 70.9536 186.224C71.3216 186.576 71.5056 186.976 71.5056 187.424ZM87.0199 192.704C87.0199 194.368 86.6919 195.776 86.0359 196.928C85.3959 198.064 84.5079 198.928 83.3719 199.52C82.2519 200.112 80.9799 200.408 79.5559 200.408C78.1319 200.408 76.8599 200.112 75.7399 199.52C74.6199 198.928 73.7399 198.064 73.0999 196.928C72.4599 195.776 72.1399 194.368 72.1399 192.704C72.1399 191.04 72.4679 189.64 73.1239 188.504C73.7799 187.352 74.6679 186.488 75.7879 185.912C76.9079 185.32 78.1639 185.024 79.5559 185.024C80.9639 185.024 82.2279 185.32 83.3479 185.912C84.4839 186.488 85.3799 187.352 86.0359 188.504C86.6919 189.64 87.0199 191.04 87.0199 192.704ZM83.2519 192.704C83.2519 191.168 82.9159 190 82.2439 189.2C81.5879 188.4 80.6919 188 79.5559 188C78.4679 188 77.5879 188.4 76.9159 189.2C76.2439 189.984 75.9079 191.152 75.9079 192.704C75.9079 194.272 76.2359 195.456 76.8919 196.256C77.5639 197.04 78.4599 197.432 79.5799 197.432C80.6999 197.432 81.5879 197.04 82.2439 196.256C82.9159 195.456 83.2519 194.272 83.2519 192.704ZM98.2822 196.376C98.1062 196.52 97.8662 196.64 97.5622 196.736C97.2742 196.832 96.9382 196.88 96.5542 196.88C96.0582 196.88 95.6422 196.816 95.3062 196.688C94.9702 196.56 94.7542 196.344 94.6582 196.04C94.1142 194.52 93.6502 193.256 93.2662 192.248C92.8982 191.24 92.6102 190.368 92.4022 189.632H92.2822C92.2342 190.64 92.1942 191.56 92.1622 192.392C92.1302 193.224 92.1062 194.04 92.0902 194.84C92.0742 195.624 92.0502 196.424 92.0182 197.24C91.9862 198.056 91.9382 198.952 91.8742 199.928C91.6982 199.976 91.4582 200.032 91.1542 200.096C90.8662 200.16 90.5782 200.192 90.2902 200.192C89.6822 200.192 89.2022 200.088 88.8502 199.88C88.5142 199.672 88.3462 199.312 88.3462 198.8C88.3462 198.448 88.3622 197.928 88.3942 197.24C88.4422 196.536 88.4902 195.736 88.5382 194.84C88.6022 193.928 88.6582 192.968 88.7062 191.96C88.7702 190.952 88.8342 189.96 88.8982 188.984C88.9782 187.992 89.0502 187.08 89.1142 186.248C89.2422 186.056 89.4982 185.864 89.8822 185.672C90.2662 185.464 90.7942 185.36 91.4662 185.36C92.1862 185.36 92.7622 185.48 93.1942 185.72C93.6422 185.944 93.9622 186.32 94.1542 186.848C94.3942 187.424 94.6502 188.096 94.9222 188.864C95.1942 189.616 95.4582 190.384 95.7142 191.168C95.9862 191.936 96.2342 192.632 96.4582 193.256H96.5782C97.0262 191.848 97.4822 190.472 97.9462 189.128C98.4262 187.784 98.8342 186.664 99.1702 185.768C99.3942 185.64 99.6742 185.544 100.01 185.48C100.362 185.4 100.73 185.36 101.114 185.36C101.802 185.36 102.354 185.464 102.77 185.672C103.202 185.864 103.458 186.16 103.538 186.56C103.602 186.864 103.666 187.344 103.73 188C103.81 188.656 103.89 189.416 103.97 190.28C104.05 191.128 104.13 192.024 104.21 192.968C104.29 193.896 104.362 194.808 104.426 195.704C104.506 196.584 104.57 197.376 104.618 198.08C104.666 198.784 104.698 199.344 104.714 199.76C104.474 199.904 104.218 200.008 103.946 200.072C103.69 200.152 103.362 200.192 102.962 200.192C102.45 200.192 102.01 200.096 101.642 199.904C101.29 199.712 101.098 199.344 101.066 198.8C100.986 197.552 100.922 196.368 100.874 195.248C100.826 194.112 100.786 193.08 100.754 192.152C100.738 191.208 100.714 190.4 100.682 189.728H100.562C100.354 190.416 100.058 191.288 99.6742 192.344C99.3062 193.384 98.8422 194.728 98.2822 196.376ZM114.361 191.264V193.856H109.009V191.264H114.361ZM112.561 193.856L112.849 191.864C114.177 191.864 115.281 192.024 116.161 192.344C117.041 192.664 117.697 193.112 118.129 193.688C118.577 194.264 118.801 194.96 118.801 195.776C118.801 197.328 118.225 198.48 117.073 199.232C115.921 199.984 114.281 200.36 112.153 200.36C111.769 200.36 111.329 200.344 110.833 200.312C110.353 200.28 109.857 200.224 109.345 200.144C108.849 200.064 108.393 199.952 107.977 199.808C107.145 199.504 106.729 198.968 106.729 198.2V186.728C106.729 186.424 106.817 186.184 106.993 186.008C107.169 185.832 107.401 185.696 107.689 185.6C108.233 185.408 108.889 185.272 109.657 185.192C110.441 185.112 111.241 185.072 112.057 185.072C114.041 185.072 115.569 185.416 116.641 186.104C117.729 186.792 118.273 187.832 118.273 189.224C118.273 189.992 118.049 190.648 117.601 191.192C117.153 191.736 116.497 192.152 115.633 192.44C114.785 192.728 113.753 192.872 112.537 192.872L112.369 191.264C113.137 191.264 113.705 191.112 114.073 190.808C114.441 190.504 114.625 190.072 114.625 189.512C114.625 188.984 114.409 188.576 113.977 188.288C113.561 188 112.929 187.856 112.081 187.856C111.777 187.856 111.457 187.872 111.121 187.904C110.785 187.92 110.505 187.952 110.281 188V197.336C110.553 197.4 110.881 197.448 111.265 197.48C111.665 197.512 112.041 197.528 112.393 197.528C113.193 197.528 113.833 197.376 114.313 197.072C114.809 196.752 115.057 196.272 115.057 195.632C115.057 195.024 114.849 194.576 114.433 194.288C114.017 194 113.393 193.856 112.561 193.856ZM134.648 192.704C134.648 194.368 134.32 195.776 133.664 196.928C133.024 198.064 132.136 198.928 131 199.52C129.88 200.112 128.608 200.408 127.184 200.408C125.76 200.408 124.488 200.112 123.368 199.52C122.248 198.928 121.368 198.064 120.728 196.928C120.088 195.776 119.768 194.368 119.768 192.704C119.768 191.04 120.096 189.64 120.752 188.504C121.408 187.352 122.296 186.488 123.416 185.912C124.536 185.32 125.792 185.024 127.184 185.024C128.592 185.024 129.856 185.32 130.976 185.912C132.112 186.488 133.008 187.352 133.664 188.504C134.32 189.64 134.648 191.04 134.648 192.704ZM130.88 192.704C130.88 191.168 130.544 190 129.872 189.2C129.216 188.4 128.32 188 127.184 188C126.096 188 125.216 188.4 124.544 189.2C123.872 189.984 123.536 191.152 123.536 192.704C123.536 194.272 123.864 195.456 124.52 196.256C125.192 197.04 126.088 197.432 127.208 197.432C128.328 197.432 129.216 197.04 129.872 196.256C130.544 195.456 130.88 194.272 130.88 192.704ZM149.825 196.376C149.649 196.52 149.409 196.64 149.105 196.736C148.817 196.832 148.481 196.88 148.097 196.88C147.601 196.88 147.185 196.816 146.849 196.688C146.513 196.56 146.297 196.344 146.201 196.04C145.657 194.52 145.193 193.256 144.809 192.248C144.441 191.24 144.153 190.368 143.945 189.632H143.825C143.777 190.64 143.737 191.56 143.705 192.392C143.673 193.224 143.649 194.04 143.633 194.84C143.617 195.624 143.593 196.424 143.561 197.24C143.529 198.056 143.481 198.952 143.417 199.928C143.241 199.976 143.001 200.032 142.697 200.096C142.409 200.16 142.121 200.192 141.833 200.192C141.225 200.192 140.745 200.088 140.393 199.88C140.057 199.672 139.889 199.312 139.889 198.8C139.889 198.448 139.905 197.928 139.937 197.24C139.985 196.536 140.033 195.736 140.081 194.84C140.145 193.928 140.201 192.968 140.249 191.96C140.313 190.952 140.377 189.96 140.441 188.984C140.521 187.992 140.593 187.08 140.657 186.248C140.785 186.056 141.041 185.864 141.425 185.672C141.809 185.464 142.337 185.36 143.009 185.36C143.729 185.36 144.305 185.48 144.737 185.72C145.185 185.944 145.505 186.32 145.697 186.848C145.937 187.424 146.193 188.096 146.465 188.864C146.737 189.616 147.001 190.384 147.257 191.168C147.529 191.936 147.777 192.632 148.001 193.256H148.121C148.569 191.848 149.025 190.472 149.489 189.128C149.969 187.784 150.377 186.664 150.713 185.768C150.937 185.64 151.217 185.544 151.553 185.48C151.905 185.4 152.273 185.36 152.657 185.36C153.345 185.36 153.897 185.464 154.313 185.672C154.745 185.864 155.001 186.16 155.081 186.56C155.145 186.864 155.209 187.344 155.273 188C155.353 188.656 155.433 189.416 155.513 190.28C155.593 191.128 155.673 192.024 155.753 192.968C155.833 193.896 155.905 194.808 155.969 195.704C156.049 196.584 156.113 197.376 156.161 198.08C156.209 198.784 156.241 199.344 156.257 199.76C156.017 199.904 155.761 200.008 155.489 200.072C155.233 200.152 154.905 200.192 154.505 200.192C153.993 200.192 153.553 200.096 153.185 199.904C152.833 199.712 152.641 199.344 152.609 198.8C152.529 197.552 152.465 196.368 152.417 195.248C152.369 194.112 152.329 193.08 152.297 192.152C152.281 191.208 152.257 190.4 152.225 189.728H152.105C151.897 190.416 151.601 191.288 151.217 192.344C150.849 193.384 150.385 194.728 149.825 196.376ZM164.245 188.48H164.101C163.941 188.992 163.749 189.56 163.525 190.184C163.317 190.808 163.101 191.464 162.877 192.152C162.653 192.824 162.437 193.496 162.229 194.168L161.797 196.328C161.701 196.632 161.605 196.952 161.509 197.288C161.429 197.624 161.341 197.952 161.245 198.272C161.149 198.592 161.061 198.896 160.981 199.184C160.901 199.472 160.821 199.744 160.741 200C160.565 200.048 160.365 200.096 160.141 200.144C159.917 200.208 159.653 200.24 159.349 200.24C158.677 200.24 158.165 200.12 157.813 199.88C157.461 199.64 157.285 199.288 157.285 198.824C157.285 198.632 157.309 198.432 157.357 198.224C157.421 198.016 157.493 197.776 157.573 197.504C157.717 196.976 157.917 196.312 158.173 195.512C158.445 194.712 158.733 193.848 159.037 192.92C159.357 191.976 159.677 191.048 159.997 190.136C160.333 189.224 160.637 188.384 160.909 187.616C161.197 186.848 161.429 186.248 161.605 185.816C161.829 185.672 162.181 185.544 162.661 185.432C163.157 185.304 163.645 185.24 164.125 185.24C164.813 185.24 165.429 185.344 165.973 185.552C166.517 185.744 166.861 186.056 167.005 186.488C167.309 187.336 167.637 188.32 167.989 189.44C168.357 190.544 168.725 191.704 169.093 192.92C169.461 194.136 169.813 195.32 170.149 196.472C170.501 197.608 170.805 198.632 171.061 199.544C170.885 199.736 170.629 199.896 170.293 200.024C169.957 200.168 169.557 200.24 169.093 200.24C168.437 200.24 167.973 200.12 167.701 199.88C167.429 199.64 167.221 199.28 167.077 198.8L166.309 196.112L165.901 194.072C165.709 193.352 165.509 192.656 165.301 191.984C165.093 191.312 164.901 190.68 164.725 190.088C164.549 189.48 164.389 188.944 164.245 188.48ZM160.189 196.76L161.605 193.928H167.221L167.701 196.76H160.189ZM176.656 197.432C177.52 197.432 178.136 197.28 178.504 196.976C178.888 196.656 179.08 196.28 179.08 195.848C179.08 195.448 178.928 195.128 178.624 194.888C178.336 194.632 177.904 194.416 177.328 194.24L176.056 193.832C175.192 193.544 174.424 193.224 173.752 192.872C173.096 192.52 172.584 192.064 172.216 191.504C171.864 190.944 171.688 190.232 171.688 189.368C171.688 188.04 172.192 186.984 173.2 186.2C174.208 185.416 175.608 185.024 177.4 185.024C178.312 185.024 179.12 185.112 179.824 185.288C180.544 185.464 181.104 185.728 181.504 186.08C181.92 186.416 182.128 186.832 182.128 187.328C182.128 187.696 182.04 188.016 181.864 188.288C181.704 188.544 181.496 188.768 181.24 188.96C180.872 188.704 180.384 188.488 179.776 188.312C179.168 188.12 178.496 188.024 177.76 188.024C176.992 188.024 176.416 188.152 176.032 188.408C175.648 188.648 175.456 188.968 175.456 189.368C175.456 189.688 175.584 189.952 175.84 190.16C176.096 190.352 176.48 190.528 176.992 190.688L178.312 191.096C179.768 191.544 180.888 192.144 181.672 192.896C182.456 193.632 182.848 194.624 182.848 195.872C182.848 197.216 182.328 198.312 181.288 199.16C180.248 199.992 178.744 200.408 176.776 200.408C175.8 200.408 174.928 200.304 174.16 200.096C173.392 199.888 172.776 199.584 172.312 199.184C171.864 198.784 171.64 198.32 171.64 197.792C171.64 197.376 171.76 197.024 172 196.736C172.256 196.432 172.536 196.208 172.84 196.064C173.272 196.416 173.808 196.736 174.448 197.024C175.104 197.296 175.84 197.432 176.656 197.432ZM187.247 188.384L187.223 185.456H194.639C194.735 185.6 194.823 185.8 194.903 186.056C194.983 186.312 195.023 186.584 195.023 186.872C195.023 187.384 194.903 187.768 194.663 188.024C194.439 188.264 194.127 188.384 193.727 188.384H187.247ZM190.631 185.456L190.655 188.384H183.239C183.127 188.24 183.031 188.04 182.951 187.784C182.887 187.528 182.855 187.256 182.855 186.968C182.855 186.44 182.967 186.056 183.191 185.816C183.431 185.576 183.743 185.456 184.127 185.456H190.631ZM187.055 187.736H190.727V199.976C190.567 200.024 190.327 200.064 190.007 200.096C189.687 200.144 189.359 200.168 189.023 200.168C188.303 200.168 187.791 200.04 187.487 199.784C187.199 199.528 187.055 199.08 187.055 198.44V187.736ZM196.267 189.824H199.819V199.856C199.675 199.888 199.451 199.928 199.147 199.976C198.859 200.024 198.547 200.048 198.211 200.048C197.619 200.048 197.147 199.872 196.795 199.52C196.443 199.168 196.267 198.696 196.267 198.104V189.824ZM199.819 195.632H196.267V187.4C196.267 186.792 196.443 186.32 196.795 185.984C197.147 185.632 197.619 185.456 198.211 185.456C198.547 185.456 198.859 185.48 199.147 185.528C199.451 185.576 199.675 185.616 199.819 185.648V195.632ZM198.211 194.024V191.144H205.459C205.555 191.304 205.643 191.504 205.723 191.744C205.803 191.984 205.843 192.248 205.843 192.536C205.843 193.048 205.723 193.424 205.483 193.664C205.259 193.904 204.955 194.024 204.571 194.024H198.211ZM198.211 200.048V197.144H206.251C206.347 197.288 206.435 197.488 206.515 197.744C206.595 198 206.635 198.272 206.635 198.56C206.635 199.072 206.515 199.448 206.275 199.688C206.051 199.928 205.747 200.048 205.363 200.048H198.211ZM198.211 188.336V185.456H206.131C206.243 185.6 206.331 185.792 206.395 186.032C206.475 186.272 206.515 186.536 206.515 186.824C206.515 187.336 206.403 187.72 206.179 187.976C205.955 188.216 205.643 188.336 205.243 188.336H198.211ZM211.986 192.272H213.546C214.346 192.272 214.986 192.096 215.466 191.744C215.962 191.376 216.21 190.84 216.21 190.136C216.21 189.448 215.978 188.928 215.514 188.576C215.05 188.208 214.338 188.024 213.378 188.024C213.106 188.024 212.858 188.032 212.634 188.048C212.41 188.064 212.194 188.096 211.986 188.144V192.272ZM213.882 195.104H208.362V186.728C208.362 186.424 208.45 186.184 208.626 186.008C208.802 185.832 209.034 185.696 209.322 185.6C209.85 185.408 210.466 185.272 211.17 185.192C211.89 185.112 212.634 185.072 213.402 185.072C215.562 185.072 217.186 185.528 218.274 186.44C219.362 187.336 219.906 188.56 219.906 190.112C219.906 191.072 219.642 191.936 219.114 192.704C218.602 193.456 217.89 194.048 216.978 194.48C216.082 194.896 215.05 195.104 213.882 195.104ZM213.21 194.24L216.474 193.472C216.842 193.984 217.218 194.488 217.602 194.984C218.002 195.48 218.378 195.96 218.73 196.424C219.098 196.888 219.426 197.32 219.714 197.72C220.002 198.104 220.234 198.432 220.41 198.704C220.266 199.184 220.01 199.56 219.642 199.832C219.274 200.088 218.858 200.216 218.394 200.216C217.802 200.216 217.346 200.088 217.026 199.832C216.722 199.56 216.434 199.208 216.162 198.776L213.21 194.24ZM208.362 193.736H212.01V199.976C211.866 200.024 211.634 200.064 211.314 200.096C210.994 200.144 210.666 200.168 210.33 200.168C209.61 200.168 209.098 200.04 208.794 199.784C208.506 199.528 208.362 199.08 208.362 198.44V193.736Z" fill="black" fill-opacity="0.32" style="mix-blend-mode:darken"/>
</g>
<defs>
<filter id="filter0_ddd_538_2090" x="19.5664" y="30.7944" width="241.105" height="288.661" filterUnits="userSpaceOnUse" color-interpolation-filters="sRGB">
<feFlood flood-opacity="0" result="BackgroundImageFix"/>
<feColorMatrix in="SourceAlpha" type="matrix" values="0 0 0 0 0 0 0 0 0 0 0 0 0 0 0 0 0 0 127 0" result="hardAlpha"/>
<feOffset dy="5"/>
<feGaussianBlur stdDeviation="5.5"/>
<feColorMatrix type="matrix" values="0 0 0 0 0 0 0 0 0 0 0 0 0 0 0 0 0 0 0.24 0"/>
<feBlend mode="normal" in2="BackgroundImageFix" result="effect1_dropShadow_538_2090"/>
<feColorMatrix in="SourceAlpha" type="matrix" values="0 0 0 0 0 0 0 0 0 0 0 0 0 0 0 0 0 0 127 0" result="hardAlpha"/>
<feOffset dy="21"/>
<feGaussianBlur stdDeviation="10.5"/>
<feColorMatrix type="matrix" values="0 0 0 0 0 0 0 0 0 0 0 0 0 0 0 0 0 0 0.21 0"/>
<feBlend mode="normal" in2="effect1_dropShadow_538_2090" result="effect2_dropShadow_538_2090"/>
<feColorMatrix in="SourceAlpha" type="matrix" values="0 0 0 0 0 0 0 0 0 0 0 0 0 0 0 0 0 0 127 0" result="hardAlpha"/>
<feOffset dy="46"/>
<feGaussianBlur stdDeviation="14"/>
<feColorMatrix type="matrix" values="0 0 0 0 0 0 0 0 0 0 0 0 0 0 0 0 0 0 0.12 0"/>
<feBlend mode="normal" in2="effect2_dropShadow_538_2090" result="effect3_dropShadow_538_2090"/>
<feBlend mode="normal" in="SourceGraphic" in2="effect3_dropShadow_538_2090" result="shape"/>
</filter>
<filter id="filter1_d_538_2090" x="39.5664" y="30.7944" width="201.106" height="224.661" filterUnits="userSpaceOnUse" color-interpolation-filters="sRGB">
<feFlood flood-opacity="0" result="BackgroundImageFix"/>
<feColorMatrix in="SourceAlpha" type="matrix" values="0 0 0 0 0 0 0 0 0 0 0 0 0 0 0 0 0 0 127 0" result="hardAlpha"/>
<feOffset dy="2"/>
<feGaussianBlur stdDeviation="4"/>
<feColorMatrix type="matrix" values="0 0 0 0 0 0 0 0 0 0 0 0 0 0 0 0 0 0 0.16 0"/>
<feBlend mode="color-burn" in2="BackgroundImageFix" result="effect1_dropShadow_538_2090"/>
<feBlend mode="normal" in="SourceGraphic" in2="effect1_dropShadow_538_2090" result="shape"/>
</filter>
<filter id="filter2_d_538_2090" x="95.665" y="73.9153" width="88.6699" height="112.17" filterUnits="userSpaceOnUse" color-interpolation-filters="sRGB">
<feFlood flood-opacity="0" result="BackgroundImageFix"/>
<feColorMatrix in="SourceAlpha" type="matrix" values="0 0 0 0 0 0 0 0 0 0 0 0 0 0 0 0 0 0 127 0" result="hardAlpha"/>
<feOffset dy="2"/>
<feGaussianBlur stdDeviation="6"/>
<feColorMatrix type="matrix" values="0 0 0 0 0 0 0 0 0 0 0 0 0 0 0 0 0 0 0.12 0"/>
<feBlend mode="plus-darker" in2="BackgroundImageFix" result="effect1_dropShadow_538_2090"/>
<feBlend mode="normal" in="SourceGraphic" in2="effect1_dropShadow_538_2090" result="shape"/>
</filter>
<filter id="filter3_dd_538_2090" x="24" y="174" width="231.712" height="70" filterUnits="userSpaceOnUse" color-interpolation-filters="sRGB">
<feFlood flood-opacity="0" result="BackgroundImageFix"/>
<feColorMatrix in="SourceAlpha" type="matrix" values="0 0 0 0 0 0 0 0 0 0 0 0 0 0 0 0 0 0 127 0" result="hardAlpha"/>
<feOffset dy="4"/>
<feGaussianBlur stdDeviation="6"/>
<feColorMatrix type="matrix" values="0 0 0 0 0 0 0 0 0 0 0 0 0 0 0 0 0 0 0.16 0"/>
<feBlend mode="normal" in2="BackgroundImageFix" result="effect1_dropShadow_538_2090"/>
<feColorMatrix in="SourceAlpha" type="matrix" values="0 0 0 0 0 0 0 0 0 0 0 0 0 0 0 0 0 0 127 0" result="hardAlpha"/>
<feOffset dy="2"/>
<feGaussianBlur stdDeviation="2"/>
<feColorMatrix type="matrix" values="0 0 0 0 0 0 0 0 0 0 0 0 0 0 0 0 0 0 0.24 0"/>
<feBlend mode="normal" in2="effect1_dropShadow_538_2090" result="effect2_dropShadow_538_2090"/>
<feBlend mode="normal" in="SourceGraphic" in2="effect2_dropShadow_538_2090" result="shape"/>
</filter>
<filter id="filter4_dd_538_2090" x="24" y="162" width="232" height="70" filterUnits="userSpaceOnUse" color-interpolation-filters="sRGB">
<feFlood flood-opacity="0" result="BackgroundImageFix"/>
<feColorMatrix in="SourceAlpha" type="matrix" values="0 0 0 0 0 0 0 0 0 0 0 0 0 0 0 0 0 0 127 0" result="hardAlpha"/>
<feOffset dy="4"/>
<feGaussianBlur stdDeviation="6"/>
<feColorMatrix type="matrix" values="0 0 0 0 0 0 0 0 0 0 0 0 0 0 0 0 0 0 0.16 0"/>
<feBlend mode="normal" in2="BackgroundImageFix" result="effect1_dropShadow_538_2090"/>
<feColorMatrix in="SourceAlpha" type="matrix" values="0 0 0 0 0 0 0 0 0 0 0 0 0 0 0 0 0 0 127 0" result="hardAlpha"/>
<feOffset dy="2"/>
<feGaussianBlur stdDeviation="2"/>
<feColorMatrix type="matrix" values="0 0 0 0 0 0 0 0 0 0 0 0 0 0 0 0 0 0 0.24 0"/>
<feBlend mode="normal" in2="effect1_dropShadow_538_2090" result="effect2_dropShadow_538_2090"/>
<feBlend mode="normal" in="SourceGraphic" in2="effect2_dropShadow_538_2090" result="shape"/>
</filter>
<filter id="filter5_i_538_2090" x="43.856" y="190" width="6" height="7" filterUnits="userSpaceOnUse" color-interpolation-filters="sRGB">
<feFlood flood-opacity="0" result="BackgroundImageFix"/>
<feBlend mode="normal" in="SourceGraphic" in2="BackgroundImageFix" result="shape"/>
<feColorMatrix in="SourceAlpha" type="matrix" values="0 0 0 0 0 0 0 0 0 0 0 0 0 0 0 0 0 0 127 0" result="hardAlpha"/>
<feOffset dy="1"/>
<feGaussianBlur stdDeviation="1"/>
<feComposite in2="hardAlpha" operator="arithmetic" k2="-1" k3="1"/>
<feColorMatrix type="matrix" values="0 0 0 0 0 0 0 0 0 0 0 0 0 0 0 0 0 0 0.24 0"/>
<feBlend mode="darken" in2="shape" result="effect1_innerShadow_538_2090"/>
</filter>
<filter id="filter6_i_538_2090" x="229.856" y="190" width="6" height="7" filterUnits="userSpaceOnUse" color-interpolation-filters="sRGB">
<feFlood flood-opacity="0" result="BackgroundImageFix"/>
<feBlend mode="normal" in="SourceGraphic" in2="BackgroundImageFix" result="shape"/>
<feColorMatrix in="SourceAlpha" type="matrix" values="0 0 0 0 0 0 0 0 0 0 0 0 0 0 0 0 0 0 127 0" result="hardAlpha"/>
<feOffset dy="1"/>
<feGaussianBlur stdDeviation="1"/>
<feComposite in2="hardAlpha" operator="arithmetic" k2="-1" k3="1"/>
<feColorMatrix type="matrix" values="0 0 0 0 0 0 0 0 0 0 0 0 0 0 0 0 0 0 0.24 0"/>
<feBlend mode="darken" in2="shape" result="effect1_innerShadow_538_2090"/>
</filter>
<filter id="filter7_i_538_2090" x="59.5298" y="185.024" width="160.88" height="16.3839" filterUnits="userSpaceOnUse" color-interpolation-filters="sRGB">
<feFlood flood-opacity="0" result="BackgroundImageFix"/>
<feBlend mode="normal" in="SourceGraphic" in2="BackgroundImageFix" result="shape"/>
<feColorMatrix in="SourceAlpha" type="matrix" values="0 0 0 0 0 0 0 0 0 0 0 0 0 0 0 0 0 0 127 0" result="hardAlpha"/>
<feOffset dy="1"/>
<feGaussianBlur stdDeviation="1"/>
<feComposite in2="hardAlpha" operator="arithmetic" k2="-1" k3="1"/>
<feColorMatrix type="matrix" values="0 0 0 0 0 0 0 0 0 0 0 0 0 0 0 0 0 0 0.24 0"/>
<feBlend mode="darken" in2="shape" result="effect1_innerShadow_538_2090"/>
</filter>
<linearGradient id="paint0_linear_538_2090" x1="140" y1="31.7284" x2="140" y2="246.82" gradientUnits="userSpaceOnUse">
<stop stop-color="white"/>
<stop offset="1" stop-color="white" stop-opacity="0"/>
</linearGradient>
<radialGradient id="paint1_radial_538_2090" cx="0" cy="0" r="1" gradientUnits="userSpaceOnUse" gradientTransform="translate(140 93.51) rotate(90) scale(141.869 107.639)">
<stop stop-color="white"/>
<stop offset="1" stop-color="white" stop-opacity="0"/>
</radialGradient>
<linearGradient id="paint2_linear_538_2090" x1="232.12" y1="40.6237" x2="232.12" y2="245.588" gradientUnits="userSpaceOnUse">
<stop stop-color="#49F0BC"/>
<stop offset="1" stop-color="#29DCCC"/>
</linearGradient>
<linearGradient id="paint3_linear_538_2090" x1="139" y1="31.7284" x2="139" y2="246.82" gradientUnits="userSpaceOnUse">
<stop stop-color="white"/>
<stop offset="1" stop-color="white" stop-opacity="0"/>
</linearGradient>
<radialGradient id="paint4_radial_538_2090" cx="0" cy="0" r="1" gradientUnits="userSpaceOnUse" gradientTransform="translate(139 93.51) rotate(90) scale(141.869 107.639)">
<stop stop-color="white"/>
<stop offset="1" stop-color="white" stop-opacity="0"/>
</radialGradient>
<linearGradient id="paint5_linear_538_2090" x1="0" y1="0" x2="0" y2="280" gradientUnits="userSpaceOnUse">
<stop stop-color="white"/>
<stop offset="1" stop-color="white" stop-opacity="0.01"/>
</linearGradient>
<linearGradient id="paint6_linear_538_2090" x1="140.119" y1="36.7944" x2="140.119" y2="245.456" gradientUnits="userSpaceOnUse">
<stop stop-color="white"/>
<stop offset="1" stop-color="#999999"/>
</linearGradient>
<linearGradient id="paint7_linear_538_2090" x1="140" y1="84.417" x2="140" y2="171.584" gradientUnits="userSpaceOnUse">
<stop stop-color="#DFDFDF"/>
<stop offset="1" stop-color="#A9A9A9"/>
</linearGradient>
<linearGradient id="paint8_linear_538_2090" x1="139.856" y1="182" x2="139.856" y2="228" gradientUnits="userSpaceOnUse">
<stop stop-opacity="0"/>
<stop offset="1" stop-opacity="0.16"/>
</linearGradient>
<linearGradient id="paint9_linear_538_2090" x1="140" y1="170" x2="140" y2="216" gradientUnits="userSpaceOnUse">
<stop stop-opacity="0"/>
<stop offset="1" stop-opacity="0.16"/>
</linearGradient>
<linearGradient id="paint10_linear_538_2090" x1="139.856" y1="170" x2="139.856" y2="216" gradientUnits="userSpaceOnUse">
<stop stop-color="white"/>
<stop offset="1" stop-color="white" stop-opacity="0"/>
</linearGradient>
<radialGradient id="paint11_radial_538_2090" cx="0" cy="0" r="1" gradientUnits="userSpaceOnUse" gradientTransform="translate(139.856 178.027) rotate(90) scale(37.9729 88)">
<stop stop-color="white"/>
<stop offset="1" stop-color="white" stop-opacity="0"/>
</radialGradient>
</defs>
</svg>



