<svg width="280" height="320" viewBox="0 0 280 320" fill="none" xmlns="http://www.w3.org/2000/svg">
<g filter="url(#filter0_ddd_539_2302)">
<path d="M47.7258 98.3522C47.4773 91.5339 47.3531 88.1247 48.6567 84.4937C49.7748 81.3793 51.8313 78.3654 54.3234 76.1886C57.2291 73.6507 61.4485 72.1731 69.8875 69.2179C87.8437 62.9299 105.167 54.497 121.5 44.6987C128.923 40.2451 132.635 38.0183 135.83 37.3168C139.002 36.6203 141.237 36.6203 144.408 37.3168C147.603 38.0183 151.315 40.2451 158.739 44.6987C175.072 54.497 192.395 62.9299 210.351 69.2179C218.79 72.1731 223.009 73.6507 225.915 76.1886C228.407 78.3654 230.463 81.3793 231.582 84.4937C232.885 88.1247 232.761 91.5339 232.512 98.3522C231.805 117.756 228.303 146.593 215.502 172.621C198.622 206.945 170.429 229.459 153.722 240.549C150.054 242.984 148.22 244.201 144.765 245.027C142.369 245.599 137.869 245.599 135.474 245.027C132.018 244.201 130.184 242.984 126.516 240.549C109.81 229.459 81.6164 206.945 64.736 172.621C51.9354 146.593 48.433 117.756 47.7258 98.3522Z" fill="black"/>
</g>
<mask id="mask0_539_2302" style="mask-type:alpha" maskUnits="userSpaceOnUse" x="47" y="36" width="186" height="210">
<path d="M47.7258 98.3522C47.4773 91.5339 47.3531 88.1247 48.6567 84.4937C49.7748 81.3793 51.8313 78.3654 54.3234 76.1886C57.2291 73.6507 61.4485 72.1731 69.8875 69.2179C87.8437 62.9299 105.167 54.497 121.5 44.6987C128.923 40.2451 132.635 38.0183 135.83 37.3168C139.002 36.6203 141.237 36.6203 144.408 37.3168C147.603 38.0183 151.315 40.2451 158.739 44.6987C175.072 54.497 192.395 62.9299 210.351 69.2179C218.79 72.1731 223.009 73.6507 225.915 76.1886C228.407 78.3654 230.463 81.3793 231.582 84.4937C232.885 88.1247 232.761 91.5339 232.512 98.3522C231.805 117.756 228.303 146.593 215.502 172.621C198.622 206.945 170.429 229.459 153.722 240.549C150.054 242.984 148.22 244.201 144.765 245.027C142.369 245.599 137.869 245.599 135.474 245.027C132.018 244.201 130.184 242.984 126.516 240.549C109.81 229.459 81.6164 206.945 64.736 172.621C51.9354 146.593 48.433 117.756 47.7258 98.3522Z" fill="black"/>
</mask>
<g mask="url(#mask0_539_2302)">
<mask id="mask1_539_2302" style="mask-type:alpha" maskUnits="userSpaceOnUse" x="47" y="36" width="186" height="210">
<path d="M47.7258 98.3522C47.4773 91.5339 47.3531 88.1247 48.6567 84.4937C49.7748 81.3793 51.8313 78.3654 54.3234 76.1886C57.2291 73.6507 61.4485 72.1731 69.8875 69.2179C87.8437 62.9299 105.167 54.497 121.5 44.6987C128.923 40.2451 132.635 38.0183 135.83 37.3168C139.002 36.6203 141.237 36.6203 144.408 37.3168C147.603 38.0183 151.315 40.2451 158.739 44.6987C175.072 54.497 192.395 62.9299 210.351 69.2179C218.79 72.1731 223.009 73.6507 225.915 76.1886C228.407 78.3654 230.463 81.3793 231.582 84.4937C232.885 88.1247 232.761 91.5339 232.512 98.3522C231.805 117.756 228.303 146.593 215.502 172.621C198.622 206.945 170.429 229.459 153.722 240.549C150.054 242.984 148.22 244.201 144.765 245.027C142.369 245.599 137.869 245.599 135.474 245.027C132.018 244.201 130.184 242.984 126.516 240.549C109.81 229.459 81.6164 206.945 64.736 172.621C51.9354 146.593 48.433 117.756 47.7258 98.3522Z" fill="black"/>
</mask>
<g mask="url(#mask1_539_2302)">
<rect width="280" height="280" fill="#EB4D48"/>
<rect width="280" height="280" fill="url(#paint0_linear_539_2302)" fill-opacity="0.6" style="mix-blend-mode:overlay"/>
<rect width="280" height="280" fill="url(#paint1_radial_539_2302)" fill-opacity="0.6" style="mix-blend-mode:overlay"/>
<rect width="280" height="280" fill="black" fill-opacity="0.16" style="mix-blend-mode:overlay"/>
<rect width="280" height="280" fill="black" fill-opacity="0.12" style="mix-blend-mode:darken"/>
</g>
<g filter="url(#filter1_d_539_2302)">
<mask id="mask2_539_2302" style="mask-type:alpha" maskUnits="userSpaceOnUse" x="47" y="36" width="186" height="210">
<path d="M135.83 37.3167C139.002 36.6203 141.237 36.6203 144.408 37.3167C147.603 38.0182 151.315 40.2451 158.739 44.6986C175.071 54.4969 192.395 62.9301 210.351 69.2181C218.79 72.1733 223.01 73.6509 225.915 76.1888C228.407 78.3656 230.464 81.3793 231.582 84.4935C232.886 88.1245 232.761 91.5338 232.513 98.3519L232.438 100.199C231.577 119.555 227.903 147.407 215.502 172.621L214.703 174.221C197.744 207.645 170.168 229.632 153.722 240.549C150.054 242.984 148.221 244.201 144.765 245.027L144.292 245.127C141.98 245.565 138.259 245.565 135.947 245.127L135.474 245.027C132.45 244.305 130.668 243.282 127.813 241.407L126.517 240.549C110.071 229.632 82.4945 207.645 65.5354 174.221L64.7366 172.621C51.9359 146.593 48.433 117.756 47.7258 98.3519C47.4773 91.5338 47.3529 88.1245 48.6565 84.4935C49.7047 81.5737 51.578 78.7419 53.8616 76.6058L54.3235 76.1888C56.8659 73.9681 60.4146 72.5593 66.9153 70.262L69.8879 69.2181C87.2832 63.1266 104.084 55.0215 119.966 45.6126L121.5 44.6986C128.691 40.3845 132.399 38.1597 135.529 37.387L135.83 37.3167ZM142.693 45.1302C140.651 44.6821 139.587 44.6821 137.546 45.1302C137.011 45.2476 136.042 45.5797 134.011 46.6615C131.978 47.744 129.399 49.2889 125.615 51.5589C108.886 61.5949 91.0717 70.2754 72.5315 76.7679C68.2113 78.2808 65.3421 79.2905 63.1721 80.2171C61.0712 81.1143 60.1453 81.7249 59.5862 82.2132C58.1202 83.4937 56.8445 85.3647 56.1868 87.1966C55.5115 89.0774 55.4553 90.7725 55.7209 98.0609C56.4095 116.953 59.8253 144.507 71.9153 169.09C87.9039 201.6 114.779 223.155 130.941 233.884C134.649 236.346 135.416 236.788 137.332 237.245C137.667 237.325 138.69 237.455 140.119 237.455C141.549 237.455 142.572 237.325 142.906 237.245C144.823 236.788 145.59 236.346 149.298 233.884C165.46 223.155 192.335 201.6 208.323 169.09C220.413 144.507 223.829 116.953 224.518 98.0609C224.783 90.7725 224.727 89.0774 224.052 87.1966C223.394 85.3647 222.119 83.4937 220.653 82.2132C220.093 81.7249 219.168 81.1143 217.067 80.2171C214.897 79.2905 212.027 78.2808 207.707 76.7679C189.167 70.2754 171.352 61.5949 154.623 51.5589C150.839 49.2889 148.26 47.744 146.228 46.6615C144.197 45.5797 143.227 45.2476 142.693 45.1302ZM139.292 62.2562C139.834 62.1417 140.405 62.1417 140.947 62.2562C141.563 62.3864 142.136 62.7154 143.281 63.3724C153.768 69.3851 164.144 75.4839 175.113 80.6527C184.647 85.1455 194.499 88.8211 204.363 92.4925C205.9 93.0648 206.669 93.3514 207.237 93.8636C207.73 94.3088 208.12 94.8977 208.337 95.5257C208.587 96.2484 208.552 97.05 208.48 98.6527C207.505 120.384 203.613 142.415 193.966 162.03C182.725 184.885 164.435 203.892 143.631 218.384C142.41 219.235 141.8 219.66 141.083 219.838C140.474 219.99 139.765 219.989 139.156 219.838C138.439 219.66 137.828 219.235 136.607 218.384C115.803 203.892 97.5132 184.885 86.2727 162.03C76.6261 142.415 72.7338 120.384 71.759 98.6527C71.6872 97.0502 71.6507 96.2484 71.9006 95.5257C72.1178 94.8978 72.508 94.3088 73.0012 93.8636C73.569 93.3513 74.3386 93.0648 75.8762 92.4925C85.7445 88.8198 95.5676 85.1572 105.126 80.6527C116.094 75.4839 126.47 69.3851 136.956 63.3724C138.103 62.7152 138.676 62.3864 139.292 62.2562Z" fill="url(#paint2_linear_539_2302)"/>
</mask>
<g mask="url(#mask2_539_2302)">
<rect x="-0.000488281" width="280" height="280" fill="#EB4D48"/>
<rect x="-1" width="280" height="280" fill="url(#paint3_linear_539_2302)" fill-opacity="0.6" style="mix-blend-mode:overlay"/>
<rect x="-1" width="280" height="280" fill="url(#paint4_radial_539_2302)" fill-opacity="0.6" style="mix-blend-mode:overlay"/>
<g style="mix-blend-mode:soft-light">
<path fill-rule="evenodd" clip-rule="evenodd" d="M0 0H140V280H0V0Z" fill="url(#paint5_linear_539_2302)" style="mix-blend-mode:lighten"/>
</g>
</g>
</g>
<g filter="url(#filter2_d_539_2302)">
<path fill-rule="evenodd" clip-rule="evenodd" d="M171.466 96.2132C162.332 87.0793 144.51 91.1569 132.771 102.896C130.726 104.941 128.532 107.529 126.753 110.003C121.338 108.321 116.502 108.751 113.098 112.155C110.376 114.877 109.578 118.677 110.258 122.864L110.672 125.413C110.8 126.197 111.414 126.811 112.198 126.939L114.747 127.353C118.763 128.006 124.896 131.719 130.428 137.251C135.96 142.783 139.674 148.916 140.327 152.932L140.741 155.481C140.868 156.265 141.483 156.88 142.267 157.007L144.816 157.421C149.002 158.102 152.802 157.304 155.524 154.582C158.928 151.177 159.359 146.341 157.677 140.926C160.15 139.147 162.738 136.954 164.784 134.909C176.522 123.17 180.6 105.347 171.466 96.2132ZM110.567 135.9C112.164 134.302 114.754 134.302 116.352 135.9C117.95 137.497 117.95 140.088 116.352 141.685L112.43 145.607C110.832 147.205 108.242 147.205 106.644 145.607C105.047 144.01 105.047 141.42 106.644 139.822L110.567 135.9ZM124.066 143.614C122.468 142.016 119.878 142.016 118.28 143.614L108.534 153.36C106.936 154.958 106.936 157.548 108.534 159.146C110.131 160.743 112.722 160.743 114.319 159.146L124.066 149.399C125.663 147.801 125.664 145.211 124.066 143.614ZM131.78 151.328C130.182 149.73 127.592 149.73 125.994 151.328L122.072 155.25C120.475 156.847 120.475 159.437 122.072 161.035C123.67 162.633 126.26 162.633 127.858 161.035L131.78 157.113C133.377 155.515 133.377 152.925 131.78 151.328Z" fill="white"/>
</g>
</g>
<g filter="url(#filter3_dd_539_2302)">
<mask id="path-12-inside-1_539_2302" fill="white">
<path d="M60.3717 182C64.8519 182 67.0921 182 68.8034 182.872C70.3086 183.639 71.5325 184.863 72.2995 186.368C73.1714 188.079 73.1715 190.32 73.1715 194.8V215.2C73.1715 219.68 73.1714 221.921 72.2995 223.632C71.5325 225.137 70.3086 226.361 68.8034 227.128C67.0921 228 64.8519 228 60.3717 228H43.6491C40.3833 228 38.7499 228 37.734 227.312C36.8463 226.711 36.2368 225.779 36.0426 224.725C35.8205 223.518 36.4758 222.022 37.7868 219.031L43.9372 205L37.7868 190.969C36.4758 187.978 35.8205 186.482 36.0426 185.275C36.2368 184.221 36.8463 183.289 37.734 182.688C38.7499 182 40.3833 182 43.6491 182H60.3717ZM236.063 182C239.329 182 240.962 182 241.978 182.688C242.866 183.289 243.475 184.221 243.67 185.275C243.892 186.482 243.236 187.978 241.924 190.969L235.775 205L241.924 219.031C243.236 222.022 243.892 223.518 243.67 224.725C243.475 225.779 242.866 226.711 241.978 227.312C240.962 228 239.329 228 236.063 228H219.34C214.86 228 212.62 228 210.909 227.128C209.404 226.361 208.18 225.137 207.413 223.632C206.541 221.921 206.541 219.68 206.541 215.2V194.8C206.541 190.32 206.541 188.079 207.413 186.368C208.18 184.863 209.404 183.639 210.909 182.872C212.62 182 214.86 182 219.34 182H236.063Z"/>
</mask>
<path d="M60.3717 182C64.8519 182 67.0921 182 68.8034 182.872C70.3086 183.639 71.5325 184.863 72.2995 186.368C73.1714 188.079 73.1715 190.32 73.1715 194.8V215.2C73.1715 219.68 73.1714 221.921 72.2995 223.632C71.5325 225.137 70.3086 226.361 68.8034 227.128C67.0921 228 64.8519 228 60.3717 228H43.6491C40.3833 228 38.7499 228 37.734 227.312C36.8463 226.711 36.2368 225.779 36.0426 224.725C35.8205 223.518 36.4758 222.022 37.7868 219.031L43.9372 205L37.7868 190.969C36.4758 187.978 35.8205 186.482 36.0426 185.275C36.2368 184.221 36.8463 183.289 37.734 182.688C38.7499 182 40.3833 182 43.6491 182H60.3717ZM236.063 182C239.329 182 240.962 182 241.978 182.688C242.866 183.289 243.475 184.221 243.67 185.275C243.892 186.482 243.236 187.978 241.924 190.969L235.775 205L241.924 219.031C243.236 222.022 243.892 223.518 243.67 224.725C243.475 225.779 242.866 226.711 241.978 227.312C240.962 228 239.329 228 236.063 228H219.34C214.86 228 212.62 228 210.909 227.128C209.404 226.361 208.18 225.137 207.413 223.632C206.541 221.921 206.541 219.68 206.541 215.2V194.8C206.541 190.32 206.541 188.079 207.413 186.368C208.18 184.863 209.404 183.639 210.909 182.872C212.62 182 214.86 182 219.34 182H236.063Z" fill="#F5F0F0"/>
<path d="M60.3717 182V181.5V182ZM68.8034 182.872L69.0304 182.427L69.0304 182.427L68.8034 182.872ZM72.2995 186.368L72.745 186.141V186.141L72.2995 186.368ZM73.1715 194.8H73.6715H73.1715ZM73.1715 215.2H73.6715H73.1715ZM72.2995 223.632L72.745 223.859V223.859L72.2995 223.632ZM68.8034 227.128L69.0304 227.573L69.0304 227.573L68.8034 227.128ZM60.3717 228V228.5V228ZM37.734 227.312L37.4537 227.727L37.4538 227.727L37.734 227.312ZM36.0426 224.725L35.5509 224.815L35.5509 224.815L36.0426 224.725ZM37.7868 219.031L37.3288 218.831L37.3288 218.831L37.7868 219.031ZM43.9372 205L44.3951 205.201L44.4831 205L44.3951 204.799L43.9372 205ZM37.7868 190.969L37.3288 191.169L37.3288 191.169L37.7868 190.969ZM36.0426 185.275L35.5509 185.185L35.5509 185.185L36.0426 185.275ZM37.734 182.688L37.4538 182.273L37.4537 182.273L37.734 182.688ZM236.063 182V181.5V182ZM241.978 182.688L242.259 182.273L242.258 182.273L241.978 182.688ZM243.67 185.275L244.161 185.185V185.185L243.67 185.275ZM241.924 190.969L241.467 190.768V190.768L241.924 190.969ZM235.775 205L235.317 204.799L235.229 205L235.317 205.201L235.775 205ZM241.924 219.031L241.467 219.232V219.232L241.924 219.031ZM243.67 224.725L244.161 224.815V224.815L243.67 224.725ZM241.978 227.312L242.258 227.727L242.259 227.727L241.978 227.312ZM236.063 228V228.5V228ZM210.909 227.128L210.682 227.573L210.682 227.573L210.909 227.128ZM207.413 223.632L206.967 223.859V223.859L207.413 223.632ZM206.541 215.2H206.041H206.541ZM206.541 194.8H206.041H206.541ZM207.413 186.368L206.967 186.141V186.141L207.413 186.368ZM210.909 182.872L210.682 182.427L210.682 182.427L210.909 182.872ZM60.3717 182V182.5C62.6201 182.5 64.2763 182.5 65.5852 182.607C66.8882 182.714 67.803 182.924 68.5764 183.318L68.8034 182.872L69.0304 182.427C68.0925 181.949 67.0315 181.722 65.6666 181.611C64.3076 181.5 62.6036 181.5 60.3717 181.5V182ZM68.8034 182.872L68.5764 183.318C69.9876 184.037 71.1349 185.184 71.854 186.595L72.2995 186.368L72.745 186.141C71.9301 184.542 70.6297 183.241 69.0304 182.427L68.8034 182.872ZM72.2995 186.368L71.854 186.595C72.248 187.369 72.4576 188.283 72.5641 189.586C72.6711 190.895 72.6715 192.551 72.6715 194.8H73.1715H73.6715C73.6715 192.568 73.6719 190.864 73.5608 189.505C73.4492 188.14 73.2228 187.079 72.745 186.141L72.2995 186.368ZM73.1715 194.8H72.6715V215.2H73.1715H73.6715V194.8H73.1715ZM73.1715 215.2H72.6715C72.6715 217.449 72.6711 219.105 72.5641 220.414C72.4576 221.717 72.248 222.631 71.854 223.405L72.2995 223.632L72.745 223.859C73.2228 222.921 73.4492 221.86 73.5608 220.495C73.6719 219.136 73.6715 217.432 73.6715 215.2H73.1715ZM72.2995 223.632L71.854 223.405C71.1349 224.816 69.9876 225.963 68.5764 226.682L68.8034 227.128L69.0304 227.573C70.6297 226.759 71.9301 225.458 72.745 223.859L72.2995 223.632ZM68.8034 227.128L68.5764 226.682C67.803 227.076 66.8882 227.286 65.5852 227.393C64.2763 227.5 62.6201 227.5 60.3717 227.5V228V228.5C62.6036 228.5 64.3076 228.5 65.6666 228.389C67.0315 228.278 68.0925 228.051 69.0304 227.573L68.8034 227.128ZM60.3717 228V227.5H43.6491V228V228.5H60.3717V228ZM43.6491 228V227.5C42.0065 227.5 40.8087 227.5 39.8932 227.416C38.9782 227.333 38.4173 227.171 38.0143 226.898L37.734 227.312L37.4538 227.727C38.0666 228.141 38.8303 228.324 39.8025 228.412C40.7741 228.501 42.0258 228.5 43.6491 228.5V228ZM37.734 227.312L38.0144 226.898C37.2376 226.373 36.7043 225.557 36.5344 224.634L36.0426 224.725L35.5509 224.815C35.7694 226.001 36.455 227.05 37.4537 227.727L37.734 227.312ZM36.0426 224.725L36.5344 224.634C36.4462 224.155 36.5233 223.577 36.8141 222.705C37.1051 221.834 37.5854 220.736 38.2447 219.232L37.7868 219.031L37.3288 218.831C36.6772 220.317 36.1744 221.463 35.8655 222.389C35.5565 223.315 35.4169 224.087 35.5509 224.815L36.0426 224.725ZM37.7868 219.031L38.2447 219.232L44.3951 205.201L43.9372 205L43.4792 204.799L37.3288 218.831L37.7868 219.031ZM43.9372 205L44.3951 204.799L38.2447 190.768L37.7868 190.969L37.3288 191.169L43.4792 205.201L43.9372 205ZM37.7868 190.969L38.2447 190.768C37.5854 189.264 37.1051 188.166 36.8141 187.295C36.5233 186.423 36.4462 185.845 36.5344 185.366L36.0426 185.275L35.5509 185.185C35.4169 185.913 35.5565 186.685 35.8655 187.611C36.1744 188.537 36.6772 189.683 37.3288 191.169L37.7868 190.969ZM36.0426 185.275L36.5344 185.366C36.7043 184.443 37.2376 183.627 38.0144 183.102L37.734 182.688L37.4537 182.273C36.455 182.95 35.7694 183.999 35.5509 185.185L36.0426 185.275ZM37.734 182.688L38.0143 183.102C38.4173 182.829 38.9782 182.667 39.8932 182.584C40.8087 182.5 42.0065 182.5 43.6491 182.5V182V181.5C42.0258 181.5 40.7741 181.499 39.8025 181.588C38.8303 181.676 38.0666 181.859 37.4538 182.273L37.734 182.688ZM43.6491 182V182.5H60.3717V182V181.5H43.6491V182ZM236.063 182V182.5C237.706 182.5 238.904 182.5 239.819 182.584C240.734 182.667 241.295 182.829 241.698 183.102L241.978 182.688L242.258 182.273C241.646 181.859 240.882 181.676 239.91 181.588C238.938 181.499 237.686 181.5 236.063 181.5V182ZM241.978 182.688L241.698 183.102C242.475 183.627 243.008 184.443 243.178 185.366L243.67 185.275L244.161 185.185C243.943 183.999 243.257 182.95 242.259 182.273L241.978 182.688ZM243.67 185.275L243.178 185.366C243.266 185.844 243.189 186.423 242.898 187.294C242.606 188.166 242.126 189.264 241.467 190.768L241.924 190.969L242.382 191.169C243.034 189.683 243.537 188.537 243.846 187.611C244.155 186.685 244.295 185.913 244.161 185.185L243.67 185.275ZM241.924 190.969L241.467 190.768L235.317 204.799L235.775 205L236.233 205.201L242.382 191.169L241.924 190.969ZM235.775 205L235.317 205.201L241.467 219.232L241.924 219.031L242.382 218.831L236.233 204.799L235.775 205ZM241.924 219.031L241.467 219.232C242.126 220.736 242.606 221.834 242.898 222.706C243.189 223.577 243.266 224.156 243.178 224.634L243.67 224.725L244.161 224.815C244.295 224.087 244.155 223.315 243.846 222.389C243.537 221.463 243.034 220.317 242.382 218.831L241.924 219.031ZM243.67 224.725L243.178 224.634C243.008 225.557 242.475 226.373 241.698 226.898L241.978 227.312L242.259 227.727C243.257 227.05 243.943 226.001 244.161 224.815L243.67 224.725ZM241.978 227.312L241.698 226.898C241.295 227.171 240.734 227.333 239.819 227.416C238.904 227.5 237.706 227.5 236.063 227.5V228V228.5C237.686 228.5 238.938 228.501 239.91 228.412C240.882 228.324 241.646 228.141 242.258 227.727L241.978 227.312ZM236.063 228V227.5H219.34V228V228.5H236.063V228ZM219.34 228V227.5C217.092 227.5 215.436 227.5 214.127 227.393C212.824 227.286 211.909 227.076 211.136 226.682L210.909 227.128L210.682 227.573C211.62 228.051 212.681 228.278 214.046 228.389C215.405 228.5 217.109 228.5 219.34 228.5V228ZM210.909 227.128L211.136 226.682C209.725 225.963 208.577 224.816 207.858 223.405L207.413 223.632L206.967 223.859C207.782 225.458 209.083 226.759 210.682 227.573L210.909 227.128ZM207.413 223.632L207.858 223.405C207.464 222.631 207.255 221.717 207.148 220.414C207.041 219.105 207.041 217.449 207.041 215.2H206.541H206.041C206.041 217.432 206.04 219.136 206.151 220.495C206.263 221.86 206.489 222.921 206.967 223.859L207.413 223.632ZM206.541 215.2H207.041V194.8H206.541H206.041V215.2H206.541ZM206.541 194.8H207.041C207.041 192.551 207.041 190.895 207.148 189.586C207.255 188.283 207.464 187.369 207.858 186.595L207.413 186.368L206.967 186.141C206.489 187.079 206.263 188.14 206.151 189.505C206.04 190.864 206.041 192.568 206.041 194.8H206.541ZM207.413 186.368L207.858 186.595C208.577 185.184 209.725 184.037 211.136 183.318L210.909 182.872L210.682 182.427C209.083 183.241 207.782 184.542 206.967 186.141L207.413 186.368ZM210.909 182.872L211.136 183.318C211.909 182.924 212.824 182.714 214.127 182.607C215.436 182.5 217.092 182.5 219.34 182.5V182V181.5C217.109 181.5 215.405 181.5 214.046 181.611C212.681 181.722 211.62 181.949 210.682 182.427L210.909 182.872ZM219.34 182V182.5H236.063V182V181.5H219.34V182Z" fill="url(#paint6_linear_539_2302)" style="mix-blend-mode:darken" mask="url(#path-12-inside-1_539_2302)"/>
</g>
<path d="M60.3717 182C64.8519 182 67.0921 182 68.8034 182.872C70.3086 183.639 71.5325 184.863 72.2995 186.368C73.1714 188.079 73.1715 190.32 73.1715 194.8V215.2C73.1715 219.68 73.1714 221.921 72.2995 223.632C71.5325 225.137 70.3086 226.361 68.8034 227.128C67.0921 228 64.8519 228 60.3717 228H43.6491C40.3833 228 38.7499 228 37.734 227.312C36.8463 226.711 36.2368 225.779 36.0426 224.725C35.8205 223.518 36.4758 222.022 37.7868 219.031L43.9372 205L37.7868 190.969C36.4758 187.978 35.8205 186.482 36.0426 185.275C36.2368 184.221 36.8463 183.289 37.734 182.688C38.7499 182 40.3833 182 43.6491 182H60.3717ZM236.063 182C239.329 182 240.962 182 241.978 182.688C242.866 183.289 243.475 184.221 243.67 185.275C243.892 186.482 243.236 187.978 241.924 190.969L235.775 205L241.924 219.031C243.236 222.022 243.892 223.518 243.67 224.725C243.475 225.779 242.866 226.711 241.978 227.312C240.962 228 239.329 228 236.063 228H219.34C214.86 228 212.62 228 210.909 227.128C209.404 226.361 208.18 225.137 207.413 223.632C206.541 221.921 206.541 219.68 206.541 215.2V194.8C206.541 190.32 206.541 188.079 207.413 186.368C208.18 184.863 209.404 183.639 210.909 182.872C212.62 182 214.86 182 219.34 182H236.063Z" fill="url(#paint7_linear_539_2302)" fill-opacity="0.3" style="mix-blend-mode:overlay"/>
<path d="M60.3717 182C64.8519 182 67.0921 182 68.8034 182.872C70.3086 183.639 71.5325 184.863 72.2995 186.368C73.1714 188.079 73.1715 190.32 73.1715 194.8V215.2C73.1715 219.68 73.1714 221.921 72.2995 223.632C71.5325 225.137 70.3086 226.361 68.8034 227.128C67.0921 228 64.8519 228 60.3717 228H43.6491C40.3833 228 38.7499 228 37.734 227.312C36.8463 226.711 36.2368 225.779 36.0426 224.725C35.8205 223.518 36.4758 222.022 37.7868 219.031L43.9372 205L37.7868 190.969C36.4758 187.978 35.8205 186.482 36.0426 185.275C36.2368 184.221 36.8463 183.289 37.734 182.688C38.7499 182 40.3833 182 43.6491 182H60.3717ZM236.063 182C239.329 182 240.962 182 241.978 182.688C242.866 183.289 243.475 184.221 243.67 185.275C243.892 186.482 243.236 187.978 241.924 190.969L235.775 205L241.924 219.031C243.236 222.022 243.892 223.518 243.67 224.725C243.475 225.779 242.866 226.711 241.978 227.312C240.962 228 239.329 228 236.063 228H219.34C214.86 228 212.62 228 210.909 227.128C209.404 226.361 208.18 225.137 207.413 223.632C206.541 221.921 206.541 219.68 206.541 215.2V194.8C206.541 190.32 206.541 188.079 207.413 186.368C208.18 184.863 209.404 183.639 210.909 182.872C212.62 182 214.86 182 219.34 182H236.063Z" fill="url(#paint8_radial_539_2302)" fill-opacity="0.6" style="mix-blend-mode:overlay"/>
<path d="M60.3717 182C64.8519 182 67.0921 182 68.8034 182.872C70.3086 183.639 71.5325 184.863 72.2995 186.368C73.1714 188.079 73.1715 190.32 73.1715 194.8V215.2C73.1715 219.68 73.1714 221.921 72.2995 223.632C71.5325 225.137 70.3086 226.361 68.8034 227.128C67.0921 228 64.8519 228 60.3717 228H43.6491C40.3833 228 38.7499 228 37.734 227.312C36.8463 226.711 36.2368 225.779 36.0426 224.725C35.8205 223.518 36.4758 222.022 37.7868 219.031L43.9372 205L37.7868 190.969C36.4758 187.978 35.8205 186.482 36.0426 185.275C36.2368 184.221 36.8463 183.289 37.734 182.688C38.7499 182 40.3833 182 43.6491 182H60.3717ZM236.063 182C239.329 182 240.962 182 241.978 182.688C242.866 183.289 243.475 184.221 243.67 185.275C243.892 186.482 243.236 187.978 241.924 190.969L235.775 205L241.924 219.031C243.236 222.022 243.892 223.518 243.67 224.725C243.475 225.779 242.866 226.711 241.978 227.312C240.962 228 239.329 228 236.063 228H219.34C214.86 228 212.62 228 210.909 227.128C209.404 226.361 208.18 225.137 207.413 223.632C206.541 221.921 206.541 219.68 206.541 215.2V194.8C206.541 190.32 206.541 188.079 207.413 186.368C208.18 184.863 209.404 183.639 210.909 182.872C212.62 182 214.86 182 219.34 182H236.063Z" fill="black" fill-opacity="0.24" style="mix-blend-mode:overlay"/>
<path d="M60.3717 182C64.8519 182 67.0921 182 68.8034 182.872C70.3086 183.639 71.5325 184.863 72.2995 186.368C73.1714 188.079 73.1715 190.32 73.1715 194.8V215.2C73.1715 219.68 73.1714 221.921 72.2995 223.632C71.5325 225.137 70.3086 226.361 68.8034 227.128C67.0921 228 64.8519 228 60.3717 228H43.6491C40.3833 228 38.7499 228 37.734 227.312C36.8463 226.711 36.2368 225.779 36.0426 224.725C35.8205 223.518 36.4758 222.022 37.7868 219.031L43.9372 205L37.7868 190.969C36.4758 187.978 35.8205 186.482 36.0426 185.275C36.2368 184.221 36.8463 183.289 37.734 182.688C38.7499 182 40.3833 182 43.6491 182H60.3717ZM236.063 182C239.329 182 240.962 182 241.978 182.688C242.866 183.289 243.475 184.221 243.67 185.275C243.892 186.482 243.236 187.978 241.924 190.969L235.775 205L241.924 219.031C243.236 222.022 243.892 223.518 243.67 224.725C243.475 225.779 242.866 226.711 241.978 227.312C240.962 228 239.329 228 236.063 228H219.34C214.86 228 212.62 228 210.909 227.128C209.404 226.361 208.18 225.137 207.413 223.632C206.541 221.921 206.541 219.68 206.541 215.2V194.8C206.541 190.32 206.541 188.079 207.413 186.368C208.18 184.863 209.404 183.639 210.909 182.872C212.62 182 214.86 182 219.34 182H236.063Z" fill="black" fill-opacity="0.12" style="mix-blend-mode:darken"/>
<g filter="url(#filter4_dd_539_2302)">
<rect x="51.856" y="170" width="176" height="46" rx="8" fill="#F5F0F0"/>
<rect x="52.106" y="170.25" width="175.5" height="45.5" rx="7.75" stroke="url(#paint9_linear_539_2302)" stroke-width="0.5" stroke-linecap="round" style="mix-blend-mode:darken"/>
</g>
<rect x="51.856" y="170" width="176" height="46" rx="8" fill="url(#paint10_linear_539_2302)" fill-opacity="0.3" style="mix-blend-mode:overlay"/>
<rect x="51.856" y="170" width="176" height="46" rx="8" fill="url(#paint11_radial_539_2302)" fill-opacity="0.6" style="mix-blend-mode:overlay"/>
<g filter="url(#filter5_i_539_2302)">
<circle cx="62.856" cy="193" r="3" fill="black" fill-opacity="0.24" style="mix-blend-mode:color-burn"/>
<circle cx="62.856" cy="193" r="3" fill="black" fill-opacity="0.32" style="mix-blend-mode:darken"/>
</g>
<g filter="url(#filter6_i_539_2302)">
<circle cx="216.856" cy="193" r="3" fill="black" fill-opacity="0.24" style="mix-blend-mode:color-burn"/>
<circle cx="216.856" cy="193" r="3" fill="black" fill-opacity="0.32" style="mix-blend-mode:darken"/>
</g>
<g filter="url(#filter7_i_539_2302)">
<path d="M101.692 193.771H98.5209V187.975C98.5209 187.443 98.6749 187.03 98.9829 186.736C99.2909 186.428 99.7039 186.274 100.222 186.274C100.516 186.274 100.796 186.295 101.062 186.337C101.342 186.379 101.552 186.414 101.692 186.442V193.771ZM100.18 194.254V191.692H106.501C106.585 191.832 106.662 192.014 106.732 192.238C106.802 192.448 106.837 192.679 106.837 192.931C106.837 193.379 106.732 193.715 106.522 193.939C106.326 194.149 106.053 194.254 105.703 194.254H100.18ZM100.222 188.836V186.274H107.215C107.299 186.4 107.376 186.575 107.446 186.799C107.516 187.023 107.551 187.261 107.551 187.513C107.551 187.961 107.446 188.297 107.236 188.521C107.04 188.731 106.767 188.836 106.417 188.836H100.222ZM98.5209 192.532H101.713V198.979C101.587 199.021 101.384 199.056 101.104 199.084C100.824 199.126 100.537 199.147 100.243 199.147C99.6129 199.147 99.1649 199.035 98.8989 198.811C98.6469 198.587 98.5209 198.202 98.5209 197.656V192.532ZM107.936 190.159H111.128V198.874L109.637 199.042C109.119 199.042 108.706 198.888 108.398 198.58C108.09 198.272 107.936 197.859 107.936 197.341V190.159ZM109.637 199.042V196.438H116.231C116.329 196.578 116.413 196.76 116.483 196.984C116.553 197.194 116.588 197.432 116.588 197.698C116.588 198.146 116.49 198.482 116.294 198.706C116.098 198.93 115.825 199.042 115.475 199.042H109.637ZM111.128 194.149H107.936V186.232C108.076 186.204 108.286 186.169 108.566 186.127C108.86 186.085 109.14 186.064 109.406 186.064C110.022 186.064 110.463 186.169 110.729 186.379C110.995 186.589 111.128 186.988 111.128 187.576V194.149ZM122.29 188.92H122.164C122.024 189.368 121.856 189.865 121.66 190.411C121.478 190.957 121.289 191.531 121.093 192.133C120.897 192.721 120.708 193.309 120.526 193.897L120.148 195.787C120.064 196.053 119.98 196.333 119.896 196.627C119.826 196.921 119.749 197.208 119.665 197.488C119.581 197.768 119.504 198.034 119.434 198.286C119.364 198.538 119.294 198.776 119.224 199C119.07 199.042 118.895 199.084 118.699 199.126C118.503 199.182 118.272 199.21 118.006 199.21C117.418 199.21 116.97 199.105 116.662 198.895C116.354 198.685 116.2 198.377 116.2 197.971C116.2 197.803 116.221 197.628 116.263 197.446C116.319 197.264 116.382 197.054 116.452 196.816C116.578 196.354 116.753 195.773 116.977 195.073C117.215 194.373 117.467 193.617 117.733 192.805C118.013 191.979 118.293 191.167 118.573 190.369C118.867 189.571 119.133 188.836 119.371 188.164C119.623 187.492 119.826 186.967 119.98 186.589C120.176 186.463 120.484 186.351 120.904 186.253C121.338 186.141 121.765 186.085 122.185 186.085C122.787 186.085 123.326 186.176 123.802 186.358C124.278 186.526 124.579 186.799 124.705 187.177C124.971 187.919 125.258 188.78 125.566 189.76C125.888 190.726 126.21 191.741 126.532 192.805C126.854 193.869 127.162 194.905 127.456 195.913C127.764 196.907 128.03 197.803 128.254 198.601C128.1 198.769 127.876 198.909 127.582 199.021C127.288 199.147 126.938 199.21 126.532 199.21C125.958 199.21 125.552 199.105 125.314 198.895C125.076 198.685 124.894 198.37 124.768 197.95L124.096 195.598L123.739 193.813C123.571 193.183 123.396 192.574 123.214 191.986C123.032 191.398 122.864 190.845 122.71 190.327C122.556 189.795 122.416 189.326 122.29 188.92ZM118.741 196.165L119.98 193.687H124.894L125.314 196.165H118.741ZM133.854 189.382C134.008 189.312 134.225 189.242 134.505 189.172C134.799 189.088 135.093 189.046 135.387 189.046C135.905 189.046 136.332 189.123 136.668 189.277C137.018 189.431 137.235 189.662 137.319 189.97C137.557 190.796 137.774 191.552 137.97 192.238C138.166 192.924 138.355 193.589 138.537 194.233C138.733 194.863 138.922 195.528 139.104 196.228H139.188C139.384 195.066 139.559 193.953 139.713 192.889C139.867 191.825 140.014 190.775 140.154 189.739C140.294 188.703 140.427 187.639 140.553 186.547C141.015 186.295 141.491 186.169 141.981 186.169C142.443 186.169 142.835 186.267 143.157 186.463C143.479 186.659 143.64 186.988 143.64 187.45C143.64 187.758 143.605 188.192 143.535 188.752C143.479 189.298 143.395 189.928 143.283 190.642C143.171 191.356 143.038 192.098 142.884 192.868C142.744 193.638 142.59 194.394 142.422 195.136C142.254 195.864 142.086 196.529 141.918 197.131C141.75 197.719 141.589 198.195 141.435 198.559C141.253 198.713 140.959 198.853 140.553 198.979C140.147 199.091 139.72 199.147 139.272 199.147C138.712 199.147 138.229 199.07 137.823 198.916C137.417 198.748 137.172 198.524 137.088 198.244C136.948 197.838 136.787 197.362 136.605 196.816C136.437 196.27 136.262 195.675 136.08 195.031C135.898 194.373 135.716 193.701 135.534 193.015C135.38 193.687 135.212 194.373 135.03 195.073C134.848 195.759 134.673 196.403 134.505 197.005C134.337 197.607 134.183 198.125 134.043 198.559C133.861 198.713 133.581 198.853 133.203 198.979C132.839 199.091 132.433 199.147 131.985 199.147C131.453 199.147 130.963 199.063 130.515 198.895C130.067 198.727 129.78 198.51 129.654 198.244C129.514 197.922 129.346 197.439 129.15 196.795C128.968 196.137 128.772 195.388 128.562 194.548C128.366 193.694 128.177 192.805 127.995 191.881C127.813 190.957 127.645 190.061 127.491 189.193C127.337 188.311 127.218 187.52 127.134 186.82C127.316 186.666 127.554 186.519 127.848 186.379C128.156 186.239 128.492 186.169 128.856 186.169C129.318 186.169 129.696 186.274 129.99 186.484C130.284 186.68 130.473 187.023 130.557 187.513C130.781 188.801 130.963 189.907 131.103 190.831C131.257 191.755 131.383 192.546 131.481 193.204C131.593 193.862 131.691 194.436 131.775 194.926C131.859 195.402 131.943 195.836 132.027 196.228H132.132C132.272 195.654 132.405 195.122 132.531 194.632C132.657 194.128 132.79 193.624 132.93 193.12C133.07 192.602 133.217 192.049 133.371 191.461C133.525 190.859 133.686 190.166 133.854 189.382ZM144.178 190.159H147.37V198.874L145.879 199.042C145.361 199.042 144.948 198.888 144.64 198.58C144.332 198.272 144.178 197.859 144.178 197.341V190.159ZM145.879 199.042V196.438H152.473C152.571 196.578 152.655 196.76 152.725 196.984C152.795 197.194 152.83 197.432 152.83 197.698C152.83 198.146 152.732 198.482 152.536 198.706C152.34 198.93 152.067 199.042 151.717 199.042H145.879ZM147.37 194.149H144.178V186.232C144.318 186.204 144.528 186.169 144.808 186.127C145.102 186.085 145.382 186.064 145.648 186.064C146.264 186.064 146.705 186.169 146.971 186.379C147.237 186.589 147.37 186.988 147.37 187.576V194.149ZM153.203 190.096H156.311V198.874C156.185 198.902 155.989 198.937 155.723 198.979C155.471 199.021 155.198 199.042 154.904 199.042C154.386 199.042 153.973 198.888 153.665 198.58C153.357 198.272 153.203 197.859 153.203 197.341V190.096ZM156.311 195.178H153.203V187.975C153.203 187.443 153.357 187.03 153.665 186.736C153.973 186.428 154.386 186.274 154.904 186.274C155.198 186.274 155.471 186.295 155.723 186.337C155.989 186.379 156.185 186.414 156.311 186.442V195.178ZM154.904 193.771V191.251H161.246C161.33 191.391 161.407 191.566 161.477 191.776C161.547 191.986 161.582 192.217 161.582 192.469C161.582 192.917 161.477 193.246 161.267 193.456C161.071 193.666 160.805 193.771 160.469 193.771H154.904ZM154.904 199.042V196.501H161.939C162.023 196.627 162.1 196.802 162.17 197.026C162.24 197.25 162.275 197.488 162.275 197.74C162.275 198.188 162.17 198.517 161.96 198.727C161.764 198.937 161.498 199.042 161.162 199.042H154.904ZM154.904 188.794V186.274H161.834C161.932 186.4 162.009 186.568 162.065 186.778C162.135 186.988 162.17 187.219 162.17 187.471C162.17 187.919 162.072 188.255 161.876 188.479C161.68 188.689 161.407 188.794 161.057 188.794H154.904ZM166.808 196.753C167.564 196.753 168.103 196.62 168.425 196.354C168.761 196.074 168.929 195.745 168.929 195.367C168.929 195.017 168.796 194.737 168.53 194.527C168.278 194.303 167.9 194.114 167.396 193.96L166.283 193.603C165.527 193.351 164.855 193.071 164.267 192.763C163.693 192.455 163.245 192.056 162.923 191.566C162.615 191.076 162.461 190.453 162.461 189.697C162.461 188.535 162.902 187.611 163.784 186.925C164.666 186.239 165.891 185.896 167.459 185.896C168.257 185.896 168.964 185.973 169.58 186.127C170.21 186.281 170.7 186.512 171.05 186.82C171.414 187.114 171.596 187.478 171.596 187.912C171.596 188.234 171.519 188.514 171.365 188.752C171.225 188.976 171.043 189.172 170.819 189.34C170.497 189.116 170.07 188.927 169.538 188.773C169.006 188.605 168.418 188.521 167.774 188.521C167.102 188.521 166.598 188.633 166.262 188.857C165.926 189.067 165.758 189.347 165.758 189.697C165.758 189.977 165.87 190.208 166.094 190.39C166.318 190.558 166.654 190.712 167.102 190.852L168.257 191.209C169.531 191.601 170.511 192.126 171.197 192.784C171.883 193.428 172.226 194.296 172.226 195.388C172.226 196.564 171.771 197.523 170.861 198.265C169.951 198.993 168.635 199.357 166.913 199.357C166.059 199.357 165.296 199.266 164.624 199.084C163.952 198.902 163.413 198.636 163.007 198.286C162.615 197.936 162.419 197.53 162.419 197.068C162.419 196.704 162.524 196.396 162.734 196.144C162.958 195.878 163.203 195.682 163.469 195.556C163.847 195.864 164.316 196.144 164.876 196.396C165.45 196.634 166.094 196.753 166.808 196.753ZM176.551 196.753C177.307 196.753 177.846 196.62 178.168 196.354C178.504 196.074 178.672 195.745 178.672 195.367C178.672 195.017 178.539 194.737 178.273 194.527C178.021 194.303 177.643 194.114 177.139 193.96L176.026 193.603C175.27 193.351 174.598 193.071 174.01 192.763C173.436 192.455 172.988 192.056 172.666 191.566C172.358 191.076 172.204 190.453 172.204 189.697C172.204 188.535 172.645 187.611 173.527 186.925C174.409 186.239 175.634 185.896 177.202 185.896C178 185.896 178.707 185.973 179.323 186.127C179.953 186.281 180.443 186.512 180.793 186.82C181.157 187.114 181.339 187.478 181.339 187.912C181.339 188.234 181.262 188.514 181.108 188.752C180.968 188.976 180.786 189.172 180.562 189.34C180.24 189.116 179.813 188.927 179.281 188.773C178.749 188.605 178.161 188.521 177.517 188.521C176.845 188.521 176.341 188.633 176.005 188.857C175.669 189.067 175.501 189.347 175.501 189.697C175.501 189.977 175.613 190.208 175.837 190.39C176.061 190.558 176.397 190.712 176.845 190.852L178 191.209C179.274 191.601 180.254 192.126 180.94 192.784C181.626 193.428 181.969 194.296 181.969 195.388C181.969 196.564 181.514 197.523 180.604 198.265C179.694 198.993 178.378 199.357 176.656 199.357C175.802 199.357 175.039 199.266 174.367 199.084C173.695 198.902 173.156 198.636 172.75 198.286C172.358 197.936 172.162 197.53 172.162 197.068C172.162 196.704 172.267 196.396 172.477 196.144C172.701 195.878 172.946 195.682 173.212 195.556C173.59 195.864 174.059 196.144 174.619 196.396C175.193 196.634 175.837 196.753 176.551 196.753Z" fill="black" fill-opacity="0.24" style="mix-blend-mode:color-burn"/>
<path d="M101.692 193.771H98.5209V187.975C98.5209 187.443 98.6749 187.03 98.9829 186.736C99.2909 186.428 99.7039 186.274 100.222 186.274C100.516 186.274 100.796 186.295 101.062 186.337C101.342 186.379 101.552 186.414 101.692 186.442V193.771ZM100.18 194.254V191.692H106.501C106.585 191.832 106.662 192.014 106.732 192.238C106.802 192.448 106.837 192.679 106.837 192.931C106.837 193.379 106.732 193.715 106.522 193.939C106.326 194.149 106.053 194.254 105.703 194.254H100.18ZM100.222 188.836V186.274H107.215C107.299 186.4 107.376 186.575 107.446 186.799C107.516 187.023 107.551 187.261 107.551 187.513C107.551 187.961 107.446 188.297 107.236 188.521C107.04 188.731 106.767 188.836 106.417 188.836H100.222ZM98.5209 192.532H101.713V198.979C101.587 199.021 101.384 199.056 101.104 199.084C100.824 199.126 100.537 199.147 100.243 199.147C99.6129 199.147 99.1649 199.035 98.8989 198.811C98.6469 198.587 98.5209 198.202 98.5209 197.656V192.532ZM107.936 190.159H111.128V198.874L109.637 199.042C109.119 199.042 108.706 198.888 108.398 198.58C108.09 198.272 107.936 197.859 107.936 197.341V190.159ZM109.637 199.042V196.438H116.231C116.329 196.578 116.413 196.76 116.483 196.984C116.553 197.194 116.588 197.432 116.588 197.698C116.588 198.146 116.49 198.482 116.294 198.706C116.098 198.93 115.825 199.042 115.475 199.042H109.637ZM111.128 194.149H107.936V186.232C108.076 186.204 108.286 186.169 108.566 186.127C108.86 186.085 109.14 186.064 109.406 186.064C110.022 186.064 110.463 186.169 110.729 186.379C110.995 186.589 111.128 186.988 111.128 187.576V194.149ZM122.29 188.92H122.164C122.024 189.368 121.856 189.865 121.66 190.411C121.478 190.957 121.289 191.531 121.093 192.133C120.897 192.721 120.708 193.309 120.526 193.897L120.148 195.787C120.064 196.053 119.98 196.333 119.896 196.627C119.826 196.921 119.749 197.208 119.665 197.488C119.581 197.768 119.504 198.034 119.434 198.286C119.364 198.538 119.294 198.776 119.224 199C119.07 199.042 118.895 199.084 118.699 199.126C118.503 199.182 118.272 199.21 118.006 199.21C117.418 199.21 116.97 199.105 116.662 198.895C116.354 198.685 116.2 198.377 116.2 197.971C116.2 197.803 116.221 197.628 116.263 197.446C116.319 197.264 116.382 197.054 116.452 196.816C116.578 196.354 116.753 195.773 116.977 195.073C117.215 194.373 117.467 193.617 117.733 192.805C118.013 191.979 118.293 191.167 118.573 190.369C118.867 189.571 119.133 188.836 119.371 188.164C119.623 187.492 119.826 186.967 119.98 186.589C120.176 186.463 120.484 186.351 120.904 186.253C121.338 186.141 121.765 186.085 122.185 186.085C122.787 186.085 123.326 186.176 123.802 186.358C124.278 186.526 124.579 186.799 124.705 187.177C124.971 187.919 125.258 188.78 125.566 189.76C125.888 190.726 126.21 191.741 126.532 192.805C126.854 193.869 127.162 194.905 127.456 195.913C127.764 196.907 128.03 197.803 128.254 198.601C128.1 198.769 127.876 198.909 127.582 199.021C127.288 199.147 126.938 199.21 126.532 199.21C125.958 199.21 125.552 199.105 125.314 198.895C125.076 198.685 124.894 198.37 124.768 197.95L124.096 195.598L123.739 193.813C123.571 193.183 123.396 192.574 123.214 191.986C123.032 191.398 122.864 190.845 122.71 190.327C122.556 189.795 122.416 189.326 122.29 188.92ZM118.741 196.165L119.98 193.687H124.894L125.314 196.165H118.741ZM133.854 189.382C134.008 189.312 134.225 189.242 134.505 189.172C134.799 189.088 135.093 189.046 135.387 189.046C135.905 189.046 136.332 189.123 136.668 189.277C137.018 189.431 137.235 189.662 137.319 189.97C137.557 190.796 137.774 191.552 137.97 192.238C138.166 192.924 138.355 193.589 138.537 194.233C138.733 194.863 138.922 195.528 139.104 196.228H139.188C139.384 195.066 139.559 193.953 139.713 192.889C139.867 191.825 140.014 190.775 140.154 189.739C140.294 188.703 140.427 187.639 140.553 186.547C141.015 186.295 141.491 186.169 141.981 186.169C142.443 186.169 142.835 186.267 143.157 186.463C143.479 186.659 143.64 186.988 143.64 187.45C143.64 187.758 143.605 188.192 143.535 188.752C143.479 189.298 143.395 189.928 143.283 190.642C143.171 191.356 143.038 192.098 142.884 192.868C142.744 193.638 142.59 194.394 142.422 195.136C142.254 195.864 142.086 196.529 141.918 197.131C141.75 197.719 141.589 198.195 141.435 198.559C141.253 198.713 140.959 198.853 140.553 198.979C140.147 199.091 139.72 199.147 139.272 199.147C138.712 199.147 138.229 199.07 137.823 198.916C137.417 198.748 137.172 198.524 137.088 198.244C136.948 197.838 136.787 197.362 136.605 196.816C136.437 196.27 136.262 195.675 136.08 195.031C135.898 194.373 135.716 193.701 135.534 193.015C135.38 193.687 135.212 194.373 135.03 195.073C134.848 195.759 134.673 196.403 134.505 197.005C134.337 197.607 134.183 198.125 134.043 198.559C133.861 198.713 133.581 198.853 133.203 198.979C132.839 199.091 132.433 199.147 131.985 199.147C131.453 199.147 130.963 199.063 130.515 198.895C130.067 198.727 129.78 198.51 129.654 198.244C129.514 197.922 129.346 197.439 129.15 196.795C128.968 196.137 128.772 195.388 128.562 194.548C128.366 193.694 128.177 192.805 127.995 191.881C127.813 190.957 127.645 190.061 127.491 189.193C127.337 188.311 127.218 187.52 127.134 186.82C127.316 186.666 127.554 186.519 127.848 186.379C128.156 186.239 128.492 186.169 128.856 186.169C129.318 186.169 129.696 186.274 129.99 186.484C130.284 186.68 130.473 187.023 130.557 187.513C130.781 188.801 130.963 189.907 131.103 190.831C131.257 191.755 131.383 192.546 131.481 193.204C131.593 193.862 131.691 194.436 131.775 194.926C131.859 195.402 131.943 195.836 132.027 196.228H132.132C132.272 195.654 132.405 195.122 132.531 194.632C132.657 194.128 132.79 193.624 132.93 193.12C133.07 192.602 133.217 192.049 133.371 191.461C133.525 190.859 133.686 190.166 133.854 189.382ZM144.178 190.159H147.37V198.874L145.879 199.042C145.361 199.042 144.948 198.888 144.64 198.58C144.332 198.272 144.178 197.859 144.178 197.341V190.159ZM145.879 199.042V196.438H152.473C152.571 196.578 152.655 196.76 152.725 196.984C152.795 197.194 152.83 197.432 152.83 197.698C152.83 198.146 152.732 198.482 152.536 198.706C152.34 198.93 152.067 199.042 151.717 199.042H145.879ZM147.37 194.149H144.178V186.232C144.318 186.204 144.528 186.169 144.808 186.127C145.102 186.085 145.382 186.064 145.648 186.064C146.264 186.064 146.705 186.169 146.971 186.379C147.237 186.589 147.37 186.988 147.37 187.576V194.149ZM153.203 190.096H156.311V198.874C156.185 198.902 155.989 198.937 155.723 198.979C155.471 199.021 155.198 199.042 154.904 199.042C154.386 199.042 153.973 198.888 153.665 198.58C153.357 198.272 153.203 197.859 153.203 197.341V190.096ZM156.311 195.178H153.203V187.975C153.203 187.443 153.357 187.03 153.665 186.736C153.973 186.428 154.386 186.274 154.904 186.274C155.198 186.274 155.471 186.295 155.723 186.337C155.989 186.379 156.185 186.414 156.311 186.442V195.178ZM154.904 193.771V191.251H161.246C161.33 191.391 161.407 191.566 161.477 191.776C161.547 191.986 161.582 192.217 161.582 192.469C161.582 192.917 161.477 193.246 161.267 193.456C161.071 193.666 160.805 193.771 160.469 193.771H154.904ZM154.904 199.042V196.501H161.939C162.023 196.627 162.1 196.802 162.17 197.026C162.24 197.25 162.275 197.488 162.275 197.74C162.275 198.188 162.17 198.517 161.96 198.727C161.764 198.937 161.498 199.042 161.162 199.042H154.904ZM154.904 188.794V186.274H161.834C161.932 186.4 162.009 186.568 162.065 186.778C162.135 186.988 162.17 187.219 162.17 187.471C162.17 187.919 162.072 188.255 161.876 188.479C161.68 188.689 161.407 188.794 161.057 188.794H154.904ZM166.808 196.753C167.564 196.753 168.103 196.62 168.425 196.354C168.761 196.074 168.929 195.745 168.929 195.367C168.929 195.017 168.796 194.737 168.53 194.527C168.278 194.303 167.9 194.114 167.396 193.96L166.283 193.603C165.527 193.351 164.855 193.071 164.267 192.763C163.693 192.455 163.245 192.056 162.923 191.566C162.615 191.076 162.461 190.453 162.461 189.697C162.461 188.535 162.902 187.611 163.784 186.925C164.666 186.239 165.891 185.896 167.459 185.896C168.257 185.896 168.964 185.973 169.58 186.127C170.21 186.281 170.7 186.512 171.05 186.82C171.414 187.114 171.596 187.478 171.596 187.912C171.596 188.234 171.519 188.514 171.365 188.752C171.225 188.976 171.043 189.172 170.819 189.34C170.497 189.116 170.07 188.927 169.538 188.773C169.006 188.605 168.418 188.521 167.774 188.521C167.102 188.521 166.598 188.633 166.262 188.857C165.926 189.067 165.758 189.347 165.758 189.697C165.758 189.977 165.87 190.208 166.094 190.39C166.318 190.558 166.654 190.712 167.102 190.852L168.257 191.209C169.531 191.601 170.511 192.126 171.197 192.784C171.883 193.428 172.226 194.296 172.226 195.388C172.226 196.564 171.771 197.523 170.861 198.265C169.951 198.993 168.635 199.357 166.913 199.357C166.059 199.357 165.296 199.266 164.624 199.084C163.952 198.902 163.413 198.636 163.007 198.286C162.615 197.936 162.419 197.53 162.419 197.068C162.419 196.704 162.524 196.396 162.734 196.144C162.958 195.878 163.203 195.682 163.469 195.556C163.847 195.864 164.316 196.144 164.876 196.396C165.45 196.634 166.094 196.753 166.808 196.753ZM176.551 196.753C177.307 196.753 177.846 196.62 178.168 196.354C178.504 196.074 178.672 195.745 178.672 195.367C178.672 195.017 178.539 194.737 178.273 194.527C178.021 194.303 177.643 194.114 177.139 193.96L176.026 193.603C175.27 193.351 174.598 193.071 174.01 192.763C173.436 192.455 172.988 192.056 172.666 191.566C172.358 191.076 172.204 190.453 172.204 189.697C172.204 188.535 172.645 187.611 173.527 186.925C174.409 186.239 175.634 185.896 177.202 185.896C178 185.896 178.707 185.973 179.323 186.127C179.953 186.281 180.443 186.512 180.793 186.82C181.157 187.114 181.339 187.478 181.339 187.912C181.339 188.234 181.262 188.514 181.108 188.752C180.968 188.976 180.786 189.172 180.562 189.34C180.24 189.116 179.813 188.927 179.281 188.773C178.749 188.605 178.161 188.521 177.517 188.521C176.845 188.521 176.341 188.633 176.005 188.857C175.669 189.067 175.501 189.347 175.501 189.697C175.501 189.977 175.613 190.208 175.837 190.39C176.061 190.558 176.397 190.712 176.845 190.852L178 191.209C179.274 191.601 180.254 192.126 180.94 192.784C181.626 193.428 181.969 194.296 181.969 195.388C181.969 196.564 181.514 197.523 180.604 198.265C179.694 198.993 178.378 199.357 176.656 199.357C175.802 199.357 175.039 199.266 174.367 199.084C173.695 198.902 173.156 198.636 172.75 198.286C172.358 197.936 172.162 197.53 172.162 197.068C172.162 196.704 172.267 196.396 172.477 196.144C172.701 195.878 172.946 195.682 173.212 195.556C173.59 195.864 174.059 196.144 174.619 196.396C175.193 196.634 175.837 196.753 176.551 196.753Z" fill="black" fill-opacity="0.32" style="mix-blend-mode:darken"/>
</g>
<defs>
<filter id="filter0_ddd_539_2302" x="19.5664" y="30.7944" width="241.105" height="288.661" filterUnits="userSpaceOnUse" color-interpolation-filters="sRGB">
<feFlood flood-opacity="0" result="BackgroundImageFix"/>
<feColorMatrix in="SourceAlpha" type="matrix" values="0 0 0 0 0 0 0 0 0 0 0 0 0 0 0 0 0 0 127 0" result="hardAlpha"/>
<feOffset dy="5"/>
<feGaussianBlur stdDeviation="5.5"/>
<feColorMatrix type="matrix" values="0 0 0 0 0 0 0 0 0 0 0 0 0 0 0 0 0 0 0.24 0"/>
<feBlend mode="normal" in2="BackgroundImageFix" result="effect1_dropShadow_539_2302"/>
<feColorMatrix in="SourceAlpha" type="matrix" values="0 0 0 0 0 0 0 0 0 0 0 0 0 0 0 0 0 0 127 0" result="hardAlpha"/>
<feOffset dy="21"/>
<feGaussianBlur stdDeviation="10.5"/>
<feColorMatrix type="matrix" values="0 0 0 0 0 0 0 0 0 0 0 0 0 0 0 0 0 0 0.21 0"/>
<feBlend mode="normal" in2="effect1_dropShadow_539_2302" result="effect2_dropShadow_539_2302"/>
<feColorMatrix in="SourceAlpha" type="matrix" values="0 0 0 0 0 0 0 0 0 0 0 0 0 0 0 0 0 0 127 0" result="hardAlpha"/>
<feOffset dy="46"/>
<feGaussianBlur stdDeviation="14"/>
<feColorMatrix type="matrix" values="0 0 0 0 0 0 0 0 0 0 0 0 0 0 0 0 0 0 0.12 0"/>
<feBlend mode="normal" in2="effect2_dropShadow_539_2302" result="effect3_dropShadow_539_2302"/>
<feBlend mode="normal" in="SourceGraphic" in2="effect3_dropShadow_539_2302" result="shape"/>
</filter>
<filter id="filter1_d_539_2302" x="39.5664" y="30.7944" width="201.106" height="224.661" filterUnits="userSpaceOnUse" color-interpolation-filters="sRGB">
<feFlood flood-opacity="0" result="BackgroundImageFix"/>
<feColorMatrix in="SourceAlpha" type="matrix" values="0 0 0 0 0 0 0 0 0 0 0 0 0 0 0 0 0 0 127 0" result="hardAlpha"/>
<feOffset dy="2"/>
<feGaussianBlur stdDeviation="4"/>
<feColorMatrix type="matrix" values="0 0 0 0 0 0 0 0 0 0 0 0 0 0 0 0 0 0 0.16 0"/>
<feBlend mode="color-burn" in2="BackgroundImageFix" result="effect1_dropShadow_539_2302"/>
<feBlend mode="normal" in="SourceGraphic" in2="effect1_dropShadow_539_2302" result="shape"/>
</filter>
<filter id="filter2_d_539_2302" x="93.4463" y="81.2185" width="95.0146" height="95.0148" filterUnits="userSpaceOnUse" color-interpolation-filters="sRGB">
<feFlood flood-opacity="0" result="BackgroundImageFix"/>
<feColorMatrix in="SourceAlpha" type="matrix" values="0 0 0 0 0 0 0 0 0 0 0 0 0 0 0 0 0 0 127 0" result="hardAlpha"/>
<feOffset dy="2"/>
<feGaussianBlur stdDeviation="6"/>
<feColorMatrix type="matrix" values="0 0 0 0 0 0 0 0 0 0 0 0 0 0 0 0 0 0 0.12 0"/>
<feBlend mode="plus-darker" in2="BackgroundImageFix" result="effect1_dropShadow_539_2302"/>
<feBlend mode="normal" in="SourceGraphic" in2="effect1_dropShadow_539_2302" result="shape"/>
</filter>
<filter id="filter3_dd_539_2302" x="24" y="174" width="231.712" height="70" filterUnits="userSpaceOnUse" color-interpolation-filters="sRGB">
<feFlood flood-opacity="0" result="BackgroundImageFix"/>
<feColorMatrix in="SourceAlpha" type="matrix" values="0 0 0 0 0 0 0 0 0 0 0 0 0 0 0 0 0 0 127 0" result="hardAlpha"/>
<feOffset dy="4"/>
<feGaussianBlur stdDeviation="6"/>
<feColorMatrix type="matrix" values="0 0 0 0 0 0 0 0 0 0 0 0 0 0 0 0 0 0 0.16 0"/>
<feBlend mode="normal" in2="BackgroundImageFix" result="effect1_dropShadow_539_2302"/>
<feColorMatrix in="SourceAlpha" type="matrix" values="0 0 0 0 0 0 0 0 0 0 0 0 0 0 0 0 0 0 127 0" result="hardAlpha"/>
<feOffset dy="2"/>
<feGaussianBlur stdDeviation="2"/>
<feColorMatrix type="matrix" values="0 0 0 0 0 0 0 0 0 0 0 0 0 0 0 0 0 0 0.24 0"/>
<feBlend mode="normal" in2="effect1_dropShadow_539_2302" result="effect2_dropShadow_539_2302"/>
<feBlend mode="normal" in="SourceGraphic" in2="effect2_dropShadow_539_2302" result="shape"/>
</filter>
<filter id="filter4_dd_539_2302" x="39.856" y="162" width="200" height="70" filterUnits="userSpaceOnUse" color-interpolation-filters="sRGB">
<feFlood flood-opacity="0" result="BackgroundImageFix"/>
<feColorMatrix in="SourceAlpha" type="matrix" values="0 0 0 0 0 0 0 0 0 0 0 0 0 0 0 0 0 0 127 0" result="hardAlpha"/>
<feOffset dy="4"/>
<feGaussianBlur stdDeviation="6"/>
<feColorMatrix type="matrix" values="0 0 0 0 0 0 0 0 0 0 0 0 0 0 0 0 0 0 0.16 0"/>
<feBlend mode="normal" in2="BackgroundImageFix" result="effect1_dropShadow_539_2302"/>
<feColorMatrix in="SourceAlpha" type="matrix" values="0 0 0 0 0 0 0 0 0 0 0 0 0 0 0 0 0 0 127 0" result="hardAlpha"/>
<feOffset dy="2"/>
<feGaussianBlur stdDeviation="2"/>
<feColorMatrix type="matrix" values="0 0 0 0 0 0 0 0 0 0 0 0 0 0 0 0 0 0 0.24 0"/>
<feBlend mode="normal" in2="effect1_dropShadow_539_2302" result="effect2_dropShadow_539_2302"/>
<feBlend mode="normal" in="SourceGraphic" in2="effect2_dropShadow_539_2302" result="shape"/>
</filter>
<filter id="filter5_i_539_2302" x="59.856" y="190" width="6" height="7" filterUnits="userSpaceOnUse" color-interpolation-filters="sRGB">
<feFlood flood-opacity="0" result="BackgroundImageFix"/>
<feBlend mode="normal" in="SourceGraphic" in2="BackgroundImageFix" result="shape"/>
<feColorMatrix in="SourceAlpha" type="matrix" values="0 0 0 0 0 0 0 0 0 0 0 0 0 0 0 0 0 0 127 0" result="hardAlpha"/>
<feOffset dy="1"/>
<feGaussianBlur stdDeviation="1"/>
<feComposite in2="hardAlpha" operator="arithmetic" k2="-1" k3="1"/>
<feColorMatrix type="matrix" values="0 0 0 0 0 0 0 0 0 0 0 0 0 0 0 0 0 0 0.24 0"/>
<feBlend mode="darken" in2="shape" result="effect1_innerShadow_539_2302"/>
</filter>
<filter id="filter6_i_539_2302" x="213.856" y="190" width="6" height="7" filterUnits="userSpaceOnUse" color-interpolation-filters="sRGB">
<feFlood flood-opacity="0" result="BackgroundImageFix"/>
<feBlend mode="normal" in="SourceGraphic" in2="BackgroundImageFix" result="shape"/>
<feColorMatrix in="SourceAlpha" type="matrix" values="0 0 0 0 0 0 0 0 0 0 0 0 0 0 0 0 0 0 127 0" result="hardAlpha"/>
<feOffset dy="1"/>
<feGaussianBlur stdDeviation="1"/>
<feComposite in2="hardAlpha" operator="arithmetic" k2="-1" k3="1"/>
<feColorMatrix type="matrix" values="0 0 0 0 0 0 0 0 0 0 0 0 0 0 0 0 0 0 0.24 0"/>
<feBlend mode="darken" in2="shape" result="effect1_innerShadow_539_2302"/>
</filter>
<filter id="filter7_i_539_2302" x="98.521" y="185.896" width="83.4482" height="14.4611" filterUnits="userSpaceOnUse" color-interpolation-filters="sRGB">
<feFlood flood-opacity="0" result="BackgroundImageFix"/>
<feBlend mode="normal" in="SourceGraphic" in2="BackgroundImageFix" result="shape"/>
<feColorMatrix in="SourceAlpha" type="matrix" values="0 0 0 0 0 0 0 0 0 0 0 0 0 0 0 0 0 0 127 0" result="hardAlpha"/>
<feOffset dy="1"/>
<feGaussianBlur stdDeviation="1"/>
<feComposite in2="hardAlpha" operator="arithmetic" k2="-1" k3="1"/>
<feColorMatrix type="matrix" values="0 0 0 0 0 0 0 0 0 0 0 0 0 0 0 0 0 0 0.24 0"/>
<feBlend mode="darken" in2="shape" result="effect1_innerShadow_539_2302"/>
</filter>
<linearGradient id="paint0_linear_539_2302" x1="140" y1="31.7284" x2="140" y2="246.82" gradientUnits="userSpaceOnUse">
<stop stop-color="white"/>
<stop offset="1" stop-color="white" stop-opacity="0"/>
</linearGradient>
<radialGradient id="paint1_radial_539_2302" cx="0" cy="0" r="1" gradientUnits="userSpaceOnUse" gradientTransform="translate(140 93.51) rotate(90) scale(141.869 107.639)">
<stop stop-color="white"/>
<stop offset="1" stop-color="white" stop-opacity="0"/>
</radialGradient>
<linearGradient id="paint2_linear_539_2302" x1="232.12" y1="40.6237" x2="232.12" y2="245.588" gradientUnits="userSpaceOnUse">
<stop stop-color="#49F0BC"/>
<stop offset="1" stop-color="#29DCCC"/>
</linearGradient>
<linearGradient id="paint3_linear_539_2302" x1="139" y1="31.7284" x2="139" y2="246.82" gradientUnits="userSpaceOnUse">
<stop stop-color="white"/>
<stop offset="1" stop-color="white" stop-opacity="0"/>
</linearGradient>
<radialGradient id="paint4_radial_539_2302" cx="0" cy="0" r="1" gradientUnits="userSpaceOnUse" gradientTransform="translate(139 93.51) rotate(90) scale(141.869 107.639)">
<stop stop-color="white"/>
<stop offset="1" stop-color="white" stop-opacity="0"/>
</radialGradient>
<linearGradient id="paint5_linear_539_2302" x1="0" y1="0" x2="0" y2="280" gradientUnits="userSpaceOnUse">
<stop stop-color="white"/>
<stop offset="1" stop-color="white" stop-opacity="0.01"/>
</linearGradient>
<linearGradient id="paint6_linear_539_2302" x1="139.856" y1="182" x2="139.856" y2="228" gradientUnits="userSpaceOnUse">
<stop stop-opacity="0"/>
<stop offset="1" stop-opacity="0.16"/>
</linearGradient>
<linearGradient id="paint7_linear_539_2302" x1="139.856" y1="159" x2="139.856" y2="228" gradientUnits="userSpaceOnUse">
<stop stop-color="white"/>
<stop offset="1" stop-color="white" stop-opacity="0"/>
</linearGradient>
<radialGradient id="paint8_radial_539_2302" cx="0" cy="0" r="1" gradientUnits="userSpaceOnUse" gradientTransform="translate(139.856 182) rotate(90) scale(46 193.221)">
<stop stop-color="white"/>
<stop offset="1" stop-color="white" stop-opacity="0"/>
</radialGradient>
<linearGradient id="paint9_linear_539_2302" x1="139.856" y1="170" x2="139.856" y2="216" gradientUnits="userSpaceOnUse">
<stop stop-opacity="0"/>
<stop offset="1" stop-opacity="0.16"/>
</linearGradient>
<linearGradient id="paint10_linear_539_2302" x1="139.856" y1="170" x2="139.856" y2="216" gradientUnits="userSpaceOnUse">
<stop stop-color="white"/>
<stop offset="1" stop-color="white" stop-opacity="0"/>
</linearGradient>
<radialGradient id="paint11_radial_539_2302" cx="0" cy="0" r="1" gradientUnits="userSpaceOnUse" gradientTransform="translate(139.856 178.027) rotate(90) scale(37.9729 88)">
<stop stop-color="white"/>
<stop offset="1" stop-color="white" stop-opacity="0"/>
</radialGradient>
</defs>
</svg>




