<svg width="606" height="585" viewBox="0 0 606 585" fill="none" xmlns="http://www.w3.org/2000/svg">
<path d="M366.075 280.163L559.711 380.84L521.194 447.553L337.188 330.198L366.075 280.163Z" fill="url(#paint0_linear_1774_10)"/>
<path d="M333.903 334.069L343.532 552.101H266.498L276.128 334.069H333.903Z" fill="url(#paint1_linear_1774_10)"/>
<path d="M274.629 218.032L265 0L342.033 0L332.404 218.032H274.629Z" fill="url(#paint2_linear_1774_10)"/>
<path d="M271.523 330.889L87.5166 448.244L48.9999 381.531L242.636 280.854L271.523 330.889Z" fill="url(#paint3_linear_1774_10)"/>
<path d="M366.075 272.081L559.711 171.404L521.194 104.691L337.188 222.046L366.075 272.081Z" fill="url(#paint4_linear_1774_10)"/>
<path d="M271.523 221.355L87.5166 104L48.9999 170.713L242.636 271.39L271.523 221.355Z" fill="url(#paint5_linear_1774_10)"/>
<g filter="url(#filter0_dd_1774_10)">
<path d="M200.445 229.738L208.357 189.209L93.0342 166.695C88.089 192.026 103.029 210.72 117.579 213.561L200.445 229.738Z" fill="url(#paint6_linear_1774_10)"/>
<path d="M199.272 230.528L207.184 189.999L94.8057 168.06C89.8606 193.391 104.801 212.085 119.351 214.926L199.272 230.528Z" stroke="url(#paint7_linear_1774_10)" stroke-width="2.29412"/>
<path d="M201.208 267.586L209.12 227.057L113.426 208.375C108.481 233.706 123.422 252.4 137.971 255.241L201.208 267.586Z" fill="url(#paint8_linear_1774_10)"/>
<path d="M201.208 267.586L209.12 227.057L113.426 208.375C108.481 233.706 123.422 252.4 137.971 255.241L201.208 267.586Z" stroke="url(#paint9_linear_1774_10)" stroke-width="2.29412"/>
<path d="M227.949 310.205L235.861 269.676L140.168 250.994C135.222 276.325 150.163 295.019 164.713 297.86L227.949 310.205Z" fill="url(#paint10_linear_1774_10)"/>
<path d="M227.949 310.205L235.861 269.676L140.168 250.994C135.222 276.325 150.163 295.019 164.713 297.86L227.949 310.205Z" stroke="url(#paint11_linear_1774_10)" stroke-width="2.29412"/>
<g filter="url(#filter1_d_1774_10)">
<path d="M206.172 411.716V323H257.672V441.5L207.739 414.352C206.774 413.827 206.172 412.816 206.172 411.716Z" fill="#ECD8BA"/>
<path d="M206.172 411.716V323H257.672V441.5L207.739 414.352C206.774 413.827 206.172 412.816 206.172 411.716Z" stroke="url(#paint12_linear_1774_10)"/>
</g>
<path fill-rule="evenodd" clip-rule="evenodd" d="M211.841 409.139V368H211.172V409.697L211.452 409.743C212.377 409.897 213.405 410.444 214.245 411.244C215.084 412.043 215.705 413.066 215.859 414.144L215.885 414.323L242.952 427V381.726H242.283V425.948L216.492 413.868C216.272 412.676 215.58 411.592 214.706 410.76C213.869 409.962 212.839 409.372 211.841 409.139Z" fill="url(#paint13_linear_1774_10)"/>
<path fill-rule="evenodd" clip-rule="evenodd" d="M242.246 423.499C242.967 422.279 243.008 420.549 242.952 419.432L242.284 419.465C242.34 420.578 242.281 422.126 241.67 423.159C241.374 423.659 240.954 424.028 240.351 424.179C239.737 424.334 238.889 424.274 237.722 423.82L237.479 424.443C238.721 424.926 239.718 425.028 240.514 424.828C241.321 424.626 241.876 424.125 242.246 423.499Z" fill="#D4B195"/>
<g filter="url(#filter2_d_1774_10)">
<path d="M400.672 411.716V323H349.172V441.5L399.105 414.352C400.071 413.827 400.672 412.816 400.672 411.716Z" fill="#ECD8BA"/>
<path d="M400.672 411.716V323H349.172V441.5L399.105 414.352C400.071 413.827 400.672 412.816 400.672 411.716Z" stroke="url(#paint14_linear_1774_10)"/>
</g>
<path fill-rule="evenodd" clip-rule="evenodd" d="M395.004 409.139V368H395.673V409.697L395.393 409.743C394.468 409.897 393.44 410.444 392.6 411.244C391.761 412.043 391.14 413.066 390.986 414.144L390.96 414.323L363.893 427V381.726H364.562V425.948L390.353 413.868C390.573 412.676 391.265 411.592 392.138 410.76C392.976 409.962 394.006 409.372 395.004 409.139Z" fill="url(#paint15_linear_1774_10)"/>
<path fill-rule="evenodd" clip-rule="evenodd" d="M364.599 423.499C363.878 422.279 363.836 420.549 363.892 419.432L364.561 419.465C364.505 420.578 364.564 422.126 365.175 423.159C365.471 423.659 365.89 424.028 366.494 424.179C367.108 424.334 367.956 424.274 369.123 423.82L369.365 424.443C368.124 424.926 367.127 425.028 366.331 424.828C365.524 424.626 364.969 424.125 364.599 423.499Z" fill="#D4B195"/>
<path d="M405.712 231.043L397.8 190.514L513.123 168C518.068 193.331 503.127 212.025 488.577 214.866L405.712 231.043Z" fill="url(#paint16_linear_1774_10)"/>
<path d="M406.885 231.833L398.973 191.304L511.351 169.365C516.296 194.696 501.356 213.39 486.806 216.23L406.885 231.833Z" stroke="url(#paint17_linear_1774_10)" stroke-width="2.29412"/>
<path d="M404.949 268.891L397.037 228.362L492.73 209.68C497.676 235.011 482.735 253.705 468.185 256.545L404.949 268.891Z" fill="url(#paint18_linear_1774_10)"/>
<path d="M404.949 268.891L397.037 228.362L492.73 209.68C497.676 235.011 482.735 253.705 468.185 256.545L404.949 268.891Z" stroke="url(#paint19_linear_1774_10)" stroke-width="2.29412"/>
<path d="M378.208 311.51L370.296 270.981L465.989 252.299C470.934 277.63 455.994 296.324 441.444 299.165L378.208 311.51Z" fill="url(#paint20_linear_1774_10)"/>
<path d="M378.208 311.51L370.296 270.981L465.989 252.299C470.934 277.63 455.994 296.324 441.444 299.165L378.208 311.51Z" stroke="url(#paint21_linear_1774_10)" stroke-width="2.29412"/>
<g filter="url(#filter3_d_1774_10)">
<path d="M248.172 318H358.172V457.686L303.784 485.333C302.96 485.752 301.986 485.75 301.163 485.329L248.172 458.166V318Z" fill="url(#paint22_linear_1774_10)"/>
<path d="M248.172 318H358.172V457.686L303.784 485.333C302.96 485.752 301.986 485.75 301.163 485.329L248.172 458.166V318Z" stroke="url(#paint23_linear_1774_10)" stroke-width="2"/>
</g>
<path fill-rule="evenodd" clip-rule="evenodd" d="M319.172 476.511L303.784 484.333C302.96 484.752 301.986 484.75 301.163 484.329L285.172 476.132V374H319.172V476.511Z" fill="url(#paint24_linear_1774_10)"/>
<path fill-rule="evenodd" clip-rule="evenodd" d="M254.172 393H255.766V455.52L302.777 479.821L350.579 455.517V393H352.172V456.084L302.771 481L254.172 456.081V393Z" fill="url(#paint25_linear_1774_10)"/>
<path fill-rule="evenodd" clip-rule="evenodd" d="M303.105 458V476.143H302.235V458H303.105Z" fill="url(#paint26_linear_1774_10)"/>
<path fill-rule="evenodd" clip-rule="evenodd" d="M300.065 469.704C298.335 471.7 296.227 472.144 294.776 471.902L294.919 471.045C296.075 471.237 297.879 470.899 299.408 469.135C300.944 467.364 302.236 464.114 302.236 458.435H303.105C303.105 464.229 301.789 467.716 300.065 469.704Z" fill="url(#paint27_linear_1774_10)"/>
<path fill-rule="evenodd" clip-rule="evenodd" d="M305.276 469.704C307.006 471.7 309.114 472.144 310.565 471.902L310.422 471.045C309.266 471.237 307.462 470.899 305.932 469.135C304.397 467.364 303.105 464.114 303.105 458.435H302.236C302.236 464.229 303.552 467.716 305.276 469.704Z" fill="url(#paint28_linear_1774_10)"/>
<path fill-rule="evenodd" clip-rule="evenodd" d="M302.487 476.538L292.672 471.039L294.845 471.039L302.669 475.665L310.492 471H312.41L302.848 476.539C302.734 476.591 302.602 476.591 302.487 476.538Z" fill="url(#paint29_linear_1774_10)"/>
<g filter="url(#filter4_d_1774_10)">
<path d="M295.049 135.419L187.049 194.17C181.578 197.146 178.172 202.875 178.172 209.103L178.172 343.402C178.172 349.63 181.578 355.359 187.049 358.335L295.049 417.086C300.114 419.841 306.231 419.841 311.296 417.086L419.296 358.335C424.767 355.359 428.172 349.629 428.172 343.402L428.172 209.103C428.172 202.875 424.767 197.146 419.296 194.17L311.296 135.419C306.231 132.664 300.114 132.664 295.049 135.419Z" fill="url(#paint30_linear_1774_10)"/>
<path d="M294.929 157.403L206.015 205.771C200.565 208.736 197.172 214.444 197.172 220.648L197.172 331.352C197.172 337.556 200.565 343.264 206.015 346.229L294.929 394.597C299.976 397.343 306.069 397.343 311.116 394.597L400.03 346.229C405.48 343.264 408.873 337.556 408.873 331.352L408.873 220.648C408.873 214.444 405.48 208.736 400.03 205.771L311.116 157.403C306.069 154.657 299.976 154.657 294.929 157.403Z" fill="url(#paint31_linear_1774_10)"/>
<g filter="url(#filter5_f_1774_10)">
<path d="M294.929 157.403L206.015 205.771C200.565 208.736 197.172 214.444 197.172 220.648L197.172 331.352C197.172 337.556 200.565 343.264 206.015 346.229L294.929 394.597C299.976 397.343 306.069 397.343 311.116 394.597L400.03 346.229C405.48 343.264 408.873 337.556 408.873 331.352L408.873 220.648C408.873 214.444 405.48 208.736 400.03 205.771L311.116 157.403C306.069 154.657 299.976 154.657 294.929 157.403Z" stroke="url(#paint32_linear_1774_10)"/>
</g>
<g opacity="0.5">
<mask id="mask0_1774_10" style="mask-type:alpha" maskUnits="userSpaceOnUse" x="206" y="165" width="196" height="223">
<path d="M295.979 167.181L214.589 211.417C209.402 214.236 206.172 219.667 206.172 225.571L206.172 326.819C206.172 332.723 209.402 338.154 214.589 340.974L295.979 385.209C300.777 387.816 306.568 387.816 311.365 385.209L392.755 340.974C397.943 338.154 401.172 332.723 401.172 326.819L401.172 225.571C401.172 219.667 397.943 214.236 392.755 211.417L311.365 167.181C306.568 164.574 300.777 164.574 295.979 167.181Z" fill="#A6D3DE"/>
</mask>
<g mask="url(#mask0_1774_10)">
<path d="M295.979 167.181L214.589 211.417C209.402 214.236 206.172 219.667 206.172 225.571L206.172 326.819C206.172 332.723 209.402 338.154 214.589 340.974L295.979 385.209C300.777 387.816 306.568 387.816 311.365 385.209L392.755 340.974C397.943 338.154 401.172 332.723 401.172 326.819L401.172 225.571C401.172 219.667 397.943 214.236 392.755 211.417L311.365 167.181C306.568 164.574 300.777 164.574 295.979 167.181Z" fill="url(#paint33_radial_1774_10)"/>
<path opacity="0.5" d="M287.373 393.862L283.5 158.518H323.845L319.972 393.862H287.373Z" fill="url(#paint34_linear_1774_10)"/>
<path opacity="0.5" d="M286.854 391.775L165.828 189.896L200.767 169.724L315.085 375.475L286.854 391.775Z" fill="url(#paint35_linear_1774_10)"/>
<path opacity="0.5" d="M283.492 375.476L397.811 169.725L432.75 189.897L311.724 391.775L283.492 375.476Z" fill="url(#paint36_linear_1774_10)"/>
<rect x="206.172" y="262.742" width="195" height="126.638" fill="url(#paint37_linear_1774_10)"/>
<g filter="url(#filter6_i_1774_10)">
<path d="M295.979 167.181L214.589 211.417C209.402 214.236 206.172 219.667 206.172 225.571L206.172 326.819C206.172 332.723 209.402 338.154 214.589 340.974L295.979 385.209C300.777 387.816 306.568 387.816 311.365 385.209L392.755 340.974C397.943 338.154 401.172 332.723 401.172 326.819L401.172 225.571C401.172 219.667 397.943 214.236 392.755 211.417L311.365 167.181C306.568 164.574 300.777 164.574 295.979 167.181Z" fill="#6052B4" fill-opacity="0.01"/>
</g>
</g>
</g>
</g>
</g>
<g opacity="0.3" filter="url(#filter7_f_1774_10)">
<circle cx="231.615" cy="116.615" r="7.61466" fill="#FFEBC4"/>
</g>
<g filter="url(#filter8_f_1774_10)">
<circle cx="199.538" cy="392.538" r="2.53822" fill="#FFEBC4"/>
</g>
<g opacity="0.3" filter="url(#filter9_f_1774_10)">
<circle cx="220.538" cy="160.538" r="2.53822" fill="#FFEBC4"/>
</g>
<g filter="url(#filter10_f_1774_10)">
<circle cx="434.538" cy="309.538" r="2.53822" fill="#FFEBC4"/>
</g>
<g filter="url(#filter11_f_1774_10)">
<circle cx="128.461" cy="287.135" r="8.46073" fill="#FFDDAA"/>
</g>
<g opacity="0.6" filter="url(#filter12_f_1774_10)">
<circle cx="514.769" cy="250.769" r="6.76858" fill="#FFDDAA"/>
</g>
<g opacity="0.8" filter="url(#filter13_f_1774_10)">
<circle cx="234.769" cy="471.769" r="6.76858" fill="#FFDDAA"/>
</g>
<g filter="url(#filter14_d_1774_10)">
<path fill-rule="evenodd" clip-rule="evenodd" d="M303 290C327.301 290 347 270.301 347 246C347 221.699 327.301 202 303 202C278.699 202 259 221.699 259 246C259 270.301 278.699 290 303 290ZM296.198 287.449C314.629 287.449 329.57 272.508 329.57 254.077C329.57 235.646 314.629 220.705 296.198 220.705C277.767 220.705 262.826 235.646 262.826 254.077C262.826 272.508 277.767 287.449 296.198 287.449Z" fill="url(#paint38_linear_1774_10)"/>
</g>
<g filter="url(#filter15_d_1774_10)">
<path d="M244.345 308.4C246.905 308.4 248.945 309.133 250.465 310.6C251.985 312.04 252.745 314.027 252.745 316.56C252.745 319.093 251.785 321.267 249.865 323.08C247.945 324.867 245.598 325.76 242.825 325.76H240.545L241.025 336H235.665L236.145 326.28L235.665 308.4H244.345ZM242.905 312.44H240.945L240.665 321.88H243.385C244.718 321.88 245.745 321.44 246.465 320.56C247.212 319.68 247.585 318.427 247.585 316.8C247.585 313.893 246.025 312.44 242.905 312.44ZM256.016 336L256.496 326.28L256.016 308.4H271.016L270.576 312.68H261.576L261.336 319.76H269.336L268.896 324H261.176L261.136 325.6L261.416 331.76H271.096L270.656 336H256.016ZM282.864 325.36H280.584V325.6L281.064 336H275.704L276.184 326.28L275.704 308.4H284.384C286.944 308.4 288.984 309.093 290.504 310.48C292.024 311.867 292.784 313.707 292.784 316C292.784 317.733 292.331 319.32 291.424 320.76C290.544 322.173 289.344 323.293 287.824 324.12L294.784 333.96L289.944 336.44L283.704 325.32C283.517 325.347 283.237 325.36 282.864 325.36ZM282.944 312.44H280.984L280.704 321.48H283.424C284.757 321.48 285.784 321.04 286.504 320.16C287.251 319.28 287.624 318.027 287.624 316.4C287.624 313.76 286.064 312.44 282.944 312.44ZM312.908 312.68H304.388L304.148 320.04H311.788L311.348 324.28H304.028L303.988 325.6L304.468 336H298.868L299.348 326.28L298.868 308.4H313.348L312.908 312.68ZM316.563 336L317.043 326.28L316.563 308.4H331.563L331.123 312.68H322.123L321.883 319.76H329.883L329.443 324H321.723L321.683 325.6L321.963 331.76H331.643L331.203 336H316.563ZM344.771 336.44C341.811 336.44 339.317 335.2 337.291 332.72C335.264 330.24 334.251 327.2 334.251 323.6C334.251 319.2 335.464 315.493 337.891 312.48C340.344 309.467 343.344 307.96 346.891 307.96C348.277 307.96 349.557 308.107 350.731 308.4C351.931 308.667 352.784 308.947 353.291 309.24L354.011 309.68L351.291 315.24C350.677 314.707 349.811 314.213 348.691 313.76C347.571 313.28 346.557 313.04 345.651 313.04C343.811 313.04 342.331 313.8 341.211 315.32C340.117 316.84 339.571 319.013 339.571 321.84C339.571 324.64 340.144 326.947 341.291 328.76C342.437 330.547 343.997 331.44 345.971 331.44C347.251 331.44 348.411 331.04 349.451 330.24C350.491 329.44 351.224 328.373 351.651 327.04L354.971 328.96C354.091 331.307 352.744 333.147 350.931 334.48C349.117 335.787 347.064 336.44 344.771 336.44ZM355.082 313L355.522 308.4H374.522L374.082 313L367.122 312.4L366.962 325.6L367.442 336H361.842L362.322 326.28L362.162 312.44L355.082 313Z" fill="url(#paint39_linear_1774_10)"/>
</g>
<defs>
<filter id="filter0_dd_1774_10" x="0.232651" y="47.6388" width="605.691" height="536.966" filterUnits="userSpaceOnUse" color-interpolation-filters="sRGB">
<feFlood flood-opacity="0" result="BackgroundImageFix"/>
<feColorMatrix in="SourceAlpha" type="matrix" values="0 0 0 0 0 0 0 0 0 0 0 0 0 0 0 0 0 0 127 0" result="hardAlpha"/>
<feOffset/>
<feGaussianBlur stdDeviation="15.306"/>
<feColorMatrix type="matrix" values="0 0 0 0 0.991667 0 0 0 0 0.801597 0 0 0 0 0.516493 0 0 0 1 0"/>
<feBlend mode="normal" in2="BackgroundImageFix" result="effect1_dropShadow_1774_10"/>
<feColorMatrix in="SourceAlpha" type="matrix" values="0 0 0 0 0 0 0 0 0 0 0 0 0 0 0 0 0 0 127 0" result="hardAlpha"/>
<feOffset dy="6.12241"/>
<feGaussianBlur stdDeviation="45.9181"/>
<feColorMatrix type="matrix" values="0 0 0 0 1 0 0 0 0 0.722667 0 0 0 0 0.466667 0 0 0 0.6 0"/>
<feBlend mode="normal" in2="effect1_dropShadow_1774_10" result="effect2_dropShadow_1774_10"/>
<feBlend mode="normal" in="SourceGraphic" in2="effect2_dropShadow_1774_10" result="shape"/>
</filter>
<filter id="filter1_d_1774_10" x="197.672" y="314.5" width="68.5" height="135.841" filterUnits="userSpaceOnUse" color-interpolation-filters="sRGB">
<feFlood flood-opacity="0" result="BackgroundImageFix"/>
<feColorMatrix in="SourceAlpha" type="matrix" values="0 0 0 0 0 0 0 0 0 0 0 0 0 0 0 0 0 0 127 0" result="hardAlpha"/>
<feOffset/>
<feGaussianBlur stdDeviation="4"/>
<feColorMatrix type="matrix" values="0 0 0 0 0.7 0 0 0 0 0.561568 0 0 0 0 0.32375 0 0 0 0.78 0"/>
<feBlend mode="normal" in2="BackgroundImageFix" result="effect1_dropShadow_1774_10"/>
<feBlend mode="normal" in="SourceGraphic" in2="effect1_dropShadow_1774_10" result="shape"/>
</filter>
<filter id="filter2_d_1774_10" x="340.672" y="314.5" width="68.5" height="135.841" filterUnits="userSpaceOnUse" color-interpolation-filters="sRGB">
<feFlood flood-opacity="0" result="BackgroundImageFix"/>
<feColorMatrix in="SourceAlpha" type="matrix" values="0 0 0 0 0 0 0 0 0 0 0 0 0 0 0 0 0 0 127 0" result="hardAlpha"/>
<feOffset/>
<feGaussianBlur stdDeviation="4"/>
<feColorMatrix type="matrix" values="0 0 0 0 0.7 0 0 0 0 0.561568 0 0 0 0 0.32375 0 0 0 0.78 0"/>
<feBlend mode="normal" in2="BackgroundImageFix" result="effect1_dropShadow_1774_10"/>
<feBlend mode="normal" in="SourceGraphic" in2="effect1_dropShadow_1774_10" result="shape"/>
</filter>
<filter id="filter3_d_1774_10" x="239.172" y="309" width="128" height="185.646" filterUnits="userSpaceOnUse" color-interpolation-filters="sRGB">
<feFlood flood-opacity="0" result="BackgroundImageFix"/>
<feColorMatrix in="SourceAlpha" type="matrix" values="0 0 0 0 0 0 0 0 0 0 0 0 0 0 0 0 0 0 127 0" result="hardAlpha"/>
<feOffset/>
<feGaussianBlur stdDeviation="4"/>
<feColorMatrix type="matrix" values="0 0 0 0 0.7 0 0 0 0 0.561568 0 0 0 0 0.32375 0 0 0 0.78 0"/>
<feBlend mode="normal" in2="BackgroundImageFix" result="effect1_dropShadow_1774_10"/>
<feBlend mode="normal" in="SourceGraphic" in2="effect1_dropShadow_1774_10" result="shape"/>
</filter>
<filter id="filter4_d_1774_10" x="172.172" y="133.353" width="262" height="299.8" filterUnits="userSpaceOnUse" color-interpolation-filters="sRGB">
<feFlood flood-opacity="0" result="BackgroundImageFix"/>
<feColorMatrix in="SourceAlpha" type="matrix" values="0 0 0 0 0 0 0 0 0 0 0 0 0 0 0 0 0 0 127 0" result="hardAlpha"/>
<feOffset dy="8"/>
<feGaussianBlur stdDeviation="3"/>
<feColorMatrix type="matrix" values="0 0 0 0 0.4375 0 0 0 0 0.287401 0 0 0 0 0.111198 0 0 0 0.6 0"/>
<feBlend mode="normal" in2="BackgroundImageFix" result="effect1_dropShadow_1774_10"/>
<feBlend mode="normal" in="SourceGraphic" in2="effect1_dropShadow_1774_10" result="shape"/>
</filter>
<filter id="filter5_f_1774_10" x="196.372" y="154.544" width="213.3" height="242.913" filterUnits="userSpaceOnUse" color-interpolation-filters="sRGB">
<feFlood flood-opacity="0" result="BackgroundImageFix"/>
<feBlend mode="normal" in="SourceGraphic" in2="BackgroundImageFix" result="shape"/>
<feGaussianBlur stdDeviation="0.15" result="effect1_foregroundBlur_1774_10"/>
</filter>
<filter id="filter6_i_1774_10" x="206.172" y="165.226" width="195" height="221.939" filterUnits="userSpaceOnUse" color-interpolation-filters="sRGB">
<feFlood flood-opacity="0" result="BackgroundImageFix"/>
<feBlend mode="normal" in="SourceGraphic" in2="BackgroundImageFix" result="shape"/>
<feColorMatrix in="SourceAlpha" type="matrix" values="0 0 0 0 0 0 0 0 0 0 0 0 0 0 0 0 0 0 127 0" result="hardAlpha"/>
<feOffset/>
<feGaussianBlur stdDeviation="6.72414"/>
<feComposite in2="hardAlpha" operator="arithmetic" k2="-1" k3="1"/>
<feColorMatrix type="matrix" values="0 0 0 0 0.458333 0 0 0 0 0.256743 0 0 0 0 0.0706597 0 0 0 1 0"/>
<feBlend mode="normal" in2="shape" result="effect1_innerShadow_1774_10"/>
</filter>
<filter id="filter7_f_1774_10" x="203.694" y="88.6942" width="55.841" height="55.841" filterUnits="userSpaceOnUse" color-interpolation-filters="sRGB">
<feFlood flood-opacity="0" result="BackgroundImageFix"/>
<feBlend mode="normal" in="SourceGraphic" in2="BackgroundImageFix" result="shape"/>
<feGaussianBlur stdDeviation="10.1529" result="effect1_foregroundBlur_1774_10"/>
</filter>
<filter id="filter8_f_1774_10" x="195.308" y="388.308" width="8.46095" height="8.46046" filterUnits="userSpaceOnUse" color-interpolation-filters="sRGB">
<feFlood flood-opacity="0" result="BackgroundImageFix"/>
<feBlend mode="normal" in="SourceGraphic" in2="BackgroundImageFix" result="shape"/>
<feGaussianBlur stdDeviation="0.846073" result="effect1_foregroundBlur_1774_10"/>
</filter>
<filter id="filter9_f_1774_10" x="210" y="150" width="21.0767" height="21.0762" filterUnits="userSpaceOnUse" color-interpolation-filters="sRGB">
<feFlood flood-opacity="0" result="BackgroundImageFix"/>
<feBlend mode="normal" in="SourceGraphic" in2="BackgroundImageFix" result="shape"/>
<feGaussianBlur stdDeviation="4" result="effect1_foregroundBlur_1774_10"/>
</filter>
<filter id="filter10_f_1774_10" x="426" y="301" width="17.0767" height="17.0762" filterUnits="userSpaceOnUse" color-interpolation-filters="sRGB">
<feFlood flood-opacity="0" result="BackgroundImageFix"/>
<feBlend mode="normal" in="SourceGraphic" in2="BackgroundImageFix" result="shape"/>
<feGaussianBlur stdDeviation="3" result="effect1_foregroundBlur_1774_10"/>
</filter>
<filter id="filter11_f_1774_10" x="100" y="258.674" width="56.9214" height="56.9219" filterUnits="userSpaceOnUse" color-interpolation-filters="sRGB">
<feFlood flood-opacity="0" result="BackgroundImageFix"/>
<feBlend mode="normal" in="SourceGraphic" in2="BackgroundImageFix" result="shape"/>
<feGaussianBlur stdDeviation="10" result="effect1_foregroundBlur_1774_10"/>
</filter>
<filter id="filter12_f_1774_10" x="491.079" y="227.079" width="47.38" height="47.38" filterUnits="userSpaceOnUse" color-interpolation-filters="sRGB">
<feFlood flood-opacity="0" result="BackgroundImageFix"/>
<feBlend mode="normal" in="SourceGraphic" in2="BackgroundImageFix" result="shape"/>
<feGaussianBlur stdDeviation="8.46073" result="effect1_foregroundBlur_1774_10"/>
</filter>
<filter id="filter13_f_1774_10" x="211.079" y="448.079" width="47.38" height="47.38" filterUnits="userSpaceOnUse" color-interpolation-filters="sRGB">
<feFlood flood-opacity="0" result="BackgroundImageFix"/>
<feBlend mode="normal" in="SourceGraphic" in2="BackgroundImageFix" result="shape"/>
<feGaussianBlur stdDeviation="8.46073" result="effect1_foregroundBlur_1774_10"/>
</filter>
<filter id="filter14_d_1774_10" x="252.129" y="198.384" width="102.466" height="102.466" filterUnits="userSpaceOnUse" color-interpolation-filters="sRGB">
<feFlood flood-opacity="0" result="BackgroundImageFix"/>
<feColorMatrix in="SourceAlpha" type="matrix" values="0 0 0 0 0 0 0 0 0 0 0 0 0 0 0 0 0 0 127 0" result="hardAlpha"/>
<feOffset dx="0.361644" dy="3.61644"/>
<feGaussianBlur stdDeviation="3.61644"/>
<feColorMatrix type="matrix" values="0 0 0 0 0.795833 0 0 0 0 0.519745 0 0 0 0 0.195642 0 0 0 0.42 0"/>
<feBlend mode="normal" in2="BackgroundImageFix" result="effect1_dropShadow_1774_10"/>
<feBlend mode="normal" in="SourceGraphic" in2="effect1_dropShadow_1774_10" result="shape"/>
</filter>
<filter id="filter15_d_1774_10" x="228.794" y="304.344" width="153.323" height="42.9462" filterUnits="userSpaceOnUse" color-interpolation-filters="sRGB">
<feFlood flood-opacity="0" result="BackgroundImageFix"/>
<feColorMatrix in="SourceAlpha" type="matrix" values="0 0 0 0 0 0 0 0 0 0 0 0 0 0 0 0 0 0 127 0" result="hardAlpha"/>
<feOffset dx="0.361644" dy="3.61644"/>
<feGaussianBlur stdDeviation="3.61644"/>
<feColorMatrix type="matrix" values="0 0 0 0 0.795833 0 0 0 0 0.519745 0 0 0 0 0.195642 0 0 0 0.42 0"/>
<feBlend mode="normal" in2="BackgroundImageFix" result="effect1_dropShadow_1774_10"/>
<feBlend mode="normal" in="SourceGraphic" in2="effect1_dropShadow_1774_10" result="shape"/>
</filter>
<linearGradient id="paint0_linear_1774_10" x1="540.453" y1="414.196" x2="351.631" y2="305.18" gradientUnits="userSpaceOnUse">
<stop stop-color="#FFF6D6" stop-opacity="0"/>
<stop offset="1" stop-color="#FFEFC5" stop-opacity="0.4"/>
</linearGradient>
<linearGradient id="paint1_linear_1774_10" x1="305.015" y1="552.101" x2="305.015" y2="334.069" gradientUnits="userSpaceOnUse">
<stop stop-color="#FFF6D6" stop-opacity="0"/>
<stop offset="1" stop-color="#FFEFC5" stop-opacity="0.4"/>
</linearGradient>
<linearGradient id="paint2_linear_1774_10" x1="303.517" y1="0" x2="303.517" y2="218.032" gradientUnits="userSpaceOnUse">
<stop stop-color="#FFF6D6" stop-opacity="0"/>
<stop offset="1" stop-color="#FFEFC5" stop-opacity="0.4"/>
</linearGradient>
<linearGradient id="paint3_linear_1774_10" x1="68.2583" y1="414.888" x2="257.079" y2="305.872" gradientUnits="userSpaceOnUse">
<stop stop-color="#FFF6D6" stop-opacity="0"/>
<stop offset="1" stop-color="#FFEFC5" stop-opacity="0.4"/>
</linearGradient>
<linearGradient id="paint4_linear_1774_10" x1="540.453" y1="138.048" x2="351.631" y2="247.064" gradientUnits="userSpaceOnUse">
<stop stop-color="#FFF6D6" stop-opacity="0"/>
<stop offset="1" stop-color="#FFEFC5" stop-opacity="0.4"/>
</linearGradient>
<linearGradient id="paint5_linear_1774_10" x1="68.2583" y1="137.356" x2="257.079" y2="246.372" gradientUnits="userSpaceOnUse">
<stop stop-color="#FFF6D6" stop-opacity="0"/>
<stop offset="1" stop-color="#FFEFC5" stop-opacity="0.4"/>
</linearGradient>
<linearGradient id="paint6_linear_1774_10" x1="143.664" y1="218.653" x2="116.03" y2="177.613" gradientUnits="userSpaceOnUse">
<stop stop-color="#D2A86B"/>
<stop offset="0.875" stop-color="#FFF5DE"/>
</linearGradient>
<linearGradient id="paint7_linear_1774_10" x1="100.435" y1="169.159" x2="125.171" y2="216.062" gradientUnits="userSpaceOnUse">
<stop stop-color="#FFF5DE"/>
<stop offset="0.378992" stop-color="#F5E3C4"/>
<stop offset="0.480868" stop-color="#E6CA9E"/>
<stop offset="0.729174" stop-color="#D2A86B"/>
</linearGradient>
<linearGradient id="paint8_linear_1774_10" x1="164.056" y1="260.333" x2="136.422" y2="219.293" gradientUnits="userSpaceOnUse">
<stop stop-color="#E0C08E"/>
<stop offset="0.875" stop-color="#FFF5DE"/>
</linearGradient>
<linearGradient id="paint9_linear_1774_10" x1="119.055" y1="209.474" x2="174.672" y2="275.5" gradientUnits="userSpaceOnUse">
<stop stop-color="#FFF5DE"/>
<stop offset="0.378992" stop-color="#FFF5DE"/>
<stop offset="0.480868" stop-color="#EAD2A9"/>
<stop offset="0.729174" stop-color="#D2A86B"/>
</linearGradient>
<linearGradient id="paint10_linear_1774_10" x1="190.797" y1="302.952" x2="163.164" y2="261.912" gradientUnits="userSpaceOnUse">
<stop stop-color="#E0C08E"/>
<stop offset="0.875" stop-color="#FFF5DE"/>
</linearGradient>
<linearGradient id="paint11_linear_1774_10" x1="145.797" y1="252.093" x2="201.414" y2="318.119" gradientUnits="userSpaceOnUse">
<stop stop-color="#FFF5DE"/>
<stop offset="0.378992" stop-color="#FFF5DE"/>
<stop offset="0.480868" stop-color="#EAD2A9"/>
<stop offset="0.729174" stop-color="#D2A86B"/>
</linearGradient>
<linearGradient id="paint12_linear_1774_10" x1="206.172" y1="403.763" x2="259.046" y2="415.71" gradientUnits="userSpaceOnUse">
<stop stop-color="#8D664F"/>
<stop offset="0.208702" stop-color="#C49F7D"/>
<stop offset="0.648432" stop-color="#FFF1DC"/>
<stop offset="0.827985" stop-color="#B38368"/>
<stop offset="0.971703" stop-color="#8C5F4C"/>
</linearGradient>
<linearGradient id="paint13_linear_1774_10" x1="212.672" y1="402" x2="231.798" y2="396.298" gradientUnits="userSpaceOnUse">
<stop stop-color="#C7A383"/>
<stop offset="0.309893" stop-color="#D5B198"/>
<stop offset="0.523799" stop-color="#CBA68C"/>
<stop offset="0.77229" stop-color="#BB9478"/>
<stop offset="1" stop-color="#D7B49B"/>
</linearGradient>
<linearGradient id="paint14_linear_1774_10" x1="400.672" y1="403.763" x2="347.799" y2="415.71" gradientUnits="userSpaceOnUse">
<stop stop-color="#8D664F"/>
<stop offset="0.208702" stop-color="#C49F7D"/>
<stop offset="0.648432" stop-color="#FFF1DC"/>
<stop offset="0.827985" stop-color="#B38368"/>
<stop offset="0.971703" stop-color="#8C5F4C"/>
</linearGradient>
<linearGradient id="paint15_linear_1774_10" x1="394.173" y1="402" x2="375.047" y2="396.298" gradientUnits="userSpaceOnUse">
<stop stop-color="#C7A383"/>
<stop offset="0.309893" stop-color="#D5B198"/>
<stop offset="0.523799" stop-color="#CBA68C"/>
<stop offset="0.77229" stop-color="#BB9478"/>
<stop offset="1" stop-color="#D7B49B"/>
</linearGradient>
<linearGradient id="paint16_linear_1774_10" x1="462.493" y1="219.958" x2="490.127" y2="178.917" gradientUnits="userSpaceOnUse">
<stop stop-color="#D2A86B"/>
<stop offset="0.875" stop-color="#FFF5DE"/>
</linearGradient>
<linearGradient id="paint17_linear_1774_10" x1="505.722" y1="170.464" x2="480.986" y2="217.367" gradientUnits="userSpaceOnUse">
<stop stop-color="#FFF5DE"/>
<stop offset="0.378992" stop-color="#F5E3C4"/>
<stop offset="0.480868" stop-color="#E6CA9E"/>
<stop offset="0.729174" stop-color="#D2A86B"/>
</linearGradient>
<linearGradient id="paint18_linear_1774_10" x1="442.101" y1="261.638" x2="469.734" y2="220.597" gradientUnits="userSpaceOnUse">
<stop stop-color="#E0C08E"/>
<stop offset="0.875" stop-color="#FFF5DE"/>
</linearGradient>
<linearGradient id="paint19_linear_1774_10" x1="487.101" y1="210.779" x2="431.484" y2="276.805" gradientUnits="userSpaceOnUse">
<stop stop-color="#FFF5DE"/>
<stop offset="0.378992" stop-color="#FFF5DE"/>
<stop offset="0.480868" stop-color="#EAD2A9"/>
<stop offset="0.729174" stop-color="#D2A86B"/>
</linearGradient>
<linearGradient id="paint20_linear_1774_10" x1="415.36" y1="304.257" x2="442.993" y2="263.216" gradientUnits="userSpaceOnUse">
<stop stop-color="#E0C08E"/>
<stop offset="0.875" stop-color="#FFF5DE"/>
</linearGradient>
<linearGradient id="paint21_linear_1774_10" x1="460.36" y1="253.398" x2="404.743" y2="319.424" gradientUnits="userSpaceOnUse">
<stop stop-color="#FFF5DE"/>
<stop offset="0.378992" stop-color="#FFF5DE"/>
<stop offset="0.480868" stop-color="#EAD2A9"/>
<stop offset="0.729174" stop-color="#D2A86B"/>
</linearGradient>
<linearGradient id="paint22_linear_1774_10" x1="303.172" y1="392" x2="303.172" y2="486" gradientUnits="userSpaceOnUse">
<stop stop-color="#B58D70"/>
<stop offset="0.2286" stop-color="#B58D70"/>
<stop offset="0.47675" stop-color="#D8B59B"/>
<stop offset="0.88344" stop-color="#B58D70"/>
<stop offset="1" stop-color="#B58D70"/>
</linearGradient>
<linearGradient id="paint23_linear_1774_10" x1="248.172" y1="432.5" x2="354.545" y2="468.71" gradientUnits="userSpaceOnUse">
<stop stop-color="#8D664F"/>
<stop offset="0.208702" stop-color="#FFF5E6"/>
<stop offset="0.648432" stop-color="#ECD8BA"/>
<stop offset="0.780206" stop-color="#D0A568"/>
<stop offset="0.971703" stop-color="#8C5F4C"/>
</linearGradient>
<linearGradient id="paint24_linear_1774_10" x1="302.172" y1="374" x2="302.172" y2="484.646" gradientUnits="userSpaceOnUse">
<stop stop-color="#DDBFA9"/>
<stop offset="0.22229" stop-color="#DDBFA9"/>
<stop offset="0.669825" stop-color="#EBD4C4"/>
<stop offset="0.898796" stop-color="#DDBFA9"/>
<stop offset="1" stop-color="#DDBFA9"/>
</linearGradient>
<linearGradient id="paint25_linear_1774_10" x1="347.548" y1="445.339" x2="307.42" y2="414.246" gradientUnits="userSpaceOnUse">
<stop stop-color="#ECD8BA"/>
<stop offset="0.309893" stop-color="#EBD3AE"/>
<stop offset="0.523799" stop-color="#E2C69C"/>
<stop offset="0.77229" stop-color="#E3C8A0"/>
<stop offset="1" stop-color="#ECD8BA"/>
</linearGradient>
<linearGradient id="paint26_linear_1774_10" x1="302.67" y1="458" x2="302.67" y2="474.95" gradientUnits="userSpaceOnUse">
<stop stop-color="#FAECD8"/>
<stop offset="0.491891" stop-color="#F9EBD7"/>
<stop offset="1" stop-color="#ECD5B4"/>
</linearGradient>
<linearGradient id="paint27_linear_1774_10" x1="298.941" y1="458.435" x2="298.941" y2="471.962" gradientUnits="userSpaceOnUse">
<stop stop-color="#F9EBD7"/>
<stop offset="0.479167" stop-color="#FAEDD9"/>
<stop offset="1" stop-color="#F8E9D4"/>
</linearGradient>
<linearGradient id="paint28_linear_1774_10" x1="306.4" y1="458.435" x2="306.4" y2="471.962" gradientUnits="userSpaceOnUse">
<stop stop-color="#FAEDD8"/>
<stop offset="0.479167" stop-color="#FAECD8"/>
<stop offset="1" stop-color="#EAD4B2"/>
</linearGradient>
<linearGradient id="paint29_linear_1774_10" x1="301.617" y1="472.907" x2="290.341" y2="474.242" gradientUnits="userSpaceOnUse">
<stop stop-color="#E5CBA6"/>
<stop offset="0.309893" stop-color="#FAEDDA"/>
<stop offset="0.523799" stop-color="#F3E2C9"/>
<stop offset="0.613641" stop-color="#EFDCC0"/>
<stop offset="1" stop-color="#EFDCC0"/>
</linearGradient>
<linearGradient id="paint30_linear_1774_10" x1="250.672" y1="166" x2="363.172" y2="389.5" gradientUnits="userSpaceOnUse">
<stop stop-color="#FFF5DE"/>
<stop offset="1" stop-color="#CFA365"/>
</linearGradient>
<linearGradient id="paint31_linear_1774_10" x1="249.672" y1="184.5" x2="346.672" y2="363.5" gradientUnits="userSpaceOnUse">
<stop stop-color="#D2A86C"/>
<stop offset="1" stop-color="#F8E6C0"/>
</linearGradient>
<linearGradient id="paint32_linear_1774_10" x1="260.172" y1="178" x2="364.672" y2="366" gradientUnits="userSpaceOnUse">
<stop stop-color="#FFF6E7"/>
<stop offset="1" stop-color="#FFF8EC"/>
</linearGradient>
<radialGradient id="paint33_radial_1774_10" cx="0" cy="0" r="1" gradientUnits="userSpaceOnUse" gradientTransform="translate(303.672 276.195) rotate(90) scale(113.195 97.5)">
<stop stop-color="#FFE4BA"/>
<stop offset="1" stop-color="#DEA44D"/>
</radialGradient>
<linearGradient id="paint34_linear_1774_10" x1="303.672" y1="158.518" x2="303.672" y2="393.862" gradientUnits="userSpaceOnUse">
<stop stop-color="white"/>
<stop offset="1" stop-color="#F2EDED" stop-opacity="0"/>
</linearGradient>
<linearGradient id="paint35_linear_1774_10" x1="183.297" y1="179.81" x2="300.97" y2="383.625" gradientUnits="userSpaceOnUse">
<stop stop-color="white"/>
<stop offset="1" stop-color="#F2EDED" stop-opacity="0"/>
</linearGradient>
<linearGradient id="paint36_linear_1774_10" x1="415.28" y1="179.811" x2="297.608" y2="383.625" gradientUnits="userSpaceOnUse">
<stop stop-color="white"/>
<stop offset="1" stop-color="#F2EDED" stop-opacity="0"/>
</linearGradient>
<linearGradient id="paint37_linear_1774_10" x1="303.672" y1="317.656" x2="303.084" y2="381.534" gradientUnits="userSpaceOnUse">
<stop stop-color="white" stop-opacity="0"/>
<stop offset="1" stop-color="#FFF1E3"/>
</linearGradient>
<linearGradient id="paint38_linear_1774_10" x1="296.03" y1="179.941" x2="356.342" y2="198.271" gradientUnits="userSpaceOnUse">
<stop offset="0.168737" stop-color="#FDF2D9"/>
<stop offset="0.304755" stop-color="#FFF7E3"/>
<stop offset="0.451944" stop-color="#FFFCF4"/>
<stop offset="0.581036" stop-color="#FFF1D9"/>
<stop offset="0.705947" stop-color="#F3E0BF"/>
<stop offset="0.940592" stop-color="#FFF5DE"/>
</linearGradient>
<linearGradient id="paint39_linear_1774_10" x1="292.174" y1="304.984" x2="317.193" y2="350.289" gradientUnits="userSpaceOnUse">
<stop offset="0.168737" stop-color="#FDF2D9"/>
<stop offset="0.304755" stop-color="#FFF7E3"/>
<stop offset="0.451944" stop-color="#FFFCF4"/>
<stop offset="0.581036" stop-color="#FFF1D9"/>
<stop offset="0.705947" stop-color="#F3E0BF"/>
<stop offset="0.940592" stop-color="#FFF5DE"/>
</linearGradient>
</defs>
</svg>
