<svg width="280" height="320" viewBox="0 0 280 320" fill="none" xmlns="http://www.w3.org/2000/svg">
<g filter="url(#filter0_ddd_539_2214)">
<path d="M47.7258 98.3522C47.4773 91.5339 47.3531 88.1247 48.6567 84.4937C49.7748 81.3793 51.8313 78.3654 54.3234 76.1886C57.2291 73.6507 61.4485 72.1731 69.8875 69.2179C87.8437 62.9299 105.167 54.497 121.5 44.6987C128.923 40.2451 132.635 38.0183 135.83 37.3168C139.002 36.6203 141.237 36.6203 144.408 37.3168C147.603 38.0183 151.315 40.2451 158.739 44.6987C175.072 54.497 192.395 62.9299 210.351 69.2179C218.79 72.1731 223.009 73.6507 225.915 76.1886C228.407 78.3654 230.463 81.3793 231.582 84.4937C232.885 88.1247 232.761 91.5339 232.512 98.3522C231.805 117.756 228.303 146.593 215.502 172.621C198.622 206.945 170.429 229.459 153.722 240.549C150.054 242.984 148.22 244.201 144.765 245.027C142.369 245.599 137.869 245.599 135.474 245.027C132.018 244.201 130.184 242.984 126.516 240.549C109.81 229.459 81.6164 206.945 64.736 172.621C51.9354 146.593 48.433 117.756 47.7258 98.3522Z" fill="black"/>
</g>
<mask id="mask0_539_2214" style="mask-type:alpha" maskUnits="userSpaceOnUse" x="47" y="36" width="186" height="210">
<path d="M47.7258 98.3522C47.4773 91.5339 47.3531 88.1247 48.6567 84.4937C49.7748 81.3793 51.8313 78.3654 54.3234 76.1886C57.2291 73.6507 61.4485 72.1731 69.8875 69.2179C87.8437 62.9299 105.167 54.497 121.5 44.6987C128.923 40.2451 132.635 38.0183 135.83 37.3168C139.002 36.6203 141.237 36.6203 144.408 37.3168C147.603 38.0183 151.315 40.2451 158.739 44.6987C175.072 54.497 192.395 62.9299 210.351 69.2179C218.79 72.1731 223.009 73.6507 225.915 76.1886C228.407 78.3654 230.463 81.3793 231.582 84.4937C232.885 88.1247 232.761 91.5339 232.512 98.3522C231.805 117.756 228.303 146.593 215.502 172.621C198.622 206.945 170.429 229.459 153.722 240.549C150.054 242.984 148.22 244.201 144.765 245.027C142.369 245.599 137.869 245.599 135.474 245.027C132.018 244.201 130.184 242.984 126.516 240.549C109.81 229.459 81.6164 206.945 64.736 172.621C51.9354 146.593 48.433 117.756 47.7258 98.3522Z" fill="black"/>
</mask>
<g mask="url(#mask0_539_2214)">
<mask id="mask1_539_2214" style="mask-type:alpha" maskUnits="userSpaceOnUse" x="47" y="36" width="186" height="210">
<path d="M47.7258 98.3522C47.4773 91.5339 47.3531 88.1247 48.6567 84.4937C49.7748 81.3793 51.8313 78.3654 54.3234 76.1886C57.2291 73.6507 61.4485 72.1731 69.8875 69.2179C87.8437 62.9299 105.167 54.497 121.5 44.6987C128.923 40.2451 132.635 38.0183 135.83 37.3168C139.002 36.6203 141.237 36.6203 144.408 37.3168C147.603 38.0183 151.315 40.2451 158.739 44.6987C175.072 54.497 192.395 62.9299 210.351 69.2179C218.79 72.1731 223.009 73.6507 225.915 76.1886C228.407 78.3654 230.463 81.3793 231.582 84.4937C232.885 88.1247 232.761 91.5339 232.512 98.3522C231.805 117.756 228.303 146.593 215.502 172.621C198.622 206.945 170.429 229.459 153.722 240.549C150.054 242.984 148.22 244.201 144.765 245.027C142.369 245.599 137.869 245.599 135.474 245.027C132.018 244.201 130.184 242.984 126.516 240.549C109.81 229.459 81.6164 206.945 64.736 172.621C51.9354 146.593 48.433 117.756 47.7258 98.3522Z" fill="black"/>
</mask>
<g mask="url(#mask1_539_2214)">
<rect width="280" height="280" fill="#EBBA48"/>
<rect width="280" height="280" fill="url(#paint0_linear_539_2214)" fill-opacity="0.6" style="mix-blend-mode:overlay"/>
<rect width="280" height="280" fill="url(#paint1_radial_539_2214)" fill-opacity="0.6" style="mix-blend-mode:overlay"/>
<rect width="280" height="280" fill="black" fill-opacity="0.16" style="mix-blend-mode:overlay"/>
<rect width="280" height="280" fill="black" fill-opacity="0.12" style="mix-blend-mode:darken"/>
</g>
<g filter="url(#filter1_d_539_2214)">
<mask id="mask2_539_2214" style="mask-type:alpha" maskUnits="userSpaceOnUse" x="47" y="36" width="186" height="210">
<path d="M135.83 37.3167C139.002 36.6203 141.237 36.6203 144.408 37.3167C147.603 38.0182 151.315 40.2451 158.739 44.6986C175.071 54.4969 192.395 62.9301 210.351 69.2181C218.79 72.1733 223.01 73.6509 225.915 76.1888C228.407 78.3656 230.464 81.3793 231.582 84.4935C232.886 88.1245 232.761 91.5338 232.513 98.3519L232.438 100.199C231.577 119.555 227.903 147.407 215.502 172.621L214.703 174.221C197.744 207.645 170.168 229.632 153.722 240.549C150.054 242.984 148.221 244.201 144.765 245.027L144.292 245.127C141.98 245.565 138.259 245.565 135.947 245.127L135.474 245.027C132.45 244.305 130.668 243.282 127.813 241.407L126.517 240.549C110.071 229.632 82.4945 207.645 65.5354 174.221L64.7366 172.621C51.9359 146.593 48.433 117.756 47.7258 98.3519C47.4773 91.5338 47.3529 88.1245 48.6565 84.4935C49.7047 81.5737 51.578 78.7419 53.8616 76.6058L54.3235 76.1888C56.8659 73.9681 60.4146 72.5593 66.9153 70.262L69.8879 69.2181C87.2832 63.1266 104.084 55.0215 119.966 45.6126L121.5 44.6986C128.691 40.3845 132.399 38.1597 135.529 37.387L135.83 37.3167ZM142.693 45.1302C140.651 44.6821 139.587 44.6821 137.546 45.1302C137.011 45.2476 136.042 45.5797 134.011 46.6615C131.978 47.744 129.399 49.2889 125.615 51.5589C108.886 61.5949 91.0717 70.2754 72.5315 76.7679C68.2113 78.2808 65.3421 79.2905 63.1721 80.2171C61.0712 81.1143 60.1453 81.7249 59.5862 82.2132C58.1202 83.4937 56.8445 85.3647 56.1868 87.1966C55.5115 89.0774 55.4553 90.7725 55.7209 98.0609C56.4095 116.953 59.8253 144.507 71.9153 169.09C87.9039 201.6 114.779 223.155 130.941 233.884C134.649 236.346 135.416 236.788 137.332 237.245C137.667 237.325 138.69 237.455 140.119 237.455C141.549 237.455 142.572 237.325 142.906 237.245C144.823 236.788 145.59 236.346 149.298 233.884C165.46 223.155 192.335 201.6 208.323 169.09C220.413 144.507 223.829 116.953 224.518 98.0609C224.783 90.7725 224.727 89.0774 224.052 87.1966C223.394 85.3647 222.119 83.4937 220.653 82.2132C220.093 81.7249 219.168 81.1143 217.067 80.2171C214.897 79.2905 212.027 78.2808 207.707 76.7679C189.167 70.2754 171.352 61.5949 154.623 51.5589C150.839 49.2889 148.26 47.744 146.228 46.6615C144.197 45.5797 143.227 45.2476 142.693 45.1302ZM139.292 62.2562C139.834 62.1417 140.405 62.1417 140.947 62.2562C141.563 62.3864 142.136 62.7154 143.281 63.3724C153.768 69.3851 164.144 75.4839 175.113 80.6527C184.647 85.1455 194.499 88.8211 204.363 92.4925C205.9 93.0648 206.669 93.3514 207.237 93.8636C207.73 94.3088 208.12 94.8977 208.337 95.5257C208.587 96.2484 208.552 97.05 208.48 98.6527C207.505 120.384 203.613 142.415 193.966 162.03C182.725 184.885 164.435 203.892 143.631 218.384C142.41 219.235 141.8 219.66 141.083 219.838C140.474 219.99 139.765 219.989 139.156 219.838C138.439 219.66 137.828 219.235 136.607 218.384C115.803 203.892 97.5132 184.885 86.2727 162.03C76.6261 142.415 72.7338 120.384 71.759 98.6527C71.6872 97.0502 71.6507 96.2484 71.9006 95.5257C72.1178 94.8978 72.508 94.3088 73.0012 93.8636C73.569 93.3513 74.3386 93.0648 75.8762 92.4925C85.7445 88.8198 95.5676 85.1572 105.126 80.6527C116.094 75.4839 126.47 69.3851 136.956 63.3724C138.103 62.7152 138.676 62.3864 139.292 62.2562Z" fill="url(#paint2_linear_539_2214)"/>
</mask>
<g mask="url(#mask2_539_2214)">
<rect x="-0.000488281" width="280" height="280" fill="#EBBA48"/>
<rect x="-1" width="280" height="280" fill="url(#paint3_linear_539_2214)" fill-opacity="0.6" style="mix-blend-mode:overlay"/>
<rect x="-1" width="280" height="280" fill="url(#paint4_radial_539_2214)" fill-opacity="0.6" style="mix-blend-mode:overlay"/>
<g style="mix-blend-mode:soft-light">
<path fill-rule="evenodd" clip-rule="evenodd" d="M0 0H140V280H0V0Z" fill="url(#paint5_linear_539_2214)" style="mix-blend-mode:lighten"/>
</g>
</g>
</g>
<g filter="url(#filter2_d_539_2214)">
<path fill-rule="evenodd" clip-rule="evenodd" d="M140 152L134.743 154.764C127.367 158.641 123.679 160.58 120.953 160.075C118.58 159.635 116.533 158.147 115.381 156.027C114.058 153.59 114.762 149.483 116.171 141.27L117.175 135.416L112.922 131.271C106.955 125.454 103.971 122.546 103.609 119.796C103.295 117.404 104.077 114.997 105.737 113.247C107.646 111.235 111.769 110.636 120.015 109.438L125.893 108.584L128.522 103.257C132.21 95.7851 134.054 92.0489 136.557 90.8553C138.735 89.8168 141.265 89.8168 143.443 90.8553C145.947 92.0489 147.791 95.7851 151.478 103.257L154.107 108.584L159.985 109.438C168.231 110.636 172.354 111.235 174.263 113.247C175.924 114.997 176.705 117.404 176.391 119.796C176.029 122.546 173.046 125.454 167.079 131.271L162.825 135.416L163.829 141.27C165.238 149.483 165.942 153.59 164.619 156.027C163.467 158.147 161.42 159.635 159.048 160.075C156.321 160.58 152.633 158.641 145.257 154.764L140 152Z" fill="white"/>
</g>
</g>
<g filter="url(#filter3_dd_539_2214)">
<mask id="path-12-inside-1_539_2214" fill="white">
<path d="M60.3717 182C64.8519 182 67.0921 182 68.8034 182.872C70.3086 183.639 71.5325 184.863 72.2995 186.368C73.1714 188.079 73.1715 190.32 73.1715 194.8V215.2C73.1715 219.68 73.1714 221.921 72.2995 223.632C71.5325 225.137 70.3086 226.361 68.8034 227.128C67.0921 228 64.8519 228 60.3717 228H43.6491C40.3833 228 38.7499 228 37.734 227.312C36.8463 226.711 36.2368 225.779 36.0426 224.725C35.8205 223.518 36.4758 222.022 37.7868 219.031L43.9372 205L37.7868 190.969C36.4758 187.978 35.8205 186.482 36.0426 185.275C36.2368 184.221 36.8463 183.289 37.734 182.688C38.7499 182 40.3833 182 43.6491 182H60.3717ZM236.063 182C239.329 182 240.962 182 241.978 182.688C242.866 183.289 243.475 184.221 243.67 185.275C243.892 186.482 243.236 187.978 241.924 190.969L235.775 205L241.924 219.031C243.236 222.022 243.892 223.518 243.67 224.725C243.475 225.779 242.866 226.711 241.978 227.312C240.962 228 239.329 228 236.063 228H219.34C214.86 228 212.62 228 210.909 227.128C209.404 226.361 208.18 225.137 207.413 223.632C206.541 221.921 206.541 219.68 206.541 215.2V194.8C206.541 190.32 206.541 188.079 207.413 186.368C208.18 184.863 209.404 183.639 210.909 182.872C212.62 182 214.86 182 219.34 182H236.063Z"/>
</mask>
<path d="M60.3717 182C64.8519 182 67.0921 182 68.8034 182.872C70.3086 183.639 71.5325 184.863 72.2995 186.368C73.1714 188.079 73.1715 190.32 73.1715 194.8V215.2C73.1715 219.68 73.1714 221.921 72.2995 223.632C71.5325 225.137 70.3086 226.361 68.8034 227.128C67.0921 228 64.8519 228 60.3717 228H43.6491C40.3833 228 38.7499 228 37.734 227.312C36.8463 226.711 36.2368 225.779 36.0426 224.725C35.8205 223.518 36.4758 222.022 37.7868 219.031L43.9372 205L37.7868 190.969C36.4758 187.978 35.8205 186.482 36.0426 185.275C36.2368 184.221 36.8463 183.289 37.734 182.688C38.7499 182 40.3833 182 43.6491 182H60.3717ZM236.063 182C239.329 182 240.962 182 241.978 182.688C242.866 183.289 243.475 184.221 243.67 185.275C243.892 186.482 243.236 187.978 241.924 190.969L235.775 205L241.924 219.031C243.236 222.022 243.892 223.518 243.67 224.725C243.475 225.779 242.866 226.711 241.978 227.312C240.962 228 239.329 228 236.063 228H219.34C214.86 228 212.62 228 210.909 227.128C209.404 226.361 208.18 225.137 207.413 223.632C206.541 221.921 206.541 219.68 206.541 215.2V194.8C206.541 190.32 206.541 188.079 207.413 186.368C208.18 184.863 209.404 183.639 210.909 182.872C212.62 182 214.86 182 219.34 182H236.063Z" fill="#F5F0F0"/>
<path d="M60.3717 182V181.5V182ZM68.8034 182.872L69.0304 182.427L69.0304 182.427L68.8034 182.872ZM72.2995 186.368L72.745 186.141V186.141L72.2995 186.368ZM73.1715 194.8H73.6715H73.1715ZM73.1715 215.2H73.6715H73.1715ZM72.2995 223.632L72.745 223.859V223.859L72.2995 223.632ZM68.8034 227.128L69.0304 227.573L69.0304 227.573L68.8034 227.128ZM60.3717 228V228.5V228ZM37.734 227.312L37.4537 227.727L37.4538 227.727L37.734 227.312ZM36.0426 224.725L35.5509 224.815L35.5509 224.815L36.0426 224.725ZM37.7868 219.031L37.3288 218.831L37.3288 218.831L37.7868 219.031ZM43.9372 205L44.3951 205.201L44.4831 205L44.3951 204.799L43.9372 205ZM37.7868 190.969L37.3288 191.169L37.3288 191.169L37.7868 190.969ZM36.0426 185.275L35.5509 185.185L35.5509 185.185L36.0426 185.275ZM37.734 182.688L37.4538 182.273L37.4537 182.273L37.734 182.688ZM236.063 182V181.5V182ZM241.978 182.688L242.259 182.273L242.258 182.273L241.978 182.688ZM243.67 185.275L244.161 185.185V185.185L243.67 185.275ZM241.924 190.969L241.467 190.768V190.768L241.924 190.969ZM235.775 205L235.317 204.799L235.229 205L235.317 205.201L235.775 205ZM241.924 219.031L241.467 219.232V219.232L241.924 219.031ZM243.67 224.725L244.161 224.815V224.815L243.67 224.725ZM241.978 227.312L242.258 227.727L242.259 227.727L241.978 227.312ZM236.063 228V228.5V228ZM210.909 227.128L210.682 227.573L210.682 227.573L210.909 227.128ZM207.413 223.632L206.967 223.859V223.859L207.413 223.632ZM206.541 215.2H206.041H206.541ZM206.541 194.8H206.041H206.541ZM207.413 186.368L206.967 186.141V186.141L207.413 186.368ZM210.909 182.872L210.682 182.427L210.682 182.427L210.909 182.872ZM60.3717 182V182.5C62.6201 182.5 64.2763 182.5 65.5852 182.607C66.8882 182.714 67.803 182.924 68.5764 183.318L68.8034 182.872L69.0304 182.427C68.0925 181.949 67.0315 181.722 65.6666 181.611C64.3076 181.5 62.6036 181.5 60.3717 181.5V182ZM68.8034 182.872L68.5764 183.318C69.9876 184.037 71.1349 185.184 71.854 186.595L72.2995 186.368L72.745 186.141C71.9301 184.542 70.6297 183.241 69.0304 182.427L68.8034 182.872ZM72.2995 186.368L71.854 186.595C72.248 187.369 72.4576 188.283 72.5641 189.586C72.6711 190.895 72.6715 192.551 72.6715 194.8H73.1715H73.6715C73.6715 192.568 73.6719 190.864 73.5608 189.505C73.4492 188.14 73.2228 187.079 72.745 186.141L72.2995 186.368ZM73.1715 194.8H72.6715V215.2H73.1715H73.6715V194.8H73.1715ZM73.1715 215.2H72.6715C72.6715 217.449 72.6711 219.105 72.5641 220.414C72.4576 221.717 72.248 222.631 71.854 223.405L72.2995 223.632L72.745 223.859C73.2228 222.921 73.4492 221.86 73.5608 220.495C73.6719 219.136 73.6715 217.432 73.6715 215.2H73.1715ZM72.2995 223.632L71.854 223.405C71.1349 224.816 69.9876 225.963 68.5764 226.682L68.8034 227.128L69.0304 227.573C70.6297 226.759 71.9301 225.458 72.745 223.859L72.2995 223.632ZM68.8034 227.128L68.5764 226.682C67.803 227.076 66.8882 227.286 65.5852 227.393C64.2763 227.5 62.6201 227.5 60.3717 227.5V228V228.5C62.6036 228.5 64.3076 228.5 65.6666 228.389C67.0315 228.278 68.0925 228.051 69.0304 227.573L68.8034 227.128ZM60.3717 228V227.5H43.6491V228V228.5H60.3717V228ZM43.6491 228V227.5C42.0065 227.5 40.8087 227.5 39.8932 227.416C38.9782 227.333 38.4173 227.171 38.0143 226.898L37.734 227.312L37.4538 227.727C38.0666 228.141 38.8303 228.324 39.8025 228.412C40.7741 228.501 42.0258 228.5 43.6491 228.5V228ZM37.734 227.312L38.0144 226.898C37.2376 226.373 36.7043 225.557 36.5344 224.634L36.0426 224.725L35.5509 224.815C35.7694 226.001 36.455 227.05 37.4537 227.727L37.734 227.312ZM36.0426 224.725L36.5344 224.634C36.4462 224.155 36.5233 223.577 36.8141 222.705C37.1051 221.834 37.5854 220.736 38.2447 219.232L37.7868 219.031L37.3288 218.831C36.6772 220.317 36.1744 221.463 35.8655 222.389C35.5565 223.315 35.4169 224.087 35.5509 224.815L36.0426 224.725ZM37.7868 219.031L38.2447 219.232L44.3951 205.201L43.9372 205L43.4792 204.799L37.3288 218.831L37.7868 219.031ZM43.9372 205L44.3951 204.799L38.2447 190.768L37.7868 190.969L37.3288 191.169L43.4792 205.201L43.9372 205ZM37.7868 190.969L38.2447 190.768C37.5854 189.264 37.1051 188.166 36.8141 187.295C36.5233 186.423 36.4462 185.845 36.5344 185.366L36.0426 185.275L35.5509 185.185C35.4169 185.913 35.5565 186.685 35.8655 187.611C36.1744 188.537 36.6772 189.683 37.3288 191.169L37.7868 190.969ZM36.0426 185.275L36.5344 185.366C36.7043 184.443 37.2376 183.627 38.0144 183.102L37.734 182.688L37.4537 182.273C36.455 182.95 35.7694 183.999 35.5509 185.185L36.0426 185.275ZM37.734 182.688L38.0143 183.102C38.4173 182.829 38.9782 182.667 39.8932 182.584C40.8087 182.5 42.0065 182.5 43.6491 182.5V182V181.5C42.0258 181.5 40.7741 181.499 39.8025 181.588C38.8303 181.676 38.0666 181.859 37.4538 182.273L37.734 182.688ZM43.6491 182V182.5H60.3717V182V181.5H43.6491V182ZM236.063 182V182.5C237.706 182.5 238.904 182.5 239.819 182.584C240.734 182.667 241.295 182.829 241.698 183.102L241.978 182.688L242.258 182.273C241.646 181.859 240.882 181.676 239.91 181.588C238.938 181.499 237.686 181.5 236.063 181.5V182ZM241.978 182.688L241.698 183.102C242.475 183.627 243.008 184.443 243.178 185.366L243.67 185.275L244.161 185.185C243.943 183.999 243.257 182.95 242.259 182.273L241.978 182.688ZM243.67 185.275L243.178 185.366C243.266 185.844 243.189 186.423 242.898 187.294C242.606 188.166 242.126 189.264 241.467 190.768L241.924 190.969L242.382 191.169C243.034 189.683 243.537 188.537 243.846 187.611C244.155 186.685 244.295 185.913 244.161 185.185L243.67 185.275ZM241.924 190.969L241.467 190.768L235.317 204.799L235.775 205L236.233 205.201L242.382 191.169L241.924 190.969ZM235.775 205L235.317 205.201L241.467 219.232L241.924 219.031L242.382 218.831L236.233 204.799L235.775 205ZM241.924 219.031L241.467 219.232C242.126 220.736 242.606 221.834 242.898 222.706C243.189 223.577 243.266 224.156 243.178 224.634L243.67 224.725L244.161 224.815C244.295 224.087 244.155 223.315 243.846 222.389C243.537 221.463 243.034 220.317 242.382 218.831L241.924 219.031ZM243.67 224.725L243.178 224.634C243.008 225.557 242.475 226.373 241.698 226.898L241.978 227.312L242.259 227.727C243.257 227.05 243.943 226.001 244.161 224.815L243.67 224.725ZM241.978 227.312L241.698 226.898C241.295 227.171 240.734 227.333 239.819 227.416C238.904 227.5 237.706 227.5 236.063 227.5V228V228.5C237.686 228.5 238.938 228.501 239.91 228.412C240.882 228.324 241.646 228.141 242.258 227.727L241.978 227.312ZM236.063 228V227.5H219.34V228V228.5H236.063V228ZM219.34 228V227.5C217.092 227.5 215.436 227.5 214.127 227.393C212.824 227.286 211.909 227.076 211.136 226.682L210.909 227.128L210.682 227.573C211.62 228.051 212.681 228.278 214.046 228.389C215.405 228.5 217.109 228.5 219.34 228.5V228ZM210.909 227.128L211.136 226.682C209.725 225.963 208.577 224.816 207.858 223.405L207.413 223.632L206.967 223.859C207.782 225.458 209.083 226.759 210.682 227.573L210.909 227.128ZM207.413 223.632L207.858 223.405C207.464 222.631 207.255 221.717 207.148 220.414C207.041 219.105 207.041 217.449 207.041 215.2H206.541H206.041C206.041 217.432 206.04 219.136 206.151 220.495C206.263 221.86 206.489 222.921 206.967 223.859L207.413 223.632ZM206.541 215.2H207.041V194.8H206.541H206.041V215.2H206.541ZM206.541 194.8H207.041C207.041 192.551 207.041 190.895 207.148 189.586C207.255 188.283 207.464 187.369 207.858 186.595L207.413 186.368L206.967 186.141C206.489 187.079 206.263 188.14 206.151 189.505C206.04 190.864 206.041 192.568 206.041 194.8H206.541ZM207.413 186.368L207.858 186.595C208.577 185.184 209.725 184.037 211.136 183.318L210.909 182.872L210.682 182.427C209.083 183.241 207.782 184.542 206.967 186.141L207.413 186.368ZM210.909 182.872L211.136 183.318C211.909 182.924 212.824 182.714 214.127 182.607C215.436 182.5 217.092 182.5 219.34 182.5V182V181.5C217.109 181.5 215.405 181.5 214.046 181.611C212.681 181.722 211.62 181.949 210.682 182.427L210.909 182.872ZM219.34 182V182.5H236.063V182V181.5H219.34V182Z" fill="url(#paint6_linear_539_2214)" style="mix-blend-mode:darken" mask="url(#path-12-inside-1_539_2214)"/>
</g>
<path d="M60.3717 182C64.8519 182 67.0921 182 68.8034 182.872C70.3086 183.639 71.5325 184.863 72.2995 186.368C73.1714 188.079 73.1715 190.32 73.1715 194.8V215.2C73.1715 219.68 73.1714 221.921 72.2995 223.632C71.5325 225.137 70.3086 226.361 68.8034 227.128C67.0921 228 64.8519 228 60.3717 228H43.6491C40.3833 228 38.7499 228 37.734 227.312C36.8463 226.711 36.2368 225.779 36.0426 224.725C35.8205 223.518 36.4758 222.022 37.7868 219.031L43.9372 205L37.7868 190.969C36.4758 187.978 35.8205 186.482 36.0426 185.275C36.2368 184.221 36.8463 183.289 37.734 182.688C38.7499 182 40.3833 182 43.6491 182H60.3717ZM236.063 182C239.329 182 240.962 182 241.978 182.688C242.866 183.289 243.475 184.221 243.67 185.275C243.892 186.482 243.236 187.978 241.924 190.969L235.775 205L241.924 219.031C243.236 222.022 243.892 223.518 243.67 224.725C243.475 225.779 242.866 226.711 241.978 227.312C240.962 228 239.329 228 236.063 228H219.34C214.86 228 212.62 228 210.909 227.128C209.404 226.361 208.18 225.137 207.413 223.632C206.541 221.921 206.541 219.68 206.541 215.2V194.8C206.541 190.32 206.541 188.079 207.413 186.368C208.18 184.863 209.404 183.639 210.909 182.872C212.62 182 214.86 182 219.34 182H236.063Z" fill="url(#paint7_linear_539_2214)" fill-opacity="0.3" style="mix-blend-mode:overlay"/>
<path d="M60.3717 182C64.8519 182 67.0921 182 68.8034 182.872C70.3086 183.639 71.5325 184.863 72.2995 186.368C73.1714 188.079 73.1715 190.32 73.1715 194.8V215.2C73.1715 219.68 73.1714 221.921 72.2995 223.632C71.5325 225.137 70.3086 226.361 68.8034 227.128C67.0921 228 64.8519 228 60.3717 228H43.6491C40.3833 228 38.7499 228 37.734 227.312C36.8463 226.711 36.2368 225.779 36.0426 224.725C35.8205 223.518 36.4758 222.022 37.7868 219.031L43.9372 205L37.7868 190.969C36.4758 187.978 35.8205 186.482 36.0426 185.275C36.2368 184.221 36.8463 183.289 37.734 182.688C38.7499 182 40.3833 182 43.6491 182H60.3717ZM236.063 182C239.329 182 240.962 182 241.978 182.688C242.866 183.289 243.475 184.221 243.67 185.275C243.892 186.482 243.236 187.978 241.924 190.969L235.775 205L241.924 219.031C243.236 222.022 243.892 223.518 243.67 224.725C243.475 225.779 242.866 226.711 241.978 227.312C240.962 228 239.329 228 236.063 228H219.34C214.86 228 212.62 228 210.909 227.128C209.404 226.361 208.18 225.137 207.413 223.632C206.541 221.921 206.541 219.68 206.541 215.2V194.8C206.541 190.32 206.541 188.079 207.413 186.368C208.18 184.863 209.404 183.639 210.909 182.872C212.62 182 214.86 182 219.34 182H236.063Z" fill="url(#paint8_radial_539_2214)" fill-opacity="0.6" style="mix-blend-mode:overlay"/>
<path d="M60.3717 182C64.8519 182 67.0921 182 68.8034 182.872C70.3086 183.639 71.5325 184.863 72.2995 186.368C73.1714 188.079 73.1715 190.32 73.1715 194.8V215.2C73.1715 219.68 73.1714 221.921 72.2995 223.632C71.5325 225.137 70.3086 226.361 68.8034 227.128C67.0921 228 64.8519 228 60.3717 228H43.6491C40.3833 228 38.7499 228 37.734 227.312C36.8463 226.711 36.2368 225.779 36.0426 224.725C35.8205 223.518 36.4758 222.022 37.7868 219.031L43.9372 205L37.7868 190.969C36.4758 187.978 35.8205 186.482 36.0426 185.275C36.2368 184.221 36.8463 183.289 37.734 182.688C38.7499 182 40.3833 182 43.6491 182H60.3717ZM236.063 182C239.329 182 240.962 182 241.978 182.688C242.866 183.289 243.475 184.221 243.67 185.275C243.892 186.482 243.236 187.978 241.924 190.969L235.775 205L241.924 219.031C243.236 222.022 243.892 223.518 243.67 224.725C243.475 225.779 242.866 226.711 241.978 227.312C240.962 228 239.329 228 236.063 228H219.34C214.86 228 212.62 228 210.909 227.128C209.404 226.361 208.18 225.137 207.413 223.632C206.541 221.921 206.541 219.68 206.541 215.2V194.8C206.541 190.32 206.541 188.079 207.413 186.368C208.18 184.863 209.404 183.639 210.909 182.872C212.62 182 214.86 182 219.34 182H236.063Z" fill="black" fill-opacity="0.24" style="mix-blend-mode:overlay"/>
<path d="M60.3717 182C64.8519 182 67.0921 182 68.8034 182.872C70.3086 183.639 71.5325 184.863 72.2995 186.368C73.1714 188.079 73.1715 190.32 73.1715 194.8V215.2C73.1715 219.68 73.1714 221.921 72.2995 223.632C71.5325 225.137 70.3086 226.361 68.8034 227.128C67.0921 228 64.8519 228 60.3717 228H43.6491C40.3833 228 38.7499 228 37.734 227.312C36.8463 226.711 36.2368 225.779 36.0426 224.725C35.8205 223.518 36.4758 222.022 37.7868 219.031L43.9372 205L37.7868 190.969C36.4758 187.978 35.8205 186.482 36.0426 185.275C36.2368 184.221 36.8463 183.289 37.734 182.688C38.7499 182 40.3833 182 43.6491 182H60.3717ZM236.063 182C239.329 182 240.962 182 241.978 182.688C242.866 183.289 243.475 184.221 243.67 185.275C243.892 186.482 243.236 187.978 241.924 190.969L235.775 205L241.924 219.031C243.236 222.022 243.892 223.518 243.67 224.725C243.475 225.779 242.866 226.711 241.978 227.312C240.962 228 239.329 228 236.063 228H219.34C214.86 228 212.62 228 210.909 227.128C209.404 226.361 208.18 225.137 207.413 223.632C206.541 221.921 206.541 219.68 206.541 215.2V194.8C206.541 190.32 206.541 188.079 207.413 186.368C208.18 184.863 209.404 183.639 210.909 182.872C212.62 182 214.86 182 219.34 182H236.063Z" fill="black" fill-opacity="0.12" style="mix-blend-mode:darken"/>
<g filter="url(#filter4_dd_539_2214)">
<rect x="51.856" y="170" width="176" height="46" rx="8" fill="#F5F0F0"/>
<rect x="52.106" y="170.25" width="175.5" height="45.5" rx="7.75" stroke="url(#paint9_linear_539_2214)" stroke-width="0.5" stroke-linecap="round" style="mix-blend-mode:darken"/>
</g>
<rect x="51.856" y="170" width="176" height="46" rx="8" fill="url(#paint10_linear_539_2214)" fill-opacity="0.3" style="mix-blend-mode:overlay"/>
<rect x="51.856" y="170" width="176" height="46" rx="8" fill="url(#paint11_radial_539_2214)" fill-opacity="0.6" style="mix-blend-mode:overlay"/>
<g filter="url(#filter5_i_539_2214)">
<circle cx="62.856" cy="193" r="3" fill="black" fill-opacity="0.24" style="mix-blend-mode:color-burn"/>
<circle cx="62.856" cy="193" r="3" fill="black" fill-opacity="0.32" style="mix-blend-mode:darken"/>
</g>
<g filter="url(#filter6_i_539_2214)">
<circle cx="216.856" cy="193" r="3" fill="black" fill-opacity="0.24" style="mix-blend-mode:color-burn"/>
<circle cx="216.856" cy="193" r="3" fill="black" fill-opacity="0.32" style="mix-blend-mode:darken"/>
</g>
<g filter="url(#filter7_i_539_2214)">
<path d="M98.0394 192.44H99.4794C100.295 192.44 100.935 192.248 101.399 191.864C101.879 191.48 102.119 190.928 102.119 190.208C102.119 189.488 101.895 188.944 101.447 188.576C100.999 188.208 100.351 188.024 99.5034 188.024C99.2154 188.024 98.9514 188.032 98.7114 188.048C98.4874 188.064 98.2634 188.088 98.0394 188.12V192.44ZM99.7194 195.32H94.4154V186.728C94.4154 186.424 94.5034 186.184 94.6794 186.008C94.8554 185.832 95.0874 185.696 95.3754 185.6C95.9034 185.408 96.5354 185.272 97.2714 185.192C98.0074 185.112 98.6714 185.072 99.2634 185.072C101.423 185.072 103.055 185.536 104.159 186.464C105.279 187.376 105.839 188.624 105.839 190.208C105.839 191.232 105.591 192.128 105.095 192.896C104.615 193.664 103.919 194.264 103.007 194.696C102.095 195.112 100.999 195.32 99.7194 195.32ZM94.4154 193.712H98.0634V199.976C97.9194 200.024 97.6874 200.064 97.3674 200.096C97.0474 200.144 96.7194 200.168 96.3834 200.168C95.6634 200.168 95.1514 200.04 94.8474 199.784C94.5594 199.528 94.4154 199.08 94.4154 198.44V193.712ZM108.29 189.824H111.842V199.856C111.698 199.888 111.474 199.928 111.17 199.976C110.882 200.024 110.57 200.048 110.234 200.048C109.642 200.048 109.17 199.872 108.818 199.52C108.466 199.168 108.29 198.696 108.29 198.104V189.824ZM111.842 195.632H108.29V187.4C108.29 186.792 108.466 186.32 108.818 185.984C109.17 185.632 109.642 185.456 110.234 185.456C110.57 185.456 110.882 185.48 111.17 185.528C111.474 185.576 111.698 185.616 111.842 185.648V195.632ZM110.234 194.024V191.144H117.482C117.578 191.304 117.666 191.504 117.746 191.744C117.826 191.984 117.866 192.248 117.866 192.536C117.866 193.048 117.746 193.424 117.506 193.664C117.282 193.904 116.978 194.024 116.594 194.024H110.234ZM110.234 200.048V197.144H118.274C118.37 197.288 118.458 197.488 118.538 197.744C118.618 198 118.658 198.272 118.658 198.56C118.658 199.072 118.538 199.448 118.298 199.688C118.074 199.928 117.77 200.048 117.386 200.048H110.234ZM110.234 188.336V185.456H118.154C118.266 185.6 118.354 185.792 118.418 186.032C118.498 186.272 118.538 186.536 118.538 186.824C118.538 187.336 118.426 187.72 118.202 187.976C117.978 188.216 117.666 188.336 117.266 188.336H110.234ZM124.969 192.272H126.529C127.329 192.272 127.969 192.096 128.449 191.744C128.945 191.376 129.193 190.84 129.193 190.136C129.193 189.448 128.961 188.928 128.497 188.576C128.033 188.208 127.321 188.024 126.361 188.024C126.089 188.024 125.841 188.032 125.617 188.048C125.393 188.064 125.177 188.096 124.969 188.144V192.272ZM126.865 195.104H121.345V186.728C121.345 186.424 121.433 186.184 121.609 186.008C121.785 185.832 122.017 185.696 122.305 185.6C122.833 185.408 123.449 185.272 124.153 185.192C124.873 185.112 125.617 185.072 126.385 185.072C128.545 185.072 130.169 185.528 131.257 186.44C132.345 187.336 132.889 188.56 132.889 190.112C132.889 191.072 132.625 191.936 132.097 192.704C131.585 193.456 130.873 194.048 129.961 194.48C129.065 194.896 128.033 195.104 126.865 195.104ZM126.193 194.24L129.457 193.472C129.825 193.984 130.201 194.488 130.585 194.984C130.985 195.48 131.361 195.96 131.713 196.424C132.081 196.888 132.409 197.32 132.697 197.72C132.985 198.104 133.217 198.432 133.393 198.704C133.249 199.184 132.993 199.56 132.625 199.832C132.257 200.088 131.841 200.216 131.377 200.216C130.785 200.216 130.329 200.088 130.009 199.832C129.705 199.56 129.417 199.208 129.145 198.776L126.193 194.24ZM121.345 193.736H124.993V199.976C124.849 200.024 124.617 200.064 124.297 200.096C123.977 200.144 123.649 200.168 123.313 200.168C122.593 200.168 122.081 200.04 121.777 199.784C121.489 199.528 121.345 199.08 121.345 198.44V193.736ZM139.453 194.024H135.829V187.4C135.829 186.792 136.005 186.32 136.357 185.984C136.709 185.632 137.181 185.456 137.773 185.456C138.109 185.456 138.429 185.48 138.733 185.528C139.053 185.576 139.293 185.616 139.453 185.648V194.024ZM137.725 194.576V191.648H144.949C145.045 191.808 145.133 192.016 145.213 192.272C145.293 192.512 145.333 192.776 145.333 193.064C145.333 193.576 145.213 193.96 144.973 194.216C144.749 194.456 144.437 194.576 144.037 194.576H137.725ZM137.773 188.384V185.456H145.765C145.861 185.6 145.949 185.8 146.029 186.056C146.109 186.312 146.149 186.584 146.149 186.872C146.149 187.384 146.029 187.768 145.789 188.024C145.565 188.264 145.253 188.384 144.853 188.384H137.773ZM135.829 192.608H139.477V199.976C139.333 200.024 139.101 200.064 138.781 200.096C138.461 200.144 138.133 200.168 137.797 200.168C137.077 200.168 136.565 200.04 136.261 199.784C135.973 199.528 135.829 199.088 135.829 198.464V192.608ZM148.509 189.824H152.061V199.856C151.917 199.888 151.693 199.928 151.389 199.976C151.101 200.024 150.789 200.048 150.453 200.048C149.861 200.048 149.389 199.872 149.037 199.52C148.685 199.168 148.509 198.696 148.509 198.104V189.824ZM152.061 195.632H148.509V187.4C148.509 186.792 148.685 186.32 149.037 185.984C149.389 185.632 149.861 185.456 150.453 185.456C150.789 185.456 151.101 185.48 151.389 185.528C151.693 185.576 151.917 185.616 152.061 185.648V195.632ZM150.453 194.024V191.144H157.701C157.797 191.304 157.885 191.504 157.965 191.744C158.045 191.984 158.085 192.248 158.085 192.536C158.085 193.048 157.965 193.424 157.725 193.664C157.501 193.904 157.197 194.024 156.813 194.024H150.453ZM150.453 200.048V197.144H158.493C158.589 197.288 158.677 197.488 158.757 197.744C158.837 198 158.877 198.272 158.877 198.56C158.877 199.072 158.757 199.448 158.517 199.688C158.293 199.928 157.989 200.048 157.605 200.048H150.453ZM150.453 188.336V185.456H158.373C158.485 185.6 158.573 185.792 158.637 186.032C158.717 186.272 158.757 186.536 158.757 186.824C158.757 187.336 158.645 187.72 158.421 187.976C158.197 188.216 157.885 188.336 157.485 188.336H150.453ZM172.655 187.424C172.655 187.792 172.559 188.112 172.367 188.384C172.175 188.656 171.959 188.872 171.719 189.032C171.319 188.76 170.863 188.52 170.351 188.312C169.855 188.104 169.263 188 168.575 188C167.727 188 166.991 188.184 166.367 188.552C165.743 188.92 165.263 189.456 164.927 190.16C164.607 190.864 164.447 191.72 164.447 192.728C164.447 194.264 164.831 195.432 165.599 196.232C166.367 197.032 167.423 197.432 168.767 197.432C169.455 197.432 170.047 197.336 170.543 197.144C171.039 196.952 171.495 196.736 171.911 196.496C172.151 196.672 172.343 196.904 172.487 197.192C172.647 197.464 172.727 197.784 172.727 198.152C172.727 198.472 172.639 198.768 172.463 199.04C172.303 199.312 172.023 199.544 171.623 199.736C171.319 199.896 170.887 200.048 170.327 200.192C169.767 200.336 169.087 200.408 168.287 200.408C166.879 200.408 165.591 200.136 164.423 199.592C163.271 199.032 162.359 198.192 161.687 197.072C161.015 195.936 160.679 194.488 160.679 192.728C160.679 191.064 161.007 189.664 161.663 188.528C162.335 187.376 163.231 186.504 164.351 185.912C165.471 185.32 166.711 185.024 168.071 185.024C169.015 185.024 169.831 185.136 170.519 185.36C171.207 185.568 171.735 185.856 172.103 186.224C172.471 186.576 172.655 186.976 172.655 187.424ZM178.724 188.384L178.7 185.456H186.116C186.212 185.6 186.3 185.8 186.38 186.056C186.46 186.312 186.5 186.584 186.5 186.872C186.5 187.384 186.38 187.768 186.14 188.024C185.916 188.264 185.604 188.384 185.204 188.384H178.724ZM182.108 185.456L182.132 188.384H174.716C174.604 188.24 174.508 188.04 174.428 187.784C174.364 187.528 174.332 187.256 174.332 186.968C174.332 186.44 174.444 186.056 174.668 185.816C174.908 185.576 175.22 185.456 175.604 185.456H182.108ZM178.532 187.736H182.204V199.976C182.044 200.024 181.804 200.064 181.484 200.096C181.164 200.144 180.836 200.168 180.5 200.168C179.78 200.168 179.268 200.04 178.964 199.784C178.676 199.528 178.532 199.08 178.532 198.44V187.736Z" fill="black" fill-opacity="0.24" style="mix-blend-mode:color-burn"/>
<path d="M98.0394 192.44H99.4794C100.295 192.44 100.935 192.248 101.399 191.864C101.879 191.48 102.119 190.928 102.119 190.208C102.119 189.488 101.895 188.944 101.447 188.576C100.999 188.208 100.351 188.024 99.5034 188.024C99.2154 188.024 98.9514 188.032 98.7114 188.048C98.4874 188.064 98.2634 188.088 98.0394 188.12V192.44ZM99.7194 195.32H94.4154V186.728C94.4154 186.424 94.5034 186.184 94.6794 186.008C94.8554 185.832 95.0874 185.696 95.3754 185.6C95.9034 185.408 96.5354 185.272 97.2714 185.192C98.0074 185.112 98.6714 185.072 99.2634 185.072C101.423 185.072 103.055 185.536 104.159 186.464C105.279 187.376 105.839 188.624 105.839 190.208C105.839 191.232 105.591 192.128 105.095 192.896C104.615 193.664 103.919 194.264 103.007 194.696C102.095 195.112 100.999 195.32 99.7194 195.32ZM94.4154 193.712H98.0634V199.976C97.9194 200.024 97.6874 200.064 97.3674 200.096C97.0474 200.144 96.7194 200.168 96.3834 200.168C95.6634 200.168 95.1514 200.04 94.8474 199.784C94.5594 199.528 94.4154 199.08 94.4154 198.44V193.712ZM108.29 189.824H111.842V199.856C111.698 199.888 111.474 199.928 111.17 199.976C110.882 200.024 110.57 200.048 110.234 200.048C109.642 200.048 109.17 199.872 108.818 199.52C108.466 199.168 108.29 198.696 108.29 198.104V189.824ZM111.842 195.632H108.29V187.4C108.29 186.792 108.466 186.32 108.818 185.984C109.17 185.632 109.642 185.456 110.234 185.456C110.57 185.456 110.882 185.48 111.17 185.528C111.474 185.576 111.698 185.616 111.842 185.648V195.632ZM110.234 194.024V191.144H117.482C117.578 191.304 117.666 191.504 117.746 191.744C117.826 191.984 117.866 192.248 117.866 192.536C117.866 193.048 117.746 193.424 117.506 193.664C117.282 193.904 116.978 194.024 116.594 194.024H110.234ZM110.234 200.048V197.144H118.274C118.37 197.288 118.458 197.488 118.538 197.744C118.618 198 118.658 198.272 118.658 198.56C118.658 199.072 118.538 199.448 118.298 199.688C118.074 199.928 117.77 200.048 117.386 200.048H110.234ZM110.234 188.336V185.456H118.154C118.266 185.6 118.354 185.792 118.418 186.032C118.498 186.272 118.538 186.536 118.538 186.824C118.538 187.336 118.426 187.72 118.202 187.976C117.978 188.216 117.666 188.336 117.266 188.336H110.234ZM124.969 192.272H126.529C127.329 192.272 127.969 192.096 128.449 191.744C128.945 191.376 129.193 190.84 129.193 190.136C129.193 189.448 128.961 188.928 128.497 188.576C128.033 188.208 127.321 188.024 126.361 188.024C126.089 188.024 125.841 188.032 125.617 188.048C125.393 188.064 125.177 188.096 124.969 188.144V192.272ZM126.865 195.104H121.345V186.728C121.345 186.424 121.433 186.184 121.609 186.008C121.785 185.832 122.017 185.696 122.305 185.6C122.833 185.408 123.449 185.272 124.153 185.192C124.873 185.112 125.617 185.072 126.385 185.072C128.545 185.072 130.169 185.528 131.257 186.44C132.345 187.336 132.889 188.56 132.889 190.112C132.889 191.072 132.625 191.936 132.097 192.704C131.585 193.456 130.873 194.048 129.961 194.48C129.065 194.896 128.033 195.104 126.865 195.104ZM126.193 194.24L129.457 193.472C129.825 193.984 130.201 194.488 130.585 194.984C130.985 195.48 131.361 195.96 131.713 196.424C132.081 196.888 132.409 197.32 132.697 197.72C132.985 198.104 133.217 198.432 133.393 198.704C133.249 199.184 132.993 199.56 132.625 199.832C132.257 200.088 131.841 200.216 131.377 200.216C130.785 200.216 130.329 200.088 130.009 199.832C129.705 199.56 129.417 199.208 129.145 198.776L126.193 194.24ZM121.345 193.736H124.993V199.976C124.849 200.024 124.617 200.064 124.297 200.096C123.977 200.144 123.649 200.168 123.313 200.168C122.593 200.168 122.081 200.04 121.777 199.784C121.489 199.528 121.345 199.08 121.345 198.44V193.736ZM139.453 194.024H135.829V187.4C135.829 186.792 136.005 186.32 136.357 185.984C136.709 185.632 137.181 185.456 137.773 185.456C138.109 185.456 138.429 185.48 138.733 185.528C139.053 185.576 139.293 185.616 139.453 185.648V194.024ZM137.725 194.576V191.648H144.949C145.045 191.808 145.133 192.016 145.213 192.272C145.293 192.512 145.333 192.776 145.333 193.064C145.333 193.576 145.213 193.96 144.973 194.216C144.749 194.456 144.437 194.576 144.037 194.576H137.725ZM137.773 188.384V185.456H145.765C145.861 185.6 145.949 185.8 146.029 186.056C146.109 186.312 146.149 186.584 146.149 186.872C146.149 187.384 146.029 187.768 145.789 188.024C145.565 188.264 145.253 188.384 144.853 188.384H137.773ZM135.829 192.608H139.477V199.976C139.333 200.024 139.101 200.064 138.781 200.096C138.461 200.144 138.133 200.168 137.797 200.168C137.077 200.168 136.565 200.04 136.261 199.784C135.973 199.528 135.829 199.088 135.829 198.464V192.608ZM148.509 189.824H152.061V199.856C151.917 199.888 151.693 199.928 151.389 199.976C151.101 200.024 150.789 200.048 150.453 200.048C149.861 200.048 149.389 199.872 149.037 199.52C148.685 199.168 148.509 198.696 148.509 198.104V189.824ZM152.061 195.632H148.509V187.4C148.509 186.792 148.685 186.32 149.037 185.984C149.389 185.632 149.861 185.456 150.453 185.456C150.789 185.456 151.101 185.48 151.389 185.528C151.693 185.576 151.917 185.616 152.061 185.648V195.632ZM150.453 194.024V191.144H157.701C157.797 191.304 157.885 191.504 157.965 191.744C158.045 191.984 158.085 192.248 158.085 192.536C158.085 193.048 157.965 193.424 157.725 193.664C157.501 193.904 157.197 194.024 156.813 194.024H150.453ZM150.453 200.048V197.144H158.493C158.589 197.288 158.677 197.488 158.757 197.744C158.837 198 158.877 198.272 158.877 198.56C158.877 199.072 158.757 199.448 158.517 199.688C158.293 199.928 157.989 200.048 157.605 200.048H150.453ZM150.453 188.336V185.456H158.373C158.485 185.6 158.573 185.792 158.637 186.032C158.717 186.272 158.757 186.536 158.757 186.824C158.757 187.336 158.645 187.72 158.421 187.976C158.197 188.216 157.885 188.336 157.485 188.336H150.453ZM172.655 187.424C172.655 187.792 172.559 188.112 172.367 188.384C172.175 188.656 171.959 188.872 171.719 189.032C171.319 188.76 170.863 188.52 170.351 188.312C169.855 188.104 169.263 188 168.575 188C167.727 188 166.991 188.184 166.367 188.552C165.743 188.92 165.263 189.456 164.927 190.16C164.607 190.864 164.447 191.72 164.447 192.728C164.447 194.264 164.831 195.432 165.599 196.232C166.367 197.032 167.423 197.432 168.767 197.432C169.455 197.432 170.047 197.336 170.543 197.144C171.039 196.952 171.495 196.736 171.911 196.496C172.151 196.672 172.343 196.904 172.487 197.192C172.647 197.464 172.727 197.784 172.727 198.152C172.727 198.472 172.639 198.768 172.463 199.04C172.303 199.312 172.023 199.544 171.623 199.736C171.319 199.896 170.887 200.048 170.327 200.192C169.767 200.336 169.087 200.408 168.287 200.408C166.879 200.408 165.591 200.136 164.423 199.592C163.271 199.032 162.359 198.192 161.687 197.072C161.015 195.936 160.679 194.488 160.679 192.728C160.679 191.064 161.007 189.664 161.663 188.528C162.335 187.376 163.231 186.504 164.351 185.912C165.471 185.32 166.711 185.024 168.071 185.024C169.015 185.024 169.831 185.136 170.519 185.36C171.207 185.568 171.735 185.856 172.103 186.224C172.471 186.576 172.655 186.976 172.655 187.424ZM178.724 188.384L178.7 185.456H186.116C186.212 185.6 186.3 185.8 186.38 186.056C186.46 186.312 186.5 186.584 186.5 186.872C186.5 187.384 186.38 187.768 186.14 188.024C185.916 188.264 185.604 188.384 185.204 188.384H178.724ZM182.108 185.456L182.132 188.384H174.716C174.604 188.24 174.508 188.04 174.428 187.784C174.364 187.528 174.332 187.256 174.332 186.968C174.332 186.44 174.444 186.056 174.668 185.816C174.908 185.576 175.22 185.456 175.604 185.456H182.108ZM178.532 187.736H182.204V199.976C182.044 200.024 181.804 200.064 181.484 200.096C181.164 200.144 180.836 200.168 180.5 200.168C179.78 200.168 179.268 200.04 178.964 199.784C178.676 199.528 178.532 199.08 178.532 198.44V187.736Z" fill="black" fill-opacity="0.32" style="mix-blend-mode:darken"/>
</g>
<defs>
<filter id="filter0_ddd_539_2214" x="19.5664" y="30.7944" width="241.105" height="288.661" filterUnits="userSpaceOnUse" color-interpolation-filters="sRGB">
<feFlood flood-opacity="0" result="BackgroundImageFix"/>
<feColorMatrix in="SourceAlpha" type="matrix" values="0 0 0 0 0 0 0 0 0 0 0 0 0 0 0 0 0 0 127 0" result="hardAlpha"/>
<feOffset dy="5"/>
<feGaussianBlur stdDeviation="5.5"/>
<feColorMatrix type="matrix" values="0 0 0 0 0 0 0 0 0 0 0 0 0 0 0 0 0 0 0.24 0"/>
<feBlend mode="normal" in2="BackgroundImageFix" result="effect1_dropShadow_539_2214"/>
<feColorMatrix in="SourceAlpha" type="matrix" values="0 0 0 0 0 0 0 0 0 0 0 0 0 0 0 0 0 0 127 0" result="hardAlpha"/>
<feOffset dy="21"/>
<feGaussianBlur stdDeviation="10.5"/>
<feColorMatrix type="matrix" values="0 0 0 0 0 0 0 0 0 0 0 0 0 0 0 0 0 0 0.21 0"/>
<feBlend mode="normal" in2="effect1_dropShadow_539_2214" result="effect2_dropShadow_539_2214"/>
<feColorMatrix in="SourceAlpha" type="matrix" values="0 0 0 0 0 0 0 0 0 0 0 0 0 0 0 0 0 0 127 0" result="hardAlpha"/>
<feOffset dy="46"/>
<feGaussianBlur stdDeviation="14"/>
<feColorMatrix type="matrix" values="0 0 0 0 0 0 0 0 0 0 0 0 0 0 0 0 0 0 0.12 0"/>
<feBlend mode="normal" in2="effect2_dropShadow_539_2214" result="effect3_dropShadow_539_2214"/>
<feBlend mode="normal" in="SourceGraphic" in2="effect3_dropShadow_539_2214" result="shape"/>
</filter>
<filter id="filter1_d_539_2214" x="39.5664" y="30.7944" width="201.106" height="224.661" filterUnits="userSpaceOnUse" color-interpolation-filters="sRGB">
<feFlood flood-opacity="0" result="BackgroundImageFix"/>
<feColorMatrix in="SourceAlpha" type="matrix" values="0 0 0 0 0 0 0 0 0 0 0 0 0 0 0 0 0 0 127 0" result="hardAlpha"/>
<feOffset dy="2"/>
<feGaussianBlur stdDeviation="4"/>
<feColorMatrix type="matrix" values="0 0 0 0 0 0 0 0 0 0 0 0 0 0 0 0 0 0 0.16 0"/>
<feBlend mode="color-burn" in2="BackgroundImageFix" result="effect1_dropShadow_539_2214"/>
<feBlend mode="normal" in="SourceGraphic" in2="effect1_dropShadow_539_2214" result="shape"/>
</filter>
<filter id="filter2_d_539_2214" x="91.541" y="80.0764" width="96.918" height="94.0771" filterUnits="userSpaceOnUse" color-interpolation-filters="sRGB">
<feFlood flood-opacity="0" result="BackgroundImageFix"/>
<feColorMatrix in="SourceAlpha" type="matrix" values="0 0 0 0 0 0 0 0 0 0 0 0 0 0 0 0 0 0 127 0" result="hardAlpha"/>
<feOffset dy="2"/>
<feGaussianBlur stdDeviation="6"/>
<feColorMatrix type="matrix" values="0 0 0 0 0 0 0 0 0 0 0 0 0 0 0 0 0 0 0.12 0"/>
<feBlend mode="plus-darker" in2="BackgroundImageFix" result="effect1_dropShadow_539_2214"/>
<feBlend mode="normal" in="SourceGraphic" in2="effect1_dropShadow_539_2214" result="shape"/>
</filter>
<filter id="filter3_dd_539_2214" x="24" y="174" width="231.712" height="70" filterUnits="userSpaceOnUse" color-interpolation-filters="sRGB">
<feFlood flood-opacity="0" result="BackgroundImageFix"/>
<feColorMatrix in="SourceAlpha" type="matrix" values="0 0 0 0 0 0 0 0 0 0 0 0 0 0 0 0 0 0 127 0" result="hardAlpha"/>
<feOffset dy="4"/>
<feGaussianBlur stdDeviation="6"/>
<feColorMatrix type="matrix" values="0 0 0 0 0 0 0 0 0 0 0 0 0 0 0 0 0 0 0.16 0"/>
<feBlend mode="normal" in2="BackgroundImageFix" result="effect1_dropShadow_539_2214"/>
<feColorMatrix in="SourceAlpha" type="matrix" values="0 0 0 0 0 0 0 0 0 0 0 0 0 0 0 0 0 0 127 0" result="hardAlpha"/>
<feOffset dy="2"/>
<feGaussianBlur stdDeviation="2"/>
<feColorMatrix type="matrix" values="0 0 0 0 0 0 0 0 0 0 0 0 0 0 0 0 0 0 0.24 0"/>
<feBlend mode="normal" in2="effect1_dropShadow_539_2214" result="effect2_dropShadow_539_2214"/>
<feBlend mode="normal" in="SourceGraphic" in2="effect2_dropShadow_539_2214" result="shape"/>
</filter>
<filter id="filter4_dd_539_2214" x="39.856" y="162" width="200" height="70" filterUnits="userSpaceOnUse" color-interpolation-filters="sRGB">
<feFlood flood-opacity="0" result="BackgroundImageFix"/>
<feColorMatrix in="SourceAlpha" type="matrix" values="0 0 0 0 0 0 0 0 0 0 0 0 0 0 0 0 0 0 127 0" result="hardAlpha"/>
<feOffset dy="4"/>
<feGaussianBlur stdDeviation="6"/>
<feColorMatrix type="matrix" values="0 0 0 0 0 0 0 0 0 0 0 0 0 0 0 0 0 0 0.16 0"/>
<feBlend mode="normal" in2="BackgroundImageFix" result="effect1_dropShadow_539_2214"/>
<feColorMatrix in="SourceAlpha" type="matrix" values="0 0 0 0 0 0 0 0 0 0 0 0 0 0 0 0 0 0 127 0" result="hardAlpha"/>
<feOffset dy="2"/>
<feGaussianBlur stdDeviation="2"/>
<feColorMatrix type="matrix" values="0 0 0 0 0 0 0 0 0 0 0 0 0 0 0 0 0 0 0.24 0"/>
<feBlend mode="normal" in2="effect1_dropShadow_539_2214" result="effect2_dropShadow_539_2214"/>
<feBlend mode="normal" in="SourceGraphic" in2="effect2_dropShadow_539_2214" result="shape"/>
</filter>
<filter id="filter5_i_539_2214" x="59.856" y="190" width="6" height="7" filterUnits="userSpaceOnUse" color-interpolation-filters="sRGB">
<feFlood flood-opacity="0" result="BackgroundImageFix"/>
<feBlend mode="normal" in="SourceGraphic" in2="BackgroundImageFix" result="shape"/>
<feColorMatrix in="SourceAlpha" type="matrix" values="0 0 0 0 0 0 0 0 0 0 0 0 0 0 0 0 0 0 127 0" result="hardAlpha"/>
<feOffset dy="1"/>
<feGaussianBlur stdDeviation="1"/>
<feComposite in2="hardAlpha" operator="arithmetic" k2="-1" k3="1"/>
<feColorMatrix type="matrix" values="0 0 0 0 0 0 0 0 0 0 0 0 0 0 0 0 0 0 0.24 0"/>
<feBlend mode="darken" in2="shape" result="effect1_innerShadow_539_2214"/>
</filter>
<filter id="filter6_i_539_2214" x="213.856" y="190" width="6" height="7" filterUnits="userSpaceOnUse" color-interpolation-filters="sRGB">
<feFlood flood-opacity="0" result="BackgroundImageFix"/>
<feBlend mode="normal" in="SourceGraphic" in2="BackgroundImageFix" result="shape"/>
<feColorMatrix in="SourceAlpha" type="matrix" values="0 0 0 0 0 0 0 0 0 0 0 0 0 0 0 0 0 0 127 0" result="hardAlpha"/>
<feOffset dy="1"/>
<feGaussianBlur stdDeviation="1"/>
<feComposite in2="hardAlpha" operator="arithmetic" k2="-1" k3="1"/>
<feColorMatrix type="matrix" values="0 0 0 0 0 0 0 0 0 0 0 0 0 0 0 0 0 0 0.24 0"/>
<feBlend mode="darken" in2="shape" result="effect1_innerShadow_539_2214"/>
</filter>
<filter id="filter7_i_539_2214" x="94.4155" y="185.024" width="92.0845" height="16.3839" filterUnits="userSpaceOnUse" color-interpolation-filters="sRGB">
<feFlood flood-opacity="0" result="BackgroundImageFix"/>
<feBlend mode="normal" in="SourceGraphic" in2="BackgroundImageFix" result="shape"/>
<feColorMatrix in="SourceAlpha" type="matrix" values="0 0 0 0 0 0 0 0 0 0 0 0 0 0 0 0 0 0 127 0" result="hardAlpha"/>
<feOffset dy="1"/>
<feGaussianBlur stdDeviation="1"/>
<feComposite in2="hardAlpha" operator="arithmetic" k2="-1" k3="1"/>
<feColorMatrix type="matrix" values="0 0 0 0 0 0 0 0 0 0 0 0 0 0 0 0 0 0 0.24 0"/>
<feBlend mode="darken" in2="shape" result="effect1_innerShadow_539_2214"/>
</filter>
<linearGradient id="paint0_linear_539_2214" x1="140" y1="31.7284" x2="140" y2="246.82" gradientUnits="userSpaceOnUse">
<stop stop-color="white"/>
<stop offset="1" stop-color="white" stop-opacity="0"/>
</linearGradient>
<radialGradient id="paint1_radial_539_2214" cx="0" cy="0" r="1" gradientUnits="userSpaceOnUse" gradientTransform="translate(140 93.51) rotate(90) scale(141.869 107.639)">
<stop stop-color="white"/>
<stop offset="1" stop-color="white" stop-opacity="0"/>
</radialGradient>
<linearGradient id="paint2_linear_539_2214" x1="232.12" y1="40.6237" x2="232.12" y2="245.588" gradientUnits="userSpaceOnUse">
<stop stop-color="#49F0BC"/>
<stop offset="1" stop-color="#29DCCC"/>
</linearGradient>
<linearGradient id="paint3_linear_539_2214" x1="139" y1="31.7284" x2="139" y2="246.82" gradientUnits="userSpaceOnUse">
<stop stop-color="white"/>
<stop offset="1" stop-color="white" stop-opacity="0"/>
</linearGradient>
<radialGradient id="paint4_radial_539_2214" cx="0" cy="0" r="1" gradientUnits="userSpaceOnUse" gradientTransform="translate(139 93.51) rotate(90) scale(141.869 107.639)">
<stop stop-color="white"/>
<stop offset="1" stop-color="white" stop-opacity="0"/>
</radialGradient>
<linearGradient id="paint5_linear_539_2214" x1="0" y1="0" x2="0" y2="280" gradientUnits="userSpaceOnUse">
<stop stop-color="white"/>
<stop offset="1" stop-color="white" stop-opacity="0.01"/>
</linearGradient>
<linearGradient id="paint6_linear_539_2214" x1="139.856" y1="182" x2="139.856" y2="228" gradientUnits="userSpaceOnUse">
<stop stop-opacity="0"/>
<stop offset="1" stop-opacity="0.16"/>
</linearGradient>
<linearGradient id="paint7_linear_539_2214" x1="139.856" y1="159" x2="139.856" y2="228" gradientUnits="userSpaceOnUse">
<stop stop-color="white"/>
<stop offset="1" stop-color="white" stop-opacity="0"/>
</linearGradient>
<radialGradient id="paint8_radial_539_2214" cx="0" cy="0" r="1" gradientUnits="userSpaceOnUse" gradientTransform="translate(139.856 182) rotate(90) scale(46 193.221)">
<stop stop-color="white"/>
<stop offset="1" stop-color="white" stop-opacity="0"/>
</radialGradient>
<linearGradient id="paint9_linear_539_2214" x1="139.856" y1="170" x2="139.856" y2="216" gradientUnits="userSpaceOnUse">
<stop stop-opacity="0"/>
<stop offset="1" stop-opacity="0.16"/>
</linearGradient>
<linearGradient id="paint10_linear_539_2214" x1="139.856" y1="170" x2="139.856" y2="216" gradientUnits="userSpaceOnUse">
<stop stop-color="white"/>
<stop offset="1" stop-color="white" stop-opacity="0"/>
</linearGradient>
<radialGradient id="paint11_radial_539_2214" cx="0" cy="0" r="1" gradientUnits="userSpaceOnUse" gradientTransform="translate(139.856 178.027) rotate(90) scale(37.9729 88)">
<stop stop-color="white"/>
<stop offset="1" stop-color="white" stop-opacity="0"/>
</radialGradient>
</defs>
</svg>




