<svg width="606" height="538" viewBox="0 0 606 538" fill="none" xmlns="http://www.w3.org/2000/svg">
<g filter="url(#filter0_dd_1774_10)">
<path d="M200.445 182.738L208.357 142.209L93.0342 119.695C88.089 145.026 103.029 163.72 117.579 166.561L200.445 182.738Z" fill="url(#paint0_linear_1774_10)"/>
<path d="M199.272 183.528L207.184 142.999L94.8057 121.06C89.8606 146.391 104.801 165.085 119.351 167.926L199.272 183.528Z" stroke="url(#paint1_linear_1774_10)" stroke-width="2.29412"/>
<path d="M201.208 220.586L209.12 180.057L113.426 161.375C108.481 186.706 123.422 205.4 137.971 208.241L201.208 220.586Z" fill="url(#paint2_linear_1774_10)"/>
<path d="M201.208 220.586L209.12 180.057L113.426 161.375C108.481 186.706 123.422 205.4 137.971 208.241L201.208 220.586Z" stroke="url(#paint3_linear_1774_10)" stroke-width="2.29412"/>
<path d="M227.949 263.205L235.861 222.676L140.168 203.994C135.222 229.325 150.163 248.019 164.713 250.86L227.949 263.205Z" fill="url(#paint4_linear_1774_10)"/>
<path d="M227.949 263.205L235.861 222.676L140.168 203.994C135.222 229.325 150.163 248.019 164.713 250.86L227.949 263.205Z" stroke="url(#paint5_linear_1774_10)" stroke-width="2.29412"/>
<g filter="url(#filter1_d_1774_10)">
<path d="M206.172 364.716V276H257.672V394.5L207.739 367.352C206.774 366.827 206.172 365.816 206.172 364.716Z" fill="#ECD8BA"/>
<path d="M206.172 364.716V276H257.672V394.5L207.739 367.352C206.774 366.827 206.172 365.816 206.172 364.716Z" stroke="url(#paint6_linear_1774_10)"/>
</g>
<path fill-rule="evenodd" clip-rule="evenodd" d="M211.841 362.139V321H211.172V362.697L211.452 362.743C212.377 362.897 213.405 363.444 214.245 364.244C215.084 365.043 215.705 366.066 215.859 367.144L215.885 367.323L242.952 380V334.726H242.283V378.948L216.492 366.868C216.272 365.676 215.58 364.592 214.706 363.76C213.869 362.962 212.839 362.372 211.841 362.139Z" fill="url(#paint7_linear_1774_10)"/>
<path fill-rule="evenodd" clip-rule="evenodd" d="M242.246 376.499C242.967 375.279 243.008 373.549 242.952 372.432L242.284 372.465C242.34 373.578 242.281 375.126 241.67 376.159C241.374 376.659 240.954 377.028 240.351 377.179C239.737 377.334 238.889 377.274 237.722 376.82L237.479 377.443C238.721 377.926 239.718 378.028 240.514 377.828C241.321 377.626 241.876 377.125 242.246 376.499Z" fill="#D4B195"/>
<g filter="url(#filter2_d_1774_10)">
<path d="M400.672 364.716V276H349.172V394.5L399.105 367.352C400.071 366.827 400.672 365.816 400.672 364.716Z" fill="#ECD8BA"/>
<path d="M400.672 364.716V276H349.172V394.5L399.105 367.352C400.071 366.827 400.672 365.816 400.672 364.716Z" stroke="url(#paint8_linear_1774_10)"/>
</g>
<path fill-rule="evenodd" clip-rule="evenodd" d="M395.004 362.139V321H395.673V362.697L395.393 362.743C394.468 362.897 393.44 363.444 392.6 364.244C391.761 365.043 391.14 366.066 390.986 367.144L390.96 367.323L363.893 380V334.726H364.562V378.948L390.353 366.868C390.573 365.676 391.265 364.592 392.138 363.76C392.976 362.962 394.006 362.372 395.004 362.139Z" fill="url(#paint9_linear_1774_10)"/>
<path fill-rule="evenodd" clip-rule="evenodd" d="M364.599 376.499C363.878 375.279 363.836 373.549 363.892 372.432L364.561 372.465C364.505 373.578 364.564 375.126 365.175 376.159C365.471 376.659 365.89 377.028 366.494 377.179C367.108 377.334 367.956 377.274 369.123 376.82L369.365 377.443C368.124 377.926 367.127 378.028 366.331 377.828C365.524 377.626 364.969 377.125 364.599 376.499Z" fill="#D4B195"/>
<path d="M405.712 184.043L397.8 143.514L513.123 121C518.068 146.331 503.127 165.025 488.577 167.866L405.712 184.043Z" fill="url(#paint10_linear_1774_10)"/>
<path d="M406.885 184.833L398.973 144.304L511.351 122.365C516.296 147.696 501.356 166.39 486.806 169.23L406.885 184.833Z" stroke="url(#paint11_linear_1774_10)" stroke-width="2.29412"/>
<path d="M404.949 221.891L397.037 181.362L492.73 162.68C497.676 188.011 482.735 206.705 468.185 209.545L404.949 221.891Z" fill="url(#paint12_linear_1774_10)"/>
<path d="M404.949 221.891L397.037 181.362L492.73 162.68C497.676 188.011 482.735 206.705 468.185 209.545L404.949 221.891Z" stroke="url(#paint13_linear_1774_10)" stroke-width="2.29412"/>
<path d="M378.208 264.51L370.296 223.981L465.989 205.299C470.934 230.63 455.994 249.324 441.444 252.165L378.208 264.51Z" fill="url(#paint14_linear_1774_10)"/>
<path d="M378.208 264.51L370.296 223.981L465.989 205.299C470.934 230.63 455.994 249.324 441.444 252.165L378.208 264.51Z" stroke="url(#paint15_linear_1774_10)" stroke-width="2.29412"/>
<g filter="url(#filter3_d_1774_10)">
<path d="M248.172 271H358.172V410.686L303.784 438.333C302.96 438.752 301.986 438.75 301.163 438.329L248.172 411.166V271Z" fill="url(#paint16_linear_1774_10)"/>
<path d="M248.172 271H358.172V410.686L303.784 438.333C302.96 438.752 301.986 438.75 301.163 438.329L248.172 411.166V271Z" stroke="url(#paint17_linear_1774_10)" stroke-width="2"/>
</g>
<path fill-rule="evenodd" clip-rule="evenodd" d="M319.172 429.511L303.784 437.333C302.96 437.752 301.986 437.75 301.163 437.329L285.172 429.132V327H319.172V429.511Z" fill="url(#paint18_linear_1774_10)"/>
<path fill-rule="evenodd" clip-rule="evenodd" d="M254.172 346H255.766V408.52L302.777 432.821L350.579 408.517V346H352.172V409.084L302.771 434L254.172 409.081V346Z" fill="url(#paint19_linear_1774_10)"/>
<path fill-rule="evenodd" clip-rule="evenodd" d="M303.105 411V429.143H302.235V411H303.105Z" fill="url(#paint20_linear_1774_10)"/>
<path fill-rule="evenodd" clip-rule="evenodd" d="M300.065 422.704C298.335 424.7 296.227 425.144 294.776 424.902L294.919 424.045C296.075 424.237 297.879 423.899 299.408 422.135C300.944 420.364 302.236 417.114 302.236 411.435H303.105C303.105 417.229 301.789 420.716 300.065 422.704Z" fill="url(#paint21_linear_1774_10)"/>
<path fill-rule="evenodd" clip-rule="evenodd" d="M305.276 422.704C307.006 424.7 309.114 425.144 310.565 424.902L310.422 424.045C309.266 424.237 307.462 423.899 305.932 422.135C304.397 420.364 303.105 417.114 303.105 411.435H302.236C302.236 417.229 303.552 420.716 305.276 422.704Z" fill="url(#paint22_linear_1774_10)"/>
<path fill-rule="evenodd" clip-rule="evenodd" d="M302.487 429.538L292.672 424.039L294.845 424.039L302.669 428.665L310.492 424H312.41L302.848 429.539C302.734 429.591 302.602 429.591 302.487 429.538Z" fill="url(#paint23_linear_1774_10)"/>
<g filter="url(#filter4_d_1774_10)">
<path d="M295.049 88.4192L187.049 147.17C181.578 150.146 178.172 155.875 178.172 162.103L178.172 296.402C178.172 302.63 181.578 308.359 187.049 311.335L295.049 370.086C300.114 372.841 306.231 372.841 311.296 370.086L419.296 311.335C424.767 308.359 428.172 302.629 428.172 296.402L428.172 162.103C428.172 155.875 424.767 150.146 419.296 147.17L311.296 88.4192C306.231 85.6637 300.114 85.6637 295.049 88.4192Z" fill="url(#paint24_linear_1774_10)"/>
<path d="M294.929 110.403L206.015 158.771C200.565 161.736 197.172 167.444 197.172 173.648L197.172 284.352C197.172 290.556 200.565 296.264 206.015 299.229L294.929 347.597C299.976 350.343 306.069 350.343 311.116 347.597L400.03 299.229C405.48 296.264 408.873 290.556 408.873 284.352L408.873 173.648C408.873 167.444 405.48 161.736 400.03 158.771L311.116 110.403C306.069 107.657 299.976 107.657 294.929 110.403Z" fill="url(#paint25_linear_1774_10)"/>
<g filter="url(#filter5_f_1774_10)">
<path d="M294.929 110.403L206.015 158.771C200.565 161.736 197.172 167.444 197.172 173.648L197.172 284.352C197.172 290.556 200.565 296.264 206.015 299.229L294.929 347.597C299.976 350.343 306.069 350.343 311.116 347.597L400.03 299.229C405.48 296.264 408.873 290.556 408.873 284.352L408.873 173.648C408.873 167.444 405.48 161.736 400.03 158.771L311.116 110.403C306.069 107.657 299.976 107.657 294.929 110.403Z" stroke="url(#paint26_linear_1774_10)"/>
</g>
<g opacity="0.5">
<mask id="mask0_1774_10" style="mask-type:alpha" maskUnits="userSpaceOnUse" x="206" y="118" width="196" height="223">
<path d="M295.979 120.181L214.589 164.417C209.402 167.236 206.172 172.667 206.172 178.571L206.172 279.819C206.172 285.723 209.402 291.154 214.589 293.974L295.979 338.209C300.777 340.816 306.568 340.816 311.365 338.209L392.755 293.974C397.943 291.154 401.172 285.723 401.172 279.819L401.172 178.571C401.172 172.667 397.943 167.236 392.755 164.417L311.365 120.181C306.568 117.574 300.777 117.574 295.979 120.181Z" fill="#A6D3DE"/>
</mask>
<g mask="url(#mask0_1774_10)">
<path d="M295.979 120.181L214.589 164.417C209.402 167.236 206.172 172.667 206.172 178.571L206.172 279.819C206.172 285.723 209.402 291.154 214.589 293.974L295.979 338.209C300.777 340.816 306.568 340.816 311.365 338.209L392.755 293.974C397.943 291.154 401.172 285.723 401.172 279.819L401.172 178.571C401.172 172.667 397.943 167.236 392.755 164.417L311.365 120.181C306.568 117.574 300.777 117.574 295.979 120.181Z" fill="url(#paint27_radial_1774_10)"/>
<path opacity="0.5" d="M287.373 346.862L283.5 111.518H323.845L319.972 346.862H287.373Z" fill="url(#paint28_linear_1774_10)"/>
<path opacity="0.5" d="M286.854 344.775L165.828 142.896L200.767 122.724L315.085 328.475L286.854 344.775Z" fill="url(#paint29_linear_1774_10)"/>
<path opacity="0.5" d="M283.492 328.476L397.811 122.725L432.75 142.897L311.724 344.775L283.492 328.476Z" fill="url(#paint30_linear_1774_10)"/>
<rect x="206.172" y="215.742" width="195" height="126.638" fill="url(#paint31_linear_1774_10)"/>
<g filter="url(#filter6_i_1774_10)">
<path d="M295.979 120.181L214.589 164.417C209.402 167.236 206.172 172.667 206.172 178.571L206.172 279.819C206.172 285.723 209.402 291.154 214.589 293.974L295.979 338.209C300.777 340.816 306.568 340.816 311.365 338.209L392.755 293.974C397.943 291.154 401.172 285.723 401.172 279.819L401.172 178.571C401.172 172.667 397.943 167.236 392.755 164.417L311.365 120.181C306.568 117.574 300.777 117.574 295.979 120.181Z" fill="#6052B4" fill-opacity="0.01"/>
</g>
</g>
</g>
</g>
</g>
<g opacity="0.3" filter="url(#filter7_f_1774_10)">
<circle cx="231.615" cy="69.6147" r="7.61466" fill="#FFEBC4"/>
</g>
<g filter="url(#filter8_f_1774_10)">
<circle cx="199.538" cy="345.538" r="2.53822" fill="#FFEBC4"/>
</g>
<g opacity="0.3" filter="url(#filter9_f_1774_10)">
<circle cx="220.538" cy="113.538" r="2.53822" fill="#FFEBC4"/>
</g>
<g filter="url(#filter10_f_1774_10)">
<circle cx="434.538" cy="262.538" r="2.53822" fill="#FFEBC4"/>
</g>
<g filter="url(#filter11_f_1774_10)">
<circle cx="128.461" cy="240.135" r="8.46073" fill="#FFDDAA"/>
</g>
<g opacity="0.6" filter="url(#filter12_f_1774_10)">
<circle cx="514.769" cy="203.769" r="6.76858" fill="#FFDDAA"/>
</g>
<g opacity="0.8" filter="url(#filter13_f_1774_10)">
<circle cx="234.769" cy="424.769" r="6.76858" fill="#FFDDAA"/>
</g>
<g filter="url(#filter14_d_1774_10)">
<path fill-rule="evenodd" clip-rule="evenodd" d="M303 243C327.301 243 347 223.301 347 199C347 174.699 327.301 155 303 155C278.699 155 259 174.699 259 199C259 223.301 278.699 243 303 243ZM296.198 240.449C314.629 240.449 329.57 225.508 329.57 207.077C329.57 188.646 314.629 173.705 296.198 173.705C277.767 173.705 262.826 188.646 262.826 207.077C262.826 225.508 277.767 240.449 296.198 240.449Z" fill="url(#paint32_linear_1774_10)"/>
</g>
<g filter="url(#filter15_d_1774_10)">
<path d="M244.345 261.4C246.905 261.4 248.945 262.133 250.465 263.6C251.985 265.04 252.745 267.027 252.745 269.56C252.745 272.093 251.785 274.267 249.865 276.08C247.945 277.867 245.598 278.76 242.825 278.76H240.545L241.025 289H235.665L236.145 279.28L235.665 261.4H244.345ZM242.905 265.44H240.945L240.665 274.88H243.385C244.718 274.88 245.745 274.44 246.465 273.56C247.212 272.68 247.585 271.427 247.585 269.8C247.585 266.893 246.025 265.44 242.905 265.44ZM256.016 289L256.496 279.28L256.016 261.4H271.016L270.576 265.68H261.576L261.336 272.76H269.336L268.896 277H261.176L261.136 278.6L261.416 284.76H271.096L270.656 289H256.016ZM282.864 278.36H280.584V278.6L281.064 289H275.704L276.184 279.28L275.704 261.4H284.384C286.944 261.4 288.984 262.093 290.504 263.48C292.024 264.867 292.784 266.707 292.784 269C292.784 270.733 292.331 272.32 291.424 273.76C290.544 275.173 289.344 276.293 287.824 277.12L294.784 286.96L289.944 289.44L283.704 278.32C283.517 278.347 283.237 278.36 282.864 278.36ZM282.944 265.44H280.984L280.704 274.48H283.424C284.757 274.48 285.784 274.04 286.504 273.16C287.251 272.28 287.624 271.027 287.624 269.4C287.624 266.76 286.064 265.44 282.944 265.44ZM312.908 265.68H304.388L304.148 273.04H311.788L311.348 277.28H304.028L303.988 278.6L304.468 289H298.868L299.348 279.28L298.868 261.4H313.348L312.908 265.68ZM316.563 289L317.043 279.28L316.563 261.4H331.563L331.123 265.68H322.123L321.883 272.76H329.883L329.443 277H321.723L321.683 278.6L321.963 284.76H331.643L331.203 289H316.563ZM344.771 289.44C341.811 289.44 339.317 288.2 337.291 285.72C335.264 283.24 334.251 280.2 334.251 276.6C334.251 272.2 335.464 268.493 337.891 265.48C340.344 262.467 343.344 260.96 346.891 260.96C348.277 260.96 349.557 261.107 350.731 261.4C351.931 261.667 352.784 261.947 353.291 262.24L354.011 262.68L351.291 268.24C350.677 267.707 349.811 267.213 348.691 266.76C347.571 266.28 346.557 266.04 345.651 266.04C343.811 266.04 342.331 266.8 341.211 268.32C340.117 269.84 339.571 272.013 339.571 274.84C339.571 277.64 340.144 279.947 341.291 281.76C342.437 283.547 343.997 284.44 345.971 284.44C347.251 284.44 348.411 284.04 349.451 283.24C350.491 282.44 351.224 281.373 351.651 280.04L354.971 281.96C354.091 284.307 352.744 286.147 350.931 287.48C349.117 288.787 347.064 289.44 344.771 289.44ZM355.082 266L355.522 261.4H374.522L374.082 266L367.122 265.4L366.962 278.6L367.442 289H361.842L362.322 279.28L362.162 265.44L355.082 266Z" fill="url(#paint33_linear_1774_10)"/>
</g>
<defs>
<filter id="filter0_dd_1774_10" x="0.232651" y="0.638755" width="605.691" height="536.966" filterUnits="userSpaceOnUse" color-interpolation-filters="sRGB">
<feFlood flood-opacity="0" result="BackgroundImageFix"/>
<feColorMatrix in="SourceAlpha" type="matrix" values="0 0 0 0 0 0 0 0 0 0 0 0 0 0 0 0 0 0 127 0" result="hardAlpha"/>
<feOffset/>
<feGaussianBlur stdDeviation="15.306"/>
<feColorMatrix type="matrix" values="0 0 0 0 0.991667 0 0 0 0 0.801597 0 0 0 0 0.516493 0 0 0 1 0"/>
<feBlend mode="normal" in2="BackgroundImageFix" result="effect1_dropShadow_1774_10"/>
<feColorMatrix in="SourceAlpha" type="matrix" values="0 0 0 0 0 0 0 0 0 0 0 0 0 0 0 0 0 0 127 0" result="hardAlpha"/>
<feOffset dy="6.12241"/>
<feGaussianBlur stdDeviation="45.9181"/>
<feColorMatrix type="matrix" values="0 0 0 0 1 0 0 0 0 0.722667 0 0 0 0 0.466667 0 0 0 0.6 0"/>
<feBlend mode="normal" in2="effect1_dropShadow_1774_10" result="effect2_dropShadow_1774_10"/>
<feBlend mode="normal" in="SourceGraphic" in2="effect2_dropShadow_1774_10" result="shape"/>
</filter>
<filter id="filter1_d_1774_10" x="197.672" y="267.5" width="68.5" height="135.841" filterUnits="userSpaceOnUse" color-interpolation-filters="sRGB">
<feFlood flood-opacity="0" result="BackgroundImageFix"/>
<feColorMatrix in="SourceAlpha" type="matrix" values="0 0 0 0 0 0 0 0 0 0 0 0 0 0 0 0 0 0 127 0" result="hardAlpha"/>
<feOffset/>
<feGaussianBlur stdDeviation="4"/>
<feColorMatrix type="matrix" values="0 0 0 0 0.7 0 0 0 0 0.561568 0 0 0 0 0.32375 0 0 0 0.78 0"/>
<feBlend mode="normal" in2="BackgroundImageFix" result="effect1_dropShadow_1774_10"/>
<feBlend mode="normal" in="SourceGraphic" in2="effect1_dropShadow_1774_10" result="shape"/>
</filter>
<filter id="filter2_d_1774_10" x="340.672" y="267.5" width="68.5" height="135.841" filterUnits="userSpaceOnUse" color-interpolation-filters="sRGB">
<feFlood flood-opacity="0" result="BackgroundImageFix"/>
<feColorMatrix in="SourceAlpha" type="matrix" values="0 0 0 0 0 0 0 0 0 0 0 0 0 0 0 0 0 0 127 0" result="hardAlpha"/>
<feOffset/>
<feGaussianBlur stdDeviation="4"/>
<feColorMatrix type="matrix" values="0 0 0 0 0.7 0 0 0 0 0.561568 0 0 0 0 0.32375 0 0 0 0.78 0"/>
<feBlend mode="normal" in2="BackgroundImageFix" result="effect1_dropShadow_1774_10"/>
<feBlend mode="normal" in="SourceGraphic" in2="effect1_dropShadow_1774_10" result="shape"/>
</filter>
<filter id="filter3_d_1774_10" x="239.172" y="262" width="128" height="185.646" filterUnits="userSpaceOnUse" color-interpolation-filters="sRGB">
<feFlood flood-opacity="0" result="BackgroundImageFix"/>
<feColorMatrix in="SourceAlpha" type="matrix" values="0 0 0 0 0 0 0 0 0 0 0 0 0 0 0 0 0 0 127 0" result="hardAlpha"/>
<feOffset/>
<feGaussianBlur stdDeviation="4"/>
<feColorMatrix type="matrix" values="0 0 0 0 0.7 0 0 0 0 0.561568 0 0 0 0 0.32375 0 0 0 0.78 0"/>
<feBlend mode="normal" in2="BackgroundImageFix" result="effect1_dropShadow_1774_10"/>
<feBlend mode="normal" in="SourceGraphic" in2="effect1_dropShadow_1774_10" result="shape"/>
</filter>
<filter id="filter4_d_1774_10" x="172.172" y="86.3525" width="262" height="299.8" filterUnits="userSpaceOnUse" color-interpolation-filters="sRGB">
<feFlood flood-opacity="0" result="BackgroundImageFix"/>
<feColorMatrix in="SourceAlpha" type="matrix" values="0 0 0 0 0 0 0 0 0 0 0 0 0 0 0 0 0 0 127 0" result="hardAlpha"/>
<feOffset dy="8"/>
<feGaussianBlur stdDeviation="3"/>
<feColorMatrix type="matrix" values="0 0 0 0 0.4375 0 0 0 0 0.287401 0 0 0 0 0.111198 0 0 0 0.6 0"/>
<feBlend mode="normal" in2="BackgroundImageFix" result="effect1_dropShadow_1774_10"/>
<feBlend mode="normal" in="SourceGraphic" in2="effect1_dropShadow_1774_10" result="shape"/>
</filter>
<filter id="filter5_f_1774_10" x="196.372" y="107.544" width="213.3" height="242.913" filterUnits="userSpaceOnUse" color-interpolation-filters="sRGB">
<feFlood flood-opacity="0" result="BackgroundImageFix"/>
<feBlend mode="normal" in="SourceGraphic" in2="BackgroundImageFix" result="shape"/>
<feGaussianBlur stdDeviation="0.15" result="effect1_foregroundBlur_1774_10"/>
</filter>
<filter id="filter6_i_1774_10" x="206.172" y="118.226" width="195" height="221.939" filterUnits="userSpaceOnUse" color-interpolation-filters="sRGB">
<feFlood flood-opacity="0" result="BackgroundImageFix"/>
<feBlend mode="normal" in="SourceGraphic" in2="BackgroundImageFix" result="shape"/>
<feColorMatrix in="SourceAlpha" type="matrix" values="0 0 0 0 0 0 0 0 0 0 0 0 0 0 0 0 0 0 127 0" result="hardAlpha"/>
<feOffset/>
<feGaussianBlur stdDeviation="6.72414"/>
<feComposite in2="hardAlpha" operator="arithmetic" k2="-1" k3="1"/>
<feColorMatrix type="matrix" values="0 0 0 0 0.458333 0 0 0 0 0.256743 0 0 0 0 0.0706597 0 0 0 1 0"/>
<feBlend mode="normal" in2="shape" result="effect1_innerShadow_1774_10"/>
</filter>
<filter id="filter7_f_1774_10" x="203.694" y="41.6942" width="55.841" height="55.841" filterUnits="userSpaceOnUse" color-interpolation-filters="sRGB">
<feFlood flood-opacity="0" result="BackgroundImageFix"/>
<feBlend mode="normal" in="SourceGraphic" in2="BackgroundImageFix" result="shape"/>
<feGaussianBlur stdDeviation="10.1529" result="effect1_foregroundBlur_1774_10"/>
</filter>
<filter id="filter8_f_1774_10" x="195.308" y="341.308" width="8.46095" height="8.46046" filterUnits="userSpaceOnUse" color-interpolation-filters="sRGB">
<feFlood flood-opacity="0" result="BackgroundImageFix"/>
<feBlend mode="normal" in="SourceGraphic" in2="BackgroundImageFix" result="shape"/>
<feGaussianBlur stdDeviation="0.846073" result="effect1_foregroundBlur_1774_10"/>
</filter>
<filter id="filter9_f_1774_10" x="210" y="103" width="21.0767" height="21.0762" filterUnits="userSpaceOnUse" color-interpolation-filters="sRGB">
<feFlood flood-opacity="0" result="BackgroundImageFix"/>
<feBlend mode="normal" in="SourceGraphic" in2="BackgroundImageFix" result="shape"/>
<feGaussianBlur stdDeviation="4" result="effect1_foregroundBlur_1774_10"/>
</filter>
<filter id="filter10_f_1774_10" x="426" y="254" width="17.0767" height="17.0762" filterUnits="userSpaceOnUse" color-interpolation-filters="sRGB">
<feFlood flood-opacity="0" result="BackgroundImageFix"/>
<feBlend mode="normal" in="SourceGraphic" in2="BackgroundImageFix" result="shape"/>
<feGaussianBlur stdDeviation="3" result="effect1_foregroundBlur_1774_10"/>
</filter>
<filter id="filter11_f_1774_10" x="100" y="211.674" width="56.9214" height="56.9219" filterUnits="userSpaceOnUse" color-interpolation-filters="sRGB">
<feFlood flood-opacity="0" result="BackgroundImageFix"/>
<feBlend mode="normal" in="SourceGraphic" in2="BackgroundImageFix" result="shape"/>
<feGaussianBlur stdDeviation="10" result="effect1_foregroundBlur_1774_10"/>
</filter>
<filter id="filter12_f_1774_10" x="491.079" y="180.079" width="47.38" height="47.38" filterUnits="userSpaceOnUse" color-interpolation-filters="sRGB">
<feFlood flood-opacity="0" result="BackgroundImageFix"/>
<feBlend mode="normal" in="SourceGraphic" in2="BackgroundImageFix" result="shape"/>
<feGaussianBlur stdDeviation="8.46073" result="effect1_foregroundBlur_1774_10"/>
</filter>
<filter id="filter13_f_1774_10" x="211.079" y="401.079" width="47.38" height="47.38" filterUnits="userSpaceOnUse" color-interpolation-filters="sRGB">
<feFlood flood-opacity="0" result="BackgroundImageFix"/>
<feBlend mode="normal" in="SourceGraphic" in2="BackgroundImageFix" result="shape"/>
<feGaussianBlur stdDeviation="8.46073" result="effect1_foregroundBlur_1774_10"/>
</filter>
<filter id="filter14_d_1774_10" x="252.129" y="151.384" width="102.466" height="102.466" filterUnits="userSpaceOnUse" color-interpolation-filters="sRGB">
<feFlood flood-opacity="0" result="BackgroundImageFix"/>
<feColorMatrix in="SourceAlpha" type="matrix" values="0 0 0 0 0 0 0 0 0 0 0 0 0 0 0 0 0 0 127 0" result="hardAlpha"/>
<feOffset dx="0.361644" dy="3.61644"/>
<feGaussianBlur stdDeviation="3.61644"/>
<feColorMatrix type="matrix" values="0 0 0 0 0.795833 0 0 0 0 0.519745 0 0 0 0 0.195642 0 0 0 0.42 0"/>
<feBlend mode="normal" in2="BackgroundImageFix" result="effect1_dropShadow_1774_10"/>
<feBlend mode="normal" in="SourceGraphic" in2="effect1_dropShadow_1774_10" result="shape"/>
</filter>
<filter id="filter15_d_1774_10" x="228.794" y="257.344" width="153.323" height="42.9462" filterUnits="userSpaceOnUse" color-interpolation-filters="sRGB">
<feFlood flood-opacity="0" result="BackgroundImageFix"/>
<feColorMatrix in="SourceAlpha" type="matrix" values="0 0 0 0 0 0 0 0 0 0 0 0 0 0 0 0 0 0 127 0" result="hardAlpha"/>
<feOffset dx="0.361644" dy="3.61644"/>
<feGaussianBlur stdDeviation="3.61644"/>
<feColorMatrix type="matrix" values="0 0 0 0 0.795833 0 0 0 0 0.519745 0 0 0 0 0.195642 0 0 0 0.42 0"/>
<feBlend mode="normal" in2="BackgroundImageFix" result="effect1_dropShadow_1774_10"/>
<feBlend mode="normal" in="SourceGraphic" in2="effect1_dropShadow_1774_10" result="shape"/>
</filter>
<linearGradient id="paint0_linear_1774_10" x1="143.664" y1="171.653" x2="116.03" y2="130.613" gradientUnits="userSpaceOnUse">
<stop stop-color="#D2A86B"/>
<stop offset="0.875" stop-color="#FFF5DE"/>
</linearGradient>
<linearGradient id="paint1_linear_1774_10" x1="100.435" y1="122.159" x2="125.171" y2="169.062" gradientUnits="userSpaceOnUse">
<stop stop-color="#FFF5DE"/>
<stop offset="0.378992" stop-color="#F5E3C4"/>
<stop offset="0.480868" stop-color="#E6CA9E"/>
<stop offset="0.729174" stop-color="#D2A86B"/>
</linearGradient>
<linearGradient id="paint2_linear_1774_10" x1="164.056" y1="213.333" x2="136.422" y2="172.293" gradientUnits="userSpaceOnUse">
<stop stop-color="#E0C08E"/>
<stop offset="0.875" stop-color="#FFF5DE"/>
</linearGradient>
<linearGradient id="paint3_linear_1774_10" x1="119.055" y1="162.474" x2="174.672" y2="228.5" gradientUnits="userSpaceOnUse">
<stop stop-color="#FFF5DE"/>
<stop offset="0.378992" stop-color="#FFF5DE"/>
<stop offset="0.480868" stop-color="#EAD2A9"/>
<stop offset="0.729174" stop-color="#D2A86B"/>
</linearGradient>
<linearGradient id="paint4_linear_1774_10" x1="190.797" y1="255.952" x2="163.164" y2="214.912" gradientUnits="userSpaceOnUse">
<stop stop-color="#E0C08E"/>
<stop offset="0.875" stop-color="#FFF5DE"/>
</linearGradient>
<linearGradient id="paint5_linear_1774_10" x1="145.797" y1="205.093" x2="201.414" y2="271.119" gradientUnits="userSpaceOnUse">
<stop stop-color="#FFF5DE"/>
<stop offset="0.378992" stop-color="#FFF5DE"/>
<stop offset="0.480868" stop-color="#EAD2A9"/>
<stop offset="0.729174" stop-color="#D2A86B"/>
</linearGradient>
<linearGradient id="paint6_linear_1774_10" x1="206.172" y1="356.763" x2="259.046" y2="368.71" gradientUnits="userSpaceOnUse">
<stop stop-color="#8D664F"/>
<stop offset="0.208702" stop-color="#C49F7D"/>
<stop offset="0.648432" stop-color="#FFF1DC"/>
<stop offset="0.827985" stop-color="#B38368"/>
<stop offset="0.971703" stop-color="#8C5F4C"/>
</linearGradient>
<linearGradient id="paint7_linear_1774_10" x1="212.672" y1="355" x2="231.798" y2="349.298" gradientUnits="userSpaceOnUse">
<stop stop-color="#C7A383"/>
<stop offset="0.309893" stop-color="#D5B198"/>
<stop offset="0.523799" stop-color="#CBA68C"/>
<stop offset="0.77229" stop-color="#BB9478"/>
<stop offset="1" stop-color="#D7B49B"/>
</linearGradient>
<linearGradient id="paint8_linear_1774_10" x1="400.672" y1="356.763" x2="347.799" y2="368.71" gradientUnits="userSpaceOnUse">
<stop stop-color="#8D664F"/>
<stop offset="0.208702" stop-color="#C49F7D"/>
<stop offset="0.648432" stop-color="#FFF1DC"/>
<stop offset="0.827985" stop-color="#B38368"/>
<stop offset="0.971703" stop-color="#8C5F4C"/>
</linearGradient>
<linearGradient id="paint9_linear_1774_10" x1="394.173" y1="355" x2="375.047" y2="349.298" gradientUnits="userSpaceOnUse">
<stop stop-color="#C7A383"/>
<stop offset="0.309893" stop-color="#D5B198"/>
<stop offset="0.523799" stop-color="#CBA68C"/>
<stop offset="0.77229" stop-color="#BB9478"/>
<stop offset="1" stop-color="#D7B49B"/>
</linearGradient>
<linearGradient id="paint10_linear_1774_10" x1="462.493" y1="172.958" x2="490.127" y2="131.917" gradientUnits="userSpaceOnUse">
<stop stop-color="#D2A86B"/>
<stop offset="0.875" stop-color="#FFF5DE"/>
</linearGradient>
<linearGradient id="paint11_linear_1774_10" x1="505.722" y1="123.464" x2="480.986" y2="170.367" gradientUnits="userSpaceOnUse">
<stop stop-color="#FFF5DE"/>
<stop offset="0.378992" stop-color="#F5E3C4"/>
<stop offset="0.480868" stop-color="#E6CA9E"/>
<stop offset="0.729174" stop-color="#D2A86B"/>
</linearGradient>
<linearGradient id="paint12_linear_1774_10" x1="442.101" y1="214.638" x2="469.734" y2="173.597" gradientUnits="userSpaceOnUse">
<stop stop-color="#E0C08E"/>
<stop offset="0.875" stop-color="#FFF5DE"/>
</linearGradient>
<linearGradient id="paint13_linear_1774_10" x1="487.101" y1="163.779" x2="431.484" y2="229.805" gradientUnits="userSpaceOnUse">
<stop stop-color="#FFF5DE"/>
<stop offset="0.378992" stop-color="#FFF5DE"/>
<stop offset="0.480868" stop-color="#EAD2A9"/>
<stop offset="0.729174" stop-color="#D2A86B"/>
</linearGradient>
<linearGradient id="paint14_linear_1774_10" x1="415.36" y1="257.257" x2="442.993" y2="216.216" gradientUnits="userSpaceOnUse">
<stop stop-color="#E0C08E"/>
<stop offset="0.875" stop-color="#FFF5DE"/>
</linearGradient>
<linearGradient id="paint15_linear_1774_10" x1="460.36" y1="206.398" x2="404.743" y2="272.424" gradientUnits="userSpaceOnUse">
<stop stop-color="#FFF5DE"/>
<stop offset="0.378992" stop-color="#FFF5DE"/>
<stop offset="0.480868" stop-color="#EAD2A9"/>
<stop offset="0.729174" stop-color="#D2A86B"/>
</linearGradient>
<linearGradient id="paint16_linear_1774_10" x1="303.172" y1="345" x2="303.172" y2="439" gradientUnits="userSpaceOnUse">
<stop stop-color="#B58D70"/>
<stop offset="0.2286" stop-color="#B58D70"/>
<stop offset="0.47675" stop-color="#D8B59B"/>
<stop offset="0.88344" stop-color="#B58D70"/>
<stop offset="1" stop-color="#B58D70"/>
</linearGradient>
<linearGradient id="paint17_linear_1774_10" x1="248.172" y1="385.5" x2="354.545" y2="421.71" gradientUnits="userSpaceOnUse">
<stop stop-color="#8D664F"/>
<stop offset="0.208702" stop-color="#FFF5E6"/>
<stop offset="0.648432" stop-color="#ECD8BA"/>
<stop offset="0.780206" stop-color="#D0A568"/>
<stop offset="0.971703" stop-color="#8C5F4C"/>
</linearGradient>
<linearGradient id="paint18_linear_1774_10" x1="302.172" y1="327" x2="302.172" y2="437.646" gradientUnits="userSpaceOnUse">
<stop stop-color="#DDBFA9"/>
<stop offset="0.22229" stop-color="#DDBFA9"/>
<stop offset="0.669825" stop-color="#EBD4C4"/>
<stop offset="0.898796" stop-color="#DDBFA9"/>
<stop offset="1" stop-color="#DDBFA9"/>
</linearGradient>
<linearGradient id="paint19_linear_1774_10" x1="347.548" y1="398.339" x2="307.42" y2="367.246" gradientUnits="userSpaceOnUse">
<stop stop-color="#ECD8BA"/>
<stop offset="0.309893" stop-color="#EBD3AE"/>
<stop offset="0.523799" stop-color="#E2C69C"/>
<stop offset="0.77229" stop-color="#E3C8A0"/>
<stop offset="1" stop-color="#ECD8BA"/>
</linearGradient>
<linearGradient id="paint20_linear_1774_10" x1="302.67" y1="411" x2="302.67" y2="427.95" gradientUnits="userSpaceOnUse">
<stop stop-color="#FAECD8"/>
<stop offset="0.491891" stop-color="#F9EBD7"/>
<stop offset="1" stop-color="#ECD5B4"/>
</linearGradient>
<linearGradient id="paint21_linear_1774_10" x1="298.941" y1="411.435" x2="298.941" y2="424.962" gradientUnits="userSpaceOnUse">
<stop stop-color="#F9EBD7"/>
<stop offset="0.479167" stop-color="#FAEDD9"/>
<stop offset="1" stop-color="#F8E9D4"/>
</linearGradient>
<linearGradient id="paint22_linear_1774_10" x1="306.4" y1="411.435" x2="306.4" y2="424.962" gradientUnits="userSpaceOnUse">
<stop stop-color="#FAEDD8"/>
<stop offset="0.479167" stop-color="#FAECD8"/>
<stop offset="1" stop-color="#EAD4B2"/>
</linearGradient>
<linearGradient id="paint23_linear_1774_10" x1="301.617" y1="425.907" x2="290.341" y2="427.242" gradientUnits="userSpaceOnUse">
<stop stop-color="#E5CBA6"/>
<stop offset="0.309893" stop-color="#FAEDDA"/>
<stop offset="0.523799" stop-color="#F3E2C9"/>
<stop offset="0.613641" stop-color="#EFDCC0"/>
<stop offset="1" stop-color="#EFDCC0"/>
</linearGradient>
<linearGradient id="paint24_linear_1774_10" x1="250.672" y1="119" x2="363.172" y2="342.5" gradientUnits="userSpaceOnUse">
<stop stop-color="#FFF5DE"/>
<stop offset="1" stop-color="#CFA365"/>
</linearGradient>
<linearGradient id="paint25_linear_1774_10" x1="249.672" y1="137.5" x2="346.672" y2="316.5" gradientUnits="userSpaceOnUse">
<stop stop-color="#D2A86C"/>
<stop offset="1" stop-color="#F8E6C0"/>
</linearGradient>
<linearGradient id="paint26_linear_1774_10" x1="260.172" y1="131" x2="364.672" y2="319" gradientUnits="userSpaceOnUse">
<stop stop-color="#FFF6E7"/>
<stop offset="1" stop-color="#FFF8EC"/>
</linearGradient>
<radialGradient id="paint27_radial_1774_10" cx="0" cy="0" r="1" gradientUnits="userSpaceOnUse" gradientTransform="translate(303.672 229.195) rotate(90) scale(113.195 97.5)">
<stop stop-color="#FFE4BA"/>
<stop offset="1" stop-color="#DEA44D"/>
</radialGradient>
<linearGradient id="paint28_linear_1774_10" x1="303.672" y1="111.518" x2="303.672" y2="346.862" gradientUnits="userSpaceOnUse">
<stop stop-color="white"/>
<stop offset="1" stop-color="#F2EDED" stop-opacity="0"/>
</linearGradient>
<linearGradient id="paint29_linear_1774_10" x1="183.297" y1="132.81" x2="300.97" y2="336.625" gradientUnits="userSpaceOnUse">
<stop stop-color="white"/>
<stop offset="1" stop-color="#F2EDED" stop-opacity="0"/>
</linearGradient>
<linearGradient id="paint30_linear_1774_10" x1="415.28" y1="132.811" x2="297.608" y2="336.625" gradientUnits="userSpaceOnUse">
<stop stop-color="white"/>
<stop offset="1" stop-color="#F2EDED" stop-opacity="0"/>
</linearGradient>
<linearGradient id="paint31_linear_1774_10" x1="303.672" y1="270.656" x2="303.084" y2="334.534" gradientUnits="userSpaceOnUse">
<stop stop-color="white" stop-opacity="0"/>
<stop offset="1" stop-color="#FFF1E3"/>
</linearGradient>
<linearGradient id="paint32_linear_1774_10" x1="296.03" y1="132.941" x2="356.342" y2="151.271" gradientUnits="userSpaceOnUse">
<stop offset="0.168737" stop-color="#FDF2D9"/>
<stop offset="0.304755" stop-color="#FFF7E3"/>
<stop offset="0.451944" stop-color="#FFFCF4"/>
<stop offset="0.581036" stop-color="#FFF1D9"/>
<stop offset="0.705947" stop-color="#F3E0BF"/>
<stop offset="0.940592" stop-color="#FFF5DE"/>
</linearGradient>
<linearGradient id="paint33_linear_1774_10" x1="292.174" y1="257.984" x2="317.193" y2="303.289" gradientUnits="userSpaceOnUse">
<stop offset="0.168737" stop-color="#FDF2D9"/>
<stop offset="0.304755" stop-color="#FFF7E3"/>
<stop offset="0.451944" stop-color="#FFFCF4"/>
<stop offset="0.581036" stop-color="#FFF1D9"/>
<stop offset="0.705947" stop-color="#F3E0BF"/>
<stop offset="0.940592" stop-color="#FFF5DE"/>
</linearGradient>
</defs>
</svg>
