<svg width="532" height="88" viewBox="0 0 532 88" fill="none" xmlns="http://www.w3.org/2000/svg">
<g filter="url(#filter0_i_424_1473)">
<rect width="532" height="88" rx="28" fill="#21C58C"/>
</g>
<g filter="url(#filter1_i_424_1473)">
<rect width="532" height="88" rx="28" fill="#21C58C"/>
</g>
<path d="M165.382 50.336C165.177 50.3547 164.86 50.364 164.43 50.364C161.91 50.364 159.67 49.8227 157.71 48.74V44.624C158.737 45.2587 159.866 45.7907 161.098 46.22C162.33 46.6493 163.45 46.864 164.458 46.864C165.28 46.864 165.924 46.6587 166.39 46.248C166.876 45.8373 167.118 45.3707 167.118 44.848C167.118 44.12 166.838 43.4573 166.278 42.86C165.718 42.244 164.822 41.7493 163.59 41.376C162.172 40.928 161.061 40.48 160.258 40.032C159.474 39.5653 158.877 38.9867 158.466 38.296C158.074 37.6053 157.878 36.728 157.878 35.664C157.878 34.656 158.121 33.7413 158.606 32.92C159.092 32.08 159.801 31.408 160.734 30.904C161.686 30.4 162.816 30.12 164.122 30.064C164.29 30.0453 164.552 30.036 164.906 30.036C165.877 30.036 166.848 30.1387 167.818 30.344C168.808 30.5307 169.638 30.7733 170.31 31.072V34.684C169.582 34.3667 168.733 34.1053 167.762 33.9C166.792 33.6947 165.933 33.592 165.186 33.592C164.234 33.592 163.506 33.76 163.002 34.096C162.498 34.432 162.246 34.8987 162.246 35.496C162.246 36.0373 162.517 36.5227 163.058 36.952C163.6 37.3813 164.44 37.792 165.578 38.184C166.941 38.576 168.052 39.024 168.91 39.528C169.769 40.0133 170.441 40.6573 170.926 41.46C171.412 42.244 171.654 43.2333 171.654 44.428C171.654 45.5667 171.393 46.5747 170.87 47.452C170.348 48.3293 169.61 49.02 168.658 49.524C167.725 50.0093 166.633 50.28 165.382 50.336ZM191.013 30.4V50H186.393V41.712H178.861V50H174.241V30.4H178.861V37.932H186.393V30.4H191.013ZM205.958 44.456H199.686L198.202 50H193.302L198.986 30.4H206.686L212.37 50H207.442L205.958 44.456ZM205.062 41.096L202.85 32.892H202.794L200.582 41.096H205.062ZM223.727 30.4C225.705 30.4 227.264 30.9133 228.403 31.94C229.56 32.948 230.139 34.376 230.139 36.224C230.139 37.7547 229.737 39.0053 228.935 39.976C228.151 40.9467 227.04 41.572 225.603 41.852C226.685 43.0467 227.647 44.288 228.487 45.576C229.327 46.864 230.129 48.3387 230.895 50H226.639C225.761 48.2267 224.949 46.7613 224.203 45.604C223.456 44.4467 222.485 43.2613 221.291 42.048H219.275V50H214.655V30.4H223.727ZM223.391 38.828C224.343 38.828 225.08 38.576 225.603 38.072C226.125 37.568 226.387 36.952 226.387 36.224C226.387 35.4773 226.116 34.8613 225.575 34.376C225.052 33.872 224.324 33.62 223.391 33.62H219.275V38.828H223.391ZM233.139 30.4H246.915V34.208H237.759V38.408H245.711V41.964H237.759V46.192H246.915V50H233.139V30.4ZM261.413 33.872H261.161V50H256.709V30.4H264.745L267.405 44.428L267.461 44.708L267.517 44.428L270.177 30.4H278.213V50H273.761V33.872H273.537L270.177 50H264.745L261.413 33.872ZM280.165 30.4H285.261L288.901 37.82H289.013L292.653 30.4H297.749L291.281 42.048V50H286.661V42.104L280.165 30.4ZM314.05 50.336C313.845 50.3547 313.528 50.364 313.098 50.364C310.578 50.364 308.338 49.8227 306.378 48.74V44.624C307.405 45.2587 308.534 45.7907 309.766 46.22C310.998 46.6493 312.118 46.864 313.126 46.864C313.948 46.864 314.592 46.6587 315.058 46.248C315.544 45.8373 315.786 45.3707 315.786 44.848C315.786 44.12 315.506 43.4573 314.946 42.86C314.386 42.244 313.49 41.7493 312.258 41.376C310.84 40.928 309.729 40.48 308.926 40.032C308.142 39.5653 307.545 38.9867 307.134 38.296C306.742 37.6053 306.546 36.728 306.546 35.664C306.546 34.656 306.789 33.7413 307.274 32.92C307.76 32.08 308.469 31.408 309.402 30.904C310.354 30.4 311.484 30.12 312.79 30.064C312.958 30.0453 313.22 30.036 313.574 30.036C314.545 30.036 315.516 30.1387 316.486 30.344C317.476 30.5307 318.306 30.7733 318.978 31.072V34.684C318.25 34.3667 317.401 34.1053 316.43 33.9C315.46 33.6947 314.601 33.592 313.854 33.592C312.902 33.592 312.174 33.76 311.67 34.096C311.166 34.432 310.914 34.8987 310.914 35.496C310.914 36.0373 311.185 36.5227 311.726 36.952C312.268 37.3813 313.108 37.792 314.246 38.184C315.609 38.576 316.72 39.024 317.578 39.528C318.437 40.0133 319.109 40.6573 319.594 41.46C320.08 42.244 320.322 43.2333 320.322 44.428C320.322 45.5667 320.061 46.5747 319.538 47.452C319.016 48.3293 318.278 49.02 317.326 49.524C316.393 50.0093 315.301 50.28 314.05 50.336ZM333.325 50.364C331.197 50.364 329.302 49.972 327.641 49.188C325.998 48.404 324.701 47.2653 323.749 45.772C322.815 44.2787 322.349 42.5053 322.349 40.452C322.349 38.2867 322.806 36.4293 323.721 34.88C324.635 33.312 325.914 32.1173 327.557 31.296C329.199 30.456 331.075 30.036 333.185 30.036C334.23 30.036 335.285 30.1387 336.349 30.344C337.413 30.5493 338.29 30.8107 338.981 31.128V34.6C337.095 33.9093 335.341 33.564 333.717 33.564C331.775 33.564 330.198 34.1333 328.985 35.272C327.79 36.4107 327.193 38.1373 327.193 40.452C327.193 41.684 327.491 42.776 328.089 43.728C328.686 44.6613 329.47 45.3893 330.441 45.912C331.411 46.4347 332.457 46.7333 333.577 46.808L334.193 46.836C335.051 46.836 335.901 46.7147 336.741 46.472C337.581 46.2293 338.327 45.9027 338.981 45.492V49.356C338.178 49.7293 337.319 49.9907 336.405 50.14C335.509 50.2893 334.482 50.364 333.325 50.364ZM351.485 50.364C349.432 50.364 347.658 49.9813 346.165 49.216C344.672 48.432 343.514 47.2933 342.693 45.8C341.89 44.3067 341.489 42.5147 341.489 40.424C341.489 38.296 341.89 36.448 342.693 34.88C343.514 33.312 344.672 32.1173 346.165 31.296C347.677 30.456 349.45 30.036 351.485 30.036C353.52 30.036 355.284 30.456 356.777 31.296C358.27 32.1173 359.418 33.312 360.221 34.88C361.042 36.448 361.453 38.296 361.453 40.424C361.453 42.5333 361.042 44.3347 360.221 45.828C359.418 47.3027 358.28 48.432 356.805 49.216C355.33 49.9813 353.557 50.364 351.485 50.364ZM346.389 40.424C346.389 42.44 346.837 44.036 347.733 45.212C348.629 46.3693 349.88 46.948 351.485 46.948C353.072 46.948 354.313 46.3693 355.209 45.212C356.105 44.036 356.553 42.44 356.553 40.424C356.553 39.0987 356.357 37.9133 355.965 36.868C355.573 35.8227 354.985 35.0013 354.201 34.404C353.436 33.8067 352.53 33.508 351.485 33.508C350.44 33.508 349.534 33.8067 348.769 34.404C348.004 35.0013 347.416 35.8227 347.005 36.868C346.594 37.9133 346.389 39.0987 346.389 40.424ZM373.324 30.4C375.303 30.4 376.862 30.9133 378 31.94C379.158 32.948 379.736 34.376 379.736 36.224C379.736 37.7547 379.335 39.0053 378.532 39.976C377.748 40.9467 376.638 41.572 375.2 41.852C376.283 43.0467 377.244 44.288 378.084 45.576C378.924 46.864 379.727 48.3387 380.492 50H376.236C375.359 48.2267 374.547 46.7613 373.8 45.604C373.054 44.4467 372.083 43.2613 370.888 42.048H368.872V50H364.252V30.4H373.324ZM372.988 38.828C373.94 38.828 374.678 38.576 375.2 38.072C375.723 37.568 375.984 36.952 375.984 36.224C375.984 35.4773 375.714 34.8613 375.172 34.376C374.65 33.872 373.922 33.62 372.988 33.62H368.872V38.828H372.988ZM382.737 30.4H396.513V34.208H387.357V38.408H395.309V41.964H387.357V46.192H396.513V50H382.737V30.4Z" fill="white"/>
<path d="M139 27C136.807 27 135 28.8073 135 31C135 31.2552 135.031 31.5052 135.078 31.7448L125.563 37.2917C124.865 36.7031 123.974 36.3333 123 36.3333C120.807 36.3333 119 38.1406 119 40.3333C119 42.526 120.807 44.3333 123 44.3333C123.974 44.3333 124.865 43.9635 125.563 43.375L135.078 48.9167C135.031 49.1615 135 49.4115 135 49.6667C135 51.8594 136.807 53.6667 139 53.6667C141.193 53.6667 143 51.8594 143 49.6667C143 47.474 141.193 45.6667 139 45.6667C138.021 45.6667 137.135 46.0417 136.438 46.6302L126.927 41.0781C126.969 40.8385 127 40.5885 127 40.3333C127 40.0781 126.969 39.8281 126.927 39.5885L136.438 34.0417C137.135 34.6302 138.026 35 139 35C141.193 35 143 33.1927 143 31C143 28.8073 141.193 27 139 27ZM139 29.6667C139.75 29.6667 140.333 30.25 140.333 31C140.333 31.75 139.75 32.3333 139 32.3333C138.25 32.3333 137.667 31.75 137.667 31C137.667 30.25 138.25 29.6667 139 29.6667ZM123 39C123.75 39 124.333 39.5833 124.333 40.3333C124.333 41.0833 123.75 41.6667 123 41.6667C122.25 41.6667 121.667 41.0833 121.667 40.3333C121.667 39.5833 122.25 39 123 39ZM139 48.3333C139.75 48.3333 140.333 48.9167 140.333 49.6667C140.333 50.4167 139.75 51 139 51C138.25 51 137.667 50.4167 137.667 49.6667C137.667 48.9167 138.25 48.3333 139 48.3333Z" fill="white"/>
<defs>
<filter id="filter0_i_424_1473" x="0" y="0" width="532" height="88" filterUnits="userSpaceOnUse" color-interpolation-filters="sRGB">
<feFlood flood-opacity="0" result="BackgroundImageFix"/>
<feBlend mode="normal" in="SourceGraphic" in2="BackgroundImageFix" result="shape"/>
<feColorMatrix in="SourceAlpha" type="matrix" values="0 0 0 0 0 0 0 0 0 0 0 0 0 0 0 0 0 0 127 0" result="hardAlpha"/>
<feOffset dy="-12"/>
<feComposite in2="hardAlpha" operator="arithmetic" k2="-1" k3="1"/>
<feColorMatrix type="matrix" values="0 0 0 0 0 0 0 0 0 0 0 0 0 0 0 0 0 0 0.13 0"/>
<feBlend mode="normal" in2="shape" result="effect1_innerShadow_424_1473"/>
</filter>
<filter id="filter1_i_424_1473" x="0" y="0" width="532" height="88" filterUnits="userSpaceOnUse" color-interpolation-filters="sRGB">
<feFlood flood-opacity="0" result="BackgroundImageFix"/>
<feBlend mode="normal" in="SourceGraphic" in2="BackgroundImageFix" result="shape"/>
<feColorMatrix in="SourceAlpha" type="matrix" values="0 0 0 0 0 0 0 0 0 0 0 0 0 0 0 0 0 0 127 0" result="hardAlpha"/>
<feOffset dy="-12"/>
<feComposite in2="hardAlpha" operator="arithmetic" k2="-1" k3="1"/>
<feColorMatrix type="matrix" values="0 0 0 0 0 0 0 0 0 0 0 0 0 0 0 0 0 0 0.13 0"/>
<feBlend mode="normal" in2="shape" result="effect1_innerShadow_424_1473"/>
</filter>
</defs>
</svg>
