<svg width="532" height="88" viewBox="0 0 532 88" fill="none" xmlns="http://www.w3.org/2000/svg">
<g filter="url(#filter0_i_424_1448)">
<rect width="532" height="88" rx="28" fill="#21C58C"/>
</g>
<g filter="url(#filter1_i_424_1448)">
<rect width="532" height="88" rx="28" fill="#21C58C"/>
</g>
<path d="M211.319 49.2735H215.183L215.519 41.4895H208.967C208.295 44.5322 207.025 47.0242 205.159 48.9655C203.292 50.9069 200.856 52.2322 197.851 52.9415V49.1895C199.848 48.6295 201.472 47.7055 202.723 46.4175C203.992 45.1109 204.869 43.4682 205.355 41.4895H200.791V38.4095C199.671 39.1935 198.411 39.8655 197.011 40.4255V36.1695C198.877 35.2922 200.389 34.1349 201.547 32.6975C202.723 31.2602 203.609 29.4775 204.207 27.3495H207.987C206.997 31.8482 204.832 35.3669 201.491 37.9055H218.291C214.949 35.3669 212.784 31.8482 211.795 27.3495H215.575C216.172 29.4775 217.049 31.2602 218.207 32.6975C219.383 34.1349 220.904 35.2922 222.771 36.1695V40.4255C221.464 39.8655 220.307 39.2589 219.299 38.6055L218.767 52.8295H211.319V49.2735ZM224.899 44.6535H239.375C240.177 44.2615 240.971 43.8042 241.755 43.2815H226.999V40.0335H249.371C247.915 41.8629 246.356 43.4029 244.695 44.6535H250.883V47.9295H241.335V52.8295H232.963V49.4695H237.695V47.9295H224.899V44.6535ZM225.767 28.2735H236.043V27.0695H239.739V28.2735H250.015V31.4935H225.767V28.2735ZM227.951 32.3895H247.831V39.0255H227.951V32.3895ZM244.191 36.3935V34.9655H231.591V36.3935H244.191ZM264.491 48.5735C266.563 47.9015 268.327 46.9962 269.783 45.8575C268.7 43.6735 268.131 41.1162 268.075 38.1855H262.335V41.3775L266.731 40.4815V44.0935L262.335 44.9895V52.8295H255.055V49.4135H258.779V45.3815L253.291 46.5015V42.8895L258.779 41.7695V38.1855H253.291V34.6855H258.779V31.8575C257.528 31.9509 256.007 31.9975 254.215 31.9975V28.4975C258.097 28.4975 262.111 28.1242 266.255 27.3775V30.8775C264.761 31.1575 263.455 31.3722 262.335 31.5215V34.6855H268.075V27.6295H271.659V34.6855H278.491V38.1855H271.659C271.715 40.3695 272.013 42.1802 272.555 43.6175C273.544 42.2175 274.253 40.6962 274.683 39.0535H278.099C277.352 41.9842 276.148 44.5229 274.487 46.6695C275.532 47.7335 276.876 48.6015 278.519 49.2735V53.1095C275.756 52.2509 273.516 50.8509 271.799 48.9095C269.783 50.4029 267.347 51.5789 264.491 52.4375V48.5735ZM276.531 28.1895L278.043 33.0895H274.599L273.087 28.1895H276.531ZM284.847 30.2335L285.211 27.4895H288.879L288.515 30.2335H292.435V36.8695C293.704 33.8082 294.413 30.6349 294.563 27.3495H298.315C298.296 28.2082 298.221 29.1695 298.091 30.2335H306.071V52.8295H299.715V49.1895H302.459V33.8175H297.447C297.092 35.2922 296.653 36.6082 296.131 37.7655H292.435V52.4375H281.655V30.2335H284.847ZM288.935 48.9935V42.8335H285.155V48.9935H288.935ZM288.935 39.4735V33.6775H285.155V39.4735H288.935ZM298.539 38.4095L300.303 45.2415H296.607L294.843 38.4095H298.539ZM308.955 52.8295C309.664 50.6455 310.159 48.5082 310.439 46.4175C310.737 44.3082 310.887 41.9095 310.887 39.2215V29.9255H324.747L324.271 27.0695H328.163L328.639 29.9255H334.631V33.5095H329.255L329.423 34.4335C329.684 35.9829 329.992 37.5135 330.347 39.0255L334.351 36.3095V41.0135L331.383 43.0295C332.335 46.4082 333.483 49.6749 334.827 52.8295H330.403C329.805 51.1869 329.339 49.7962 329.003 48.6575L324.439 51.7375V47.1175L327.855 44.8215C326.884 41.3309 326.109 37.8682 325.531 34.4335L325.363 33.5095H314.527V37.5135H322.983V51.9895H317.215V48.4055H319.399V41.0695H314.499C314.461 43.2722 314.331 45.3255 314.107 47.2295C313.883 49.1149 313.528 50.9815 313.043 52.8295H308.955ZM333.147 27.1815L333.455 29.4215H330.543L330.235 27.1815H333.147ZM347.007 39.5015H361.679V47.9575H358.711L362.659 49.4415V53.1095L354.931 50.1975V48.4895C353.344 51.0842 350.404 52.6242 346.111 53.1095V49.5255C347.828 49.2829 349.153 48.8815 350.087 48.3215C351.02 47.7615 351.673 47.0615 352.047 46.2215C352.439 45.3629 352.672 44.2709 352.747 42.9455H356.359C356.321 44.4015 356.107 45.6989 355.715 46.8375L358.151 47.7335V42.2455H350.535V47.9575H347.007V39.5015ZM340.735 27.6295H344.179L341.127 35.6375L342.079 36.1975L343.395 32.6415H346.671L342.975 42.6095H345.271V46.2215H337.683L340.175 39.4735L336.955 37.6535L340.735 27.6295ZM337.263 49.0495L345.411 48.1255V51.7375L337.263 52.6615V49.0495ZM345.887 35.8055H352.383V34.7135H347.287V32.0535H352.383V30.9615H346.447V28.1335H352.383V27.0695H356.023V28.1335H362.239V30.9615H356.023V32.0535H361.399V34.7135H356.023V35.8055H362.799V38.6895H345.887V35.8055Z" fill="white"/>
<path d="M181 27C178.807 27 177 28.8073 177 31C177 31.2552 177.031 31.5052 177.078 31.7448L167.563 37.2917C166.865 36.7031 165.974 36.3333 165 36.3333C162.807 36.3333 161 38.1406 161 40.3333C161 42.526 162.807 44.3333 165 44.3333C165.974 44.3333 166.865 43.9635 167.563 43.375L177.078 48.9167C177.031 49.1615 177 49.4115 177 49.6667C177 51.8594 178.807 53.6667 181 53.6667C183.193 53.6667 185 51.8594 185 49.6667C185 47.474 183.193 45.6667 181 45.6667C180.021 45.6667 179.135 46.0417 178.438 46.6302L168.927 41.0781C168.969 40.8385 169 40.5885 169 40.3333C169 40.0781 168.969 39.8281 168.927 39.5885L178.438 34.0417C179.135 34.6302 180.026 35 181 35C183.193 35 185 33.1927 185 31C185 28.8073 183.193 27 181 27ZM181 29.6667C181.75 29.6667 182.333 30.25 182.333 31C182.333 31.75 181.75 32.3333 181 32.3333C180.25 32.3333 179.667 31.75 179.667 31C179.667 30.25 180.25 29.6667 181 29.6667ZM165 39C165.75 39 166.333 39.5833 166.333 40.3333C166.333 41.0833 165.75 41.6667 165 41.6667C164.25 41.6667 163.667 41.0833 163.667 40.3333C163.667 39.5833 164.25 39 165 39ZM181 48.3333C181.75 48.3333 182.333 48.9167 182.333 49.6667C182.333 50.4167 181.75 51 181 51C180.25 51 179.667 50.4167 179.667 49.6667C179.667 48.9167 180.25 48.3333 181 48.3333Z" fill="white"/>
<defs>
<filter id="filter0_i_424_1448" x="0" y="0" width="532" height="88" filterUnits="userSpaceOnUse" color-interpolation-filters="sRGB">
<feFlood flood-opacity="0" result="BackgroundImageFix"/>
<feBlend mode="normal" in="SourceGraphic" in2="BackgroundImageFix" result="shape"/>
<feColorMatrix in="SourceAlpha" type="matrix" values="0 0 0 0 0 0 0 0 0 0 0 0 0 0 0 0 0 0 127 0" result="hardAlpha"/>
<feOffset dy="-12"/>
<feComposite in2="hardAlpha" operator="arithmetic" k2="-1" k3="1"/>
<feColorMatrix type="matrix" values="0 0 0 0 0 0 0 0 0 0 0 0 0 0 0 0 0 0 0.13 0"/>
<feBlend mode="normal" in2="shape" result="effect1_innerShadow_424_1448"/>
</filter>
<filter id="filter1_i_424_1448" x="0" y="0" width="532" height="88" filterUnits="userSpaceOnUse" color-interpolation-filters="sRGB">
<feFlood flood-opacity="0" result="BackgroundImageFix"/>
<feBlend mode="normal" in="SourceGraphic" in2="BackgroundImageFix" result="shape"/>
<feColorMatrix in="SourceAlpha" type="matrix" values="0 0 0 0 0 0 0 0 0 0 0 0 0 0 0 0 0 0 127 0" result="hardAlpha"/>
<feOffset dy="-12"/>
<feComposite in2="hardAlpha" operator="arithmetic" k2="-1" k3="1"/>
<feColorMatrix type="matrix" values="0 0 0 0 0 0 0 0 0 0 0 0 0 0 0 0 0 0 0.13 0"/>
<feBlend mode="normal" in2="shape" result="effect1_innerShadow_424_1448"/>
</filter>
</defs>
</svg>
