<svg width="532" height="88" viewBox="0 0 532 88" fill="none" xmlns="http://www.w3.org/2000/svg">
<g filter="url(#filter0_i_517_2640)">
<rect width="532" height="88" rx="28" fill="#21C58C"/>
</g>
<g filter="url(#filter1_i_517_2640)">
<rect width="532" height="88" rx="28" fill="#21C58C"/>
</g>
<path d="M174.088 35.58C174.088 37.988 174.004 40.144 173.836 42.048C173.668 43.952 173.379 45.8467 172.968 47.732C173.808 48.236 174.751 48.6 175.796 48.824C176.86 49.0293 178.148 49.132 179.66 49.132H193.38V52.52H179.66C177.905 52.52 176.44 52.408 175.264 52.184C174.088 51.9787 173.043 51.6333 172.128 51.148L171.624 52.8H167.788C168.684 50.3733 169.337 48.1147 169.748 46.024C170.177 43.9147 170.439 41.6467 170.532 39.22H167.34V35.58H174.088ZM172.268 27.6L174.2 33.676H170.42L168.488 27.6H172.268ZM174.816 48.124C175.507 46.9293 176.001 45.7627 176.3 44.624C176.599 43.4667 176.767 42.188 176.804 40.788H174.984V37.792H178.4V36.868H175.46V28.188H178.148L178.4 27.096H181.844L181.592 28.188H184.056V36.868H181.732V37.792H185.036V40.788H179.772C179.772 41.2173 179.763 41.5347 179.744 41.74H184.476V47.032C185.783 44.9227 186.744 43.0747 187.36 41.488L186.1 37.26H184.112C184.896 34.2733 185.437 30.9227 185.736 27.208H188.844L188.788 27.852C188.751 28.4493 188.713 28.8973 188.676 29.196H193.128V32.612H192.428C192.185 36.0467 191.709 38.9213 191 41.236L193.324 47.844H190.272L189.264 44.904C188.909 45.632 188.405 46.612 187.752 47.844H184.476V48.124H181.508V44.792H179.352C179.072 46.024 178.736 47.1347 178.344 48.124H174.816ZM181.06 34.572V33.62H178.456V34.572H181.06ZM181.06 31.408V30.54H178.456V31.408H181.06ZM188.984 37.176C189.245 35.8507 189.451 34.3293 189.6 32.612H188.284C188.209 33.116 188.144 33.5267 188.088 33.844L188.984 37.176ZM204.86 39.388H220.036V52.8H216.396V50.308H208.5V52.8H204.86V39.388ZM195.48 35.58H201.332V47.2L203.236 46.472V50.644L197.692 52.8V39.304H195.48V35.58ZM200.464 27.6L202.396 33.676H198.588L196.656 27.6H200.464ZM203.404 35.72H210.572V34.74H204.636V31.968H210.572V30.988H203.88V28.16H210.572V27.04H214.212V28.16H221.016V30.988H214.212V31.968H220.232V34.74H214.212V35.72H221.492V38.604H203.404V35.72ZM216.396 47.592V46.332H208.5V47.592H216.396ZM216.396 43.616V42.356H208.5V43.616H216.396ZM231.124 48.992C230.489 50.2427 229.78 51.512 228.996 52.8H224.572C226.196 50.4293 227.4 48.4693 228.184 46.92L223.984 43.952L225.384 34.404H223.9V30.764H225.916L226.392 27.6H230.256L229.836 30.764H234.54C234.54 34.068 234.4 36.84 234.12 39.08C233.859 41.3013 233.345 43.476 232.58 45.604L234.064 46.668V51.064L231.124 48.992ZM229.64 43.504C230.499 40.928 231.003 37.8947 231.152 34.404H228.8L227.708 42.132L229.64 43.504ZM234.764 37.652H240.392C241.68 35.748 242.651 33.7507 243.304 31.66H235.94V28.02H248.064C247.336 31.66 246.151 34.8707 244.508 37.652H249.66V41.292H244.284V52.8H236.696V49.16H240.756V41.292H234.764V37.652ZM276.54 53.136C272.993 52.296 269.941 50.9893 267.384 49.216C264.827 50.9893 261.775 52.296 258.228 53.136V49.272C260.617 48.6187 262.68 47.7693 264.416 46.724C261.896 44.148 260.244 40.9747 259.46 37.204C258.359 42.5053 256.996 47.704 255.372 52.8H251.368C253.459 47.0507 255.185 40.5267 256.548 33.228H251.9V29.7H257.164C257.276 29.1213 257.425 28.2347 257.612 27.04H261.28L260.86 29.7H277.1V33.228H260.216C259.992 34.46 259.815 35.384 259.684 36H275.532C274.86 40.312 273.133 43.8867 270.352 46.724C272.088 47.7693 274.151 48.6187 276.54 49.272V53.136ZM263.8 39.416C264.659 41.4133 265.853 43.1213 267.384 44.54C268.915 43.1213 270.109 41.4133 270.968 39.416H263.8ZM279.9 37.316H305.1V41.18H279.9V37.316ZM321.816 34.628H328.592V31.492H320.752V27.964H332.176V38.1H325.372V43.476H329.404V41.292H332.988V46.948H321.816V34.628ZM307.34 52.8C308.012 50.6347 308.46 48.628 308.684 46.78C308.927 44.932 309.048 42.7387 309.048 40.2H312.352C312.352 42.8507 312.221 45.1933 311.96 47.228C312.539 47.6387 313.127 47.9467 313.724 48.152V38.884H307.9V35.664H312.436V33.172H308.544V29.98H312.436V27.6H315.908V29.98H319.8V33.172H315.908V35.664H320.444V38.884H317.112V41.712H320.08V44.988H317.112V48.88C317.933 48.9173 318.596 48.936 319.1 48.936H333.38V52.52H319.1C317.252 52.52 315.721 52.3987 314.508 52.156C313.313 51.932 312.231 51.54 311.26 50.98L310.812 52.8H307.34ZM343.376 49.216C345.317 48.2267 346.633 47.1533 347.324 45.996C348.015 44.82 348.388 43.6067 348.444 42.356L344.216 45.268V42.496L342.2 43.028V52.8H336.544V49.412H338.56V43.952L335.788 44.652V40.76L338.56 40.06V34.88H336.068V31.352H338.56V27.46H342.2V31.352H344.3V34.88H342.2V39.136L344.58 38.52V41.236L348.444 38.576V27.46H351.804V41.6C351.804 43.168 351.617 44.652 351.244 46.052C350.871 47.452 350.059 48.796 348.808 50.084C347.576 51.372 345.765 52.3707 343.376 53.08V49.216ZM347.352 28.608L348.276 37.036H345.392L344.468 28.608H347.352ZM353.764 27.46H357.124V39.248L361.268 42.3V46.192L357.124 43.14V49.132H361.66V52.716H353.764V27.46ZM358.468 28.608H361.352L360.288 37.036H357.404L358.468 28.608ZM389.38 53.304C386.561 52.464 384.368 51.0733 382.8 49.132C382.072 49.8413 381.26 50.4387 380.364 50.924C379.487 51.428 378.497 51.8947 377.396 52.324V48.208C378.871 47.6293 380.056 46.864 380.952 45.912C380.037 43.616 379.58 40.732 379.58 37.26H377.032V33.844H379.524V27.46H382.856V33.844H388.288V37.26H382.912C382.931 38.492 382.968 39.5373 383.024 40.396C383.08 41.2547 383.192 42.048 383.36 42.776C383.864 41.7493 384.256 40.5453 384.536 39.164H387.644C387.14 41.8147 386.272 44.204 385.04 46.332C386.011 47.5267 387.457 48.4973 389.38 49.244V53.304ZM364.432 38.968H368.212V27.46H371.796V31.044H376.668V34.684H371.796V38.968H375.996V52.52H364.432V38.968ZM372.524 48.908V42.58H367.904V48.908H372.524ZM386.384 28.076L387.392 32.948H384.34L383.36 28.076H386.384Z" fill="white"/>
<path d="M152 27C149.807 27 148 28.8073 148 31C148 31.2552 148.031 31.5052 148.078 31.7448L138.563 37.2917C137.865 36.7031 136.974 36.3333 136 36.3333C133.807 36.3333 132 38.1406 132 40.3333C132 42.526 133.807 44.3333 136 44.3333C136.974 44.3333 137.865 43.9635 138.563 43.375L148.078 48.9167C148.031 49.1615 148 49.4115 148 49.6667C148 51.8594 149.807 53.6667 152 53.6667C154.193 53.6667 156 51.8594 156 49.6667C156 47.474 154.193 45.6667 152 45.6667C151.021 45.6667 150.135 46.0417 149.438 46.6302L139.927 41.0781C139.969 40.8385 140 40.5885 140 40.3333C140 40.0781 139.969 39.8281 139.927 39.5885L149.438 34.0417C150.135 34.6302 151.026 35 152 35C154.193 35 156 33.1927 156 31C156 28.8073 154.193 27 152 27ZM152 29.6667C152.75 29.6667 153.333 30.25 153.333 31C153.333 31.75 152.75 32.3333 152 32.3333C151.25 32.3333 150.667 31.75 150.667 31C150.667 30.25 151.25 29.6667 152 29.6667ZM136 39C136.75 39 137.333 39.5833 137.333 40.3333C137.333 41.0833 136.75 41.6667 136 41.6667C135.25 41.6667 134.667 41.0833 134.667 40.3333C134.667 39.5833 135.25 39 136 39ZM152 48.3333C152.75 48.3333 153.333 48.9167 153.333 49.6667C153.333 50.4167 152.75 51 152 51C151.25 51 150.667 50.4167 150.667 49.6667C150.667 48.9167 151.25 48.3333 152 48.3333Z" fill="white"/>
<defs>
<filter id="filter0_i_517_2640" x="0" y="0" width="532" height="88" filterUnits="userSpaceOnUse" color-interpolation-filters="sRGB">
<feFlood flood-opacity="0" result="BackgroundImageFix"/>
<feBlend mode="normal" in="SourceGraphic" in2="BackgroundImageFix" result="shape"/>
<feColorMatrix in="SourceAlpha" type="matrix" values="0 0 0 0 0 0 0 0 0 0 0 0 0 0 0 0 0 0 127 0" result="hardAlpha"/>
<feOffset dy="-12"/>
<feComposite in2="hardAlpha" operator="arithmetic" k2="-1" k3="1"/>
<feColorMatrix type="matrix" values="0 0 0 0 0 0 0 0 0 0 0 0 0 0 0 0 0 0 0.13 0"/>
<feBlend mode="normal" in2="shape" result="effect1_innerShadow_517_2640"/>
</filter>
<filter id="filter1_i_517_2640" x="0" y="0" width="532" height="88" filterUnits="userSpaceOnUse" color-interpolation-filters="sRGB">
<feFlood flood-opacity="0" result="BackgroundImageFix"/>
<feBlend mode="normal" in="SourceGraphic" in2="BackgroundImageFix" result="shape"/>
<feColorMatrix in="SourceAlpha" type="matrix" values="0 0 0 0 0 0 0 0 0 0 0 0 0 0 0 0 0 0 127 0" result="hardAlpha"/>
<feOffset dy="-12"/>
<feComposite in2="hardAlpha" operator="arithmetic" k2="-1" k3="1"/>
<feColorMatrix type="matrix" values="0 0 0 0 0 0 0 0 0 0 0 0 0 0 0 0 0 0 0.13 0"/>
<feBlend mode="normal" in2="shape" result="effect1_innerShadow_517_2640"/>
</filter>
</defs>
</svg>



