<svg width="192" height="231" viewBox="0 0 192 231" fill="none" xmlns="http://www.w3.org/2000/svg">
<g filter="url(#filter0_d_704_3001)">
<rect x="11" y="7" width="170" height="209" rx="40" fill="white"/>
</g>
<path d="M17.6233 51C17.6233 32.2223 32.8456 17 51.6233 17H140.377C159.154 17 174.377 32.2223 174.377 51V81C174.377 92.0457 165.422 101 154.377 101H37.6233C26.5776 101 17.6233 92.0457 17.6233 81V51Z" fill="#763CA6"/>
<path d="M17.6233 64.8889C17.6233 47.2712 17.6233 38.4624 20.8088 31.631C24.187 24.3864 30.0097 18.5637 37.2543 15.1855C44.0857 12 52.8945 12 70.5122 12H121.488C139.105 12 147.914 12 154.746 15.1855C161.99 18.5637 167.813 24.3864 171.191 31.631C174.377 38.4624 174.377 47.2712 174.377 64.8889C174.377 75.2522 174.377 80.4339 172.503 84.4524C170.516 88.7139 167.09 92.139 162.829 94.1262C158.81 96 153.629 96 143.265 96H48.7344C38.3711 96 33.1894 96 29.1709 94.1262C24.9094 92.139 21.4843 88.7139 19.4971 84.4524C17.6233 80.4339 17.6233 75.2522 17.6233 64.8889Z" fill="url(#paint0_linear_704_3001)"/>
<path d="M95.3975 46.5654H98.7783L102.999 12H111.03L98.874 46.6562L102.14 47.1455L123.669 12.002C127.125 12.0031 130.224 12.0081 133.024 12.0479L102.189 47.248L105.12 48.1914L147.404 13.0107C150.198 13.4819 152.573 14.172 154.746 15.1855C155.13 15.3646 155.509 15.5525 155.885 15.7451L105.12 48.2969L107.513 49.6309L164.354 21.8965C165.862 23.3962 167.228 25.0377 168.434 26.7998L107.465 49.7334L109.159 51.3682L172.168 34.085C172.686 35.619 173.084 37.2719 173.388 39.1064L109.065 51.459L109.945 53.2832L174.107 46.2051C174.187 47.65 174.242 49.1917 174.281 50.8447L109.812 53.3584L109.816 55.2471L174.364 57.6475C174.371 59.1286 174.373 60.6841 174.374 62.3203L109.652 55.2998L108.783 57.126L174.367 69.5889C174.355 71.626 174.325 73.419 174.257 75.0186L108.601 57.1533L106.916 58.791L172.922 83.4482C172.793 83.7918 172.655 84.126 172.503 84.4521C171.697 86.1804 170.654 87.7706 169.415 89.1836L106.726 58.791L104.341 60.1299L159.432 95.2295C156.537 95.843 152.87 95.9672 147.592 95.9922L104.158 60.1025L101.233 61.0518L132.095 96H122.732L101.069 60.999L97.8047 61.4932L110.113 96H102.09L97.6699 61.4189L94.2881 61.4248L90.2627 96H82.2363L94.1924 61.333L90.9229 60.8506L69.6123 96H60.2393L90.8721 60.749L87.9375 59.8105L44.7432 95.9941C39.4319 95.9733 35.7278 95.8633 32.8086 95.2803L87.9365 59.7051L85.5352 58.374L22.6475 89.2549C21.3812 87.8242 20.3165 86.2094 19.4971 84.4521C19.3462 84.1285 19.2086 83.7969 19.0811 83.4561L85.584 58.2725L83.8799 56.6406L17.7383 74.9277C17.6709 73.3069 17.6418 71.4883 17.6309 69.4199L83.9736 56.5488L83.084 54.7266L17.626 62.0674C17.6269 60.4043 17.6291 58.8252 17.6367 57.3232L83.2168 54.6514L83.2012 52.7627L17.7285 50.4434C17.7719 48.7603 17.834 47.1941 17.9209 45.7285L83.3652 52.709L84.2236 50.8828L18.7061 38.5596C19.0387 36.7032 19.4733 35.033 20.042 33.4814L84.4053 50.8545L86.0811 49.2139L24 26.1807C25.2698 24.4109 26.7043 22.77 28.2832 21.2793L86.2705 49.2129L88.6484 47.8701L37.1201 15.249C37.1648 15.228 37.2092 15.2064 37.2539 15.1855C39.7959 14.0002 42.6121 13.2554 46.0537 12.7881L88.833 47.8965L91.751 46.9434L60.6729 12.0293C63.488 12.0026 66.591 12.0001 70.0342 12L91.916 46.9951L95.1777 46.4951L82.6709 12H91.1768L95.3975 46.5654Z" fill="white" fill-opacity="0.04"/>
<g filter="url(#filter1_f_704_3001)">
<ellipse cx="29.5249" cy="14.0838" rx="29.5249" ry="14.0838" transform="matrix(0.976962 0.213415 -0.257239 0.966348 72.3367 24)" fill="#68378F"/>
</g>
<path d="M51.5066 70.5C52.5666 70.5 53.4016 70.775 54.0116 71.325C54.6316 71.865 54.9416 72.63 54.9416 73.62C54.9416 74.44 54.7266 75.11 54.2966 75.63C53.8766 76.15 53.2816 76.485 52.5116 76.635C53.0916 77.275 53.6066 77.94 54.0566 78.63C54.5066 79.32 54.9366 80.11 55.3466 81H53.0666C52.5966 80.05 52.1616 79.265 51.7616 78.645C51.3616 78.025 50.8416 77.39 50.2016 76.74H49.1216V81H46.6466V70.5H51.5066ZM51.3266 75.015C51.8366 75.015 52.2316 74.88 52.5116 74.61C52.7916 74.34 52.9316 74.01 52.9316 73.62C52.9316 73.22 52.7866 72.89 52.4966 72.63C52.2166 72.36 51.8266 72.225 51.3266 72.225H49.1216V75.015H51.3266ZM59.7024 81.195C58.9424 81.195 58.2774 81.015 57.7074 80.655C57.1474 80.295 56.7124 79.8 56.4024 79.17C56.1024 78.54 55.9524 77.805 55.9524 76.965C55.9524 76.135 56.1024 75.4 56.4024 74.76C56.7124 74.11 57.1424 73.605 57.6924 73.245C58.2524 72.885 58.9024 72.705 59.6424 72.705C59.9824 72.705 60.3224 72.77 60.6624 72.9C61.0124 73.02 61.3374 73.19 61.6374 73.41V72.9H64.0374V79.11C64.0374 79.92 64.1374 80.55 64.3374 81H62.0874C62.0174 80.86 61.9574 80.68 61.9074 80.46C61.2874 80.95 60.5524 81.195 59.7024 81.195ZM58.2474 76.965C58.2474 77.425 58.3374 77.845 58.5174 78.225C58.7074 78.605 58.9524 78.91 59.2524 79.14C59.5624 79.36 59.8874 79.47 60.2274 79.47C60.4674 79.47 60.7374 79.42 61.0374 79.32C61.3374 79.21 61.5974 78.98 61.8174 78.63V75.27C61.5974 74.92 61.3374 74.695 61.0374 74.595C60.7474 74.495 60.4774 74.445 60.2274 74.445C59.8874 74.445 59.5624 74.555 59.2524 74.775C58.9524 74.995 58.7074 75.3 58.5174 75.69C58.3374 76.07 58.2474 76.495 58.2474 76.965ZM67.9396 72.87V73.845C68.3096 73.525 68.7296 73.275 69.1996 73.095C69.6796 72.915 70.1546 72.825 70.6246 72.825C71.3946 72.825 72.0046 73.05 72.4546 73.5C72.9146 73.95 73.1446 74.535 73.1446 75.255V80.97H70.7446V75.66C70.7446 75.37 70.6246 75.135 70.3846 74.955C70.1446 74.765 69.8596 74.67 69.5296 74.67C69.3196 74.67 69.0546 74.74 68.7346 74.88C68.4246 75.02 68.1596 75.19 67.9396 75.39V80.97H65.5396V72.87H67.9396ZM74.6509 81V69.465H77.0509V75.54H77.4109L79.2709 72.9H81.7759L79.1809 76.44C79.7309 76.96 80.2259 77.59 80.6659 78.33C81.1059 79.07 81.5459 79.96 81.9859 81H79.7209C79.2809 80.04 78.9109 79.31 78.6109 78.81C78.3209 78.3 77.9409 77.835 77.4709 77.415H77.0509V81H74.6509ZM89.9553 80.565C89.5753 80.795 89.1303 80.965 88.6203 81.075C88.1203 81.185 87.6353 81.24 87.1653 81.24C85.5653 81.24 84.3503 80.86 83.5203 80.1C82.7003 79.34 82.2903 78.275 82.2903 76.905C82.2903 75.545 82.6553 74.505 83.3853 73.785C84.1253 73.055 85.1303 72.69 86.4003 72.69C87.6603 72.69 88.6553 73.055 89.3853 73.785C90.1253 74.505 90.4953 75.545 90.4953 76.905C90.4953 77.055 90.4853 77.27 90.4653 77.55H84.6303C84.8503 78.84 85.6953 79.485 87.1653 79.485C88.1953 79.485 89.1253 79.18 89.9553 78.57V80.565ZM88.2303 75.87C88.1003 75.37 87.8753 75 87.5553 74.76C87.2353 74.52 86.8503 74.4 86.4003 74.4C85.9803 74.4 85.6203 74.525 85.3203 74.775C85.0303 75.025 84.8253 75.39 84.7053 75.87H88.2303ZM95.0917 81.195C94.3517 81.195 93.7017 81.02 93.1417 80.67C92.5817 80.31 92.1517 79.81 91.8517 79.17C91.5517 78.53 91.4017 77.8 91.4017 76.98C91.4017 76.15 91.5517 75.415 91.8517 74.775C92.1617 74.125 92.5917 73.62 93.1417 73.26C93.7017 72.9 94.3517 72.72 95.0917 72.72C95.4317 72.72 95.7717 72.78 96.1117 72.9C96.4617 73.02 96.7867 73.195 97.0867 73.425V69.465H99.4867V79.125C99.4867 79.925 99.5867 80.55 99.7867 81H97.5367C97.4667 80.86 97.4067 80.68 97.3567 80.46C96.7267 80.95 95.9717 81.195 95.0917 81.195ZM93.6967 76.98C93.6967 77.44 93.7867 77.86 93.9667 78.24C94.1567 78.62 94.4017 78.925 94.7017 79.155C95.0117 79.375 95.3367 79.485 95.6767 79.485C95.9467 79.485 96.2417 79.42 96.5617 79.29C96.8917 79.16 97.1617 78.89 97.3717 78.48V75.465C97.1617 75.045 96.8917 74.77 96.5617 74.64C96.2417 74.51 95.9467 74.445 95.6767 74.445C95.3367 74.445 95.0117 74.555 94.7017 74.775C94.4017 74.995 94.1567 75.3 93.9667 75.69C93.7867 76.08 93.6967 76.51 93.6967 76.98ZM107.555 72.36H107.42V81H105.035V70.5H109.34L110.765 78.015L110.795 78.165L110.825 78.015L112.25 70.5H116.555V81H114.17V72.36H114.05L112.25 81H109.34L107.555 72.36ZM122.161 81.195C121.311 81.195 120.561 81.02 119.911 80.67C119.271 80.32 118.776 79.825 118.426 79.185C118.076 78.535 117.901 77.77 117.901 76.89C117.901 75.54 118.281 74.505 119.041 73.785C119.801 73.065 120.841 72.705 122.161 72.705C123.471 72.705 124.506 73.065 125.266 73.785C126.026 74.505 126.406 75.54 126.406 76.89C126.406 77.77 126.231 78.535 125.881 79.185C125.531 79.825 125.036 80.32 124.396 80.67C123.756 81.02 123.011 81.195 122.161 81.195ZM120.271 76.89C120.271 77.66 120.446 78.28 120.796 78.75C121.146 79.22 121.601 79.455 122.161 79.455C122.721 79.455 123.171 79.22 123.511 78.75C123.861 78.28 124.036 77.66 124.036 76.89C124.036 76.09 123.866 75.485 123.526 75.075C123.196 74.655 122.741 74.445 122.161 74.445C121.581 74.445 121.121 74.655 120.781 75.075C120.441 75.485 120.271 76.09 120.271 76.89ZM130.995 81.195C130.255 81.195 129.605 81.02 129.045 80.67C128.485 80.31 128.055 79.81 127.755 79.17C127.455 78.53 127.305 77.8 127.305 76.98C127.305 76.15 127.455 75.415 127.755 74.775C128.065 74.125 128.495 73.62 129.045 73.26C129.605 72.9 130.255 72.72 130.995 72.72C131.335 72.72 131.675 72.78 132.015 72.9C132.365 73.02 132.69 73.195 132.99 73.425V69.465H135.39V79.125C135.39 79.925 135.49 80.55 135.69 81H133.44C133.37 80.86 133.31 80.68 133.26 80.46C132.63 80.95 131.875 81.195 130.995 81.195ZM129.6 76.98C129.6 77.44 129.69 77.86 129.87 78.24C130.06 78.62 130.305 78.925 130.605 79.155C130.915 79.375 131.24 79.485 131.58 79.485C131.85 79.485 132.145 79.42 132.465 79.29C132.795 79.16 133.065 78.89 133.275 78.48V75.465C133.065 75.045 132.795 74.77 132.465 74.64C132.145 74.51 131.85 74.445 131.58 74.445C131.24 74.445 130.915 74.555 130.605 74.775C130.305 74.995 130.06 75.3 129.87 75.69C129.69 76.08 129.6 76.51 129.6 76.98ZM144.257 80.565C143.877 80.795 143.432 80.965 142.922 81.075C142.422 81.185 141.937 81.24 141.467 81.24C139.867 81.24 138.652 80.86 137.822 80.1C137.002 79.34 136.592 78.275 136.592 76.905C136.592 75.545 136.957 74.505 137.687 73.785C138.427 73.055 139.432 72.69 140.702 72.69C141.962 72.69 142.957 73.055 143.687 73.785C144.427 74.505 144.797 75.545 144.797 76.905C144.797 77.055 144.787 77.27 144.767 77.55H138.932C139.152 78.84 139.997 79.485 141.467 79.485C142.497 79.485 143.427 79.18 144.257 78.57V80.565ZM142.532 75.87C142.402 75.37 142.177 75 141.857 74.76C141.537 74.52 141.152 74.4 140.702 74.4C140.282 74.4 139.922 74.525 139.622 74.775C139.332 75.025 139.127 75.39 139.007 75.87H142.532Z" fill="#FEFAFF"/>
<path d="M36.6974 118.2H43.5854V120.104H39.0074V122.204H42.9834V123.982H39.0074V126.096H43.5854V128H36.6974V118.2ZM47.9259 128.182C47.2165 128.182 46.5959 128.014 46.0639 127.678C45.5412 127.342 45.1352 126.88 44.8459 126.292C44.5659 125.704 44.4259 125.018 44.4259 124.234C44.4259 123.459 44.5659 122.773 44.8459 122.176C45.1352 121.569 45.5365 121.098 46.0499 120.762C46.5725 120.426 47.1792 120.258 47.8699 120.258C48.1872 120.258 48.5045 120.319 48.8219 120.44C49.1485 120.552 49.4519 120.711 49.7319 120.916V120.44H51.9719V126.236C51.9719 126.992 52.0652 127.58 52.2519 128H50.1519C50.0865 127.869 50.0305 127.701 49.9839 127.496C49.4052 127.953 48.7192 128.182 47.9259 128.182ZM46.5679 124.234C46.5679 124.663 46.6519 125.055 46.8199 125.41C46.9972 125.765 47.2259 126.049 47.5059 126.264C47.7952 126.469 48.0985 126.572 48.4159 126.572C48.6399 126.572 48.8919 126.525 49.1719 126.432C49.4519 126.329 49.6945 126.115 49.8999 125.788V122.652C49.6945 122.325 49.4519 122.115 49.1719 122.022C48.9012 121.929 48.6492 121.882 48.4159 121.882C48.0985 121.882 47.7952 121.985 47.5059 122.19C47.2259 122.395 46.9972 122.68 46.8199 123.044C46.6519 123.399 46.5679 123.795 46.5679 124.234ZM55.6138 120.44V121.252C55.8565 120.991 56.1458 120.79 56.4818 120.65C56.8272 120.501 57.1678 120.426 57.5038 120.426C57.7372 120.426 57.9565 120.459 58.1618 120.524V122.246C57.9005 122.181 57.6532 122.148 57.4198 122.148C57.0652 122.148 56.7292 122.209 56.4118 122.33C56.0945 122.442 55.8285 122.624 55.6138 122.876V128H53.3738V120.44H55.6138ZM61.3287 120.412V121.322C61.674 121.023 62.066 120.79 62.5047 120.622C62.9527 120.454 63.396 120.37 63.8347 120.37C64.5533 120.37 65.1227 120.58 65.5427 121C65.972 121.42 66.1867 121.966 66.1867 122.638V127.972H63.9467V123.016C63.9467 122.745 63.8347 122.526 63.6107 122.358C63.3867 122.181 63.1207 122.092 62.8127 122.092C62.6167 122.092 62.3693 122.157 62.0707 122.288C61.7813 122.419 61.534 122.577 61.3287 122.764V127.972H59.0887V120.412H61.3287ZM75.9053 118.2C76.8946 118.2 77.674 118.457 78.2433 118.97C78.822 119.474 79.1113 120.188 79.1113 121.112C79.1113 121.877 78.9106 122.503 78.5093 122.988C78.1173 123.473 77.562 123.786 76.8433 123.926C77.3846 124.523 77.8653 125.144 78.2853 125.788C78.7053 126.432 79.1066 127.169 79.4893 128H77.3613C76.9226 127.113 76.5166 126.381 76.1433 125.802C75.77 125.223 75.2846 124.631 74.6873 124.024H73.6793V128H71.3693V118.2H75.9053ZM75.7373 122.414C76.2133 122.414 76.582 122.288 76.8433 122.036C77.1046 121.784 77.2353 121.476 77.2353 121.112C77.2353 120.739 77.1 120.431 76.8293 120.188C76.568 119.936 76.204 119.81 75.7373 119.81H73.6793V122.414H75.7373ZM83.5548 128.182C82.8454 128.182 82.2248 128.014 81.6928 127.678C81.1701 127.342 80.7641 126.88 80.4748 126.292C80.1948 125.704 80.0548 125.018 80.0548 124.234C80.0548 123.459 80.1948 122.773 80.4748 122.176C80.7641 121.569 81.1654 121.098 81.6788 120.762C82.2014 120.426 82.8081 120.258 83.4988 120.258C83.8161 120.258 84.1334 120.319 84.4508 120.44C84.7774 120.552 85.0808 120.711 85.3608 120.916V120.44H87.6008V126.236C87.6008 126.992 87.6941 127.58 87.8808 128H85.7808C85.7154 127.869 85.6594 127.701 85.6128 127.496C85.0341 127.953 84.3481 128.182 83.5548 128.182ZM82.1968 124.234C82.1968 124.663 82.2808 125.055 82.4488 125.41C82.6261 125.765 82.8548 126.049 83.1348 126.264C83.4241 126.469 83.7274 126.572 84.0448 126.572C84.2688 126.572 84.5208 126.525 84.8008 126.432C85.0808 126.329 85.3234 126.115 85.5288 125.788V122.652C85.3234 122.325 85.0808 122.115 84.8008 122.022C84.5301 121.929 84.2781 121.882 84.0448 121.882C83.7274 121.882 83.4241 121.985 83.1348 122.19C82.8548 122.395 82.6261 122.68 82.4488 123.044C82.2808 123.399 82.1968 123.795 82.1968 124.234ZM91.2427 120.412V121.322C91.5881 121.023 91.9801 120.79 92.4187 120.622C92.8667 120.454 93.3101 120.37 93.7487 120.37C94.4674 120.37 95.0367 120.58 95.4567 121C95.8861 121.42 96.1007 121.966 96.1007 122.638V127.972H93.8607V123.016C93.8607 122.745 93.7487 122.526 93.5247 122.358C93.3007 122.181 93.0347 122.092 92.7267 122.092C92.5307 122.092 92.2834 122.157 91.9847 122.288C91.6954 122.419 91.4481 122.577 91.2427 122.764V127.972H89.0027V120.412H91.2427ZM97.5066 128V117.234H99.7466V122.904H100.083L101.819 120.44H104.157L101.735 123.744C102.248 124.229 102.71 124.817 103.121 125.508C103.531 126.199 103.942 127.029 104.353 128H102.239C101.828 127.104 101.483 126.423 101.203 125.956C100.932 125.48 100.577 125.046 100.139 124.654H99.7466V128H97.5066ZM114.175 128.182C113.111 128.182 112.164 127.986 111.333 127.594C110.512 127.202 109.863 126.633 109.387 125.886C108.92 125.139 108.687 124.253 108.687 123.226C108.687 122.143 108.916 121.215 109.373 120.44C109.83 119.656 110.47 119.059 111.291 118.648C112.112 118.228 113.05 118.018 114.105 118.018C114.628 118.018 115.155 118.069 115.687 118.172C116.219 118.275 116.658 118.405 117.003 118.564V120.3C116.06 119.955 115.183 119.782 114.371 119.782C113.4 119.782 112.612 120.067 112.005 120.636C111.408 121.205 111.109 122.069 111.109 123.226C111.109 123.842 111.258 124.388 111.557 124.864C111.856 125.331 112.248 125.695 112.733 125.956C113.218 126.217 113.741 126.367 114.301 126.404L114.609 126.418C115.038 126.418 115.463 126.357 115.883 126.236C116.303 126.115 116.676 125.951 117.003 125.746V127.678C116.602 127.865 116.172 127.995 115.715 128.07C115.267 128.145 114.754 128.182 114.175 128.182ZM120.637 120.44V121.252C120.88 120.991 121.169 120.79 121.505 120.65C121.851 120.501 122.191 120.426 122.527 120.426C122.761 120.426 122.98 120.459 123.185 120.524V122.246C122.924 122.181 122.677 122.148 122.443 122.148C122.089 122.148 121.753 122.209 121.435 122.33C121.118 122.442 120.852 122.624 120.637 122.876V128H118.397V120.44H120.637ZM130.713 127.594C130.358 127.809 129.943 127.967 129.467 128.07C129 128.173 128.547 128.224 128.109 128.224C126.615 128.224 125.481 127.869 124.707 127.16C123.941 126.451 123.559 125.457 123.559 124.178C123.559 122.909 123.899 121.938 124.581 121.266C125.271 120.585 126.209 120.244 127.395 120.244C128.571 120.244 129.499 120.585 130.181 121.266C130.871 121.938 131.217 122.909 131.217 124.178C131.217 124.318 131.207 124.519 131.189 124.78H125.743C125.948 125.984 126.737 126.586 128.109 126.586C129.07 126.586 129.938 126.301 130.713 125.732V127.594ZM129.103 123.212C128.981 122.745 128.771 122.4 128.473 122.176C128.174 121.952 127.815 121.84 127.395 121.84C127.003 121.84 126.667 121.957 126.387 122.19C126.116 122.423 125.925 122.764 125.813 123.212H129.103ZM135.507 128.182C134.816 128.182 134.209 128.019 133.687 127.692C133.164 127.356 132.763 126.889 132.483 126.292C132.203 125.695 132.063 125.013 132.063 124.248C132.063 123.473 132.203 122.787 132.483 122.19C132.772 121.583 133.173 121.112 133.687 120.776C134.209 120.44 134.816 120.272 135.507 120.272C135.824 120.272 136.141 120.328 136.459 120.44C136.785 120.552 137.089 120.715 137.369 120.93V117.234H139.609V126.25C139.609 126.997 139.702 127.58 139.889 128H137.789C137.723 127.869 137.667 127.701 137.621 127.496C137.033 127.953 136.328 128.182 135.507 128.182ZM134.205 124.248C134.205 124.677 134.289 125.069 134.457 125.424C134.634 125.779 134.863 126.063 135.143 126.278C135.432 126.483 135.735 126.586 136.053 126.586C136.305 126.586 136.58 126.525 136.879 126.404C137.187 126.283 137.439 126.031 137.635 125.648V122.834C137.439 122.442 137.187 122.185 136.879 122.064C136.58 121.943 136.305 121.882 136.053 121.882C135.735 121.882 135.432 121.985 135.143 122.19C134.863 122.395 134.634 122.68 134.457 123.044C134.289 123.408 134.205 123.809 134.205 124.248ZM143.433 120.44V128H141.193V120.44H143.433ZM141.193 117.234H143.433V119.474H141.193V117.234ZM145.604 120.44V118.284H147.704V120.44H149.16V122.148H147.704V125.396C147.704 125.667 147.723 125.872 147.76 126.012C147.807 126.152 147.886 126.25 147.998 126.306C148.11 126.353 148.274 126.376 148.488 126.376C148.628 126.376 148.745 126.371 148.838 126.362C148.941 126.353 149.03 126.339 149.104 126.32V128.042C148.712 128.089 148.348 128.112 148.012 128.112C147.368 128.112 146.888 128.047 146.57 127.916C146.253 127.785 146.01 127.561 145.842 127.244C145.684 126.917 145.604 126.455 145.604 125.858V122.148H144.512V120.44H145.604ZM153.181 128.168C152.612 128.196 152.033 128.149 151.445 128.028C150.867 127.916 150.363 127.739 149.933 127.496V125.48C150.316 125.76 150.773 125.993 151.305 126.18C151.847 126.357 152.323 126.432 152.733 126.404C153.023 126.385 153.233 126.325 153.363 126.222C153.494 126.11 153.569 125.998 153.587 125.886C153.634 125.597 153.564 125.377 153.377 125.228C153.191 125.079 152.841 124.934 152.327 124.794C151.758 124.635 151.305 124.453 150.969 124.248C150.633 124.033 150.377 123.795 150.199 123.534C150.031 123.263 149.947 122.923 149.947 122.512C149.947 122.083 150.059 121.7 150.283 121.364C150.507 121.019 150.862 120.748 151.347 120.552C151.833 120.356 152.355 120.258 152.915 120.258C153.335 120.258 153.76 120.3 154.189 120.384C154.619 120.459 154.978 120.561 155.267 120.692V122.498C154.969 122.349 154.614 122.218 154.203 122.106C153.802 121.985 153.452 121.924 153.153 121.924C152.519 121.924 152.173 122.092 152.117 122.428C152.089 122.624 152.178 122.797 152.383 122.946C152.598 123.095 152.901 123.231 153.293 123.352C153.853 123.529 154.311 123.711 154.665 123.898C155.029 124.085 155.314 124.327 155.519 124.626C155.725 124.925 155.827 125.307 155.827 125.774C155.827 126.465 155.58 127.029 155.085 127.468C154.591 127.897 153.956 128.131 153.181 128.168ZM41.5924 139.936H41.4664V148H39.2404V138.2H43.2584L44.5884 145.214L44.6164 145.354L44.6444 145.214L45.9744 138.2H49.9924V148H47.7664V139.936H47.6544L45.9744 148H43.2584L41.5924 139.936ZM55.2241 148.182C54.4308 148.182 53.7308 148.019 53.1241 147.692C52.5268 147.365 52.0648 146.903 51.7381 146.306C51.4115 145.699 51.2481 144.985 51.2481 144.164C51.2481 142.904 51.6028 141.938 52.3121 141.266C53.0215 140.594 53.9921 140.258 55.2241 140.258C56.4468 140.258 57.4128 140.594 58.1221 141.266C58.8315 141.938 59.1861 142.904 59.1861 144.164C59.1861 144.985 59.0228 145.699 58.6961 146.306C58.3695 146.903 57.9075 147.365 57.3101 147.692C56.7128 148.019 56.0175 148.182 55.2241 148.182ZM53.4601 144.164C53.4601 144.883 53.6235 145.461 53.9501 145.9C54.2768 146.339 54.7015 146.558 55.2241 146.558C55.7468 146.558 56.1668 146.339 56.4841 145.9C56.8108 145.461 56.9741 144.883 56.9741 144.164C56.9741 143.417 56.8155 142.853 56.4981 142.47C56.1901 142.078 55.7655 141.882 55.2241 141.882C54.6828 141.882 54.2535 142.078 53.9361 142.47C53.6188 142.853 53.4601 143.417 53.4601 144.164ZM62.5455 140.44V141.252C62.7881 140.991 63.0775 140.79 63.4135 140.65C63.7588 140.501 64.0995 140.426 64.4355 140.426C64.6688 140.426 64.8881 140.459 65.0935 140.524V142.246C64.8321 142.181 64.5848 142.148 64.3515 142.148C63.9968 142.148 63.6608 142.209 63.3435 142.33C63.0261 142.442 62.7601 142.624 62.5455 142.876V148H60.3055V140.44H62.5455ZM72.6209 147.594C72.2662 147.809 71.8509 147.967 71.3749 148.07C70.9082 148.173 70.4555 148.224 70.0169 148.224C68.5235 148.224 67.3895 147.869 66.6149 147.16C65.8495 146.451 65.4669 145.457 65.4669 144.178C65.4669 142.909 65.8075 141.938 66.4889 141.266C67.1795 140.585 68.1175 140.244 69.3029 140.244C70.4789 140.244 71.4075 140.585 72.0889 141.266C72.7795 141.938 73.1249 142.909 73.1249 144.178C73.1249 144.318 73.1155 144.519 73.0969 144.78H67.6509C67.8562 145.984 68.6449 146.586 70.0169 146.586C70.9782 146.586 71.8462 146.301 72.6209 145.732V147.594ZM71.0109 143.212C70.8895 142.745 70.6795 142.4 70.3809 142.176C70.0822 141.952 69.7229 141.84 69.3029 141.84C68.9109 141.84 68.5749 141.957 68.2949 142.19C68.0242 142.423 67.8329 142.764 67.7209 143.212H71.0109ZM84.1875 147.748C83.4688 148.037 82.7315 148.182 81.9755 148.182C81.1822 148.182 80.4495 148.023 79.7775 147.706C79.1148 147.379 78.5875 146.922 78.1955 146.334C77.8035 145.737 77.6075 145.051 77.6075 144.276C77.6075 143.464 77.7942 142.755 78.1675 142.148C78.5408 141.541 79.0495 141.079 79.6935 140.762C80.3468 140.435 81.0748 140.272 81.8775 140.272C82.6055 140.272 83.3428 140.403 84.0895 140.664V142.386C83.5202 142.143 82.9368 142.022 82.3395 142.022C81.6022 142.022 80.9908 142.199 80.5055 142.554C80.0202 142.899 79.7775 143.473 79.7775 144.276C79.7775 144.733 79.9035 145.121 80.1555 145.438C80.4075 145.755 80.7342 145.998 81.1355 146.166C81.5368 146.325 81.9615 146.404 82.4095 146.404C82.7548 146.404 83.0815 146.357 83.3895 146.264C83.7068 146.161 83.9728 146.021 84.1875 145.844V147.748ZM87.5513 137.248V141.252C87.8873 140.972 88.2607 140.757 88.6713 140.608C89.082 140.449 89.4973 140.37 89.9173 140.37C90.636 140.37 91.2053 140.58 91.6253 141C92.0547 141.42 92.2693 141.966 92.2693 142.638V148H90.0293V143.016C90.0293 142.745 89.9173 142.526 89.6933 142.358C89.4693 142.181 89.2033 142.092 88.8953 142.092C88.718 142.092 88.4987 142.148 88.2373 142.26C87.976 142.372 87.7473 142.512 87.5513 142.68V148H85.3113V137.248H87.5513ZM96.8848 148.182C96.1755 148.182 95.5548 148.014 95.0228 147.678C94.5002 147.342 94.0942 146.88 93.8048 146.292C93.5248 145.704 93.3848 145.018 93.3848 144.234C93.3848 143.459 93.5248 142.773 93.8048 142.176C94.0942 141.569 94.4955 141.098 95.0088 140.762C95.5315 140.426 96.1382 140.258 96.8288 140.258C97.1462 140.258 97.4635 140.319 97.7808 140.44C98.1075 140.552 98.4108 140.711 98.6908 140.916V140.44H100.931V146.236C100.931 146.992 101.024 147.58 101.211 148H99.1108C99.0455 147.869 98.9895 147.701 98.9428 147.496C98.3642 147.953 97.6782 148.182 96.8848 148.182ZM95.5268 144.234C95.5268 144.663 95.6108 145.055 95.7788 145.41C95.9562 145.765 96.1848 146.049 96.4648 146.264C96.7542 146.469 97.0575 146.572 97.3748 146.572C97.5988 146.572 97.8508 146.525 98.1308 146.432C98.4108 146.329 98.6535 146.115 98.8588 145.788V142.652C98.6535 142.325 98.4108 142.115 98.1308 142.022C97.8602 141.929 97.6082 141.882 97.3748 141.882C97.0575 141.882 96.7542 141.985 96.4648 142.19C96.1848 142.395 95.9562 142.68 95.7788 143.044C95.6108 143.399 95.5268 143.795 95.5268 144.234ZM104.881 148.112C104.041 148.112 103.406 147.879 102.977 147.412C102.547 146.936 102.333 146.241 102.333 145.326V137.234H104.573V144.766C104.573 145.139 104.601 145.424 104.657 145.62C104.713 145.816 104.806 145.965 104.937 146.068C105.039 146.152 105.151 146.208 105.273 146.236C105.403 146.255 105.627 146.264 105.945 146.264V148.112H104.881ZM109.338 148.112C108.498 148.112 107.863 147.879 107.434 147.412C107.005 146.936 106.79 146.241 106.79 145.326V137.234H109.03V144.766C109.03 145.139 109.058 145.424 109.114 145.62C109.17 145.816 109.263 145.965 109.394 146.068C109.497 146.152 109.609 146.208 109.73 146.236C109.861 146.255 110.085 146.264 110.402 146.264V148.112H109.338ZM118.121 147.594C117.766 147.809 117.351 147.967 116.875 148.07C116.408 148.173 115.956 148.224 115.517 148.224C114.024 148.224 112.89 147.869 112.115 147.16C111.35 146.451 110.967 145.457 110.967 144.178C110.967 142.909 111.308 141.938 111.989 141.266C112.68 140.585 113.618 140.244 114.803 140.244C115.979 140.244 116.908 140.585 117.589 141.266C118.28 141.938 118.625 142.909 118.625 144.178C118.625 144.318 118.616 144.519 118.597 144.78H113.151C113.356 145.984 114.145 146.586 115.517 146.586C116.478 146.586 117.346 146.301 118.121 145.732V147.594ZM116.511 143.212C116.39 142.745 116.18 142.4 115.881 142.176C115.582 141.952 115.223 141.84 114.803 141.84C114.411 141.84 114.075 141.957 113.795 142.19C113.524 142.423 113.333 142.764 113.221 143.212H116.511ZM121.991 140.412V141.322C122.336 141.023 122.728 140.79 123.167 140.622C123.615 140.454 124.058 140.37 124.497 140.37C125.215 140.37 125.785 140.58 126.205 141C126.634 141.42 126.849 141.966 126.849 142.638V147.972H124.609V143.016C124.609 142.745 124.497 142.526 124.273 142.358C124.049 142.181 123.783 142.092 123.475 142.092C123.279 142.092 123.031 142.157 122.733 142.288C122.443 142.419 122.196 142.577 121.991 142.764V147.972H119.751V140.412H121.991ZM131.587 151.192C131.017 151.192 130.443 151.155 129.865 151.08C129.295 151.005 128.782 150.898 128.325 150.758V148.924C129.323 149.148 130.322 149.26 131.321 149.26C131.955 149.26 132.436 149.12 132.763 148.84C133.089 148.56 133.253 148.173 133.253 147.678C132.739 148.014 132.128 148.182 131.419 148.182C130.728 148.182 130.121 148.014 129.599 147.678C129.076 147.342 128.675 146.88 128.395 146.292C128.115 145.695 127.975 145.009 127.975 144.234C127.975 143.459 128.115 142.773 128.395 142.176C128.684 141.569 129.085 141.098 129.599 140.762C130.121 140.426 130.728 140.258 131.419 140.258C132.063 140.258 132.674 140.473 133.253 140.902V140.44H135.437V147.972C135.437 150.119 134.153 151.192 131.587 151.192ZM130.117 144.234C130.117 144.663 130.201 145.055 130.369 145.41C130.546 145.765 130.775 146.049 131.055 146.264C131.344 146.469 131.647 146.572 131.965 146.572C132.198 146.572 132.459 146.521 132.749 146.418C133.038 146.306 133.285 146.077 133.491 145.732L133.561 145.452V142.862C133.365 142.461 133.113 142.199 132.805 142.078C132.497 141.947 132.217 141.882 131.965 141.882C131.647 141.882 131.344 141.985 131.055 142.19C130.775 142.395 130.546 142.68 130.369 143.044C130.201 143.399 130.117 143.795 130.117 144.234ZM139.263 140.44V148H137.023V140.44H139.263ZM137.023 137.234H139.263V139.474H137.023V137.234ZM143.086 140.412V141.322C143.432 141.023 143.824 140.79 144.262 140.622C144.71 140.454 145.154 140.37 145.592 140.37C146.311 140.37 146.88 140.58 147.3 141C147.73 141.42 147.944 141.966 147.944 142.638V147.972H145.704V143.016C145.704 142.745 145.592 142.526 145.368 142.358C145.144 142.181 144.878 142.092 144.57 142.092C144.374 142.092 144.127 142.157 143.828 142.288C143.539 142.419 143.292 142.577 143.086 142.764V147.972H140.846V140.412H143.086ZM152.682 151.192C152.113 151.192 151.539 151.155 150.96 151.08C150.391 151.005 149.878 150.898 149.42 150.758V148.924C150.419 149.148 151.418 149.26 152.416 149.26C153.051 149.26 153.532 149.12 153.858 148.84C154.185 148.56 154.348 148.173 154.348 147.678C153.835 148.014 153.224 148.182 152.514 148.182C151.824 148.182 151.217 148.014 150.694 147.678C150.172 147.342 149.77 146.88 149.49 146.292C149.21 145.695 149.07 145.009 149.07 144.234C149.07 143.459 149.21 142.773 149.49 142.176C149.78 141.569 150.181 141.098 150.694 140.762C151.217 140.426 151.824 140.258 152.514 140.258C153.158 140.258 153.77 140.473 154.348 140.902V140.44H156.532V147.972C156.532 150.119 155.249 151.192 152.682 151.192ZM151.212 144.234C151.212 144.663 151.296 145.055 151.464 145.41C151.642 145.765 151.87 146.049 152.15 146.264C152.44 146.469 152.743 146.572 153.06 146.572C153.294 146.572 153.555 146.521 153.844 146.418C154.134 146.306 154.381 146.077 154.586 145.732L154.656 145.452V142.862C154.46 142.461 154.208 142.199 153.9 142.078C153.592 141.947 153.312 141.882 153.06 141.882C152.743 141.882 152.44 141.985 152.15 142.19C151.87 142.395 151.642 142.68 151.464 143.044C151.296 143.399 151.212 143.795 151.212 144.234Z" fill="#821E98"/>
<rect x="48.5325" y="171" width="96.039" height="25" rx="12.5" fill="#E2DCDC"/>
<rect x="48.5325" y="167" width="96.039" height="25" rx="12.5" fill="#F5F1F1"/>
<path d="M77.1879 185.12C76.4279 185.12 75.7759 184.996 75.2319 184.748C74.6959 184.5 74.2759 184.136 73.9719 183.656C73.6759 183.176 73.5119 182.58 73.4799 181.868C73.4719 181.54 73.4679 181.188 73.4679 180.812C73.4679 180.436 73.4719 180.076 73.4799 179.732C73.5119 179.036 73.6799 178.448 73.9839 177.968C74.2879 177.48 74.7119 177.112 75.2559 176.864C75.7999 176.608 76.4439 176.48 77.1879 176.48C77.7159 176.48 78.2039 176.548 78.6519 176.684C79.0999 176.812 79.4919 177.004 79.8279 177.26C80.1639 177.508 80.4239 177.812 80.6079 178.172C80.7999 178.524 80.8999 178.924 80.9079 179.372C80.9159 179.444 80.8919 179.504 80.8359 179.552C80.7879 179.6 80.7279 179.624 80.6559 179.624H79.0359C78.9319 179.624 78.8519 179.604 78.7959 179.564C78.7399 179.516 78.6919 179.432 78.6519 179.312C78.5399 178.888 78.3559 178.6 78.0999 178.448C77.8519 178.288 77.5439 178.208 77.1759 178.208C76.7359 178.208 76.3879 178.332 76.1319 178.58C75.8759 178.82 75.7359 179.224 75.7119 179.792C75.6879 180.448 75.6879 181.12 75.7119 181.808C75.7359 182.376 75.8759 182.784 76.1319 183.032C76.3879 183.272 76.7359 183.392 77.1759 183.392C77.5439 183.392 77.8559 183.312 78.1119 183.152C78.3679 182.992 78.5479 182.704 78.6519 182.288C78.6839 182.168 78.7279 182.088 78.7839 182.048C78.8479 182 78.9319 181.976 79.0359 181.976H80.6559C80.7279 181.976 80.7879 182 80.8359 182.048C80.8919 182.096 80.9159 182.156 80.9079 182.228C80.8999 182.676 80.7999 183.08 80.6079 183.44C80.4239 183.792 80.1639 184.096 79.8279 184.352C79.4919 184.6 79.0999 184.792 78.6519 184.928C78.2039 185.056 77.7159 185.12 77.1879 185.12ZM85.6016 185.12C84.8656 185.12 84.2256 185 83.6816 184.76C83.1376 184.52 82.7136 184.16 82.4096 183.68C82.1056 183.192 81.9376 182.584 81.9056 181.856C81.8976 181.512 81.8936 181.168 81.8936 180.824C81.8936 180.48 81.8976 180.132 81.9056 179.78C81.9376 179.06 82.1056 178.456 82.4096 177.968C82.7216 177.472 83.1496 177.1 83.6936 176.852C84.2376 176.604 84.8736 176.48 85.6016 176.48C86.3216 176.48 86.9536 176.604 87.4976 176.852C88.0496 177.1 88.4816 177.472 88.7936 177.968C89.1056 178.456 89.2736 179.06 89.2976 179.78C89.3136 180.132 89.3216 180.48 89.3216 180.824C89.3216 181.168 89.3136 181.512 89.2976 181.856C89.2656 182.584 89.0976 183.192 88.7936 183.68C88.4896 184.16 88.0656 184.52 87.5216 184.76C86.9776 185 86.3376 185.12 85.6016 185.12ZM85.6016 183.392C86.0256 183.392 86.3696 183.264 86.6336 183.008C86.9056 182.752 87.0496 182.344 87.0656 181.784C87.0816 181.432 87.0896 181.1 87.0896 180.788C87.0896 180.476 87.0816 180.152 87.0656 179.816C87.0496 179.44 86.9776 179.136 86.8496 178.904C86.7296 178.664 86.5616 178.488 86.3456 178.376C86.1296 178.264 85.8816 178.208 85.6016 178.208C85.3296 178.208 85.0856 178.264 84.8696 178.376C84.6536 178.488 84.4816 178.664 84.3536 178.904C84.2256 179.136 84.1536 179.44 84.1376 179.816C84.1296 180.152 84.1256 180.476 84.1256 180.788C84.1256 181.1 84.1296 181.432 84.1376 181.784C84.1616 182.344 84.3056 182.752 84.5696 183.008C84.8336 183.264 85.1776 183.392 85.6016 183.392ZM91.0126 185C90.9326 185 90.8606 184.972 90.7966 184.916C90.7406 184.86 90.7126 184.788 90.7126 184.7V176.9C90.7126 176.812 90.7406 176.74 90.7966 176.684C90.8606 176.628 90.9326 176.6 91.0126 176.6H92.3086C92.4366 176.6 92.5326 176.636 92.5966 176.708C92.6686 176.772 92.7126 176.824 92.7286 176.864L94.8406 180.656L96.9526 176.864C96.9766 176.824 97.0166 176.772 97.0726 176.708C97.1366 176.636 97.2366 176.6 97.3726 176.6H98.6566C98.7446 176.6 98.8166 176.628 98.8726 176.684C98.9366 176.74 98.9686 176.812 98.9686 176.9V184.7C98.9686 184.788 98.9366 184.86 98.8726 184.916C98.8166 184.972 98.7446 185 98.6566 185H97.2286C97.1406 185 97.0646 184.972 97.0006 184.916C96.9446 184.86 96.9166 184.788 96.9166 184.7V180.2L95.5606 182.708C95.5286 182.78 95.4806 182.844 95.4166 182.9C95.3526 182.956 95.2646 182.984 95.1526 182.984H94.5286C94.4166 182.984 94.3286 182.956 94.2646 182.9C94.2006 182.844 94.1486 182.78 94.1086 182.708L92.7526 180.2V184.7C92.7526 184.788 92.7246 184.86 92.6686 184.916C92.6126 184.972 92.5406 185 92.4526 185H91.0126ZM100.938 185C100.85 185 100.778 184.972 100.722 184.916C100.666 184.86 100.638 184.788 100.638 184.7V176.9C100.638 176.812 100.666 176.74 100.722 176.684C100.778 176.628 100.85 176.6 100.938 176.6H102.546C102.634 176.6 102.706 176.628 102.762 176.684C102.818 176.74 102.846 176.812 102.846 176.9V184.7C102.846 184.788 102.818 184.86 102.762 184.916C102.706 184.972 102.634 185 102.546 185H100.938ZM104.829 185C104.741 185 104.669 184.972 104.613 184.916C104.557 184.86 104.529 184.788 104.529 184.7V176.9C104.529 176.812 104.557 176.74 104.613 176.684C104.669 176.628 104.741 176.6 104.829 176.6H106.101C106.237 176.6 106.333 176.632 106.389 176.696C106.453 176.752 106.493 176.796 106.509 176.828L109.437 181.448V176.9C109.437 176.812 109.465 176.74 109.521 176.684C109.577 176.628 109.649 176.6 109.737 176.6H111.177C111.265 176.6 111.337 176.628 111.393 176.684C111.449 176.74 111.477 176.812 111.477 176.9V184.7C111.477 184.78 111.449 184.852 111.393 184.916C111.337 184.972 111.265 185 111.177 185H109.893C109.765 185 109.669 184.968 109.605 184.904C109.549 184.84 109.513 184.796 109.497 184.772L106.569 180.332V184.7C106.569 184.788 106.541 184.86 106.485 184.916C106.429 184.972 106.357 185 106.269 185H104.829ZM116.622 185.12C115.862 185.12 115.206 184.996 114.654 184.748C114.11 184.492 113.686 184.124 113.382 183.644C113.086 183.156 112.922 182.564 112.89 181.868C112.882 181.524 112.878 181.16 112.878 180.776C112.878 180.384 112.882 180.012 112.89 179.66C112.922 178.98 113.09 178.404 113.394 177.932C113.698 177.46 114.126 177.1 114.678 176.852C115.23 176.604 115.878 176.48 116.622 176.48C117.222 176.48 117.754 176.556 118.218 176.708C118.682 176.852 119.07 177.048 119.382 177.296C119.702 177.544 119.942 177.816 120.102 178.112C120.27 178.408 120.358 178.7 120.366 178.988C120.374 179.06 120.35 179.12 120.294 179.168C120.246 179.216 120.186 179.24 120.114 179.24H118.362C118.274 179.24 118.206 179.228 118.158 179.204C118.118 179.172 118.082 179.128 118.05 179.072C117.994 178.952 117.91 178.828 117.798 178.7C117.694 178.564 117.546 178.448 117.354 178.352C117.17 178.256 116.926 178.208 116.622 178.208C116.166 178.208 115.806 178.328 115.542 178.568C115.286 178.808 115.146 179.192 115.122 179.72C115.098 180.408 115.098 181.104 115.122 181.808C115.146 182.368 115.294 182.772 115.566 183.02C115.838 183.268 116.198 183.392 116.646 183.392C116.95 183.392 117.218 183.34 117.45 183.236C117.69 183.132 117.878 182.972 118.014 182.756C118.15 182.532 118.218 182.248 118.218 181.904V181.676H117.09C117.002 181.676 116.926 181.648 116.862 181.592C116.806 181.528 116.778 181.452 116.778 181.364V180.476C116.778 180.388 116.806 180.316 116.862 180.26C116.926 180.196 117.002 180.164 117.09 180.164H120.114C120.202 180.164 120.274 180.196 120.33 180.26C120.386 180.316 120.414 180.388 120.414 180.476V181.844C120.414 182.532 120.258 183.12 119.946 183.608C119.634 184.096 119.19 184.472 118.614 184.736C118.046 184.992 117.382 185.12 116.622 185.12Z" fill="#737373"/>
<defs>
<filter id="filter0_d_704_3001" x="0.3" y="0.3" width="191.4" height="230.4" filterUnits="userSpaceOnUse" color-interpolation-filters="sRGB">
<feFlood flood-opacity="0" result="BackgroundImageFix"/>
<feColorMatrix in="SourceAlpha" type="matrix" values="0 0 0 0 0 0 0 0 0 0 0 0 0 0 0 0 0 0 127 0" result="hardAlpha"/>
<feOffset dy="4"/>
<feGaussianBlur stdDeviation="5.35"/>
<feComposite in2="hardAlpha" operator="out"/>
<feColorMatrix type="matrix" values="0 0 0 0 0 0 0 0 0 0 0 0 0 0 0 0 0 0 0.15 0"/>
<feBlend mode="normal" in2="BackgroundImageFix" result="effect1_dropShadow_704_3001"/>
<feBlend mode="normal" in="SourceGraphic" in2="effect1_dropShadow_704_3001" result="shape"/>
</filter>
<filter id="filter1_f_704_3001" x="58.5841" y="19.0096" width="77.9487" height="49.8027" filterUnits="userSpaceOnUse" color-interpolation-filters="sRGB">
<feFlood flood-opacity="0" result="BackgroundImageFix"/>
<feBlend mode="normal" in="SourceGraphic" in2="BackgroundImageFix" result="shape"/>
<feGaussianBlur stdDeviation="4.95" result="effect1_foregroundBlur_704_3001"/>
</filter>
<linearGradient id="paint0_linear_704_3001" x1="36.9415" y1="3.38461" x2="176.22" y2="93.7294" gradientUnits="userSpaceOnUse">
<stop stop-color="#901CEF"/>
<stop offset="1" stop-color="#B149BB"/>
</linearGradient>
</defs>
</svg>





