<svg width="192" height="231" viewBox="0 0 192 231" fill="none" xmlns="http://www.w3.org/2000/svg">
<g filter="url(#filter0_d_704_2956)">
<rect x="11" y="7" width="170" height="209" rx="40" fill="white"/>
</g>
<path d="M17.6234 51C17.6234 32.2223 32.8457 17 51.6234 17H140.377C159.154 17 174.377 32.2223 174.377 51V81C174.377 92.0457 165.422 101 154.377 101H37.6234C26.5777 101 17.6234 92.0457 17.6234 81V51Z" fill="#763CA6"/>
<path d="M17.6234 64.8889C17.6234 47.2712 17.6234 38.4624 20.8089 31.631C24.1871 24.3864 30.0098 18.5637 37.2544 15.1855C44.0858 12 52.8946 12 70.5123 12H121.488C139.105 12 147.914 12 154.746 15.1855C161.99 18.5637 167.813 24.3864 171.191 31.631C174.377 38.4624 174.377 47.2712 174.377 64.8889C174.377 75.2522 174.377 80.4339 172.503 84.4524C170.516 88.7139 167.091 92.139 162.829 94.1262C158.811 96 153.629 96 143.266 96H48.7345C38.3712 96 33.1895 96 29.171 94.1262C24.9095 92.139 21.4844 88.7139 19.4973 84.4524C17.6234 80.4339 17.6234 75.2522 17.6234 64.8889Z" fill="url(#paint0_linear_704_2956)"/>
<path d="M95.3975 46.5654H98.7783L102.999 12H111.03L98.874 46.6562L102.14 47.1455L123.669 12.002C127.125 12.0031 130.224 12.0081 133.024 12.0479L102.189 47.248L105.12 48.1914L147.404 13.0107C150.198 13.4819 152.573 14.172 154.746 15.1855C155.13 15.3646 155.509 15.5525 155.885 15.7451L105.12 48.2969L107.513 49.6309L164.354 21.8965C165.862 23.3962 167.228 25.0377 168.434 26.7998L107.465 49.7334L109.159 51.3682L172.168 34.085C172.686 35.619 173.084 37.2719 173.388 39.1064L109.065 51.459L109.945 53.2832L174.107 46.2051C174.187 47.65 174.242 49.1917 174.281 50.8447L109.812 53.3584L109.816 55.2471L174.364 57.6475C174.371 59.1286 174.373 60.6841 174.374 62.3203L109.652 55.2998L108.783 57.126L174.367 69.5889C174.355 71.626 174.325 73.419 174.257 75.0186L108.601 57.1533L106.916 58.791L172.922 83.4482C172.793 83.7918 172.655 84.126 172.503 84.4521C171.697 86.1804 170.654 87.7706 169.415 89.1836L106.726 58.791L104.341 60.1299L159.432 95.2295C156.537 95.843 152.87 95.9672 147.592 95.9922L104.158 60.1025L101.233 61.0518L132.095 96H122.732L101.069 60.999L97.8047 61.4932L110.113 96H102.09L97.6699 61.4189L94.2881 61.4248L90.2627 96H82.2363L94.1924 61.333L90.9229 60.8506L69.6123 96H60.2393L90.8721 60.749L87.9375 59.8105L44.7432 95.9941C39.4319 95.9733 35.7278 95.8633 32.8086 95.2803L87.9365 59.7051L85.5352 58.374L22.6475 89.2549C21.3812 87.8242 20.3165 86.2094 19.4971 84.4521C19.3462 84.1285 19.2086 83.7969 19.0811 83.4561L85.584 58.2725L83.8799 56.6406L17.7383 74.9277C17.6709 73.3069 17.6418 71.4883 17.6309 69.4199L83.9736 56.5488L83.084 54.7266L17.626 62.0674C17.6269 60.4043 17.6291 58.8252 17.6367 57.3232L83.2168 54.6514L83.2012 52.7627L17.7285 50.4434C17.7719 48.7603 17.834 47.1941 17.9209 45.7285L83.3652 52.709L84.2236 50.8828L18.7061 38.5596C19.0387 36.7032 19.4733 35.033 20.042 33.4814L84.4053 50.8545L86.0811 49.2139L24 26.1807C25.2698 24.4109 26.7043 22.77 28.2832 21.2793L86.2705 49.2129L88.6484 47.8701L37.1201 15.249C37.1648 15.228 37.2092 15.2064 37.2539 15.1855C39.7959 14.0002 42.6121 13.2554 46.0537 12.7881L88.833 47.8965L91.751 46.9434L60.6729 12.0293C63.488 12.0026 66.591 12.0001 70.0342 12L91.916 46.9951L95.1777 46.4951L82.6709 12H91.1768L95.3975 46.5654Z" fill="white" fill-opacity="0.04"/>
<g filter="url(#filter1_f_704_2956)">
<ellipse cx="29.5249" cy="14.0838" rx="29.5249" ry="14.0838" transform="matrix(0.976962 0.213415 -0.257239 0.966348 72.3368 24)" fill="#68378F"/>
</g>
<path d="M61.314 79.622H62.61V76.094L60.828 76.562V74.06L62.61 73.592V70.28H61.008V68.012H62.61V65.51H64.95V68.012H66.12V70.28H64.95V72.98L66.3 72.62V75.122L64.95 75.482V81.8H61.314V79.622ZM66.408 76.094H68.568V74.258H66.696V71.954H68.568V70.118H66.588V67.814H68.568V65.528H70.908V81.89H68.568V78.398H66.408V76.094ZM72.996 65.528H75.336V67.814H77.172V70.118H75.336V71.954H77.064V74.258H75.336V76.094H77.352V78.398H75.336V81.89H72.996V65.528ZM78.72 71.684C80.028 70.064 80.934 68.036 81.438 65.6H83.706C83.454 67.148 83.07 68.558 82.554 69.83V81.8H80.232V73.736C79.728 74.324 79.224 74.834 78.72 75.266V71.684ZM83.4 79.262H95.352V81.584H83.4V79.262ZM83.724 67.49H88.206V65.492H90.546V67.49H95.01V69.794H83.724V67.49ZM87 70.838L88.368 78.254H85.992L84.624 70.838H87ZM91.752 70.838H94.128L92.76 78.254H90.384L91.752 70.838ZM112.83 75.68H109.536V76.364H113.316V78.29H109.842C110.394 78.662 110.958 78.98 111.534 79.244C112.11 79.496 112.752 79.718 113.46 79.91V81.98C112.308 81.632 111.342 81.29 110.562 80.954C109.782 80.63 109.026 80.174 108.294 79.586C107.526 80.198 106.74 80.672 105.936 81.008C105.132 81.356 104.196 81.68 103.128 81.98V79.91C103.836 79.718 104.472 79.496 105.036 79.244C105.612 78.98 106.176 78.662 106.728 78.29H103.272V76.364H107.196V75.68H103.92V69.326H112.83V75.68ZM96.594 80.864C96.858 79.556 97.026 78.188 97.098 76.76C97.17 75.332 97.206 73.592 97.206 71.54V70.424H98.934L98.952 73.97C98.952 75.302 98.916 76.526 98.844 77.642C98.772 78.746 98.64 79.82 98.448 80.864H96.594ZM96.918 67.454H99.312V65.51H101.598V67.454H103.272V69.686H101.634V71.648L102.912 72.764V75.482L101.634 74.366V81.8H99.42V69.686H96.918V67.454ZM103.506 66.248H104.748V65.51H106.872V66.248H109.86V65.51H111.984V66.248H113.226V68.228H111.984V69.038H109.86V68.228H106.872V69.038H104.748V68.228H103.506V66.248ZM110.868 74.078V73.268H105.882V74.078H110.868ZM110.868 71.756V70.946H105.882V71.756H110.868ZM128.814 81.8C128.238 80.492 127.782 79.172 127.446 77.84C127.11 76.508 126.846 75.056 126.654 73.484L126.24 70.1H114.9V67.778H125.952L125.646 65.24H128.04L128.346 67.778H131.28V70.1H128.634L129.048 73.484C129.24 75.008 129.522 76.442 129.894 77.786C130.266 79.118 130.776 80.456 131.424 81.8H128.814ZM114.972 78.884L119.49 78.668V74.078H116.016V71.81H124.998V74.078H121.794V78.56L126.222 78.344V80.666L114.972 81.206V78.884ZM130.524 65.366L130.776 67.328H129.138L128.886 65.366H130.524Z" fill="#FEFAFF"/>
<path d="M57.11 127.748H58.846C58.8087 127.011 58.7713 126.465 58.734 126.11L56.312 127.342V125.452L58.482 124.36C58.4167 124.052 58.3233 123.674 58.202 123.226L56.312 124.178V122.26L57.614 121.602C57.4087 121.098 57.1287 120.51 56.774 119.838H58.818C58.958 120.118 59.098 120.421 59.238 120.748L60.918 119.894V121.812L59.854 122.358C60.1433 123.273 60.344 124.267 60.456 125.34C60.5773 126.413 60.638 127.767 60.638 129.4H57.11V127.748ZM56.34 117.304H59.21V116.59H61.03V117.304H63.97V116.59H65.79V117.304H68.66V119.054H65.79V119.656H63.97V119.054H61.03V119.656H59.21V119.054H56.34V117.304ZM61.1 127.342C61.9493 126.997 62.5933 126.53 63.032 125.942C63.4707 125.345 63.7553 124.579 63.886 123.646H61.282V121.882H63.97V119.908H65.734V121.882H68.66V123.646H65.664C65.6267 124.001 65.5707 124.341 65.496 124.668H67.05L69.01 129.4H67.106L65.37 125.2C65.062 126.273 64.5533 127.155 63.844 127.846C63.144 128.527 62.2293 129.059 61.1 129.442V127.342ZM67.652 119.964L67.904 121.574H66.504L66.252 119.964H67.652ZM82.24 122.12H75.296V116.926H82.24V122.12ZM70.06 123.842C71.4693 123.03 72.454 121.891 73.014 120.426H74.918C74.61 121.518 74.1153 122.507 73.434 123.394V129.47H71.614V125.116C71.138 125.452 70.62 125.76 70.06 126.04V123.842ZM70.06 120.062C71.3667 119.222 72.2673 118.102 72.762 116.702H74.568C73.9053 119.185 72.4027 121.033 70.06 122.246V120.062ZM74.708 124.696H79.972V124.08H74.988V122.624H82.548V124.08H81.764V124.696H82.94V126.152H81.764V129.4H78.684V127.86H79.972V126.152H74.708V124.696ZM77.13 126.53L78.11 129.092H76.346L75.366 126.53H77.13ZM80.42 120.762V120.118H77.116V120.762H80.42ZM80.42 118.928V118.298H77.116V118.928H80.42ZM84.522 127.706H85.53V124.962L84.144 125.326V123.38L85.53 123.016V120.44H84.284V118.676H85.53V116.73H87.35V118.676H88.26V120.44H87.35V122.54L88.4 122.26V124.206L87.35 124.486V129.4H84.522V127.706ZM88.484 124.962H90.164V123.534H88.708V121.742H90.164V120.314H88.624V118.522H90.164V116.744H91.984V129.47H90.164V126.754H88.484V124.962ZM93.608 116.744H95.428V118.522H96.856V120.314H95.428V121.742H96.772V123.534H95.428V124.962H96.996V126.754H95.428V129.47H93.608V116.744ZM98.06 121.532C99.0773 120.272 99.782 118.695 100.174 116.8H101.938C101.742 118.004 101.443 119.101 101.042 120.09V129.4H99.236V123.128C98.844 123.585 98.452 123.982 98.06 124.318V121.532ZM101.7 127.426H110.996V129.232H101.7V127.426ZM101.952 118.27H105.438V116.716H107.258V118.27H110.73V120.062H101.952V118.27ZM104.5 120.874L105.564 126.642H103.716L102.652 120.874H104.5ZM108.196 120.874H110.044L108.98 126.642H107.132L108.196 120.874ZM124.52 124.836H118.164V117.248H124.52V124.836ZM111.976 128.854C112.359 126.745 112.55 124.565 112.55 122.316H113.866C113.866 124.724 113.698 126.903 113.362 128.854H111.976ZM112.13 119.964H114.286V118.746C113.633 118.774 112.975 118.788 112.312 118.788V117.08C113.899 117.08 115.597 116.945 117.408 116.674V118.396C116.857 118.48 116.414 118.545 116.078 118.592V119.964H117.674V121.672H116.078V122.708L117.646 123.646V125.648L116.078 124.71V129.4H114.384V121.672H112.13V119.964ZM118.556 126.096H120.334L119.466 129.4H117.688L118.556 126.096ZM122.882 123.016V119.068H119.802V123.016H122.882ZM124.128 126.096L124.996 129.4H123.218L122.35 126.096H124.128ZM133.214 127.622H135.146L135.314 123.73H132.038C131.702 125.251 131.067 126.497 130.134 127.468C129.201 128.439 127.983 129.101 126.48 129.456V127.58C127.479 127.3 128.291 126.838 128.916 126.194C129.551 125.541 129.989 124.719 130.232 123.73H127.95V122.19C127.39 122.582 126.76 122.918 126.06 123.198V121.07C126.993 120.631 127.749 120.053 128.328 119.334C128.916 118.615 129.359 117.724 129.658 116.66H131.548C131.053 118.909 129.971 120.669 128.3 121.938H136.7C135.029 120.669 133.947 118.909 133.452 116.66H135.342C135.641 117.724 136.079 118.615 136.658 119.334C137.246 120.053 138.007 120.631 138.94 121.07V123.198C138.287 122.918 137.708 122.615 137.204 122.288L136.938 129.4H133.214V127.622ZM82.8 149.414C79.9907 149.013 77.4473 148.49 75.17 147.846C73.91 148.733 72.2533 149.274 70.2 149.47V147.65C71.1987 147.566 72.0667 147.379 72.804 147.09C72.3933 146.95 71.8987 146.759 71.32 146.516V144.934H70.886V139.236H75.604V138.648H70.2V136.94H82.8V138.648H77.396V139.236H82.114V144.934H77.256C77.116 145.494 76.8827 146.007 76.556 146.474C78.6187 146.997 80.7 147.407 82.8 147.706V149.414ZM71.586 144.934C72.5287 145.289 73.5413 145.625 74.624 145.942C74.932 145.643 75.17 145.307 75.338 144.934H71.586ZM75.604 143.506V142.736H72.678V143.506H75.604ZM75.604 141.434V140.664H72.678V141.434H75.604ZM80.322 143.506V142.736H77.396V143.506H80.322ZM80.322 141.434V140.664H77.396V141.434H80.322ZM84.62 147.832C86.104 147.673 87.7653 147.323 89.604 146.782H83.962V145.186H85.46V136.912H95.54V145.186H97.038V146.782H91.396C93.2347 147.323 94.896 147.673 96.38 147.832V149.54C94.5227 149.307 92.8287 148.952 91.298 148.476V146.782H89.702V148.476C88.1713 148.952 86.4773 149.307 84.62 149.54V147.832ZM93.72 145.186V144.584H87.28V145.186H93.72ZM93.72 143.156V142.554H87.28V143.156H93.72ZM93.72 141.14V140.524H87.28V141.14H93.72ZM93.72 139.11V138.494H87.28V139.11H93.72ZM101.938 147.608C102.909 147.113 103.567 146.577 103.912 145.998C104.257 145.41 104.444 144.803 104.472 144.178L102.358 145.634V144.248L101.35 144.514V149.4H98.522V147.706H99.53V144.976L98.144 145.326V143.38L99.53 143.03V140.44H98.284V138.676H99.53V136.73H101.35V138.676H102.4V140.44H101.35V142.568L102.54 142.26V143.618L104.472 142.288V136.73H106.152V143.8C106.152 144.584 106.059 145.326 105.872 146.026C105.685 146.726 105.279 147.398 104.654 148.042C104.038 148.686 103.133 149.185 101.938 149.54V147.608ZM103.926 137.304L104.388 141.518H102.946L102.484 137.304H103.926ZM107.132 136.73H108.812V142.624L110.884 144.15V146.096L108.812 144.57V147.566H111.08V149.358H107.132V136.73ZM109.484 137.304H110.926L110.394 141.518H108.952L109.484 137.304ZM124.94 149.652C123.531 149.232 122.434 148.537 121.65 147.566C121.286 147.921 120.88 148.219 120.432 148.462C119.993 148.714 119.499 148.947 118.948 149.162V147.104C119.685 146.815 120.278 146.432 120.726 145.956C120.269 144.808 120.04 143.366 120.04 141.63H118.766V139.922H120.012V136.73H121.678V139.922H124.394V141.63H121.706C121.715 142.246 121.734 142.769 121.762 143.198C121.79 143.627 121.846 144.024 121.93 144.388C122.182 143.875 122.378 143.273 122.518 142.582H124.072C123.82 143.907 123.386 145.102 122.77 146.166C123.255 146.763 123.979 147.249 124.94 147.622V149.652ZM112.466 142.484H114.356V136.73H116.148V138.522H118.584V140.342H116.148V142.484H118.248V149.26H112.466V142.484ZM116.512 147.454V144.29H114.202V147.454H116.512ZM123.442 137.038L123.946 139.474H122.42L121.93 137.038H123.442Z" fill="#821E98"/>
<rect x="48.5325" y="171" width="96.039" height="25" rx="12.5" fill="#E2DCDC"/>
<rect x="48.5325" y="167" width="96.039" height="25" rx="12.5" fill="#F5F1F1"/>
<path d="M77.4634 176.744H75.4954V177.74H77.4634V176.744ZM75.4954 179.972H77.4634V178.988H75.4954V179.972ZM76.2634 182.084L77.4154 181.544C78.1594 182.552 78.9514 183.908 79.2514 184.832L77.9914 185.468C77.9074 185.156 77.7634 184.796 77.5834 184.412C76.2274 184.796 74.8234 185.18 73.7314 185.48L73.3234 184.016C73.5634 183.968 73.8394 183.908 74.1274 183.836V175.424H78.7834V181.292H75.4954V183.524L76.9354 183.164C76.7194 182.792 76.4914 182.42 76.2634 182.084ZM84.0874 175.4V182.648C84.0874 183.32 83.9794 183.788 83.5474 184.052C83.1034 184.316 82.5394 184.352 81.7714 184.352C81.7234 183.92 81.4954 183.188 81.2794 182.792C81.7474 182.828 82.2394 182.816 82.4074 182.816C82.5634 182.816 82.6114 182.756 82.6114 182.6V176.84H80.9074V186.032H79.4554V175.4H84.0874ZM87.3274 178.208V174.848H88.7194V186.032H87.3274V182.84C86.8234 183.236 86.3074 183.632 85.8274 183.98L85.1914 182.492C85.7194 182.204 86.5234 181.748 87.3274 181.244V178.952L86.2834 179.456C86.1274 178.736 85.6954 177.632 85.2874 176.78L86.4514 176.276C86.7754 176.864 87.0994 177.584 87.3274 178.208ZM94.9714 174.836L95.9194 175.928C94.0954 176.444 91.5754 176.78 89.4154 176.936C89.3674 176.612 89.1874 176.096 89.0554 175.808C91.1554 175.616 93.5194 175.268 94.9714 174.836ZM93.3874 178.88L92.0794 179.24C92.0434 178.676 91.8154 177.8 91.5394 177.116L92.7754 176.792C93.0634 177.452 93.3274 178.328 93.3874 178.88ZM91.3474 179.3L90.1234 179.768C90.0034 179.204 89.6434 178.292 89.2714 177.596L90.3994 177.188C90.7954 177.848 91.2034 178.712 91.3474 179.3ZM89.8354 182.492L90.9874 181.892C91.5394 182.492 92.1874 183.332 92.4634 183.92L91.2154 184.604C90.9874 184.028 90.3634 183.14 89.8354 182.492ZM96.5194 180.488V181.808H94.9714V184.484C94.9714 185.204 94.8394 185.588 94.3354 185.792C93.8674 186.02 93.1834 186.032 92.2474 186.032C92.1874 185.636 91.9954 185.036 91.8034 184.64C92.4274 184.676 93.0994 184.676 93.3034 184.664C93.5074 184.652 93.5554 184.616 93.5554 184.46V181.808H89.0914V180.488H93.5554V179.78L93.1594 179.576C93.7834 178.808 94.5754 177.596 95.0194 176.66L96.3394 177.272C95.8114 178.136 95.1874 179.036 94.6234 179.732H94.9714V180.488H96.5194ZM101.127 179.996L101.283 181.268C100.935 181.376 100.575 181.472 100.215 181.58V184.436C100.215 185.144 100.095 185.528 99.7114 185.744C99.3154 185.984 98.7514 186.032 97.9234 186.032C97.8874 185.648 97.7074 185.036 97.5274 184.64C97.9954 184.664 98.4874 184.664 98.6434 184.652C98.7874 184.652 98.8474 184.604 98.8474 184.424V181.964L97.5154 182.324L97.2154 180.944C97.6714 180.848 98.2354 180.716 98.8474 180.572V178.412H97.4554V177.104H98.8474V174.848H100.215V177.104H101.139V178.412H100.215V180.236L101.127 179.996ZM103.383 182.96V184.148H104.775V182.96H103.383ZM104.775 179.396V178.28H103.383V179.396H104.775ZM104.775 181.76V180.596H103.383V181.76H104.775ZM108.495 184.148V185.444H103.383V186.032H102.015V179.684C101.847 179.912 101.667 180.128 101.487 180.32C101.307 180.008 100.863 179.36 100.587 179.06C101.571 178.064 102.363 176.456 102.807 174.824L104.175 175.148C103.995 175.784 103.767 176.408 103.503 177.02H104.823C105.099 176.324 105.375 175.508 105.543 174.86L107.055 175.172C106.791 175.796 106.515 176.444 106.239 177.02H108.279V178.28H106.095V179.396H107.967V180.596H106.095V181.76H107.967V182.96H106.095V184.148H108.495ZM118.263 180.956H119.751V186.032H118.263V185.348H111.615V186.044H110.163V180.956H111.615V183.944H114.123V180.32H110.643V175.964H112.059V178.928H114.123V174.956H115.587V178.928H117.771V175.964H119.271V180.32H115.587V183.944H118.263V180.956Z" fill="#737373"/>
<defs>
<filter id="filter0_d_704_2956" x="0.3" y="0.3" width="191.4" height="230.4" filterUnits="userSpaceOnUse" color-interpolation-filters="sRGB">
<feFlood flood-opacity="0" result="BackgroundImageFix"/>
<feColorMatrix in="SourceAlpha" type="matrix" values="0 0 0 0 0 0 0 0 0 0 0 0 0 0 0 0 0 0 127 0" result="hardAlpha"/>
<feOffset dy="4"/>
<feGaussianBlur stdDeviation="5.35"/>
<feComposite in2="hardAlpha" operator="out"/>
<feColorMatrix type="matrix" values="0 0 0 0 0 0 0 0 0 0 0 0 0 0 0 0 0 0 0.15 0"/>
<feBlend mode="normal" in2="BackgroundImageFix" result="effect1_dropShadow_704_2956"/>
<feBlend mode="normal" in="SourceGraphic" in2="effect1_dropShadow_704_2956" result="shape"/>
</filter>
<filter id="filter1_f_704_2956" x="58.5841" y="19.0096" width="77.9488" height="49.8027" filterUnits="userSpaceOnUse" color-interpolation-filters="sRGB">
<feFlood flood-opacity="0" result="BackgroundImageFix"/>
<feBlend mode="normal" in="SourceGraphic" in2="BackgroundImageFix" result="shape"/>
<feGaussianBlur stdDeviation="4.95" result="effect1_foregroundBlur_704_2956"/>
</filter>
<linearGradient id="paint0_linear_704_2956" x1="36.9416" y1="3.38461" x2="176.22" y2="93.7294" gradientUnits="userSpaceOnUse">
<stop stop-color="#901CEF"/>
<stop offset="1" stop-color="#B149BB"/>
</linearGradient>
</defs>
</svg>




