<svg width="192" height="231" viewBox="0 0 192 231" fill="none" xmlns="http://www.w3.org/2000/svg">
<g filter="url(#filter0_d_171_537)">
<rect x="11" y="7" width="170" height="209" rx="40" fill="white"/>
</g>
<path d="M17.6234 51C17.6234 32.2223 32.8457 17 51.6234 17H140.377C159.154 17 174.377 32.2223 174.377 51V81C174.377 92.0457 165.422 101 154.377 101H37.6234C26.5777 101 17.6234 92.0457 17.6234 81V51Z" fill="#763CA6"/>
<path d="M17.6234 64.8889C17.6234 47.2712 17.6234 38.4624 20.8089 31.631C24.1871 24.3864 30.0098 18.5637 37.2544 15.1855C44.0858 12 52.8946 12 70.5123 12H121.488C139.105 12 147.914 12 154.746 15.1855C161.99 18.5637 167.813 24.3864 171.191 31.631C174.377 38.4624 174.377 47.2712 174.377 64.8889C174.377 75.2522 174.377 80.4339 172.503 84.4524C170.516 88.7139 167.091 92.139 162.829 94.1262C158.811 96 153.629 96 143.266 96H48.7345C38.3712 96 33.1895 96 29.171 94.1262C24.9095 92.139 21.4844 88.7139 19.4973 84.4524C17.6234 80.4339 17.6234 75.2522 17.6234 64.8889Z" fill="url(#paint0_linear_171_537)"/>
<path d="M95.3975 46.5654H98.7783L102.999 12H111.03L98.874 46.6562L102.14 47.1455L123.669 12.002C127.125 12.0031 130.224 12.0081 133.024 12.0479L102.189 47.248L105.12 48.1914L147.404 13.0107C150.198 13.4819 152.573 14.172 154.746 15.1855C155.13 15.3646 155.509 15.5525 155.885 15.7451L105.12 48.2969L107.513 49.6309L164.354 21.8965C165.862 23.3962 167.228 25.0377 168.434 26.7998L107.465 49.7334L109.159 51.3682L172.168 34.085C172.686 35.619 173.084 37.2719 173.388 39.1064L109.065 51.459L109.945 53.2832L174.107 46.2051C174.187 47.65 174.242 49.1917 174.281 50.8447L109.812 53.3584L109.816 55.2471L174.364 57.6475C174.371 59.1286 174.373 60.6841 174.374 62.3203L109.652 55.2998L108.783 57.126L174.367 69.5889C174.355 71.626 174.325 73.419 174.257 75.0186L108.601 57.1533L106.916 58.791L172.922 83.4482C172.793 83.7918 172.655 84.126 172.503 84.4521C171.697 86.1804 170.654 87.7706 169.415 89.1836L106.726 58.791L104.341 60.1299L159.432 95.2295C156.537 95.843 152.87 95.9672 147.592 95.9922L104.158 60.1025L101.233 61.0518L132.095 96H122.732L101.069 60.999L97.8047 61.4932L110.113 96H102.09L97.6699 61.4189L94.2881 61.4248L90.2627 96H82.2363L94.1924 61.333L90.9229 60.8506L69.6123 96H60.2393L90.8721 60.749L87.9375 59.8105L44.7432 95.9941C39.4319 95.9733 35.7278 95.8633 32.8086 95.2803L87.9365 59.7051L85.5352 58.374L22.6475 89.2549C21.3812 87.8242 20.3165 86.2094 19.4971 84.4521C19.3462 84.1285 19.2086 83.7969 19.0811 83.4561L85.584 58.2725L83.8799 56.6406L17.7383 74.9277C17.6709 73.3069 17.6418 71.4883 17.6309 69.4199L83.9736 56.5488L83.084 54.7266L17.626 62.0674C17.6269 60.4043 17.6291 58.8252 17.6367 57.3232L83.2168 54.6514L83.2012 52.7627L17.7285 50.4434C17.7719 48.7603 17.834 47.1941 17.9209 45.7285L83.3652 52.709L84.2236 50.8828L18.7061 38.5596C19.0387 36.7032 19.4733 35.033 20.042 33.4814L84.4053 50.8545L86.0811 49.2139L24 26.1807C25.2698 24.4109 26.7043 22.77 28.2832 21.2793L86.2705 49.2129L88.6484 47.8701L37.1201 15.249C37.1648 15.228 37.2092 15.2064 37.2539 15.1855C39.7959 14.0002 42.6121 13.2554 46.0537 12.7881L88.833 47.8965L91.751 46.9434L60.6729 12.0293C63.488 12.0026 66.591 12.0001 70.0342 12L91.916 46.9951L95.1777 46.4951L82.6709 12H91.1768L95.3975 46.5654Z" fill="white" fill-opacity="0.04"/>
<g filter="url(#filter1_f_171_537)">
<ellipse cx="29.5249" cy="14.0838" rx="29.5249" ry="14.0838" transform="matrix(0.976962 0.213415 -0.257239 0.966348 72.3368 24)" fill="#68378F"/>
</g>
<path d="M76.578 81.584H61.422V65.834H76.578V81.584ZM74.256 79.298V68.12H63.744V79.298H74.256ZM64.194 78.488C64.758 76.664 65.118 74.672 65.274 72.512H67.182C67.026 74.804 66.702 76.796 66.21 78.488H64.194ZM64.59 69.83H67.884V68.66H70.116V69.83H73.41V72.062H70.116V78.758H67.884V72.062H64.59V69.83ZM72.726 72.512C72.882 74.672 73.242 76.664 73.806 78.488H71.79C71.298 76.796 70.974 74.804 70.818 72.512H72.726ZM85.596 73.754C85.344 74.138 85.026 74.54 84.642 74.96V71C85.446 69.392 85.998 67.586 86.298 65.582H88.386C88.29 66.29 88.206 66.83 88.134 67.202H90.06V65.636H92.364V67.202H94.992V69.506H92.364V71.234H94.83V73.538H92.364V75.266H94.83V77.57H92.364V79.262H95.136V81.566H85.596V73.754ZM78.882 78.362C79.626 77.75 80.25 77.06 80.754 76.292C79.818 74.108 79.374 71.564 79.422 68.66H79.134V66.572H84.894L84.768 68.516H84.786C84.714 70.148 84.54 71.612 84.264 72.908C83.988 74.192 83.58 75.38 83.04 76.472C83.472 77.108 84.054 77.738 84.786 78.362V81.242C83.646 80.474 82.68 79.514 81.888 78.362C81.084 79.466 80.082 80.516 78.882 81.512V78.362ZM81.348 68.66C81.36 69.848 81.402 70.856 81.474 71.684C81.546 72.512 81.684 73.28 81.888 73.988C82.38 72.608 82.662 70.832 82.734 68.66H81.348ZM90.06 79.262V77.57H87.864V79.262H90.06ZM90.06 75.266V73.538H87.864V75.266H90.06ZM90.06 71.234V69.506H87.864V71.234H90.06ZM112.83 75.68H109.536V76.364H113.316V78.29H109.842C110.394 78.662 110.958 78.98 111.534 79.244C112.11 79.496 112.752 79.718 113.46 79.91V81.98C112.308 81.632 111.342 81.29 110.562 80.954C109.782 80.63 109.026 80.174 108.294 79.586C107.526 80.198 106.74 80.672 105.936 81.008C105.132 81.356 104.196 81.68 103.128 81.98V79.91C103.836 79.718 104.472 79.496 105.036 79.244C105.612 78.98 106.176 78.662 106.728 78.29H103.272V76.364H107.196V75.68H103.92V69.326H112.83V75.68ZM96.594 80.864C96.858 79.556 97.026 78.188 97.098 76.76C97.17 75.332 97.206 73.592 97.206 71.54V70.424H98.934L98.952 73.97C98.952 75.302 98.916 76.526 98.844 77.642C98.772 78.746 98.64 79.82 98.448 80.864H96.594ZM96.918 67.454H99.312V65.51H101.598V67.454H103.272V69.686H101.634V71.648L102.912 72.764V75.482L101.634 74.366V81.8H99.42V69.686H96.918V67.454ZM103.506 66.248H104.748V65.51H106.872V66.248H109.86V65.51H111.984V66.248H113.226V68.228H111.984V69.038H109.86V68.228H106.872V69.038H104.748V68.228H103.506V66.248ZM110.868 74.078V73.268H105.882V74.078H110.868ZM110.868 71.756V70.946H105.882V71.756H110.868ZM128.814 81.8C128.238 80.492 127.782 79.172 127.446 77.84C127.11 76.508 126.846 75.056 126.654 73.484L126.24 70.1H114.9V67.778H125.952L125.646 65.24H128.04L128.346 67.778H131.28V70.1H128.634L129.048 73.484C129.24 75.008 129.522 76.442 129.894 77.786C130.266 79.118 130.776 80.456 131.424 81.8H128.814ZM114.972 78.884L119.49 78.668V74.078H116.016V71.81H124.998V74.078H121.794V78.56L126.222 78.344V80.666L114.972 81.206V78.884ZM130.524 65.366L130.776 67.328H129.138L128.886 65.366H130.524Z" fill="#FEFAFF"/>
<path d="M82.4039 128.414C79.5946 128.013 77.0512 127.49 74.7739 126.846C73.5139 127.733 71.8572 128.274 69.8039 128.47V126.65C70.8026 126.566 71.6706 126.379 72.4079 126.09C71.9972 125.95 71.5026 125.759 70.9239 125.516V123.934H70.4899V118.236H75.2079V117.648H69.8039V115.94H82.4039V117.648H76.9999V118.236H81.7179V123.934H76.8599C76.7199 124.494 76.4866 125.007 76.1599 125.474C78.2226 125.997 80.3039 126.407 82.4039 126.706V128.414ZM71.1899 123.934C72.1326 124.289 73.1452 124.625 74.2279 124.942C74.5359 124.643 74.7739 124.307 74.9419 123.934H71.1899ZM75.2079 122.506V121.736H72.2819V122.506H75.2079ZM75.2079 120.434V119.664H72.2819V120.434H75.2079ZM79.9259 122.506V121.736H76.9999V122.506H79.9259ZM79.9259 120.434V119.664H76.9999V120.434H79.9259ZM84.2239 126.832C85.7079 126.673 87.3692 126.323 89.2079 125.782H83.5659V124.186H85.0639V115.912H95.1439V124.186H96.6419V125.782H90.9999C92.8386 126.323 94.4999 126.673 95.9839 126.832V128.54C94.1266 128.307 92.4326 127.952 90.9019 127.476V125.782H89.3059V127.476C87.7752 127.952 86.0812 128.307 84.2239 128.54V126.832ZM93.3239 124.186V123.584H86.8839V124.186H93.3239ZM93.3239 122.156V121.554H86.8839V122.156H93.3239ZM93.3239 120.14V119.524H86.8839V120.14H93.3239ZM93.3239 118.11V117.494H86.8839V118.11H93.3239ZM101.542 126.608C102.513 126.113 103.171 125.577 103.516 124.998C103.861 124.41 104.048 123.803 104.076 123.178L101.962 124.634V123.248L100.954 123.514V128.4H98.1259V126.706H99.1339V123.976L97.7479 124.326V122.38L99.1339 122.03V119.44H97.8879V117.676H99.1339V115.73H100.954V117.676H102.004V119.44H100.954V121.568L102.144 121.26V122.618L104.076 121.288V115.73H105.756V122.8C105.756 123.584 105.663 124.326 105.476 125.026C105.289 125.726 104.883 126.398 104.258 127.042C103.642 127.686 102.737 128.185 101.542 128.54V126.608ZM103.53 116.304L103.992 120.518H102.55L102.088 116.304H103.53ZM106.736 115.73H108.416V121.624L110.488 123.15V125.096L108.416 123.57V126.566H110.684V128.358H106.736V115.73ZM109.088 116.304H110.53L109.998 120.518H108.556L109.088 116.304ZM124.544 128.652C123.135 128.232 122.038 127.537 121.254 126.566C120.89 126.921 120.484 127.219 120.036 127.462C119.597 127.714 119.103 127.947 118.552 128.162V126.104C119.289 125.815 119.882 125.432 120.33 124.956C119.873 123.808 119.644 122.366 119.644 120.63H118.37V118.922H119.616V115.73H121.282V118.922H123.998V120.63H121.31C121.319 121.246 121.338 121.769 121.366 122.198C121.394 122.627 121.45 123.024 121.534 123.388C121.786 122.875 121.982 122.273 122.122 121.582H123.676C123.424 122.907 122.99 124.102 122.374 125.166C122.859 125.763 123.583 126.249 124.544 126.622V128.652ZM112.07 121.484H113.96V115.73H115.752V117.522H118.188V119.342H115.752V121.484H117.852V128.26H112.07V121.484ZM116.116 126.454V123.29H113.806V126.454H116.116ZM123.046 116.038L123.55 118.474H122.024L121.534 116.038H123.046ZM64.5819 137.102L64.7639 135.73H66.5979L66.4159 137.102H68.3759V140.42C69.0106 138.889 69.3652 137.303 69.4399 135.66H71.3159C71.3066 136.089 71.2692 136.57 71.2039 137.102H75.1939V148.4H72.0159V146.58H73.3879V138.894H70.8819C70.7046 139.631 70.4852 140.289 70.2239 140.868H68.3759V148.204H62.9859V137.102H64.5819ZM66.6259 146.482V143.402H64.7359V146.482H66.6259ZM66.6259 141.722V138.824H64.7359V141.722H66.6259ZM71.4279 141.19L72.3099 144.606H70.4619L69.5799 141.19H71.4279ZM82.6839 140.574H84.4059L85.4559 144.858H83.7339L82.6839 140.574ZM76.9299 136.696H82.3759L82.2779 138.208C82.2219 139.384 82.0726 140.457 81.8299 141.428C81.5872 142.389 81.2372 143.29 80.7799 144.13C81.2466 144.783 81.8486 145.399 82.5859 145.978V148.316C81.4566 147.476 80.5186 146.585 79.7719 145.642C79.0066 146.594 78.0639 147.485 76.9439 148.316V145.978C77.6812 145.399 78.2832 144.783 78.7499 144.13C78.2926 143.309 77.9426 142.422 77.6999 141.47C77.4666 140.518 77.3172 139.468 77.2519 138.32H76.9299V136.696ZM78.9739 138.32C79.0392 139.841 79.3052 141.171 79.7719 142.31C80.2292 141.162 80.4906 139.832 80.5559 138.32H78.9739ZM82.6279 137.424H86.4499V135.8H88.2419V137.424H89.4739V139.216H88.2419L88.2279 148.4H85.0639V146.58H86.4499V139.216H82.6279V137.424ZM103.082 148.26H95.6619V142.73H98.4479V141.022H95.2419V139.342H98.4619V137.704C97.5192 137.741 96.5672 137.76 95.6059 137.76V136.08C96.7166 136.08 98.0466 136.047 99.5959 135.982C101.155 135.917 102.335 135.828 103.138 135.716V137.396C102.466 137.499 101.509 137.578 100.268 137.634V139.342H103.502V141.022H100.254V142.73H103.082V148.26ZM90.5939 139.79H93.7579V145.698L95.1159 145.236V147.322L91.9239 148.4V141.652H90.5939V139.79ZM93.1979 135.8L94.1639 138.838H92.2599L91.2939 135.8H93.1979ZM101.262 146.566V144.424H97.4819V146.566H101.262ZM105.518 148.4C106.283 147.252 106.806 146.081 107.086 144.886H104.692V143.122H107.352C107.389 142.711 107.408 142.231 107.408 141.68V141.372H104.986V139.608H107.436V135.8H109.2V139.608H111.65V141.372H109.228V141.68C109.228 142.231 109.209 142.711 109.172 143.122H111.944V144.886H108.934C108.691 146.099 108.295 147.271 107.744 148.4H105.518ZM106.288 136.164L106.82 138.88H105.336L104.804 136.164H106.288ZM110.348 136.164H111.832L111.3 138.88H109.816L110.348 136.164ZM112.56 136.57H114.268V145.278H112.56V136.57ZM113.54 146.594H115.43V135.8H117.166V148.4H113.54V146.594ZM119.042 135.8H120.722V146.384H125.16V147.868C125.431 147.112 125.617 146.356 125.72 145.6C125.823 144.835 125.874 143.957 125.874 142.968V136.08C127.769 136.08 129.57 135.959 131.278 135.716V137.508C130.205 137.667 128.982 137.779 127.61 137.844V139.706H131.544V141.498H130.536V148.4H128.828V141.498H127.61V142.968C127.61 143.957 127.549 144.895 127.428 145.782C127.307 146.659 127.115 147.532 126.854 148.4H124.964L125.048 148.176H119.042V135.8ZM120.792 145.656C121.072 144.06 121.217 142.59 121.226 141.246H122.234C122.206 142.777 122.075 144.247 121.842 145.656H120.792ZM120.96 139.104H122.486V135.8H123.886V139.104H125.412V140.868H123.886V145.908H122.486V140.868H120.96V139.104ZM121.954 135.954L122.206 138.754H121.198L120.96 135.954H121.954ZM125.132 141.246C125.141 142.59 125.286 144.06 125.566 145.656H124.516C124.283 144.247 124.152 142.777 124.124 141.246H125.132ZM124.418 135.954H125.412L125.174 138.754H124.166L124.418 135.954Z" fill="#821E98"/>
<rect x="48.5325" y="171" width="96.039" height="25" rx="12.5" fill="#E2DCDC"/>
<rect x="48.5325" y="167" width="96.039" height="25" rx="12.5" fill="#F5F1F1"/>
<path d="M77.4634 176.744H75.4954V177.74H77.4634V176.744ZM75.4954 179.972H77.4634V178.988H75.4954V179.972ZM76.2634 182.084L77.4154 181.544C78.1594 182.552 78.9514 183.908 79.2514 184.832L77.9914 185.468C77.9074 185.156 77.7634 184.796 77.5834 184.412C76.2274 184.796 74.8234 185.18 73.7314 185.48L73.3234 184.016C73.5634 183.968 73.8394 183.908 74.1274 183.836V175.424H78.7834V181.292H75.4954V183.524L76.9354 183.164C76.7194 182.792 76.4914 182.42 76.2634 182.084ZM84.0874 175.4V182.648C84.0874 183.32 83.9794 183.788 83.5474 184.052C83.1034 184.316 82.5394 184.352 81.7714 184.352C81.7234 183.92 81.4954 183.188 81.2794 182.792C81.7474 182.828 82.2394 182.816 82.4074 182.816C82.5634 182.816 82.6114 182.756 82.6114 182.6V176.84H80.9074V186.032H79.4554V175.4H84.0874ZM87.3274 178.208V174.848H88.7194V186.032H87.3274V182.84C86.8234 183.236 86.3074 183.632 85.8274 183.98L85.1914 182.492C85.7194 182.204 86.5234 181.748 87.3274 181.244V178.952L86.2834 179.456C86.1274 178.736 85.6954 177.632 85.2874 176.78L86.4514 176.276C86.7754 176.864 87.0994 177.584 87.3274 178.208ZM94.9714 174.836L95.9194 175.928C94.0954 176.444 91.5754 176.78 89.4154 176.936C89.3674 176.612 89.1874 176.096 89.0554 175.808C91.1554 175.616 93.5194 175.268 94.9714 174.836ZM93.3874 178.88L92.0794 179.24C92.0434 178.676 91.8154 177.8 91.5394 177.116L92.7754 176.792C93.0634 177.452 93.3274 178.328 93.3874 178.88ZM91.3474 179.3L90.1234 179.768C90.0034 179.204 89.6434 178.292 89.2714 177.596L90.3994 177.188C90.7954 177.848 91.2034 178.712 91.3474 179.3ZM89.8354 182.492L90.9874 181.892C91.5394 182.492 92.1874 183.332 92.4634 183.92L91.2154 184.604C90.9874 184.028 90.3634 183.14 89.8354 182.492ZM96.5194 180.488V181.808H94.9714V184.484C94.9714 185.204 94.8394 185.588 94.3354 185.792C93.8674 186.02 93.1834 186.032 92.2474 186.032C92.1874 185.636 91.9954 185.036 91.8034 184.64C92.4274 184.676 93.0994 184.676 93.3034 184.664C93.5074 184.652 93.5554 184.616 93.5554 184.46V181.808H89.0914V180.488H93.5554V179.78L93.1594 179.576C93.7834 178.808 94.5754 177.596 95.0194 176.66L96.3394 177.272C95.8114 178.136 95.1874 179.036 94.6234 179.732H94.9714V180.488H96.5194ZM101.127 179.996L101.283 181.268C100.935 181.376 100.575 181.472 100.215 181.58V184.436C100.215 185.144 100.095 185.528 99.7114 185.744C99.3154 185.984 98.7514 186.032 97.9234 186.032C97.8874 185.648 97.7074 185.036 97.5274 184.64C97.9954 184.664 98.4874 184.664 98.6434 184.652C98.7874 184.652 98.8474 184.604 98.8474 184.424V181.964L97.5154 182.324L97.2154 180.944C97.6714 180.848 98.2354 180.716 98.8474 180.572V178.412H97.4554V177.104H98.8474V174.848H100.215V177.104H101.139V178.412H100.215V180.236L101.127 179.996ZM103.383 182.96V184.148H104.775V182.96H103.383ZM104.775 179.396V178.28H103.383V179.396H104.775ZM104.775 181.76V180.596H103.383V181.76H104.775ZM108.495 184.148V185.444H103.383V186.032H102.015V179.684C101.847 179.912 101.667 180.128 101.487 180.32C101.307 180.008 100.863 179.36 100.587 179.06C101.571 178.064 102.363 176.456 102.807 174.824L104.175 175.148C103.995 175.784 103.767 176.408 103.503 177.02H104.823C105.099 176.324 105.375 175.508 105.543 174.86L107.055 175.172C106.791 175.796 106.515 176.444 106.239 177.02H108.279V178.28H106.095V179.396H107.967V180.596H106.095V181.76H107.967V182.96H106.095V184.148H108.495ZM118.263 180.956H119.751V186.032H118.263V185.348H111.615V186.044H110.163V180.956H111.615V183.944H114.123V180.32H110.643V175.964H112.059V178.928H114.123V174.956H115.587V178.928H117.771V175.964H119.271V180.32H115.587V183.944H118.263V180.956Z" fill="#737373"/>
<defs>
<filter id="filter0_d_171_537" x="0.3" y="0.3" width="191.4" height="230.4" filterUnits="userSpaceOnUse" color-interpolation-filters="sRGB">
<feFlood flood-opacity="0" result="BackgroundImageFix"/>
<feColorMatrix in="SourceAlpha" type="matrix" values="0 0 0 0 0 0 0 0 0 0 0 0 0 0 0 0 0 0 127 0" result="hardAlpha"/>
<feOffset dy="4"/>
<feGaussianBlur stdDeviation="5.35"/>
<feComposite in2="hardAlpha" operator="out"/>
<feColorMatrix type="matrix" values="0 0 0 0 0 0 0 0 0 0 0 0 0 0 0 0 0 0 0.15 0"/>
<feBlend mode="normal" in2="BackgroundImageFix" result="effect1_dropShadow_171_537"/>
<feBlend mode="normal" in="SourceGraphic" in2="effect1_dropShadow_171_537" result="shape"/>
</filter>
<filter id="filter1_f_171_537" x="58.5841" y="19.0096" width="77.9488" height="49.8027" filterUnits="userSpaceOnUse" color-interpolation-filters="sRGB">
<feFlood flood-opacity="0" result="BackgroundImageFix"/>
<feBlend mode="normal" in="SourceGraphic" in2="BackgroundImageFix" result="shape"/>
<feGaussianBlur stdDeviation="4.95" result="effect1_foregroundBlur_171_537"/>
</filter>
<linearGradient id="paint0_linear_171_537" x1="36.9416" y1="3.38461" x2="176.22" y2="93.7294" gradientUnits="userSpaceOnUse">
<stop stop-color="#901CEF"/>
<stop offset="1" stop-color="#B149BB"/>
</linearGradient>
</defs>
</svg>



