<svg width="192" height="231" viewBox="0 0 192 231" fill="none" xmlns="http://www.w3.org/2000/svg">
<g filter="url(#filter0_d_196_706)">
<rect x="11" y="7" width="170" height="209" rx="40" fill="white"/>
</g>
<g filter="url(#filter1_d_196_706)">
<rect x="11" y="7" width="170" height="209" rx="40" fill="white"/>
</g>
<path d="M17.6234 51C17.6234 32.2223 32.8457 17 51.6234 17H140.377C159.154 17 174.377 32.2223 174.377 51V81C174.377 92.0457 165.422 101 154.377 101H37.6234C26.5777 101 17.6234 92.0457 17.6234 81V51Z" fill="#763CA6"/>
<path d="M17.6234 64.8889C17.6234 47.2712 17.6234 38.4624 20.8089 31.631C24.1871 24.3864 30.0098 18.5637 37.2544 15.1855C44.0858 12 52.8946 12 70.5123 12H121.488C139.105 12 147.914 12 154.746 15.1855C161.99 18.5637 167.813 24.3864 171.191 31.631C174.377 38.4624 174.377 47.2712 174.377 64.8889C174.377 75.2522 174.377 80.4339 172.503 84.4524C170.516 88.7139 167.091 92.139 162.829 94.1262C158.811 96 153.629 96 143.266 96H48.7345C38.3712 96 33.1895 96 29.171 94.1262C24.9095 92.139 21.4844 88.7139 19.4973 84.4524C17.6234 80.4339 17.6234 75.2522 17.6234 64.8889Z" fill="url(#paint0_linear_196_706)"/>
<path d="M95.3975 46.5654H98.7783L102.999 12H111.03L98.874 46.6562L102.14 47.1455L123.669 12.002C127.125 12.0031 130.224 12.0081 133.024 12.0479L102.189 47.248L105.12 48.1914L147.404 13.0107C150.198 13.4819 152.573 14.172 154.746 15.1855C155.13 15.3646 155.509 15.5525 155.885 15.7451L105.12 48.2969L107.513 49.6309L164.354 21.8965C165.862 23.3962 167.228 25.0377 168.434 26.7998L107.465 49.7334L109.159 51.3682L172.168 34.085C172.686 35.619 173.084 37.2719 173.388 39.1064L109.065 51.459L109.945 53.2832L174.107 46.2051C174.187 47.65 174.242 49.1917 174.281 50.8447L109.812 53.3584L109.816 55.2471L174.364 57.6475C174.371 59.1286 174.373 60.6841 174.374 62.3203L109.652 55.2998L108.783 57.126L174.367 69.5889C174.355 71.626 174.325 73.419 174.257 75.0186L108.601 57.1533L106.916 58.791L172.922 83.4482C172.793 83.7918 172.655 84.126 172.503 84.4521C171.697 86.1804 170.654 87.7706 169.415 89.1836L106.726 58.791L104.341 60.1299L159.432 95.2295C156.537 95.843 152.87 95.9672 147.592 95.9922L104.158 60.1025L101.233 61.0518L132.095 96H122.732L101.069 60.999L97.8047 61.4932L110.113 96H102.09L97.6699 61.4189L94.2881 61.4248L90.2627 96H82.2363L94.1924 61.333L90.9229 60.8506L69.6123 96H60.2393L90.8721 60.749L87.9375 59.8105L44.7432 95.9941C39.4319 95.9733 35.7278 95.8633 32.8086 95.2803L87.9365 59.7051L85.5352 58.374L22.6475 89.2549C21.3812 87.8242 20.3165 86.2094 19.4971 84.4521C19.3462 84.1285 19.2086 83.7969 19.0811 83.4561L85.584 58.2725L83.8799 56.6406L17.7383 74.9277C17.6709 73.3069 17.6418 71.4883 17.6309 69.4199L83.9736 56.5488L83.084 54.7266L17.626 62.0674C17.6269 60.4043 17.6291 58.8252 17.6367 57.3232L83.2168 54.6514L83.2012 52.7627L17.7285 50.4434C17.7719 48.7603 17.834 47.1941 17.9209 45.7285L83.3652 52.709L84.2236 50.8828L18.7061 38.5596C19.0387 36.7032 19.4733 35.033 20.042 33.4814L84.4053 50.8545L86.0811 49.2139L24 26.1807C25.2698 24.4109 26.7043 22.77 28.2832 21.2793L86.2705 49.2129L88.6484 47.8701L37.1201 15.249C37.1648 15.228 37.2092 15.2064 37.2539 15.1855C39.7959 14.0002 42.6121 13.2554 46.0537 12.7881L88.833 47.8965L91.751 46.9434L60.6729 12.0293C63.488 12.0026 66.591 12.0001 70.0342 12L91.916 46.9951L95.1777 46.4951L82.6709 12H91.1768L95.3975 46.5654Z" fill="white" fill-opacity="0.04"/>
<g filter="url(#filter2_f_196_706)">
<ellipse cx="29.5249" cy="14.0838" rx="29.5249" ry="14.0838" transform="matrix(0.976962 0.213415 -0.257239 0.966348 72.3368 24)" fill="#68378F"/>
</g>
<path d="M67.6384 69.5V80H65.1634V75.56H61.1284V80H58.6534V69.5H61.1284V73.535H65.1634V69.5H67.6384ZM72.7347 80.195C71.9747 80.195 71.3097 80.015 70.7397 79.655C70.1797 79.295 69.7447 78.8 69.4347 78.17C69.1347 77.54 68.9847 76.805 68.9847 75.965C68.9847 75.135 69.1347 74.4 69.4347 73.76C69.7447 73.11 70.1747 72.605 70.7247 72.245C71.2847 71.885 71.9347 71.705 72.6747 71.705C73.0147 71.705 73.3547 71.77 73.6947 71.9C74.0447 72.02 74.3697 72.19 74.6697 72.41V71.9H77.0697V78.11C77.0697 78.92 77.1697 79.55 77.3697 80H75.1197C75.0497 79.86 74.9897 79.68 74.9397 79.46C74.3197 79.95 73.5847 80.195 72.7347 80.195ZM71.2797 75.965C71.2797 76.425 71.3697 76.845 71.5497 77.225C71.7397 77.605 71.9847 77.91 72.2847 78.14C72.5947 78.36 72.9197 78.47 73.2597 78.47C73.4997 78.47 73.7697 78.42 74.0697 78.32C74.3697 78.21 74.6297 77.98 74.8497 77.63V74.27C74.6297 73.92 74.3697 73.695 74.0697 73.595C73.7797 73.495 73.5097 73.445 73.2597 73.445C72.9197 73.445 72.5947 73.555 72.2847 73.775C71.9847 73.995 71.7397 74.3 71.5497 74.69C71.3697 75.07 71.2797 75.495 71.2797 75.965ZM80.9718 71.9V72.77C81.2318 72.49 81.5418 72.275 81.9018 72.125C82.2718 71.965 82.6368 71.885 82.9968 71.885C83.2468 71.885 83.4818 71.92 83.7018 71.99V73.835C83.4218 73.765 83.1568 73.73 82.9068 73.73C82.5268 73.73 82.1668 73.795 81.8268 73.925C81.4868 74.045 81.2018 74.24 80.9718 74.51V80H78.5718V71.9H80.9718ZM88.0848 80.195C87.3448 80.195 86.6948 80.02 86.1348 79.67C85.5748 79.31 85.1448 78.81 84.8448 78.17C84.5448 77.53 84.3948 76.8 84.3948 75.98C84.3948 75.15 84.5448 74.415 84.8448 73.775C85.1548 73.125 85.5848 72.62 86.1348 72.26C86.6948 71.9 87.3448 71.72 88.0848 71.72C88.4248 71.72 88.7648 71.78 89.1048 71.9C89.4548 72.02 89.7798 72.195 90.0798 72.425V68.465H92.4798V78.125C92.4798 78.925 92.5798 79.55 92.7798 80H90.5298C90.4598 79.86 90.3998 79.68 90.3498 79.46C89.7198 79.95 88.9648 80.195 88.0848 80.195ZM86.6898 75.98C86.6898 76.44 86.7798 76.86 86.9598 77.24C87.1498 77.62 87.3948 77.925 87.6948 78.155C88.0048 78.375 88.3298 78.485 88.6698 78.485C88.9398 78.485 89.2348 78.42 89.5548 78.29C89.8848 78.16 90.1548 77.89 90.3648 77.48V74.465C90.1548 74.045 89.8848 73.77 89.5548 73.64C89.2348 73.51 88.9398 73.445 88.6698 73.445C88.3298 73.445 88.0048 73.555 87.6948 73.775C87.3948 73.995 87.1498 74.3 86.9598 74.69C86.7798 75.08 86.6898 75.51 86.6898 75.98ZM100.548 71.36H100.413V80H98.0284V69.5H102.333L103.758 77.015L103.788 77.165L103.818 77.015L105.243 69.5H109.548V80H107.163V71.36H107.043L105.243 80H102.333L100.548 71.36ZM115.154 80.195C114.304 80.195 113.554 80.02 112.904 79.67C112.264 79.32 111.769 78.825 111.419 78.185C111.069 77.535 110.894 76.77 110.894 75.89C110.894 74.54 111.274 73.505 112.034 72.785C112.794 72.065 113.834 71.705 115.154 71.705C116.464 71.705 117.499 72.065 118.259 72.785C119.019 73.505 119.399 74.54 119.399 75.89C119.399 76.77 119.224 77.535 118.874 78.185C118.524 78.825 118.029 79.32 117.389 79.67C116.749 80.02 116.004 80.195 115.154 80.195ZM113.264 75.89C113.264 76.66 113.439 77.28 113.789 77.75C114.139 78.22 114.594 78.455 115.154 78.455C115.714 78.455 116.164 78.22 116.504 77.75C116.854 77.28 117.029 76.66 117.029 75.89C117.029 75.09 116.859 74.485 116.519 74.075C116.189 73.655 115.734 73.445 115.154 73.445C114.574 73.445 114.114 73.655 113.774 74.075C113.434 74.485 113.264 75.09 113.264 75.89ZM123.988 80.195C123.248 80.195 122.598 80.02 122.038 79.67C121.478 79.31 121.048 78.81 120.748 78.17C120.448 77.53 120.298 76.8 120.298 75.98C120.298 75.15 120.448 74.415 120.748 73.775C121.058 73.125 121.488 72.62 122.038 72.26C122.598 71.9 123.248 71.72 123.988 71.72C124.328 71.72 124.668 71.78 125.008 71.9C125.358 72.02 125.683 72.195 125.983 72.425V68.465H128.383V78.125C128.383 78.925 128.483 79.55 128.683 80H126.433C126.363 79.86 126.303 79.68 126.253 79.46C125.623 79.95 124.868 80.195 123.988 80.195ZM122.593 75.98C122.593 76.44 122.683 76.86 122.863 77.24C123.053 77.62 123.298 77.925 123.598 78.155C123.908 78.375 124.233 78.485 124.573 78.485C124.843 78.485 125.138 78.42 125.458 78.29C125.788 78.16 126.058 77.89 126.268 77.48V74.465C126.058 74.045 125.788 73.77 125.458 73.64C125.138 73.51 124.843 73.445 124.573 73.445C124.233 73.445 123.908 73.555 123.598 73.775C123.298 73.995 123.053 74.3 122.863 74.69C122.683 75.08 122.593 75.51 122.593 75.98ZM137.25 79.565C136.87 79.795 136.425 79.965 135.915 80.075C135.415 80.185 134.93 80.24 134.46 80.24C132.86 80.24 131.645 79.86 130.815 79.1C129.995 78.34 129.585 77.275 129.585 75.905C129.585 74.545 129.95 73.505 130.68 72.785C131.42 72.055 132.425 71.69 133.695 71.69C134.955 71.69 135.95 72.055 136.68 72.785C137.42 73.505 137.79 74.545 137.79 75.905C137.79 76.055 137.78 76.27 137.76 76.55H131.925C132.145 77.84 132.99 78.485 134.46 78.485C135.49 78.485 136.42 78.18 137.25 77.57V79.565ZM135.525 74.87C135.395 74.37 135.17 74 134.85 73.76C134.53 73.52 134.145 73.4 133.695 73.4C133.275 73.4 132.915 73.525 132.615 73.775C132.325 74.025 132.12 74.39 132 74.87H135.525Z" fill="#FEFAFF"/>
<path d="M34.4488 119.936H34.3228V128H32.0968V118.2H36.1148L37.4448 125.214L37.4728 125.354L37.5008 125.214L38.8308 118.2H42.8488V128H40.6228V119.936H40.5108L38.8308 128H36.1148L34.4488 119.936ZM48.0806 128.182C47.2872 128.182 46.5872 128.019 45.9806 127.692C45.3832 127.365 44.9212 126.903 44.5946 126.306C44.2679 125.699 44.1046 124.985 44.1046 124.164C44.1046 122.904 44.4592 121.938 45.1686 121.266C45.8779 120.594 46.8486 120.258 48.0806 120.258C49.3032 120.258 50.2692 120.594 50.9786 121.266C51.6879 121.938 52.0426 122.904 52.0426 124.164C52.0426 124.985 51.8792 125.699 51.5526 126.306C51.2259 126.903 50.7639 127.365 50.1666 127.692C49.5692 128.019 48.8739 128.182 48.0806 128.182ZM46.3166 124.164C46.3166 124.883 46.4799 125.461 46.8066 125.9C47.1332 126.339 47.5579 126.558 48.0806 126.558C48.6032 126.558 49.0232 126.339 49.3406 125.9C49.6672 125.461 49.8306 124.883 49.8306 124.164C49.8306 123.417 49.6719 122.853 49.3546 122.47C49.0466 122.078 48.6219 121.882 48.0806 121.882C47.5392 121.882 47.1099 122.078 46.7926 122.47C46.4752 122.853 46.3166 123.417 46.3166 124.164ZM55.4019 120.44V121.252C55.6446 120.991 55.9339 120.79 56.2699 120.65C56.6152 120.501 56.9559 120.426 57.2919 120.426C57.5252 120.426 57.7446 120.459 57.9499 120.524V122.246C57.6886 122.181 57.4412 122.148 57.2079 122.148C56.8532 122.148 56.5172 122.209 56.1999 122.33C55.8826 122.442 55.6166 122.624 55.4019 122.876V128H53.1619V120.44H55.4019ZM65.4773 127.594C65.1227 127.809 64.7073 127.967 64.2313 128.07C63.7647 128.173 63.312 128.224 62.8733 128.224C61.38 128.224 60.246 127.869 59.4713 127.16C58.706 126.451 58.3233 125.457 58.3233 124.178C58.3233 122.909 58.664 121.938 59.3453 121.266C60.036 120.585 60.974 120.244 62.1593 120.244C63.3353 120.244 64.264 120.585 64.9453 121.266C65.636 121.938 65.9813 122.909 65.9813 124.178C65.9813 124.318 65.972 124.519 65.9533 124.78H60.5073C60.7127 125.984 61.5013 126.586 62.8733 126.586C63.8347 126.586 64.7027 126.301 65.4773 125.732V127.594ZM63.8673 123.212C63.746 122.745 63.536 122.4 63.2373 122.176C62.9387 121.952 62.5793 121.84 62.1593 121.84C61.7673 121.84 61.4313 121.957 61.1513 122.19C60.8807 122.423 60.6893 122.764 60.5773 123.212H63.8673ZM76.0919 128.182C75.0279 128.182 74.0806 127.986 73.2499 127.594C72.4286 127.202 71.7799 126.633 71.3039 125.886C70.8373 125.139 70.6039 124.253 70.6039 123.226C70.6039 122.143 70.8326 121.215 71.2899 120.44C71.7473 119.656 72.3866 119.059 73.2079 118.648C74.0293 118.228 74.9673 118.018 76.0219 118.018C76.5446 118.018 77.0719 118.069 77.6039 118.172C78.1359 118.275 78.5746 118.405 78.9199 118.564V120.3C77.9773 119.955 77.0999 119.782 76.2879 119.782C75.3173 119.782 74.5286 120.067 73.9219 120.636C73.3246 121.205 73.0259 122.069 73.0259 123.226C73.0259 123.842 73.1753 124.388 73.4739 124.864C73.7726 125.331 74.1646 125.695 74.6499 125.956C75.1353 126.217 75.6579 126.367 76.2179 126.404L76.5259 126.418C76.9553 126.418 77.3799 126.357 77.7999 126.236C78.2199 126.115 78.5933 125.951 78.9199 125.746V127.678C78.5186 127.865 78.0893 127.995 77.6319 128.07C77.1839 128.145 76.6706 128.182 76.0919 128.182ZM82.5543 117.248V121.252C82.8903 120.972 83.2636 120.757 83.6743 120.608C84.0849 120.449 84.5003 120.37 84.9203 120.37C85.6389 120.37 86.2083 120.58 86.6283 121C87.0576 121.42 87.2723 121.966 87.2723 122.638V128H85.0323V123.016C85.0323 122.745 84.9203 122.526 84.6963 122.358C84.4723 122.181 84.2063 122.092 83.8983 122.092C83.7209 122.092 83.5016 122.148 83.2403 122.26C82.9789 122.372 82.7503 122.512 82.5543 122.68V128H80.3143V117.248H82.5543ZM91.8878 128.182C91.1784 128.182 90.5578 128.014 90.0258 127.678C89.5031 127.342 89.0971 126.88 88.8078 126.292C88.5278 125.704 88.3878 125.018 88.3878 124.234C88.3878 123.459 88.5278 122.773 88.8078 122.176C89.0971 121.569 89.4984 121.098 90.0118 120.762C90.5344 120.426 91.1411 120.258 91.8318 120.258C92.1491 120.258 92.4664 120.319 92.7838 120.44C93.1104 120.552 93.4138 120.711 93.6938 120.916V120.44H95.9338V126.236C95.9338 126.992 96.0271 127.58 96.2138 128H94.1138C94.0484 127.869 93.9924 127.701 93.9458 127.496C93.3671 127.953 92.6811 128.182 91.8878 128.182ZM90.5298 124.234C90.5298 124.663 90.6138 125.055 90.7818 125.41C90.9591 125.765 91.1878 126.049 91.4678 126.264C91.7571 126.469 92.0604 126.572 92.3778 126.572C92.6018 126.572 92.8538 126.525 93.1338 126.432C93.4138 126.329 93.6564 126.115 93.8618 125.788V122.652C93.6564 122.325 93.4138 122.115 93.1338 122.022C92.8631 121.929 92.6111 121.882 92.3778 121.882C92.0604 121.882 91.7571 121.985 91.4678 122.19C91.1878 122.395 90.9591 122.68 90.7818 123.044C90.6138 123.399 90.5298 123.795 90.5298 124.234ZM99.8837 128.112C99.0437 128.112 98.4091 127.879 97.9797 127.412C97.5504 126.936 97.3357 126.241 97.3357 125.326V117.234H99.5757V124.766C99.5757 125.139 99.6037 125.424 99.6597 125.62C99.7157 125.816 99.8091 125.965 99.9397 126.068C100.042 126.152 100.154 126.208 100.276 126.236C100.406 126.255 100.63 126.264 100.948 126.264V128.112H99.8837ZM104.341 128.112C103.501 128.112 102.866 127.879 102.437 127.412C102.007 126.936 101.793 126.241 101.793 125.326V117.234H104.033V124.766C104.033 125.139 104.061 125.424 104.117 125.62C104.173 125.816 104.266 125.965 104.397 126.068C104.499 126.152 104.611 126.208 104.733 126.236C104.863 126.255 105.087 126.264 105.405 126.264V128.112H104.341ZM113.124 127.594C112.769 127.809 112.354 127.967 111.878 128.07C111.411 128.173 110.958 128.224 110.52 128.224C109.026 128.224 107.892 127.869 107.118 127.16C106.352 126.451 105.97 125.457 105.97 124.178C105.97 122.909 106.31 121.938 106.992 121.266C107.682 120.585 108.62 120.244 109.806 120.244C110.982 120.244 111.91 120.585 112.592 121.266C113.282 121.938 113.628 122.909 113.628 124.178C113.628 124.318 113.618 124.519 113.6 124.78H108.154C108.359 125.984 109.148 126.586 110.52 126.586C111.481 126.586 112.349 126.301 113.124 125.732V127.594ZM111.514 123.212C111.392 122.745 111.182 122.4 110.884 122.176C110.585 121.952 110.226 121.84 109.806 121.84C109.414 121.84 109.078 121.957 108.798 122.19C108.527 122.423 108.336 122.764 108.224 123.212H111.514ZM116.994 120.412V121.322C117.339 121.023 117.731 120.79 118.17 120.622C118.618 120.454 119.061 120.37 119.5 120.37C120.218 120.37 120.788 120.58 121.208 121C121.637 121.42 121.852 121.966 121.852 122.638V127.972H119.612V123.016C119.612 122.745 119.5 122.526 119.276 122.358C119.052 122.181 118.786 122.092 118.478 122.092C118.282 122.092 118.034 122.157 117.736 122.288C117.446 122.419 117.199 122.577 116.994 122.764V127.972H114.754V120.412H116.994ZM126.59 131.192C126.02 131.192 125.446 131.155 124.868 131.08C124.298 131.005 123.785 130.898 123.328 130.758V128.924C124.326 129.148 125.325 129.26 126.324 129.26C126.958 129.26 127.439 129.12 127.766 128.84C128.092 128.56 128.256 128.173 128.256 127.678C127.742 128.014 127.131 128.182 126.422 128.182C125.731 128.182 125.124 128.014 124.602 127.678C124.079 127.342 123.678 126.88 123.398 126.292C123.118 125.695 122.978 125.009 122.978 124.234C122.978 123.459 123.118 122.773 123.398 122.176C123.687 121.569 124.088 121.098 124.602 120.762C125.124 120.426 125.731 120.258 126.422 120.258C127.066 120.258 127.677 120.473 128.256 120.902V120.44H130.44V127.972C130.44 130.119 129.156 131.192 126.59 131.192ZM125.12 124.234C125.12 124.663 125.204 125.055 125.372 125.41C125.549 125.765 125.778 126.049 126.058 126.264C126.347 126.469 126.65 126.572 126.968 126.572C127.201 126.572 127.462 126.521 127.752 126.418C128.041 126.306 128.288 126.077 128.494 125.732L128.564 125.452V122.862C128.368 122.461 128.116 122.199 127.808 122.078C127.5 121.947 127.22 121.882 126.968 121.882C126.65 121.882 126.347 121.985 126.058 122.19C125.778 122.395 125.549 122.68 125.372 123.044C125.204 123.399 125.12 123.795 125.12 124.234ZM138.718 127.594C138.363 127.809 137.948 127.967 137.472 128.07C137.005 128.173 136.552 128.224 136.114 128.224C134.62 128.224 133.486 127.869 132.712 127.16C131.946 126.451 131.564 125.457 131.564 124.178C131.564 122.909 131.904 121.938 132.586 121.266C133.276 120.585 134.214 120.244 135.4 120.244C136.576 120.244 137.504 120.585 138.186 121.266C138.876 121.938 139.222 122.909 139.222 124.178C139.222 124.318 139.212 124.519 139.194 124.78H133.748C133.953 125.984 134.742 126.586 136.114 126.586C137.075 126.586 137.943 126.301 138.718 125.732V127.594ZM137.108 123.212C136.986 122.745 136.776 122.4 136.478 122.176C136.179 121.952 135.82 121.84 135.4 121.84C135.008 121.84 134.672 121.957 134.392 122.19C134.121 122.423 133.93 122.764 133.818 123.212H137.108ZM142.769 120.44V128H140.529V120.44H142.769ZM140.529 117.234H142.769V119.474H140.529V117.234ZM146.593 120.412V121.322C146.939 121.023 147.331 120.79 147.769 120.622C148.217 120.454 148.661 120.37 149.099 120.37C149.818 120.37 150.387 120.58 150.807 121C151.237 121.42 151.451 121.966 151.451 122.638V127.972H149.211V123.016C149.211 122.745 149.099 122.526 148.875 122.358C148.651 122.181 148.385 122.092 148.077 122.092C147.881 122.092 147.634 122.157 147.335 122.288C147.046 122.419 146.799 122.577 146.593 122.764V127.972H144.353V120.412H146.593ZM156.189 131.192C155.62 131.192 155.046 131.155 154.467 131.08C153.898 131.005 153.385 130.898 152.927 130.758V128.924C153.926 129.148 154.925 129.26 155.923 129.26C156.558 129.26 157.039 129.12 157.365 128.84C157.692 128.56 157.855 128.173 157.855 127.678C157.342 128.014 156.731 128.182 156.021 128.182C155.331 128.182 154.724 128.014 154.201 127.678C153.679 127.342 153.277 126.88 152.997 126.292C152.717 125.695 152.577 125.009 152.577 124.234C152.577 123.459 152.717 122.773 152.997 122.176C153.287 121.569 153.688 121.098 154.201 120.762C154.724 120.426 155.331 120.258 156.021 120.258C156.665 120.258 157.277 120.473 157.855 120.902V120.44H160.039V127.972C160.039 130.119 158.756 131.192 156.189 131.192ZM154.719 124.234C154.719 124.663 154.803 125.055 154.971 125.41C155.149 125.765 155.377 126.049 155.657 126.264C155.947 126.469 156.25 126.572 156.567 126.572C156.801 126.572 157.062 126.521 157.351 126.418C157.641 126.306 157.888 126.077 158.093 125.732L158.163 125.452V122.862C157.967 122.461 157.715 122.199 157.407 122.078C157.099 121.947 156.819 121.882 156.567 121.882C156.25 121.882 155.947 121.985 155.657 122.19C155.377 122.395 155.149 122.68 154.971 123.044C154.803 123.399 154.719 123.795 154.719 124.234ZM66.4363 148.182C65.7456 148.182 65.1389 148.019 64.6163 147.692C64.0936 147.356 63.6923 146.889 63.4123 146.292C63.1323 145.695 62.9923 145.013 62.9923 144.248C62.9923 143.473 63.1323 142.787 63.4123 142.19C63.7016 141.583 64.1029 141.112 64.6163 140.776C65.1389 140.44 65.7456 140.272 66.4363 140.272C66.7536 140.272 67.0709 140.328 67.3883 140.44C67.7149 140.552 68.0183 140.715 68.2983 140.93V137.234H70.5383V146.25C70.5383 146.997 70.6316 147.58 70.8183 148H68.7183C68.6529 147.869 68.5969 147.701 68.5503 147.496C67.9623 147.953 67.2576 148.182 66.4363 148.182ZM65.1343 144.248C65.1343 144.677 65.2183 145.069 65.3863 145.424C65.5636 145.779 65.7923 146.063 66.0723 146.278C66.3616 146.483 66.6649 146.586 66.9823 146.586C67.2343 146.586 67.5096 146.525 67.8083 146.404C68.1163 146.283 68.3683 146.031 68.5643 145.648V142.834C68.3683 142.442 68.1163 142.185 67.8083 142.064C67.5096 141.943 67.2343 141.882 66.9823 141.882C66.6649 141.882 66.3616 141.985 66.0723 142.19C65.7923 142.395 65.5636 142.68 65.3863 143.044C65.2183 143.408 65.1343 143.809 65.1343 144.248ZM74.3622 140.44V148H72.1222V140.44H74.3622ZM72.1222 137.234H74.3622V139.474H72.1222V137.234ZM79.1661 148.182C78.4568 148.182 77.8361 148.014 77.3041 147.678C76.7814 147.342 76.3754 146.88 76.0861 146.292C75.8061 145.704 75.6661 145.018 75.6661 144.234C75.6661 143.459 75.8061 142.773 76.0861 142.176C76.3754 141.569 76.7768 141.098 77.2901 140.762C77.8128 140.426 78.4194 140.258 79.1101 140.258C79.4274 140.258 79.7448 140.319 80.0621 140.44C80.3888 140.552 80.6921 140.711 80.9721 140.916V140.44H83.2121V146.236C83.2121 146.992 83.3054 147.58 83.4921 148H81.3921C81.3268 147.869 81.2708 147.701 81.2241 147.496C80.6454 147.953 79.9594 148.182 79.1661 148.182ZM77.8081 144.234C77.8081 144.663 77.8921 145.055 78.0601 145.41C78.2374 145.765 78.4661 146.049 78.7461 146.264C79.0354 146.469 79.3388 146.572 79.6561 146.572C79.8801 146.572 80.1321 146.525 80.4121 146.432C80.6921 146.329 80.9348 146.115 81.1401 145.788V142.652C80.9348 142.325 80.6921 142.115 80.4121 142.022C80.1414 141.929 79.8894 141.882 79.6561 141.882C79.3388 141.882 79.0354 141.985 78.7461 142.19C78.4661 142.395 78.2374 142.68 78.0601 143.044C77.8921 143.399 77.8081 143.795 77.8081 144.234ZM87.1621 148.112C86.3221 148.112 85.6874 147.879 85.2581 147.412C84.8287 146.936 84.6141 146.241 84.6141 145.326V137.234H86.8541V144.766C86.8541 145.139 86.8821 145.424 86.9381 145.62C86.9941 145.816 87.0874 145.965 87.2181 146.068C87.3207 146.152 87.4327 146.208 87.5541 146.236C87.6847 146.255 87.9087 146.264 88.2261 146.264V148.112H87.1621ZM92.7671 148.182C91.9738 148.182 91.2738 148.019 90.6671 147.692C90.0698 147.365 89.6078 146.903 89.2811 146.306C88.9544 145.699 88.7911 144.985 88.7911 144.164C88.7911 142.904 89.1458 141.938 89.8551 141.266C90.5644 140.594 91.5351 140.258 92.7671 140.258C93.9898 140.258 94.9558 140.594 95.6651 141.266C96.3744 141.938 96.7291 142.904 96.7291 144.164C96.7291 144.985 96.5658 145.699 96.2391 146.306C95.9124 146.903 95.4504 147.365 94.8531 147.692C94.2558 148.019 93.5604 148.182 92.7671 148.182ZM91.0031 144.164C91.0031 144.883 91.1664 145.461 91.4931 145.9C91.8198 146.339 92.2444 146.558 92.7671 146.558C93.2898 146.558 93.7098 146.339 94.0271 145.9C94.3538 145.461 94.5171 144.883 94.5171 144.164C94.5171 143.417 94.3584 142.853 94.0411 142.47C93.7331 142.078 93.3084 141.882 92.7671 141.882C92.2258 141.882 91.7964 142.078 91.4791 142.47C91.1618 142.853 91.0031 143.417 91.0031 144.164ZM101.18 151.192C100.611 151.192 100.037 151.155 99.4584 151.08C98.8891 151.005 98.3758 150.898 97.9184 150.758V148.924C98.9171 149.148 99.9158 149.26 100.914 149.26C101.549 149.26 102.03 149.12 102.356 148.84C102.683 148.56 102.846 148.173 102.846 147.678C102.333 148.014 101.722 148.182 101.012 148.182C100.322 148.182 99.7151 148.014 99.1924 147.678C98.6698 147.342 98.2684 146.88 97.9884 146.292C97.7084 145.695 97.5684 145.009 97.5684 144.234C97.5684 143.459 97.7084 142.773 97.9884 142.176C98.2778 141.569 98.6791 141.098 99.1924 140.762C99.7151 140.426 100.322 140.258 101.012 140.258C101.656 140.258 102.268 140.473 102.846 140.902V140.44H105.03V147.972C105.03 150.119 103.747 151.192 101.18 151.192ZM99.7104 144.234C99.7104 144.663 99.7944 145.055 99.9624 145.41C100.14 145.765 100.368 146.049 100.648 146.264C100.938 146.469 101.241 146.572 101.558 146.572C101.792 146.572 102.053 146.521 102.342 146.418C102.632 146.306 102.879 146.077 103.084 145.732L103.154 145.452V142.862C102.958 142.461 102.706 142.199 102.398 142.078C102.09 141.947 101.81 141.882 101.558 141.882C101.241 141.882 100.938 141.985 100.648 142.19C100.368 142.395 100.14 142.68 99.9624 143.044C99.7944 143.399 99.7104 143.795 99.7104 144.234ZM111.698 148.014C111.549 147.734 111.46 147.435 111.432 147.118C111.087 147.426 110.672 147.683 110.186 147.888C109.71 148.084 109.239 148.182 108.772 148.182C108.054 148.182 107.48 147.972 107.05 147.552C106.63 147.132 106.42 146.591 106.42 145.928V140.44H108.66V145.55C108.66 145.821 108.749 146.045 108.926 146.222C109.113 146.39 109.356 146.474 109.654 146.474C109.85 146.474 110.112 146.404 110.438 146.264C110.774 146.124 111.054 145.97 111.278 145.802V140.44H113.518V146.558C113.518 146.866 113.537 147.127 113.574 147.342C113.612 147.547 113.686 147.771 113.798 148.014H111.698ZM121.799 147.594C121.444 147.809 121.029 147.967 120.553 148.07C120.086 148.173 119.633 148.224 119.195 148.224C117.701 148.224 116.567 147.869 115.793 147.16C115.027 146.451 114.645 145.457 114.645 144.178C114.645 142.909 114.985 141.938 115.667 141.266C116.357 140.585 117.295 140.244 118.481 140.244C119.657 140.244 120.585 140.585 121.267 141.266C121.957 141.938 122.303 142.909 122.303 144.178C122.303 144.318 122.293 144.519 122.275 144.78H116.829C117.034 145.984 117.823 146.586 119.195 146.586C120.156 146.586 121.024 146.301 121.799 145.732V147.594ZM120.189 143.212C120.067 142.745 119.857 142.4 119.559 142.176C119.26 141.952 118.901 141.84 118.481 141.84C118.089 141.84 117.753 141.957 117.473 142.19C117.202 142.423 117.011 142.764 116.899 143.212H120.189ZM126.467 148.168C125.897 148.196 125.319 148.149 124.731 148.028C124.152 147.916 123.648 147.739 123.219 147.496V145.48C123.601 145.76 124.059 145.993 124.591 146.18C125.132 146.357 125.608 146.432 126.019 146.404C126.308 146.385 126.518 146.325 126.649 146.222C126.779 146.11 126.854 145.998 126.873 145.886C126.919 145.597 126.849 145.377 126.663 145.228C126.476 145.079 126.126 144.934 125.613 144.794C125.043 144.635 124.591 144.453 124.255 144.248C123.919 144.033 123.662 143.795 123.485 143.534C123.317 143.263 123.233 142.923 123.233 142.512C123.233 142.083 123.345 141.7 123.569 141.364C123.793 141.019 124.147 140.748 124.633 140.552C125.118 140.356 125.641 140.258 126.201 140.258C126.621 140.258 127.045 140.3 127.475 140.384C127.904 140.459 128.263 140.561 128.553 140.692V142.498C128.254 142.349 127.899 142.218 127.489 142.106C127.087 141.985 126.737 141.924 126.439 141.924C125.804 141.924 125.459 142.092 125.403 142.428C125.375 142.624 125.463 142.797 125.669 142.946C125.883 143.095 126.187 143.231 126.579 143.352C127.139 143.529 127.596 143.711 127.951 143.898C128.315 144.085 128.599 144.327 128.805 144.626C129.01 144.925 129.113 145.307 129.113 145.774C129.113 146.465 128.865 147.029 128.371 147.468C127.876 147.897 127.241 148.131 126.467 148.168Z" fill="#821E98"/>
<rect x="48.5325" y="171" width="96.039" height="25" rx="12.5" fill="#E2DCDC"/>
<rect x="48.5325" y="167" width="96.039" height="25" rx="12.5" fill="#F5F1F1"/>
<path d="M77.188 185.12C76.428 185.12 75.776 184.996 75.232 184.748C74.696 184.5 74.276 184.136 73.972 183.656C73.676 183.176 73.512 182.58 73.48 181.868C73.472 181.54 73.468 181.188 73.468 180.812C73.468 180.436 73.472 180.076 73.48 179.732C73.512 179.036 73.68 178.448 73.984 177.968C74.288 177.48 74.712 177.112 75.256 176.864C75.8 176.608 76.444 176.48 77.188 176.48C77.716 176.48 78.204 176.548 78.652 176.684C79.1 176.812 79.492 177.004 79.828 177.26C80.164 177.508 80.424 177.812 80.608 178.172C80.8 178.524 80.9 178.924 80.908 179.372C80.916 179.444 80.892 179.504 80.836 179.552C80.788 179.6 80.728 179.624 80.656 179.624H79.036C78.932 179.624 78.852 179.604 78.796 179.564C78.74 179.516 78.692 179.432 78.652 179.312C78.54 178.888 78.356 178.6 78.1 178.448C77.852 178.288 77.544 178.208 77.176 178.208C76.736 178.208 76.388 178.332 76.132 178.58C75.876 178.82 75.736 179.224 75.712 179.792C75.688 180.448 75.688 181.12 75.712 181.808C75.736 182.376 75.876 182.784 76.132 183.032C76.388 183.272 76.736 183.392 77.176 183.392C77.544 183.392 77.856 183.312 78.112 183.152C78.368 182.992 78.548 182.704 78.652 182.288C78.684 182.168 78.728 182.088 78.784 182.048C78.848 182 78.932 181.976 79.036 181.976H80.656C80.728 181.976 80.788 182 80.836 182.048C80.892 182.096 80.916 182.156 80.908 182.228C80.9 182.676 80.8 183.08 80.608 183.44C80.424 183.792 80.164 184.096 79.828 184.352C79.492 184.6 79.1 184.792 78.652 184.928C78.204 185.056 77.716 185.12 77.188 185.12ZM85.6018 185.12C84.8658 185.12 84.2258 185 83.6818 184.76C83.1378 184.52 82.7138 184.16 82.4098 183.68C82.1058 183.192 81.9378 182.584 81.9058 181.856C81.8978 181.512 81.8938 181.168 81.8938 180.824C81.8938 180.48 81.8978 180.132 81.9058 179.78C81.9378 179.06 82.1058 178.456 82.4098 177.968C82.7218 177.472 83.1498 177.1 83.6938 176.852C84.2378 176.604 84.8738 176.48 85.6018 176.48C86.3218 176.48 86.9538 176.604 87.4978 176.852C88.0498 177.1 88.4818 177.472 88.7938 177.968C89.1058 178.456 89.2738 179.06 89.2978 179.78C89.3138 180.132 89.3218 180.48 89.3218 180.824C89.3218 181.168 89.3138 181.512 89.2978 181.856C89.2658 182.584 89.0978 183.192 88.7938 183.68C88.4898 184.16 88.0658 184.52 87.5218 184.76C86.9778 185 86.3378 185.12 85.6018 185.12ZM85.6018 183.392C86.0258 183.392 86.3698 183.264 86.6338 183.008C86.9058 182.752 87.0498 182.344 87.0658 181.784C87.0818 181.432 87.0898 181.1 87.0898 180.788C87.0898 180.476 87.0818 180.152 87.0658 179.816C87.0498 179.44 86.9778 179.136 86.8498 178.904C86.7298 178.664 86.5618 178.488 86.3458 178.376C86.1298 178.264 85.8818 178.208 85.6018 178.208C85.3298 178.208 85.0858 178.264 84.8698 178.376C84.6538 178.488 84.4818 178.664 84.3538 178.904C84.2258 179.136 84.1538 179.44 84.1378 179.816C84.1298 180.152 84.1258 180.476 84.1258 180.788C84.1258 181.1 84.1298 181.432 84.1378 181.784C84.1618 182.344 84.3058 182.752 84.5698 183.008C84.8338 183.264 85.1778 183.392 85.6018 183.392ZM91.0127 185C90.9327 185 90.8607 184.972 90.7967 184.916C90.7407 184.86 90.7127 184.788 90.7127 184.7V176.9C90.7127 176.812 90.7407 176.74 90.7967 176.684C90.8607 176.628 90.9327 176.6 91.0127 176.6H92.3087C92.4367 176.6 92.5327 176.636 92.5967 176.708C92.6687 176.772 92.7127 176.824 92.7287 176.864L94.8407 180.656L96.9527 176.864C96.9767 176.824 97.0167 176.772 97.0727 176.708C97.1367 176.636 97.2367 176.6 97.3727 176.6H98.6567C98.7447 176.6 98.8167 176.628 98.8727 176.684C98.9367 176.74 98.9687 176.812 98.9687 176.9V184.7C98.9687 184.788 98.9367 184.86 98.8727 184.916C98.8167 184.972 98.7447 185 98.6567 185H97.2287C97.1407 185 97.0647 184.972 97.0007 184.916C96.9447 184.86 96.9167 184.788 96.9167 184.7V180.2L95.5607 182.708C95.5287 182.78 95.4807 182.844 95.4167 182.9C95.3527 182.956 95.2647 182.984 95.1527 182.984H94.5287C94.4167 182.984 94.3287 182.956 94.2647 182.9C94.2007 182.844 94.1487 182.78 94.1087 182.708L92.7527 180.2V184.7C92.7527 184.788 92.7247 184.86 92.6687 184.916C92.6127 184.972 92.5407 185 92.4527 185H91.0127ZM100.939 185C100.851 185 100.779 184.972 100.723 184.916C100.667 184.86 100.639 184.788 100.639 184.7V176.9C100.639 176.812 100.667 176.74 100.723 176.684C100.779 176.628 100.851 176.6 100.939 176.6H102.547C102.635 176.6 102.707 176.628 102.763 176.684C102.819 176.74 102.847 176.812 102.847 176.9V184.7C102.847 184.788 102.819 184.86 102.763 184.916C102.707 184.972 102.635 185 102.547 185H100.939ZM104.829 185C104.741 185 104.669 184.972 104.613 184.916C104.557 184.86 104.529 184.788 104.529 184.7V176.9C104.529 176.812 104.557 176.74 104.613 176.684C104.669 176.628 104.741 176.6 104.829 176.6H106.101C106.237 176.6 106.333 176.632 106.389 176.696C106.453 176.752 106.493 176.796 106.509 176.828L109.437 181.448V176.9C109.437 176.812 109.465 176.74 109.521 176.684C109.577 176.628 109.649 176.6 109.737 176.6H111.177C111.265 176.6 111.337 176.628 111.393 176.684C111.449 176.74 111.477 176.812 111.477 176.9V184.7C111.477 184.78 111.449 184.852 111.393 184.916C111.337 184.972 111.265 185 111.177 185H109.893C109.765 185 109.669 184.968 109.605 184.904C109.549 184.84 109.513 184.796 109.497 184.772L106.569 180.332V184.7C106.569 184.788 106.541 184.86 106.485 184.916C106.429 184.972 106.357 185 106.269 185H104.829ZM116.622 185.12C115.862 185.12 115.206 184.996 114.654 184.748C114.11 184.492 113.686 184.124 113.382 183.644C113.086 183.156 112.922 182.564 112.89 181.868C112.882 181.524 112.878 181.16 112.878 180.776C112.878 180.384 112.882 180.012 112.89 179.66C112.922 178.98 113.09 178.404 113.394 177.932C113.698 177.46 114.126 177.1 114.678 176.852C115.23 176.604 115.878 176.48 116.622 176.48C117.222 176.48 117.754 176.556 118.218 176.708C118.682 176.852 119.07 177.048 119.382 177.296C119.702 177.544 119.942 177.816 120.102 178.112C120.27 178.408 120.358 178.7 120.366 178.988C120.374 179.06 120.35 179.12 120.294 179.168C120.246 179.216 120.186 179.24 120.114 179.24H118.362C118.274 179.24 118.206 179.228 118.158 179.204C118.118 179.172 118.082 179.128 118.05 179.072C117.994 178.952 117.91 178.828 117.798 178.7C117.694 178.564 117.546 178.448 117.354 178.352C117.17 178.256 116.926 178.208 116.622 178.208C116.166 178.208 115.806 178.328 115.542 178.568C115.286 178.808 115.146 179.192 115.122 179.72C115.098 180.408 115.098 181.104 115.122 181.808C115.146 182.368 115.294 182.772 115.566 183.02C115.838 183.268 116.198 183.392 116.646 183.392C116.95 183.392 117.218 183.34 117.45 183.236C117.69 183.132 117.878 182.972 118.014 182.756C118.15 182.532 118.218 182.248 118.218 181.904V181.676H117.09C117.002 181.676 116.926 181.648 116.862 181.592C116.806 181.528 116.778 181.452 116.778 181.364V180.476C116.778 180.388 116.806 180.316 116.862 180.26C116.926 180.196 117.002 180.164 117.09 180.164H120.114C120.202 180.164 120.274 180.196 120.33 180.26C120.386 180.316 120.414 180.388 120.414 180.476V181.844C120.414 182.532 120.258 183.12 119.946 183.608C119.634 184.096 119.19 184.472 118.614 184.736C118.046 184.992 117.382 185.12 116.622 185.12Z" fill="#737373"/>
<defs>
<filter id="filter0_d_196_706" x="0.3" y="0.3" width="191.4" height="230.4" filterUnits="userSpaceOnUse" color-interpolation-filters="sRGB">
<feFlood flood-opacity="0" result="BackgroundImageFix"/>
<feColorMatrix in="SourceAlpha" type="matrix" values="0 0 0 0 0 0 0 0 0 0 0 0 0 0 0 0 0 0 127 0" result="hardAlpha"/>
<feOffset dy="4"/>
<feGaussianBlur stdDeviation="5.35"/>
<feComposite in2="hardAlpha" operator="out"/>
<feColorMatrix type="matrix" values="0 0 0 0 0 0 0 0 0 0 0 0 0 0 0 0 0 0 0.15 0"/>
<feBlend mode="normal" in2="BackgroundImageFix" result="effect1_dropShadow_196_706"/>
<feBlend mode="normal" in="SourceGraphic" in2="effect1_dropShadow_196_706" result="shape"/>
</filter>
<filter id="filter1_d_196_706" x="0.3" y="0.3" width="191.4" height="230.4" filterUnits="userSpaceOnUse" color-interpolation-filters="sRGB">
<feFlood flood-opacity="0" result="BackgroundImageFix"/>
<feColorMatrix in="SourceAlpha" type="matrix" values="0 0 0 0 0 0 0 0 0 0 0 0 0 0 0 0 0 0 127 0" result="hardAlpha"/>
<feOffset dy="4"/>
<feGaussianBlur stdDeviation="5.35"/>
<feComposite in2="hardAlpha" operator="out"/>
<feColorMatrix type="matrix" values="0 0 0 0 0 0 0 0 0 0 0 0 0 0 0 0 0 0 0.15 0"/>
<feBlend mode="normal" in2="BackgroundImageFix" result="effect1_dropShadow_196_706"/>
<feBlend mode="normal" in="SourceGraphic" in2="effect1_dropShadow_196_706" result="shape"/>
</filter>
<filter id="filter2_f_196_706" x="58.5841" y="19.0096" width="77.9488" height="49.8027" filterUnits="userSpaceOnUse" color-interpolation-filters="sRGB">
<feFlood flood-opacity="0" result="BackgroundImageFix"/>
<feBlend mode="normal" in="SourceGraphic" in2="BackgroundImageFix" result="shape"/>
<feGaussianBlur stdDeviation="4.95" result="effect1_foregroundBlur_196_706"/>
</filter>
<linearGradient id="paint0_linear_196_706" x1="36.9416" y1="3.38461" x2="176.22" y2="93.7294" gradientUnits="userSpaceOnUse">
<stop stop-color="#901CEF"/>
<stop offset="1" stop-color="#B149BB"/>
</linearGradient>
</defs>
</svg>



