<svg width="362" height="110" viewBox="0 0 362 110" fill="none" xmlns="http://www.w3.org/2000/svg">
<g filter="url(#filter0_d_733_3172)">
<path d="M11 51C11 32.2354 11 22.8531 15.9595 16.3897C17.2363 14.7258 18.7258 13.2363 20.3897 11.9595C26.8531 7 36.2354 7 55 7H307C325.765 7 335.147 7 341.61 11.9595C343.274 13.2363 344.764 14.7258 346.04 16.3897C351 22.8531 351 32.2354 351 51V51C351 69.7646 351 79.1469 346.04 85.6103C344.764 87.2742 343.274 88.7637 341.61 90.0405C335.147 95 325.765 95 307 95H55C36.2354 95 26.8531 95 20.3897 90.0405C18.7258 88.7637 17.2363 87.2742 15.9595 85.6103C11 79.1469 11 69.7646 11 51V51Z" fill="white"/>
</g>
<path d="M102.76 62.988C102.832 62.996 102.936 63 103.072 63C103.392 63 103.636 62.94 103.804 62.82C103.98 62.692 104.1 62.504 104.164 62.256C104.228 62.008 104.26 61.672 104.26 61.248V54.6H106.24V61.68C106.24 63.776 105.08 64.784 102.76 64.704V62.988ZM110.729 63.156C110.049 63.156 109.449 63.016 108.929 62.736C108.417 62.456 108.021 62.06 107.741 61.548C107.461 61.028 107.321 60.416 107.321 59.712C107.321 58.632 107.625 57.804 108.233 57.228C108.841 56.652 109.673 56.364 110.729 56.364C111.777 56.364 112.605 56.652 113.213 57.228C113.821 57.804 114.125 58.632 114.125 59.712C114.125 60.416 113.985 61.028 113.705 61.548C113.425 62.06 113.029 62.456 112.517 62.736C112.005 63.016 111.409 63.156 110.729 63.156ZM109.217 59.712C109.217 60.328 109.357 60.824 109.637 61.2C109.917 61.576 110.281 61.764 110.729 61.764C111.177 61.764 111.537 61.576 111.809 61.2C112.089 60.824 112.229 60.328 112.229 59.712C112.229 59.072 112.093 58.588 111.821 58.26C111.557 57.924 111.193 57.756 110.729 57.756C110.265 57.756 109.897 57.924 109.625 58.26C109.353 58.588 109.217 59.072 109.217 59.712ZM117.16 56.52V63H115.24V56.52H117.16ZM115.24 53.772H117.16V55.692H115.24V53.772ZM120.438 56.496V57.276C120.734 57.02 121.07 56.82 121.446 56.676C121.83 56.532 122.21 56.46 122.586 56.46C123.202 56.46 123.69 56.64 124.05 57C124.418 57.36 124.602 57.828 124.602 58.404V62.976H122.682V58.728C122.682 58.496 122.586 58.308 122.394 58.164C122.202 58.012 121.974 57.936 121.71 57.936C121.542 57.936 121.33 57.992 121.074 58.104C120.826 58.216 120.614 58.352 120.438 58.512V62.976H118.518V56.496H120.438ZM129.428 56.52V54.672H131.228V56.52H132.476V57.984H131.228V60.768C131.228 61 131.244 61.176 131.276 61.296C131.316 61.416 131.384 61.5 131.48 61.548C131.576 61.588 131.716 61.608 131.9 61.608C132.02 61.608 132.12 61.604 132.2 61.596C132.288 61.588 132.364 61.576 132.428 61.56V63.036C132.092 63.076 131.78 63.096 131.492 63.096C130.94 63.096 130.528 63.04 130.256 62.928C129.984 62.816 129.776 62.624 129.632 62.352C129.496 62.072 129.428 61.676 129.428 61.164V57.984H128.492V56.52H129.428ZM136.487 63.156C135.807 63.156 135.207 63.016 134.687 62.736C134.175 62.456 133.779 62.06 133.499 61.548C133.219 61.028 133.079 60.416 133.079 59.712C133.079 58.632 133.383 57.804 133.991 57.228C134.599 56.652 135.431 56.364 136.487 56.364C137.535 56.364 138.363 56.652 138.971 57.228C139.579 57.804 139.883 58.632 139.883 59.712C139.883 60.416 139.743 61.028 139.463 61.548C139.183 62.06 138.787 62.456 138.275 62.736C137.763 63.016 137.167 63.156 136.487 63.156ZM134.975 59.712C134.975 60.328 135.115 60.824 135.395 61.2C135.675 61.576 136.039 61.764 136.487 61.764C136.935 61.764 137.295 61.576 137.567 61.2C137.847 60.824 137.987 60.328 137.987 59.712C137.987 59.072 137.851 58.588 137.579 58.26C137.315 57.924 136.951 57.756 136.487 57.756C136.023 57.756 135.655 57.924 135.383 58.26C135.111 58.588 134.975 59.072 134.975 59.712ZM146.815 65.736C146.327 65.736 145.835 65.704 145.339 65.64C144.851 65.576 144.411 65.484 144.019 65.364V63.792C144.875 63.984 145.731 64.08 146.587 64.08C147.131 64.08 147.543 63.96 147.823 63.72C148.103 63.48 148.243 63.148 148.243 62.724C147.803 63.012 147.279 63.156 146.671 63.156C146.079 63.156 145.559 63.012 145.111 62.724C144.663 62.436 144.319 62.04 144.079 61.536C143.839 61.024 143.719 60.436 143.719 59.772C143.719 59.108 143.839 58.52 144.079 58.008C144.327 57.488 144.671 57.084 145.111 56.796C145.559 56.508 146.079 56.364 146.671 56.364C147.223 56.364 147.747 56.548 148.243 56.916V56.52H150.115V62.976C150.115 64.816 149.015 65.736 146.815 65.736ZM145.555 59.772C145.555 60.14 145.627 60.476 145.771 60.78C145.923 61.084 146.119 61.328 146.359 61.512C146.607 61.688 146.867 61.776 147.139 61.776C147.339 61.776 147.563 61.732 147.811 61.644C148.059 61.548 148.271 61.352 148.447 61.056L148.507 60.816V58.596C148.339 58.252 148.123 58.028 147.859 57.924C147.595 57.812 147.355 57.756 147.139 57.756C146.867 57.756 146.607 57.844 146.359 58.02C146.119 58.196 145.923 58.44 145.771 58.752C145.627 59.056 145.555 59.396 145.555 59.772ZM157.211 62.652C156.907 62.836 156.551 62.972 156.143 63.06C155.743 63.148 155.355 63.192 154.979 63.192C153.699 63.192 152.727 62.888 152.063 62.28C151.407 61.672 151.079 60.82 151.079 59.724C151.079 58.636 151.371 57.804 151.955 57.228C152.547 56.644 153.351 56.352 154.367 56.352C155.375 56.352 156.171 56.644 156.755 57.228C157.347 57.804 157.643 58.636 157.643 59.724C157.643 59.844 157.635 60.016 157.619 60.24H152.951C153.127 61.272 153.803 61.788 154.979 61.788C155.803 61.788 156.547 61.544 157.211 61.056V62.652ZM155.831 58.896C155.727 58.496 155.547 58.2 155.291 58.008C155.035 57.816 154.727 57.72 154.367 57.72C154.031 57.72 153.743 57.82 153.503 58.02C153.271 58.22 153.107 58.512 153.011 58.896H155.831ZM159.112 56.52V54.672H160.912V56.52H162.16V57.984H160.912V60.768C160.912 61 160.928 61.176 160.96 61.296C161 61.416 161.068 61.5 161.164 61.548C161.26 61.588 161.4 61.608 161.584 61.608C161.704 61.608 161.804 61.604 161.884 61.596C161.972 61.588 162.048 61.576 162.112 61.56V63.036C161.776 63.076 161.464 63.096 161.176 63.096C160.624 63.096 160.212 63.04 159.94 62.928C159.668 62.816 159.46 62.624 159.316 62.352C159.18 62.072 159.112 61.676 159.112 61.164V57.984H158.176V56.52H159.112ZM172.012 62.652C171.708 62.836 171.352 62.972 170.944 63.06C170.544 63.148 170.156 63.192 169.78 63.192C168.5 63.192 167.528 62.888 166.864 62.28C166.208 61.672 165.88 60.82 165.88 59.724C165.88 58.636 166.172 57.804 166.756 57.228C167.348 56.644 168.152 56.352 169.168 56.352C170.176 56.352 170.972 56.644 171.556 57.228C172.148 57.804 172.444 58.636 172.444 59.724C172.444 59.844 172.436 60.016 172.42 60.24H167.752C167.928 61.272 168.604 61.788 169.78 61.788C170.604 61.788 171.348 61.544 172.012 61.056V62.652ZM170.632 58.896C170.528 58.496 170.348 58.2 170.092 58.008C169.836 57.816 169.528 57.72 169.168 57.72C168.832 57.72 168.544 57.82 168.304 58.02C168.072 58.22 167.908 58.512 167.812 58.896H170.632ZM176.234 60.936H176.186L174.83 63H172.862L175.13 59.784L172.814 56.52H174.758L176.186 58.644H176.234L177.662 56.52H179.606L177.29 59.784L179.558 63H177.59L176.234 60.936ZM180.956 56.52V54.672H182.756V56.52H184.004V57.984H182.756V60.768C182.756 61 182.772 61.176 182.804 61.296C182.844 61.416 182.912 61.5 183.008 61.548C183.104 61.588 183.244 61.608 183.428 61.608C183.548 61.608 183.648 61.604 183.728 61.596C183.816 61.588 183.892 61.576 183.956 61.56V63.036C183.62 63.076 183.308 63.096 183.02 63.096C182.468 63.096 182.056 63.04 181.784 62.928C181.512 62.816 181.304 62.624 181.16 62.352C181.024 62.072 180.956 61.676 180.956 61.164V57.984H180.02V56.52H180.956ZM186.766 56.52V57.216C186.974 56.992 187.222 56.82 187.51 56.7C187.806 56.572 188.098 56.508 188.386 56.508C188.586 56.508 188.774 56.536 188.95 56.592V58.068C188.726 58.012 188.514 57.984 188.314 57.984C188.01 57.984 187.722 58.036 187.45 58.14C187.178 58.236 186.95 58.392 186.766 58.608V63H184.846V56.52H186.766ZM192.27 63.156C191.662 63.156 191.13 63.012 190.674 62.724C190.226 62.436 189.878 62.04 189.63 61.536C189.39 61.032 189.27 60.444 189.27 59.772C189.27 59.108 189.39 58.52 189.63 58.008C189.878 57.488 190.222 57.084 190.662 56.796C191.11 56.508 191.63 56.364 192.222 56.364C192.494 56.364 192.766 56.416 193.038 56.52C193.318 56.616 193.578 56.752 193.818 56.928V56.52H195.738V61.488C195.738 62.136 195.818 62.64 195.978 63H194.178C194.122 62.888 194.074 62.744 194.034 62.568C193.538 62.96 192.95 63.156 192.27 63.156ZM191.106 59.772C191.106 60.14 191.178 60.476 191.322 60.78C191.474 61.084 191.67 61.328 191.91 61.512C192.158 61.688 192.418 61.776 192.69 61.776C192.882 61.776 193.098 61.736 193.338 61.656C193.578 61.568 193.786 61.384 193.962 61.104V58.416C193.786 58.136 193.578 57.956 193.338 57.876C193.106 57.796 192.89 57.756 192.69 57.756C192.418 57.756 192.158 57.844 191.91 58.02C191.67 58.196 191.474 58.44 191.322 58.752C191.178 59.056 191.106 59.396 191.106 59.772ZM201.977 56.52V57.216C202.185 56.992 202.433 56.82 202.721 56.7C203.017 56.572 203.309 56.508 203.597 56.508C203.797 56.508 203.985 56.536 204.161 56.592V58.068C203.937 58.012 203.725 57.984 203.525 57.984C203.221 57.984 202.933 58.036 202.661 58.14C202.389 58.236 202.161 58.392 201.977 58.608V63H200.057V56.52H201.977ZM210.613 62.652C210.309 62.836 209.953 62.972 209.545 63.06C209.145 63.148 208.757 63.192 208.381 63.192C207.101 63.192 206.129 62.888 205.465 62.28C204.809 61.672 204.481 60.82 204.481 59.724C204.481 58.636 204.773 57.804 205.357 57.228C205.949 56.644 206.753 56.352 207.769 56.352C208.777 56.352 209.573 56.644 210.157 57.228C210.749 57.804 211.045 58.636 211.045 59.724C211.045 59.844 211.037 60.016 211.021 60.24H206.353C206.529 61.272 207.205 61.788 208.381 61.788C209.205 61.788 209.949 61.544 210.613 61.056V62.652ZM209.233 58.896C209.129 58.496 208.949 58.2 208.693 58.008C208.437 57.816 208.129 57.72 207.769 57.72C207.433 57.72 207.145 57.82 206.905 58.02C206.673 58.22 206.509 58.512 206.413 58.896H209.233ZM216.597 58.74H216.537L215.661 63H213.393L211.473 56.52H213.369L214.545 61.392H214.593L215.721 56.52H217.437L218.553 61.392H218.601L219.777 56.52H221.673L219.753 63H217.485L216.597 58.74ZM225.094 63.156C224.486 63.156 223.954 63.012 223.498 62.724C223.05 62.436 222.702 62.04 222.454 61.536C222.214 61.032 222.094 60.444 222.094 59.772C222.094 59.108 222.214 58.52 222.454 58.008C222.702 57.488 223.046 57.084 223.486 56.796C223.934 56.508 224.454 56.364 225.046 56.364C225.318 56.364 225.59 56.416 225.862 56.52C226.142 56.616 226.402 56.752 226.642 56.928V56.52H228.562V61.488C228.562 62.136 228.642 62.64 228.802 63H227.002C226.946 62.888 226.898 62.744 226.858 62.568C226.362 62.96 225.774 63.156 225.094 63.156ZM223.93 59.772C223.93 60.14 224.002 60.476 224.146 60.78C224.298 61.084 224.494 61.328 224.734 61.512C224.982 61.688 225.242 61.776 225.514 61.776C225.706 61.776 225.922 61.736 226.162 61.656C226.402 61.568 226.61 61.384 226.786 61.104V58.416C226.61 58.136 226.402 57.956 226.162 57.876C225.93 57.796 225.714 57.756 225.514 57.756C225.242 57.756 224.982 57.844 224.734 58.02C224.494 58.196 224.298 58.44 224.146 58.752C224.002 59.056 223.93 59.396 223.93 59.772ZM231.684 56.52V57.216C231.892 56.992 232.14 56.82 232.428 56.7C232.724 56.572 233.016 56.508 233.304 56.508C233.504 56.508 233.692 56.536 233.868 56.592V58.068C233.644 58.012 233.432 57.984 233.232 57.984C232.928 57.984 232.64 58.036 232.368 58.14C232.096 58.236 231.868 58.392 231.684 58.608V63H229.764V56.52H231.684ZM237.375 63.156C236.783 63.156 236.263 63.016 235.815 62.736C235.367 62.448 235.023 62.048 234.783 61.536C234.543 61.024 234.423 60.44 234.423 59.784C234.423 59.12 234.543 58.532 234.783 58.02C235.031 57.5 235.375 57.096 235.815 56.808C236.263 56.52 236.783 56.376 237.375 56.376C237.647 56.376 237.919 56.424 238.191 56.52C238.471 56.616 238.731 56.756 238.971 56.94V53.772H240.891V61.5C240.891 62.14 240.971 62.64 241.131 63H239.331C239.275 62.888 239.227 62.744 239.187 62.568C238.683 62.96 238.079 63.156 237.375 63.156ZM236.259 59.784C236.259 60.152 236.331 60.488 236.475 60.792C236.627 61.096 236.823 61.34 237.062 61.524C237.311 61.7 237.571 61.788 237.843 61.788C238.059 61.788 238.295 61.736 238.551 61.632C238.815 61.528 239.031 61.312 239.199 60.984V58.572C239.031 58.236 238.815 58.016 238.551 57.912C238.295 57.808 238.059 57.756 237.843 57.756C237.571 57.756 237.311 57.844 237.062 58.02C236.823 58.196 236.627 58.44 236.475 58.752C236.331 59.064 236.259 59.408 236.259 59.784ZM244.696 63.144C244.208 63.168 243.712 63.128 243.208 63.024C242.712 62.928 242.28 62.776 241.912 62.568V60.84C242.24 61.08 242.632 61.28 243.088 61.44C243.552 61.592 243.96 61.656 244.312 61.632C244.56 61.616 244.74 61.564 244.852 61.476C244.964 61.38 245.028 61.284 245.044 61.188C245.084 60.94 245.024 60.752 244.864 60.624C244.704 60.496 244.404 60.372 243.964 60.252C243.476 60.116 243.088 59.96 242.8 59.784C242.512 59.6 242.292 59.396 242.14 59.172C241.996 58.94 241.924 58.648 241.924 58.296C241.924 57.928 242.02 57.6 242.212 57.312C242.404 57.016 242.708 56.784 243.124 56.616C243.54 56.448 243.988 56.364 244.468 56.364C244.828 56.364 245.192 56.4 245.56 56.472C245.928 56.536 246.236 56.624 246.484 56.736V58.284C246.228 58.156 245.924 58.044 245.572 57.948C245.228 57.844 244.928 57.792 244.672 57.792C244.128 57.792 243.832 57.936 243.784 58.224C243.76 58.392 243.836 58.54 244.012 58.668C244.196 58.796 244.456 58.912 244.792 59.016C245.272 59.168 245.664 59.324 245.968 59.484C246.28 59.644 246.524 59.852 246.7 60.108C246.876 60.364 246.964 60.692 246.964 61.092C246.964 61.684 246.752 62.168 246.328 62.544C245.904 62.912 245.36 63.112 244.696 63.144Z" fill="#919191"/>
<path d="M109.912 41.208C108.696 41.208 107.613 40.984 106.664 40.536C105.725 40.088 104.984 39.4373 104.44 38.584C103.907 37.7307 103.64 36.7173 103.64 35.544C103.64 34.3067 103.901 33.2453 104.424 32.36C104.947 31.464 105.677 30.7813 106.616 30.312C107.555 29.832 108.627 29.592 109.832 29.592C110.429 29.592 111.032 29.6507 111.64 29.768C112.248 29.8853 112.749 30.0347 113.144 30.216V32.2C112.067 31.8053 111.064 31.608 110.136 31.608C109.027 31.608 108.125 31.9333 107.432 32.584C106.749 33.2347 106.408 34.2213 106.408 35.544C106.408 36.248 106.579 36.872 106.92 37.416C107.261 37.9493 107.709 38.3653 108.264 38.664C108.819 38.9627 109.416 39.1333 110.056 39.176L110.408 39.192C110.899 39.192 111.384 39.1227 111.864 38.984C112.344 38.8453 112.771 38.6587 113.144 38.424V40.632C112.685 40.8453 112.195 40.9947 111.672 41.08C111.16 41.1653 110.573 41.208 109.912 41.208ZM117.65 41.128C116.69 41.128 115.964 40.8613 115.474 40.328C114.983 39.784 114.738 38.9893 114.738 37.944V28.696H117.298V37.304C117.298 37.7307 117.33 38.056 117.394 38.28C117.458 38.504 117.564 38.6747 117.714 38.792C117.831 38.888 117.959 38.952 118.098 38.984C118.247 39.0053 118.503 39.016 118.866 39.016V41.128H117.65ZM123.511 41.208C122.701 41.208 121.991 41.016 121.383 40.632C120.786 40.248 120.322 39.72 119.991 39.048C119.671 38.376 119.511 37.592 119.511 36.696C119.511 35.8107 119.671 35.0267 119.991 34.344C120.322 33.6507 120.781 33.112 121.367 32.728C121.965 32.344 122.658 32.152 123.447 32.152C123.81 32.152 124.173 32.2213 124.535 32.36C124.909 32.488 125.255 32.6693 125.575 32.904V32.36H128.135V38.984C128.135 39.848 128.242 40.52 128.455 41H126.055C125.981 40.8507 125.917 40.6587 125.863 40.424C125.202 40.9467 124.418 41.208 123.511 41.208ZM121.959 36.696C121.959 37.1867 122.055 37.6347 122.247 38.04C122.45 38.4453 122.711 38.7707 123.031 39.016C123.362 39.2507 123.709 39.368 124.071 39.368C124.327 39.368 124.615 39.3147 124.935 39.208C125.255 39.0907 125.533 38.8453 125.767 38.472V34.888C125.533 34.5147 125.255 34.2747 124.935 34.168C124.626 34.0613 124.338 34.008 124.071 34.008C123.709 34.008 123.362 34.1253 123.031 34.36C122.711 34.5947 122.45 34.92 122.247 35.336C122.055 35.7413 121.959 36.1947 121.959 36.696ZM133.21 41.192C132.559 41.224 131.898 41.1707 131.226 41.032C130.564 40.904 129.988 40.7013 129.498 40.424V38.12C129.935 38.44 130.458 38.7067 131.066 38.92C131.684 39.1227 132.228 39.208 132.698 39.176C133.028 39.1547 133.268 39.0853 133.418 38.968C133.567 38.84 133.652 38.712 133.674 38.584C133.727 38.2533 133.647 38.0027 133.434 37.832C133.22 37.6613 132.82 37.496 132.234 37.336C131.583 37.1547 131.066 36.9467 130.682 36.712C130.298 36.4667 130.004 36.1947 129.802 35.896C129.61 35.5867 129.514 35.1973 129.514 34.728C129.514 34.2373 129.642 33.8 129.898 33.416C130.154 33.0213 130.559 32.712 131.114 32.488C131.668 32.264 132.266 32.152 132.906 32.152C133.386 32.152 133.871 32.2 134.362 32.296C134.852 32.3813 135.263 32.4987 135.594 32.648V34.712C135.252 34.5413 134.847 34.392 134.378 34.264C133.919 34.1253 133.519 34.056 133.178 34.056C132.452 34.056 132.058 34.248 131.994 34.632C131.962 34.856 132.063 35.0533 132.298 35.224C132.543 35.3947 132.89 35.5493 133.338 35.688C133.978 35.8907 134.5 36.0987 134.906 36.312C135.322 36.5253 135.647 36.8027 135.882 37.144C136.116 37.4853 136.234 37.9227 136.234 38.456C136.234 39.2453 135.951 39.8907 135.386 40.392C134.82 40.8827 134.095 41.1493 133.21 41.192ZM140.866 41.192C140.215 41.224 139.554 41.1707 138.882 41.032C138.22 40.904 137.644 40.7013 137.154 40.424V38.12C137.591 38.44 138.114 38.7067 138.722 38.92C139.34 39.1227 139.884 39.208 140.354 39.176C140.684 39.1547 140.924 39.0853 141.074 38.968C141.223 38.84 141.308 38.712 141.33 38.584C141.383 38.2533 141.303 38.0027 141.09 37.832C140.876 37.6613 140.476 37.496 139.89 37.336C139.239 37.1547 138.722 36.9467 138.338 36.712C137.954 36.4667 137.66 36.1947 137.458 35.896C137.266 35.5867 137.17 35.1973 137.17 34.728C137.17 34.2373 137.298 33.8 137.554 33.416C137.81 33.0213 138.215 32.712 138.77 32.488C139.324 32.264 139.922 32.152 140.562 32.152C141.042 32.152 141.527 32.2 142.018 32.296C142.508 32.3813 142.919 32.4987 143.25 32.648V34.712C142.908 34.5413 142.503 34.392 142.034 34.264C141.575 34.1253 141.175 34.056 140.834 34.056C140.108 34.056 139.714 34.248 139.65 34.632C139.618 34.856 139.719 35.0533 139.954 35.224C140.199 35.3947 140.546 35.5493 140.994 35.688C141.634 35.8907 142.156 36.0987 142.562 36.312C142.978 36.5253 143.303 36.8027 143.538 37.144C143.772 37.4853 143.89 37.9227 143.89 38.456C143.89 39.2453 143.607 39.8907 143.042 40.392C142.476 40.8827 141.751 41.1493 140.866 41.192ZM147.818 32.36V41H145.258V32.36H147.818ZM145.258 28.696H147.818V31.256H145.258V28.696ZM156.828 40.712C156.007 41.0427 155.164 41.208 154.3 41.208C153.393 41.208 152.556 41.0267 151.788 40.664C151.031 40.2907 150.428 39.768 149.98 39.096C149.532 38.4133 149.308 37.6293 149.308 36.744C149.308 35.816 149.521 35.0053 149.948 34.312C150.375 33.6187 150.956 33.0907 151.692 32.728C152.439 32.3547 153.271 32.168 154.188 32.168C155.02 32.168 155.863 32.3173 156.716 32.616V34.584C156.065 34.3067 155.399 34.168 154.716 34.168C153.873 34.168 153.175 34.3707 152.62 34.776C152.065 35.1707 151.788 35.8267 151.788 36.744C151.788 37.2667 151.932 37.7093 152.22 38.072C152.508 38.4347 152.881 38.712 153.34 38.904C153.799 39.0853 154.284 39.176 154.796 39.176C155.191 39.176 155.564 39.1227 155.916 39.016C156.279 38.8987 156.583 38.7387 156.828 38.536V40.712ZM165.117 31.784H164.973V41H162.429V29.8H167.021L168.541 37.816L168.573 37.976L168.605 37.816L170.125 29.8H174.717V41H172.173V31.784H172.045L170.125 41H167.021L165.117 31.784ZM180.696 41.208C179.789 41.208 178.989 41.0213 178.296 40.648C177.613 40.2747 177.085 39.7467 176.712 39.064C176.339 38.3707 176.152 37.5547 176.152 36.616C176.152 35.176 176.557 34.072 177.368 33.304C178.179 32.536 179.288 32.152 180.696 32.152C182.093 32.152 183.197 32.536 184.008 33.304C184.819 34.072 185.224 35.176 185.224 36.616C185.224 37.5547 185.037 38.3707 184.664 39.064C184.291 39.7467 183.763 40.2747 183.08 40.648C182.397 41.0213 181.603 41.208 180.696 41.208ZM178.68 36.616C178.68 37.4373 178.867 38.0987 179.24 38.6C179.613 39.1013 180.099 39.352 180.696 39.352C181.293 39.352 181.773 39.1013 182.136 38.6C182.509 38.0987 182.696 37.4373 182.696 36.616C182.696 35.7627 182.515 35.1173 182.152 34.68C181.8 34.232 181.315 34.008 180.696 34.008C180.077 34.008 179.587 34.232 179.224 34.68C178.861 35.1173 178.68 35.7627 178.68 36.616ZM185.471 32.36H188.063L190.127 39.432H190.207L192.287 32.36H194.863L192.127 41H188.207L185.471 32.36ZM198.506 32.36V41H195.946V32.36H198.506ZM195.946 28.696H198.506V31.256H195.946V28.696ZM208.172 40.536C207.766 40.7813 207.292 40.9627 206.748 41.08C206.214 41.1973 205.697 41.256 205.196 41.256C203.489 41.256 202.193 40.8507 201.308 40.04C200.433 39.2293 199.996 38.0933 199.996 36.632C199.996 35.1813 200.385 34.072 201.164 33.304C201.953 32.5253 203.025 32.136 204.38 32.136C205.724 32.136 206.785 32.5253 207.564 33.304C208.353 34.072 208.748 35.1813 208.748 36.632C208.748 36.792 208.737 37.0213 208.716 37.32H202.492C202.726 38.696 203.628 39.384 205.196 39.384C206.294 39.384 207.286 39.0587 208.172 38.408V40.536ZM206.332 35.528C206.193 34.9947 205.953 34.6 205.612 34.344C205.27 34.088 204.86 33.96 204.38 33.96C203.932 33.96 203.548 34.0933 203.228 34.36C202.918 34.6267 202.7 35.016 202.572 35.528H206.332ZM216.991 29.8V38.84H221.519V41H214.351V29.8H216.991ZM225.318 32.36V41H222.758V32.36H225.318ZM222.758 28.696H225.318V31.256H222.758V28.696ZM229.688 32.328V33.368C230.083 33.0267 230.531 32.76 231.032 32.568C231.544 32.376 232.051 32.28 232.552 32.28C233.373 32.28 234.024 32.52 234.504 33C234.995 33.48 235.24 34.104 235.24 34.872V40.968H232.68V35.304C232.68 34.9947 232.552 34.744 232.296 34.552C232.04 34.3493 231.736 34.248 231.384 34.248C231.16 34.248 230.877 34.3227 230.536 34.472C230.205 34.6213 229.923 34.8027 229.688 35.016V40.968H227.128V32.328H229.688ZM244.703 40.536C244.298 40.7813 243.823 40.9627 243.279 41.08C242.746 41.1973 242.228 41.256 241.727 41.256C240.02 41.256 238.724 40.8507 237.839 40.04C236.964 39.2293 236.527 38.0933 236.527 36.632C236.527 35.1813 236.916 34.072 237.695 33.304C238.484 32.5253 239.556 32.136 240.911 32.136C242.255 32.136 243.316 32.5253 244.095 33.304C244.884 34.072 245.279 35.1813 245.279 36.632C245.279 36.792 245.268 37.0213 245.247 37.32H239.023C239.258 38.696 240.159 39.384 241.727 39.384C242.826 39.384 243.818 39.0587 244.703 38.408V40.536ZM242.863 35.528C242.724 34.9947 242.484 34.6 242.143 34.344C241.802 34.088 241.391 33.96 240.911 33.96C240.463 33.96 240.079 34.0933 239.759 34.36C239.45 34.6267 239.231 35.016 239.103 35.528H242.863ZM250.038 41.192C249.387 41.224 248.726 41.1707 248.054 41.032C247.392 40.904 246.816 40.7013 246.326 40.424V38.12C246.763 38.44 247.286 38.7067 247.894 38.92C248.512 39.1227 249.056 39.208 249.526 39.176C249.856 39.1547 250.096 39.0853 250.246 38.968C250.395 38.84 250.48 38.712 250.502 38.584C250.555 38.2533 250.475 38.0027 250.262 37.832C250.048 37.6613 249.648 37.496 249.062 37.336C248.411 37.1547 247.894 36.9467 247.51 36.712C247.126 36.4667 246.832 36.1947 246.63 35.896C246.438 35.5867 246.342 35.1973 246.342 34.728C246.342 34.2373 246.47 33.8 246.726 33.416C246.982 33.0213 247.387 32.712 247.942 32.488C248.496 32.264 249.094 32.152 249.734 32.152C250.214 32.152 250.699 32.2 251.19 32.296C251.68 32.3813 252.091 32.4987 252.422 32.648V34.712C252.08 34.5413 251.675 34.392 251.206 34.264C250.747 34.1253 250.347 34.056 250.006 34.056C249.28 34.056 248.886 34.248 248.822 34.632C248.79 34.856 248.891 35.0533 249.126 35.224C249.371 35.3947 249.718 35.5493 250.166 35.688C250.806 35.8907 251.328 36.0987 251.734 36.312C252.15 36.5253 252.475 36.8027 252.71 37.144C252.944 37.4853 253.062 37.9227 253.062 38.456C253.062 39.2453 252.779 39.8907 252.214 40.392C251.648 40.8827 250.923 41.1493 250.038 41.192Z" fill="#535353"/>
<ellipse cx="55.0222" cy="52.4999" rx="31.5" ry="20.5" transform="rotate(-11.7821 55.0222 52.4999)" fill="#F5DB7C"/>
<g filter="url(#filter1_f_733_3172)">
<ellipse cx="64" cy="63.5" rx="25" ry="14.5" fill="black" fill-opacity="0.3"/>
</g>
<rect x="298" y="2" width="34" height="16" rx="8" fill="#F16565"/>
<path d="M307.022 13C306.964 13 306.916 12.9813 306.878 12.944C306.841 12.9067 306.822 12.8587 306.822 12.8V7.6C306.822 7.54133 306.841 7.49333 306.878 7.456C306.916 7.41867 306.964 7.4 307.022 7.4H307.87C307.961 7.4 308.025 7.42133 308.062 7.464C308.105 7.50133 308.132 7.53067 308.142 7.552L310.094 10.632V7.6C310.094 7.54133 310.113 7.49333 310.15 7.456C310.188 7.41867 310.236 7.4 310.294 7.4H311.254C311.313 7.4 311.361 7.41867 311.398 7.456C311.436 7.49333 311.454 7.54133 311.454 7.6V12.8C311.454 12.8533 311.436 12.9013 311.398 12.944C311.361 12.9813 311.313 13 311.254 13H310.398C310.313 13 310.249 12.9787 310.206 12.936C310.169 12.8933 310.145 12.864 310.134 12.848L308.182 9.888V12.8C308.182 12.8587 308.164 12.9067 308.126 12.944C308.089 12.9813 308.041 13 307.982 13H307.022ZM312.772 13C312.714 13 312.666 12.9813 312.628 12.944C312.591 12.9067 312.572 12.8587 312.572 12.8V7.6C312.572 7.54133 312.591 7.49333 312.628 7.456C312.666 7.41867 312.714 7.4 312.772 7.4H316.508C316.567 7.4 316.615 7.41867 316.652 7.456C316.69 7.49333 316.708 7.54133 316.708 7.6V8.352C316.708 8.41067 316.69 8.45867 316.652 8.496C316.615 8.53333 316.567 8.552 316.508 8.552H313.956V9.632H316.332C316.391 9.632 316.439 9.65333 316.476 9.696C316.514 9.73333 316.532 9.78133 316.532 9.84V10.536C316.532 10.5893 316.514 10.6373 316.476 10.68C316.439 10.7173 316.391 10.736 316.332 10.736H313.956V11.848H316.572C316.631 11.848 316.679 11.8667 316.716 11.904C316.754 11.9413 316.772 11.9893 316.772 12.048V12.8C316.772 12.8587 316.754 12.9067 316.716 12.944C316.679 12.9813 316.631 13 316.572 13H312.772ZM318.578 13C318.487 13 318.415 12.9733 318.362 12.92C318.309 12.8667 318.277 12.8053 318.266 12.736L317.394 7.624C317.389 7.61333 317.386 7.60267 317.386 7.592C317.386 7.58133 317.386 7.57333 317.386 7.568C317.386 7.52533 317.402 7.488 317.434 7.456C317.471 7.41867 317.511 7.4 317.554 7.4H318.546C318.695 7.4 318.778 7.45867 318.794 7.576L319.314 10.704L319.89 8.856C319.906 8.81333 319.933 8.768 319.97 8.72C320.007 8.66667 320.069 8.64 320.154 8.64H320.73C320.821 8.64 320.885 8.66667 320.922 8.72C320.959 8.768 320.983 8.81333 320.994 8.856L321.57 10.696L322.09 7.576C322.106 7.45867 322.189 7.4 322.338 7.4H323.33C323.378 7.4 323.418 7.41867 323.45 7.456C323.482 7.488 323.498 7.52533 323.498 7.568C323.498 7.57333 323.498 7.58133 323.498 7.592C323.498 7.60267 323.498 7.61333 323.498 7.624L322.626 12.736C322.615 12.8053 322.583 12.8667 322.53 12.92C322.477 12.9733 322.405 13 322.314 13H321.554C321.463 13 321.394 12.976 321.346 12.928C321.298 12.88 321.266 12.8347 321.25 12.792L320.442 10.504L319.634 12.792C319.618 12.8347 319.586 12.88 319.538 12.928C319.495 12.976 319.429 13 319.338 13H318.578Z" fill="white"/>
<rect x="272.5" y="31.5" width="51" height="38" rx="19" fill="white" stroke="#E6E9F1" stroke-width="3"/>
<path fill-rule="evenodd" clip-rule="evenodd" d="M295.471 43.6032C294.406 42.9126 293 43.6765 293 44.9454V57.0841C293 58.3469 294.394 59.112 295.459 58.4336L304.901 52.4209C305.883 51.7952 305.889 50.3631 304.912 49.7291L295.471 43.6032Z" fill="#535353"/>
<defs>
<filter id="filter0_d_733_3172" x="0.3" y="0.3" width="361.4" height="109.4" filterUnits="userSpaceOnUse" color-interpolation-filters="sRGB">
<feFlood flood-opacity="0" result="BackgroundImageFix"/>
<feColorMatrix in="SourceAlpha" type="matrix" values="0 0 0 0 0 0 0 0 0 0 0 0 0 0 0 0 0 0 127 0" result="hardAlpha"/>
<feOffset dy="4"/>
<feGaussianBlur stdDeviation="5.35"/>
<feComposite in2="hardAlpha" operator="out"/>
<feColorMatrix type="matrix" values="0 0 0 0 0 0 0 0 0 0 0 0 0 0 0 0 0 0 0.15 0"/>
<feBlend mode="normal" in2="BackgroundImageFix" result="effect1_dropShadow_733_3172"/>
<feBlend mode="normal" in="SourceGraphic" in2="effect1_dropShadow_733_3172" result="shape"/>
</filter>
<filter id="filter1_f_733_3172" x="24" y="34" width="80" height="59" filterUnits="userSpaceOnUse" color-interpolation-filters="sRGB">
<feFlood flood-opacity="0" result="BackgroundImageFix"/>
<feBlend mode="normal" in="SourceGraphic" in2="BackgroundImageFix" result="shape"/>
<feGaussianBlur stdDeviation="7.5" result="effect1_foregroundBlur_733_3172"/>
</filter>
</defs>
</svg>
