<svg width="362" height="110" viewBox="0 0 362 110" fill="none" xmlns="http://www.w3.org/2000/svg">
<g filter="url(#filter0_d_663_2298)">
<path d="M11 51C11 32.2354 11 22.8531 15.9595 16.3897C17.2363 14.7258 18.7258 13.2363 20.3897 11.9595C26.8531 7 36.2354 7 55 7H307C325.765 7 335.147 7 341.61 11.9595C343.274 13.2363 344.764 14.7258 346.04 16.3897C351 22.8531 351 32.2354 351 51V51C351 69.7646 351 79.1469 346.04 85.6103C344.764 87.2742 343.274 88.7637 341.61 90.0405C335.147 95 325.765 95 307 95H55C36.2354 95 26.8531 95 20.3897 90.0405C18.7258 88.7637 17.2363 87.2742 15.9595 85.6103C11 79.1469 11 69.7646 11 51V51Z" fill="white"/>
</g>
<path d="M103.72 62.928C107.272 62.672 110.788 62.248 114.268 61.656V63.06C111.188 63.66 107.672 64.08 103.72 64.32V62.928ZM103.48 59.532C104.256 59.212 104.848 58.736 105.256 58.104H103.6V56.664H108.208V56.088H104.164V54.696H105.568L107.092 53.16H109.168L107.644 54.696H111.172L110.608 53.868H112.528L114.04 56.088H109.792V56.664H114.4V58.104H112.816C113.208 58.68 113.776 59.12 114.52 59.424V61.092C114.12 60.956 113.736 60.78 113.368 60.564V61.104C110.608 61.592 107.572 61.956 104.26 62.196V60.876C106.964 60.676 109.7 60.36 112.468 59.928C112.1 59.6 111.788 59.24 111.532 58.848V59.496C109.828 59.792 107.896 60.024 105.736 60.192V59.748C105.136 60.324 104.384 60.772 103.48 61.092V59.532ZM106.468 58.848C108.324 58.664 109.904 58.464 111.208 58.248L111.136 58.104H106.864C106.76 58.336 106.628 58.584 106.468 58.848ZM121.672 62.664H124.276L124.48 58.656H116.572L117.052 53.304H118.624L118.552 54.144H126.04V55.656H118.408L118.276 57.144H126.1L125.74 64.2H121.672V62.664ZM115.36 60.036H123.4V61.56H115.36V60.036ZM133.66 53.604H138.172V63.132H135.556V61.596H136.708V55.14H135.148V64.2H133.66V53.604ZM127.864 53.568H132.88V59.712H129.388V62.136L131.02 61.656L130.588 60.216H132.112L133.312 64.2H131.788L131.464 63.132L127.864 64.188V53.568ZM131.368 58.296V57.336H129.388V58.296H131.368ZM131.368 55.944V54.984H129.388V55.944H131.368ZM146.404 56.28V62.04H140.596V56.28H146.404ZM139.504 53.7H150.496V55.248H149.476V64.224H146.14V62.676H147.928V55.248H139.504V53.7ZM144.868 60.504V57.828H142.132V60.504H144.868ZM152.38 62.784H153.868C153.836 62.152 153.804 61.684 153.772 61.38L151.696 62.436V60.816L153.556 59.88C153.5 59.616 153.42 59.292 153.316 58.908L151.696 59.724V58.08L152.812 57.516C152.636 57.084 152.396 56.58 152.092 56.004H153.844C153.964 56.244 154.084 56.504 154.204 56.784L155.644 56.052V57.696L154.732 58.164C154.98 58.948 155.152 59.8 155.248 60.72C155.352 61.64 155.404 62.8 155.404 64.2H152.38V62.784ZM151.72 53.832H154.18V53.22H155.74V53.832H158.26V53.22H159.82V53.832H162.28V55.332H159.82V55.848H158.26V55.332H155.74V55.848H154.18V55.332H151.72V53.832ZM155.8 62.436C156.528 62.14 157.08 61.74 157.456 61.236C157.832 60.724 158.076 60.068 158.188 59.268H155.956V57.756H158.26V56.064H159.772V57.756H162.28V59.268H159.712C159.68 59.572 159.632 59.864 159.568 60.144H160.9L162.58 64.2H160.948L159.46 60.6C159.196 61.52 158.76 62.276 158.152 62.868C157.552 63.452 156.768 63.908 155.8 64.236V62.436ZM161.416 56.112L161.632 57.492H160.432L160.216 56.112H161.416ZM173.92 57.96H167.968V53.508H173.92V57.96ZM163.48 59.436C164.688 58.74 165.532 57.764 166.012 56.508H167.644C167.38 57.444 166.956 58.292 166.372 59.052V64.26H164.812V60.528C164.404 60.816 163.96 61.08 163.48 61.32V59.436ZM163.48 56.196C164.6 55.476 165.372 54.516 165.796 53.316H167.344C166.776 55.444 165.488 57.028 163.48 58.068V56.196ZM167.464 60.168H171.976V59.64H167.704V58.392H174.184V59.64H173.512V60.168H174.52V61.416H173.512V64.2H170.872V62.88H171.976V61.416H167.464V60.168ZM169.54 61.74L170.38 63.936H168.868L168.028 61.74H169.54ZM172.36 56.796V56.244H169.528V56.796H172.36ZM172.36 55.224V54.684H169.528V55.224H172.36ZM182.788 55.74L182.956 54.984H180.928V53.52H186.508V54.984H184.42L184.252 55.74H186.256V61.236H184.864V57.084H182.548V61.236H181.156V55.74H182.788ZM175.48 59.076C176.056 58.996 176.58 58.856 177.052 58.656C176.772 58.408 176.524 58.12 176.308 57.792C176.06 57.888 175.824 57.952 175.6 57.984V56.844C176.152 56.66 176.568 56.328 176.848 55.848H180.472V57.06C180.232 57.652 179.852 58.184 179.332 58.656C179.788 58.856 180.308 58.996 180.892 59.076V60.42L180.556 60.348V64.128H175.924V60.324C175.732 60.372 175.584 60.404 175.48 60.42V59.076ZM175.6 53.748H177.4V53.28H178.936V53.748H180.784V55.668H179.368V55.092H176.992V55.668H175.6V53.748ZM180.292 60.288C179.508 60.088 178.808 59.816 178.192 59.472C177.56 59.816 176.856 60.088 176.08 60.288H180.292ZM177.352 57.06C177.584 57.428 177.864 57.74 178.192 57.996C178.52 57.74 178.8 57.428 179.032 57.06H177.352ZM179.116 62.844V61.572H177.364V62.844H179.116ZM180.892 62.796C181.588 62.692 182.12 62.432 182.488 62.016C182.864 61.6 183.052 61.084 183.052 60.468V57.756H184.348V60.552C184.348 60.664 184.34 60.816 184.324 61.008C185.452 61.632 186.224 62.7 186.64 64.212H185.104C184.952 63.436 184.568 62.812 183.952 62.34C183.688 62.844 183.3 63.264 182.788 63.6C182.284 63.944 181.652 64.184 180.892 64.32V62.796ZM188.008 64.2C188.688 63.456 189.252 62.736 189.7 62.04C190.156 61.344 190.52 60.632 190.792 59.904L189.436 59.184C189.332 59.544 189.212 59.904 189.076 60.264H187.36C188.176 58.048 188.696 55.76 188.92 53.4H190.588C190.54 53.928 190.5 54.32 190.468 54.576H193.12C193.12 56.016 193.036 57.272 192.868 58.344C192.708 59.408 192.412 60.42 191.98 61.38C191.556 62.332 190.948 63.272 190.156 64.2H188.008ZM191.236 58.368C191.388 57.688 191.488 56.944 191.536 56.136H190.156C190.06 56.704 189.96 57.204 189.856 57.636L191.236 58.368ZM194.056 53.4H195.616V64.2H194.056V53.4ZM197.476 55.428C198.028 57.508 198.34 59.676 198.412 61.932H196.96C196.888 59.764 196.54 57.596 195.916 55.428H197.476ZM204.472 57.336C205.32 57.224 206 57.068 206.512 56.868L205.864 55.752C205.448 56.008 204.984 56.204 204.472 56.34V54.804C205.216 54.508 205.768 54.04 206.128 53.4H210.328C210.224 54.672 209.936 55.684 209.464 56.436C209 57.18 208.364 57.732 207.556 58.092C206.748 58.452 205.72 58.688 204.472 58.8V57.336ZM199.6 62.724C201.408 62.564 202.844 62.024 203.908 61.104H199.9V59.592H204.208V58.896H205.792V59.592H210.1V61.104H206.092C207.156 62.024 208.592 62.564 210.4 62.724V64.248C208.008 64.056 206.208 63.356 205 62.148C203.792 63.356 201.992 64.056 199.6 64.248V62.724ZM199.78 57L202.384 56.052V53.4H203.932V58.62H202.384V57.588L199.78 58.536V57ZM201.508 53.58L202.036 55.848H200.584L200.056 53.58H201.508ZM207.676 56.172C208.052 55.836 208.34 55.4 208.54 54.864H206.908L207.676 56.172ZM211.36 64.2C211.56 63.384 211.7 62.588 211.78 61.812C211.86 61.028 211.9 60.132 211.9 59.124V53.568H217.384V55.044H213.316V56.004H217.384V57.444H215.236V58.524H217.192V64.056C217.688 63.08 218.032 62.128 218.224 61.2C218.424 60.264 218.524 59.192 218.524 57.984V56.532H217.624V54.972H218.524V53.28H220.06V54.972H222.232V64.2H219.844V62.64H220.768V56.532H219.976V57.984C219.976 59.152 219.884 60.236 219.7 61.236C219.516 62.236 219.212 63.224 218.788 64.2H215.188V62.748H215.896V59.964H215.2V59.976C215.2 60.776 215.152 61.516 215.056 62.196C214.96 62.876 214.8 63.544 214.576 64.2H213.136C213.416 63.528 213.608 62.872 213.712 62.232C213.816 61.584 213.868 60.832 213.868 59.976V57.444H213.316V59.124C213.316 60.076 213.28 60.96 213.208 61.776C213.136 62.592 213.02 63.4 212.86 64.2H211.36Z" fill="#919191"/>
<path d="M108.936 32.856C111.133 32.536 112.819 31.7093 113.992 30.376H109.272V28.392H117.368C116.973 29.7573 116.339 30.9253 115.464 31.896L118.2 32.936V34.952L113.768 33.32C112.445 34.184 110.835 34.712 108.936 34.904V32.856ZM106.008 28.2H108.104L106.136 32.776L106.568 33.032L107.208 31.512H109.144L106.92 36.76H108.664V38.824H103.816L105.448 34.968L103.576 33.928L106.008 28.2ZM103.784 40.44L108.504 39.88V41.944L103.784 42.504V40.44ZM108.824 40.456H112.472V37.512H109.336V35.544H117.848V37.512H114.552V40.456H118.36V42.424H108.824V40.456ZM119.8 40.504C121.816 40.2267 123.949 39.6773 126.2 38.856V40.984C124.163 41.72 122.029 42.2533 119.8 42.584V40.504ZM119.48 36.712H120.536V29.224H124.12V28.04H126.184V29.224H127.816V28.04H129.88V29.224H133.464V36.712H134.52V38.84H119.48V36.712ZM124.216 36.712V35H122.584V36.712H124.216ZM124.216 33.032V31.208H122.584V33.032H124.216ZM127.816 36.712V35H126.184V36.712H127.816ZM127.816 33.032V31.208H126.184V33.032H127.816ZM127.8 38.856C130.051 39.6773 132.184 40.2267 134.2 40.504V42.584C131.971 42.2533 129.837 41.72 127.8 40.984V38.856ZM131.416 36.712V35H129.784V36.712H131.416ZM131.416 33.032V31.208H129.784V33.032H131.416ZM143.848 28.392V33.288H141.096V33.8H144.504V35.416H135.576V33.8H139.048V33.288H136.232V28.392H143.848ZM135.64 42.6C136.035 41.608 136.275 40.632 136.36 39.672H138.152C138.067 40.632 137.848 41.608 137.496 42.6H135.64ZM136.184 35.896H143.896V39.304H141.08V42.6H139.064V39.304H136.184V35.896ZM141.88 37.992V37.208H138.2V37.992H141.88ZM141.88 32.008V31.4H138.2V32.008H141.88ZM141.88 30.248V29.64H138.2V30.248H141.88ZM143.784 39.672C143.869 40.632 144.109 41.608 144.504 42.6H142.648C142.296 41.608 142.077 40.632 141.992 39.672H143.784ZM144.584 40.696C145.565 40.408 146.387 39.9387 147.048 39.288C147.72 38.6267 148.237 37.7573 148.6 36.68H150.52C149.699 40.072 147.72 42.0987 144.584 42.76V40.696ZM144.616 35.816C145.373 35.5067 146.045 35.096 146.632 34.584C147.229 34.072 147.752 33.4373 148.2 32.68H150.376C149.299 35.2933 147.379 37.0853 144.616 38.056V35.816ZM144.616 31.352C146.099 30.712 147.261 29.6613 148.104 28.2H150.216C149.149 30.8027 147.283 32.5893 144.616 33.56V31.352ZM157.704 28.472H165.736V37.8H163.816V30.552H159.624V37.8H157.704V28.472ZM151.48 37.592C152.867 35.768 153.912 33.848 154.616 31.832H151.816V29.848H153.576V28.12H155.624V29.848H157.272C157.005 31.2133 156.616 32.552 156.104 33.864C155.976 34.1947 155.848 34.488 155.72 34.744L157.304 35.608V37.784L155.688 36.904V42.6H153.608V37.592H151.48ZM157.288 42.6C158.568 41.2773 159.464 39.9867 159.976 38.728C160.499 37.4587 160.76 36.0133 160.76 34.392V31.24H162.616V34.392C162.616 35.96 162.403 37.4107 161.976 38.744C161.56 40.0773 160.872 41.3627 159.912 42.6H157.288ZM162.232 38.36H164.056V40.648H166.344V42.6H162.232V38.36ZM180.968 42.376H169.032V35.576H180.968V42.376ZM168.392 32.232H169.8L172.584 28.2H175.304L172.52 32.232H178.216L177.176 30.2H179.736L181.816 34.28H168.392V32.232ZM178.872 40.376V37.592H171.128V40.376H178.872ZM198.184 42.6H194.552V40.52H196.136V30.424H188.872V28.456H198.184V42.6ZM183.56 32.76H187.384V39.496L188.888 38.984V41.368L185.24 42.6V34.888H183.56V32.76ZM186.84 28.2L187.944 31.672H185.768L184.664 28.2H186.84ZM189.048 31.576H195.32V33.4H189.048V31.576ZM189.224 34.568H194.584V40.136H189.224V34.568ZM192.696 38.28V36.424H191.112V38.28H192.696Z" fill="#535353"/>
<ellipse cx="55.0222" cy="52.4999" rx="31.5" ry="20.5" transform="rotate(-11.7821 55.0222 52.4999)" fill="#F5DB7C"/>
<g filter="url(#filter1_f_663_2298)">
<ellipse cx="64" cy="63.5" rx="25" ry="14.5" fill="black" fill-opacity="0.3"/>
</g>
<rect x="298" y="2" width="34" height="16" rx="8" fill="#F16565"/>
<path d="M307.022 13C306.964 13 306.916 12.9813 306.878 12.944C306.841 12.9067 306.822 12.8587 306.822 12.8V7.6C306.822 7.54133 306.841 7.49333 306.878 7.456C306.916 7.41867 306.964 7.4 307.022 7.4H307.87C307.961 7.4 308.025 7.42133 308.062 7.464C308.105 7.50133 308.132 7.53067 308.142 7.552L310.094 10.632V7.6C310.094 7.54133 310.113 7.49333 310.15 7.456C310.188 7.41867 310.236 7.4 310.294 7.4H311.254C311.313 7.4 311.361 7.41867 311.398 7.456C311.436 7.49333 311.454 7.54133 311.454 7.6V12.8C311.454 12.8533 311.436 12.9013 311.398 12.944C311.361 12.9813 311.313 13 311.254 13H310.398C310.313 13 310.249 12.9787 310.206 12.936C310.169 12.8933 310.145 12.864 310.134 12.848L308.182 9.888V12.8C308.182 12.8587 308.164 12.9067 308.126 12.944C308.089 12.9813 308.041 13 307.982 13H307.022ZM312.772 13C312.714 13 312.666 12.9813 312.628 12.944C312.591 12.9067 312.572 12.8587 312.572 12.8V7.6C312.572 7.54133 312.591 7.49333 312.628 7.456C312.666 7.41867 312.714 7.4 312.772 7.4H316.508C316.567 7.4 316.615 7.41867 316.652 7.456C316.69 7.49333 316.708 7.54133 316.708 7.6V8.352C316.708 8.41067 316.69 8.45867 316.652 8.496C316.615 8.53333 316.567 8.552 316.508 8.552H313.956V9.632H316.332C316.391 9.632 316.439 9.65333 316.476 9.696C316.514 9.73333 316.532 9.78133 316.532 9.84V10.536C316.532 10.5893 316.514 10.6373 316.476 10.68C316.439 10.7173 316.391 10.736 316.332 10.736H313.956V11.848H316.572C316.631 11.848 316.679 11.8667 316.716 11.904C316.754 11.9413 316.772 11.9893 316.772 12.048V12.8C316.772 12.8587 316.754 12.9067 316.716 12.944C316.679 12.9813 316.631 13 316.572 13H312.772ZM318.578 13C318.487 13 318.415 12.9733 318.362 12.92C318.309 12.8667 318.277 12.8053 318.266 12.736L317.394 7.624C317.389 7.61333 317.386 7.60267 317.386 7.592C317.386 7.58133 317.386 7.57333 317.386 7.568C317.386 7.52533 317.402 7.488 317.434 7.456C317.471 7.41867 317.511 7.4 317.554 7.4H318.546C318.695 7.4 318.778 7.45867 318.794 7.576L319.314 10.704L319.89 8.856C319.906 8.81333 319.933 8.768 319.97 8.72C320.007 8.66667 320.069 8.64 320.154 8.64H320.73C320.821 8.64 320.885 8.66667 320.922 8.72C320.959 8.768 320.983 8.81333 320.994 8.856L321.57 10.696L322.09 7.576C322.106 7.45867 322.189 7.4 322.338 7.4H323.33C323.378 7.4 323.418 7.41867 323.45 7.456C323.482 7.488 323.498 7.52533 323.498 7.568C323.498 7.57333 323.498 7.58133 323.498 7.592C323.498 7.60267 323.498 7.61333 323.498 7.624L322.626 12.736C322.615 12.8053 322.583 12.8667 322.53 12.92C322.477 12.9733 322.405 13 322.314 13H321.554C321.463 13 321.394 12.976 321.346 12.928C321.298 12.88 321.266 12.8347 321.25 12.792L320.442 10.504L319.634 12.792C319.618 12.8347 319.586 12.88 319.538 12.928C319.495 12.976 319.429 13 319.338 13H318.578Z" fill="white"/>
<rect x="272.5" y="31.5" width="51" height="38" rx="19" fill="white" stroke="#E6E9F1" stroke-width="3"/>
<path fill-rule="evenodd" clip-rule="evenodd" d="M295.471 43.6032C294.406 42.9126 293 43.6765 293 44.9454V57.0841C293 58.3469 294.394 59.112 295.459 58.4336L304.901 52.4209C305.883 51.7952 305.889 50.3631 304.912 49.7291L295.471 43.6032Z" fill="#535353"/>
<defs>
<filter id="filter0_d_663_2298" x="0.3" y="0.3" width="361.4" height="109.4" filterUnits="userSpaceOnUse" color-interpolation-filters="sRGB">
<feFlood flood-opacity="0" result="BackgroundImageFix"/>
<feColorMatrix in="SourceAlpha" type="matrix" values="0 0 0 0 0 0 0 0 0 0 0 0 0 0 0 0 0 0 127 0" result="hardAlpha"/>
<feOffset dy="4"/>
<feGaussianBlur stdDeviation="5.35"/>
<feComposite in2="hardAlpha" operator="out"/>
<feColorMatrix type="matrix" values="0 0 0 0 0 0 0 0 0 0 0 0 0 0 0 0 0 0 0.15 0"/>
<feBlend mode="normal" in2="BackgroundImageFix" result="effect1_dropShadow_663_2298"/>
<feBlend mode="normal" in="SourceGraphic" in2="effect1_dropShadow_663_2298" result="shape"/>
</filter>
<filter id="filter1_f_663_2298" x="24" y="34" width="80" height="59" filterUnits="userSpaceOnUse" color-interpolation-filters="sRGB">
<feFlood flood-opacity="0" result="BackgroundImageFix"/>
<feBlend mode="normal" in="SourceGraphic" in2="BackgroundImageFix" result="shape"/>
<feGaussianBlur stdDeviation="7.5" result="effect1_foregroundBlur_663_2298"/>
</filter>
</defs>
</svg>
