<svg width="362" height="110" viewBox="0 0 362 110" fill="none" xmlns="http://www.w3.org/2000/svg">
<g filter="url(#filter0_d_733_3186)">
<rect x="11" y="7" width="340" height="88" rx="20" fill="white"/>
</g>
<path d="M108.688 60.624H106L105.364 63H103.264L105.7 54.6H109L111.436 63H109.324L108.688 60.624ZM108.304 59.184L107.356 55.668H107.332L106.384 59.184H108.304ZM112.451 54.6H114.431V63H112.451V54.6ZM122.073 63.156C121.393 63.156 120.793 63.016 120.273 62.736C119.761 62.456 119.365 62.06 119.085 61.548C118.805 61.028 118.665 60.416 118.665 59.712C118.665 58.632 118.969 57.804 119.577 57.228C120.185 56.652 121.017 56.364 122.073 56.364C123.121 56.364 123.949 56.652 124.557 57.228C125.165 57.804 125.469 58.632 125.469 59.712C125.469 60.416 125.329 61.028 125.049 61.548C124.769 62.06 124.373 62.456 123.861 62.736C123.349 63.016 122.753 63.156 122.073 63.156ZM120.561 59.712C120.561 60.328 120.701 60.824 120.981 61.2C121.261 61.576 121.625 61.764 122.073 61.764C122.521 61.764 122.881 61.576 123.153 61.2C123.433 60.824 123.573 60.328 123.573 59.712C123.573 59.072 123.437 58.588 123.165 58.26C122.901 57.924 122.537 57.756 122.073 57.756C121.609 57.756 121.241 57.924 120.969 58.26C120.697 58.588 120.561 59.072 120.561 59.712ZM128.348 56.52V57.216C128.556 56.992 128.804 56.82 129.092 56.7C129.388 56.572 129.68 56.508 129.968 56.508C130.168 56.508 130.356 56.536 130.532 56.592V58.068C130.308 58.012 130.096 57.984 129.896 57.984C129.592 57.984 129.304 58.036 129.032 58.14C128.76 58.236 128.532 58.392 128.348 58.608V63H126.428V56.52H128.348ZM138.608 63.156C137.728 63.156 136.968 62.992 136.328 62.664C135.688 62.328 135.192 61.84 134.84 61.2C134.496 60.56 134.324 59.792 134.324 58.896C134.324 57.984 134.496 57.192 134.84 56.52C135.192 55.848 135.688 55.336 136.328 54.984C136.976 54.624 137.736 54.444 138.608 54.444C139.48 54.444 140.236 54.624 140.876 54.984C141.516 55.336 142.008 55.848 142.352 56.52C142.704 57.192 142.88 57.984 142.88 58.896C142.88 59.8 142.704 60.572 142.352 61.212C142.008 61.844 141.52 62.328 140.888 62.664C140.256 62.992 139.496 63.156 138.608 63.156ZM136.424 58.896C136.424 59.76 136.616 60.444 137 60.948C137.384 61.444 137.92 61.692 138.608 61.692C139.288 61.692 139.82 61.444 140.204 60.948C140.588 60.444 140.78 59.76 140.78 58.896C140.78 58.328 140.696 57.82 140.528 57.372C140.36 56.924 140.108 56.572 139.772 56.316C139.444 56.06 139.056 55.932 138.608 55.932C138.16 55.932 137.772 56.06 137.444 56.316C137.116 56.572 136.864 56.924 136.688 57.372C136.512 57.82 136.424 58.328 136.424 58.896ZM145.879 56.52V57.216C146.087 56.992 146.335 56.82 146.623 56.7C146.919 56.572 147.211 56.508 147.499 56.508C147.699 56.508 147.887 56.536 148.063 56.592V58.068C147.839 58.012 147.627 57.984 147.427 57.984C147.123 57.984 146.835 58.036 146.563 58.14C146.291 58.236 146.063 58.392 145.879 58.608V63H143.959V56.52H145.879ZM150.934 56.52V63H149.014V56.52H150.934ZM149.014 53.772H150.934V55.692H149.014V53.772ZM155.147 65.736C154.659 65.736 154.167 65.704 153.671 65.64C153.183 65.576 152.743 65.484 152.351 65.364V63.792C153.207 63.984 154.063 64.08 154.919 64.08C155.463 64.08 155.875 63.96 156.155 63.72C156.435 63.48 156.575 63.148 156.575 62.724C156.135 63.012 155.611 63.156 155.003 63.156C154.411 63.156 153.891 63.012 153.443 62.724C152.995 62.436 152.651 62.04 152.411 61.536C152.171 61.024 152.051 60.436 152.051 59.772C152.051 59.108 152.171 58.52 152.411 58.008C152.659 57.488 153.003 57.084 153.443 56.796C153.891 56.508 154.411 56.364 155.003 56.364C155.555 56.364 156.079 56.548 156.575 56.916V56.52H158.447V62.976C158.447 64.816 157.347 65.736 155.147 65.736ZM153.887 59.772C153.887 60.14 153.959 60.476 154.103 60.78C154.255 61.084 154.451 61.328 154.691 61.512C154.939 61.688 155.199 61.776 155.471 61.776C155.671 61.776 155.895 61.732 156.143 61.644C156.391 61.548 156.603 61.352 156.779 61.056L156.839 60.816V58.596C156.671 58.252 156.455 58.028 156.191 57.924C155.927 57.812 155.687 57.756 155.471 57.756C155.199 57.756 154.939 57.844 154.691 58.02C154.451 58.196 154.255 58.44 154.103 58.752C153.959 59.056 153.887 59.396 153.887 59.772ZM161.727 56.52V63H159.807V56.52H161.727ZM159.807 53.772H161.727V55.692H159.807V53.772ZM165.004 56.496V57.276C165.3 57.02 165.636 56.82 166.012 56.676C166.396 56.532 166.776 56.46 167.152 56.46C167.768 56.46 168.256 56.64 168.616 57C168.984 57.36 169.168 57.828 169.168 58.404V62.976H167.248V58.728C167.248 58.496 167.152 58.308 166.96 58.164C166.768 58.012 166.54 57.936 166.276 57.936C166.108 57.936 165.896 57.992 165.64 58.104C165.392 58.216 165.18 58.352 165.004 58.512V62.976H163.084V56.496H165.004ZM173.133 63.156C172.525 63.156 171.993 63.012 171.537 62.724C171.089 62.436 170.741 62.04 170.493 61.536C170.253 61.032 170.133 60.444 170.133 59.772C170.133 59.108 170.253 58.52 170.493 58.008C170.741 57.488 171.085 57.084 171.525 56.796C171.973 56.508 172.493 56.364 173.085 56.364C173.357 56.364 173.629 56.416 173.901 56.52C174.181 56.616 174.441 56.752 174.681 56.928V56.52H176.601V61.488C176.601 62.136 176.681 62.64 176.841 63H175.041C174.985 62.888 174.937 62.744 174.897 62.568C174.401 62.96 173.813 63.156 173.133 63.156ZM171.969 59.772C171.969 60.14 172.041 60.476 172.185 60.78C172.337 61.084 172.533 61.328 172.773 61.512C173.021 61.688 173.281 61.776 173.553 61.776C173.745 61.776 173.961 61.736 174.201 61.656C174.441 61.568 174.649 61.384 174.825 61.104V58.416C174.649 58.136 174.441 57.956 174.201 57.876C173.969 57.796 173.753 57.756 173.553 57.756C173.281 57.756 173.021 57.844 172.773 58.02C172.533 58.196 172.337 58.44 172.185 58.752C172.041 59.056 171.969 59.396 171.969 59.772ZM179.987 63.096C179.267 63.096 178.723 62.896 178.355 62.496C177.987 62.088 177.803 61.492 177.803 60.708V53.772H179.723V60.228C179.723 60.548 179.747 60.792 179.795 60.96C179.843 61.128 179.923 61.256 180.035 61.344C180.123 61.416 180.219 61.464 180.323 61.488C180.435 61.504 180.627 61.512 180.899 61.512V63.096H179.987ZM184.261 54.6H186.409L188.425 61.668H188.473L190.489 54.6H192.637L190.045 63H186.853L184.261 54.6ZM196.041 63.156C195.361 63.156 194.761 63.016 194.241 62.736C193.729 62.456 193.333 62.06 193.053 61.548C192.773 61.028 192.633 60.416 192.633 59.712C192.633 58.632 192.937 57.804 193.545 57.228C194.153 56.652 194.985 56.364 196.041 56.364C197.089 56.364 197.917 56.652 198.525 57.228C199.133 57.804 199.437 58.632 199.437 59.712C199.437 60.416 199.297 61.028 199.017 61.548C198.737 62.06 198.341 62.456 197.829 62.736C197.317 63.016 196.721 63.156 196.041 63.156ZM194.529 59.712C194.529 60.328 194.669 60.824 194.949 61.2C195.229 61.576 195.593 61.764 196.041 61.764C196.489 61.764 196.849 61.576 197.121 61.2C197.401 60.824 197.541 60.328 197.541 59.712C197.541 59.072 197.405 58.588 197.133 58.26C196.869 57.924 196.505 57.756 196.041 57.756C195.577 57.756 195.209 57.924 194.937 58.26C194.665 58.588 194.529 59.072 194.529 59.712ZM202.473 56.52V63H200.553V56.52H202.473ZM200.553 53.772H202.473V55.692H200.553V53.772ZM209.23 62.784C208.614 63.032 207.982 63.156 207.334 63.156C206.654 63.156 206.026 63.02 205.45 62.748C204.882 62.468 204.43 62.076 204.094 61.572C203.758 61.06 203.59 60.472 203.59 59.808C203.59 59.112 203.75 58.504 204.07 57.984C204.39 57.464 204.826 57.068 205.378 56.796C205.938 56.516 206.562 56.376 207.25 56.376C207.874 56.376 208.506 56.488 209.146 56.712V58.188C208.658 57.98 208.158 57.876 207.646 57.876C207.014 57.876 206.49 58.028 206.074 58.332C205.658 58.628 205.45 59.12 205.45 59.808C205.45 60.2 205.558 60.532 205.774 60.804C205.99 61.076 206.27 61.284 206.614 61.428C206.958 61.564 207.322 61.632 207.706 61.632C208.002 61.632 208.282 61.592 208.546 61.512C208.818 61.424 209.046 61.304 209.23 61.152V62.784ZM216.086 62.652C215.782 62.836 215.426 62.972 215.018 63.06C214.618 63.148 214.23 63.192 213.854 63.192C212.574 63.192 211.602 62.888 210.938 62.28C210.282 61.672 209.954 60.82 209.954 59.724C209.954 58.636 210.246 57.804 210.83 57.228C211.422 56.644 212.226 56.352 213.242 56.352C214.25 56.352 215.046 56.644 215.63 57.228C216.222 57.804 216.518 58.636 216.518 59.724C216.518 59.844 216.51 60.016 216.494 60.24H211.826C212.002 61.272 212.678 61.788 213.854 61.788C214.678 61.788 215.422 61.544 216.086 61.056V62.652ZM214.706 58.896C214.602 58.496 214.422 58.2 214.166 58.008C213.91 57.816 213.602 57.72 213.242 57.72C212.906 57.72 212.618 57.82 212.378 58.02C212.146 58.22 211.982 58.512 211.886 58.896H214.706Z" fill="#919191"/>
<path d="M106.648 31.784H106.504V41H103.96V29.8H108.552L110.072 37.816L110.104 37.976L110.136 37.816L111.656 29.8H116.248V41H113.704V31.784H113.576L111.656 41H108.552L106.648 31.784ZM124.019 41.016C123.848 40.696 123.747 40.3547 123.715 39.992C123.32 40.344 122.846 40.6373 122.291 40.872C121.747 41.096 121.208 41.208 120.675 41.208C119.854 41.208 119.198 40.968 118.707 40.488C118.227 40.008 117.987 39.3893 117.987 38.632V32.36H120.547V38.2C120.547 38.5093 120.648 38.7653 120.851 38.968C121.064 39.16 121.342 39.256 121.683 39.256C121.907 39.256 122.206 39.176 122.579 39.016C122.963 38.856 123.283 38.68 123.539 38.488V32.36H126.099V39.352C126.099 39.704 126.12 40.0027 126.163 40.248C126.206 40.4827 126.291 40.7387 126.419 41.016H124.019ZM131.178 41.192C130.528 41.224 129.866 41.1707 129.194 41.032C128.533 40.904 127.957 40.7013 127.466 40.424V38.12C127.904 38.44 128.426 38.7067 129.034 38.92C129.653 39.1227 130.197 39.208 130.666 39.176C130.997 39.1547 131.237 39.0853 131.386 38.968C131.536 38.84 131.621 38.712 131.642 38.584C131.696 38.2533 131.616 38.0027 131.402 37.832C131.189 37.6613 130.789 37.496 130.202 37.336C129.552 37.1547 129.034 36.9467 128.65 36.712C128.266 36.4667 127.973 36.1947 127.77 35.896C127.578 35.5867 127.482 35.1973 127.482 34.728C127.482 34.2373 127.61 33.8 127.866 33.416C128.122 33.0213 128.528 32.712 129.082 32.488C129.637 32.264 130.234 32.152 130.874 32.152C131.354 32.152 131.84 32.2 132.33 32.296C132.821 32.3813 133.232 32.4987 133.562 32.648V34.712C133.221 34.5413 132.816 34.392 132.346 34.264C131.888 34.1253 131.488 34.056 131.146 34.056C130.421 34.056 130.026 34.248 129.962 34.632C129.93 34.856 130.032 35.0533 130.266 35.224C130.512 35.3947 130.858 35.5493 131.306 35.688C131.946 35.8907 132.469 36.0987 132.874 36.312C133.29 36.5253 133.616 36.8027 133.85 37.144C134.085 37.4853 134.202 37.9227 134.202 38.456C134.202 39.2453 133.92 39.8907 133.354 40.392C132.789 40.8827 132.064 41.1493 131.178 41.192ZM138.131 32.36V41H135.571V32.36H138.131ZM135.571 28.696H138.131V31.256H135.571V28.696ZM147.141 40.712C146.319 41.0427 145.477 41.208 144.613 41.208C143.706 41.208 142.869 41.0267 142.101 40.664C141.343 40.2907 140.741 39.768 140.293 39.096C139.845 38.4133 139.621 37.6293 139.621 36.744C139.621 35.816 139.834 35.0053 140.261 34.312C140.687 33.6187 141.269 33.0907 142.005 32.728C142.751 32.3547 143.583 32.168 144.501 32.168C145.333 32.168 146.175 32.3173 147.029 32.616V34.584C146.378 34.3067 145.711 34.168 145.029 34.168C144.186 34.168 143.487 34.3707 142.933 34.776C142.378 35.1707 142.101 35.8267 142.101 36.744C142.101 37.2667 142.245 37.7093 142.533 38.072C142.821 38.4347 143.194 38.712 143.653 38.904C144.111 39.0853 144.597 39.176 145.109 39.176C145.503 39.176 145.877 39.1227 146.229 39.016C146.591 38.8987 146.895 38.7387 147.141 38.536V40.712ZM158.693 41.208C157.477 41.208 156.395 40.984 155.445 40.536C154.507 40.088 153.765 39.4373 153.221 38.584C152.688 37.7307 152.421 36.7173 152.421 35.544C152.421 34.3067 152.683 33.2453 153.205 32.36C153.728 31.464 154.459 30.7813 155.397 30.312C156.336 29.832 157.408 29.592 158.613 29.592C159.211 29.592 159.813 29.6507 160.421 29.768C161.029 29.8853 161.531 30.0347 161.925 30.216V32.2C160.848 31.8053 159.845 31.608 158.917 31.608C157.808 31.608 156.907 31.9333 156.213 32.584C155.531 33.2347 155.189 34.2213 155.189 35.544C155.189 36.248 155.36 36.872 155.701 37.416C156.043 37.9493 156.491 38.3653 157.045 38.664C157.6 38.9627 158.197 39.1333 158.837 39.176L159.189 39.192C159.68 39.192 160.165 39.1227 160.645 38.984C161.125 38.8453 161.552 38.6587 161.925 38.424V40.632C161.467 40.8453 160.976 40.9947 160.453 41.08C159.941 41.1653 159.355 41.208 158.693 41.208ZM166.079 28.712V33.288C166.463 32.968 166.889 32.7227 167.359 32.552C167.828 32.3707 168.303 32.28 168.783 32.28C169.604 32.28 170.255 32.52 170.735 33C171.225 33.48 171.471 34.104 171.471 34.872V41H168.911V35.304C168.911 34.9947 168.783 34.744 168.527 34.552C168.271 34.3493 167.967 34.248 167.615 34.248C167.412 34.248 167.161 34.312 166.863 34.44C166.564 34.568 166.303 34.728 166.079 34.92V41H163.519V28.712H166.079ZM176.746 41.208C175.935 41.208 175.226 41.016 174.618 40.632C174.02 40.248 173.556 39.72 173.226 39.048C172.906 38.376 172.746 37.592 172.746 36.696C172.746 35.8107 172.906 35.0267 173.226 34.344C173.556 33.6507 174.015 33.112 174.602 32.728C175.199 32.344 175.892 32.152 176.682 32.152C177.044 32.152 177.407 32.2213 177.77 32.36C178.143 32.488 178.49 32.6693 178.81 32.904V32.36H181.37V38.984C181.37 39.848 181.476 40.52 181.69 41H179.29C179.215 40.8507 179.151 40.6587 179.098 40.424C178.436 40.9467 177.652 41.208 176.746 41.208ZM175.194 36.696C175.194 37.1867 175.29 37.6347 175.482 38.04C175.684 38.4453 175.946 38.7707 176.266 39.016C176.596 39.2507 176.943 39.368 177.306 39.368C177.562 39.368 177.85 39.3147 178.17 39.208C178.49 39.0907 178.767 38.8453 179.002 38.472V34.888C178.767 34.5147 178.49 34.2747 178.17 34.168C177.86 34.0613 177.572 34.008 177.306 34.008C176.943 34.008 176.596 34.1253 176.266 34.36C175.946 34.5947 175.684 34.92 175.482 35.336C175.29 35.7413 175.194 36.1947 175.194 36.696ZM185.884 41.128C184.924 41.128 184.199 40.8613 183.708 40.328C183.217 39.784 182.972 38.9893 182.972 37.944V28.696H185.532V37.304C185.532 37.7307 185.564 38.056 185.628 38.28C185.692 38.504 185.799 38.6747 185.948 38.792C186.065 38.888 186.193 38.952 186.332 38.984C186.481 39.0053 186.737 39.016 187.1 39.016V41.128H185.884ZM190.978 41.128C190.018 41.128 189.292 40.8613 188.802 40.328C188.311 39.784 188.066 38.9893 188.066 37.944V28.696H190.626V37.304C190.626 37.7307 190.658 38.056 190.722 38.28C190.786 38.504 190.892 38.6747 191.042 38.792C191.159 38.888 191.287 38.952 191.426 38.984C191.575 39.0053 191.831 39.016 192.194 39.016V41.128H190.978ZM201.015 40.536C200.61 40.7813 200.135 40.9627 199.591 41.08C199.058 41.1973 198.541 41.256 198.039 41.256C196.333 41.256 195.037 40.8507 194.151 40.04C193.277 39.2293 192.839 38.0933 192.839 36.632C192.839 35.1813 193.229 34.072 194.007 33.304C194.797 32.5253 195.869 32.136 197.223 32.136C198.567 32.136 199.629 32.5253 200.407 33.304C201.197 34.072 201.591 35.1813 201.591 36.632C201.591 36.792 201.581 37.0213 201.559 37.32H195.335C195.57 38.696 196.471 39.384 198.039 39.384C199.138 39.384 200.13 39.0587 201.015 38.408V40.536ZM199.175 35.528C199.037 34.9947 198.797 34.6 198.455 34.344C198.114 34.088 197.703 33.96 197.223 33.96C196.775 33.96 196.391 34.0933 196.071 34.36C195.762 34.6267 195.543 35.016 195.415 35.528H199.175ZM205.438 32.328V33.368C205.833 33.0267 206.281 32.76 206.782 32.568C207.294 32.376 207.801 32.28 208.302 32.28C209.123 32.28 209.774 32.52 210.254 33C210.745 33.48 210.99 34.104 210.99 34.872V40.968H208.43V35.304C208.43 34.9947 208.302 34.744 208.046 34.552C207.79 34.3493 207.486 34.248 207.134 34.248C206.91 34.248 206.627 34.3227 206.286 34.472C205.955 34.6213 205.673 34.8027 205.438 35.016V40.968H202.878V32.328H205.438ZM216.405 44.648C215.754 44.648 215.098 44.6053 214.437 44.52C213.786 44.4347 213.2 44.312 212.677 44.152V42.056C213.818 42.312 214.96 42.44 216.101 42.44C216.826 42.44 217.376 42.28 217.749 41.96C218.122 41.64 218.309 41.1973 218.309 40.632C217.722 41.016 217.024 41.208 216.213 41.208C215.424 41.208 214.73 41.016 214.133 40.632C213.536 40.248 213.077 39.72 212.757 39.048C212.437 38.3653 212.277 37.5813 212.277 36.696C212.277 35.8107 212.437 35.0267 212.757 34.344C213.088 33.6507 213.546 33.112 214.133 32.728C214.73 32.344 215.424 32.152 216.213 32.152C216.949 32.152 217.648 32.3973 218.309 32.888V32.36H220.805V40.968C220.805 43.4213 219.338 44.648 216.405 44.648ZM214.725 36.696C214.725 37.1867 214.821 37.6347 215.013 38.04C215.216 38.4453 215.477 38.7707 215.797 39.016C216.128 39.2507 216.474 39.368 216.837 39.368C217.104 39.368 217.402 39.3093 217.733 39.192C218.064 39.064 218.346 38.8027 218.581 38.408L218.661 38.088V35.128C218.437 34.6693 218.149 34.3707 217.797 34.232C217.445 34.0827 217.125 34.008 216.837 34.008C216.474 34.008 216.128 34.1253 215.797 34.36C215.477 34.5947 215.216 34.92 215.013 35.336C214.821 35.7413 214.725 36.1947 214.725 36.696ZM230.265 40.536C229.86 40.7813 229.385 40.9627 228.841 41.08C228.308 41.1973 227.791 41.256 227.289 41.256C225.583 41.256 224.287 40.8507 223.401 40.04C222.527 39.2293 222.089 38.0933 222.089 36.632C222.089 35.1813 222.479 34.072 223.257 33.304C224.047 32.5253 225.119 32.136 226.473 32.136C227.817 32.136 228.879 32.5253 229.657 33.304C230.447 34.072 230.841 35.1813 230.841 36.632C230.841 36.792 230.831 37.0213 230.809 37.32H224.585C224.82 38.696 225.721 39.384 227.289 39.384C228.388 39.384 229.38 39.0587 230.265 38.408V40.536ZM228.425 35.528C228.287 34.9947 228.047 34.6 227.705 34.344C227.364 34.088 226.953 33.96 226.473 33.96C226.025 33.96 225.641 34.0933 225.321 34.36C225.012 34.6267 224.793 35.016 224.665 35.528H228.425Z" fill="#535353"/>
<ellipse cx="58.0222" cy="52.4999" rx="31.5" ry="20.5" transform="rotate(-11.7821 58.0222 52.4999)" fill="#F5A0CD"/>
<g filter="url(#filter1_f_733_3186)">
<ellipse cx="60" cy="75" rx="25" ry="8" fill="black" fill-opacity="0.3"/>
</g>
<rect x="295" y="1" width="34" height="16" rx="8" fill="#F16565"/>
<path d="M304.022 12C303.964 12 303.916 11.9813 303.878 11.944C303.841 11.9067 303.822 11.8587 303.822 11.8V6.6C303.822 6.54133 303.841 6.49333 303.878 6.456C303.916 6.41867 303.964 6.4 304.022 6.4H304.87C304.961 6.4 305.025 6.42133 305.062 6.464C305.105 6.50133 305.132 6.53067 305.142 6.552L307.094 9.632V6.6C307.094 6.54133 307.113 6.49333 307.15 6.456C307.188 6.41867 307.236 6.4 307.294 6.4H308.254C308.313 6.4 308.361 6.41867 308.398 6.456C308.436 6.49333 308.454 6.54133 308.454 6.6V11.8C308.454 11.8533 308.436 11.9013 308.398 11.944C308.361 11.9813 308.313 12 308.254 12H307.398C307.313 12 307.249 11.9787 307.206 11.936C307.169 11.8933 307.145 11.864 307.134 11.848L305.182 8.888V11.8C305.182 11.8587 305.164 11.9067 305.126 11.944C305.089 11.9813 305.041 12 304.982 12H304.022ZM309.772 12C309.714 12 309.666 11.9813 309.628 11.944C309.591 11.9067 309.572 11.8587 309.572 11.8V6.6C309.572 6.54133 309.591 6.49333 309.628 6.456C309.666 6.41867 309.714 6.4 309.772 6.4H313.508C313.567 6.4 313.615 6.41867 313.652 6.456C313.69 6.49333 313.708 6.54133 313.708 6.6V7.352C313.708 7.41067 313.69 7.45867 313.652 7.496C313.615 7.53333 313.567 7.552 313.508 7.552H310.956V8.632H313.332C313.391 8.632 313.439 8.65333 313.476 8.696C313.514 8.73333 313.532 8.78133 313.532 8.84V9.536C313.532 9.58933 313.514 9.63733 313.476 9.68C313.439 9.71733 313.391 9.736 313.332 9.736H310.956V10.848H313.572C313.631 10.848 313.679 10.8667 313.716 10.904C313.754 10.9413 313.772 10.9893 313.772 11.048V11.8C313.772 11.8587 313.754 11.9067 313.716 11.944C313.679 11.9813 313.631 12 313.572 12H309.772ZM315.578 12C315.487 12 315.415 11.9733 315.362 11.92C315.309 11.8667 315.277 11.8053 315.266 11.736L314.394 6.624C314.389 6.61333 314.386 6.60267 314.386 6.592C314.386 6.58133 314.386 6.57333 314.386 6.568C314.386 6.52533 314.402 6.488 314.434 6.456C314.471 6.41867 314.511 6.4 314.554 6.4H315.546C315.695 6.4 315.778 6.45867 315.794 6.576L316.314 9.704L316.89 7.856C316.906 7.81333 316.933 7.768 316.97 7.72C317.007 7.66667 317.069 7.64 317.154 7.64H317.73C317.821 7.64 317.885 7.66667 317.922 7.72C317.959 7.768 317.983 7.81333 317.994 7.856L318.57 9.696L319.09 6.576C319.106 6.45867 319.189 6.4 319.338 6.4H320.33C320.378 6.4 320.418 6.41867 320.45 6.456C320.482 6.488 320.498 6.52533 320.498 6.568C320.498 6.57333 320.498 6.58133 320.498 6.592C320.498 6.60267 320.498 6.61333 320.498 6.624L319.626 11.736C319.615 11.8053 319.583 11.8667 319.53 11.92C319.477 11.9733 319.405 12 319.314 12H318.554C318.463 12 318.394 11.976 318.346 11.928C318.298 11.88 318.266 11.8347 318.25 11.792L317.442 9.504L316.634 11.792C316.618 11.8347 316.586 11.88 316.538 11.928C316.495 11.976 316.429 12 316.338 12H315.578Z" fill="white"/>
<rect x="272.5" y="31.5" width="51" height="38" rx="19" fill="white" stroke="#E6E9F1" stroke-width="3"/>
<path fill-rule="evenodd" clip-rule="evenodd" d="M295.471 43.6032C294.406 42.9126 293 43.6765 293 44.9454V57.0841C293 58.3469 294.394 59.112 295.459 58.4336L304.901 52.4209C305.883 51.7952 305.889 50.3631 304.912 49.7291L295.471 43.6032Z" fill="#535353"/>
<defs>
<filter id="filter0_d_733_3186" x="0.3" y="0.3" width="361.4" height="109.4" filterUnits="userSpaceOnUse" color-interpolation-filters="sRGB">
<feFlood flood-opacity="0" result="BackgroundImageFix"/>
<feColorMatrix in="SourceAlpha" type="matrix" values="0 0 0 0 0 0 0 0 0 0 0 0 0 0 0 0 0 0 127 0" result="hardAlpha"/>
<feOffset dy="4"/>
<feGaussianBlur stdDeviation="5.35"/>
<feComposite in2="hardAlpha" operator="out"/>
<feColorMatrix type="matrix" values="0 0 0 0 0 0 0 0 0 0 0 0 0 0 0 0 0 0 0.15 0"/>
<feBlend mode="normal" in2="BackgroundImageFix" result="effect1_dropShadow_733_3186"/>
<feBlend mode="normal" in="SourceGraphic" in2="effect1_dropShadow_733_3186" result="shape"/>
</filter>
<filter id="filter1_f_733_3186" x="20" y="52" width="80" height="46" filterUnits="userSpaceOnUse" color-interpolation-filters="sRGB">
<feFlood flood-opacity="0" result="BackgroundImageFix"/>
<feBlend mode="normal" in="SourceGraphic" in2="BackgroundImageFix" result="shape"/>
<feGaussianBlur stdDeviation="7.5" result="effect1_foregroundBlur_733_3186"/>
</filter>
</defs>
</svg>
