<svg width="362" height="110" viewBox="0 0 362 110" fill="none" xmlns="http://www.w3.org/2000/svg">
<g filter="url(#filter0_d_663_3703)">
<rect x="11" y="7" width="340" height="88" rx="20" fill="white"/>
</g>
<path d="M112.276 57.216V59.436V59.736C113.684 60.808 114.472 62.296 114.64 64.2H113.272C113.128 63.096 112.684 62.148 111.94 61.356C111.7 62.372 111.26 63.32 110.62 64.2H106.168V62.952H107.428V59.472H103.48V58.224H107.428V54.768H103.6V53.52H109.276V54.768H108.868V58.224H109.516V59.472H108.868V64.068C109.524 63.26 110 62.48 110.296 61.728C110.592 60.976 110.74 60.212 110.74 59.436V57.216H112.276ZM103.852 59.796H107.044V62.652H103.852V59.796ZM103.852 55.092H107.044V57.9H103.852V55.092ZM105.868 61.62V60.816H105.04V61.62H105.868ZM105.868 56.868V56.124H105.04V56.868H105.868ZM109 57.228C109.568 55.86 109.908 54.504 110.02 53.16H111.568L111.496 53.892H114.544C114.432 55.012 114.196 56.124 113.836 57.228H112.3C112.516 56.636 112.696 56.036 112.84 55.428H111.22C111.084 55.996 110.888 56.596 110.632 57.228H109ZM126.388 64.2H123.664V62.64H124.852V55.068H119.404V53.592H126.388V64.2ZM115.42 56.82H118.288V61.872L119.416 61.488V63.276L116.68 64.2V58.416H115.42V56.82ZM117.88 53.4L118.708 56.004H117.076L116.248 53.4H117.88ZM119.536 55.932H124.24V57.3H119.536V55.932ZM119.668 58.176H123.688V62.352H119.668V58.176ZM122.272 60.96V59.568H121.084V60.96H122.272ZM135.688 63.144C134.736 63.752 133.424 64.108 131.752 64.212V62.82C132.624 62.772 133.356 62.648 133.948 62.448L132.016 61.668L132.628 60.24H131.632V58.872H133.216L133.672 57.828H131.74V56.436H132.94L132.592 55.236H131.86V53.868H134.332V53.208H135.868V53.868H138.34V55.236H137.704L137.26 56.436H138.46V57.828H135.28L134.824 58.872H138.568V60.24H137.872C137.576 60.992 137.24 61.604 136.864 62.076L138.424 62.688V64.236L135.688 63.144ZM127.552 59.04L128.86 58.704V56.52H127.672V55.008H128.86V53.34H130.408V55.008H131.308V56.52H130.408V58.308L131.308 58.08V59.748L130.408 59.976V64.2H127.876V62.688H128.86V60.372L127.552 60.708V59.04ZM135.472 61.536C135.84 61.184 136.132 60.752 136.348 60.24H134.212L133.912 60.924L135.472 61.536ZM134.44 56.436H135.784L136.228 55.236H134.092L134.44 56.436ZM139.408 62.376C140.6 61.936 141.488 61.268 142.072 60.372C142.656 59.468 142.956 58.28 142.972 56.808H139.6V55.248H142.972V53.28H144.52V55.248H150.4V56.808H147.544V59.328L149.956 58.224V59.88L147.544 60.984V62.424H150.64V63.984H145.996V61.692L143.992 62.604V60.948L145.996 60.036V56.808H144.52C144.512 58.08 144.336 59.184 143.992 60.12C143.648 61.056 143.104 61.864 142.36 62.544C141.616 63.216 140.632 63.788 139.408 64.26V62.376ZM148.312 53.376L148.648 54.936H147.16L146.824 53.376H148.312ZM153.424 61.032H155.272L153.76 64.584H152.356L153.424 61.032ZM163.281 62.556C164.761 61.972 165.917 61.124 166.749 60.012C167.581 58.892 167.997 57.528 167.997 55.92L167.985 53.364H169.641V55.92C169.641 57.528 170.053 58.892 170.877 60.012C171.709 61.124 172.865 61.972 174.345 62.556V64.344C173.025 63.92 171.897 63.316 170.961 62.532C170.033 61.748 169.317 60.824 168.812 59.76C168.309 60.824 167.589 61.748 166.653 62.532C165.725 63.316 164.601 63.92 163.281 64.344V62.556ZM179.169 64.32C179.633 63.392 179.965 62.512 180.165 61.68C180.373 60.84 180.477 59.912 180.477 58.896V53.712H185.301V62.628H186.369V64.2H183.753V55.32H182.025V58.896C182.025 59.928 181.937 60.86 181.761 61.692C181.593 62.524 181.301 63.4 180.885 64.32H179.169ZM175.208 63.576C175.641 61.416 175.857 59.096 175.857 56.616H177.141C177.141 59.264 176.953 61.584 176.576 63.576H175.208ZM175.533 54.636H177.561V53.34H179.073V54.636H180.213V56.124H179.073V57.588L180.021 58.176V59.988L179.073 59.4V64.2H177.561V56.124H175.533V54.636ZM190.389 58.416C191.093 58.032 191.693 57.576 192.189 57.048C192.685 56.52 193.101 55.892 193.437 55.164H190.641V53.676H197.961V55.164H194.997C194.813 55.66 194.609 56.112 194.385 56.52H194.961V62.184H193.437L193.424 57.912C192.617 58.864 191.605 59.616 190.389 60.168V58.416ZM187.173 56.82H190.149C190.149 57.836 190.113 58.752 190.041 59.568C189.969 60.376 189.849 61.184 189.681 61.992C190.033 62.192 190.425 62.336 190.857 62.424C191.297 62.504 191.829 62.544 192.453 62.544H198.333V64.08H192.453C191.717 64.08 191.105 64.036 190.617 63.948C190.129 63.868 189.689 63.728 189.297 63.528C189.241 63.72 189.201 63.844 189.177 63.9C189.137 64.052 189.109 64.152 189.093 64.2H187.437C187.813 63.152 188.089 62.18 188.265 61.284C188.441 60.388 188.549 59.42 188.589 58.38H187.173V56.82ZM189.285 53.4L190.113 56.004H188.493L187.665 53.4H189.285ZM195.441 57.048L198.213 58.428V60.084L195.441 58.716V57.048ZM209.145 53.496V58.092H200.481V53.496H209.145ZM199.329 64.2C199.825 63.584 200.177 62.952 200.385 62.304C200.601 61.648 200.721 60.936 200.745 60.168H202.269C202.245 60.856 202.185 61.428 202.089 61.884C202.361 62.124 202.653 62.308 202.965 62.436C203.285 62.556 203.653 62.636 204.069 62.676V59.868H199.677V58.536H210.069V59.868H205.629V60.528H209.229V61.872H205.629V62.7H210.213V64.116H204.729C203.985 64.116 203.381 64.052 202.917 63.924C202.461 63.796 202.049 63.572 201.681 63.252C201.561 63.548 201.397 63.864 201.189 64.2H199.329ZM207.597 56.844V56.328H202.029V56.844H207.597ZM207.597 55.272V54.744H202.029V55.272H207.597ZM222.213 53.52V54.972H218.661V55.62H221.517V60.504H218.709V64.2H217.305V60.504H214.401V55.62H217.173V54.972H213.441V58.332C213.441 59.452 213.389 60.484 213.285 61.428C213.189 62.372 213.025 63.296 212.793 64.2H211.173C211.453 63.248 211.649 62.324 211.761 61.428C211.873 60.524 211.929 59.492 211.929 58.332V53.52H222.213ZM214.029 64.092C214.405 62.98 214.593 61.916 214.593 60.9H215.985C215.985 62.012 215.833 63.076 215.529 64.092H214.029ZM220.005 59.256V58.632H215.913V59.256H220.005ZM220.005 57.504V56.88H215.913V57.504H220.005ZM221.421 60.9C221.421 61.916 221.609 62.98 221.985 64.092H220.485C220.181 63.076 220.029 62.012 220.029 60.9H221.421ZM223.173 64.2C223.557 63.352 223.825 62.528 223.977 61.728C224.137 60.92 224.217 60 224.217 58.968V57.552H233.805V61.332H225.621C225.477 62.372 225.241 63.328 224.913 64.2H223.173ZM223.293 53.616H228.009V53.232H229.617V53.616H234.333V55.044H229.617V55.62H233.733V57H223.893V55.62H228.009V55.044H223.293V53.616ZM228.333 59.868V59.016H225.753L225.741 59.868H228.333ZM232.269 59.868V59.016H229.868V59.868H232.269Z" fill="#919191"/>
<path d="M115.368 33.288V36.248V36.648C117.245 38.0773 118.296 40.0613 118.52 42.6H116.696C116.504 41.128 115.912 39.864 114.92 38.808C114.6 40.1627 114.013 41.4267 113.16 42.6H107.224V40.936H108.904V36.296H103.64V34.632H108.904V30.024H103.8V28.36H111.368V30.024H110.824V34.632H111.688V36.296H110.824V42.424C111.699 41.3467 112.333 40.3067 112.728 39.304C113.123 38.3013 113.32 37.2827 113.32 36.248V33.288H115.368ZM104.136 36.728H108.392V40.536H104.136V36.728ZM104.136 30.456H108.392V34.2H104.136V30.456ZM106.824 39.16V38.088H105.72V39.16H106.824ZM106.824 32.824V31.832H105.72V32.824H106.824ZM111 33.304C111.757 31.48 112.211 29.672 112.36 27.88H114.424L114.328 28.856H118.392C118.243 30.3493 117.928 31.832 117.448 33.304H115.4C115.688 32.5147 115.928 31.7147 116.12 30.904H113.96C113.779 31.6613 113.517 32.4613 113.176 33.304H111ZM123.144 40.552H126.248V37.912H119.64V35.912H126.248V34.12H121.128V32.168H126.248V30.456C124.2 30.5093 122.28 30.536 120.488 30.536V28.536C125.011 28.536 129.352 28.3707 133.512 28.04V30.04C132.083 30.1573 130.376 30.264 128.392 30.36V32.168H132.872V34.12H128.392V35.912H134.36V37.912H128.392V42.632H123.144V40.552ZM147.368 33.288V36.248V36.648C149.245 38.0773 150.296 40.0613 150.52 42.6H148.696C148.504 41.128 147.912 39.864 146.92 38.808C146.6 40.1627 146.013 41.4267 145.16 42.6H139.224V40.936H140.904V36.296H135.64V34.632H140.904V30.024H135.8V28.36H143.368V30.024H142.824V34.632H143.688V36.296H142.824V42.424C143.699 41.3467 144.333 40.3067 144.728 39.304C145.123 38.3013 145.32 37.2827 145.32 36.248V33.288H147.368ZM136.136 36.728H140.392V40.536H136.136V36.728ZM136.136 30.456H140.392V34.2H136.136V30.456ZM138.824 39.16V38.088H137.72V39.16H138.824ZM138.824 32.824V31.832H137.72V32.824H138.824ZM143 33.304C143.757 31.48 144.211 29.672 144.36 27.88H146.424L146.328 28.856H150.392C150.243 30.3493 149.928 31.832 149.448 33.304H147.4C147.688 32.5147 147.928 31.7147 148.12 30.904H145.96C145.779 31.6613 145.517 32.4613 145.176 33.304H143ZM156.104 29.352V27.88H158.088V29.352H159.912V27.88H161.896V29.352H165.832V42.472H152.168V29.352H156.104ZM156.104 40.424V36.936H154.216V40.424H156.104ZM156.104 34.92V31.4H154.216V34.92H156.104ZM159.912 40.424V36.936H158.088V40.424H159.912ZM159.912 34.92V31.4H158.088V34.92H159.912ZM163.784 40.424V36.936H161.896V40.424H163.784ZM163.784 34.92V31.4H161.896V34.92H163.784ZM172.072 40.552C173.181 39.9867 173.933 39.3733 174.328 38.712C174.723 38.04 174.936 37.3467 174.968 36.632L172.552 38.296V36.712L171.4 37.016V42.6H168.168V40.664H169.32V37.544L167.736 37.944V35.72L169.32 35.32V32.36H167.896V30.344H169.32V28.12H171.4V30.344H172.6V32.36H171.4V34.792L172.76 34.44V35.992L174.968 34.472V28.12H176.888V36.2C176.888 37.096 176.781 37.944 176.568 38.744C176.355 39.544 175.891 40.312 175.176 41.048C174.472 41.784 173.437 42.3547 172.072 42.76V40.552ZM174.344 28.776L174.872 33.592H173.224L172.696 28.776H174.344ZM178.008 28.12H179.928V34.856L182.296 36.6V38.824L179.928 37.08V40.504H182.52V42.552H178.008V28.12ZM180.696 28.776H182.344L181.736 33.592H180.088L180.696 28.776ZM198.36 42.888C196.749 42.408 195.496 41.6133 194.6 40.504C194.184 40.9093 193.72 41.2507 193.208 41.528C192.707 41.816 192.141 42.0827 191.512 42.328V39.976C192.355 39.6453 193.032 39.208 193.544 38.664C193.021 37.352 192.76 35.704 192.76 33.72H191.304V31.768H192.728V28.12H194.632V31.768H197.736V33.72H194.664C194.675 34.424 194.696 35.0213 194.728 35.512C194.76 36.0027 194.824 36.456 194.92 36.872C195.208 36.2853 195.432 35.5973 195.592 34.808H197.368C197.08 36.3227 196.584 37.688 195.88 38.904C196.435 39.5867 197.261 40.1413 198.36 40.568V42.888ZM184.104 34.696H186.264V28.12H188.312V30.168H191.096V32.248H188.312V34.696H190.712V42.44H184.104V34.696ZM188.728 40.376V36.76H186.088V40.376H188.728ZM196.648 28.472L197.224 31.256H195.48L194.92 28.472H196.648Z" fill="#535353"/>
<ellipse cx="58.0222" cy="52.4999" rx="31.5" ry="20.5" transform="rotate(-11.7821 58.0222 52.4999)" fill="#F5A0CD"/>
<g filter="url(#filter1_f_663_3703)">
<ellipse cx="60" cy="75" rx="25" ry="8" fill="black" fill-opacity="0.3"/>
</g>
<rect x="295" y="1" width="34" height="16" rx="8" fill="#F16565"/>
<path d="M304.022 12C303.964 12 303.916 11.9813 303.878 11.944C303.841 11.9067 303.822 11.8587 303.822 11.8V6.6C303.822 6.54133 303.841 6.49333 303.878 6.456C303.916 6.41867 303.964 6.4 304.022 6.4H304.87C304.961 6.4 305.025 6.42133 305.062 6.464C305.105 6.50133 305.132 6.53067 305.142 6.552L307.094 9.632V6.6C307.094 6.54133 307.113 6.49333 307.15 6.456C307.188 6.41867 307.236 6.4 307.294 6.4H308.254C308.313 6.4 308.361 6.41867 308.398 6.456C308.436 6.49333 308.454 6.54133 308.454 6.6V11.8C308.454 11.8533 308.436 11.9013 308.398 11.944C308.361 11.9813 308.313 12 308.254 12H307.398C307.313 12 307.249 11.9787 307.206 11.936C307.169 11.8933 307.145 11.864 307.134 11.848L305.182 8.888V11.8C305.182 11.8587 305.164 11.9067 305.126 11.944C305.089 11.9813 305.041 12 304.982 12H304.022ZM309.772 12C309.714 12 309.666 11.9813 309.628 11.944C309.591 11.9067 309.572 11.8587 309.572 11.8V6.6C309.572 6.54133 309.591 6.49333 309.628 6.456C309.666 6.41867 309.714 6.4 309.772 6.4H313.508C313.567 6.4 313.615 6.41867 313.652 6.456C313.69 6.49333 313.708 6.54133 313.708 6.6V7.352C313.708 7.41067 313.69 7.45867 313.652 7.496C313.615 7.53333 313.567 7.552 313.508 7.552H310.956V8.632H313.332C313.391 8.632 313.439 8.65333 313.476 8.696C313.514 8.73333 313.532 8.78133 313.532 8.84V9.536C313.532 9.58933 313.514 9.63733 313.476 9.68C313.439 9.71733 313.391 9.736 313.332 9.736H310.956V10.848H313.572C313.631 10.848 313.679 10.8667 313.716 10.904C313.754 10.9413 313.772 10.9893 313.772 11.048V11.8C313.772 11.8587 313.754 11.9067 313.716 11.944C313.679 11.9813 313.631 12 313.572 12H309.772ZM315.578 12C315.487 12 315.415 11.9733 315.362 11.92C315.309 11.8667 315.277 11.8053 315.266 11.736L314.394 6.624C314.389 6.61333 314.386 6.60267 314.386 6.592C314.386 6.58133 314.386 6.57333 314.386 6.568C314.386 6.52533 314.402 6.488 314.434 6.456C314.471 6.41867 314.511 6.4 314.554 6.4H315.546C315.695 6.4 315.778 6.45867 315.794 6.576L316.314 9.704L316.89 7.856C316.906 7.81333 316.933 7.768 316.97 7.72C317.007 7.66667 317.069 7.64 317.154 7.64H317.73C317.821 7.64 317.885 7.66667 317.922 7.72C317.959 7.768 317.983 7.81333 317.994 7.856L318.57 9.696L319.09 6.576C319.106 6.45867 319.189 6.4 319.338 6.4H320.33C320.378 6.4 320.418 6.41867 320.45 6.456C320.482 6.488 320.498 6.52533 320.498 6.568C320.498 6.57333 320.498 6.58133 320.498 6.592C320.498 6.60267 320.498 6.61333 320.498 6.624L319.626 11.736C319.615 11.8053 319.583 11.8667 319.53 11.92C319.477 11.9733 319.405 12 319.314 12H318.554C318.463 12 318.394 11.976 318.346 11.928C318.298 11.88 318.266 11.8347 318.25 11.792L317.442 9.504L316.634 11.792C316.618 11.8347 316.586 11.88 316.538 11.928C316.495 11.976 316.429 12 316.338 12H315.578Z" fill="white"/>
<rect x="272.5" y="31.5" width="51" height="38" rx="19" fill="white" stroke="#E6E9F1" stroke-width="3"/>
<path fill-rule="evenodd" clip-rule="evenodd" d="M295.471 43.6032C294.406 42.9126 293 43.6765 293 44.9454V57.0841C293 58.3469 294.394 59.112 295.459 58.4336L304.901 52.4209C305.883 51.7952 305.889 50.3631 304.912 49.7291L295.471 43.6032Z" fill="#535353"/>
<defs>
<filter id="filter0_d_663_3703" x="0.3" y="0.3" width="361.4" height="109.4" filterUnits="userSpaceOnUse" color-interpolation-filters="sRGB">
<feFlood flood-opacity="0" result="BackgroundImageFix"/>
<feColorMatrix in="SourceAlpha" type="matrix" values="0 0 0 0 0 0 0 0 0 0 0 0 0 0 0 0 0 0 127 0" result="hardAlpha"/>
<feOffset dy="4"/>
<feGaussianBlur stdDeviation="5.35"/>
<feComposite in2="hardAlpha" operator="out"/>
<feColorMatrix type="matrix" values="0 0 0 0 0 0 0 0 0 0 0 0 0 0 0 0 0 0 0.15 0"/>
<feBlend mode="normal" in2="BackgroundImageFix" result="effect1_dropShadow_663_3703"/>
<feBlend mode="normal" in="SourceGraphic" in2="effect1_dropShadow_663_3703" result="shape"/>
</filter>
<filter id="filter1_f_663_3703" x="20" y="52" width="80" height="46" filterUnits="userSpaceOnUse" color-interpolation-filters="sRGB">
<feFlood flood-opacity="0" result="BackgroundImageFix"/>
<feBlend mode="normal" in="SourceGraphic" in2="BackgroundImageFix" result="shape"/>
<feGaussianBlur stdDeviation="7.5" result="effect1_foregroundBlur_663_3703"/>
</filter>
</defs>
</svg>
