<svg width="192" height="231" viewBox="0 0 192 231" fill="none" xmlns="http://www.w3.org/2000/svg">
<g filter="url(#filter0_d_590_1708)">
<path d="M11 71C11 48.5979 11 37.3968 15.3597 28.8404C19.1947 21.3139 25.3139 15.1947 32.8404 11.3597C41.3968 7 52.5979 7 75 7H117C139.402 7 150.603 7 159.16 11.3597C166.686 15.1947 172.805 21.3139 176.64 28.8404C181 37.3968 181 48.5979 181 71V152C181 174.402 181 185.603 176.64 194.16C172.805 201.686 166.686 207.805 159.16 211.64C150.603 216 139.402 216 117 216H75C52.5979 216 41.3968 216 32.8404 211.64C25.3139 207.805 19.1947 201.686 15.3597 194.16C11 185.603 11 174.402 11 152V71Z" fill="white"/>
</g>
<path d="M17.6234 51C17.6234 32.2223 32.8457 17 51.6234 17H140.377C159.154 17 174.377 32.2223 174.377 51V81C174.377 92.0457 165.422 101 154.377 101H37.6234C26.5777 101 17.6234 92.0457 17.6234 81V51Z" fill="#A8C25E"/>
<path d="M17.6234 64.8889C17.6234 47.2712 17.6234 38.4624 20.8089 31.631C24.1871 24.3864 30.0098 18.5637 37.2544 15.1855C44.0858 12 52.8946 12 70.5123 12H121.488C139.105 12 147.914 12 154.746 15.1855C161.99 18.5637 167.813 24.3864 171.191 31.631C174.377 38.4624 174.377 47.2712 174.377 64.8889V64.8889C174.377 75.2522 174.377 80.4339 172.503 84.4524C170.516 88.7139 167.091 92.139 162.829 94.1262C158.811 96 153.629 96 143.266 96H48.7345C38.3712 96 33.1895 96 29.171 94.1262C24.9095 92.139 21.4844 88.7139 19.4973 84.4524C17.6234 80.4339 17.6234 75.2522 17.6234 64.8889V64.8889Z" fill="url(#paint0_linear_590_1708)"/>
<g style="mix-blend-mode:screen">
<path d="M95.3975 46.5654H98.7783L102.999 12H111.03L98.874 46.6562L102.14 47.1455L123.669 12.002C127.125 12.0031 130.224 12.0081 133.024 12.0479L102.189 47.248L105.12 48.1914L147.404 13.0107C150.198 13.4819 152.573 14.172 154.746 15.1855C155.13 15.3646 155.509 15.5525 155.885 15.7451L105.12 48.2969L107.513 49.6309L164.354 21.8965C165.862 23.3962 167.228 25.0377 168.434 26.7998L107.465 49.7334L109.159 51.3682L172.168 34.085C172.686 35.619 173.084 37.2719 173.388 39.1064L109.065 51.459L109.945 53.2832L174.107 46.2051C174.187 47.65 174.242 49.1917 174.281 50.8447L109.812 53.3584L109.816 55.2471L174.364 57.6475C174.371 59.1286 174.373 60.6841 174.374 62.3203L109.652 55.2998L108.783 57.126L174.367 69.5889C174.355 71.626 174.325 73.419 174.257 75.0186L108.601 57.1533L106.916 58.791L172.922 83.4482C172.793 83.7918 172.655 84.126 172.503 84.4521C171.697 86.1804 170.654 87.7706 169.415 89.1836L106.726 58.791L104.341 60.1299L159.432 95.2295C156.537 95.843 152.87 95.9672 147.592 95.9922L104.158 60.1025L101.233 61.0518L132.095 96H122.732L101.069 60.999L97.8047 61.4932L110.113 96H102.09L97.6699 61.4189L94.2881 61.4248L90.2627 96H82.2363L94.1924 61.333L90.9229 60.8506L69.6123 96H60.2393L90.8721 60.749L87.9375 59.8105L44.7432 95.9941C39.4319 95.9733 35.7278 95.8633 32.8086 95.2803L87.9365 59.7051L85.5352 58.374L22.6475 89.2549C21.3812 87.8242 20.3165 86.2094 19.4971 84.4521C19.3462 84.1285 19.2086 83.7969 19.0811 83.4561L85.584 58.2725L83.8799 56.6406L17.7383 74.9277C17.6709 73.3069 17.6418 71.4883 17.6309 69.4199L83.9736 56.5488L83.084 54.7266L17.626 62.0674C17.6269 60.4043 17.6291 58.8252 17.6367 57.3232L83.2168 54.6514L83.2012 52.7627L17.7285 50.4434C17.7719 48.7603 17.834 47.1941 17.9209 45.7285L83.3652 52.709L84.2236 50.8828L18.7061 38.5596C19.0387 36.7032 19.4733 35.033 20.042 33.4814L84.4053 50.8545L86.0811 49.2139L24 26.1807C25.2698 24.4109 26.7043 22.77 28.2832 21.2793L86.2705 49.2129L88.6484 47.8701L37.1201 15.249C37.1648 15.228 37.2092 15.2064 37.2539 15.1855C39.7959 14.0002 42.6121 13.2554 46.0537 12.7881L88.833 47.8965L91.751 46.9434L60.6729 12.0293C63.488 12.0026 66.591 12.0001 70.0342 12L91.916 46.9951L95.1777 46.4951L82.6709 12H91.1768L95.3975 46.5654Z" fill="url(#paint1_linear_590_1708)" fill-opacity="0.14"/>
</g>
<path d="M42.4857 80.195C41.3957 80.195 40.4357 79.975 39.6057 79.535C38.7857 79.095 38.1557 78.475 37.7157 77.675C37.2857 76.865 37.0707 75.915 37.0707 74.825C37.0707 73.755 37.2907 72.8 37.7307 71.96C38.1807 71.12 38.8157 70.47 39.6357 70.01C40.4657 69.54 41.4157 69.305 42.4857 69.305C43.5057 69.305 44.4307 69.535 45.2607 69.995C46.1007 70.455 46.7457 71.105 47.1957 71.945C47.6557 72.785 47.8857 73.745 47.8857 74.825C47.8857 75.995 47.6357 76.995 47.1357 77.825C46.6457 78.645 45.9507 79.255 45.0507 79.655C45.2907 80.125 45.5457 80.68 45.8157 81.32H43.5957C43.3757 80.84 43.1907 80.455 43.0407 80.165C42.8107 80.185 42.6257 80.195 42.4857 80.195ZM39.4407 74.825C39.4407 75.525 39.5657 76.14 39.8157 76.67C40.0757 77.19 40.4307 77.6 40.8807 77.9C41.3307 78.19 41.8657 78.335 42.4857 78.335C43.0957 78.335 43.6207 78.19 44.0607 77.9C44.5107 77.6 44.8607 77.19 45.1107 76.67C45.3707 76.14 45.5007 75.525 45.5007 74.825C45.5007 74.185 45.3757 73.59 45.1257 73.04C44.8857 72.48 44.5357 72.02 44.0757 71.66C43.6257 71.3 43.0857 71.12 42.4557 71.12C41.8657 71.12 41.3457 71.295 40.8957 71.645C40.4457 71.985 40.0907 72.435 39.8307 72.995C39.5707 73.545 39.4407 74.155 39.4407 74.825ZM54.8724 80.015C54.7124 79.715 54.6174 79.395 54.5874 79.055C54.2174 79.385 53.7724 79.66 53.2524 79.88C52.7424 80.09 52.2374 80.195 51.7374 80.195C50.9674 80.195 50.3524 79.97 49.8924 79.52C49.4424 79.07 49.2174 78.49 49.2174 77.78V71.9H51.6174V77.375C51.6174 77.665 51.7124 77.905 51.9024 78.095C52.1024 78.275 52.3624 78.365 52.6824 78.365C52.8924 78.365 53.1724 78.29 53.5224 78.14C53.8824 77.99 54.1824 77.825 54.4224 77.645V71.9H56.8224V78.455C56.8224 78.785 56.8424 79.065 56.8824 79.295C56.9224 79.515 57.0024 79.755 57.1224 80.015H54.8724ZM60.9241 71.9V80H58.5241V71.9H60.9241ZM58.5241 68.465H60.9241V70.865H58.5241V68.465ZM69.3711 79.73C68.6011 80.04 67.8111 80.195 67.0011 80.195C66.1511 80.195 65.3661 80.025 64.6461 79.685C63.9361 79.335 63.3711 78.845 62.9511 78.215C62.5311 77.575 62.3211 76.84 62.3211 76.01C62.3211 75.14 62.5211 74.38 62.9211 73.73C63.3211 73.08 63.8661 72.585 64.5561 72.245C65.2561 71.895 66.0361 71.72 66.8961 71.72C67.6761 71.72 68.4661 71.86 69.2661 72.14V73.985C68.6561 73.725 68.0311 73.595 67.3911 73.595C66.6011 73.595 65.9461 73.785 65.4261 74.165C64.9061 74.535 64.6461 75.15 64.6461 76.01C64.6461 76.5 64.7811 76.915 65.0511 77.255C65.3211 77.595 65.6711 77.855 66.1011 78.035C66.5311 78.205 66.9861 78.29 67.4661 78.29C67.8361 78.29 68.1861 78.24 68.5161 78.14C68.8561 78.03 69.1411 77.88 69.3711 77.69V79.73ZM70.5752 80V68.465H72.9752V74.54H73.3352L75.1952 71.9H77.7002L75.1052 75.44C75.6552 75.96 76.1502 76.59 76.5902 77.33C77.0302 78.07 77.4702 78.96 77.9102 80H75.6452C75.2052 79.04 74.8352 78.31 74.5352 77.81C74.2452 77.3 73.8652 76.835 73.3952 76.415H72.9752V80H70.5752ZM88.4341 80.195C87.2941 80.195 86.2791 79.985 85.3891 79.565C84.5091 79.145 83.8141 78.535 83.3041 77.735C82.8041 76.935 82.5541 75.985 82.5541 74.885C82.5541 73.725 82.7991 72.73 83.2891 71.9C83.7791 71.06 84.4641 70.42 85.3441 69.98C86.2241 69.53 87.2291 69.305 88.3591 69.305C88.9191 69.305 89.4841 69.36 90.0541 69.47C90.6241 69.58 91.0941 69.72 91.4641 69.89V71.75C90.4541 71.38 89.5141 71.195 88.6441 71.195C87.6041 71.195 86.7591 71.5 86.1091 72.11C85.4691 72.72 85.1491 73.645 85.1491 74.885C85.1491 75.545 85.3091 76.13 85.6291 76.64C85.9491 77.14 86.3691 77.53 86.8891 77.81C87.4091 78.09 87.9691 78.25 88.5691 78.29L88.8991 78.305C89.3591 78.305 89.8141 78.24 90.2641 78.11C90.7141 77.98 91.1141 77.805 91.4641 77.585V79.655C91.0341 79.855 90.5741 79.995 90.0841 80.075C89.6041 80.155 89.0541 80.195 88.4341 80.195ZM95.358 68.48V72.77C95.718 72.47 96.118 72.24 96.558 72.08C96.998 71.91 97.443 71.825 97.893 71.825C98.663 71.825 99.273 72.05 99.723 72.5C100.183 72.95 100.413 73.535 100.413 74.255V80H98.013V74.66C98.013 74.37 97.893 74.135 97.653 73.955C97.413 73.765 97.128 73.67 96.798 73.67C96.608 73.67 96.373 73.73 96.093 73.85C95.813 73.97 95.568 74.12 95.358 74.3V80H92.958V68.48H95.358ZM105.358 80.195C104.598 80.195 103.933 80.015 103.363 79.655C102.803 79.295 102.368 78.8 102.058 78.17C101.758 77.54 101.608 76.805 101.608 75.965C101.608 75.135 101.758 74.4 102.058 73.76C102.368 73.11 102.798 72.605 103.348 72.245C103.908 71.885 104.558 71.705 105.298 71.705C105.638 71.705 105.978 71.77 106.318 71.9C106.668 72.02 106.993 72.19 107.293 72.41V71.9H109.693V78.11C109.693 78.92 109.793 79.55 109.993 80H107.743C107.673 79.86 107.613 79.68 107.563 79.46C106.943 79.95 106.208 80.195 105.358 80.195ZM103.903 75.965C103.903 76.425 103.993 76.845 104.173 77.225C104.363 77.605 104.608 77.91 104.908 78.14C105.218 78.36 105.543 78.47 105.883 78.47C106.123 78.47 106.393 78.42 106.693 78.32C106.993 78.21 107.253 77.98 107.473 77.63V74.27C107.253 73.92 106.993 73.695 106.693 73.595C106.403 73.495 106.133 73.445 105.883 73.445C105.543 73.445 105.218 73.555 104.908 73.775C104.608 73.995 104.363 74.3 104.173 74.69C103.993 75.07 103.903 75.495 103.903 75.965ZM113.925 80.12C113.025 80.12 112.345 79.87 111.885 79.37C111.425 78.86 111.195 78.115 111.195 77.135V68.465H113.595V76.535C113.595 76.935 113.625 77.24 113.685 77.45C113.745 77.66 113.845 77.82 113.985 77.93C114.095 78.02 114.215 78.08 114.345 78.11C114.485 78.13 114.725 78.14 115.065 78.14V80.12H113.925ZM118.701 80.12C117.801 80.12 117.121 79.87 116.661 79.37C116.201 78.86 115.971 78.115 115.971 77.135V68.465H118.371V76.535C118.371 76.935 118.401 77.24 118.461 77.45C118.521 77.66 118.621 77.82 118.761 77.93C118.871 78.02 118.991 78.08 119.121 78.11C119.261 78.13 119.501 78.14 119.841 78.14V80.12H118.701ZM128.111 79.565C127.731 79.795 127.286 79.965 126.776 80.075C126.276 80.185 125.791 80.24 125.321 80.24C123.721 80.24 122.506 79.86 121.676 79.1C120.856 78.34 120.446 77.275 120.446 75.905C120.446 74.545 120.811 73.505 121.541 72.785C122.281 72.055 123.286 71.69 124.556 71.69C125.816 71.69 126.811 72.055 127.541 72.785C128.281 73.505 128.651 74.545 128.651 75.905C128.651 76.055 128.641 76.27 128.621 76.55H122.786C123.006 77.84 123.851 78.485 125.321 78.485C126.351 78.485 127.281 78.18 128.111 77.57V79.565ZM126.386 74.87C126.256 74.37 126.031 74 125.711 73.76C125.391 73.52 125.006 73.4 124.556 73.4C124.136 73.4 123.776 73.525 123.476 73.775C123.186 74.025 122.981 74.39 122.861 74.87H126.386ZM132.257 71.87V72.845C132.627 72.525 133.047 72.275 133.517 72.095C133.997 71.915 134.472 71.825 134.942 71.825C135.712 71.825 136.322 72.05 136.772 72.5C137.232 72.95 137.462 73.535 137.462 74.255V79.97H135.062V74.66C135.062 74.37 134.942 74.135 134.702 73.955C134.462 73.765 134.177 73.67 133.847 73.67C133.637 73.67 133.372 73.74 133.052 73.88C132.742 74.02 132.477 74.19 132.257 74.39V79.97H129.857V71.87H132.257ZM142.539 83.42C141.929 83.42 141.314 83.38 140.694 83.3C140.084 83.22 139.534 83.105 139.044 82.955V80.99C140.114 81.23 141.184 81.35 142.254 81.35C142.934 81.35 143.449 81.2 143.799 80.9C144.149 80.6 144.324 80.185 144.324 79.655C143.774 80.015 143.119 80.195 142.359 80.195C141.619 80.195 140.969 80.015 140.409 79.655C139.849 79.295 139.419 78.8 139.119 78.17C138.819 77.53 138.669 76.795 138.669 75.965C138.669 75.135 138.819 74.4 139.119 73.76C139.429 73.11 139.859 72.605 140.409 72.245C140.969 71.885 141.619 71.705 142.359 71.705C143.049 71.705 143.704 71.935 144.324 72.395V71.9H146.664V79.97C146.664 82.27 145.289 83.42 142.539 83.42ZM140.964 75.965C140.964 76.425 141.054 76.845 141.234 77.225C141.424 77.605 141.669 77.91 141.969 78.14C142.279 78.36 142.604 78.47 142.944 78.47C143.194 78.47 143.474 78.415 143.784 78.305C144.094 78.185 144.359 77.94 144.579 77.57L144.654 77.27V74.495C144.444 74.065 144.174 73.785 143.844 73.655C143.514 73.515 143.214 73.445 142.944 73.445C142.604 73.445 142.279 73.555 141.969 73.775C141.669 73.995 141.424 74.3 141.234 74.69C141.054 75.07 140.964 75.495 140.964 75.965ZM155.533 79.565C155.153 79.795 154.708 79.965 154.198 80.075C153.698 80.185 153.213 80.24 152.743 80.24C151.143 80.24 149.928 79.86 149.098 79.1C148.278 78.34 147.868 77.275 147.868 75.905C147.868 74.545 148.233 73.505 148.963 72.785C149.703 72.055 150.708 71.69 151.978 71.69C153.238 71.69 154.233 72.055 154.963 72.785C155.703 73.505 156.073 74.545 156.073 75.905C156.073 76.055 156.063 76.27 156.043 76.55H150.208C150.428 77.84 151.273 78.485 152.743 78.485C153.773 78.485 154.703 78.18 155.533 77.57V79.565ZM153.808 74.87C153.678 74.37 153.453 74 153.133 73.76C152.813 73.52 152.428 73.4 151.978 73.4C151.558 73.4 151.198 73.525 150.898 73.775C150.608 74.025 150.403 74.39 150.283 74.87H153.808Z" fill="#607611"/>
<rect x="47.4286" y="171" width="96.039" height="25" rx="12.5" fill="#E2DCDC"/>
<rect x="47.4286" y="167" width="96.039" height="25" rx="12.5" fill="#F5F1F1"/>
<path d="M80.3306 185.12C79.5306 185.12 78.8666 185.008 78.3386 184.784C77.8106 184.552 77.4106 184.252 77.1386 183.884C76.8666 183.516 76.7226 183.124 76.7066 182.708C76.7066 182.644 76.7306 182.588 76.7786 182.54C76.8346 182.484 76.8986 182.456 76.9706 182.456H78.4826C78.5946 182.456 78.6786 182.476 78.7346 182.516C78.7986 182.556 78.8546 182.608 78.9026 182.672C78.9666 182.792 79.0546 182.908 79.1666 183.02C79.2866 183.132 79.4386 183.224 79.6226 183.296C79.8146 183.36 80.0506 183.392 80.3306 183.392C80.7946 183.392 81.1426 183.32 81.3746 183.176C81.6146 183.032 81.7346 182.836 81.7346 182.588C81.7346 182.412 81.6706 182.268 81.5426 182.156C81.4146 182.036 81.2066 181.932 80.9186 181.844C80.6386 181.748 80.2626 181.652 79.7906 181.556C79.1826 181.428 78.6626 181.264 78.2306 181.064C77.8066 180.856 77.4826 180.588 77.2586 180.26C77.0346 179.924 76.9226 179.508 76.9226 179.012C76.9226 178.524 77.0586 178.088 77.3306 177.704C77.6106 177.32 77.9986 177.02 78.4946 176.804C78.9906 176.588 79.5786 176.48 80.2586 176.48C80.8106 176.48 81.2946 176.552 81.7106 176.696C82.1346 176.84 82.4906 177.032 82.7786 177.272C83.0666 177.512 83.2826 177.768 83.4266 178.04C83.5786 178.304 83.6586 178.564 83.6666 178.82C83.6666 178.884 83.6426 178.944 83.5946 179C83.5466 179.048 83.4866 179.072 83.4146 179.072H81.8306C81.7426 179.072 81.6666 179.056 81.6026 179.024C81.5386 178.992 81.4826 178.94 81.4346 178.868C81.3866 178.692 81.2586 178.54 81.0506 178.412C80.8506 178.276 80.5866 178.208 80.2586 178.208C79.9066 178.208 79.6306 178.272 79.4306 178.4C79.2386 178.52 79.1426 178.708 79.1426 178.964C79.1426 179.124 79.1946 179.264 79.2986 179.384C79.4106 179.504 79.5906 179.608 79.8386 179.696C80.0946 179.784 80.4426 179.876 80.8826 179.972C81.6106 180.108 82.1986 180.28 82.6466 180.488C83.0946 180.688 83.4226 180.952 83.6306 181.28C83.8386 181.6 83.9426 182.004 83.9426 182.492C83.9426 183.036 83.7866 183.508 83.4746 183.908C83.1706 184.3 82.7466 184.6 82.2026 184.808C81.6586 185.016 81.0346 185.12 80.3306 185.12ZM87.2098 185C87.1218 185 87.0498 184.972 86.9938 184.916C86.9378 184.86 86.9098 184.788 86.9098 184.7V178.484H84.7738C84.6858 178.484 84.6138 178.456 84.5578 178.4C84.5018 178.336 84.4738 178.264 84.4738 178.184V176.9C84.4738 176.812 84.5018 176.74 84.5578 176.684C84.6138 176.628 84.6858 176.6 84.7738 176.6H91.2298C91.3178 176.6 91.3898 176.628 91.4458 176.684C91.5018 176.74 91.5298 176.812 91.5298 176.9V178.184C91.5298 178.264 91.5018 178.336 91.4458 178.4C91.3898 178.456 91.3178 178.484 91.2298 178.484H89.0938V184.7C89.0938 184.788 89.0658 184.86 89.0098 184.916C88.9538 184.972 88.8818 185 88.7938 185H87.2098ZM91.285 185C91.221 185 91.161 184.976 91.105 184.928C91.057 184.872 91.033 184.812 91.033 184.748C91.033 184.708 91.037 184.672 91.045 184.64L93.865 176.936C93.889 176.848 93.937 176.772 94.009 176.708C94.089 176.636 94.197 176.6 94.333 176.6H96.109C96.245 176.6 96.349 176.636 96.421 176.708C96.501 176.772 96.553 176.848 96.577 176.936L99.385 184.64C99.401 184.672 99.409 184.708 99.409 184.748C99.409 184.812 99.381 184.872 99.325 184.928C99.277 184.976 99.217 185 99.145 185H97.669C97.549 185 97.457 184.972 97.393 184.916C97.337 184.852 97.301 184.796 97.285 184.748L96.817 183.524H93.613L93.157 184.748C93.141 184.796 93.105 184.852 93.049 184.916C92.993 184.972 92.897 185 92.761 185H91.285ZM94.105 181.796H96.337L95.209 178.628L94.105 181.796ZM100.655 185C100.567 185 100.495 184.972 100.439 184.916C100.383 184.86 100.355 184.788 100.355 184.7V176.9C100.355 176.812 100.383 176.74 100.439 176.684C100.495 176.628 100.567 176.6 100.655 176.6H103.919C104.951 176.6 105.763 176.84 106.355 177.32C106.955 177.792 107.255 178.464 107.255 179.336C107.255 179.904 107.115 180.384 106.835 180.776C106.563 181.168 106.203 181.464 105.755 181.664L107.411 184.616C107.435 184.664 107.447 184.708 107.447 184.748C107.447 184.812 107.419 184.872 107.363 184.928C107.315 184.976 107.255 185 107.183 185H105.599C105.447 185 105.335 184.964 105.263 184.892C105.191 184.812 105.139 184.74 105.107 184.676L103.739 182.036H102.503V184.7C102.503 184.788 102.475 184.86 102.419 184.916C102.363 184.972 102.291 185 102.203 185H100.655ZM102.503 180.344H103.895C104.271 180.344 104.551 180.252 104.735 180.068C104.927 179.884 105.023 179.632 105.023 179.312C105.023 179 104.931 178.748 104.747 178.556C104.571 178.364 104.287 178.268 103.895 178.268H102.503V180.344ZM110.718 185C110.63 185 110.558 184.972 110.502 184.916C110.446 184.86 110.418 184.788 110.418 184.7V178.484H108.282C108.194 178.484 108.122 178.456 108.066 178.4C108.01 178.336 107.982 178.264 107.982 178.184V176.9C107.982 176.812 108.01 176.74 108.066 176.684C108.122 176.628 108.194 176.6 108.282 176.6H114.738C114.826 176.6 114.898 176.628 114.954 176.684C115.01 176.74 115.038 176.812 115.038 176.9V178.184C115.038 178.264 115.01 178.336 114.954 178.4C114.898 178.456 114.826 178.484 114.738 178.484H112.602V184.7C112.602 184.788 112.574 184.86 112.518 184.916C112.462 184.972 112.39 185 112.302 185H110.718Z" fill="#737373"/>
<path d="M45.2165 128.182C44.1432 128.182 43.1445 128.023 42.2205 127.706V125.816C43.1259 126.217 44.0032 126.418 44.8525 126.418C45.4592 126.418 45.9305 126.259 46.2665 125.942C46.6025 125.615 46.7705 125.205 46.7705 124.71C46.7705 124.206 46.5932 123.795 46.2385 123.478C45.8839 123.161 45.4312 123.002 44.8805 123.002C44.1899 123.002 43.4199 123.179 42.5705 123.534L42.7105 118.2H48.2685V119.88H44.6005L44.5445 121.854C44.9272 121.807 45.3332 121.784 45.7625 121.784C46.3599 121.784 46.8825 121.91 47.3305 122.162C47.7879 122.405 48.1379 122.755 48.3805 123.212C48.6325 123.669 48.7585 124.201 48.7585 124.808C48.7585 125.489 48.6092 126.087 48.3105 126.6C48.0212 127.104 47.6105 127.496 47.0785 127.776C46.5465 128.047 45.9259 128.182 45.2165 128.182ZM60.2051 127.748C59.4864 128.037 58.7491 128.182 57.9931 128.182C57.1997 128.182 56.4671 128.023 55.7951 127.706C55.1324 127.379 54.6051 126.922 54.2131 126.334C53.8211 125.737 53.6251 125.051 53.6251 124.276C53.6251 123.464 53.8117 122.755 54.1851 122.148C54.5584 121.541 55.0671 121.079 55.7111 120.762C56.3644 120.435 57.0924 120.272 57.8951 120.272C58.6231 120.272 59.3604 120.403 60.1071 120.664V122.386C59.5377 122.143 58.9544 122.022 58.3571 122.022C57.6197 122.022 57.0084 122.199 56.5231 122.554C56.0377 122.899 55.7951 123.473 55.7951 124.276C55.7951 124.733 55.9211 125.121 56.1731 125.438C56.4251 125.755 56.7517 125.998 57.1531 126.166C57.5544 126.325 57.9791 126.404 58.4271 126.404C58.7724 126.404 59.0991 126.357 59.4071 126.264C59.7244 126.161 59.9904 126.021 60.2051 125.844V127.748ZM65.0249 128.182C64.2316 128.182 63.5316 128.019 62.9249 127.692C62.3276 127.365 61.8656 126.903 61.5389 126.306C61.2122 125.699 61.0489 124.985 61.0489 124.164C61.0489 122.904 61.4036 121.938 62.1129 121.266C62.8222 120.594 63.7929 120.258 65.0249 120.258C66.2476 120.258 67.2136 120.594 67.9229 121.266C68.6322 121.938 68.9869 122.904 68.9869 124.164C68.9869 124.985 68.8236 125.699 68.4969 126.306C68.1702 126.903 67.7082 127.365 67.1109 127.692C66.5136 128.019 65.8182 128.182 65.0249 128.182ZM63.2609 124.164C63.2609 124.883 63.4242 125.461 63.7509 125.9C64.0776 126.339 64.5022 126.558 65.0249 126.558C65.5476 126.558 65.9676 126.339 66.2849 125.9C66.6116 125.461 66.7749 124.883 66.7749 124.164C66.7749 123.417 66.6162 122.853 66.2989 122.47C65.9909 122.078 65.5662 121.882 65.0249 121.882C64.4836 121.882 64.0542 122.078 63.7369 122.47C63.4196 122.853 63.2609 123.417 63.2609 124.164ZM72.3463 120.412V121.322C72.6916 121.023 73.0836 120.79 73.5222 120.622C73.9703 120.454 74.4136 120.37 74.8523 120.37C75.5709 120.37 76.1403 120.58 76.5603 121C76.9896 121.42 77.2043 121.966 77.2043 122.638V127.972H74.9643V123.016C74.9643 122.745 74.8523 122.526 74.6283 122.358C74.4043 122.181 74.1383 122.092 73.8303 122.092C73.6343 122.092 73.3869 122.157 73.0883 122.288C72.7989 122.419 72.5516 122.577 72.3463 122.764V127.972H70.1063V120.412H72.3463ZM77.9802 120.44H80.2482L82.0542 126.628H82.1242L83.9442 120.44H86.1982L83.8042 128H80.3742L77.9802 120.44ZM93.5642 127.594C93.2096 127.809 92.7942 127.967 92.3182 128.07C91.8516 128.173 91.3989 128.224 90.9602 128.224C89.4669 128.224 88.3329 127.869 87.5582 127.16C86.7929 126.451 86.4102 125.457 86.4102 124.178C86.4102 122.909 86.7509 121.938 87.4322 121.266C88.1229 120.585 89.0609 120.244 90.2462 120.244C91.4222 120.244 92.3509 120.585 93.0322 121.266C93.7229 121.938 94.0682 122.909 94.0682 124.178C94.0682 124.318 94.0589 124.519 94.0402 124.78H88.5942C88.7996 125.984 89.5882 126.586 90.9602 126.586C91.9216 126.586 92.7896 126.301 93.5642 125.732V127.594ZM91.9542 123.212C91.8329 122.745 91.6229 122.4 91.3242 122.176C91.0256 121.952 90.6662 121.84 90.2462 121.84C89.8542 121.84 89.5182 121.957 89.2382 122.19C88.9676 122.423 88.7762 122.764 88.6642 123.212H91.9542ZM97.4341 120.44V121.252C97.6768 120.991 97.9661 120.79 98.3021 120.65C98.6475 120.501 98.9881 120.426 99.3241 120.426C99.5575 120.426 99.7768 120.459 99.9821 120.524V122.246C99.7208 122.181 99.4735 122.148 99.2401 122.148C98.8855 122.148 98.5495 122.209 98.2321 122.33C97.9148 122.442 97.6488 122.624 97.4341 122.876V128H95.1941V120.44H97.4341ZM103.947 128.168C103.378 128.196 102.799 128.149 102.211 128.028C101.632 127.916 101.128 127.739 100.699 127.496V125.48C101.082 125.76 101.539 125.993 102.071 126.18C102.612 126.357 103.088 126.432 103.499 126.404C103.788 126.385 103.998 126.325 104.129 126.222C104.26 126.11 104.334 125.998 104.353 125.886C104.4 125.597 104.33 125.377 104.143 125.228C103.956 125.079 103.606 124.934 103.093 124.794C102.524 124.635 102.071 124.453 101.735 124.248C101.399 124.033 101.142 123.795 100.965 123.534C100.797 123.263 100.713 122.923 100.713 122.512C100.713 122.083 100.825 121.7 101.049 121.364C101.273 121.019 101.628 120.748 102.113 120.552C102.598 120.356 103.121 120.258 103.681 120.258C104.101 120.258 104.526 120.3 104.955 120.384C105.384 120.459 105.744 120.561 106.033 120.692V122.498C105.734 122.349 105.38 122.218 104.969 122.106C104.568 121.985 104.218 121.924 103.919 121.924C103.284 121.924 102.939 122.092 102.883 122.428C102.855 122.624 102.944 122.797 103.149 122.946C103.364 123.095 103.667 123.231 104.059 123.352C104.619 123.529 105.076 123.711 105.431 123.898C105.795 124.085 106.08 124.327 106.285 124.626C106.49 124.925 106.593 125.307 106.593 125.774C106.593 126.465 106.346 127.029 105.851 127.468C105.356 127.897 104.722 128.131 103.947 128.168ZM110.828 128.182C110.119 128.182 109.498 128.014 108.966 127.678C108.444 127.342 108.038 126.88 107.748 126.292C107.468 125.704 107.328 125.018 107.328 124.234C107.328 123.459 107.468 122.773 107.748 122.176C108.038 121.569 108.439 121.098 108.952 120.762C109.475 120.426 110.082 120.258 110.772 120.258C111.09 120.258 111.407 120.319 111.724 120.44C112.051 120.552 112.354 120.711 112.634 120.916V120.44H114.874V126.236C114.874 126.992 114.968 127.58 115.154 128H113.054C112.989 127.869 112.933 127.701 112.886 127.496C112.308 127.953 111.622 128.182 110.828 128.182ZM109.47 124.234C109.47 124.663 109.554 125.055 109.722 125.41C109.9 125.765 110.128 126.049 110.408 126.264C110.698 126.469 111.001 126.572 111.318 126.572C111.542 126.572 111.794 126.525 112.074 126.432C112.354 126.329 112.597 126.115 112.802 125.788V122.652C112.597 122.325 112.354 122.115 112.074 122.022C111.804 121.929 111.552 121.882 111.318 121.882C111.001 121.882 110.698 121.985 110.408 122.19C110.128 122.395 109.9 122.68 109.722 123.044C109.554 123.399 109.47 123.795 109.47 124.234ZM116.864 120.44V118.284H118.964V120.44H120.42V122.148H118.964V125.396C118.964 125.667 118.983 125.872 119.02 126.012C119.067 126.152 119.146 126.25 119.258 126.306C119.37 126.353 119.534 126.376 119.748 126.376C119.888 126.376 120.005 126.371 120.098 126.362C120.201 126.353 120.29 126.339 120.364 126.32V128.042C119.972 128.089 119.608 128.112 119.272 128.112C118.628 128.112 118.148 128.047 117.83 127.916C117.513 127.785 117.27 127.561 117.102 127.244C116.944 126.917 116.864 126.455 116.864 125.858V122.148H115.772V120.44H116.864ZM123.825 120.44V128H121.585V120.44H123.825ZM121.585 117.234H123.825V119.474H121.585V117.234ZM129.105 128.182C128.312 128.182 127.612 128.019 127.005 127.692C126.408 127.365 125.946 126.903 125.619 126.306C125.292 125.699 125.129 124.985 125.129 124.164C125.129 122.904 125.484 121.938 126.193 121.266C126.902 120.594 127.873 120.258 129.105 120.258C130.328 120.258 131.294 120.594 132.003 121.266C132.712 121.938 133.067 122.904 133.067 124.164C133.067 124.985 132.904 125.699 132.577 126.306C132.25 126.903 131.788 127.365 131.191 127.692C130.594 128.019 129.898 128.182 129.105 128.182ZM127.341 124.164C127.341 124.883 127.504 125.461 127.831 125.9C128.158 126.339 128.582 126.558 129.105 126.558C129.628 126.558 130.048 126.339 130.365 125.9C130.692 125.461 130.855 124.883 130.855 124.164C130.855 123.417 130.696 122.853 130.379 122.47C130.071 122.078 129.646 121.882 129.105 121.882C128.564 121.882 128.134 122.078 127.817 122.47C127.5 122.853 127.341 123.417 127.341 124.164ZM136.426 120.412V121.322C136.772 121.023 137.164 120.79 137.602 120.622C138.05 120.454 138.494 120.37 138.932 120.37C139.651 120.37 140.22 120.58 140.64 121C141.07 121.42 141.284 121.966 141.284 122.638V127.972H139.044V123.016C139.044 122.745 138.932 122.526 138.708 122.358C138.484 122.181 138.218 122.092 137.91 122.092C137.714 122.092 137.467 122.157 137.168 122.288C136.879 122.419 136.632 122.577 136.426 122.764V127.972H134.186V120.412H136.426ZM145.728 128.168C145.159 128.196 144.58 128.149 143.992 128.028C143.414 127.916 142.91 127.739 142.48 127.496V125.48C142.863 125.76 143.32 125.993 143.852 126.18C144.394 126.357 144.87 126.432 145.28 126.404C145.57 126.385 145.78 126.325 145.91 126.222C146.041 126.11 146.116 125.998 146.134 125.886C146.181 125.597 146.111 125.377 145.924 125.228C145.738 125.079 145.388 124.934 144.874 124.794C144.305 124.635 143.852 124.453 143.516 124.248C143.18 124.033 142.924 123.795 142.746 123.534C142.578 123.263 142.494 122.923 142.494 122.512C142.494 122.083 142.606 121.7 142.83 121.364C143.054 121.019 143.409 120.748 143.894 120.552C144.38 120.356 144.902 120.258 145.462 120.258C145.882 120.258 146.307 120.3 146.736 120.384C147.166 120.459 147.525 120.561 147.814 120.692V122.498C147.516 122.349 147.161 122.218 146.75 122.106C146.349 121.985 145.999 121.924 145.7 121.924C145.066 121.924 144.72 122.092 144.664 122.428C144.636 122.624 144.725 122.797 144.93 122.946C145.145 123.095 145.448 123.231 145.84 123.352C146.4 123.529 146.858 123.711 147.212 123.898C147.576 124.085 147.861 124.327 148.066 124.626C148.272 124.925 148.374 125.307 148.374 125.774C148.374 126.465 148.127 127.029 147.632 127.468C147.138 127.897 146.503 128.131 145.728 128.168ZM73.4579 140.44V148H71.2179V140.44H73.4579ZM71.2179 137.234H73.4579V139.474H71.2179V137.234ZM77.2818 140.412V141.322C77.6271 141.023 78.0191 140.79 78.4578 140.622C78.9058 140.454 79.3491 140.37 79.7878 140.37C80.5065 140.37 81.0758 140.58 81.4958 141C81.9251 141.42 82.1398 141.966 82.1398 142.638V147.972H79.8998V143.016C79.8998 142.745 79.7878 142.526 79.5638 142.358C79.3398 142.181 79.0738 142.092 78.7658 142.092C78.5698 142.092 78.3225 142.157 78.0238 142.288C77.7345 142.419 77.4871 142.577 77.2818 142.764V147.972H75.0418V140.412H77.2818ZM90.2904 148.182C89.3104 148.182 88.3584 147.967 87.4344 147.538V145.606C87.8451 145.905 88.2838 146.129 88.7504 146.278C89.2264 146.418 89.6978 146.488 90.1644 146.488C90.6871 146.488 91.0884 146.376 91.3684 146.152C91.6484 145.919 91.7884 145.578 91.7884 145.13C91.7884 144.626 91.6158 144.248 91.2704 143.996C90.9251 143.735 90.4678 143.604 89.8984 143.604H88.4984V142.19H89.7584C90.3184 142.19 90.7524 142.069 91.0604 141.826C91.3684 141.574 91.5224 141.229 91.5224 140.79C91.5224 140.426 91.3824 140.141 91.1024 139.936C90.8224 139.731 90.4491 139.628 89.9824 139.628C89.6464 139.628 89.2731 139.675 88.8624 139.768C88.4518 139.852 88.0784 139.973 87.7424 140.132V138.62C88.1158 138.424 88.5311 138.275 88.9884 138.172C89.4551 138.069 89.9171 138.018 90.3744 138.018C91.3451 138.018 92.1151 138.251 92.6844 138.718C93.2538 139.175 93.5431 139.801 93.5524 140.594C93.5524 141.089 93.4218 141.532 93.1604 141.924C92.8991 142.316 92.5258 142.624 92.0404 142.848C92.6004 143.053 93.0298 143.366 93.3284 143.786C93.6364 144.206 93.7904 144.701 93.7904 145.27C93.7904 145.839 93.6458 146.343 93.3564 146.782C93.0764 147.221 92.6704 147.566 92.1384 147.818C91.6064 148.061 90.9904 148.182 90.2904 148.182ZM97.6802 140.426V141.224C98.0162 140.953 98.3896 140.743 98.8002 140.594C99.2109 140.445 99.6262 140.37 100.046 140.37C100.466 140.37 100.83 140.449 101.138 140.608C101.446 140.757 101.689 140.967 101.866 141.238C102.212 140.958 102.59 140.743 103 140.594C103.411 140.445 103.826 140.37 104.246 140.37C104.956 140.37 105.502 140.58 105.884 141C106.267 141.42 106.458 141.966 106.458 142.638V148H104.218V143.016C104.218 142.745 104.125 142.526 103.938 142.358C103.761 142.181 103.523 142.092 103.224 142.092C103.094 142.092 102.94 142.12 102.762 142.176C102.585 142.232 102.412 142.307 102.244 142.4C102.254 142.456 102.258 142.535 102.258 142.638V148H100.018V143.016C100.018 142.745 99.9249 142.526 99.7382 142.358C99.5609 142.181 99.3229 142.092 99.0242 142.092C98.8469 142.092 98.6276 142.143 98.3662 142.246C98.1049 142.349 97.8762 142.484 97.6802 142.652V148H95.4402V140.426H97.6802ZM110.276 140.44V148H108.036V140.44H110.276ZM108.036 137.234H110.276V139.474H108.036V137.234ZM114.1 140.412V141.322C114.445 141.023 114.837 140.79 115.276 140.622C115.724 140.454 116.167 140.37 116.606 140.37C117.325 140.37 117.894 140.58 118.314 141C118.743 141.42 118.958 141.966 118.958 142.638V147.972H116.718V143.016C116.718 142.745 116.606 142.526 116.382 142.358C116.158 142.181 115.892 142.092 115.584 142.092C115.388 142.092 115.141 142.157 114.842 142.288C114.553 142.419 114.305 142.577 114.1 142.764V147.972H111.86V140.412H114.1Z" fill="#A9BC63"/>
<g filter="url(#filter1_f_590_1708)">
<ellipse cx="102.071" cy="46" rx="27.0455" ry="14" fill="#8A9D54"/>
</g>
<defs>
<filter id="filter0_d_590_1708" x="0.3" y="0.3" width="191.4" height="230.4" filterUnits="userSpaceOnUse" color-interpolation-filters="sRGB">
<feFlood flood-opacity="0" result="BackgroundImageFix"/>
<feColorMatrix in="SourceAlpha" type="matrix" values="0 0 0 0 0 0 0 0 0 0 0 0 0 0 0 0 0 0 127 0" result="hardAlpha"/>
<feOffset dy="4"/>
<feGaussianBlur stdDeviation="5.35"/>
<feComposite in2="hardAlpha" operator="out"/>
<feColorMatrix type="matrix" values="0 0 0 0 0 0 0 0 0 0 0 0 0 0 0 0 0 0 0.15 0"/>
<feBlend mode="normal" in2="BackgroundImageFix" result="effect1_dropShadow_590_1708"/>
<feBlend mode="normal" in="SourceGraphic" in2="effect1_dropShadow_590_1708" result="shape"/>
</filter>
<filter id="filter1_f_590_1708" x="65.1259" y="22.1" width="73.8909" height="47.8" filterUnits="userSpaceOnUse" color-interpolation-filters="sRGB">
<feFlood flood-opacity="0" result="BackgroundImageFix"/>
<feBlend mode="normal" in="SourceGraphic" in2="BackgroundImageFix" result="shape"/>
<feGaussianBlur stdDeviation="4.95" result="effect1_foregroundBlur_590_1708"/>
</filter>
<linearGradient id="paint0_linear_590_1708" x1="36.9416" y1="3.38461" x2="176.22" y2="93.7294" gradientUnits="userSpaceOnUse">
<stop stop-color="#B8D65F"/>
<stop offset="1" stop-color="#EEE796"/>
</linearGradient>
<linearGradient id="paint1_linear_590_1708" x1="36.9416" y1="3.38462" x2="176.22" y2="93.7294" gradientUnits="userSpaceOnUse">
<stop stop-color="#B8D65F"/>
<stop offset="1" stop-color="#EEE796"/>
</linearGradient>
</defs>
</svg>



