<svg width="192" height="231" viewBox="0 0 192 231" fill="none" xmlns="http://www.w3.org/2000/svg">
<g filter="url(#filter0_d_590_1669)">
<path d="M11 71C11 48.5979 11 37.3968 15.3597 28.8404C19.1947 21.3139 25.3139 15.1947 32.8404 11.3597C41.3968 7 52.5979 7 75 7H117C139.402 7 150.603 7 159.16 11.3597C166.686 15.1947 172.805 21.3139 176.64 28.8404C181 37.3968 181 48.5979 181 71V152C181 174.402 181 185.603 176.64 194.16C172.805 201.686 166.686 207.805 159.16 211.64C150.603 216 139.402 216 117 216H75C52.5979 216 41.3968 216 32.8404 211.64C25.3139 207.805 19.1947 201.686 15.3597 194.16C11 185.603 11 174.402 11 152V71Z" fill="white"/>
</g>
<path d="M17.6234 51C17.6234 32.2223 32.8457 17 51.6234 17H140.377C159.154 17 174.377 32.2223 174.377 51V81C174.377 92.0457 165.422 101 154.377 101H37.6234C26.5777 101 17.6234 92.0457 17.6234 81V51Z" fill="#A8C25E"/>
<path d="M17.6234 64.8889C17.6234 47.2712 17.6234 38.4624 20.8089 31.631C24.1871 24.3864 30.0098 18.5637 37.2544 15.1855C44.0858 12 52.8946 12 70.5123 12H121.488C139.105 12 147.914 12 154.746 15.1855C161.99 18.5637 167.813 24.3864 171.191 31.631C174.377 38.4624 174.377 47.2712 174.377 64.8889C174.377 75.2522 174.377 80.4339 172.503 84.4524C170.516 88.7139 167.091 92.139 162.829 94.1262C158.811 96 153.629 96 143.266 96H48.7345C38.3712 96 33.1895 96 29.171 94.1262C24.9095 92.139 21.4844 88.7139 19.4973 84.4524C17.6234 80.4339 17.6234 75.2522 17.6234 64.8889Z" fill="url(#paint0_linear_590_1669)"/>
<g style="mix-blend-mode:screen">
<path d="M95.3975 46.5654H98.7783L102.999 12H111.03L98.874 46.6562L102.14 47.1455L123.669 12.002C127.125 12.0031 130.224 12.0081 133.024 12.0479L102.189 47.248L105.12 48.1914L147.404 13.0107C150.198 13.4819 152.573 14.172 154.746 15.1855C155.13 15.3646 155.509 15.5525 155.885 15.7451L105.12 48.2969L107.513 49.6309L164.354 21.8965C165.862 23.3962 167.228 25.0377 168.434 26.7998L107.465 49.7334L109.159 51.3682L172.168 34.085C172.686 35.619 173.084 37.2719 173.388 39.1064L109.065 51.459L109.945 53.2832L174.107 46.2051C174.187 47.65 174.242 49.1917 174.281 50.8447L109.812 53.3584L109.816 55.2471L174.364 57.6475C174.371 59.1286 174.373 60.6841 174.374 62.3203L109.652 55.2998L108.783 57.126L174.367 69.5889C174.355 71.626 174.325 73.419 174.257 75.0186L108.601 57.1533L106.916 58.791L172.922 83.4482C172.793 83.7918 172.655 84.126 172.503 84.4521C171.697 86.1804 170.654 87.7706 169.415 89.1836L106.726 58.791L104.341 60.1299L159.432 95.2295C156.537 95.843 152.87 95.9672 147.592 95.9922L104.158 60.1025L101.233 61.0518L132.095 96H122.732L101.069 60.999L97.8047 61.4932L110.113 96H102.09L97.6699 61.4189L94.2881 61.4248L90.2627 96H82.2363L94.1924 61.333L90.9229 60.8506L69.6123 96H60.2393L90.8721 60.749L87.9375 59.8105L44.7432 95.9941C39.4319 95.9733 35.7278 95.8633 32.8086 95.2803L87.9365 59.7051L85.5352 58.374L22.6475 89.2549C21.3812 87.8242 20.3165 86.2094 19.4971 84.4521C19.3462 84.1285 19.2086 83.7969 19.0811 83.4561L85.584 58.2725L83.8799 56.6406L17.7383 74.9277C17.6709 73.3069 17.6418 71.4883 17.6309 69.4199L83.9736 56.5488L83.084 54.7266L17.626 62.0674C17.6269 60.4043 17.6291 58.8252 17.6367 57.3232L83.2168 54.6514L83.2012 52.7627L17.7285 50.4434C17.7719 48.7603 17.834 47.1941 17.9209 45.7285L83.3652 52.709L84.2236 50.8828L18.7061 38.5596C19.0387 36.7032 19.4733 35.033 20.042 33.4814L84.4053 50.8545L86.0811 49.2139L24 26.1807C25.2698 24.4109 26.7043 22.77 28.2832 21.2793L86.2705 49.2129L88.6484 47.8701L37.1201 15.249C37.1648 15.228 37.2092 15.2064 37.2539 15.1855C39.7959 14.0002 42.6121 13.2554 46.0537 12.7881L88.833 47.8965L91.751 46.9434L60.6729 12.0293C63.488 12.0026 66.591 12.0001 70.0342 12L91.916 46.9951L95.1777 46.4951L82.6709 12H91.1768L95.3975 46.5654Z" fill="url(#paint1_linear_590_1669)" fill-opacity="0.14"/>
</g>
<path d="M74.292 81.836C73.536 80.192 72.876 78.044 72.312 75.392H71.214C70.95 76.688 70.656 77.864 70.332 78.92C70.02 79.976 69.648 80.948 69.216 81.836H66.696C67.644 79.736 68.37 77.588 68.874 75.392H67.056V73.628L65.508 72.656V81.944H63.222L63.204 65.456H65.508V70.01L67.182 71.054V73.088H69.99V69.362H67.416V67.058H69.99V65.42H72.33V67.058H76.578V73.088H77.442V75.392H74.652C75.168 77.612 75.888 79.76 76.812 81.836H74.292ZM60.612 75.23C60.864 73.058 60.99 70.742 60.99 68.282H62.682C62.682 70.718 62.58 73.034 62.376 75.23H60.612ZM74.346 73.088V69.362H72.258V73.088H74.346ZM95.28 79.37V81.62H86.46C85.332 81.62 84.39 81.548 83.634 81.404C82.89 81.272 82.218 81.05 81.618 80.738L81.312 81.8H78.81C79.386 80.24 79.806 78.788 80.07 77.444C80.346 76.088 80.514 74.63 80.574 73.07H78.54V70.73H82.896C82.896 72.254 82.842 73.628 82.734 74.852C82.626 76.064 82.446 77.276 82.194 78.488C82.746 78.8 83.352 79.028 84.012 79.172C84.684 79.304 85.5 79.37 86.46 79.37H95.28ZM81.708 65.6L82.95 69.506H80.52L79.278 65.6H81.708ZM83.256 78.542C83.976 77.294 84.396 76.004 84.516 74.672H86.694C86.55 76.136 86.208 77.426 85.668 78.542H83.256ZM83.562 66.14H88.188V65.42H90.492V66.14H94.938V68.228H90.492V69.2H94.578V74.258H90.456V78.668H88.224V74.258H84.102V69.2H88.188V68.228H83.562V66.14ZM88.224 72.35V71.108H86.298V72.35H88.224ZM92.382 72.35V71.108H90.456V72.35H92.382ZM94.164 74.672C94.284 76.004 94.704 77.294 95.424 78.542H93.012C92.472 77.426 92.13 76.136 91.986 74.672H94.164ZM101.706 79.496C102.954 78.86 103.8 78.17 104.244 77.426C104.688 76.67 104.928 75.89 104.964 75.086L102.246 76.958V75.176L100.95 75.518V81.8H97.314V79.622H98.61V76.112L96.828 76.562V74.06L98.61 73.61V70.28H97.008V68.012H98.61V65.51H100.95V68.012H102.3V70.28H100.95V73.016L102.48 72.62V74.366L104.964 72.656V65.51H107.124V74.6C107.124 75.608 107.004 76.562 106.764 77.462C106.524 78.362 106.002 79.226 105.198 80.054C104.406 80.882 103.242 81.524 101.706 81.98V79.496ZM104.262 66.248L104.856 71.666H103.002L102.408 66.248H104.262ZM108.384 65.51H110.544V73.088L113.208 75.05V77.552L110.544 75.59V79.442H113.46V81.746H108.384V65.51ZM111.408 66.248H113.262L112.578 71.666H110.724L111.408 66.248ZM131.28 82.124C129.468 81.584 128.058 80.69 127.05 79.442C126.582 79.898 126.06 80.282 125.484 80.594C124.92 80.918 124.284 81.218 123.576 81.494V78.848C124.524 78.476 125.286 77.984 125.862 77.372C125.274 75.896 124.98 74.042 124.98 71.81H123.342V69.614H124.944V65.51H127.086V69.614H130.578V71.81H127.122C127.134 72.602 127.158 73.274 127.194 73.826C127.23 74.378 127.302 74.888 127.41 75.356C127.734 74.696 127.986 73.922 128.166 73.034H130.164C129.84 74.738 129.282 76.274 128.49 77.642C129.114 78.41 130.044 79.034 131.28 79.514V82.124ZM115.242 72.908H117.672V65.51H119.976V67.814H123.108V70.154H119.976V72.908H122.676V81.62H115.242V72.908ZM120.444 79.298V75.23H117.474V79.298H120.444ZM129.354 65.906L130.002 69.038H128.04L127.41 65.906H129.354Z" fill="#607611"/>
<rect x="47.4286" y="171" width="96.039" height="25" rx="12.5" fill="#E2DCDC"/>
<rect x="47.4286" y="167" width="96.039" height="25" rx="12.5" fill="#F5F1F1"/>
<path d="M80.5474 181.208V179.684H75.0394V181.208H80.5474ZM81.9994 178.364V182.528H73.6834V178.364H77.0434V174.836H78.4954V175.892H82.7914V177.224H78.4954V178.364H81.9994ZM73.5154 185.996L72.1954 185.36C72.7834 184.832 73.3594 183.884 73.6954 183.02L75.0754 183.356C74.7274 184.316 74.1514 185.36 73.5154 185.996ZM75.6634 183.44L77.0194 183.308C77.1994 184.124 77.3314 185.156 77.3554 185.78L75.9034 185.96C75.9034 185.336 75.8074 184.268 75.6634 183.44ZM78.1114 183.452L79.4194 183.164C79.7914 183.92 80.1874 184.916 80.3314 185.54L78.9514 185.9C78.8194 185.276 78.4594 184.244 78.1114 183.452ZM80.5474 183.38L81.8314 182.924C82.4074 183.68 83.1034 184.724 83.4034 185.432L82.0234 185.96C81.7714 185.276 81.1234 184.184 80.5474 183.38ZM85.2874 176.48H94.4554V177.896H85.2874V176.48ZM84.4234 179.288H95.2474V180.728H84.4234V179.288ZM89.1274 174.812H90.6634V185.048H89.1274V174.812ZM92.7514 181.412H94.2514V186.08H92.7514V181.412ZM85.4194 181.436H86.9554V184.124H93.7954V185.528H85.4194V181.436ZM100.575 179.804H103.323V176.876H100.575V179.456V179.804ZM107.283 179.804V181.172H104.823V186.056H103.323V181.172H100.491C100.275 182.96 99.6034 184.784 97.5154 186.092C97.2754 185.768 96.7234 185.264 96.3634 185.024C98.1154 183.968 98.7634 182.588 98.9914 181.172H96.3994V179.804H99.1114V179.444V176.876H96.7954V175.532H106.923V176.876H104.823V179.804H107.283ZM112.923 178.784L113.907 178.736C114.339 177.56 114.771 176.012 114.999 174.836L116.583 175.112C116.199 176.3 115.743 177.608 115.299 178.652C115.995 178.616 116.727 178.568 117.471 178.532C117.219 178.088 116.955 177.656 116.691 177.272L117.819 176.696C118.563 177.704 119.355 179.036 119.643 179.948L118.407 180.608C118.335 180.356 118.239 180.08 118.107 179.78C116.319 179.924 114.435 180.056 113.067 180.152L112.923 178.784ZM111.579 178.532H110.523C110.319 179.432 110.103 180.32 109.899 181.136C110.211 181.328 110.535 181.544 110.859 181.772C111.207 180.848 111.435 179.756 111.579 178.532ZM112.143 177.188L112.995 177.32C112.863 179.504 112.539 181.244 111.999 182.636C112.527 183.068 112.983 183.5 113.283 183.884L112.431 185.024C112.179 184.688 111.807 184.292 111.375 183.896C110.811 184.82 110.091 185.54 109.203 186.092C108.999 185.732 108.615 185.216 108.339 184.952C109.131 184.532 109.791 183.872 110.295 182.996C110.055 182.804 109.803 182.612 109.563 182.444L109.443 182.864L108.291 182.24C108.579 181.256 108.903 179.924 109.203 178.532H108.327V177.224H109.479C109.647 176.396 109.803 175.58 109.923 174.836L111.267 174.968C111.135 175.676 110.979 176.444 110.811 177.224H111.903L112.143 177.188ZM117.555 182.324H115.035V184.292H117.555V182.324ZM113.691 186.044V181.04H118.971V185.996H117.555V185.576H115.035V186.044H113.691Z" fill="#737373"/>
<path d="M72.5694 127.182C71.4961 127.182 70.4974 127.023 69.5734 126.706V124.816C70.4787 125.217 71.3561 125.418 72.2054 125.418C72.8121 125.418 73.2834 125.259 73.6194 124.942C73.9554 124.615 74.1234 124.205 74.1234 123.71C74.1234 123.206 73.9461 122.795 73.5914 122.478C73.2367 122.161 72.7841 122.002 72.2334 122.002C71.5427 122.002 70.7727 122.179 69.9234 122.534L70.0634 117.2H75.6214V118.88H71.9534L71.8974 120.854C72.2801 120.807 72.6861 120.784 73.1154 120.784C73.7127 120.784 74.2354 120.91 74.6834 121.162C75.1407 121.405 75.4907 121.755 75.7334 122.212C75.9854 122.669 76.1114 123.201 76.1114 123.808C76.1114 124.489 75.9621 125.087 75.6634 125.6C75.3741 126.104 74.9634 126.496 74.4314 126.776C73.8994 127.047 73.2787 127.182 72.5694 127.182ZM90.2212 128.568C88.9239 128.223 87.8085 127.681 86.8752 126.944C85.9325 127.681 84.8125 128.223 83.5152 128.568V126.706C84.2899 126.445 84.9805 126.099 85.5872 125.67C84.6445 124.466 84.0565 123.001 83.8232 121.274H89.9132C89.6799 123.001 89.0919 124.466 88.1492 125.67C88.7559 126.099 89.4465 126.445 90.2212 126.706V128.568ZM77.3552 125.502L78.0552 125.432V115.94C79.8659 115.94 81.5925 115.879 83.2352 115.758V117.536C82.3019 117.601 81.1725 117.653 79.8472 117.69V118.894H82.7172V120.602H79.8472V121.82H82.7172V123.528H79.8472V125.25L83.0812 124.928V126.706L79.8472 127.028V128.4H78.0552V127.21L77.3552 127.28V125.502ZM83.2772 120.994C83.6785 120.387 83.9585 119.79 84.1172 119.202C84.2759 118.605 84.3552 117.928 84.3552 117.172V116.038H89.3812V119.104H90.2212V120.784H87.6032V117.83H86.1192C86.0632 118.931 85.7972 119.986 85.3212 120.994H83.2772ZM85.9932 122.828C86.2172 123.397 86.5065 123.925 86.8612 124.41C87.2252 123.943 87.5192 123.416 87.7432 122.828H85.9932ZM97.5012 120.574H99.2232L100.273 124.858H98.5512L97.5012 120.574ZM91.7472 116.696H97.1932L97.0952 118.208C97.0392 119.384 96.8899 120.457 96.6472 121.428C96.4045 122.389 96.0545 123.29 95.5972 124.13C96.0639 124.783 96.6659 125.399 97.4032 125.978V128.316C96.2739 127.476 95.3359 126.585 94.5892 125.642C93.8239 126.594 92.8812 127.485 91.7612 128.316V125.978C92.4985 125.399 93.1005 124.783 93.5672 124.13C93.1099 123.309 92.7599 122.422 92.5172 121.47C92.2839 120.518 92.1345 119.468 92.0692 118.32H91.7472V116.696ZM93.7912 118.32C93.8565 119.841 94.1225 121.171 94.5892 122.31C95.0465 121.162 95.3079 119.832 95.3732 118.32H93.7912ZM97.4452 117.424H101.267V115.8H103.059V117.424H104.291V119.216H103.059L103.045 128.4H99.8812V126.58H101.267V119.216H97.4452V117.424ZM117.899 128.26H110.479V122.73H113.265V121.022H110.059V119.342H113.279V117.704C112.337 117.741 111.385 117.76 110.423 117.76V116.08C111.534 116.08 112.864 116.047 114.413 115.982C115.972 115.917 117.153 115.828 117.955 115.716V117.396C117.283 117.499 116.327 117.578 115.085 117.634V119.342H118.319V121.022H115.071V122.73H117.899V128.26ZM105.411 119.79H108.575V125.698L109.933 125.236V127.322L106.741 128.4V121.652H105.411V119.79ZM108.015 115.8L108.981 118.838H107.077L106.111 115.8H108.015ZM116.079 126.566V124.424H112.299V126.566H116.079ZM58.4714 147.182C57.4914 147.182 56.5394 146.967 55.6154 146.538V144.606C56.0261 144.905 56.4647 145.129 56.9314 145.278C57.4074 145.418 57.8787 145.488 58.3454 145.488C58.8681 145.488 59.2694 145.376 59.5494 145.152C59.8294 144.919 59.9694 144.578 59.9694 144.13C59.9694 143.626 59.7967 143.248 59.4514 142.996C59.1061 142.735 58.6487 142.604 58.0794 142.604H56.6794V141.19H57.9394C58.4994 141.19 58.9334 141.069 59.2414 140.826C59.5494 140.574 59.7034 140.229 59.7034 139.79C59.7034 139.426 59.5634 139.141 59.2834 138.936C59.0034 138.731 58.6301 138.628 58.1634 138.628C57.8274 138.628 57.4541 138.675 57.0434 138.768C56.6327 138.852 56.2594 138.973 55.9234 139.132V137.62C56.2967 137.424 56.7121 137.275 57.1694 137.172C57.6361 137.069 58.0981 137.018 58.5554 137.018C59.5261 137.018 60.2961 137.251 60.8654 137.718C61.4347 138.175 61.7241 138.801 61.7334 139.594C61.7334 140.089 61.6027 140.532 61.3414 140.924C61.0801 141.316 60.7067 141.624 60.2214 141.848C60.7814 142.053 61.2107 142.366 61.5094 142.786C61.8174 143.206 61.9714 143.701 61.9714 144.27C61.9714 144.839 61.8267 145.343 61.5374 145.782C61.2574 146.221 60.8514 146.566 60.3194 146.818C59.7874 147.061 59.1714 147.182 58.4714 147.182ZM70.6352 146.622H72.5672L72.7352 142.73H69.4592C69.1232 144.251 68.4885 145.497 67.5552 146.468C66.6219 147.439 65.4039 148.101 63.9012 148.456V146.58C64.8999 146.3 65.7119 145.838 66.3372 145.194C66.9719 144.541 67.4105 143.719 67.6532 142.73H65.3712V141.19C64.8112 141.582 64.1812 141.918 63.4812 142.198V140.07C64.4145 139.631 65.1705 139.053 65.7492 138.334C66.3372 137.615 66.7805 136.724 67.0792 135.66H68.9692C68.4745 137.909 67.3919 139.669 65.7212 140.938H74.1212C72.4505 139.669 71.3679 137.909 70.8732 135.66H72.7632C73.0619 136.724 73.5005 137.615 74.0792 138.334C74.6672 139.053 75.4279 139.631 76.3612 140.07V142.198C75.7079 141.918 75.1292 141.615 74.6252 141.288L74.3592 148.4H70.6352V146.622ZM82.8432 137.494H85.6012V135.52H87.4212V137.494H90.1792V145.502H87.4212V148.68H85.6012V145.502H82.8432V137.494ZM77.3412 140.35C77.8732 138.819 78.1952 137.279 78.3072 135.73H80.1972C80.1692 136.131 80.1272 136.523 80.0712 136.906H82.3252V138.544H79.8052C79.7492 138.824 79.6699 139.165 79.5672 139.566H82.1292V141.204H80.7572V142.506H82.4652V144.144H80.7572V146.286L82.4512 145.894V147.728L78.9372 148.54V144.144H77.6212V142.506H78.9372V141.204H78.0412V140.35H77.3412ZM85.6712 143.682V139.314H84.5792V143.682H85.6712ZM88.4572 143.682V139.314H87.3512V143.682H88.4572ZM92.0412 137.424H97.0112L96.9972 135.534H98.8452V137.424H103.801V148.4H100.413V146.552H101.981V139.244H98.8872C98.9992 140.308 99.3025 141.218 99.7972 141.974C100.292 142.73 100.927 143.309 101.701 143.71V145.838C100.824 145.483 100.068 144.989 99.4332 144.354C98.7985 143.71 98.2945 142.959 97.9212 142.1C97.5479 142.959 97.0439 143.71 96.4092 144.354C95.7745 144.989 95.0185 145.483 94.1412 145.838V143.71C94.9159 143.309 95.5505 142.73 96.0452 141.974C96.5399 141.218 96.8432 140.308 96.9552 139.244H93.8612V148.4H92.0412V137.424ZM105.775 136.43H110.997V135.52H112.845V136.43H118.067V139.202H116.247V138.166H107.595V139.202H105.775V136.43ZM105.621 146.538C107.507 146.118 108.636 145.297 109.009 144.074H105.747V142.324H118.095V144.074H114.791V146.58H118.361V148.33H112.971V144.074H110.843C110.657 145.185 110.125 146.123 109.247 146.888C108.379 147.644 107.171 148.171 105.621 148.47V146.538ZM107.175 139.496H116.667V141.204H107.175V139.496ZM119.453 148.4C119.808 147.308 120.055 146.239 120.195 145.194C120.345 144.139 120.419 142.94 120.419 141.596V136.948H127.349L127.111 135.52H129.057L129.295 136.948H132.291V138.74H129.603L129.687 139.202C129.818 139.977 129.972 140.742 130.149 141.498L132.151 140.14V142.492L130.667 143.5C131.143 145.189 131.717 146.823 132.389 148.4H130.177C129.879 147.579 129.645 146.883 129.477 146.314L127.195 147.854V145.544L128.903 144.396C128.418 142.651 128.031 140.919 127.741 139.202L127.657 138.74H122.239V140.742H126.467V147.98H123.583V146.188H124.675V142.52H122.225C122.207 143.621 122.141 144.648 122.029 145.6C121.917 146.543 121.74 147.476 121.497 148.4H119.453ZM131.549 135.576L131.703 136.696H130.247L130.093 135.576H131.549Z" fill="#A9BC63"/>
<g filter="url(#filter1_f_590_1669)">
<ellipse cx="102.071" cy="46" rx="27.0455" ry="14" fill="#8A9D54"/>
</g>
<defs>
<filter id="filter0_d_590_1669" x="0.3" y="0.3" width="191.4" height="230.4" filterUnits="userSpaceOnUse" color-interpolation-filters="sRGB">
<feFlood flood-opacity="0" result="BackgroundImageFix"/>
<feColorMatrix in="SourceAlpha" type="matrix" values="0 0 0 0 0 0 0 0 0 0 0 0 0 0 0 0 0 0 127 0" result="hardAlpha"/>
<feOffset dy="4"/>
<feGaussianBlur stdDeviation="5.35"/>
<feComposite in2="hardAlpha" operator="out"/>
<feColorMatrix type="matrix" values="0 0 0 0 0 0 0 0 0 0 0 0 0 0 0 0 0 0 0.15 0"/>
<feBlend mode="normal" in2="BackgroundImageFix" result="effect1_dropShadow_590_1669"/>
<feBlend mode="normal" in="SourceGraphic" in2="effect1_dropShadow_590_1669" result="shape"/>
</filter>
<filter id="filter1_f_590_1669" x="65.1259" y="22.1" width="73.8909" height="47.8" filterUnits="userSpaceOnUse" color-interpolation-filters="sRGB">
<feFlood flood-opacity="0" result="BackgroundImageFix"/>
<feBlend mode="normal" in="SourceGraphic" in2="BackgroundImageFix" result="shape"/>
<feGaussianBlur stdDeviation="4.95" result="effect1_foregroundBlur_590_1669"/>
</filter>
<linearGradient id="paint0_linear_590_1669" x1="36.9416" y1="3.38461" x2="176.22" y2="93.7294" gradientUnits="userSpaceOnUse">
<stop stop-color="#B8D65F"/>
<stop offset="1" stop-color="#EEE796"/>
</linearGradient>
<linearGradient id="paint1_linear_590_1669" x1="36.9416" y1="3.38462" x2="176.22" y2="93.7294" gradientUnits="userSpaceOnUse">
<stop stop-color="#B8D65F"/>
<stop offset="1" stop-color="#EEE796"/>
</linearGradient>
</defs>
</svg>





