<svg width="318" height="212" viewBox="0 0 318 212" fill="none" xmlns="http://www.w3.org/2000/svg">
<rect x="214" y="80" width="104" height="132" fill="url(#paint0_linear_252_3004)"/>
<path d="M214 64H302.873L318 80H214L214 64Z" fill="url(#paint1_linear_252_3004)"/>
<path d="M263.625 149.78C259.425 149.78 255.345 148.86 251.385 147.02V138.74C253.145 140.02 255.025 140.98 257.025 141.62C259.065 142.22 261.085 142.52 263.085 142.52C265.325 142.52 267.045 142.04 268.245 141.08C269.445 140.08 270.045 138.62 270.045 136.7C270.045 134.54 269.305 132.92 267.825 131.84C266.345 130.72 264.385 130.16 261.945 130.16H255.945V124.1H261.345C263.745 124.1 265.605 123.58 266.925 122.54C268.245 121.46 268.905 119.98 268.905 118.1C268.905 116.54 268.305 115.32 267.105 114.44C265.905 113.56 264.305 113.12 262.305 113.12C260.865 113.12 259.265 113.32 257.505 113.72C255.745 114.08 254.145 114.6 252.705 115.28V108.8C254.305 107.96 256.085 107.32 258.045 106.88C260.045 106.44 262.025 106.22 263.985 106.22C268.145 106.22 271.445 107.22 273.885 109.22C276.325 111.18 277.565 113.86 277.605 117.26C277.605 119.38 277.045 121.28 275.925 122.96C274.805 124.64 273.205 125.96 271.125 126.92C273.525 127.8 275.365 129.14 276.645 130.94C277.965 132.74 278.625 134.86 278.625 137.3C278.625 139.74 278.005 141.9 276.765 143.78C275.565 145.66 273.825 147.14 271.545 148.22C269.265 149.26 266.625 149.78 263.625 149.78Z" fill="white"/>
<rect y="48" width="104" height="164" fill="url(#paint2_linear_252_3004)"/>
<path d="M14.1818 32H104V48H0L14.1818 32Z" fill="url(#paint3_linear_252_3004)"/>
<path d="M35.4463 129.76C39.6063 126.187 43.2596 122.88 46.4063 119.84C49.5529 116.8 52.3796 113.573 54.8863 110.16C57.3929 106.693 58.6463 103.68 58.6463 101.12C58.6463 98.5067 57.6863 96.48 55.7663 95.04C53.8463 93.5467 51.3396 92.8 48.2463 92.8C46.0596 92.8 43.6596 93.2267 41.0463 94.08C38.4863 94.9333 35.9529 96.1333 33.4463 97.68V88.4C36.0063 86.8 38.8863 85.4933 42.0863 84.48C45.3396 83.4667 48.4329 82.96 51.3663 82.96C57.3396 82.96 62.0596 84.4267 65.5263 87.36C69.0463 90.24 70.8063 94.1867 70.8063 99.2C70.8063 102.773 69.6063 106.613 67.2063 110.72C64.8063 114.773 62.0596 118.4 58.9663 121.6C55.8729 124.747 52.1929 128.213 47.9263 132L45.6063 130.4H71.2063V140H32.4063V132.32L35.4463 129.76Z" fill="white"/>
<rect x="104" y="16" width="110" height="196" fill="url(#paint4_linear_252_3004)"/>
<path d="M120 0H198L214 16H104L120 0Z" fill="url(#paint5_linear_252_3004)"/>
<path d="M156.608 73.1L143.708 78.5V63.9L160.908 54.1H171.408V124H156.608V73.1Z" fill="white"/>
<defs>
<linearGradient id="paint0_linear_252_3004" x1="266" y1="80" x2="266" y2="212" gradientUnits="userSpaceOnUse">
<stop stop-color="#F9C093"/>
<stop offset="1" stop-color="#CC7E54"/>
</linearGradient>
<linearGradient id="paint1_linear_252_3004" x1="266" y1="64" x2="266" y2="80" gradientUnits="userSpaceOnUse">
<stop stop-color="#F0BCA0"/>
<stop offset="1" stop-color="#DC8F63"/>
</linearGradient>
<linearGradient id="paint2_linear_252_3004" x1="52" y1="48" x2="52" y2="212" gradientUnits="userSpaceOnUse">
<stop stop-color="#E1DEFF"/>
<stop offset="1" stop-color="#7D76C3"/>
</linearGradient>
<linearGradient id="paint3_linear_252_3004" x1="52" y1="32" x2="52" y2="48" gradientUnits="userSpaceOnUse">
<stop stop-color="#DBD8FA"/>
<stop offset="1" stop-color="#B3AEE6"/>
</linearGradient>
<linearGradient id="paint4_linear_252_3004" x1="159" y1="16" x2="159" y2="153.837" gradientUnits="userSpaceOnUse">
<stop stop-color="#FCEED4"/>
<stop offset="1" stop-color="#F5DE9B"/>
</linearGradient>
<linearGradient id="paint5_linear_252_3004" x1="159" y1="0" x2="159" y2="16" gradientUnits="userSpaceOnUse">
<stop stop-color="#FDE7B5"/>
<stop offset="1" stop-color="#F3D68A"/>
</linearGradient>
</defs>
</svg>
