<svg width="164" height="109" viewBox="0 0 164 109" fill="none" xmlns="http://www.w3.org/2000/svg">
<rect y="12.4478" width="164" height="96.5518" rx="20" fill="#E2DCDC"/>
<rect width="164" height="96.5518" rx="20" fill="#F5F0F0"/>
<path d="M53.9217 60.69L55.0917 60.51V43.23H53.9217V39.42H67.0917V43.23H65.9817L65.8617 65.88H62.2617V63.3L53.9217 64.59V60.69ZM62.2617 59.4V56.58H58.8117V59.94L62.2617 59.4ZM62.2617 52.86V49.59H58.8117V52.86H62.2617ZM62.2617 45.87V43.23H58.8117V45.87H62.2617ZM66.9717 61.59C68.9917 60.17 70.7017 58.4 72.1017 56.28C70.3217 52.86 69.1417 48.88 68.5617 44.34H67.6017V40.5H80.2317C79.8517 46.68 78.5317 51.95 76.2717 56.31C77.6717 58.45 79.3617 60.21 81.3417 61.59V66.36C78.4817 64.6 76.0917 62.38 74.1717 59.7C72.2117 62.4 69.8117 64.62 66.9717 66.36V61.59ZM72.0417 44.34C72.5017 47.3 73.2217 49.96 74.2017 52.32C75.1817 50 75.9117 47.34 76.3917 44.34H72.0417ZM93.1017 45.81H99.8217L99.7017 38.85H103.542V45.81H110.742V66H106.812V61.56H97.0317V66H93.1017V45.81ZM83.7417 66C84.8617 63.78 85.7417 61.63 86.3817 59.55C87.0217 57.47 87.4817 55.36 87.7617 53.22H91.9017C91.5817 55.76 91.1217 58.07 90.5217 60.15C89.9417 62.21 89.1817 64.16 88.2417 66H83.7417ZM84.0117 46.05L91.7817 47.82V51.84L84.0117 50.13V46.05ZM84.6117 39L91.7217 40.68V44.76L84.6117 43.08V39ZM96.5817 39.15L98.0217 44.91H94.5117L93.0717 39.15H96.5817ZM106.812 58.02V55.5H97.0317V58.02H106.812ZM106.812 51.96V49.41H97.0317V51.96H106.812ZM107.232 39.15H110.742L109.332 44.91H105.792L107.232 39.15Z" fill="#737373"/>
</svg>

