<svg width="164" height="109" viewBox="0 0 164 109" fill="none" xmlns="http://www.w3.org/2000/svg">
<rect y="12.4478" width="164" height="96.5518" rx="20" fill="#E2DCDC"/>
<rect width="164" height="96.5518" rx="20" fill="#F5F0F0"/>
<path d="M42.772 60.338C40.796 60.338 39.0366 59.974 37.494 59.246C35.9686 58.518 34.764 57.4607 33.88 56.074C33.0133 54.6873 32.58 53.0407 32.58 51.134C32.58 49.1233 33.0046 47.3987 33.854 45.96C34.7033 44.504 35.8906 43.3947 37.416 42.632C38.9413 41.852 40.6833 41.462 42.642 41.462C43.6126 41.462 44.592 41.5573 45.58 41.748C46.568 41.9387 47.3826 42.1813 48.024 42.476V45.7C46.2733 45.0587 44.644 44.738 43.136 44.738C41.3333 44.738 39.8686 45.2667 38.742 46.324C37.6326 47.3813 37.078 48.9847 37.078 51.134C37.078 52.278 37.3553 53.292 37.91 54.176C38.4646 55.0427 39.1926 55.7187 40.094 56.204C40.9953 56.6893 41.966 56.9667 43.006 57.036L43.578 57.062C44.3753 57.062 45.164 56.9493 45.944 56.724C46.724 56.4987 47.4173 56.1953 48.024 55.814V59.402C47.2786 59.7487 46.4813 59.9913 45.632 60.13C44.8 60.2687 43.8466 60.338 42.772 60.338ZM61.6374 54.852H55.8134L54.4354 60H49.8854L55.1634 41.8H62.3134L67.5914 60H63.0154L61.6374 54.852ZM60.8054 51.732L58.7514 44.114H58.6994L56.6454 51.732H60.8054ZM74.0813 45.856H73.9253V60H69.7133V41.8H76.5513L80.8933 56.178H81.2313V41.8H85.4433V60H78.4493L74.0813 45.856ZM98.2251 60.338C96.2491 60.338 94.4898 59.974 92.9471 59.246C91.4218 58.518 90.2171 57.4607 89.3331 56.074C88.4664 54.6873 88.0331 53.0407 88.0331 51.134C88.0331 49.1233 88.4578 47.3987 89.3071 45.96C90.1564 44.504 91.3438 43.3947 92.8691 42.632C94.3944 41.852 96.1364 41.462 98.0951 41.462C99.0658 41.462 100.045 41.5573 101.033 41.748C102.021 41.9387 102.836 42.1813 103.477 42.476V45.7C101.726 45.0587 100.097 44.738 98.5891 44.738C96.7864 44.738 95.3218 45.2667 94.1951 46.324C93.0858 47.3813 92.5311 48.9847 92.5311 51.134C92.5311 52.278 92.8084 53.292 93.3631 54.176C93.9178 55.0427 94.6458 55.7187 95.5471 56.204C96.4484 56.6893 97.4191 56.9667 98.4591 57.036L99.0311 57.062C99.8284 57.062 100.617 56.9493 101.397 56.724C102.177 56.4987 102.87 56.1953 103.477 55.814V59.402C102.732 59.7487 101.934 59.9913 101.085 60.13C100.253 60.2687 99.2998 60.338 98.2251 60.338ZM106.327 41.8H119.119V45.336H110.617V49.236H118.001V52.538H110.617V56.464H119.119V60H106.327V41.8ZM125.749 41.8V56.49H133.107V60H121.459V41.8H125.749Z" fill="#737373"/>
</svg>
