<svg width="164" height="109" viewBox="0 0 164 109" fill="none" xmlns="http://www.w3.org/2000/svg">
<rect y="12.4478" width="164" height="96.5518" rx="20" fill="#656FD1"/>
<rect width="164" height="96.5518" rx="20" fill="#747FF0"/>
<path d="M42.318 60.312C42.1273 60.3293 41.8327 60.338 41.434 60.338C39.094 60.338 37.014 59.8353 35.194 58.83V55.008C36.1473 55.5973 37.196 56.0913 38.34 56.49C39.484 56.8887 40.524 57.088 41.46 57.088C42.2227 57.088 42.8207 56.8973 43.254 56.516C43.7047 56.1347 43.93 55.7013 43.93 55.216C43.93 54.54 43.67 53.9247 43.15 53.37C42.63 52.798 41.798 52.3387 40.654 51.992C39.3367 51.576 38.3053 51.16 37.56 50.744C36.832 50.3107 36.2773 49.7733 35.896 49.132C35.532 48.4907 35.35 47.676 35.35 46.688C35.35 45.752 35.5753 44.9027 36.026 44.14C36.4767 43.36 37.1353 42.736 38.002 42.268C38.886 41.8 39.9347 41.54 41.148 41.488C41.304 41.4707 41.5467 41.462 41.876 41.462C42.7773 41.462 43.6787 41.5573 44.58 41.748C45.4987 41.9213 46.27 42.1467 46.894 42.424V45.778C46.218 45.4833 45.4293 45.2407 44.528 45.05C43.6267 44.8593 42.8293 44.764 42.136 44.764C41.252 44.764 40.576 44.92 40.108 45.232C39.64 45.544 39.406 45.9773 39.406 46.532C39.406 47.0347 39.6573 47.4853 40.16 47.884C40.6627 48.2827 41.4427 48.664 42.5 49.028C43.7653 49.392 44.7967 49.808 45.594 50.276C46.3913 50.7267 47.0153 51.3247 47.466 52.07C47.9167 52.798 48.142 53.7167 48.142 54.826C48.142 55.8833 47.8993 56.8193 47.414 57.634C46.9287 58.4487 46.244 59.09 45.36 59.558C44.4933 60.0087 43.4793 60.26 42.318 60.312ZM58.5513 60.338C56.1073 60.338 54.1573 59.6793 52.7013 58.362C51.2627 57.0447 50.5433 55.2333 50.5433 52.928V41.8H54.8333V52.928C54.8333 53.6907 54.998 54.3493 55.3273 54.904C55.674 55.4587 56.1333 55.892 56.7053 56.204C57.2773 56.4987 57.8927 56.646 58.5513 56.646C59.2273 56.646 59.8427 56.4987 60.3973 56.204C60.9693 55.892 61.42 55.4587 61.7493 54.904C62.0787 54.332 62.2433 53.6733 62.2433 52.928V41.8H66.5333V52.928C66.5333 55.2333 65.8053 57.0447 64.3493 58.362C62.9107 59.6793 60.978 60.338 58.5513 60.338ZM69.6625 41.8H78.0345C79.7158 41.8 81.0418 42.216 82.0125 43.048C82.9831 43.8627 83.4685 45.0327 83.4685 46.558C83.4685 47.234 83.2518 47.8927 82.8185 48.534C82.3851 49.1753 81.8045 49.73 81.0765 50.198C82.1338 50.6487 82.9831 51.2813 83.6245 52.096C84.2658 52.9107 84.5865 53.786 84.5865 54.722C84.5865 56.334 84.0491 57.6167 82.9745 58.57C81.8998 59.5233 80.4525 60 78.6325 60H69.6625V41.8ZM77.5145 56.854C78.3811 56.854 79.0485 56.6113 79.5165 56.126C80.0018 55.6233 80.2445 54.9647 80.2445 54.15C80.2445 53.4913 79.9498 52.954 79.3605 52.538C78.7885 52.122 77.9218 51.914 76.7605 51.914H73.9525V56.854H77.5145ZM76.8905 49.392C77.6011 49.392 78.1558 49.1493 78.5545 48.664C78.9531 48.1613 79.1525 47.6153 79.1525 47.026C79.1525 46.3327 78.9445 45.7433 78.5285 45.258C78.1125 44.7553 77.4105 44.504 76.4225 44.504H73.9525V49.392H76.8905ZM91.55 45.024H91.316V60H87.182V41.8H94.644L97.114 54.826L97.166 55.086L97.218 54.826L99.688 41.8H107.15V60H103.016V45.024H102.808L99.688 60H94.644L91.55 45.024ZM110.34 41.8H114.63V60H110.34V41.8ZM116.71 41.8H130.386V45.31H125.706V60H121.39V45.31H116.71V41.8Z" fill="white"/>
</svg>
