<svg width="164" height="109" viewBox="0 0 164 109" fill="none" xmlns="http://www.w3.org/2000/svg">
<rect y="12.4478" width="164" height="96.5518" rx="20" fill="#656FD1"/>
<rect width="164" height="96.5518" rx="20" fill="#747FF0"/>
<path d="M54.7017 62.37H57.0117V56.46L53.8917 57.27V53.1L57.0117 52.29V46.8H54.1917V43.02H57.0117V38.85H60.9117V43.02H63.1017V46.8H60.9117V51.27L63.1017 50.7V54.87L60.9117 55.44V66H54.7017V62.37ZM62.0217 66C63.1617 64.3 63.9917 62.6 64.5117 60.9C65.0517 59.2 65.3517 57.41 65.4117 55.53H69.2217L69.1317 56.34C69.1117 56.54 69.0317 57.11 68.8917 58.05C68.7717 58.99 68.6117 59.88 68.4117 60.72C68.8117 61.04 69.2317 61.29 69.6717 61.47C70.1317 61.63 70.6817 61.75 71.3217 61.83V54.78H63.7617V51.36H81.1617V54.78H75.1617V56.67H80.5017V59.85H75.1617V61.98H81.3117V65.7H74.0217C72.4217 65.7 71.1117 65.6 70.0917 65.4C69.0917 65.22 68.1317 64.83 67.2117 64.23L66.4017 66H62.0217ZM65.3817 39.12H79.5417V50.19H65.3817V39.12ZM75.7017 47.43V45.9H69.2217V47.43H75.7017ZM75.7017 43.35V41.85H69.2217V43.35H75.7017ZM111.012 44.25H100.272C103.572 45.91 106.912 47.23 110.292 48.21V52.47C108.492 51.97 106.862 51.45 105.402 50.91C104.442 54.67 102.852 57.68 100.632 59.94C101.932 60.6 103.422 61.15 105.102 61.59C106.802 62.03 108.772 62.39 111.012 62.67V66.3C108.132 66.02 105.582 65.57 103.362 64.95C101.142 64.33 99.1917 63.5 97.5117 62.46C95.8317 63.5 93.8817 64.33 91.6617 64.95C89.4417 65.57 86.8917 66.02 84.0117 66.3V62.67C86.2517 62.39 88.2117 62.03 89.8917 61.59C91.5917 61.15 93.0917 60.6 94.3917 59.94C92.1717 57.68 90.5817 54.67 89.6217 50.91C88.1617 51.45 86.5317 51.97 84.7317 52.47V48.21C88.1117 47.23 91.4517 45.91 94.7517 44.25H84.0117V40.47H95.5317V38.4H99.4917V40.47H111.012V44.25ZM93.3717 50.55C94.2917 53.65 95.6717 56.06 97.5117 57.78C99.3517 56.06 100.732 53.65 101.652 50.55H104.472C102.932 49.93 101.412 49.24 99.9117 48.48V44.25H95.1117V48.48C93.6117 49.24 92.0917 49.93 90.5517 50.55H93.3717Z" fill="white"/>
</svg>

