<svg width="341" height="86" viewBox="0 0 341 86" fill="none" xmlns="http://www.w3.org/2000/svg">
<rect x="1.5" y="1.5" width="338" height="83" rx="22.5" fill="white"/>
<rect x="1.5" y="1.5" width="338" height="83" rx="22.5" stroke="#EAEEED" stroke-width="3"/>
<rect x="16" y="16" width="54" height="54" rx="16" fill="#F6F9F8"/>
<path d="M82.96 25.8H87.216C88.976 25.8 90.3147 26.296 91.232 27.288C92.1493 28.28 92.608 29.656 92.608 31.416C92.608 33.24 92.1493 34.6267 91.232 35.576C90.3147 36.5253 88.9547 37 87.152 37H82.96V25.8ZM87.248 35.016C87.696 35.016 88.1227 34.872 88.528 34.584C88.9333 34.296 89.2587 33.88 89.504 33.336C89.76 32.792 89.888 32.1573 89.888 31.432C89.888 30.7387 89.7653 30.12 89.52 29.576C89.2853 29.0213 88.9653 28.584 88.56 28.264C88.1547 27.944 87.7173 27.784 87.248 27.784H85.6V35.016H87.248ZM97.73 37.208C96.9193 37.208 96.21 37.016 95.602 36.632C95.0047 36.248 94.5407 35.72 94.21 35.048C93.89 34.376 93.73 33.592 93.73 32.696C93.73 31.8107 93.89 31.0267 94.21 30.344C94.5407 29.6507 94.9993 29.112 95.586 28.728C96.1833 28.344 96.8767 28.152 97.666 28.152C98.0287 28.152 98.3913 28.2213 98.754 28.36C99.1273 28.488 99.474 28.6693 99.794 28.904V28.36H102.354V34.984C102.354 35.848 102.461 36.52 102.674 37H100.274C100.199 36.8507 100.135 36.6587 100.082 36.424C99.4207 36.9467 98.6367 37.208 97.73 37.208ZM96.178 32.696C96.178 33.1867 96.274 33.6347 96.466 34.04C96.6687 34.4453 96.93 34.7707 97.25 35.016C97.5807 35.2507 97.9273 35.368 98.29 35.368C98.546 35.368 98.834 35.3147 99.154 35.208C99.474 35.0907 99.7513 34.8453 99.986 34.472V30.888C99.7513 30.5147 99.474 30.2747 99.154 30.168C98.8447 30.0613 98.5567 30.008 98.29 30.008C97.9273 30.008 97.5807 30.1253 97.25 30.36C96.93 30.5947 96.6687 30.92 96.466 31.336C96.274 31.7413 96.178 32.1947 96.178 32.696ZM106.724 28.36V37H104.164V28.36H106.724ZM104.164 24.696H106.724V27.256H104.164V24.696ZM111.446 37.128C110.486 37.128 109.761 36.8613 109.27 36.328C108.78 35.784 108.534 34.9893 108.534 33.944V24.696H111.094V33.304C111.094 33.7307 111.126 34.056 111.19 34.28C111.254 34.504 111.361 34.6747 111.51 34.792C111.628 34.888 111.756 34.952 111.894 34.984C112.044 35.0053 112.3 35.016 112.662 35.016V37.128H111.446ZM119.388 37.208C119.036 38.328 118.423 39.1653 117.548 39.72C116.673 40.296 115.377 40.6053 113.66 40.648V38.584C114.385 38.584 115.015 38.504 115.548 38.344C116.039 38.184 116.396 37.9707 116.62 37.704C116.855 37.4373 117.031 37.0907 117.148 36.664L117.356 35.928H115.948L112.828 28.36H115.436L117.772 34.424L119.468 28.36H122.124L119.388 37.208ZM133.193 37.208C131.977 37.208 130.895 36.984 129.945 36.536C129.007 36.088 128.265 35.4373 127.721 34.584C127.188 33.7307 126.921 32.7173 126.921 31.544C126.921 30.3067 127.183 29.2453 127.705 28.36C128.228 27.464 128.959 26.7813 129.897 26.312C130.836 25.832 131.908 25.592 133.113 25.592C133.711 25.592 134.313 25.6507 134.921 25.768C135.529 25.8853 136.031 26.0347 136.425 26.216V28.2C135.348 27.8053 134.345 27.608 133.417 27.608C132.308 27.608 131.407 27.9333 130.713 28.584C130.031 29.2347 129.689 30.2213 129.689 31.544C129.689 32.248 129.86 32.872 130.201 33.416C130.543 33.9493 130.991 34.3653 131.545 34.664C132.1 34.9627 132.697 35.1333 133.337 35.176L133.689 35.192C134.18 35.192 134.665 35.1227 135.145 34.984C135.625 34.8453 136.052 34.6587 136.425 34.424V36.632C135.967 36.8453 135.476 36.9947 134.953 37.08C134.441 37.1653 133.855 37.208 133.193 37.208ZM140.579 24.712V29.288C140.963 28.968 141.389 28.7227 141.859 28.552C142.328 28.3707 142.803 28.28 143.283 28.28C144.104 28.28 144.755 28.52 145.235 29C145.725 29.48 145.971 30.104 145.971 30.872V37H143.411V31.304C143.411 30.9947 143.283 30.744 143.027 30.552C142.771 30.3493 142.467 30.248 142.115 30.248C141.912 30.248 141.661 30.312 141.363 30.44C141.064 30.568 140.803 30.728 140.579 30.92V37H138.019V24.712H140.579ZM155.422 36.536C155.016 36.7813 154.542 36.9627 153.998 37.08C153.464 37.1973 152.947 37.256 152.446 37.256C150.739 37.256 149.443 36.8507 148.558 36.04C147.683 35.2293 147.246 34.0933 147.246 32.632C147.246 31.1813 147.635 30.072 148.414 29.304C149.203 28.5253 150.275 28.136 151.63 28.136C152.974 28.136 154.035 28.5253 154.814 29.304C155.603 30.072 155.998 31.1813 155.998 32.632C155.998 32.792 155.987 33.0213 155.966 33.32H149.742C149.976 34.696 150.878 35.384 152.446 35.384C153.544 35.384 154.536 35.0587 155.422 34.408V36.536ZM153.582 31.528C153.443 30.9947 153.203 30.6 152.862 30.344C152.52 30.088 152.11 29.96 151.63 29.96C151.182 29.96 150.798 30.0933 150.478 30.36C150.168 30.6267 149.95 31.016 149.822 31.528H153.582ZM164.484 36.712C163.663 37.0427 162.82 37.208 161.956 37.208C161.05 37.208 160.212 37.0267 159.444 36.664C158.687 36.2907 158.084 35.768 157.636 35.096C157.188 34.4133 156.964 33.6293 156.964 32.744C156.964 31.816 157.178 31.0053 157.604 30.312C158.031 29.6187 158.612 29.0907 159.348 28.728C160.095 28.3547 160.927 28.168 161.844 28.168C162.676 28.168 163.519 28.3173 164.372 28.616V30.584C163.722 30.3067 163.055 30.168 162.372 30.168C161.53 30.168 160.831 30.3707 160.276 30.776C159.722 31.1707 159.444 31.8267 159.444 32.744C159.444 33.2667 159.588 33.7093 159.876 34.072C160.164 34.4347 160.538 34.712 160.996 34.904C161.455 35.0853 161.94 35.176 162.452 35.176C162.847 35.176 163.22 35.1227 163.572 35.016C163.935 34.8987 164.239 34.7387 164.484 34.536V36.712ZM165.769 37V24.696H168.329V31.176H168.713L170.697 28.36H173.369L170.601 32.136C171.187 32.6907 171.715 33.3627 172.185 34.152C172.654 34.9413 173.123 35.8907 173.593 37H171.177C170.707 35.976 170.313 35.1973 169.993 34.664C169.683 34.12 169.278 33.624 168.777 33.176H168.329V37H165.769ZM179.718 31.16V33.016H174.806V31.16H179.718ZM184.365 28.36V37H181.805V28.36H184.365ZM181.805 24.696H184.365V27.256H181.805V24.696ZM188.735 28.328V29.368C189.13 29.0267 189.578 28.76 190.079 28.568C190.591 28.376 191.098 28.28 191.599 28.28C192.42 28.28 193.071 28.52 193.551 29C194.042 29.48 194.287 30.104 194.287 30.872V36.968H191.727V31.304C191.727 30.9947 191.599 30.744 191.343 30.552C191.087 30.3493 190.783 30.248 190.431 30.248C190.207 30.248 189.924 30.3227 189.583 30.472C189.252 30.6213 188.97 30.8027 188.735 31.016V36.968H186.175V28.328H188.735Z" fill="#535353"/>
<path d="M82.72 51.6H88.624V53.232H84.7V55.032H88.108V56.556H84.7V58.368H88.624V60H82.72V51.6ZM92.3444 60.156C91.7364 60.156 91.2044 60.012 90.7484 59.724C90.3004 59.436 89.9524 59.04 89.7044 58.536C89.4644 58.032 89.3444 57.444 89.3444 56.772C89.3444 56.108 89.4644 55.52 89.7044 55.008C89.9524 54.488 90.2964 54.084 90.7364 53.796C91.1844 53.508 91.7044 53.364 92.2964 53.364C92.5684 53.364 92.8404 53.416 93.1124 53.52C93.3924 53.616 93.6524 53.752 93.8924 53.928V53.52H95.8124V58.488C95.8124 59.136 95.8924 59.64 96.0524 60H94.2524C94.1964 59.888 94.1484 59.744 94.1084 59.568C93.6124 59.96 93.0244 60.156 92.3444 60.156ZM91.1804 56.772C91.1804 57.14 91.2524 57.476 91.3964 57.78C91.5484 58.084 91.7444 58.328 91.9844 58.512C92.2324 58.688 92.4924 58.776 92.7644 58.776C92.9564 58.776 93.1724 58.736 93.4124 58.656C93.6524 58.568 93.8604 58.384 94.0364 58.104V55.416C93.8604 55.136 93.6524 54.956 93.4124 54.876C93.1804 54.796 92.9644 54.756 92.7644 54.756C92.4924 54.756 92.2324 54.844 91.9844 55.02C91.7444 55.196 91.5484 55.44 91.3964 55.752C91.2524 56.056 91.1804 56.396 91.1804 56.772ZM98.9341 53.52V54.216C99.1421 53.992 99.3901 53.82 99.6781 53.7C99.9741 53.572 100.266 53.508 100.554 53.508C100.754 53.508 100.942 53.536 101.118 53.592V55.068C100.894 55.012 100.682 54.984 100.482 54.984C100.178 54.984 99.8901 55.036 99.6181 55.14C99.3461 55.236 99.1181 55.392 98.9341 55.608V60H97.0141V53.52H98.9341ZM103.833 53.496V54.276C104.129 54.02 104.465 53.82 104.84 53.676C105.225 53.532 105.605 53.46 105.981 53.46C106.597 53.46 107.085 53.64 107.445 54C107.813 54.36 107.997 54.828 107.997 55.404V59.976H106.077V55.728C106.077 55.496 105.981 55.308 105.789 55.164C105.597 55.012 105.369 54.936 105.105 54.936C104.937 54.936 104.725 54.992 104.469 55.104C104.221 55.216 104.009 55.352 103.833 55.512V59.976H101.913V53.496H103.833ZM117.719 59.784C117.103 60.032 116.471 60.156 115.823 60.156C115.143 60.156 114.515 60.02 113.939 59.748C113.371 59.468 112.919 59.076 112.583 58.572C112.247 58.06 112.079 57.472 112.079 56.808C112.079 56.112 112.239 55.504 112.559 54.984C112.879 54.464 113.315 54.068 113.867 53.796C114.427 53.516 115.051 53.376 115.739 53.376C116.363 53.376 116.995 53.488 117.635 53.712V55.188C117.147 54.98 116.647 54.876 116.135 54.876C115.503 54.876 114.979 55.028 114.563 55.332C114.147 55.628 113.939 56.12 113.939 56.808C113.939 57.2 114.047 57.532 114.263 57.804C114.479 58.076 114.759 58.284 115.103 58.428C115.447 58.564 115.811 58.632 116.195 58.632C116.491 58.632 116.771 58.592 117.035 58.512C117.307 58.424 117.535 58.304 117.719 58.152V59.784ZM121.85 60.156C121.17 60.156 120.57 60.016 120.05 59.736C119.538 59.456 119.142 59.06 118.862 58.548C118.582 58.028 118.442 57.416 118.442 56.712C118.442 55.632 118.746 54.804 119.354 54.228C119.962 53.652 120.794 53.364 121.85 53.364C122.898 53.364 123.726 53.652 124.334 54.228C124.942 54.804 125.246 55.632 125.246 56.712C125.246 57.416 125.106 58.028 124.826 58.548C124.546 59.06 124.15 59.456 123.638 59.736C123.126 60.016 122.53 60.156 121.85 60.156ZM120.338 56.712C120.338 57.328 120.478 57.824 120.758 58.2C121.038 58.576 121.402 58.764 121.85 58.764C122.298 58.764 122.658 58.576 122.93 58.2C123.21 57.824 123.35 57.328 123.35 56.712C123.35 56.072 123.214 55.588 122.942 55.26C122.678 54.924 122.314 54.756 121.85 54.756C121.386 54.756 121.018 54.924 120.746 55.26C120.474 55.588 120.338 56.072 120.338 56.712ZM128.281 53.52V60H126.361V53.52H128.281ZM126.361 50.772H128.281V52.692H126.361V50.772ZM131.559 53.496V54.276C131.855 54.02 132.191 53.82 132.567 53.676C132.951 53.532 133.331 53.46 133.707 53.46C134.323 53.46 134.811 53.64 135.171 54C135.539 54.36 135.723 54.828 135.723 55.404V59.976H133.803V55.728C133.803 55.496 133.707 55.308 133.515 55.164C133.323 55.012 133.095 54.936 132.831 54.936C132.663 54.936 132.451 54.992 132.195 55.104C131.947 55.216 131.735 55.352 131.559 55.512V59.976H129.639V53.496H131.559ZM141.965 53.52V54.216C142.173 53.992 142.421 53.82 142.709 53.7C143.005 53.572 143.297 53.508 143.585 53.508C143.785 53.508 143.973 53.536 144.149 53.592V55.068C143.925 55.012 143.713 54.984 143.513 54.984C143.209 54.984 142.921 55.036 142.649 55.14C142.377 55.236 142.149 55.392 141.965 55.608V60H140.045V53.52H141.965ZM150.601 59.652C150.297 59.836 149.941 59.972 149.533 60.06C149.133 60.148 148.745 60.192 148.369 60.192C147.089 60.192 146.117 59.888 145.453 59.28C144.797 58.672 144.469 57.82 144.469 56.724C144.469 55.636 144.761 54.804 145.345 54.228C145.937 53.644 146.741 53.352 147.757 53.352C148.765 53.352 149.561 53.644 150.145 54.228C150.737 54.804 151.033 55.636 151.033 56.724C151.033 56.844 151.025 57.016 151.009 57.24H146.341C146.517 58.272 147.193 58.788 148.369 58.788C149.193 58.788 149.937 58.544 150.601 58.056V59.652ZM149.221 55.896C149.117 55.496 148.937 55.2 148.681 55.008C148.425 54.816 148.117 54.72 147.757 54.72C147.421 54.72 147.133 54.82 146.893 55.02C146.661 55.22 146.497 55.512 146.401 55.896H149.221ZM156.585 55.74H156.525L155.649 60H153.381L151.461 53.52H153.357L154.533 58.392H154.581L155.709 53.52H157.425L158.541 58.392H158.589L159.765 53.52H161.661L159.741 60H157.473L156.585 55.74ZM165.083 60.156C164.475 60.156 163.943 60.012 163.487 59.724C163.039 59.436 162.691 59.04 162.443 58.536C162.203 58.032 162.083 57.444 162.083 56.772C162.083 56.108 162.203 55.52 162.443 55.008C162.691 54.488 163.035 54.084 163.475 53.796C163.923 53.508 164.443 53.364 165.035 53.364C165.307 53.364 165.579 53.416 165.851 53.52C166.131 53.616 166.391 53.752 166.631 53.928V53.52H168.551V58.488C168.551 59.136 168.631 59.64 168.791 60H166.991C166.935 59.888 166.887 59.744 166.847 59.568C166.351 59.96 165.763 60.156 165.083 60.156ZM163.919 56.772C163.919 57.14 163.991 57.476 164.135 57.78C164.287 58.084 164.483 58.328 164.723 58.512C164.971 58.688 165.231 58.776 165.503 58.776C165.695 58.776 165.911 58.736 166.151 58.656C166.391 58.568 166.599 58.384 166.775 58.104V55.416C166.599 55.136 166.391 54.956 166.151 54.876C165.919 54.796 165.703 54.756 165.503 54.756C165.231 54.756 164.971 54.844 164.723 55.02C164.483 55.196 164.287 55.44 164.135 55.752C163.991 56.056 163.919 56.396 163.919 56.772ZM171.672 53.52V54.216C171.88 53.992 172.128 53.82 172.416 53.7C172.712 53.572 173.004 53.508 173.292 53.508C173.492 53.508 173.68 53.536 173.856 53.592V55.068C173.632 55.012 173.42 54.984 173.22 54.984C172.916 54.984 172.628 55.036 172.356 55.14C172.084 55.236 171.856 55.392 171.672 55.608V60H169.752V53.52H171.672ZM177.363 60.156C176.771 60.156 176.251 60.016 175.803 59.736C175.355 59.448 175.011 59.048 174.771 58.536C174.531 58.024 174.411 57.44 174.411 56.784C174.411 56.12 174.531 55.532 174.771 55.02C175.019 54.5 175.363 54.096 175.803 53.808C176.251 53.52 176.771 53.376 177.363 53.376C177.635 53.376 177.907 53.424 178.179 53.52C178.459 53.616 178.719 53.756 178.959 53.94V50.772H180.879V58.5C180.879 59.14 180.959 59.64 181.119 60H179.319C179.263 59.888 179.215 59.744 179.175 59.568C178.671 59.96 178.067 60.156 177.363 60.156ZM176.247 56.784C176.247 57.152 176.319 57.488 176.463 57.792C176.615 58.096 176.811 58.34 177.051 58.524C177.299 58.7 177.559 58.788 177.831 58.788C178.047 58.788 178.283 58.736 178.539 58.632C178.803 58.528 179.019 58.312 179.187 57.984V55.572C179.019 55.236 178.803 55.016 178.539 54.912C178.283 54.808 178.047 54.756 177.831 54.756C177.559 54.756 177.299 54.844 177.051 55.02C176.811 55.196 176.615 55.44 176.463 55.752C176.319 56.064 176.247 56.408 176.247 56.784ZM184.684 60.144C184.196 60.168 183.7 60.128 183.196 60.024C182.7 59.928 182.268 59.776 181.9 59.568V57.84C182.228 58.08 182.62 58.28 183.076 58.44C183.54 58.592 183.948 58.656 184.3 58.632C184.548 58.616 184.728 58.564 184.84 58.476C184.952 58.38 185.016 58.284 185.032 58.188C185.072 57.94 185.012 57.752 184.852 57.624C184.692 57.496 184.392 57.372 183.952 57.252C183.464 57.116 183.076 56.96 182.788 56.784C182.5 56.6 182.28 56.396 182.128 56.172C181.984 55.94 181.912 55.648 181.912 55.296C181.912 54.928 182.008 54.6 182.2 54.312C182.392 54.016 182.696 53.784 183.112 53.616C183.528 53.448 183.976 53.364 184.456 53.364C184.816 53.364 185.18 53.4 185.548 53.472C185.916 53.536 186.224 53.624 186.472 53.736V55.284C186.216 55.156 185.912 55.044 185.56 54.948C185.216 54.844 184.916 54.792 184.66 54.792C184.116 54.792 183.82 54.936 183.772 55.224C183.748 55.392 183.824 55.54 184 55.668C184.184 55.796 184.444 55.912 184.78 56.016C185.26 56.168 185.652 56.324 185.956 56.484C186.268 56.644 186.512 56.852 186.688 57.108C186.864 57.364 186.952 57.692 186.952 58.092C186.952 58.684 186.74 59.168 186.316 59.544C185.892 59.912 185.348 60.112 184.684 60.144Z" fill="#919191"/>
</svg>
