<svg width="341" height="86" viewBox="0 0 341 86" fill="none" xmlns="http://www.w3.org/2000/svg">
<rect x="1.5" y="1.5" width="338" height="83" rx="22.5" fill="white"/>
<rect x="1.5" y="1.5" width="338" height="83" rx="22.5" stroke="#EAEEED" stroke-width="3"/>
<rect x="16" y="16" width="54" height="54" rx="16" fill="#F6F9F8"/>
<path d="M92.768 36.504H94.368V34.248H91.072V38.6H89.024V34.248H85.648C85.4987 35.7733 85.2053 37.2293 84.768 38.616H82.48C83.2907 36.6 83.696 34.3547 83.696 31.88L83.68 24.424H96.432V38.6H92.768V36.504ZM89.024 32.264V30.328H85.76V31.88V32.264H89.024ZM89.024 28.344V26.44H85.76V28.344H89.024ZM94.368 32.264L94.352 30.328H91.072V32.264H94.368ZM94.352 28.344V26.44H91.072V28.344H94.352ZM98.544 38.6C99.0773 37.4267 99.4453 36.2747 99.648 35.144C99.8507 34.0133 99.952 32.7067 99.952 31.224V25.288H104.944V23.88H107.056V25.288H112.48V32.04H102.032C101.968 34.472 101.595 36.6587 100.912 38.6H98.544ZM110.352 29.976V27.352H102.048V29.976H110.352ZM129.36 33.624C127.963 33.304 126.693 32.7813 125.552 32.056V33.016H118.448V32.056C117.307 32.7813 116.037 33.304 114.64 33.624V31.528C115.685 31.176 116.603 30.728 117.392 30.184C118.192 29.6293 118.917 28.9573 119.568 28.168H124.432C125.083 28.9573 125.803 29.6293 126.592 30.184C127.392 30.728 128.315 31.176 129.36 31.528V33.624ZM114.8 26.488C115.803 25.976 116.539 25.24 117.008 24.28H121.952V25.992C122.827 25.576 123.477 25.0053 123.904 24.28H129.2V26.264H126.96L127.616 28.104H125.552L124.896 26.264H124.864C124.469 26.712 124 27.096 123.456 27.416C122.912 27.7253 122.325 27.944 121.696 28.072V26.264H120.128L120.704 27.88H118.64L118.112 26.376C117.707 26.9413 117.221 27.4213 116.656 27.816C116.091 28.2107 115.472 28.488 114.8 28.648V26.488ZM115.168 36.472H124.64L125.408 33.592H127.6L126.832 36.472H128.832V38.488H115.168V36.472ZM118.592 33.592L119.232 35.96H117.04L116.4 33.592H118.592ZM124.4 31.192C124.016 30.872 123.669 30.5147 123.36 30.12H120.64C120.331 30.5147 119.984 30.872 119.6 31.192H124.4ZM122.912 33.592L123.552 35.96H121.36L120.72 33.592H122.912ZM140.864 36.68H143.008V24.2H145.008V38.6H140.864V36.68ZM130.688 36.408H134.016V34.6H131.264V32.584H134.016V31.048H130.896V29.112H131.712L133.056 26.456H131.184V24.472H139.136V26.456H135.248L133.888 29.112H136.624L135.952 27.352H138L139.44 31.048H136.096V32.584H138.896V34.6H136.096V36.408H139.456V38.456H130.688V36.408ZM140.096 25.08H141.968V35.24H140.096V25.08Z" fill="#535353"/>
<path d="M87.64 61.08C86.904 61.08 86.292 61.036 85.804 60.948C85.316 60.868 84.876 60.728 84.484 60.528C84.428 60.72 84.388 60.844 84.364 60.9C84.324 61.052 84.296 61.152 84.28 61.2H82.624C83 60.152 83.276 59.18 83.452 58.284C83.628 57.388 83.736 56.42 83.776 55.38H82.36V53.82H85.336C85.336 54.852 85.3 55.776 85.228 56.592C85.156 57.408 85.032 58.22 84.856 59.028C85.216 59.228 85.612 59.372 86.044 59.46C86.484 59.54 87.016 59.58 87.64 59.58H93.52V61.08H87.64ZM84.472 50.4L85.3 53.004H83.68L82.852 50.4H84.472ZM85.876 56.664H89.044V55.716H86.2V54.276H86.704L87.424 52.476H86.104V51.012H88.012L88.276 50.34H89.908L89.644 51.012H93.136V52.476H89.056L88.336 54.276H89.044V52.944H90.58V54.276H92.884V55.716H90.58V56.664H93.364V58.128H90.58V59.292H89.044V58.128H85.876V56.664ZM95.836 55.476L94.456 54.696L96.076 50.4H97.552L96.244 53.832L96.652 54.072L97.216 52.548H98.62L97.036 56.82H98.14V58.368H94.768L95.836 55.476ZM94.588 59.58L98.2 59.184V60.732L94.588 61.128V59.58ZM98.62 57.264H101.944V54.108H103.456V57.264H105.508V58.644H103.18L103.108 58.8L105.4 59.808V61.26L102.244 59.868C101.804 60.236 101.272 60.54 100.648 60.78C100.024 61.028 99.352 61.196 98.632 61.284V59.916C99.272 59.796 99.836 59.636 100.324 59.436C100.812 59.236 101.196 58.972 101.476 58.644H98.62V57.264ZM98.74 52.536H101.296V51.9H99.112V50.676H101.296V50.28H102.832V50.676H105.016V51.9H102.832V52.536H105.268V54.948H103.912V53.88H98.74V52.536ZM98.824 55.596L101.056 55.836V56.928L98.824 56.688V55.596ZM99.328 54.18L101.548 54.42V55.512L99.328 55.272V54.18ZM117.52 57.468C116.472 57.228 115.52 56.836 114.664 56.292V57.012H109.336V56.292C108.48 56.836 107.528 57.228 106.48 57.468V55.896C107.264 55.632 107.952 55.296 108.544 54.888C109.144 54.472 109.688 53.968 110.176 53.376H113.824C114.312 53.968 114.852 54.472 115.444 54.888C116.044 55.296 116.736 55.632 117.52 55.896V57.468ZM106.6 52.116C107.352 51.732 107.904 51.18 108.256 50.46H111.964V51.744C112.62 51.432 113.108 51.004 113.428 50.46H117.4V51.948H115.72L116.212 53.328H114.664L114.172 51.948H114.148C113.852 52.284 113.5 52.572 113.092 52.812C112.684 53.044 112.244 53.208 111.772 53.304V51.948H110.596L111.028 53.16H109.48L109.084 52.032C108.78 52.456 108.416 52.816 107.992 53.112C107.568 53.408 107.104 53.616 106.6 53.736V52.116ZM106.876 59.604H113.98L114.556 57.444H116.2L115.624 59.604H117.124V61.116H106.876V59.604ZM109.444 57.444L109.924 59.22H108.28L107.8 57.444H109.444ZM113.8 55.644C113.512 55.404 113.252 55.136 113.02 54.84H110.98C110.748 55.136 110.488 55.404 110.2 55.644H113.8ZM112.684 57.444L113.164 59.22H111.52L111.04 57.444H112.684ZM126.148 59.76H127.756V50.4H129.256V61.2H126.148V59.76ZM118.516 59.556H121.012V58.2H118.948V56.688H121.012V55.536H118.672V54.084H119.284L120.292 52.092H118.888V50.604H124.852V52.092H121.936L120.916 54.084H122.968L122.464 52.764H124L125.08 55.536H122.572V56.688H124.672V58.2H122.572V59.556H125.092V61.092H118.516V59.556ZM125.572 51.06H126.976V58.68H125.572V51.06ZM131.38 59.784H132.868C132.836 59.152 132.804 58.684 132.772 58.38L130.696 59.436V57.816L132.556 56.88C132.5 56.616 132.42 56.292 132.316 55.908L130.696 56.724V55.08L131.812 54.516C131.636 54.084 131.396 53.58 131.092 53.004H132.844C132.964 53.244 133.084 53.504 133.204 53.784L134.644 53.052V54.696L133.732 55.164C133.98 55.948 134.152 56.8 134.248 57.72C134.352 58.64 134.404 59.8 134.404 61.2H131.38V59.784ZM130.72 50.832H133.18V50.22H134.74V50.832H137.26V50.22H138.82V50.832H141.28V52.332H138.82V52.848H137.26V52.332H134.74V52.848H133.18V52.332H130.72V50.832ZM134.8 59.436C135.528 59.14 136.08 58.74 136.456 58.236C136.832 57.724 137.076 57.068 137.188 56.268H134.956V54.756H137.26V53.064H138.772V54.756H141.28V56.268H138.712C138.68 56.572 138.632 56.864 138.568 57.144H139.9L141.58 61.2H139.948L138.46 57.6C138.196 58.52 137.76 59.276 137.152 59.868C136.552 60.452 135.768 60.908 134.8 61.236V59.436ZM140.416 53.112L140.632 54.492H139.432L139.216 53.112H140.416ZM152.92 54.96H146.968V50.508H152.92V54.96ZM142.48 56.436C143.688 55.74 144.532 54.764 145.012 53.508H146.644C146.38 54.444 145.956 55.292 145.372 56.052V61.26H143.812V57.528C143.404 57.816 142.96 58.08 142.48 58.32V56.436ZM142.48 53.196C143.6 52.476 144.372 51.516 144.796 50.316H146.344C145.776 52.444 144.488 54.028 142.48 55.068V53.196ZM146.464 57.168H150.976V56.64H146.704V55.392H153.184V56.64H152.512V57.168H153.52V58.416H152.512V61.2H149.872V59.88H150.976V58.416H146.464V57.168ZM148.54 58.74L149.38 60.936H147.868L147.028 58.74H148.54ZM151.36 53.796V53.244H148.528V53.796H151.36ZM151.36 52.224V51.684H148.528V52.224H151.36ZM165.52 55.128C164.64 54.896 163.824 54.528 163.072 54.024V54.78H160.78V55.944H164.572V57.42H160.78V59.556H161.836L162.508 57.948H164.008L163.336 59.556H165.196V61.068H154.804V59.556H156.676L156.004 57.948H157.504L158.176 59.556H159.22V57.42H155.428V55.944H159.22V54.78H156.928V54.024C156.176 54.528 155.36 54.896 154.48 55.128V53.532C155.432 53.164 156.184 52.728 156.736 52.224C157.296 51.712 157.744 51.104 158.08 50.4H161.92C162.256 51.104 162.7 51.712 163.252 52.224C163.812 52.728 164.568 53.164 165.52 53.532V55.128ZM162.16 53.304C161.696 52.888 161.312 52.424 161.008 51.912H158.992C158.688 52.424 158.304 52.888 157.84 53.304H162.16ZM167.176 53.796H171.22V52.32C169.636 52.368 168.212 52.4 166.948 52.416V50.916C169.188 50.868 171.04 50.82 172.504 50.772C173.976 50.716 175.496 50.632 177.064 50.52V52.032C175.752 52.128 174.324 52.208 172.78 52.272V53.796H176.824V59.88H174.328V58.344H175.288V55.344H172.78V61.2H171.22V55.344H168.712V59.88H167.176V53.796ZM183.472 54.336C184.32 54.224 185 54.068 185.512 53.868L184.864 52.752C184.448 53.008 183.984 53.204 183.472 53.34V51.804C184.216 51.508 184.768 51.04 185.128 50.4H189.328C189.224 51.672 188.936 52.684 188.464 53.436C188 54.18 187.364 54.732 186.556 55.092C185.748 55.452 184.72 55.688 183.472 55.8V54.336ZM178.6 59.724C180.408 59.564 181.844 59.024 182.908 58.104H178.9V56.592H183.208V55.896H184.792V56.592H189.1V58.104H185.092C186.156 59.024 187.592 59.564 189.4 59.724V61.248C187.008 61.056 185.208 60.356 184 59.148C182.792 60.356 180.992 61.056 178.6 61.248V59.724ZM178.78 54L181.384 53.052V50.4H182.932V55.62H181.384V54.588L178.78 55.536V54ZM180.508 50.58L181.036 52.848H179.584L179.056 50.58H180.508ZM186.676 53.172C187.052 52.836 187.34 52.4 187.54 51.864H185.908L186.676 53.172ZM190.36 61.2C190.56 60.384 190.7 59.588 190.78 58.812C190.86 58.028 190.9 57.132 190.9 56.124V50.568H196.384V52.044H192.316V53.004H196.384V54.444H194.236V55.524H196.192V61.056C196.688 60.08 197.032 59.128 197.224 58.2C197.424 57.264 197.524 56.192 197.524 54.984V53.532H196.624V51.972H197.524V50.28H199.06V51.972H201.232V61.2H198.844V59.64H199.768V53.532H198.976V54.984C198.976 56.152 198.884 57.236 198.7 58.236C198.516 59.236 198.212 60.224 197.788 61.2H194.188V59.748H194.896V56.964H194.2V56.976C194.2 57.776 194.152 58.516 194.056 59.196C193.96 59.876 193.8 60.544 193.576 61.2H192.136C192.416 60.528 192.608 59.872 192.712 59.232C192.816 58.584 192.868 57.832 192.868 56.976V54.444H192.316V56.124C192.316 57.076 192.28 57.96 192.208 58.776C192.136 59.592 192.02 60.4 191.86 61.2H190.36Z" fill="#919191"/>
</svg>

