<svg width="76" height="36" viewBox="0 0 76 36" fill="none" xmlns="http://www.w3.org/2000/svg">
<g filter="url(#filter0_i_710_3289)">
<rect width="76" height="36" rx="15" fill="#19C087"/>
</g>
<path d="M19.9808 13.668H21.8168L21.9728 12.996H19.7288V11.532H25.8128V12.996H23.5328L23.3768 13.668H25.6088V19.32H24.1448V15.108H21.4328V19.32H19.9808V13.668ZM14.6768 13.92C15.2768 13.272 15.6968 12.432 15.9368 11.4H18.3368C18.5768 12.432 18.9968 13.272 19.5968 13.92V15.996C18.6448 15.26 17.9408 14.24 17.4848 12.936H16.7888C16.3328 14.24 15.6288 15.26 14.6768 15.996V13.92ZM15.0728 16.584H19.5608L18.2288 20.232C18.6208 20.416 18.9488 20.592 19.2128 20.76V22.32C17.9008 21.576 16.5728 21.056 15.2288 20.76V19.236C15.7488 19.356 16.2928 19.508 16.8608 19.692L17.4368 18.096H15.0728V16.584ZM17.7488 14.088L18.0248 16.116H16.6088L16.3088 14.088H17.7488ZM19.8128 20.688C20.5248 20.536 21.0808 20.236 21.4808 19.788C21.8808 19.34 22.0808 18.792 22.0808 18.144V15.624H23.4728V18.204C23.4728 18.468 23.4568 18.696 23.4248 18.888C24.0888 19.216 24.6168 19.664 25.0088 20.232C25.4088 20.8 25.7168 21.46 25.9328 22.212H24.3008C24.1408 21.38 23.7008 20.736 22.9808 20.28C22.4048 21.336 21.3488 22.016 19.8128 22.32V20.688ZM26.8808 20.076L27.3488 20.004V13.092H26.8808V11.568H32.1488V13.092H31.7048L31.6568 22.152H30.2168V21.12L26.8808 21.636V20.076ZM30.2168 19.56V18.432H28.8368V19.776L30.2168 19.56ZM30.2168 16.944V15.636H28.8368V16.944H30.2168ZM30.2168 14.148V13.092H28.8368V14.148H30.2168ZM32.1008 20.436C32.9088 19.868 33.5928 19.16 34.1528 18.312C33.4408 16.944 32.9688 15.352 32.7368 13.536H32.3528V12H37.4048C37.2528 14.472 36.7248 16.58 35.8208 18.324C36.3808 19.18 37.0568 19.884 37.8488 20.436V22.344C36.7048 21.64 35.7488 20.752 34.9808 19.68C34.1968 20.76 33.2368 21.648 32.1008 22.344V20.436ZM34.1288 13.536C34.3128 14.72 34.6008 15.784 34.9928 16.728C35.3848 15.8 35.6768 14.736 35.8688 13.536H34.1288ZM43.7888 15.336C44.6368 15.224 45.3168 15.068 45.8288 14.868L45.1808 13.752C44.7648 14.008 44.3008 14.204 43.7888 14.34V12.804C44.5328 12.508 45.0848 12.04 45.4448 11.4H49.6448C49.5408 12.672 49.2528 13.684 48.7808 14.436C48.3168 15.18 47.6808 15.732 46.8728 16.092C46.0648 16.452 45.0368 16.688 43.7888 16.8V15.336ZM38.9168 20.724C40.7248 20.564 42.1608 20.024 43.2248 19.104H39.2168V17.592H43.5248V16.896H45.1088V17.592H49.4168V19.104H45.4088C46.4728 20.024 47.9088 20.564 49.7168 20.724V22.248C47.3248 22.056 45.5248 21.356 44.3168 20.148C43.1088 21.356 41.3088 22.056 38.9168 22.248V20.724ZM39.0968 15L41.7008 14.052V11.4H43.2488V16.62H41.7008V15.588L39.0968 16.536V15ZM40.8248 11.58L41.3528 13.848H39.9008L39.3728 11.58H40.8248ZM46.9928 14.172C47.3688 13.836 47.6568 13.4 47.8568 12.864H46.2248L46.9928 14.172ZM50.6768 22.2C50.8768 21.384 51.0168 20.588 51.0968 19.812C51.1768 19.028 51.2168 18.132 51.2168 17.124V11.568H56.7008V13.044H52.6328V14.004H56.7008V15.444H54.5528V16.524H56.5088V22.056C57.0048 21.08 57.3488 20.128 57.5408 19.2C57.7408 18.264 57.8408 17.192 57.8408 15.984V14.532H56.9408V12.972H57.8408V11.28H59.3768V12.972H61.5488V22.2H59.1608V20.64H60.0848V14.532H59.2928V15.984C59.2928 17.152 59.2008 18.236 59.0168 19.236C58.8328 20.236 58.5288 21.224 58.1048 22.2H54.5048V20.748H55.2128V17.964H54.5168V17.976C54.5168 18.776 54.4688 19.516 54.3728 20.196C54.2768 20.876 54.1168 21.544 53.8928 22.2H52.4528C52.7328 21.528 52.9248 20.872 53.0288 20.232C53.1328 19.584 53.1848 18.832 53.1848 17.976V15.444H52.6328V17.124C52.6328 18.076 52.5968 18.96 52.5248 19.776C52.4528 20.592 52.3368 21.4 52.1768 22.2H50.6768Z" fill="white"/>
<defs>
<filter id="filter0_i_710_3289" x="0" y="0" width="76" height="36" filterUnits="userSpaceOnUse" color-interpolation-filters="sRGB">
<feFlood flood-opacity="0" result="BackgroundImageFix"/>
<feBlend mode="normal" in="SourceGraphic" in2="BackgroundImageFix" result="shape"/>
<feColorMatrix in="SourceAlpha" type="matrix" values="0 0 0 0 0 0 0 0 0 0 0 0 0 0 0 0 0 0 127 0" result="hardAlpha"/>
<feOffset dy="-4"/>
<feComposite in2="hardAlpha" operator="arithmetic" k2="-1" k3="1"/>
<feColorMatrix type="matrix" values="0 0 0 0 0 0 0 0 0 0 0 0 0 0 0 0 0 0 0.15 0"/>
<feBlend mode="normal" in2="shape" result="effect1_innerShadow_710_3289"/>
</filter>
</defs>
</svg>

