<svg width="76" height="36" viewBox="0 0 76 36" fill="none" xmlns="http://www.w3.org/2000/svg">
<g filter="url(#filter0_i_750_3260)">
<rect width="76" height="36" rx="15" fill="#19C087"/>
</g>
<path d="M23.6047 22.12C22.8447 22.12 22.1927 21.996 21.6487 21.748C21.1127 21.5 20.6927 21.136 20.3887 20.656C20.0927 20.176 19.9287 19.58 19.8967 18.868C19.8887 18.54 19.8847 18.188 19.8847 17.812C19.8847 17.436 19.8887 17.076 19.8967 16.732C19.9287 16.036 20.0967 15.448 20.4007 14.968C20.7047 14.48 21.1287 14.112 21.6727 13.864C22.2167 13.608 22.8607 13.48 23.6047 13.48C24.1327 13.48 24.6207 13.548 25.0687 13.684C25.5167 13.812 25.9087 14.004 26.2447 14.26C26.5807 14.508 26.8407 14.812 27.0247 15.172C27.2167 15.524 27.3167 15.924 27.3247 16.372C27.3327 16.444 27.3087 16.504 27.2527 16.552C27.2047 16.6 27.1447 16.624 27.0727 16.624H25.4527C25.3487 16.624 25.2687 16.604 25.2127 16.564C25.1567 16.516 25.1087 16.432 25.0687 16.312C24.9567 15.888 24.7727 15.6 24.5167 15.448C24.2687 15.288 23.9607 15.208 23.5927 15.208C23.1527 15.208 22.8047 15.332 22.5487 15.58C22.2927 15.82 22.1527 16.224 22.1287 16.792C22.1047 17.448 22.1047 18.12 22.1287 18.808C22.1527 19.376 22.2927 19.784 22.5487 20.032C22.8047 20.272 23.1527 20.392 23.5927 20.392C23.9607 20.392 24.2727 20.312 24.5287 20.152C24.7847 19.992 24.9647 19.704 25.0687 19.288C25.1007 19.168 25.1447 19.088 25.2007 19.048C25.2647 19 25.3487 18.976 25.4527 18.976H27.0727C27.1447 18.976 27.2047 19 27.2527 19.048C27.3087 19.096 27.3327 19.156 27.3247 19.228C27.3167 19.676 27.2167 20.08 27.0247 20.44C26.8407 20.792 26.5807 21.096 26.2447 21.352C25.9087 21.6 25.5167 21.792 25.0687 21.928C24.6207 22.056 24.1327 22.12 23.6047 22.12ZM28.8865 22C28.7985 22 28.7265 21.972 28.6705 21.916C28.6145 21.86 28.5865 21.788 28.5865 21.7V13.9C28.5865 13.812 28.6145 13.74 28.6705 13.684C28.7265 13.628 28.7985 13.6 28.8865 13.6H30.4705C30.5505 13.6 30.6185 13.628 30.6745 13.684C30.7385 13.74 30.7705 13.812 30.7705 13.9V20.188H34.3945C34.4825 20.188 34.5545 20.22 34.6105 20.284C34.6745 20.34 34.7065 20.412 34.7065 20.5V21.7C34.7065 21.788 34.6745 21.86 34.6105 21.916C34.5545 21.972 34.4825 22 34.3945 22H28.8865ZM35.2667 22C35.2027 22 35.1427 21.976 35.0867 21.928C35.0387 21.872 35.0147 21.812 35.0147 21.748C35.0147 21.708 35.0187 21.672 35.0267 21.64L37.8467 13.936C37.8707 13.848 37.9187 13.772 37.9907 13.708C38.0707 13.636 38.1787 13.6 38.3147 13.6H40.0907C40.2267 13.6 40.3307 13.636 40.4027 13.708C40.4827 13.772 40.5347 13.848 40.5587 13.936L43.3667 21.64C43.3827 21.672 43.3907 21.708 43.3907 21.748C43.3907 21.812 43.3627 21.872 43.3067 21.928C43.2587 21.976 43.1987 22 43.1267 22H41.6507C41.5307 22 41.4387 21.972 41.3747 21.916C41.3187 21.852 41.2827 21.796 41.2667 21.748L40.7987 20.524H37.5947L37.1387 21.748C37.1227 21.796 37.0867 21.852 37.0307 21.916C36.9747 21.972 36.8787 22 36.7427 22H35.2667ZM38.0867 18.796H40.3187L39.1907 15.628L38.0867 18.796ZM44.6365 22C44.5485 22 44.4765 21.972 44.4205 21.916C44.3645 21.86 44.3365 21.788 44.3365 21.7V13.9C44.3365 13.812 44.3645 13.74 44.4205 13.684C44.4765 13.628 44.5485 13.6 44.6365 13.6H46.2445C46.3325 13.6 46.4045 13.628 46.4605 13.684C46.5165 13.74 46.5445 13.812 46.5445 13.9V21.7C46.5445 21.788 46.5165 21.86 46.4605 21.916C46.4045 21.972 46.3325 22 46.2445 22H44.6365ZM48.5272 22C48.4472 22 48.3752 21.972 48.3112 21.916C48.2552 21.86 48.2272 21.788 48.2272 21.7V13.9C48.2272 13.812 48.2552 13.74 48.3112 13.684C48.3752 13.628 48.4472 13.6 48.5272 13.6H49.8232C49.9512 13.6 50.0472 13.636 50.1112 13.708C50.1832 13.772 50.2272 13.824 50.2432 13.864L52.3552 17.656L54.4672 13.864C54.4912 13.824 54.5312 13.772 54.5872 13.708C54.6512 13.636 54.7512 13.6 54.8872 13.6H56.1712C56.2592 13.6 56.3312 13.628 56.3872 13.684C56.4512 13.74 56.4832 13.812 56.4832 13.9V21.7C56.4832 21.788 56.4512 21.86 56.3872 21.916C56.3312 21.972 56.2592 22 56.1712 22H54.7432C54.6552 22 54.5792 21.972 54.5152 21.916C54.4592 21.86 54.4312 21.788 54.4312 21.7V17.2L53.0752 19.708C53.0432 19.78 52.9952 19.844 52.9312 19.9C52.8672 19.956 52.7792 19.984 52.6672 19.984H52.0432C51.9312 19.984 51.8432 19.956 51.7792 19.9C51.7152 19.844 51.6632 19.78 51.6232 19.708L50.2672 17.2V21.7C50.2672 21.788 50.2392 21.86 50.1832 21.916C50.1272 21.972 50.0552 22 49.9672 22H48.5272Z" fill="white"/>
<defs>
<filter id="filter0_i_750_3260" x="0" y="0" width="76" height="36" filterUnits="userSpaceOnUse" color-interpolation-filters="sRGB">
<feFlood flood-opacity="0" result="BackgroundImageFix"/>
<feBlend mode="normal" in="SourceGraphic" in2="BackgroundImageFix" result="shape"/>
<feColorMatrix in="SourceAlpha" type="matrix" values="0 0 0 0 0 0 0 0 0 0 0 0 0 0 0 0 0 0 127 0" result="hardAlpha"/>
<feOffset dy="-4"/>
<feComposite in2="hardAlpha" operator="arithmetic" k2="-1" k3="1"/>
<feColorMatrix type="matrix" values="0 0 0 0 0 0 0 0 0 0 0 0 0 0 0 0 0 0 0.15 0"/>
<feBlend mode="normal" in2="shape" result="effect1_innerShadow_750_3260"/>
</filter>
</defs>
</svg>
