<svg width="341" height="86" viewBox="0 0 341 86" fill="none" xmlns="http://www.w3.org/2000/svg">
<rect x="1.5" y="1.5" width="338" height="83" rx="22.5" fill="white"/>
<rect x="1.5" y="1.5" width="338" height="83" rx="22.5" stroke="#EAEEED" stroke-width="3"/>
<rect x="16" y="16" width="54" height="54" rx="16" fill="#F6F9F8"/>
<path d="M97.232 38.76C95.344 38.1627 93.824 37.3947 92.672 36.456C91.5307 35.5067 90.6453 34.328 90.016 32.92C89.376 34.328 88.48 35.5067 87.328 36.456C86.1867 37.3947 84.672 38.1627 82.784 38.76V36.472C83.936 36.0027 84.8907 35.4907 85.648 34.936C86.416 34.3813 87.0613 33.6933 87.584 32.872C88.1173 32.0507 88.5707 31.016 88.944 29.768H82.8V27.688H88.96L88.944 24.04H91.056V27.688H97.2V29.768H91.072C91.4453 31.016 91.8933 32.0507 92.416 32.872C92.9493 33.6933 93.5947 34.3813 94.352 34.936C95.12 35.4907 96.08 36.0027 97.232 36.472V38.76ZM98.64 34.776L101.696 34.264V32.632H98.656L99.84 27.256H98.8V25.272H100.272L100.512 24.2H102.576L102.352 25.272H105.168V27.256H101.92L101.2 30.616H101.856V28.2H103.744V30.616H105.024V32.632H103.744V33.928L105.536 33.624V35.688L103.744 35.992V38.6H101.696V36.328L98.64 36.84V34.776ZM105.168 28.632H107.296L107.664 27.288H105.52V25.336H108.192L108.496 24.2H110.672L110.368 25.336H113.12V27.288H109.84L109.472 28.632H113.44V30.584H108.944L108.624 31.784H113.312C113.216 32.5947 112.992 33.3733 112.64 34.12C112.299 34.856 111.819 35.5227 111.2 36.12C111.904 36.312 112.571 36.536 113.2 36.792V38.76C110.779 37.8213 108.379 37.2773 106 37.128V35.208C107.077 35.304 108.08 35.4373 109.008 35.608C109.808 35.0533 110.405 34.3653 110.8 33.544H105.968L106.768 30.584H105.168V28.632ZM114.48 36.488H115.68V32.776H128.32V36.488H129.52V38.472H114.48V36.488ZM114.8 28.296H116.128C116.149 28.0933 116.16 27.784 116.16 27.368V24.696H120.8L121.04 23.88H123.184L122.944 24.696H127.76V28.296H129.2V30.248H127.76V32.456H125.712V30.248H117.984C117.856 30.9413 117.616 31.688 117.264 32.488H114.944C115.36 31.784 115.659 31.0373 115.84 30.248H114.8V28.296ZM119.312 36.488V34.728H117.728V36.488H119.312ZM120.912 28.296L120.496 26.936H122.64L123.056 28.296H125.712V26.648H118.208V27.368C118.208 27.7947 118.203 28.104 118.192 28.296H120.912ZM122.672 30.536L123.28 32.456H121.136L120.528 30.536H122.672ZM122.784 36.488V34.728H121.216V36.488H122.784ZM126.272 36.488V34.728H124.688V36.488H126.272ZM144.992 38.504H136.048V25.832H139.472V24.04H141.552V25.832H144.992V38.504ZM130.736 31.72L132.4 31.288V28.36H130.896V26.344H132.4V24.12H134.432V26.344H135.6V28.36H134.432V30.744L135.6 30.44V32.664L134.432 32.968V38.6H131.168V36.552H132.4V33.512L130.736 33.944V31.72ZM139.536 36.424V33.192H138.048V36.424H139.536ZM139.536 31.144V27.912H138.048V31.144H139.536ZM142.992 36.424V33.192H141.488V36.424H142.992ZM142.992 31.144V27.912H141.488V31.144H142.992ZM153.296 29.448C154.427 29.2987 155.333 29.0907 156.016 28.824L155.152 27.336C154.597 27.6773 153.979 27.9387 153.296 28.12V26.072C154.288 25.6773 155.024 25.0533 155.504 24.2H161.104C160.965 25.896 160.581 27.2453 159.952 28.248C159.333 29.24 158.485 29.976 157.408 30.456C156.331 30.936 154.96 31.2507 153.296 31.4V29.448ZM146.8 36.632C149.211 36.4187 151.125 35.6987 152.544 34.472H147.2V32.456H152.944V31.528H155.056V32.456H160.8V34.472H155.456C156.875 35.6987 158.789 36.4187 161.2 36.632V38.664C158.011 38.408 155.611 37.4747 154 35.864C152.389 37.4747 149.989 38.408 146.8 38.664V36.632ZM147.04 29L150.512 27.736V24.2H152.576V31.16H150.512V29.784L147.04 31.048V29ZM149.344 24.44L150.048 27.464H148.112L147.408 24.44H149.344ZM157.568 27.896C158.069 27.448 158.453 26.8667 158.72 26.152H156.544L157.568 27.896Z" fill="#535353"/>
<path d="M93.244 61.128H86.536V51.624H89.104V50.28H90.664V51.624H93.244V61.128ZM82.552 56.04L83.8 55.716V53.52H82.672V52.008H83.8V50.34H85.324V52.008H86.2V53.52H85.324V55.308L86.2 55.08V56.748L85.324 56.976V61.2H82.876V59.664H83.8V57.384L82.552 57.708V56.04ZM89.152 59.568V57.144H88.036V59.568H89.152ZM89.152 55.608V53.184H88.036V55.608H89.152ZM91.744 59.568V57.144H90.616V59.568H91.744ZM91.744 55.608V53.184H90.616V55.608H91.744ZM99.472 54.336C100.32 54.224 101 54.068 101.512 53.868L100.864 52.752C100.448 53.008 99.984 53.204 99.472 53.34V51.804C100.216 51.508 100.768 51.04 101.128 50.4H105.328C105.224 51.672 104.936 52.684 104.464 53.436C104 54.18 103.364 54.732 102.556 55.092C101.748 55.452 100.72 55.688 99.472 55.8V54.336ZM94.6 59.724C96.408 59.564 97.844 59.024 98.908 58.104H94.9V56.592H99.208V55.896H100.792V56.592H105.1V58.104H101.092C102.156 59.024 103.592 59.564 105.4 59.724V61.248C103.008 61.056 101.208 60.356 100 59.148C98.792 60.356 96.992 61.056 94.6 61.248V59.724ZM94.78 54L97.384 53.052V50.4H98.932V55.62H97.384V54.588L94.78 55.536V54ZM96.508 50.58L97.036 52.848H95.584L95.056 50.58H96.508ZM102.676 53.172C103.052 52.836 103.34 52.4 103.54 51.864H101.908L102.676 53.172ZM107.38 59.784H108.868C108.836 59.152 108.804 58.684 108.772 58.38L106.696 59.436V57.816L108.556 56.88C108.5 56.616 108.42 56.292 108.316 55.908L106.696 56.724V55.08L107.812 54.516C107.636 54.084 107.396 53.58 107.092 53.004H108.844C108.964 53.244 109.084 53.504 109.204 53.784L110.644 53.052V54.696L109.732 55.164C109.98 55.948 110.152 56.8 110.248 57.72C110.352 58.64 110.404 59.8 110.404 61.2H107.38V59.784ZM106.72 50.832H109.18V50.22H110.74V50.832H113.26V50.22H114.82V50.832H117.28V52.332H114.82V52.848H113.26V52.332H110.74V52.848H109.18V52.332H106.72V50.832ZM110.8 59.436C111.528 59.14 112.08 58.74 112.456 58.236C112.832 57.724 113.076 57.068 113.188 56.268H110.956V54.756H113.26V53.064H114.772V54.756H117.28V56.268H114.712C114.68 56.572 114.632 56.864 114.568 57.144H115.9L117.58 61.2H115.948L114.46 57.6C114.196 58.52 113.76 59.276 113.152 59.868C112.552 60.452 111.768 60.908 110.8 61.236V59.436ZM116.416 53.112L116.632 54.492H115.432L115.216 53.112H116.416ZM128.92 54.96H122.968V50.508H128.92V54.96ZM118.48 56.436C119.688 55.74 120.532 54.764 121.012 53.508H122.644C122.38 54.444 121.956 55.292 121.372 56.052V61.26H119.812V57.528C119.404 57.816 118.96 58.08 118.48 58.32V56.436ZM118.48 53.196C119.6 52.476 120.372 51.516 120.796 50.316H122.344C121.776 52.444 120.488 54.028 118.48 55.068V53.196ZM122.464 57.168H126.976V56.64H122.704V55.392H129.184V56.64H128.512V57.168H129.52V58.416H128.512V61.2H125.872V59.88H126.976V58.416H122.464V57.168ZM124.54 58.74L125.38 60.936H123.868L123.028 58.74H124.54ZM127.36 53.796V53.244H124.528V53.796H127.36ZM127.36 52.224V51.684H124.528V52.224H127.36ZM136.744 54.744L136.324 55.068C136.292 56.492 136.132 57.844 135.844 59.124C136.084 59.324 136.348 59.468 136.636 59.556C136.932 59.644 137.284 59.688 137.692 59.688H141.52V61.104H137.692C137.188 61.104 136.764 61.056 136.42 60.96C136.076 60.872 135.768 60.72 135.496 60.504C135.472 60.592 135.404 60.824 135.292 61.2H133.756C134.132 60.152 134.408 59.18 134.584 58.284C134.76 57.388 134.868 56.42 134.908 55.38H134.14V53.82H135.916C136.436 53.412 136.848 52.9 137.152 52.284H136.348V50.94H137.62C137.652 50.788 137.692 50.572 137.74 50.292H139.024C139 50.508 138.964 50.724 138.916 50.94H141.4V52.284H138.508C138.412 52.508 138.304 52.736 138.184 52.968H141.16V59.352H139.72V58.212H138.184V59.352H136.744V54.744ZM130.78 50.52H134.212V51.864C134.212 52.92 134 53.932 133.576 54.9C134.056 55.628 134.296 56.484 134.296 57.468C134.296 58.372 134.08 59.168 133.648 59.856H132.136V61.2H130.78V50.52ZM132.136 59.808C132.44 59.416 132.664 59.032 132.808 58.656C132.952 58.272 133.024 57.876 133.024 57.468C133.024 56.652 132.728 55.868 132.136 55.116V59.808ZM132.136 54.996C132.608 54.044 132.864 53.064 132.904 52.056H132.136V54.996ZM135.844 50.4L136.204 53.004H134.86L134.5 50.4H135.844ZM139.72 57.012V56.244H138.184V57.012H139.72ZM139.72 55.044V54.276H138.184V55.044H139.72ZM146.356 61.32C146.82 60.392 147.152 59.512 147.352 58.68C147.56 57.84 147.664 56.912 147.664 55.896V50.712H152.488V59.628H153.556V61.2H150.94V52.32H149.212V55.896C149.212 56.928 149.124 57.86 148.948 58.692C148.78 59.524 148.488 60.4 148.072 61.32H146.356ZM142.396 60.576C142.828 58.416 143.044 56.096 143.044 53.616H144.328C144.328 56.264 144.14 58.584 143.764 60.576H142.396ZM142.72 51.636H144.748V50.34H146.26V51.636H147.4V53.124H146.26V54.588L147.208 55.176V56.988L146.26 56.4V61.2H144.748V53.124H142.72V51.636ZM159.472 54.336C160.32 54.224 161 54.068 161.512 53.868L160.864 52.752C160.448 53.008 159.984 53.204 159.472 53.34V51.804C160.216 51.508 160.768 51.04 161.128 50.4H165.328C165.224 51.672 164.936 52.684 164.464 53.436C164 54.18 163.364 54.732 162.556 55.092C161.748 55.452 160.72 55.688 159.472 55.8V54.336ZM154.6 59.724C156.408 59.564 157.844 59.024 158.908 58.104H154.9V56.592H159.208V55.896H160.792V56.592H165.1V58.104H161.092C162.156 59.024 163.592 59.564 165.4 59.724V61.248C163.008 61.056 161.208 60.356 160 59.148C158.792 60.356 156.992 61.056 154.6 61.248V59.724ZM154.78 54L157.384 53.052V50.4H158.932V55.62H157.384V54.588L154.78 55.536V54ZM156.508 50.58L157.036 52.848H155.584L155.056 50.58H156.508ZM162.676 53.172C163.052 52.836 163.34 52.4 163.54 51.864H161.908L162.676 53.172ZM166.36 61.2C166.56 60.384 166.7 59.588 166.78 58.812C166.86 58.028 166.9 57.132 166.9 56.124V50.568H172.384V52.044H168.316V53.004H172.384V54.444H170.236V55.524H172.192V61.056C172.688 60.08 173.032 59.128 173.224 58.2C173.424 57.264 173.524 56.192 173.524 54.984V53.532H172.624V51.972H173.524V50.28H175.06V51.972H177.232V61.2H174.844V59.64H175.768V53.532H174.976V54.984C174.976 56.152 174.884 57.236 174.7 58.236C174.516 59.236 174.212 60.224 173.788 61.2H170.188V59.748H170.896V56.964H170.2V56.976C170.2 57.776 170.152 58.516 170.056 59.196C169.96 59.876 169.8 60.544 169.576 61.2H168.136C168.416 60.528 168.608 59.872 168.712 59.232C168.816 58.584 168.868 57.832 168.868 56.976V54.444H168.316V56.124C168.316 57.076 168.28 57.96 168.208 58.776C168.136 59.592 168.02 60.4 167.86 61.2H166.36Z" fill="#919191"/>
</svg>

