<svg width="341" height="86" viewBox="0 0 341 86" fill="none" xmlns="http://www.w3.org/2000/svg">
<rect x="1.5" y="1.5" width="338" height="83" rx="22.5" fill="white"/>
<rect x="1.5" y="1.5" width="338" height="83" rx="22.5" stroke="#EAEEED" stroke-width="3"/>
<rect x="16" y="16" width="54" height="54" rx="16" fill="#F6F9F8"/>
<path d="M85.6 25.8V34.84H90.128V37H82.96V25.8H85.6ZM97.1754 37.016C97.0047 36.696 96.9034 36.3547 96.8714 35.992C96.4767 36.344 96.002 36.6373 95.4474 36.872C94.9034 37.096 94.3647 37.208 93.8314 37.208C93.01 37.208 92.354 36.968 91.8634 36.488C91.3834 36.008 91.1434 35.3893 91.1434 34.632V28.36H93.7034V34.2C93.7034 34.5093 93.8047 34.7653 94.0074 34.968C94.2207 35.16 94.498 35.256 94.8394 35.256C95.0634 35.256 95.362 35.176 95.7354 35.016C96.1194 34.856 96.4394 34.68 96.6954 34.488V28.36H99.2554V35.352C99.2554 35.704 99.2767 36.0027 99.3194 36.248C99.362 36.4827 99.4474 36.7387 99.5754 37.016H97.1754ZM108.062 36.712C107.241 37.0427 106.399 37.208 105.535 37.208C104.628 37.208 103.791 37.0267 103.023 36.664C102.265 36.2907 101.663 35.768 101.215 35.096C100.767 34.4133 100.543 33.6293 100.543 32.744C100.543 31.816 100.756 31.0053 101.183 30.312C101.609 29.6187 102.191 29.0907 102.927 28.728C103.673 28.3547 104.505 28.168 105.423 28.168C106.255 28.168 107.097 28.3173 107.951 28.616V30.584C107.3 30.3067 106.633 30.168 105.951 30.168C105.108 30.168 104.409 30.3707 103.855 30.776C103.3 31.1707 103.023 31.8267 103.023 32.744C103.023 33.2667 103.167 33.7093 103.455 34.072C103.743 34.4347 104.116 34.712 104.575 34.904C105.033 35.0853 105.519 35.176 106.031 35.176C106.425 35.176 106.799 35.1227 107.151 35.016C107.513 34.8987 107.817 34.7387 108.062 34.536V36.712ZM109.347 37V24.696H111.907V31.176H112.291L114.275 28.36H116.947L114.179 32.136C114.766 32.6907 115.294 33.3627 115.763 34.152C116.232 34.9413 116.702 35.8907 117.171 37H114.755C114.286 35.976 113.891 35.1973 113.571 34.664C113.262 34.12 112.856 33.624 112.355 33.176H111.907V37H109.347ZM123.888 37.208C123.536 38.328 122.923 39.1653 122.048 39.72C121.173 40.296 119.877 40.6053 118.16 40.648V38.584C118.885 38.584 119.515 38.504 120.048 38.344C120.539 38.184 120.896 37.9707 121.12 37.704C121.355 37.4373 121.531 37.0907 121.648 36.664L121.856 35.928H120.448L117.328 28.36H119.936L122.272 34.424L123.968 28.36H126.624L123.888 37.208ZM135.773 37.192C135.656 37.2027 135.475 37.208 135.229 37.208C133.789 37.208 132.509 36.8987 131.389 36.28V33.928C131.976 34.2907 132.621 34.5947 133.325 34.84C134.029 35.0853 134.669 35.208 135.245 35.208C135.715 35.208 136.083 35.0907 136.349 34.856C136.627 34.6213 136.765 34.3547 136.765 34.056C136.765 33.64 136.605 33.2613 136.285 32.92C135.965 32.568 135.453 32.2853 134.749 32.072C133.939 31.816 133.304 31.56 132.845 31.304C132.397 31.0373 132.056 30.7067 131.821 30.312C131.597 29.9173 131.485 29.416 131.485 28.808C131.485 28.232 131.624 27.7093 131.901 27.24C132.179 26.76 132.584 26.376 133.117 26.088C133.661 25.8 134.307 25.64 135.053 25.608C135.149 25.5973 135.299 25.592 135.501 25.592C136.056 25.592 136.611 25.6507 137.165 25.768C137.731 25.8747 138.205 26.0133 138.589 26.184V28.248C138.173 28.0667 137.688 27.9173 137.133 27.8C136.579 27.6827 136.088 27.624 135.661 27.624C135.117 27.624 134.701 27.72 134.413 27.912C134.125 28.104 133.981 28.3707 133.981 28.712C133.981 29.0213 134.136 29.2987 134.445 29.544C134.755 29.7893 135.235 30.024 135.885 30.248C136.664 30.472 137.299 30.728 137.789 31.016C138.28 31.2933 138.664 31.6613 138.941 32.12C139.219 32.568 139.357 33.1333 139.357 33.816C139.357 34.4667 139.208 35.0427 138.909 35.544C138.611 36.0453 138.189 36.44 137.645 36.728C137.112 37.0053 136.488 37.16 135.773 37.192ZM140.355 40.648C140.483 40.2853 140.568 39.7787 140.611 39.128C140.654 38.4773 140.675 37.8853 140.675 37.352V28.36H143.235V29.16C143.587 28.84 143.971 28.5947 144.387 28.424C144.814 28.2427 145.24 28.152 145.667 28.152C146.456 28.152 147.144 28.344 147.731 28.728C148.328 29.112 148.787 29.6507 149.107 30.344C149.438 31.0267 149.603 31.8107 149.603 32.696C149.603 33.5813 149.443 34.3653 149.123 35.048C148.803 35.72 148.344 36.248 147.747 36.632C147.15 37.016 146.456 37.208 145.667 37.208C144.707 37.208 143.896 36.9307 143.235 36.376V37.352C143.235 37.9173 143.203 38.52 143.139 39.16C143.086 39.8107 143.011 40.3067 142.915 40.648H140.355ZM143.235 34.296C143.459 34.7333 143.742 35.0213 144.083 35.16C144.435 35.2987 144.755 35.368 145.043 35.368C145.406 35.368 145.747 35.2507 146.067 35.016C146.398 34.7707 146.659 34.4453 146.851 34.04C147.054 33.6347 147.155 33.1867 147.155 32.696C147.155 32.1947 147.054 31.7413 146.851 31.336C146.659 30.92 146.398 30.5947 146.067 30.36C145.747 30.1253 145.406 30.008 145.043 30.008C144.755 30.008 144.435 30.0773 144.083 30.216C143.742 30.3547 143.459 30.6427 143.235 31.08V34.296ZM153.568 28.36V37H151.008V28.36H153.568ZM151.008 24.696H153.568V27.256H151.008V24.696ZM157.938 28.328V29.368C158.333 29.0267 158.781 28.76 159.282 28.568C159.794 28.376 160.301 28.28 160.802 28.28C161.623 28.28 162.274 28.52 162.754 29C163.245 29.48 163.49 30.104 163.49 30.872V36.968H160.93V31.304C160.93 30.9947 160.802 30.744 160.546 30.552C160.29 30.3493 159.986 30.248 159.634 30.248C159.41 30.248 159.127 30.3227 158.786 30.472C158.455 30.6213 158.173 30.8027 157.938 31.016V36.968H155.378V28.328H157.938Z" fill="#535353"/>
<path d="M87.628 54.564H87.58L86.632 60H84.22L82.18 51.6H84.244L85.444 57.936H85.492L86.692 51.6H88.504L89.704 57.936H89.752L90.952 51.6H93.016L90.976 60H88.564L87.628 54.564ZM95.8674 53.52V60H93.9474V53.52H95.8674ZM93.9474 50.772H95.8674V52.692H93.9474V50.772ZM99.145 53.496V54.276C99.441 54.02 99.777 53.82 100.153 53.676C100.537 53.532 100.917 53.46 101.293 53.46C101.909 53.46 102.397 53.64 102.757 54C103.125 54.36 103.309 54.828 103.309 55.404V59.976H101.389V55.728C101.389 55.496 101.293 55.308 101.101 55.164C100.909 55.012 100.681 54.936 100.417 54.936C100.249 54.936 100.037 54.992 99.781 55.104C99.533 55.216 99.321 55.352 99.145 55.512V59.976H97.225V53.496H99.145ZM109.551 53.52V54.216C109.759 53.992 110.007 53.82 110.295 53.7C110.591 53.572 110.883 53.508 111.171 53.508C111.371 53.508 111.559 53.536 111.735 53.592V55.068C111.511 55.012 111.299 54.984 111.099 54.984C110.795 54.984 110.507 55.036 110.235 55.14C109.963 55.236 109.735 55.392 109.551 55.608V60H107.631V53.52H109.551ZM115.055 60.156C114.447 60.156 113.915 60.012 113.459 59.724C113.011 59.436 112.663 59.04 112.415 58.536C112.175 58.032 112.055 57.444 112.055 56.772C112.055 56.108 112.175 55.52 112.415 55.008C112.663 54.488 113.007 54.084 113.447 53.796C113.895 53.508 114.415 53.364 115.007 53.364C115.279 53.364 115.551 53.416 115.823 53.52C116.103 53.616 116.363 53.752 116.603 53.928V53.52H118.523V58.488C118.523 59.136 118.603 59.64 118.763 60H116.963C116.907 59.888 116.859 59.744 116.819 59.568C116.323 59.96 115.735 60.156 115.055 60.156ZM113.891 56.772C113.891 57.14 113.963 57.476 114.107 57.78C114.259 58.084 114.455 58.328 114.695 58.512C114.943 58.688 115.203 58.776 115.475 58.776C115.667 58.776 115.883 58.736 116.123 58.656C116.363 58.568 116.571 58.384 116.747 58.104V55.416C116.571 55.136 116.363 54.956 116.123 54.876C115.891 54.796 115.675 54.756 115.475 54.756C115.203 54.756 114.943 54.844 114.695 55.02C114.455 55.196 114.259 55.44 114.107 55.752C113.963 56.056 113.891 56.396 113.891 56.772ZM121.645 53.496V54.276C121.941 54.02 122.277 53.82 122.653 53.676C123.037 53.532 123.417 53.46 123.793 53.46C124.409 53.46 124.897 53.64 125.257 54C125.625 54.36 125.809 54.828 125.809 55.404V59.976H123.889V55.728C123.889 55.496 123.793 55.308 123.601 55.164C123.409 55.012 123.181 54.936 122.917 54.936C122.749 54.936 122.537 54.992 122.281 55.104C122.033 55.216 121.821 55.352 121.645 55.512V59.976H119.725V53.496H121.645ZM129.726 60.156C129.134 60.156 128.614 60.016 128.166 59.736C127.718 59.448 127.374 59.048 127.134 58.536C126.894 58.024 126.774 57.44 126.774 56.784C126.774 56.12 126.894 55.532 127.134 55.02C127.382 54.5 127.726 54.096 128.166 53.808C128.614 53.52 129.134 53.376 129.726 53.376C129.998 53.376 130.27 53.424 130.542 53.52C130.822 53.616 131.082 53.756 131.322 53.94V50.772H133.242V58.5C133.242 59.14 133.322 59.64 133.482 60H131.682C131.626 59.888 131.578 59.744 131.538 59.568C131.034 59.96 130.43 60.156 129.726 60.156ZM128.61 56.784C128.61 57.152 128.682 57.488 128.826 57.792C128.978 58.096 129.174 58.34 129.414 58.524C129.662 58.7 129.922 58.788 130.194 58.788C130.41 58.788 130.646 58.736 130.902 58.632C131.166 58.528 131.382 58.312 131.55 57.984V55.572C131.382 55.236 131.166 55.016 130.902 54.912C130.646 54.808 130.41 54.756 130.194 54.756C129.922 54.756 129.662 54.844 129.414 55.02C129.174 55.196 128.978 55.44 128.826 55.752C128.682 56.064 128.61 56.408 128.61 56.784ZM137.612 60.156C136.932 60.156 136.332 60.016 135.812 59.736C135.3 59.456 134.904 59.06 134.624 58.548C134.344 58.028 134.204 57.416 134.204 56.712C134.204 55.632 134.508 54.804 135.116 54.228C135.724 53.652 136.556 53.364 137.612 53.364C138.66 53.364 139.488 53.652 140.096 54.228C140.704 54.804 141.008 55.632 141.008 56.712C141.008 57.416 140.868 58.028 140.588 58.548C140.308 59.06 139.912 59.456 139.4 59.736C138.888 60.016 138.292 60.156 137.612 60.156ZM136.1 56.712C136.1 57.328 136.24 57.824 136.52 58.2C136.8 58.576 137.164 58.764 137.612 58.764C138.06 58.764 138.42 58.576 138.692 58.2C138.972 57.824 139.112 57.328 139.112 56.712C139.112 56.072 138.976 55.588 138.704 55.26C138.44 54.924 138.076 54.756 137.612 54.756C137.148 54.756 136.78 54.924 136.508 55.26C136.236 55.588 136.1 56.072 136.1 56.712ZM143.887 53.508V54.192C144.175 53.96 144.495 53.78 144.847 53.652C145.199 53.524 145.555 53.46 145.915 53.46C146.275 53.46 146.587 53.528 146.851 53.664C147.115 53.792 147.323 53.972 147.475 54.204C147.771 53.964 148.095 53.78 148.447 53.652C148.799 53.524 149.155 53.46 149.515 53.46C150.123 53.46 150.591 53.64 150.919 54C151.247 54.36 151.411 54.828 151.411 55.404V60H149.491V55.728C149.491 55.496 149.411 55.308 149.251 55.164C149.099 55.012 148.895 54.936 148.639 54.936C148.527 54.936 148.395 54.96 148.243 55.008C148.091 55.056 147.943 55.12 147.799 55.2C147.807 55.248 147.811 55.316 147.811 55.404V60H145.891V55.728C145.891 55.496 145.811 55.308 145.651 55.164C145.499 55.012 145.295 54.936 145.039 54.936C144.887 54.936 144.699 54.98 144.475 55.068C144.251 55.156 144.055 55.272 143.887 55.416V60H141.967V53.508H143.887ZM157.645 53.52V54.216C157.853 53.992 158.101 53.82 158.389 53.7C158.685 53.572 158.977 53.508 159.265 53.508C159.465 53.508 159.653 53.536 159.829 53.592V55.068C159.605 55.012 159.393 54.984 159.193 54.984C158.889 54.984 158.601 55.036 158.329 55.14C158.057 55.236 157.829 55.392 157.645 55.608V60H155.725V53.52H157.645ZM166.281 59.652C165.977 59.836 165.621 59.972 165.213 60.06C164.813 60.148 164.425 60.192 164.049 60.192C162.769 60.192 161.797 59.888 161.133 59.28C160.477 58.672 160.149 57.82 160.149 56.724C160.149 55.636 160.441 54.804 161.025 54.228C161.617 53.644 162.421 53.352 163.437 53.352C164.445 53.352 165.241 53.644 165.825 54.228C166.417 54.804 166.713 55.636 166.713 56.724C166.713 56.844 166.705 57.016 166.689 57.24H162.021C162.197 58.272 162.873 58.788 164.049 58.788C164.873 58.788 165.617 58.544 166.281 58.056V59.652ZM164.901 55.896C164.797 55.496 164.617 55.2 164.361 55.008C164.105 54.816 163.797 54.72 163.437 54.72C163.101 54.72 162.813 54.82 162.573 55.02C162.341 55.22 162.177 55.512 162.081 55.896H164.901ZM172.265 55.74H172.205L171.329 60H169.061L167.141 53.52H169.037L170.213 58.392H170.261L171.389 53.52H173.105L174.221 58.392H174.269L175.445 53.52H177.341L175.421 60H173.153L172.265 55.74ZM180.762 60.156C180.154 60.156 179.622 60.012 179.166 59.724C178.718 59.436 178.37 59.04 178.122 58.536C177.882 58.032 177.762 57.444 177.762 56.772C177.762 56.108 177.882 55.52 178.122 55.008C178.37 54.488 178.714 54.084 179.154 53.796C179.602 53.508 180.122 53.364 180.714 53.364C180.986 53.364 181.258 53.416 181.53 53.52C181.81 53.616 182.07 53.752 182.31 53.928V53.52H184.23V58.488C184.23 59.136 184.31 59.64 184.47 60H182.67C182.614 59.888 182.566 59.744 182.526 59.568C182.03 59.96 181.442 60.156 180.762 60.156ZM179.598 56.772C179.598 57.14 179.67 57.476 179.814 57.78C179.966 58.084 180.162 58.328 180.402 58.512C180.65 58.688 180.91 58.776 181.182 58.776C181.374 58.776 181.59 58.736 181.83 58.656C182.07 58.568 182.278 58.384 182.454 58.104V55.416C182.278 55.136 182.07 54.956 181.83 54.876C181.598 54.796 181.382 54.756 181.182 54.756C180.91 54.756 180.65 54.844 180.402 55.02C180.162 55.196 179.966 55.44 179.814 55.752C179.67 56.056 179.598 56.396 179.598 56.772ZM187.352 53.52V54.216C187.56 53.992 187.808 53.82 188.096 53.7C188.392 53.572 188.684 53.508 188.972 53.508C189.172 53.508 189.36 53.536 189.536 53.592V55.068C189.312 55.012 189.1 54.984 188.9 54.984C188.596 54.984 188.308 55.036 188.036 55.14C187.764 55.236 187.536 55.392 187.352 55.608V60H185.432V53.52H187.352ZM193.042 60.156C192.45 60.156 191.93 60.016 191.482 59.736C191.034 59.448 190.69 59.048 190.45 58.536C190.21 58.024 190.09 57.44 190.09 56.784C190.09 56.12 190.21 55.532 190.45 55.02C190.698 54.5 191.042 54.096 191.482 53.808C191.93 53.52 192.45 53.376 193.042 53.376C193.314 53.376 193.586 53.424 193.858 53.52C194.138 53.616 194.398 53.756 194.638 53.94V50.772H196.558V58.5C196.558 59.14 196.638 59.64 196.798 60H194.998C194.942 59.888 194.894 59.744 194.854 59.568C194.35 59.96 193.746 60.156 193.042 60.156ZM191.926 56.784C191.926 57.152 191.998 57.488 192.142 57.792C192.294 58.096 192.49 58.34 192.73 58.524C192.978 58.7 193.238 58.788 193.51 58.788C193.726 58.788 193.962 58.736 194.218 58.632C194.482 58.528 194.698 58.312 194.866 57.984V55.572C194.698 55.236 194.482 55.016 194.218 54.912C193.962 54.808 193.726 54.756 193.51 54.756C193.238 54.756 192.978 54.844 192.73 55.02C192.49 55.196 192.294 55.44 192.142 55.752C191.998 56.064 191.926 56.408 191.926 56.784ZM200.364 60.144C199.876 60.168 199.38 60.128 198.876 60.024C198.38 59.928 197.948 59.776 197.58 59.568V57.84C197.908 58.08 198.3 58.28 198.756 58.44C199.22 58.592 199.628 58.656 199.98 58.632C200.228 58.616 200.408 58.564 200.52 58.476C200.632 58.38 200.696 58.284 200.712 58.188C200.752 57.94 200.692 57.752 200.532 57.624C200.372 57.496 200.072 57.372 199.632 57.252C199.144 57.116 198.756 56.96 198.468 56.784C198.18 56.6 197.96 56.396 197.808 56.172C197.664 55.94 197.592 55.648 197.592 55.296C197.592 54.928 197.688 54.6 197.88 54.312C198.072 54.016 198.376 53.784 198.792 53.616C199.208 53.448 199.656 53.364 200.136 53.364C200.496 53.364 200.86 53.4 201.228 53.472C201.596 53.536 201.904 53.624 202.152 53.736V55.284C201.896 55.156 201.592 55.044 201.24 54.948C200.896 54.844 200.596 54.792 200.34 54.792C199.796 54.792 199.5 54.936 199.452 55.224C199.428 55.392 199.504 55.54 199.68 55.668C199.864 55.796 200.124 55.912 200.46 56.016C200.94 56.168 201.332 56.324 201.636 56.484C201.948 56.644 202.192 56.852 202.368 57.108C202.544 57.364 202.632 57.692 202.632 58.092C202.632 58.684 202.42 59.168 201.996 59.544C201.572 59.912 201.028 60.112 200.364 60.144Z" fill="#919191"/>
</svg>
