<svg width="341" height="86" viewBox="0 0 341 86" fill="none" xmlns="http://www.w3.org/2000/svg">
<rect x="1.5" y="1.5" width="338" height="83" rx="22.5" fill="white"/>
<rect x="1.5" y="1.5" width="338" height="83" rx="22.5" stroke="#EAEEED" stroke-width="3"/>
<rect x="16" y="16" width="54" height="54" rx="16" fill="#F6F9F8"/>
<path d="M86.336 28.76C86.336 30.136 86.288 31.368 86.192 32.456C86.096 33.544 85.9307 34.6267 85.696 35.704C86.176 35.992 86.7147 36.2 87.312 36.328C87.92 36.4453 88.656 36.504 89.52 36.504H97.36V38.44H89.52C88.5173 38.44 87.68 38.376 87.008 38.248C86.336 38.1307 85.7387 37.9333 85.216 37.656L84.928 38.6H82.736C83.248 37.2133 83.6213 35.9227 83.856 34.728C84.1013 33.5227 84.2507 32.2267 84.304 30.84H82.48V28.76H86.336ZM85.296 24.2L86.4 27.672H84.24L83.136 24.2H85.296ZM86.752 35.928C87.1467 35.2453 87.4293 34.5787 87.6 33.928C87.7707 33.2667 87.8667 32.536 87.888 31.736H86.848V30.024H88.8V29.496H87.12V24.536H88.656L88.8 23.912H90.768L90.624 24.536H92.032V29.496H90.704V30.024H92.592V31.736H89.584C89.584 31.9813 89.5787 32.1627 89.568 32.28H92.272V35.304C93.0187 34.0987 93.568 33.0427 93.92 32.136L93.2 29.72H92.064C92.512 28.0133 92.8213 26.0987 92.992 23.976H94.768L94.736 24.344C94.7147 24.6853 94.6933 24.9413 94.672 25.112H97.216V27.064H96.816C96.6773 29.0267 96.4053 30.6693 96 31.992L97.328 35.768H95.584L95.008 34.088C94.8053 34.504 94.5173 35.064 94.144 35.768H92.272V35.928H90.576V34.024H89.344C89.184 34.728 88.992 35.3627 88.768 35.928H86.752ZM90.32 28.184V27.64H88.832V28.184H90.32ZM90.32 26.376V25.88H88.832V26.376H90.32ZM94.848 29.672C94.9973 28.9147 95.1147 28.0453 95.2 27.064H94.448C94.4053 27.352 94.368 27.5867 94.336 27.768L94.848 29.672ZM103.92 30.936H112.592V38.6H110.512V37.176H106V38.6H103.92V30.936ZM98.56 28.76H101.904V35.4L102.992 34.984V37.368L99.824 38.6V30.888H98.56V28.76ZM101.408 24.2L102.512 27.672H100.336L99.232 24.2H101.408ZM103.088 28.84H107.184V28.28H103.792V26.696H107.184V26.136H103.36V24.52H107.184V23.88H109.264V24.52H113.152V26.136H109.264V26.696H112.704V28.28H109.264V28.84H113.424V30.488H103.088V28.84ZM110.512 35.624V34.904H106V35.624H110.512ZM110.512 33.352V32.632H106V33.352H110.512ZM118.928 36.424C118.565 37.1387 118.16 37.864 117.712 38.6H115.184C116.112 37.2453 116.8 36.1253 117.248 35.24L114.848 33.544L115.648 28.088H114.8V26.008H115.952L116.224 24.2H118.432L118.192 26.008H120.88C120.88 27.896 120.8 29.48 120.64 30.76C120.491 32.0293 120.197 33.272 119.76 34.488L120.608 35.096V37.608L118.928 36.424ZM118.08 33.288C118.571 31.816 118.859 30.0827 118.944 28.088H117.6L116.976 32.504L118.08 33.288ZM121.008 29.944H124.224C124.96 28.856 125.515 27.7147 125.888 26.52H121.68V24.44H128.608C128.192 26.52 127.515 28.3547 126.576 29.944H129.52V32.024H126.448V38.6H122.112V36.52H124.432V32.024H121.008V29.944ZM144.88 38.792C142.853 38.312 141.109 37.5653 139.648 36.552C138.187 37.5653 136.443 38.312 134.416 38.792V36.584C135.781 36.2107 136.96 35.7253 137.952 35.128C136.512 33.656 135.568 31.8427 135.12 29.688C134.491 32.7173 133.712 35.688 132.784 38.6H130.496C131.691 35.3147 132.677 31.5867 133.456 27.416H130.8V25.4H133.808C133.872 25.0693 133.957 24.5627 134.064 23.88H136.16L135.92 25.4H145.2V27.416H135.552C135.424 28.12 135.323 28.648 135.248 29H144.304C143.92 31.464 142.933 33.5067 141.344 35.128C142.336 35.7253 143.515 36.2107 144.88 36.584V38.792ZM137.6 30.952C138.091 32.0933 138.773 33.0693 139.648 33.88C140.523 33.0693 141.205 32.0933 141.696 30.952H137.6Z" fill="#535353"/>
<path d="M85.252 53.82C85.252 54.852 85.216 55.776 85.144 56.592C85.072 57.408 84.948 58.22 84.772 59.028C85.132 59.244 85.536 59.4 85.984 59.496C86.44 59.584 86.992 59.628 87.64 59.628H93.52V61.08H87.64C86.888 61.08 86.26 61.032 85.756 60.936C85.252 60.848 84.804 60.7 84.412 60.492L84.196 61.2H82.552C82.936 60.16 83.216 59.192 83.392 58.296C83.576 57.392 83.688 56.42 83.728 55.38H82.36V53.82H85.252ZM84.472 50.4L85.3 53.004H83.68L82.852 50.4H84.472ZM85.564 59.196C85.86 58.684 86.072 58.184 86.2 57.696C86.328 57.2 86.4 56.652 86.416 56.052H85.636V54.768H87.1V54.372H85.84V50.652H86.992L87.1 50.184H88.576L88.468 50.652H89.524V54.372H88.528V54.768H89.944V56.052H87.688C87.688 56.236 87.684 56.372 87.676 56.46H89.704V58.728C90.264 57.824 90.676 57.032 90.94 56.352L90.4 54.54H89.548C89.884 53.26 90.116 51.824 90.244 50.232H91.576L91.552 50.508C91.536 50.764 91.52 50.956 91.504 51.084H93.412V52.548H93.112C93.008 54.02 92.804 55.252 92.5 56.244L93.496 59.076H92.188L91.756 57.816C91.604 58.128 91.388 58.548 91.108 59.076H89.704V59.196H88.432V57.768H87.508C87.388 58.296 87.244 58.772 87.076 59.196H85.564ZM88.24 53.388V52.98H87.124V53.388H88.24ZM88.24 52.032V51.66H87.124V52.032H88.24ZM91.636 54.504C91.748 53.936 91.836 53.284 91.9 52.548H91.336C91.304 52.764 91.276 52.94 91.252 53.076L91.636 54.504ZM98.44 55.452H104.944V61.2H103.384V60.132H100V61.2H98.44V55.452ZM94.42 53.82H96.928V58.8L97.744 58.488V60.276L95.368 61.2V55.416H94.42V53.82ZM96.556 50.4L97.384 53.004H95.752L94.924 50.4H96.556ZM97.816 53.88H100.888V53.46H98.344V52.272H100.888V51.852H98.02V50.64H100.888V50.16H102.448V50.64H105.364V51.852H102.448V52.272H105.028V53.46H102.448V53.88H105.568V55.116H97.816V53.88ZM103.384 58.968V58.428H100V58.968H103.384ZM103.384 57.264V56.724H100V57.264H103.384ZM109.696 59.568C109.424 60.104 109.12 60.648 108.784 61.2H106.888C107.584 60.184 108.1 59.344 108.436 58.68L106.636 57.408L107.236 53.316H106.6V51.756H107.464L107.668 50.4H109.324L109.144 51.756H111.16C111.16 53.172 111.1 54.36 110.98 55.32C110.868 56.272 110.648 57.204 110.32 58.116L110.956 58.572V60.456L109.696 59.568ZM109.06 57.216C109.428 56.112 109.644 54.812 109.708 53.316H108.7L108.232 56.628L109.06 57.216ZM111.256 54.708H113.668C114.22 53.892 114.636 53.036 114.916 52.14H111.76V50.58H116.956C116.644 52.14 116.136 53.516 115.432 54.708H117.64V56.268H115.336V61.2H112.084V59.64H113.824V56.268H111.256V54.708ZM129.16 61.344C127.64 60.984 126.332 60.424 125.236 59.664C124.14 60.424 122.832 60.984 121.312 61.344V59.688C122.336 59.408 123.22 59.044 123.964 58.596C122.884 57.492 122.176 56.132 121.84 54.516C121.368 56.788 120.784 59.016 120.088 61.2H118.372C119.268 58.736 120.008 55.94 120.592 52.812H118.6V51.3H120.856C120.904 51.052 120.968 50.672 121.048 50.16H122.62L122.44 51.3H129.4V52.812H122.164C122.068 53.34 121.992 53.736 121.936 54H128.728C128.44 55.848 127.7 57.38 126.508 58.596C127.252 59.044 128.136 59.408 129.16 59.688V61.344ZM123.7 55.464C124.068 56.32 124.58 57.052 125.236 57.66C125.892 57.052 126.404 56.32 126.772 55.464H123.7ZM131.38 59.784H132.868C132.836 59.152 132.804 58.684 132.772 58.38L130.696 59.436V57.816L132.556 56.88C132.5 56.616 132.42 56.292 132.316 55.908L130.696 56.724V55.08L131.812 54.516C131.636 54.084 131.396 53.58 131.092 53.004H132.844C132.964 53.244 133.084 53.504 133.204 53.784L134.644 53.052V54.696L133.732 55.164C133.98 55.948 134.152 56.8 134.248 57.72C134.352 58.64 134.404 59.8 134.404 61.2H131.38V59.784ZM130.72 50.832H133.18V50.22H134.74V50.832H137.26V50.22H138.82V50.832H141.28V52.332H138.82V52.848H137.26V52.332H134.74V52.848H133.18V52.332H130.72V50.832ZM134.8 59.436C135.528 59.14 136.08 58.74 136.456 58.236C136.832 57.724 137.076 57.068 137.188 56.268H134.956V54.756H137.26V53.064H138.772V54.756H141.28V56.268H138.712C138.68 56.572 138.632 56.864 138.568 57.144H139.9L141.58 61.2H139.948L138.46 57.6C138.196 58.52 137.76 59.276 137.152 59.868C136.552 60.452 135.768 60.908 134.8 61.236V59.436ZM140.416 53.112L140.632 54.492H139.432L139.216 53.112H140.416ZM152.92 54.96H146.968V50.508H152.92V54.96ZM142.48 56.436C143.688 55.74 144.532 54.764 145.012 53.508H146.644C146.38 54.444 145.956 55.292 145.372 56.052V61.26H143.812V57.528C143.404 57.816 142.96 58.08 142.48 58.32V56.436ZM142.48 53.196C143.6 52.476 144.372 51.516 144.796 50.316H146.344C145.776 52.444 144.488 54.028 142.48 55.068V53.196ZM146.464 57.168H150.976V56.64H146.704V55.392H153.184V56.64H152.512V57.168H153.52V58.416H152.512V61.2H149.872V59.88H150.976V58.416H146.464V57.168ZM148.54 58.74L149.38 60.936H147.868L147.028 58.74H148.54ZM151.36 53.796V53.244H148.528V53.796H151.36ZM151.36 52.224V51.684H148.528V52.224H151.36ZM165.52 55.128C164.64 54.896 163.824 54.528 163.072 54.024V54.78H160.78V55.944H164.572V57.42H160.78V59.556H161.836L162.508 57.948H164.008L163.336 59.556H165.196V61.068H154.804V59.556H156.676L156.004 57.948H157.504L158.176 59.556H159.22V57.42H155.428V55.944H159.22V54.78H156.928V54.024C156.176 54.528 155.36 54.896 154.48 55.128V53.532C155.432 53.164 156.184 52.728 156.736 52.224C157.296 51.712 157.744 51.104 158.08 50.4H161.92C162.256 51.104 162.7 51.712 163.252 52.224C163.812 52.728 164.568 53.164 165.52 53.532V55.128ZM162.16 53.304C161.696 52.888 161.312 52.424 161.008 51.912H158.992C158.688 52.424 158.304 52.888 157.84 53.304H162.16ZM167.176 53.796H171.22V52.32C169.636 52.368 168.212 52.4 166.948 52.416V50.916C169.188 50.868 171.04 50.82 172.504 50.772C173.976 50.716 175.496 50.632 177.064 50.52V52.032C175.752 52.128 174.324 52.208 172.78 52.272V53.796H176.824V59.88H174.328V58.344H175.288V55.344H172.78V61.2H171.22V55.344H168.712V59.88H167.176V53.796ZM183.472 54.336C184.32 54.224 185 54.068 185.512 53.868L184.864 52.752C184.448 53.008 183.984 53.204 183.472 53.34V51.804C184.216 51.508 184.768 51.04 185.128 50.4H189.328C189.224 51.672 188.936 52.684 188.464 53.436C188 54.18 187.364 54.732 186.556 55.092C185.748 55.452 184.72 55.688 183.472 55.8V54.336ZM178.6 59.724C180.408 59.564 181.844 59.024 182.908 58.104H178.9V56.592H183.208V55.896H184.792V56.592H189.1V58.104H185.092C186.156 59.024 187.592 59.564 189.4 59.724V61.248C187.008 61.056 185.208 60.356 184 59.148C182.792 60.356 180.992 61.056 178.6 61.248V59.724ZM178.78 54L181.384 53.052V50.4H182.932V55.62H181.384V54.588L178.78 55.536V54ZM180.508 50.58L181.036 52.848H179.584L179.056 50.58H180.508ZM186.676 53.172C187.052 52.836 187.34 52.4 187.54 51.864H185.908L186.676 53.172ZM190.36 61.2C190.56 60.384 190.7 59.588 190.78 58.812C190.86 58.028 190.9 57.132 190.9 56.124V50.568H196.384V52.044H192.316V53.004H196.384V54.444H194.236V55.524H196.192V61.056C196.688 60.08 197.032 59.128 197.224 58.2C197.424 57.264 197.524 56.192 197.524 54.984V53.532H196.624V51.972H197.524V50.28H199.06V51.972H201.232V61.2H198.844V59.64H199.768V53.532H198.976V54.984C198.976 56.152 198.884 57.236 198.7 58.236C198.516 59.236 198.212 60.224 197.788 61.2H194.188V59.748H194.896V56.964H194.2V56.976C194.2 57.776 194.152 58.516 194.056 59.196C193.96 59.876 193.8 60.544 193.576 61.2H192.136C192.416 60.528 192.608 59.872 192.712 59.232C192.816 58.584 192.868 57.832 192.868 56.976V54.444H192.316V56.124C192.316 57.076 192.28 57.96 192.208 58.776C192.136 59.592 192.02 60.4 191.86 61.2H190.36Z" fill="#919191"/>
</svg>

