<svg width="341" height="86" viewBox="0 0 341 86" fill="none" xmlns="http://www.w3.org/2000/svg">
<rect x="1.5" y="1.5" width="338" height="83" rx="22.5" fill="white"/>
<rect x="1.5" y="1.5" width="338" height="83" rx="22.5" stroke="#EAEEED" stroke-width="3"/>
<rect x="16" y="16" width="54" height="54" rx="16" fill="#F6F9F8"/>
<path d="M83.008 25.8H85.648V37H83.008V25.8ZM90.0163 28.328V29.368C90.4109 29.0267 90.8589 28.76 91.3602 28.568C91.8723 28.376 92.3789 28.28 92.8803 28.28C93.7016 28.28 94.3523 28.52 94.8323 29C95.3229 29.48 95.5683 30.104 95.5683 30.872V36.968H93.0083V31.304C93.0083 30.9947 92.8803 30.744 92.6243 30.552C92.3683 30.3493 92.0643 30.248 91.7123 30.248C91.4883 30.248 91.2056 30.3227 90.8643 30.472C90.5336 30.6213 90.2509 30.8027 90.0163 31.016V36.968H87.4563V28.328H90.0163ZM96.455 28.36H99.047L101.111 35.432H101.191L103.271 28.36H105.847L103.111 37H99.191L96.455 28.36ZM109.49 28.36V37H106.93V28.36H109.49ZM106.93 24.696H109.49V27.256H106.93V24.696ZM111.972 28.36V25.896H114.372V28.36H116.036V30.312H114.372V34.024C114.372 34.3333 114.393 34.568 114.436 34.728C114.489 34.888 114.58 35 114.708 35.064C114.836 35.1173 115.023 35.144 115.268 35.144C115.428 35.144 115.561 35.1387 115.668 35.128C115.785 35.1173 115.887 35.1013 115.972 35.08V37.048C115.524 37.1013 115.108 37.128 114.724 37.128C113.988 37.128 113.439 37.0533 113.076 36.904C112.713 36.7547 112.436 36.4987 112.244 36.136C112.063 35.7627 111.972 35.2347 111.972 34.552V30.312H110.724V28.36H111.972ZM125.015 36.536C124.61 36.7813 124.135 36.9627 123.591 37.08C123.058 37.1973 122.541 37.256 122.039 37.256C120.333 37.256 119.037 36.8507 118.151 36.04C117.277 35.2293 116.839 34.0933 116.839 32.632C116.839 31.1813 117.229 30.072 118.007 29.304C118.797 28.5253 119.869 28.136 121.223 28.136C122.567 28.136 123.629 28.5253 124.407 29.304C125.197 30.072 125.591 31.1813 125.591 32.632C125.591 32.792 125.581 33.0213 125.559 33.32H119.335C119.57 34.696 120.471 35.384 122.039 35.384C123.138 35.384 124.13 35.0587 125.015 34.408V36.536ZM123.175 31.528C123.037 30.9947 122.797 30.6 122.455 30.344C122.114 30.088 121.703 29.96 121.223 29.96C120.775 29.96 120.391 30.0933 120.071 30.36C119.762 30.6267 119.543 31.016 119.415 31.528H123.175ZM131.194 25.8H138.618V27.96H133.834V30.392H137.962V32.408H133.834V37H131.194V25.8ZM142.454 28.36V29.288C142.731 28.9893 143.062 28.76 143.446 28.6C143.84 28.4293 144.23 28.344 144.614 28.344C144.88 28.344 145.131 28.3813 145.366 28.456V30.424C145.067 30.3493 144.784 30.312 144.518 30.312C144.112 30.312 143.728 30.3813 143.366 30.52C143.003 30.648 142.699 30.856 142.454 31.144V37H139.894V28.36H142.454ZM149.193 28.36V37H146.633V28.36H149.193ZM146.633 24.696H149.193V27.256H146.633V24.696ZM158.859 36.536C158.454 36.7813 157.979 36.9627 157.435 37.08C156.902 37.1973 156.384 37.256 155.883 37.256C154.176 37.256 152.88 36.8507 151.995 36.04C151.12 35.2293 150.683 34.0933 150.683 32.632C150.683 31.1813 151.072 30.072 151.851 29.304C152.64 28.5253 153.712 28.136 155.067 28.136C156.411 28.136 157.472 28.5253 158.251 29.304C159.04 30.072 159.435 31.1813 159.435 32.632C159.435 32.792 159.424 33.0213 159.403 33.32H153.179C153.414 34.696 154.315 35.384 155.883 35.384C156.982 35.384 157.974 35.0587 158.859 34.408V36.536ZM157.019 31.528C156.88 30.9947 156.64 30.6 156.299 30.344C155.958 30.088 155.547 29.96 155.067 29.96C154.619 29.96 154.235 30.0933 153.915 30.36C153.606 30.6267 153.387 31.016 153.259 31.528H157.019ZM163.282 28.328V29.368C163.677 29.0267 164.125 28.76 164.626 28.568C165.138 28.376 165.645 28.28 166.146 28.28C166.967 28.28 167.618 28.52 168.098 29C168.589 29.48 168.834 30.104 168.834 30.872V36.968H166.274V31.304C166.274 30.9947 166.146 30.744 165.89 30.552C165.634 30.3493 165.33 30.248 164.978 30.248C164.754 30.248 164.471 30.3227 164.13 30.472C163.799 30.6213 163.517 30.8027 163.282 31.016V36.968H160.722V28.328H163.282ZM174.057 37.208C173.267 37.208 172.574 37.0213 171.977 36.648C171.379 36.264 170.921 35.7307 170.601 35.048C170.281 34.3653 170.121 33.5867 170.121 32.712C170.121 31.8267 170.281 31.0427 170.601 30.36C170.931 29.6667 171.39 29.128 171.977 28.744C172.574 28.36 173.267 28.168 174.057 28.168C174.419 28.168 174.782 28.232 175.145 28.36C175.518 28.488 175.865 28.6747 176.185 28.92V24.696H178.745V35C178.745 35.8533 178.851 36.52 179.065 37H176.665C176.59 36.8507 176.526 36.6587 176.473 36.424C175.801 36.9467 174.995 37.208 174.057 37.208ZM172.569 32.712C172.569 33.2027 172.665 33.6507 172.857 34.056C173.059 34.4613 173.321 34.7867 173.641 35.032C173.971 35.2667 174.318 35.384 174.681 35.384C174.969 35.384 175.283 35.3147 175.625 35.176C175.977 35.0373 176.265 34.7493 176.489 34.312V31.096C176.265 30.648 175.977 30.3547 175.625 30.216C175.283 30.0773 174.969 30.008 174.681 30.008C174.318 30.008 173.971 30.1253 173.641 30.36C173.321 30.5947 173.059 30.92 172.857 31.336C172.665 31.752 172.569 32.2107 172.569 32.712ZM183.819 37.192C183.168 37.224 182.507 37.1707 181.835 37.032C181.174 36.904 180.598 36.7013 180.107 36.424V34.12C180.544 34.44 181.067 34.7067 181.675 34.92C182.294 35.1227 182.838 35.208 183.307 35.176C183.638 35.1547 183.878 35.0853 184.027 34.968C184.176 34.84 184.262 34.712 184.283 34.584C184.336 34.2533 184.256 34.0027 184.043 33.832C183.83 33.6613 183.43 33.496 182.843 33.336C182.192 33.1547 181.675 32.9467 181.291 32.712C180.907 32.4667 180.614 32.1947 180.411 31.896C180.219 31.5867 180.123 31.1973 180.123 30.728C180.123 30.2373 180.251 29.8 180.507 29.416C180.763 29.0213 181.168 28.712 181.723 28.488C182.278 28.264 182.875 28.152 183.515 28.152C183.995 28.152 184.48 28.2 184.971 28.296C185.462 28.3813 185.872 28.4987 186.203 28.648V30.712C185.862 30.5413 185.456 30.392 184.987 30.264C184.528 30.1253 184.128 30.056 183.787 30.056C183.062 30.056 182.667 30.248 182.603 30.632C182.571 30.856 182.672 31.0533 182.907 31.224C183.152 31.3947 183.499 31.5493 183.947 31.688C184.587 31.8907 185.11 32.0987 185.515 32.312C185.931 32.5253 186.256 32.8027 186.491 33.144C186.726 33.4853 186.843 33.9227 186.843 34.456C186.843 35.2453 186.56 35.8907 185.995 36.392C185.43 36.8827 184.704 37.1493 183.819 37.192Z" fill="#535353"/>
<path d="M82.72 51.6H88.624V53.232H84.7V55.032H88.108V56.556H84.7V58.368H88.624V60H82.72V51.6ZM92.3444 60.156C91.7364 60.156 91.2044 60.012 90.7484 59.724C90.3004 59.436 89.9524 59.04 89.7044 58.536C89.4644 58.032 89.3444 57.444 89.3444 56.772C89.3444 56.108 89.4644 55.52 89.7044 55.008C89.9524 54.488 90.2964 54.084 90.7364 53.796C91.1844 53.508 91.7044 53.364 92.2964 53.364C92.5684 53.364 92.8404 53.416 93.1124 53.52C93.3924 53.616 93.6524 53.752 93.8924 53.928V53.52H95.8124V58.488C95.8124 59.136 95.8924 59.64 96.0524 60H94.2524C94.1964 59.888 94.1484 59.744 94.1084 59.568C93.6124 59.96 93.0244 60.156 92.3444 60.156ZM91.1804 56.772C91.1804 57.14 91.2524 57.476 91.3964 57.78C91.5484 58.084 91.7444 58.328 91.9844 58.512C92.2324 58.688 92.4924 58.776 92.7644 58.776C92.9564 58.776 93.1724 58.736 93.4124 58.656C93.6524 58.568 93.8604 58.384 94.0364 58.104V55.416C93.8604 55.136 93.6524 54.956 93.4124 54.876C93.1804 54.796 92.9644 54.756 92.7644 54.756C92.4924 54.756 92.2324 54.844 91.9844 55.02C91.7444 55.196 91.5484 55.44 91.3964 55.752C91.2524 56.056 91.1804 56.396 91.1804 56.772ZM98.9341 53.52V54.216C99.1421 53.992 99.3901 53.82 99.6781 53.7C99.9741 53.572 100.266 53.508 100.554 53.508C100.754 53.508 100.942 53.536 101.118 53.592V55.068C100.894 55.012 100.682 54.984 100.482 54.984C100.178 54.984 99.8901 55.036 99.6181 55.14C99.3461 55.236 99.1181 55.392 98.9341 55.608V60H97.0141V53.52H98.9341ZM103.833 53.496V54.276C104.129 54.02 104.465 53.82 104.84 53.676C105.225 53.532 105.605 53.46 105.981 53.46C106.597 53.46 107.085 53.64 107.445 54C107.813 54.36 107.997 54.828 107.997 55.404V59.976H106.077V55.728C106.077 55.496 105.981 55.308 105.789 55.164C105.597 55.012 105.369 54.936 105.105 54.936C104.937 54.936 104.725 54.992 104.469 55.104C104.221 55.216 104.009 55.352 103.833 55.512V59.976H101.913V53.496H103.833ZM117.719 59.784C117.103 60.032 116.471 60.156 115.823 60.156C115.143 60.156 114.515 60.02 113.939 59.748C113.371 59.468 112.919 59.076 112.583 58.572C112.247 58.06 112.079 57.472 112.079 56.808C112.079 56.112 112.239 55.504 112.559 54.984C112.879 54.464 113.315 54.068 113.867 53.796C114.427 53.516 115.051 53.376 115.739 53.376C116.363 53.376 116.995 53.488 117.635 53.712V55.188C117.147 54.98 116.647 54.876 116.135 54.876C115.503 54.876 114.979 55.028 114.563 55.332C114.147 55.628 113.939 56.12 113.939 56.808C113.939 57.2 114.047 57.532 114.263 57.804C114.479 58.076 114.759 58.284 115.103 58.428C115.447 58.564 115.811 58.632 116.195 58.632C116.491 58.632 116.771 58.592 117.035 58.512C117.307 58.424 117.535 58.304 117.719 58.152V59.784ZM121.85 60.156C121.17 60.156 120.57 60.016 120.05 59.736C119.538 59.456 119.142 59.06 118.862 58.548C118.582 58.028 118.442 57.416 118.442 56.712C118.442 55.632 118.746 54.804 119.354 54.228C119.962 53.652 120.794 53.364 121.85 53.364C122.898 53.364 123.726 53.652 124.334 54.228C124.942 54.804 125.246 55.632 125.246 56.712C125.246 57.416 125.106 58.028 124.826 58.548C124.546 59.06 124.15 59.456 123.638 59.736C123.126 60.016 122.53 60.156 121.85 60.156ZM120.338 56.712C120.338 57.328 120.478 57.824 120.758 58.2C121.038 58.576 121.402 58.764 121.85 58.764C122.298 58.764 122.658 58.576 122.93 58.2C123.21 57.824 123.35 57.328 123.35 56.712C123.35 56.072 123.214 55.588 122.942 55.26C122.678 54.924 122.314 54.756 121.85 54.756C121.386 54.756 121.018 54.924 120.746 55.26C120.474 55.588 120.338 56.072 120.338 56.712ZM128.281 53.52V60H126.361V53.52H128.281ZM126.361 50.772H128.281V52.692H126.361V50.772ZM131.559 53.496V54.276C131.855 54.02 132.191 53.82 132.567 53.676C132.951 53.532 133.331 53.46 133.707 53.46C134.323 53.46 134.811 53.64 135.171 54C135.539 54.36 135.723 54.828 135.723 55.404V59.976H133.803V55.728C133.803 55.496 133.707 55.308 133.515 55.164C133.323 55.012 133.095 54.936 132.831 54.936C132.663 54.936 132.451 54.992 132.195 55.104C131.947 55.216 131.735 55.352 131.559 55.512V59.976H129.639V53.496H131.559ZM141.965 53.52V54.216C142.173 53.992 142.421 53.82 142.709 53.7C143.005 53.572 143.297 53.508 143.585 53.508C143.785 53.508 143.973 53.536 144.149 53.592V55.068C143.925 55.012 143.713 54.984 143.513 54.984C143.209 54.984 142.921 55.036 142.649 55.14C142.377 55.236 142.149 55.392 141.965 55.608V60H140.045V53.52H141.965ZM150.601 59.652C150.297 59.836 149.941 59.972 149.533 60.06C149.133 60.148 148.745 60.192 148.369 60.192C147.089 60.192 146.117 59.888 145.453 59.28C144.797 58.672 144.469 57.82 144.469 56.724C144.469 55.636 144.761 54.804 145.345 54.228C145.937 53.644 146.741 53.352 147.757 53.352C148.765 53.352 149.561 53.644 150.145 54.228C150.737 54.804 151.033 55.636 151.033 56.724C151.033 56.844 151.025 57.016 151.009 57.24H146.341C146.517 58.272 147.193 58.788 148.369 58.788C149.193 58.788 149.937 58.544 150.601 58.056V59.652ZM149.221 55.896C149.117 55.496 148.937 55.2 148.681 55.008C148.425 54.816 148.117 54.72 147.757 54.72C147.421 54.72 147.133 54.82 146.893 55.02C146.661 55.22 146.497 55.512 146.401 55.896H149.221ZM156.585 55.74H156.525L155.649 60H153.381L151.461 53.52H153.357L154.533 58.392H154.581L155.709 53.52H157.425L158.541 58.392H158.589L159.765 53.52H161.661L159.741 60H157.473L156.585 55.74ZM165.083 60.156C164.475 60.156 163.943 60.012 163.487 59.724C163.039 59.436 162.691 59.04 162.443 58.536C162.203 58.032 162.083 57.444 162.083 56.772C162.083 56.108 162.203 55.52 162.443 55.008C162.691 54.488 163.035 54.084 163.475 53.796C163.923 53.508 164.443 53.364 165.035 53.364C165.307 53.364 165.579 53.416 165.851 53.52C166.131 53.616 166.391 53.752 166.631 53.928V53.52H168.551V58.488C168.551 59.136 168.631 59.64 168.791 60H166.991C166.935 59.888 166.887 59.744 166.847 59.568C166.351 59.96 165.763 60.156 165.083 60.156ZM163.919 56.772C163.919 57.14 163.991 57.476 164.135 57.78C164.287 58.084 164.483 58.328 164.723 58.512C164.971 58.688 165.231 58.776 165.503 58.776C165.695 58.776 165.911 58.736 166.151 58.656C166.391 58.568 166.599 58.384 166.775 58.104V55.416C166.599 55.136 166.391 54.956 166.151 54.876C165.919 54.796 165.703 54.756 165.503 54.756C165.231 54.756 164.971 54.844 164.723 55.02C164.483 55.196 164.287 55.44 164.135 55.752C163.991 56.056 163.919 56.396 163.919 56.772ZM171.672 53.52V54.216C171.88 53.992 172.128 53.82 172.416 53.7C172.712 53.572 173.004 53.508 173.292 53.508C173.492 53.508 173.68 53.536 173.856 53.592V55.068C173.632 55.012 173.42 54.984 173.22 54.984C172.916 54.984 172.628 55.036 172.356 55.14C172.084 55.236 171.856 55.392 171.672 55.608V60H169.752V53.52H171.672ZM177.363 60.156C176.771 60.156 176.251 60.016 175.803 59.736C175.355 59.448 175.011 59.048 174.771 58.536C174.531 58.024 174.411 57.44 174.411 56.784C174.411 56.12 174.531 55.532 174.771 55.02C175.019 54.5 175.363 54.096 175.803 53.808C176.251 53.52 176.771 53.376 177.363 53.376C177.635 53.376 177.907 53.424 178.179 53.52C178.459 53.616 178.719 53.756 178.959 53.94V50.772H180.879V58.5C180.879 59.14 180.959 59.64 181.119 60H179.319C179.263 59.888 179.215 59.744 179.175 59.568C178.671 59.96 178.067 60.156 177.363 60.156ZM176.247 56.784C176.247 57.152 176.319 57.488 176.463 57.792C176.615 58.096 176.811 58.34 177.051 58.524C177.299 58.7 177.559 58.788 177.831 58.788C178.047 58.788 178.283 58.736 178.539 58.632C178.803 58.528 179.019 58.312 179.187 57.984V55.572C179.019 55.236 178.803 55.016 178.539 54.912C178.283 54.808 178.047 54.756 177.831 54.756C177.559 54.756 177.299 54.844 177.051 55.02C176.811 55.196 176.615 55.44 176.463 55.752C176.319 56.064 176.247 56.408 176.247 56.784ZM184.684 60.144C184.196 60.168 183.7 60.128 183.196 60.024C182.7 59.928 182.268 59.776 181.9 59.568V57.84C182.228 58.08 182.62 58.28 183.076 58.44C183.54 58.592 183.948 58.656 184.3 58.632C184.548 58.616 184.728 58.564 184.84 58.476C184.952 58.38 185.016 58.284 185.032 58.188C185.072 57.94 185.012 57.752 184.852 57.624C184.692 57.496 184.392 57.372 183.952 57.252C183.464 57.116 183.076 56.96 182.788 56.784C182.5 56.6 182.28 56.396 182.128 56.172C181.984 55.94 181.912 55.648 181.912 55.296C181.912 54.928 182.008 54.6 182.2 54.312C182.392 54.016 182.696 53.784 183.112 53.616C183.528 53.448 183.976 53.364 184.456 53.364C184.816 53.364 185.18 53.4 185.548 53.472C185.916 53.536 186.224 53.624 186.472 53.736V55.284C186.216 55.156 185.912 55.044 185.56 54.948C185.216 54.844 184.916 54.792 184.66 54.792C184.116 54.792 183.82 54.936 183.772 55.224C183.748 55.392 183.824 55.54 184 55.668C184.184 55.796 184.444 55.912 184.78 56.016C185.26 56.168 185.652 56.324 185.956 56.484C186.268 56.644 186.512 56.852 186.688 57.108C186.864 57.364 186.952 57.692 186.952 58.092C186.952 58.684 186.74 59.168 186.316 59.544C185.892 59.912 185.348 60.112 184.684 60.144Z" fill="#919191"/>
</svg>
