<svg width="341" height="86" viewBox="0 0 341 86" fill="none" xmlns="http://www.w3.org/2000/svg">
<rect x="1.5" y="1.5" width="338" height="83" rx="22.5" fill="white"/>
<rect x="1.5" y="1.5" width="338" height="83" rx="22.5" stroke="#EAEEED" stroke-width="3"/>
<rect x="16" y="16" width="54" height="54" rx="16" fill="#F6F9F8"/>
<path d="M83.008 36.728H84.672V33.448L82.576 33.912V31.816L84.672 31.352V28.296H82.736V26.408H84.672V24.184H86.752V26.408H88.56V28.296H86.752V30.904L88.72 30.472V32.568L86.752 33V38.536H83.008V36.728ZM88.928 24.552H97.52V26.552H94.528V38.536H90.256V36.488H92.448V26.552H88.928V24.552ZM102.48 31.832H98.64V29.72H102.48V24.2H104.656V25.64H111.184V27.704H104.656V29.72H113.36V31.832H104.656V38.6H102.48V31.832ZM109.088 32.744L112 38.424H109.728L106.816 32.744H109.088ZM118.928 36.424C118.565 37.1387 118.16 37.864 117.712 38.6H115.184C116.112 37.2453 116.8 36.1253 117.248 35.24L114.848 33.544L115.648 28.088H114.8V26.008H115.952L116.224 24.2H118.432L118.192 26.008H120.88C120.88 27.896 120.8 29.48 120.64 30.76C120.491 32.0293 120.197 33.272 119.76 34.488L120.608 35.096V37.608L118.928 36.424ZM118.08 33.288C118.571 31.816 118.859 30.0827 118.944 28.088H117.6L116.976 32.504L118.08 33.288ZM121.008 29.944H124.224C124.96 28.856 125.515 27.7147 125.888 26.52H121.68V24.44H128.608C128.192 26.52 127.515 28.3547 126.576 29.944H129.52V32.024H126.448V38.6H122.112V36.52H124.432V32.024H121.008V29.944ZM130.848 33.592C132.533 31.5333 133.845 29.6133 134.784 27.832H131.296V25.848H133.504V24.12H135.584V25.848H137.84C137.339 27.2667 136.661 28.728 135.808 30.232L137.84 31.512V34.056L135.552 32.616V38.6H133.472V33.592H130.848ZM139.12 24.2H141.2V36.392H142.944L143.184 32.92H145.28L144.896 38.568H144.72V38.6H139.12V24.2Z" fill="#535353"/>
<path d="M82.732 50.94H87.208V50.16H88.792V50.94H93.268V53.316H91.708V52.428H84.292V53.316H82.732V50.94ZM82.6 59.604C84.216 59.244 85.184 58.54 85.504 57.492H82.708V55.992H93.292V57.492H90.46V59.64H93.52V61.14H88.9V57.492H87.076C86.916 58.444 86.46 59.248 85.708 59.904C84.964 60.552 83.928 61.004 82.6 61.26V59.604ZM83.932 53.568H92.068V55.032H83.932V53.568ZM94.456 61.2C94.76 60.264 94.972 59.348 95.092 58.452C95.22 57.548 95.284 56.52 95.284 55.368V51.384H101.224L101.02 50.16H102.688L102.892 51.384H105.46V52.92H103.156L103.228 53.316C103.34 53.98 103.472 54.636 103.624 55.284L105.34 54.12V56.136L104.068 57C104.476 58.448 104.968 59.848 105.544 61.2H103.648C103.392 60.496 103.192 59.9 103.048 59.412L101.092 60.732V58.752L102.556 57.768C102.14 56.272 101.808 54.788 101.56 53.316L101.488 52.92H96.844V54.636H100.468V60.84H97.996V59.304H98.932V56.16H96.832C96.816 57.104 96.76 57.984 96.664 58.8C96.568 59.608 96.416 60.408 96.208 61.2H94.456ZM104.824 50.208L104.956 51.168H103.708L103.576 50.208H104.824ZM109.264 60.156C108.424 60.156 107.608 59.972 106.816 59.604V57.948C107.168 58.204 107.544 58.396 107.944 58.524C108.352 58.644 108.756 58.704 109.156 58.704C109.604 58.704 109.948 58.608 110.188 58.416C110.428 58.216 110.548 57.924 110.548 57.54C110.548 57.108 110.4 56.784 110.104 56.568C109.808 56.344 109.416 56.232 108.928 56.232H107.728V55.02H108.808C109.288 55.02 109.66 54.916 109.924 54.708C110.188 54.492 110.32 54.196 110.32 53.82C110.32 53.508 110.2 53.264 109.96 53.088C109.72 52.912 109.4 52.824 109 52.824C108.712 52.824 108.392 52.864 108.04 52.944C107.688 53.016 107.368 53.12 107.08 53.256V51.96C107.4 51.792 107.756 51.664 108.148 51.576C108.548 51.488 108.944 51.444 109.336 51.444C110.168 51.444 110.828 51.644 111.316 52.044C111.804 52.436 112.052 52.972 112.06 53.652C112.06 54.076 111.948 54.456 111.724 54.792C111.5 55.128 111.18 55.392 110.764 55.584C111.244 55.76 111.612 56.028 111.868 56.388C112.132 56.748 112.264 57.172 112.264 57.66C112.264 58.148 112.14 58.58 111.892 58.956C111.652 59.332 111.304 59.628 110.848 59.844C110.392 60.052 109.864 60.156 109.264 60.156ZM116.618 60.156C114.61 60.156 113.606 58.704 113.606 55.8C113.606 52.896 114.61 51.444 116.618 51.444C118.626 51.444 119.63 52.896 119.63 55.8C119.63 58.704 118.626 60.156 116.618 60.156ZM115.37 55.8C115.37 56.736 115.466 57.424 115.658 57.864C115.858 58.304 116.178 58.524 116.618 58.524C117.058 58.524 117.374 58.304 117.566 57.864C117.766 57.424 117.866 56.736 117.866 55.8C117.866 54.872 117.766 54.188 117.566 53.748C117.374 53.308 117.058 53.088 116.618 53.088C116.178 53.088 115.858 53.308 115.658 53.748C115.466 54.188 115.37 54.872 115.37 55.8ZM131.568 61.32C130.16 60.904 129.024 60.364 128.16 59.7C127.304 59.036 126.636 58.212 126.156 57.228C125.676 58.212 125.004 59.036 124.14 59.7C123.284 60.364 122.152 60.904 120.744 61.32V59.64C121.88 59.224 122.776 58.736 123.432 58.176C124.096 57.616 124.632 56.856 125.04 55.896H120.756V54.348H125.352L125.34 52.236H121.296V50.688H131.016V52.236H126.972V54.348H131.556V55.896H127.272C127.68 56.856 128.212 57.616 128.868 58.176C129.532 58.736 130.432 59.224 131.568 59.64V61.32ZM132.912 59.796H134.16V57.336L132.588 57.684V56.112L134.16 55.764V53.472H132.708V52.056H134.16V50.388H135.72V52.056H137.076V53.472H135.72V55.428L137.196 55.104V56.676L135.72 57V61.152H132.912V59.796ZM137.352 50.664H143.796V52.164H141.552V61.152H138.348V59.616H139.992V52.164H137.352V50.664ZM147.516 56.124H144.636V54.54H147.516V50.4H149.148V51.48H154.044V53.028H149.148V54.54H155.676V56.124H149.148V61.2H147.516V56.124ZM152.472 56.808L154.656 61.068H152.952L150.768 56.808H152.472ZM157.536 59.784H159.024C158.992 59.152 158.96 58.684 158.928 58.38L156.852 59.436V57.816L158.712 56.88C158.656 56.616 158.576 56.292 158.472 55.908L156.852 56.724V55.08L157.968 54.516C157.792 54.084 157.552 53.58 157.248 53.004H159C159.12 53.244 159.24 53.504 159.36 53.784L160.8 53.052V54.696L159.888 55.164C160.136 55.948 160.308 56.8 160.404 57.72C160.508 58.64 160.56 59.8 160.56 61.2H157.536V59.784ZM156.876 50.832H159.336V50.22H160.896V50.832H163.416V50.22H164.976V50.832H167.436V52.332H164.976V52.848H163.416V52.332H160.896V52.848H159.336V52.332H156.876V50.832ZM160.956 59.436C161.684 59.14 162.236 58.74 162.612 58.236C162.988 57.724 163.232 57.068 163.344 56.268H161.112V54.756H163.416V53.064H164.928V54.756H167.436V56.268H164.868C164.836 56.572 164.788 56.864 164.724 57.144H166.056L167.736 61.2H166.104L164.616 57.6C164.352 58.52 163.916 59.276 163.308 59.868C162.708 60.452 161.924 60.908 160.956 61.236V59.436ZM166.572 53.112L166.788 54.492H165.588L165.372 53.112H166.572ZM179.076 54.96H173.124V50.508H179.076V54.96ZM168.636 56.436C169.844 55.74 170.688 54.764 171.168 53.508H172.8C172.536 54.444 172.112 55.292 171.528 56.052V61.26H169.968V57.528C169.56 57.816 169.116 58.08 168.636 58.32V56.436ZM168.636 53.196C169.756 52.476 170.528 51.516 170.952 50.316H172.5C171.932 52.444 170.644 54.028 168.636 55.068V53.196ZM172.62 57.168H177.132V56.64H172.86V55.392H179.34V56.64H178.668V57.168H179.676V58.416H178.668V61.2H176.028V59.88H177.132V58.416H172.62V57.168ZM174.696 58.74L175.536 60.936H174.024L173.184 58.74H174.696ZM177.516 53.796V53.244H174.684V53.796H177.516ZM177.516 52.224V51.684H174.684V52.224H177.516ZM185.796 55.452H191.268V61.2H189.72V60.132H187.344V61.2H185.796V55.452ZM180.588 60.732C180.956 59.108 181.14 57.424 181.14 55.68H182.16C182.16 57.568 182 59.252 181.68 60.732H180.588ZM180.768 53.796H182.388V50.4H183.78V53.796H185.148V55.284H183.876V56.304L185.004 56.94V58.656L183.876 58.02V61.2H182.448V55.284H180.768V53.796ZM181.896 50.676L182.16 53.448H181.164L180.9 50.676H181.896ZM184.392 50.676H185.316L184.932 53.448H184.008L184.392 50.676ZM185.34 53.88H187.752V53.46H185.832V52.272H187.752V51.852H185.532V50.64H187.752V50.16H189.312V50.64H191.532V51.852H189.312V52.272H191.232V53.46H189.312V53.88H191.724V55.116H185.34V53.88ZM189.72 58.968V58.428H187.344V58.968H189.72ZM189.72 57.264V56.724H187.344V57.264H189.72ZM203.556 61.248C201.164 61.056 199.364 60.356 198.156 59.148C196.948 60.356 195.148 61.056 192.756 61.248V59.784C194.428 59.648 195.788 59.2 196.836 58.44H193.152V57.048H197.364V56.34H192.756V54.948H197.364V54.3H193.68V52.992H197.364V52.356H193.116V51H194.988L194.724 50.256H196.356L196.62 51H199.692L199.956 50.256H201.588L201.324 51H203.196V52.356H198.948V52.992H202.632V54.3H198.948V54.948H203.556V56.34H198.948V57.048H203.16V58.44H199.476C200.524 59.2 201.884 59.648 203.556 59.784V61.248ZM204.792 57.444C206.056 55.9 207.04 54.46 207.744 53.124H205.128V51.636H206.784V50.34H208.344V51.636H210.036C209.66 52.7 209.152 53.796 208.512 54.924L210.036 55.884V57.792L208.32 56.712V61.2H206.76V57.444H204.792ZM210.996 50.4H212.556V59.544H213.864L214.044 56.94H215.616L215.328 61.176H215.196V61.2H210.996V50.4ZM217.68 50.544H226.632V54.96H217.68V50.544ZM221.796 61.08H216.84V55.716H221.796V61.08ZM218.34 57.24V59.556H220.296V57.24H218.34ZM219.252 52.032V53.472H225.06V52.032H219.252ZM227.472 61.08H222.516V55.716H227.472V61.08ZM224.016 57.24V59.556H225.972V57.24H224.016Z" fill="#919191"/>
</svg>
