<svg width="341" height="86" viewBox="0 0 341 86" fill="none" xmlns="http://www.w3.org/2000/svg">
<rect x="1.5" y="1.5" width="338" height="83" rx="22.5" fill="white"/>
<rect x="1.5" y="1.5" width="338" height="83" rx="22.5" stroke="#EAEEED" stroke-width="3"/>
<rect x="16" y="16" width="54" height="54" rx="16" fill="#F6F9F8"/>
<path d="M86.352 37.208C85.232 37.208 84.144 36.9627 83.088 36.472V34.264C83.5573 34.6053 84.0587 34.8613 84.592 35.032C85.136 35.192 85.6747 35.272 86.208 35.272C86.8053 35.272 87.264 35.144 87.584 34.888C87.904 34.6213 88.064 34.232 88.064 33.72C88.064 33.144 87.8667 32.712 87.472 32.424C87.0773 32.1253 86.5547 31.976 85.904 31.976H84.304V30.36H85.744C86.384 30.36 86.88 30.2213 87.232 29.944C87.584 29.656 87.76 29.2613 87.76 28.76C87.76 28.344 87.6 28.0187 87.28 27.784C86.96 27.5493 86.5333 27.432 86 27.432C85.616 27.432 85.1893 27.4853 84.72 27.592C84.2507 27.688 83.824 27.8267 83.44 28.008V26.28C83.8667 26.056 84.3413 25.8853 84.864 25.768C85.3973 25.6507 85.9253 25.592 86.448 25.592C87.5573 25.592 88.4373 25.8587 89.088 26.392C89.7387 26.9147 90.0693 27.6293 90.08 28.536C90.08 29.1013 89.9307 29.608 89.632 30.056C89.3333 30.504 88.9067 30.856 88.352 31.112C88.992 31.3467 89.4827 31.704 89.824 32.184C90.176 32.664 90.352 33.2293 90.352 33.88C90.352 34.5307 90.1867 35.1067 89.856 35.608C89.536 36.1093 89.072 36.504 88.464 36.792C87.856 37.0693 87.152 37.208 86.352 37.208ZM96.1575 37.208C93.4802 37.208 92.1415 35.272 92.1415 31.4C92.1415 27.528 93.4802 25.592 96.1575 25.592C98.8348 25.592 100.174 27.528 100.174 31.4C100.174 35.272 98.8348 37.208 96.1575 37.208ZM94.4935 31.4C94.4935 32.648 94.6215 33.5653 94.8775 34.152C95.1442 34.7387 95.5708 35.032 96.1575 35.032C96.7442 35.032 97.1655 34.7387 97.4215 34.152C97.6882 33.5653 97.8215 32.648 97.8215 31.4C97.8215 30.1627 97.6882 29.2507 97.4215 28.664C97.1655 28.0773 96.7442 27.784 96.1575 27.784C95.5708 27.784 95.1442 28.0773 94.8775 28.664C94.6215 29.2507 94.4935 30.1627 94.4935 31.4ZM106.843 31.16V33.016H101.931V31.16H106.843ZM108.882 25.8H113.138C114.898 25.8 116.237 26.296 117.154 27.288C118.071 28.28 118.53 29.656 118.53 31.416C118.53 33.24 118.071 34.6267 117.154 35.576C116.237 36.5253 114.877 37 113.074 37H108.882V25.8ZM113.17 35.016C113.618 35.016 114.045 34.872 114.45 34.584C114.855 34.296 115.181 33.88 115.426 33.336C115.682 32.792 115.81 32.1573 115.81 31.432C115.81 30.7387 115.687 30.12 115.442 29.576C115.207 29.0213 114.887 28.584 114.482 28.264C114.077 27.944 113.639 27.784 113.17 27.784H111.522V35.016H113.17ZM123.652 37.208C122.841 37.208 122.132 37.016 121.524 36.632C120.927 36.248 120.463 35.72 120.132 35.048C119.812 34.376 119.652 33.592 119.652 32.696C119.652 31.8107 119.812 31.0267 120.132 30.344C120.463 29.6507 120.921 29.112 121.508 28.728C122.105 28.344 122.799 28.152 123.588 28.152C123.951 28.152 124.313 28.2213 124.676 28.36C125.049 28.488 125.396 28.6693 125.716 28.904V28.36H128.276V34.984C128.276 35.848 128.383 36.52 128.596 37H126.196C126.121 36.8507 126.057 36.6587 126.004 36.424C125.343 36.9467 124.559 37.208 123.652 37.208ZM122.1 32.696C122.1 33.1867 122.196 33.6347 122.388 34.04C122.591 34.4453 122.852 34.7707 123.172 35.016C123.503 35.2507 123.849 35.368 124.212 35.368C124.468 35.368 124.756 35.3147 125.076 35.208C125.396 35.0907 125.673 34.8453 125.908 34.472V30.888C125.673 30.5147 125.396 30.2747 125.076 30.168C124.767 30.0613 124.479 30.008 124.212 30.008C123.849 30.008 123.503 30.1253 123.172 30.36C122.852 30.5947 122.591 30.92 122.388 31.336C122.196 31.7413 122.1 32.1947 122.1 32.696ZM135.638 37.208C135.286 38.328 134.673 39.1653 133.798 39.72C132.923 40.296 131.627 40.6053 129.91 40.648V38.584C130.635 38.584 131.265 38.504 131.798 38.344C132.289 38.184 132.646 37.9707 132.87 37.704C133.105 37.4373 133.281 37.0907 133.398 36.664L133.606 35.928H132.198L129.078 28.36H131.686L134.022 34.424L135.718 28.36H138.374L135.638 37.208ZM142.647 37.192C141.996 37.224 141.335 37.1707 140.663 37.032C140.002 36.904 139.426 36.7013 138.935 36.424V34.12C139.372 34.44 139.895 34.7067 140.503 34.92C141.122 35.1227 141.666 35.208 142.135 35.176C142.466 35.1547 142.706 35.0853 142.855 34.968C143.004 34.84 143.09 34.712 143.111 34.584C143.164 34.2533 143.084 34.0027 142.871 33.832C142.658 33.6613 142.258 33.496 141.671 33.336C141.02 33.1547 140.503 32.9467 140.119 32.712C139.735 32.4667 139.442 32.1947 139.239 31.896C139.047 31.5867 138.951 31.1973 138.951 30.728C138.951 30.2373 139.079 29.8 139.335 29.416C139.591 29.0213 139.996 28.712 140.551 28.488C141.106 28.264 141.703 28.152 142.343 28.152C142.823 28.152 143.308 28.2 143.799 28.296C144.29 28.3813 144.7 28.4987 145.031 28.648V30.712C144.69 30.5413 144.284 30.392 143.815 30.264C143.356 30.1253 142.956 30.056 142.615 30.056C141.89 30.056 141.495 30.248 141.431 30.632C141.399 30.856 141.5 31.0533 141.735 31.224C141.98 31.3947 142.327 31.5493 142.775 31.688C143.415 31.8907 143.938 32.0987 144.343 32.312C144.759 32.5253 145.084 32.8027 145.319 33.144C145.554 33.4853 145.671 33.9227 145.671 34.456C145.671 35.2453 145.388 35.8907 144.823 36.392C144.258 36.8827 143.532 37.1493 142.647 37.192ZM151.999 31.16V33.016H147.087V31.16H151.999ZM159.99 37.208C158.774 37.208 157.691 36.984 156.742 36.536C155.803 36.088 155.062 35.4373 154.518 34.584C153.985 33.7307 153.718 32.7173 153.718 31.544C153.718 30.3067 153.979 29.2453 154.502 28.36C155.025 27.464 155.755 26.7813 156.694 26.312C157.633 25.832 158.705 25.592 159.91 25.592C160.507 25.592 161.11 25.6507 161.718 25.768C162.326 25.8853 162.827 26.0347 163.222 26.216V28.2C162.145 27.8053 161.142 27.608 160.214 27.608C159.105 27.608 158.203 27.9333 157.51 28.584C156.827 29.2347 156.486 30.2213 156.486 31.544C156.486 32.248 156.657 32.872 156.998 33.416C157.339 33.9493 157.787 34.3653 158.342 34.664C158.897 34.9627 159.494 35.1333 160.134 35.176L160.486 35.192C160.977 35.192 161.462 35.1227 161.942 34.984C162.422 34.8453 162.849 34.6587 163.222 34.424V36.632C162.763 36.8453 162.273 36.9947 161.75 37.08C161.238 37.1653 160.651 37.208 159.99 37.208ZM167.376 24.712V29.288C167.76 28.968 168.186 28.7227 168.656 28.552C169.125 28.3707 169.6 28.28 170.08 28.28C170.901 28.28 171.552 28.52 172.032 29C172.522 29.48 172.768 30.104 172.768 30.872V37H170.208V31.304C170.208 30.9947 170.08 30.744 169.824 30.552C169.568 30.3493 169.264 30.248 168.912 30.248C168.709 30.248 168.458 30.312 168.16 30.44C167.861 30.568 167.6 30.728 167.376 30.92V37H164.816V24.712H167.376ZM182.219 36.536C181.813 36.7813 181.339 36.9627 180.795 37.08C180.261 37.1973 179.744 37.256 179.243 37.256C177.536 37.256 176.24 36.8507 175.355 36.04C174.48 35.2293 174.043 34.0933 174.043 32.632C174.043 31.1813 174.432 30.072 175.211 29.304C176 28.5253 177.072 28.136 178.427 28.136C179.771 28.136 180.832 28.5253 181.611 29.304C182.4 30.072 182.795 31.1813 182.795 32.632C182.795 32.792 182.784 33.0213 182.763 33.32H176.539C176.773 34.696 177.675 35.384 179.243 35.384C180.341 35.384 181.333 35.0587 182.219 34.408V36.536ZM180.379 31.528C180.24 30.9947 180 30.6 179.659 30.344C179.317 30.088 178.907 29.96 178.427 29.96C177.979 29.96 177.595 30.0933 177.275 30.36C176.965 30.6267 176.747 31.016 176.619 31.528H180.379ZM191.281 36.712C190.46 37.0427 189.617 37.208 188.753 37.208C187.847 37.208 187.009 37.0267 186.241 36.664C185.484 36.2907 184.881 35.768 184.433 35.096C183.985 34.4133 183.761 33.6293 183.761 32.744C183.761 31.816 183.975 31.0053 184.401 30.312C184.828 29.6187 185.409 29.0907 186.145 28.728C186.892 28.3547 187.724 28.168 188.641 28.168C189.473 28.168 190.316 28.3173 191.169 28.616V30.584C190.519 30.3067 189.852 30.168 189.169 30.168C188.327 30.168 187.628 30.3707 187.073 30.776C186.519 31.1707 186.241 31.8267 186.241 32.744C186.241 33.2667 186.385 33.7093 186.673 34.072C186.961 34.4347 187.335 34.712 187.793 34.904C188.252 35.0853 188.737 35.176 189.249 35.176C189.644 35.176 190.017 35.1227 190.369 35.016C190.732 34.8987 191.036 34.7387 191.281 34.536V36.712ZM192.566 37V24.696H195.126V31.176H195.51L197.494 28.36H200.166L197.398 32.136C197.984 32.6907 198.512 33.3627 198.982 34.152C199.451 34.9413 199.92 35.8907 200.39 37H197.974C197.504 35.976 197.11 35.1973 196.79 34.664C196.48 34.12 196.075 33.624 195.574 33.176H195.126V37H192.566ZM206.515 31.16V33.016H201.603V31.16H206.515ZM211.162 28.36V37H208.602V28.36H211.162ZM208.602 24.696H211.162V27.256H208.602V24.696ZM215.532 28.328V29.368C215.927 29.0267 216.375 28.76 216.876 28.568C217.388 28.376 217.895 28.28 218.396 28.28C219.217 28.28 219.868 28.52 220.348 29C220.839 29.48 221.084 30.104 221.084 30.872V36.968H218.524V31.304C218.524 30.9947 218.396 30.744 218.14 30.552C217.884 30.3493 217.58 30.248 217.228 30.248C217.004 30.248 216.721 30.3227 216.38 30.472C216.049 30.6213 215.767 30.8027 215.532 31.016V36.968H212.972V28.328H215.532Z" fill="#535353"/>
<path d="M89.848 59.64C89.48 59.816 89.084 59.944 88.66 60.024C88.236 60.112 87.744 60.156 87.184 60.156C86.264 60.156 85.452 59.984 84.748 59.64C84.044 59.296 83.488 58.808 83.08 58.176C82.68 57.536 82.48 56.788 82.48 55.932C82.48 55.068 82.676 54.3 83.068 53.628C83.468 52.948 84.016 52.416 84.712 52.032C85.416 51.64 86.22 51.444 87.124 51.444C87.564 51.444 88.008 51.488 88.456 51.576C88.912 51.664 89.296 51.772 89.608 51.9V53.34C88.8 53.068 88.048 52.932 87.352 52.932C86.488 52.932 85.788 53.18 85.252 53.676C84.716 54.172 84.448 54.924 84.448 55.932C84.448 56.476 84.576 56.96 84.832 57.384C85.096 57.8 85.444 58.104 85.876 58.296C86.316 58.488 86.788 58.584 87.292 58.584C87.628 58.584 87.924 58.572 88.18 58.548V56.7H87.232V55.2H89.848V59.64ZM96.9412 59.652C96.6372 59.836 96.2812 59.972 95.8732 60.06C95.4732 60.148 95.0852 60.192 94.7092 60.192C93.4292 60.192 92.4572 59.888 91.7932 59.28C91.1372 58.672 90.8092 57.82 90.8092 56.724C90.8092 55.636 91.1012 54.804 91.6852 54.228C92.2772 53.644 93.0812 53.352 94.0972 53.352C95.1052 53.352 95.9012 53.644 96.4852 54.228C97.0772 54.804 97.3732 55.636 97.3732 56.724C97.3732 56.844 97.3652 57.016 97.3492 57.24H92.6812C92.8572 58.272 93.5332 58.788 94.7092 58.788C95.5332 58.788 96.2772 58.544 96.9412 58.056V59.652ZM95.5612 55.896C95.4572 55.496 95.2772 55.2 95.0212 55.008C94.7652 54.816 94.4572 54.72 94.0972 54.72C93.7612 54.72 93.4732 54.82 93.2332 55.02C93.0012 55.22 92.8372 55.512 92.7412 55.896H95.5612ZM98.8423 53.52V51.672H100.642V53.52H101.89V54.984H100.642V57.768C100.642 58 100.658 58.176 100.69 58.296C100.73 58.416 100.798 58.5 100.894 58.548C100.99 58.588 101.13 58.608 101.314 58.608C101.434 58.608 101.534 58.604 101.614 58.596C101.702 58.588 101.778 58.576 101.842 58.56V60.036C101.506 60.076 101.194 60.096 100.906 60.096C100.354 60.096 99.9423 60.04 99.6703 59.928C99.3983 59.816 99.1903 59.624 99.0463 59.352C98.9103 59.072 98.8423 58.676 98.8423 58.164V54.984H97.9063V53.52H98.8423ZM108.454 60.144C107.966 60.168 107.47 60.128 106.966 60.024C106.47 59.928 106.038 59.776 105.67 59.568V57.84C105.998 58.08 106.39 58.28 106.846 58.44C107.31 58.592 107.718 58.656 108.07 58.632C108.318 58.616 108.498 58.564 108.61 58.476C108.722 58.38 108.786 58.284 108.802 58.188C108.842 57.94 108.782 57.752 108.622 57.624C108.462 57.496 108.162 57.372 107.722 57.252C107.234 57.116 106.846 56.96 106.558 56.784C106.27 56.6 106.05 56.396 105.898 56.172C105.754 55.94 105.682 55.648 105.682 55.296C105.682 54.928 105.778 54.6 105.97 54.312C106.162 54.016 106.466 53.784 106.882 53.616C107.298 53.448 107.746 53.364 108.226 53.364C108.586 53.364 108.95 53.4 109.318 53.472C109.686 53.536 109.994 53.624 110.242 53.736V55.284C109.986 55.156 109.682 55.044 109.33 54.948C108.986 54.844 108.686 54.792 108.43 54.792C107.886 54.792 107.59 54.936 107.542 55.224C107.518 55.392 107.594 55.54 107.77 55.668C107.954 55.796 108.214 55.912 108.55 56.016C109.03 56.168 109.422 56.324 109.726 56.484C110.038 56.644 110.282 56.852 110.458 57.108C110.634 57.364 110.722 57.692 110.722 58.092C110.722 58.684 110.51 59.168 110.086 59.544C109.662 59.912 109.118 60.112 108.454 60.144ZM111.352 62.736C111.448 62.464 111.512 62.084 111.544 61.596C111.576 61.108 111.592 60.664 111.592 60.264V53.52H113.512V54.12C113.776 53.88 114.064 53.696 114.376 53.568C114.696 53.432 115.016 53.364 115.336 53.364C115.928 53.364 116.444 53.508 116.884 53.796C117.332 54.084 117.676 54.488 117.916 55.008C118.164 55.52 118.288 56.108 118.288 56.772C118.288 57.436 118.168 58.024 117.928 58.536C117.688 59.04 117.344 59.436 116.896 59.724C116.448 60.012 115.928 60.156 115.336 60.156C114.616 60.156 114.008 59.948 113.512 59.532V60.264C113.512 60.688 113.488 61.14 113.44 61.62C113.4 62.108 113.344 62.48 113.272 62.736H111.352ZM113.512 57.972C113.68 58.3 113.892 58.516 114.148 58.62C114.412 58.724 114.652 58.776 114.868 58.776C115.14 58.776 115.396 58.688 115.636 58.512C115.884 58.328 116.08 58.084 116.224 57.78C116.376 57.476 116.452 57.14 116.452 56.772C116.452 56.396 116.376 56.056 116.224 55.752C116.08 55.44 115.884 55.196 115.636 55.02C115.396 54.844 115.14 54.756 114.868 54.756C114.652 54.756 114.412 54.808 114.148 54.912C113.892 55.016 113.68 55.232 113.512 55.56V57.972ZM125.078 59.652C124.774 59.836 124.418 59.972 124.01 60.06C123.61 60.148 123.222 60.192 122.846 60.192C121.566 60.192 120.594 59.888 119.93 59.28C119.274 58.672 118.946 57.82 118.946 56.724C118.946 55.636 119.238 54.804 119.822 54.228C120.414 53.644 121.218 53.352 122.234 53.352C123.242 53.352 124.038 53.644 124.622 54.228C125.214 54.804 125.51 55.636 125.51 56.724C125.51 56.844 125.502 57.016 125.486 57.24H120.818C120.994 58.272 121.67 58.788 122.846 58.788C123.67 58.788 124.414 58.544 125.078 58.056V59.652ZM123.698 55.896C123.594 55.496 123.414 55.2 123.158 55.008C122.902 54.816 122.594 54.72 122.234 54.72C121.898 54.72 121.61 54.82 121.37 55.02C121.138 55.22 120.974 55.512 120.878 55.896H123.698ZM131.875 59.784C131.259 60.032 130.627 60.156 129.979 60.156C129.299 60.156 128.671 60.02 128.095 59.748C127.527 59.468 127.075 59.076 126.739 58.572C126.403 58.06 126.235 57.472 126.235 56.808C126.235 56.112 126.395 55.504 126.715 54.984C127.035 54.464 127.471 54.068 128.023 53.796C128.583 53.516 129.207 53.376 129.895 53.376C130.519 53.376 131.151 53.488 131.791 53.712V55.188C131.303 54.98 130.803 54.876 130.291 54.876C129.659 54.876 129.135 55.028 128.719 55.332C128.303 55.628 128.095 56.12 128.095 56.808C128.095 57.2 128.203 57.532 128.419 57.804C128.635 58.076 128.915 58.284 129.259 58.428C129.603 58.564 129.967 58.632 130.351 58.632C130.647 58.632 130.927 58.592 131.191 58.512C131.463 58.424 131.691 58.304 131.875 58.152V59.784ZM134.914 53.52V60H132.994V53.52H134.914ZM132.994 50.772H134.914V52.692H132.994V50.772ZM139.032 60.156C138.424 60.156 137.892 60.012 137.436 59.724C136.988 59.436 136.64 59.04 136.392 58.536C136.152 58.032 136.032 57.444 136.032 56.772C136.032 56.108 136.152 55.52 136.392 55.008C136.64 54.488 136.984 54.084 137.424 53.796C137.872 53.508 138.392 53.364 138.984 53.364C139.256 53.364 139.528 53.416 139.8 53.52C140.08 53.616 140.34 53.752 140.58 53.928V53.52H142.5V58.488C142.5 59.136 142.58 59.64 142.74 60H140.94C140.884 59.888 140.836 59.744 140.796 59.568C140.3 59.96 139.712 60.156 139.032 60.156ZM137.868 56.772C137.868 57.14 137.94 57.476 138.084 57.78C138.236 58.084 138.432 58.328 138.672 58.512C138.92 58.688 139.18 58.776 139.452 58.776C139.644 58.776 139.86 58.736 140.1 58.656C140.34 58.568 140.548 58.384 140.724 58.104V55.416C140.548 55.136 140.34 54.956 140.1 54.876C139.868 54.796 139.652 54.756 139.452 54.756C139.18 54.756 138.92 54.844 138.672 55.02C138.432 55.196 138.236 55.44 138.084 55.752C137.94 56.056 137.868 56.396 137.868 56.772ZM145.886 60.096C145.166 60.096 144.622 59.896 144.254 59.496C143.886 59.088 143.702 58.492 143.702 57.708V50.772H145.622V57.228C145.622 57.548 145.646 57.792 145.694 57.96C145.742 58.128 145.822 58.256 145.934 58.344C146.022 58.416 146.118 58.464 146.222 58.488C146.334 58.504 146.526 58.512 146.798 58.512V60.096H145.886ZM153.495 62.736C153.007 62.736 152.515 62.704 152.019 62.64C151.531 62.576 151.091 62.484 150.699 62.364V60.792C151.555 60.984 152.411 61.08 153.267 61.08C153.811 61.08 154.223 60.96 154.503 60.72C154.783 60.48 154.923 60.148 154.923 59.724C154.483 60.012 153.959 60.156 153.351 60.156C152.759 60.156 152.239 60.012 151.791 59.724C151.343 59.436 150.999 59.04 150.759 58.536C150.519 58.024 150.399 57.436 150.399 56.772C150.399 56.108 150.519 55.52 150.759 55.008C151.007 54.488 151.351 54.084 151.791 53.796C152.239 53.508 152.759 53.364 153.351 53.364C153.903 53.364 154.427 53.548 154.923 53.916V53.52H156.795V59.976C156.795 61.816 155.695 62.736 153.495 62.736ZM152.235 56.772C152.235 57.14 152.307 57.476 152.451 57.78C152.603 58.084 152.799 58.328 153.039 58.512C153.287 58.688 153.547 58.776 153.819 58.776C154.019 58.776 154.243 58.732 154.491 58.644C154.739 58.548 154.951 58.352 155.127 58.056L155.187 57.816V55.596C155.019 55.252 154.803 55.028 154.539 54.924C154.275 54.812 154.035 54.756 153.819 54.756C153.547 54.756 153.287 54.844 153.039 55.02C152.799 55.196 152.603 55.44 152.451 55.752C152.307 56.056 152.235 56.396 152.235 56.772ZM160.074 53.52V60H158.154V53.52H160.074ZM158.154 50.772H160.074V52.692H158.154V50.772ZM162.056 54.984H160.916V53.52H162.056V52.668C162.056 52.156 162.124 51.764 162.26 51.492C162.404 51.212 162.644 51.016 162.98 50.904C163.324 50.792 163.772 50.736 164.324 50.736C164.492 50.736 164.672 50.744 164.864 50.76C165.056 50.768 165.228 50.78 165.38 50.796V52.248C165.316 52.232 165.208 52.22 165.056 52.212C164.904 52.204 164.768 52.2 164.648 52.2C164.464 52.2 164.324 52.224 164.228 52.272C164.132 52.312 164.064 52.392 164.024 52.512C163.992 52.632 163.976 52.808 163.976 53.04V53.52H165.56V54.984H163.976V60H162.056V54.984ZM166.741 53.52V51.672H168.541V53.52H169.789V54.984H168.541V57.768C168.541 58 168.557 58.176 168.589 58.296C168.629 58.416 168.697 58.5 168.793 58.548C168.889 58.588 169.029 58.608 169.213 58.608C169.333 58.608 169.433 58.604 169.513 58.596C169.601 58.588 169.677 58.576 169.741 58.56V60.036C169.405 60.076 169.093 60.096 168.805 60.096C168.253 60.096 167.841 60.04 167.569 59.928C167.297 59.816 167.089 59.624 166.945 59.352C166.809 59.072 166.741 58.676 166.741 58.164V54.984H165.805V53.52H166.741ZM173.235 60.144C172.747 60.168 172.251 60.128 171.747 60.024C171.251 59.928 170.819 59.776 170.451 59.568V57.84C170.779 58.08 171.171 58.28 171.627 58.44C172.091 58.592 172.499 58.656 172.851 58.632C173.099 58.616 173.279 58.564 173.391 58.476C173.503 58.38 173.567 58.284 173.583 58.188C173.623 57.94 173.563 57.752 173.403 57.624C173.243 57.496 172.943 57.372 172.503 57.252C172.015 57.116 171.627 56.96 171.339 56.784C171.051 56.6 170.831 56.396 170.679 56.172C170.535 55.94 170.463 55.648 170.463 55.296C170.463 54.928 170.559 54.6 170.751 54.312C170.943 54.016 171.247 53.784 171.663 53.616C172.079 53.448 172.527 53.364 173.007 53.364C173.367 53.364 173.731 53.4 174.099 53.472C174.467 53.536 174.775 53.624 175.023 53.736V55.284C174.767 55.156 174.463 55.044 174.111 54.948C173.767 54.844 173.467 54.792 173.211 54.792C172.667 54.792 172.371 54.936 172.323 55.224C172.299 55.392 172.375 55.54 172.551 55.668C172.735 55.796 172.995 55.912 173.331 56.016C173.811 56.168 174.203 56.324 174.507 56.484C174.819 56.644 175.063 56.852 175.239 57.108C175.415 57.364 175.503 57.692 175.503 58.092C175.503 58.684 175.291 59.168 174.867 59.544C174.443 59.912 173.899 60.112 173.235 60.144Z" fill="#919191"/>
</svg>
