<svg width="76" height="36" viewBox="0 0 76 36" fill="none" xmlns="http://www.w3.org/2000/svg">
<g filter="url(#filter0_i_750_3278)">
<rect width="76" height="36" rx="15" fill="#FCDB37"/>
</g>
<path d="M15.9483 22C15.8843 22 15.8243 21.976 15.7683 21.928C15.7203 21.872 15.6963 21.812 15.6963 21.748C15.6963 21.708 15.7003 21.672 15.7083 21.64L18.5283 13.936C18.5523 13.848 18.6003 13.772 18.6723 13.708C18.7523 13.636 18.8603 13.6 18.9963 13.6H20.7723C20.9083 13.6 21.0123 13.636 21.0843 13.708C21.1643 13.772 21.2163 13.848 21.2403 13.936L24.0483 21.64C24.0643 21.672 24.0723 21.708 24.0723 21.748C24.0723 21.812 24.0443 21.872 23.9883 21.928C23.9403 21.976 23.8803 22 23.8083 22H22.3323C22.2123 22 22.1203 21.972 22.0563 21.916C22.0003 21.852 21.9643 21.796 21.9483 21.748L21.4803 20.524H18.2763L17.8203 21.748C17.8043 21.796 17.7683 21.852 17.7123 21.916C17.6563 21.972 17.5603 22 17.4243 22H15.9483ZM18.7683 18.796H21.0003L19.8723 15.628L18.7683 18.796ZM28.2864 22.12C27.5264 22.12 26.8744 21.996 26.3304 21.748C25.7944 21.5 25.3744 21.136 25.0704 20.656C24.7744 20.176 24.6104 19.58 24.5784 18.868C24.5704 18.54 24.5664 18.188 24.5664 17.812C24.5664 17.436 24.5704 17.076 24.5784 16.732C24.6104 16.036 24.7784 15.448 25.0824 14.968C25.3864 14.48 25.8104 14.112 26.3544 13.864C26.8984 13.608 27.5424 13.48 28.2864 13.48C28.8144 13.48 29.3024 13.548 29.7504 13.684C30.1984 13.812 30.5904 14.004 30.9264 14.26C31.2624 14.508 31.5224 14.812 31.7064 15.172C31.8984 15.524 31.9984 15.924 32.0064 16.372C32.0144 16.444 31.9904 16.504 31.9344 16.552C31.8864 16.6 31.8264 16.624 31.7544 16.624H30.1344C30.0304 16.624 29.9504 16.604 29.8944 16.564C29.8384 16.516 29.7904 16.432 29.7504 16.312C29.6384 15.888 29.4544 15.6 29.1984 15.448C28.9504 15.288 28.6424 15.208 28.2744 15.208C27.8344 15.208 27.4864 15.332 27.2304 15.58C26.9744 15.82 26.8344 16.224 26.8104 16.792C26.7864 17.448 26.7864 18.12 26.8104 18.808C26.8344 19.376 26.9744 19.784 27.2304 20.032C27.4864 20.272 27.8344 20.392 28.2744 20.392C28.6424 20.392 28.9544 20.312 29.2104 20.152C29.4664 19.992 29.6464 19.704 29.7504 19.288C29.7824 19.168 29.8264 19.088 29.8824 19.048C29.9464 19 30.0304 18.976 30.1344 18.976H31.7544C31.8264 18.976 31.8864 19 31.9344 19.048C31.9904 19.096 32.0144 19.156 32.0064 19.228C31.9984 19.676 31.8984 20.08 31.7064 20.44C31.5224 20.792 31.2624 21.096 30.9264 21.352C30.5904 21.6 30.1984 21.792 29.7504 21.928C29.3024 22.056 28.8144 22.12 28.2864 22.12ZM35.4162 22C35.3282 22 35.2562 21.972 35.2002 21.916C35.1442 21.86 35.1162 21.788 35.1162 21.7V15.484H32.9802C32.8922 15.484 32.8202 15.456 32.7642 15.4C32.7082 15.336 32.6802 15.264 32.6802 15.184V13.9C32.6802 13.812 32.7082 13.74 32.7642 13.684C32.8202 13.628 32.8922 13.6 32.9802 13.6H39.4362C39.5242 13.6 39.5962 13.628 39.6522 13.684C39.7082 13.74 39.7362 13.812 39.7362 13.9V15.184C39.7362 15.264 39.7082 15.336 39.6522 15.4C39.5962 15.456 39.5242 15.484 39.4362 15.484H37.3002V21.7C37.3002 21.788 37.2722 21.86 37.2162 21.916C37.1602 21.972 37.0882 22 37.0002 22H35.4162ZM41.1268 22C41.0388 22 40.9668 21.972 40.9108 21.916C40.8548 21.86 40.8268 21.788 40.8268 21.7V13.9C40.8268 13.812 40.8548 13.74 40.9108 13.684C40.9668 13.628 41.0388 13.6 41.1268 13.6H42.7348C42.8228 13.6 42.8948 13.628 42.9508 13.684C43.0068 13.74 43.0348 13.812 43.0348 13.9V21.7C43.0348 21.788 43.0068 21.86 42.9508 21.916C42.8948 21.972 42.8228 22 42.7348 22H41.1268ZM48.1494 22.12C47.4134 22.12 46.7734 22 46.2294 21.76C45.6854 21.52 45.2614 21.16 44.9574 20.68C44.6534 20.192 44.4854 19.584 44.4534 18.856C44.4454 18.512 44.4414 18.168 44.4414 17.824C44.4414 17.48 44.4454 17.132 44.4534 16.78C44.4854 16.06 44.6534 15.456 44.9574 14.968C45.2694 14.472 45.6974 14.1 46.2414 13.852C46.7854 13.604 47.4214 13.48 48.1494 13.48C48.8694 13.48 49.5014 13.604 50.0454 13.852C50.5974 14.1 51.0294 14.472 51.3414 14.968C51.6534 15.456 51.8214 16.06 51.8454 16.78C51.8614 17.132 51.8694 17.48 51.8694 17.824C51.8694 18.168 51.8614 18.512 51.8454 18.856C51.8134 19.584 51.6454 20.192 51.3414 20.68C51.0374 21.16 50.6134 21.52 50.0694 21.76C49.5254 22 48.8854 22.12 48.1494 22.12ZM48.1494 20.392C48.5734 20.392 48.9174 20.264 49.1814 20.008C49.4534 19.752 49.5974 19.344 49.6134 18.784C49.6294 18.432 49.6374 18.1 49.6374 17.788C49.6374 17.476 49.6294 17.152 49.6134 16.816C49.5974 16.44 49.5254 16.136 49.3974 15.904C49.2774 15.664 49.1094 15.488 48.8934 15.376C48.6774 15.264 48.4294 15.208 48.1494 15.208C47.8774 15.208 47.6334 15.264 47.4174 15.376C47.2014 15.488 47.0294 15.664 46.9014 15.904C46.7734 16.136 46.7014 16.44 46.6854 16.816C46.6774 17.152 46.6734 17.476 46.6734 17.788C46.6734 18.1 46.6774 18.432 46.6854 18.784C46.7094 19.344 46.8534 19.752 47.1174 20.008C47.3814 20.264 47.7254 20.392 48.1494 20.392ZM53.5604 22C53.4724 22 53.4004 21.972 53.3444 21.916C53.2884 21.86 53.2604 21.788 53.2604 21.7V13.9C53.2604 13.812 53.2884 13.74 53.3444 13.684C53.4004 13.628 53.4724 13.6 53.5604 13.6H54.8324C54.9684 13.6 55.0644 13.632 55.1204 13.696C55.1844 13.752 55.2244 13.796 55.2404 13.828L58.1684 18.448V13.9C58.1684 13.812 58.1964 13.74 58.2524 13.684C58.3084 13.628 58.3804 13.6 58.4684 13.6H59.9084C59.9964 13.6 60.0684 13.628 60.1244 13.684C60.1804 13.74 60.2084 13.812 60.2084 13.9V21.7C60.2084 21.78 60.1804 21.852 60.1244 21.916C60.0684 21.972 59.9964 22 59.9084 22H58.6244C58.4964 22 58.4004 21.968 58.3364 21.904C58.2804 21.84 58.2444 21.796 58.2284 21.772L55.3004 17.332V21.7C55.3004 21.788 55.2724 21.86 55.2164 21.916C55.1604 21.972 55.0884 22 55.0004 22H53.5604Z" fill="#535353"/>
<defs>
<filter id="filter0_i_750_3278" x="0" y="0" width="76" height="36" filterUnits="userSpaceOnUse" color-interpolation-filters="sRGB">
<feFlood flood-opacity="0" result="BackgroundImageFix"/>
<feBlend mode="normal" in="SourceGraphic" in2="BackgroundImageFix" result="shape"/>
<feColorMatrix in="SourceAlpha" type="matrix" values="0 0 0 0 0 0 0 0 0 0 0 0 0 0 0 0 0 0 127 0" result="hardAlpha"/>
<feOffset dy="-4"/>
<feComposite in2="hardAlpha" operator="arithmetic" k2="-1" k3="1"/>
<feColorMatrix type="matrix" values="0 0 0 0 0 0 0 0 0 0 0 0 0 0 0 0 0 0 0.15 0"/>
<feBlend mode="normal" in2="shape" result="effect1_innerShadow_750_3278"/>
</filter>
</defs>
</svg>
