<svg width="76" height="36" viewBox="0 0 76 36" fill="none" xmlns="http://www.w3.org/2000/svg">
<g filter="url(#filter0_i_710_3303)">
<rect width="76" height="36" rx="15" fill="#FCDB37"/>
</g>
<path d="M21.3608 20.472H22.4288L24.2048 17.436H20.9168V15.888H25.5248V13.956H21.5048V12.42H25.5248V11.28H27.1088V12.42H31.1288V13.956H27.1088V15.888H31.7168V17.436H26.1368L24.3608 20.472H29.0048L28.3928 19.068H30.2528L31.5488 22.02H21.3608V20.472ZM33.0488 11.94H37.5248V11.16H39.1088V11.94H43.5848V14.316H42.0248V13.428H34.6088V14.316H33.0488V11.94ZM32.9168 20.604C34.5328 20.244 35.5008 19.54 35.8208 18.492H33.0248V16.992H43.6088V18.492H40.7768V20.64H43.8368V22.14H39.2168V18.492H37.3928C37.2328 19.444 36.7768 20.248 36.0248 20.904C35.2808 21.552 34.2448 22.004 32.9168 22.26V20.604ZM34.2488 14.568H42.3848V16.032H34.2488V14.568ZM44.7728 22.2C45.0768 21.264 45.2888 20.348 45.4088 19.452C45.5368 18.548 45.6008 17.52 45.6008 16.368V12.384H51.5408L51.3368 11.16H53.0048L53.2088 12.384H55.7768V13.92H53.4728L53.5448 14.316C53.6568 14.98 53.7888 15.636 53.9408 16.284L55.6568 15.12V17.136L54.3848 18C54.7928 19.448 55.2848 20.848 55.8608 22.2H53.9648C53.7088 21.496 53.5088 20.9 53.3648 20.412L51.4088 21.732V19.752L52.8728 18.768C52.4568 17.272 52.1248 15.788 51.8768 14.316L51.8048 13.92H47.1608V15.636H50.7848V21.84H48.3128V20.304H49.2488V17.16H47.1488C47.1328 18.104 47.0768 18.984 46.9808 19.8C46.8848 20.608 46.7328 21.408 46.5248 22.2H44.7728ZM55.1408 11.208L55.2728 12.168H54.0248L53.8928 11.208H55.1408Z" fill="#535353"/>
<defs>
<filter id="filter0_i_710_3303" x="0" y="0" width="76" height="36" filterUnits="userSpaceOnUse" color-interpolation-filters="sRGB">
<feFlood flood-opacity="0" result="BackgroundImageFix"/>
<feBlend mode="normal" in="SourceGraphic" in2="BackgroundImageFix" result="shape"/>
<feColorMatrix in="SourceAlpha" type="matrix" values="0 0 0 0 0 0 0 0 0 0 0 0 0 0 0 0 0 0 127 0" result="hardAlpha"/>
<feOffset dy="-4"/>
<feComposite in2="hardAlpha" operator="arithmetic" k2="-1" k3="1"/>
<feColorMatrix type="matrix" values="0 0 0 0 0 0 0 0 0 0 0 0 0 0 0 0 0 0 0.15 0"/>
<feBlend mode="normal" in2="shape" result="effect1_innerShadow_710_3303"/>
</filter>
</defs>
</svg>


