<svg width="164" height="164" viewBox="0 0 164 164" fill="none" xmlns="http://www.w3.org/2000/svg">
<rect width="164" height="164" rx="82" fill="#F5F7FB"/>
<mask id="mask0_907_3293" style="mask-type:luminance" maskUnits="userSpaceOnUse" x="0" y="0" width="164" height="164">
<rect width="164" height="164" rx="82" fill="white"/>
</mask>
<g mask="url(#mask0_907_3293)">
<path d="M15.928 107.015C15.928 95.8497 15.928 90.2673 16.8524 85.6253C20.6428 66.5929 35.5204 51.7153 54.5528 47.925C59.1948 47.0005 64.7772 47.0005 75.9421 47.0005H88.0474C99.2122 47.0005 104.795 47.0005 109.437 47.925C128.469 51.7153 143.347 66.5929 147.137 85.6253C148.061 90.2673 148.061 95.8497 148.061 107.015V107.015C148.061 117.482 148.061 122.715 147.195 127.067C143.641 144.91 129.694 158.858 111.851 162.411C107.499 163.278 102.265 163.278 91.7982 163.278H72.1911C61.7241 163.278 56.4906 163.278 52.1387 162.411C34.2959 158.858 20.3481 144.91 16.7947 127.067C15.928 122.715 15.928 117.482 15.928 107.015V107.015Z" fill="#5FD055"/>
<rect x="33.105" y="81.3549" width="97.7788" height="55.496" rx="20" fill="#010101"/>
<path d="M54.2466 162.837C54.2466 157.787 54.2466 155.262 55.1376 153.295C56.1389 151.085 57.9098 149.314 60.1203 148.313C62.0872 147.422 64.6122 147.422 69.6621 147.422H94.3271C99.377 147.422 101.902 147.422 103.869 148.313C106.079 149.314 107.85 151.085 108.852 153.295C109.743 155.262 109.743 157.787 109.743 162.837V162.837C109.743 163.847 109.743 164.352 109.564 164.746C109.364 165.188 109.01 165.542 108.568 165.742C108.175 165.92 107.67 165.92 106.66 165.92H57.3297C56.3197 165.92 55.8147 165.92 55.4213 165.742C54.9792 165.542 54.625 165.188 54.4248 164.746C54.2466 164.352 54.2466 163.847 54.2466 162.837V162.837Z" fill="#95EC8E"/>
<path d="M145.419 83.6671C145.419 83.377 145.419 83.2319 145.434 83.11C145.546 82.1994 146.264 81.482 147.174 81.3698C147.296 81.3547 147.441 81.3547 147.731 81.3547V81.3547C148.602 81.3547 149.037 81.3547 149.402 81.3998C152.134 81.7366 154.286 83.8889 154.623 86.6207C154.668 86.9863 154.668 87.4215 154.668 88.2917V128.592C154.668 129.463 154.668 129.898 154.623 130.263C154.286 132.995 152.134 135.148 149.402 135.484C149.037 135.529 148.602 135.529 147.731 135.529V135.529C147.441 135.529 147.296 135.529 147.174 135.514C146.264 135.402 145.546 134.685 145.434 133.774C145.419 133.652 145.419 133.507 145.419 133.217V83.6671Z" fill="#95EC8E"/>
<path d="M18.5708 83.6672C18.5708 83.3771 18.5708 83.2321 18.5558 83.1102C18.4435 82.1996 17.7261 81.4821 16.8155 81.3699C16.6936 81.3549 16.5486 81.3549 16.2585 81.3549V81.3549C15.3882 81.3549 14.953 81.3549 14.5874 81.3999C11.8556 81.7367 9.70329 83.889 9.36653 86.6208C9.32146 86.9864 9.32146 87.4216 9.32146 88.2919L9.32146 128.592C9.32146 129.463 9.32146 129.898 9.36653 130.264C9.70329 132.995 11.8556 135.148 14.5874 135.484C14.953 135.529 15.3882 135.529 16.2585 135.529V135.529C16.5486 135.529 16.6936 135.529 16.8155 135.514C17.7261 135.402 18.4435 134.685 18.5558 133.774C18.5708 133.652 18.5708 133.507 18.5708 133.217V83.6672Z" fill="#95EC8E"/>
<path d="M56.8887 49.0002C56.8887 48.0574 56.8887 47.586 57.1816 47.2931C57.4745 47.0002 57.9459 47.0002 58.8887 47.0002H105.099C106.042 47.0002 106.514 47.0002 106.806 47.2931C107.099 47.586 107.099 48.0574 107.099 49.0002V81.3549H56.8887V49.0002Z" fill="#377E30"/>
<path d="M62.1748 47H101.815V64.784C101.815 67.6124 101.815 69.0266 100.936 69.9053C100.057 70.784 98.6433 70.784 95.8148 70.784H68.1748C65.3464 70.784 63.9322 70.784 63.0535 69.9053C62.1748 69.0266 62.1748 67.6124 62.1748 64.784V47Z" fill="#95EC8E"/>
<rect x="8" y="89.2828" width="2.64267" height="36.9973" rx="1.32133" fill="#5FD055"/>
<rect x="153.347" y="89.2826" width="2.64267" height="36.9973" rx="1.32133" fill="#5FD055"/>
<rect x="55" y="95" width="16" height="27" rx="8" fill="#EBBA48"/>
<rect x="93" y="95" width="16" height="27" rx="8" fill="#EBBA48"/>
</g>
</svg>
