<svg width="402" height="244" viewBox="0 0 402 244" fill="none" xmlns="http://www.w3.org/2000/svg">
<g clip-path="url(#clip0_750_3281)">
<rect width="402" height="244" fill="#D0EEFF"/>
<path opacity="0.3" d="M366.678 638.144L285.399 638.35L315.41 268.886L333.739 268.84L366.678 638.144ZM503.287 615.511L424.842 632.526L334.468 269.419L352.157 265.582L503.287 615.511ZM314.897 268.177L227.398 631.737L148.822 615.116L297.178 264.432L314.897 268.177ZM627.938 565.379L557.661 598.05L353.05 265.989L368.897 258.621L627.938 565.379ZM296.902 263.638L94.9248 596.728L24.3906 564.414L280.997 256.35L296.902 263.638ZM732.156 491.154L674.825 537.26L369.889 258.831L382.814 248.437L732.156 491.154ZM280.993 255.531L-21.7295 535.496L-79.4277 489.685L267.983 245.199L280.993 255.531ZM808.849 397.89L768.361 454.289L383.842 248.433L392.97 235.716L808.849 397.89ZM268.245 244.406L-114.639 452.207L-155.576 396.014L259.013 231.735L268.245 244.406ZM852.802 291.926L831.913 354.786L393.96 235.501L398.671 221.324L852.802 291.926ZM259.522 231.022L-177.476 352.528L-198.863 289.772L254.701 216.87L259.522 231.022ZM861.159 245.519L399.558 220.912L399.531 206.244L861.027 180.471L861.159 245.519ZM255.336 201.621L255.42 216.286L-205.971 243.23L-206.359 178.187L255.336 201.621ZM854.104 133.912L400.257 205.664L395.488 191.5L832.964 71.1064L854.104 133.912ZM260.877 187.021L256.224 201.206L-198.19 131.755L-177.549 68.8438L260.877 187.021ZM811.234 27.5615L395.995 190.79L386.815 178.095L770.522 -28.7363L811.234 27.5615ZM270.941 174.061L261.861 186.802L-154.658 25.6816L-114.392 -30.8232L270.941 174.061ZM735.459 -66.3027L387.078 177.301L374.11 166.939L677.945 -112.261L735.459 -66.3027ZM284.854 163.627L271.97 174.056L-78.332 -67.7764L-21.1797 -114.028L284.854 163.627ZM631.941 -141.292L374.112 166.117L358.233 158.791L561.532 -173.786L631.941 -141.292ZM301.666 156.428L285.851 163.833L25.5918 -142.266L95.7383 -175.113L301.666 156.428ZM507.71 -192.313L357.965 157.997L340.266 154.202L429.197 -209.132L507.71 -192.313ZM320.231 152.947L302.559 156.83L150.043 -192.712L228.425 -209.929L320.231 152.947ZM339.745 153.493H321.422L289.947 -215.891H371.22L339.745 153.493Z" fill="#FCFEFF"/>
<rect x="40" y="43" width="102" height="32" rx="8" fill="#9367DA"/>
<circle cx="53" cy="59" r="3" fill="white"/>
<path d="M66.256 64.144C65.168 64.144 64.2133 63.9093 63.392 63.44C62.5813 62.9707 61.9573 62.2987 61.52 61.424C61.0827 60.5493 60.864 59.5253 60.864 58.352C60.864 57.1787 61.0827 56.16 61.52 55.296C61.9573 54.4213 62.5813 53.7493 63.392 53.28C64.2133 52.8107 65.168 52.576 66.256 52.576C66.96 52.576 67.6213 52.6827 68.24 52.896C68.8587 53.0987 69.408 53.3973 69.888 53.792C70.0267 53.8987 70.1227 54.0107 70.176 54.128C70.2293 54.2453 70.256 54.3893 70.256 54.56C70.256 54.7947 70.192 54.992 70.064 55.152C69.936 55.312 69.7813 55.392 69.6 55.392C69.3867 55.392 69.168 55.3173 68.944 55.168C68.4853 54.8267 68.0587 54.592 67.664 54.464C67.2693 54.3253 66.832 54.256 66.352 54.256C65.2427 54.256 64.4 54.6027 63.824 55.296C63.2587 55.9893 62.976 57.008 62.976 58.352C62.976 59.7067 63.2587 60.7307 63.824 61.424C64.4 62.1173 65.2427 62.464 66.352 62.464C66.8107 62.464 67.232 62.3947 67.616 62.256C68.0107 62.1173 68.4533 61.8827 68.944 61.552C69.0507 61.488 69.1573 61.4347 69.264 61.392C69.3707 61.3493 69.4827 61.328 69.6 61.328C69.7813 61.328 69.936 61.408 70.064 61.568C70.192 61.728 70.256 61.9253 70.256 62.16C70.256 62.32 70.2293 62.464 70.176 62.592C70.1227 62.7093 70.0267 62.8213 69.888 62.928C69.408 63.3227 68.8587 63.6267 68.24 63.84C67.6213 64.0427 66.96 64.144 66.256 64.144ZM76.7158 64.144C75.1691 64.144 73.9958 63.744 73.1957 62.944C72.3958 62.144 71.9958 60.976 71.9958 59.44V53.664C71.9958 53.3547 72.0864 53.1093 72.2678 52.928C72.4491 52.736 72.6944 52.64 73.0038 52.64C73.3131 52.64 73.5584 52.736 73.7398 52.928C73.9211 53.1093 74.0118 53.3547 74.0118 53.664V59.552C74.0118 60.5227 74.2411 61.2587 74.6998 61.76C75.1584 62.2507 75.8304 62.496 76.7158 62.496C77.5904 62.496 78.2571 62.2453 78.7158 61.744C79.1744 61.2427 79.4038 60.512 79.4038 59.552V53.664C79.4038 53.3547 79.4944 53.1093 79.6758 52.928C79.8571 52.736 80.1024 52.64 80.4118 52.64C80.7211 52.64 80.9664 52.736 81.1478 52.928C81.3291 53.1093 81.4198 53.3547 81.4198 53.664V59.44C81.4198 60.9653 81.0198 62.1333 80.2198 62.944C79.4198 63.744 78.2518 64.144 76.7158 64.144ZM92.6101 52.64C92.9195 52.64 93.1648 52.736 93.3461 52.928C93.5275 53.1093 93.6181 53.3547 93.6181 53.664V63.056C93.6181 63.3653 93.5221 63.616 93.3301 63.808C93.1488 64 92.9088 64.096 92.6101 64.096C92.3008 64.096 92.0555 64 91.8741 63.808C91.6928 63.616 91.6021 63.3653 91.6021 63.056V59.104H85.8261V63.056C85.8261 63.3653 85.7301 63.616 85.5381 63.808C85.3568 64 85.1115 64.096 84.8021 64.096C84.5035 64.096 84.2581 64 84.0661 63.808C83.8848 63.616 83.7941 63.3653 83.7941 63.056V53.664C83.7941 53.3547 83.8848 53.1093 84.0661 52.928C84.2475 52.736 84.4928 52.64 84.8021 52.64C85.1115 52.64 85.3568 52.736 85.5381 52.928C85.7301 53.1093 85.8261 53.3547 85.8261 53.664V57.44H91.6021V53.664C91.6021 53.3547 91.6928 53.1093 91.8741 52.928C92.0555 52.736 92.3008 52.64 92.6101 52.64ZM104.796 62.448C105.009 62.6507 105.116 62.88 105.116 63.136C105.116 63.3813 105.02 63.6 104.828 63.792C104.647 63.9733 104.428 64.064 104.172 64.064C103.905 64.064 103.66 63.952 103.436 63.728L98.1081 58.736V63.056C98.1081 63.3653 98.0121 63.616 97.8201 63.808C97.6388 64 97.3881 64.096 97.0681 64.096C96.7588 64.096 96.5081 64 96.3161 63.808C96.1348 63.616 96.0441 63.3653 96.0441 63.056V53.664C96.0441 53.3547 96.1348 53.1093 96.3161 52.928C96.5081 52.736 96.7588 52.64 97.0681 52.64C97.3881 52.64 97.6388 52.736 97.8201 52.928C98.0121 53.1093 98.1081 53.3547 98.1081 53.664V57.776L103.26 52.944C103.452 52.752 103.671 52.656 103.916 52.656C104.161 52.656 104.375 52.752 104.556 52.944C104.748 53.1253 104.844 53.3387 104.844 53.584C104.844 53.8293 104.737 54.0533 104.524 54.256L100.22 58.192L104.796 62.448ZM106.683 60.512C106.374 60.512 106.139 60.4427 105.979 60.304C105.83 60.1653 105.755 59.9733 105.755 59.728C105.755 59.4827 105.83 59.2907 105.979 59.152C106.139 59.0027 106.374 58.928 106.683 58.928H109.979C110.289 58.928 110.518 59.0027 110.667 59.152C110.827 59.2907 110.907 59.4827 110.907 59.728C110.907 59.9733 110.827 60.1653 110.667 60.304C110.518 60.4427 110.289 60.512 109.979 60.512H106.683ZM116.604 64.144C115.783 64.144 115.004 64.0373 114.268 63.824C113.543 63.6 112.951 63.3013 112.492 62.928C112.247 62.7467 112.124 62.4907 112.124 62.16C112.124 61.936 112.188 61.744 112.316 61.584C112.455 61.4133 112.615 61.328 112.796 61.328C112.988 61.328 113.207 61.4027 113.452 61.552C113.911 61.8827 114.391 62.1227 114.892 62.272C115.394 62.4213 115.948 62.496 116.556 62.496C117.335 62.496 117.932 62.3627 118.348 62.096C118.764 61.8187 118.972 61.4187 118.972 60.896C118.972 60.4907 118.775 60.1813 118.38 59.968C117.996 59.744 117.351 59.5307 116.444 59.328C115.506 59.1253 114.743 58.8907 114.156 58.624C113.57 58.3573 113.127 58.016 112.828 57.6C112.53 57.184 112.38 56.656 112.38 56.016C112.38 55.3547 112.567 54.7627 112.94 54.24C113.314 53.7173 113.831 53.312 114.492 53.024C115.164 52.7253 115.916 52.576 116.748 52.576C118.274 52.576 119.516 52.9813 120.476 53.792C120.615 53.9093 120.711 54.0267 120.764 54.144C120.828 54.2507 120.86 54.3893 120.86 54.56C120.86 54.784 120.791 54.9813 120.652 55.152C120.524 55.312 120.37 55.392 120.188 55.392C120.082 55.392 119.98 55.376 119.884 55.344C119.799 55.312 119.682 55.2533 119.532 55.168C119.095 54.848 118.668 54.6133 118.252 54.464C117.847 54.304 117.346 54.224 116.748 54.224C116.023 54.224 115.447 54.3733 115.02 54.672C114.604 54.96 114.396 55.3653 114.396 55.888C114.396 56.3253 114.583 56.6613 114.956 56.896C115.33 57.1307 115.964 57.3493 116.86 57.552C117.81 57.7653 118.578 58.0053 119.164 58.272C119.762 58.528 120.215 58.8587 120.524 59.264C120.844 59.6693 121.004 60.176 121.004 60.784C121.004 61.4453 120.818 62.032 120.444 62.544C120.082 63.0453 119.564 63.44 118.892 63.728C118.231 64.0053 117.468 64.144 116.604 64.144ZM129.867 62.352C130.507 62.352 130.827 62.624 130.827 63.168C130.827 63.7227 130.507 64 129.867 64H123.051C122.773 64 122.549 63.92 122.379 63.76C122.219 63.5893 122.139 63.376 122.139 63.12C122.139 62.864 122.224 62.6187 122.395 62.384L128.123 54.368H123.115C122.475 54.368 122.155 54.096 122.155 53.552C122.155 52.9973 122.475 52.72 123.115 52.72H129.723C130 52.72 130.219 52.8053 130.378 52.976C130.549 53.136 130.635 53.3387 130.635 53.584C130.635 53.8293 130.544 54.0747 130.363 54.32L124.635 62.352H129.867Z" fill="white"/>
<path d="M51.232 111.338C49.256 111.338 47.4967 110.974 45.954 110.246C44.4287 109.518 43.224 108.461 42.34 107.074C41.4733 105.687 41.04 104.041 41.04 102.134C41.04 100.123 41.4647 98.3987 42.314 96.96C43.1633 95.504 44.3507 94.3947 45.876 93.632C47.4013 92.852 49.1433 92.462 51.102 92.462C52.0727 92.462 53.052 92.5573 54.04 92.748C55.028 92.9387 55.8427 93.1813 56.484 93.476V96.7C54.7333 96.0587 53.104 95.738 51.596 95.738C49.7933 95.738 48.3287 96.2667 47.202 97.324C46.0927 98.3813 45.538 99.9847 45.538 102.134C45.538 103.278 45.8153 104.292 46.37 105.176C46.9247 106.043 47.6527 106.719 48.554 107.204C49.4553 107.689 50.426 107.967 51.466 108.036L52.038 108.062C52.8353 108.062 53.624 107.949 54.404 107.724C55.184 107.499 55.8773 107.195 56.484 106.814V110.402C55.7387 110.749 54.9413 110.991 54.092 111.13C53.26 111.269 52.3067 111.338 51.232 111.338ZM65.9374 111.338C64.4641 111.338 63.1641 111.035 62.0374 110.428C60.9281 109.821 60.0701 108.963 59.4634 107.854C58.8568 106.727 58.5534 105.401 58.5534 103.876C58.5534 101.536 59.2121 99.742 60.5294 98.494C61.8468 97.246 63.6494 96.622 65.9374 96.622C68.2081 96.622 70.0021 97.246 71.3194 98.494C72.6368 99.742 73.2954 101.536 73.2954 103.876C73.2954 105.401 72.9921 106.727 72.3854 107.854C71.7788 108.963 70.9208 109.821 69.8114 110.428C68.7021 111.035 67.4108 111.338 65.9374 111.338ZM62.6614 103.876C62.6614 105.211 62.9648 106.285 63.5714 107.1C64.1781 107.915 64.9668 108.322 65.9374 108.322C66.9081 108.322 67.6881 107.915 68.2774 107.1C68.8841 106.285 69.1874 105.211 69.1874 103.876C69.1874 102.489 68.8928 101.441 68.3034 100.73C67.7314 100.002 66.9428 99.638 65.9374 99.638C64.9321 99.638 64.1348 100.002 63.5454 100.73C62.9561 101.441 62.6614 102.489 62.6614 103.876ZM79.5342 96.908V98.598C80.1756 98.0433 80.9036 97.61 81.7182 97.298C82.5502 96.986 83.3736 96.83 84.1882 96.83C85.5229 96.83 86.5802 97.22 87.3602 98C88.1576 98.78 88.5562 99.794 88.5562 101.042V110.948H84.3962V101.744C84.3962 101.241 84.1882 100.834 83.7722 100.522C83.3562 100.193 82.8622 100.028 82.2902 100.028C81.9262 100.028 81.4669 100.149 80.9122 100.392C80.3749 100.635 79.9156 100.929 79.5342 101.276V110.948H75.3742V96.908H79.5342ZM95.3272 96.908V98.598C95.9685 98.0433 96.6965 97.61 97.5112 97.298C98.3432 96.986 99.1665 96.83 99.9812 96.83C101.316 96.83 102.373 97.22 103.153 98C103.951 98.78 104.349 99.794 104.349 101.042V110.948H100.189V101.744C100.189 101.241 99.9812 100.834 99.5652 100.522C99.1492 100.193 98.6552 100.028 98.0832 100.028C97.7192 100.028 97.2599 100.149 96.7052 100.392C96.1679 100.635 95.7085 100.929 95.3272 101.276V110.948H91.1672V96.908H95.3272ZM119.726 110.246C119.067 110.645 118.296 110.939 117.412 111.13C116.545 111.321 115.705 111.416 114.89 111.416C112.117 111.416 110.011 110.757 108.572 109.44C107.151 108.123 106.44 106.277 106.44 103.902C106.44 101.545 107.073 99.742 108.338 98.494C109.621 97.2287 111.363 96.596 113.564 96.596C115.748 96.596 117.473 97.2287 118.738 98.494C120.021 99.742 120.662 101.545 120.662 103.902C120.662 104.162 120.645 104.535 120.61 105.02H110.496C110.877 107.256 112.342 108.374 114.89 108.374C116.675 108.374 118.287 107.845 119.726 106.788V110.246ZM116.736 102.108C116.511 101.241 116.121 100.6 115.566 100.184C115.011 99.768 114.344 99.56 113.564 99.56C112.836 99.56 112.212 99.7767 111.692 100.21C111.189 100.643 110.834 101.276 110.626 102.108H116.736ZM134.453 110.532C133.118 111.069 131.749 111.338 130.345 111.338C128.872 111.338 127.511 111.043 126.263 110.454C125.032 109.847 124.053 108.998 123.325 107.906C122.597 106.797 122.233 105.523 122.233 104.084C122.233 102.576 122.58 101.259 123.273 100.132C123.966 99.0053 124.911 98.1473 126.107 97.558C127.32 96.9513 128.672 96.648 130.163 96.648C131.515 96.648 132.884 96.8907 134.271 97.376V100.574C133.214 100.123 132.13 99.898 131.021 99.898C129.652 99.898 128.516 100.227 127.615 100.886C126.714 101.527 126.263 102.593 126.263 104.084C126.263 104.933 126.497 105.653 126.965 106.242C127.433 106.831 128.04 107.282 128.785 107.594C129.53 107.889 130.319 108.036 131.151 108.036C131.792 108.036 132.399 107.949 132.971 107.776C133.56 107.585 134.054 107.325 134.453 106.996V110.532ZM137.632 96.96V92.956H141.532V96.96H144.236V100.132H141.532V106.164C141.532 106.667 141.567 107.048 141.636 107.308C141.723 107.568 141.87 107.75 142.078 107.854C142.286 107.941 142.59 107.984 142.988 107.984C143.248 107.984 143.465 107.975 143.638 107.958C143.829 107.941 143.994 107.915 144.132 107.88V111.078C143.404 111.165 142.728 111.208 142.104 111.208C140.908 111.208 140.016 111.087 139.426 110.844C138.837 110.601 138.386 110.185 138.074 109.596C137.78 108.989 137.632 108.131 137.632 107.022V100.132H135.604V96.96H137.632ZM153.908 96.96V92.956H157.808V96.96H160.512V100.132H157.808V106.164C157.808 106.667 157.842 107.048 157.912 107.308C157.998 107.568 158.146 107.75 158.354 107.854C158.562 107.941 158.865 107.984 159.264 107.984C159.524 107.984 159.74 107.975 159.914 107.958C160.104 107.941 160.269 107.915 160.408 107.88V111.078C159.68 111.165 159.004 111.208 158.38 111.208C157.184 111.208 156.291 111.087 155.702 110.844C155.112 110.601 154.662 110.185 154.35 109.596C154.055 108.989 153.908 108.131 153.908 107.022V100.132H151.88V96.96H153.908ZM169.201 111.338C167.728 111.338 166.428 111.035 165.301 110.428C164.192 109.821 163.334 108.963 162.727 107.854C162.12 106.727 161.817 105.401 161.817 103.876C161.817 101.536 162.476 99.742 163.793 98.494C165.11 97.246 166.913 96.622 169.201 96.622C171.472 96.622 173.266 97.246 174.583 98.494C175.9 99.742 176.559 101.536 176.559 103.876C176.559 105.401 176.256 106.727 175.649 107.854C175.042 108.963 174.184 109.821 173.075 110.428C171.966 111.035 170.674 111.338 169.201 111.338ZM165.925 103.876C165.925 105.211 166.228 106.285 166.835 107.1C167.442 107.915 168.23 108.322 169.201 108.322C170.172 108.322 170.952 107.915 171.541 107.1C172.148 106.285 172.451 105.211 172.451 103.876C172.451 102.489 172.156 101.441 171.567 100.73C170.995 100.002 170.206 99.638 169.201 99.638C168.196 99.638 167.398 100.002 166.809 100.73C166.22 101.441 165.925 102.489 165.925 103.876ZM45.85 123.8V138.49H53.208V142H41.56V123.8H45.85ZM70.588 141.22C69.7907 141.601 68.9327 141.879 68.014 142.052C67.0953 142.243 66.0293 142.338 64.816 142.338C62.8227 142.338 61.0633 141.965 59.538 141.22C58.0127 140.475 56.808 139.417 55.924 138.048C55.0573 136.661 54.624 135.041 54.624 133.186C54.624 131.314 55.0487 129.65 55.898 128.194C56.7647 126.721 57.952 125.568 59.46 124.736C60.9853 123.887 62.7273 123.462 64.686 123.462C65.6393 123.462 66.6013 123.557 67.572 123.748C68.56 123.939 69.392 124.173 70.068 124.45V127.57C68.3173 126.981 66.688 126.686 65.18 126.686C63.308 126.686 61.7913 127.223 60.63 128.298C59.4687 129.373 58.888 131.002 58.888 133.186C58.888 134.365 59.1653 135.413 59.72 136.332C60.292 137.233 61.046 137.892 61.982 138.308C62.9353 138.724 63.958 138.932 65.05 138.932C65.778 138.932 66.4193 138.906 66.974 138.854V134.85H64.92V131.6H70.588V141.22ZM81.4586 142.338C79.0146 142.338 77.0646 141.679 75.6086 140.362C74.17 139.045 73.4506 137.233 73.4506 134.928V123.8H77.7406V134.928C77.7406 135.691 77.9053 136.349 78.2346 136.904C78.5813 137.459 79.0406 137.892 79.6126 138.204C80.1846 138.499 80.8 138.646 81.4586 138.646C82.1346 138.646 82.75 138.499 83.3046 138.204C83.8766 137.892 84.3273 137.459 84.6566 136.904C84.986 136.332 85.1506 135.673 85.1506 134.928V123.8H89.4406V134.928C89.4406 137.233 88.7126 139.045 87.2566 140.362C85.818 141.679 83.8853 142.338 81.4586 142.338Z" fill="#0C3B56"/>
<path d="M39.72 170.986C39.804 170.995 39.9253 171 40.084 171C40.4573 171 40.742 170.93 40.938 170.79C41.1433 170.641 41.2833 170.421 41.358 170.132C41.4327 169.843 41.47 169.451 41.47 168.956V161.2H43.78V169.46C43.78 171.905 42.4267 173.081 39.72 172.988V170.986ZM49.0171 171.182C48.2238 171.182 47.5238 171.019 46.9171 170.692C46.3198 170.365 45.8578 169.903 45.5311 169.306C45.2044 168.699 45.0411 167.985 45.0411 167.164C45.0411 165.904 45.3958 164.938 46.1051 164.266C46.8144 163.594 47.7851 163.258 49.0171 163.258C50.2398 163.258 51.2058 163.594 51.9151 164.266C52.6244 164.938 52.9791 165.904 52.9791 167.164C52.9791 167.985 52.8158 168.699 52.4891 169.306C52.1624 169.903 51.7004 170.365 51.1031 170.692C50.5058 171.019 49.8104 171.182 49.0171 171.182ZM47.2531 167.164C47.2531 167.883 47.4164 168.461 47.7431 168.9C48.0698 169.339 48.4944 169.558 49.0171 169.558C49.5398 169.558 49.9598 169.339 50.2771 168.9C50.6038 168.461 50.7671 167.883 50.7671 167.164C50.7671 166.417 50.6084 165.853 50.2911 165.47C49.9831 165.078 49.5584 164.882 49.0171 164.882C48.4758 164.882 48.0464 165.078 47.7291 165.47C47.4118 165.853 47.2531 166.417 47.2531 167.164ZM56.5204 163.44V171H54.2804V163.44H56.5204ZM54.2804 160.234H56.5204V162.474H54.2804V160.234ZM60.3443 163.412V164.322C60.6896 164.023 61.0816 163.79 61.5203 163.622C61.9683 163.454 62.4116 163.37 62.8503 163.37C63.569 163.37 64.1383 163.58 64.5583 164C64.9876 164.42 65.2023 164.966 65.2023 165.638V170.972H62.9623V166.016C62.9623 165.745 62.8503 165.526 62.6263 165.358C62.4023 165.181 62.1363 165.092 61.8283 165.092C61.6323 165.092 61.385 165.157 61.0863 165.288C60.797 165.419 60.5496 165.577 60.3443 165.764V170.972H58.1043V163.412H60.3443ZM73.4649 171.182C72.7556 171.182 72.1349 171.014 71.6029 170.678C71.0803 170.342 70.6743 169.88 70.3849 169.292C70.1049 168.704 69.9649 168.018 69.9649 167.234C69.9649 166.459 70.1049 165.773 70.3849 165.176C70.6743 164.569 71.0756 164.098 71.5889 163.762C72.1116 163.426 72.7183 163.258 73.4089 163.258C73.7263 163.258 74.0436 163.319 74.3609 163.44C74.6876 163.552 74.9909 163.711 75.2709 163.916V163.44H77.5109V169.236C77.5109 169.992 77.6043 170.58 77.7909 171H75.6909C75.6256 170.869 75.5696 170.701 75.5229 170.496C74.9443 170.953 74.2583 171.182 73.4649 171.182ZM72.1069 167.234C72.1069 167.663 72.1909 168.055 72.3589 168.41C72.5363 168.765 72.7649 169.049 73.0449 169.264C73.3343 169.469 73.6376 169.572 73.9549 169.572C74.1789 169.572 74.4309 169.525 74.7109 169.432C74.9909 169.329 75.2336 169.115 75.4389 168.788V165.652C75.2336 165.325 74.9909 165.115 74.7109 165.022C74.4403 164.929 74.1883 164.882 73.9549 164.882C73.6376 164.882 73.3343 164.985 73.0449 165.19C72.7649 165.395 72.5363 165.68 72.3589 166.044C72.1909 166.399 72.1069 166.795 72.1069 167.234ZM85.2129 170.748C84.4942 171.037 83.7569 171.182 83.0009 171.182C82.2076 171.182 81.4749 171.023 80.8029 170.706C80.1402 170.379 79.6129 169.922 79.2209 169.334C78.8289 168.737 78.6329 168.051 78.6329 167.276C78.6329 166.464 78.8196 165.755 79.1929 165.148C79.5662 164.541 80.0749 164.079 80.7189 163.762C81.3722 163.435 82.1002 163.272 82.9029 163.272C83.6309 163.272 84.3682 163.403 85.1149 163.664V165.386C84.5456 165.143 83.9622 165.022 83.3649 165.022C82.6276 165.022 82.0162 165.199 81.5309 165.554C81.0456 165.899 80.8029 166.473 80.8029 167.276C80.8029 167.733 80.9289 168.121 81.1809 168.438C81.4329 168.755 81.7596 168.998 82.1609 169.166C82.5622 169.325 82.9869 169.404 83.4349 169.404C83.7802 169.404 84.1069 169.357 84.4149 169.264C84.7322 169.161 84.9982 169.021 85.2129 168.844V170.748ZM86.9247 163.44V161.284H89.0247V163.44H90.4807V165.148H89.0247V168.396C89.0247 168.667 89.0434 168.872 89.0807 169.012C89.1274 169.152 89.2067 169.25 89.3187 169.306C89.4307 169.353 89.5941 169.376 89.8087 169.376C89.9487 169.376 90.0654 169.371 90.1587 169.362C90.2614 169.353 90.3501 169.339 90.4247 169.32V171.042C90.0327 171.089 89.6687 171.112 89.3327 171.112C88.6887 171.112 88.2081 171.047 87.8907 170.916C87.5734 170.785 87.3307 170.561 87.1627 170.244C87.0041 169.917 86.9247 169.455 86.9247 168.858V165.148H85.8327V163.44H86.9247ZM93.8857 163.44V171H91.6457V163.44H93.8857ZM91.6457 160.234H93.8857V162.474H91.6457V160.234ZM94.8395 163.44H97.1075L98.9135 169.628H98.9835L100.804 163.44H103.058L100.664 171H97.2335L94.8395 163.44ZM106.245 163.44V171H104.005V163.44H106.245ZM104.005 160.234H106.245V162.474H104.005V160.234ZM108.417 163.44V161.284H110.517V163.44H111.973V165.148H110.517V168.396C110.517 168.667 110.536 168.872 110.573 169.012C110.62 169.152 110.699 169.25 110.811 169.306C110.923 169.353 111.086 169.376 111.301 169.376C111.441 169.376 111.558 169.371 111.651 169.362C111.754 169.353 111.842 169.339 111.917 169.32V171.042C111.525 171.089 111.161 171.112 110.825 171.112C110.181 171.112 109.7 171.047 109.383 170.916C109.066 170.785 108.823 170.561 108.655 170.244C108.496 169.917 108.417 169.455 108.417 168.858V165.148H107.325V163.44H108.417ZM115.378 163.44V171H113.138V163.44H115.378ZM113.138 160.234H115.378V162.474H113.138V160.234ZM123.836 170.594C123.481 170.809 123.066 170.967 122.59 171.07C122.123 171.173 121.67 171.224 121.232 171.224C119.738 171.224 118.604 170.869 117.83 170.16C117.064 169.451 116.682 168.457 116.682 167.178C116.682 165.909 117.022 164.938 117.704 164.266C118.394 163.585 119.332 163.244 120.518 163.244C121.694 163.244 122.622 163.585 123.304 164.266C123.994 164.938 124.34 165.909 124.34 167.178C124.34 167.318 124.33 167.519 124.312 167.78H118.866C119.071 168.984 119.86 169.586 121.232 169.586C122.193 169.586 123.061 169.301 123.836 168.732V170.594ZM122.226 166.212C122.104 165.745 121.894 165.4 121.596 165.176C121.297 164.952 120.938 164.84 120.518 164.84C120.126 164.84 119.79 164.957 119.51 165.19C119.239 165.423 119.048 165.764 118.936 166.212H122.226ZM128.504 171.168C127.934 171.196 127.356 171.149 126.768 171.028C126.189 170.916 125.685 170.739 125.256 170.496V168.48C125.638 168.76 126.096 168.993 126.628 169.18C127.169 169.357 127.645 169.432 128.056 169.404C128.345 169.385 128.555 169.325 128.686 169.222C128.816 169.11 128.891 168.998 128.91 168.886C128.956 168.597 128.886 168.377 128.7 168.228C128.513 168.079 128.163 167.934 127.65 167.794C127.08 167.635 126.628 167.453 126.292 167.248C125.956 167.033 125.699 166.795 125.522 166.534C125.354 166.263 125.27 165.923 125.27 165.512C125.27 165.083 125.382 164.7 125.606 164.364C125.83 164.019 126.184 163.748 126.67 163.552C127.155 163.356 127.678 163.258 128.238 163.258C128.658 163.258 129.082 163.3 129.512 163.384C129.941 163.459 130.3 163.561 130.59 163.692V165.498C130.291 165.349 129.936 165.218 129.526 165.106C129.124 164.985 128.774 164.924 128.476 164.924C127.841 164.924 127.496 165.092 127.44 165.428C127.412 165.624 127.5 165.797 127.706 165.946C127.92 166.095 128.224 166.231 128.616 166.352C129.176 166.529 129.633 166.711 129.988 166.898C130.352 167.085 130.636 167.327 130.842 167.626C131.047 167.925 131.15 168.307 131.15 168.774C131.15 169.465 130.902 170.029 130.408 170.468C129.913 170.897 129.278 171.131 128.504 171.168ZM136.39 163.44V161.284H138.49V163.44H139.946V165.148H138.49V168.396C138.49 168.667 138.508 168.872 138.546 169.012C138.592 169.152 138.672 169.25 138.784 169.306C138.896 169.353 139.059 169.376 139.274 169.376C139.414 169.376 139.53 169.371 139.624 169.362C139.726 169.353 139.815 169.339 139.89 169.32V171.042C139.498 171.089 139.134 171.112 138.798 171.112C138.154 171.112 137.673 171.047 137.356 170.916C137.038 170.785 136.796 170.561 136.628 170.244C136.469 169.917 136.39 169.455 136.39 168.858V165.148H135.298V163.44H136.39ZM144.625 171.182C143.831 171.182 143.131 171.019 142.525 170.692C141.927 170.365 141.465 169.903 141.139 169.306C140.812 168.699 140.649 167.985 140.649 167.164C140.649 165.904 141.003 164.938 141.713 164.266C142.422 163.594 143.393 163.258 144.625 163.258C145.847 163.258 146.813 163.594 147.523 164.266C148.232 164.938 148.587 165.904 148.587 167.164C148.587 167.985 148.423 168.699 148.097 169.306C147.77 169.903 147.308 170.365 146.711 170.692C146.113 171.019 145.418 171.182 144.625 171.182ZM142.861 167.164C142.861 167.883 143.024 168.461 143.351 168.9C143.677 169.339 144.102 169.558 144.625 169.558C145.147 169.558 145.567 169.339 145.885 168.9C146.211 168.461 146.375 167.883 146.375 167.164C146.375 166.417 146.216 165.853 145.899 165.47C145.591 165.078 145.166 164.882 144.625 164.882C144.083 164.882 143.654 165.078 143.337 165.47C143.019 165.853 142.861 166.417 142.861 167.164ZM160.217 170.594C159.862 170.809 159.447 170.967 158.971 171.07C158.504 171.173 158.051 171.224 157.613 171.224C156.119 171.224 154.985 170.869 154.211 170.16C153.445 169.451 153.063 168.457 153.063 167.178C153.063 165.909 153.403 164.938 154.085 164.266C154.775 163.585 155.713 163.244 156.899 163.244C158.075 163.244 159.003 163.585 159.685 164.266C160.375 164.938 160.721 165.909 160.721 167.178C160.721 167.318 160.711 167.519 160.693 167.78H155.247C155.452 168.984 156.241 169.586 157.613 169.586C158.574 169.586 159.442 169.301 160.217 168.732V170.594ZM158.607 166.212C158.485 165.745 158.275 165.4 157.977 165.176C157.678 164.952 157.319 164.84 156.899 164.84C156.507 164.84 156.171 164.957 155.891 165.19C155.62 165.423 155.429 165.764 155.317 166.212H158.607ZM165.066 171.182C164.357 171.182 163.736 171.014 163.204 170.678C162.682 170.342 162.276 169.88 161.986 169.292C161.706 168.704 161.566 168.018 161.566 167.234C161.566 166.459 161.706 165.773 161.986 165.176C162.276 164.569 162.677 164.098 163.19 163.762C163.713 163.426 164.32 163.258 165.01 163.258C165.328 163.258 165.645 163.319 165.962 163.44C166.289 163.552 166.592 163.711 166.872 163.916V163.44H169.112V169.236C169.112 169.992 169.206 170.58 169.392 171H167.292C167.227 170.869 167.171 170.701 167.124 170.496C166.546 170.953 165.86 171.182 165.066 171.182ZM163.708 167.234C163.708 167.663 163.792 168.055 163.96 168.41C164.138 168.765 164.366 169.049 164.646 169.264C164.936 169.469 165.239 169.572 165.556 169.572C165.78 169.572 166.032 169.525 166.312 169.432C166.592 169.329 166.835 169.115 167.04 168.788V165.652C166.835 165.325 166.592 165.115 166.312 165.022C166.042 164.929 165.79 164.882 165.556 164.882C165.239 164.882 164.936 164.985 164.646 165.19C164.366 165.395 164.138 165.68 163.96 166.044C163.792 166.399 163.708 166.795 163.708 167.234ZM172.754 163.44V164.252C172.997 163.991 173.286 163.79 173.622 163.65C173.968 163.501 174.308 163.426 174.644 163.426C174.878 163.426 175.097 163.459 175.302 163.524V165.246C175.041 165.181 174.794 165.148 174.56 165.148C174.206 165.148 173.87 165.209 173.552 165.33C173.235 165.442 172.969 165.624 172.754 165.876V171H170.514V163.44H172.754ZM178.469 163.412V164.322C178.815 164.023 179.207 163.79 179.645 163.622C180.093 163.454 180.537 163.37 180.975 163.37C181.694 163.37 182.263 163.58 182.683 164C183.113 164.42 183.327 164.966 183.327 165.638V170.972H181.087V166.016C181.087 165.745 180.975 165.526 180.751 165.358C180.527 165.181 180.261 165.092 179.953 165.092C179.757 165.092 179.51 165.157 179.211 165.288C178.922 165.419 178.675 165.577 178.469 165.764V170.972H176.229V163.412H178.469ZM42.94 183.44V184.252C43.1827 183.991 43.472 183.79 43.808 183.65C44.1533 183.501 44.494 183.426 44.83 183.426C45.0633 183.426 45.2827 183.459 45.488 183.524V185.246C45.2267 185.181 44.9793 185.148 44.746 185.148C44.3913 185.148 44.0553 185.209 43.738 185.33C43.4207 185.442 43.1547 185.624 42.94 185.876V191H40.7V183.44H42.94ZM53.0154 190.594C52.6607 190.809 52.2454 190.967 51.7694 191.07C51.3027 191.173 50.8501 191.224 50.4114 191.224C48.9181 191.224 47.7841 190.869 47.0094 190.16C46.2441 189.451 45.8614 188.457 45.8614 187.178C45.8614 185.909 46.2021 184.938 46.8834 184.266C47.5741 183.585 48.5121 183.244 49.6974 183.244C50.8734 183.244 51.8021 183.585 52.4834 184.266C53.1741 184.938 53.5194 185.909 53.5194 187.178C53.5194 187.318 53.5101 187.519 53.4914 187.78H48.0454C48.2507 188.984 49.0394 189.586 50.4114 189.586C51.3727 189.586 52.2407 189.301 53.0154 188.732V190.594ZM51.4054 186.212C51.2841 185.745 51.0741 185.4 50.7754 185.176C50.4767 184.952 50.1174 184.84 49.6974 184.84C49.3054 184.84 48.9694 184.957 48.6894 185.19C48.4187 185.423 48.2274 185.764 48.1154 186.212H51.4054ZM59.9966 186.03H59.9266L58.9046 191H56.2586L54.0186 183.44H56.2306L57.6026 189.124H57.6586L58.9746 183.44H60.9766L62.2786 189.124H62.3346L63.7066 183.44H65.9186L63.6786 191H61.0326L59.9966 186.03ZM69.9102 191.182C69.2009 191.182 68.5802 191.014 68.0482 190.678C67.5256 190.342 67.1196 189.88 66.8302 189.292C66.5502 188.704 66.4102 188.018 66.4102 187.234C66.4102 186.459 66.5502 185.773 66.8302 185.176C67.1196 184.569 67.5209 184.098 68.0342 183.762C68.5569 183.426 69.1636 183.258 69.8542 183.258C70.1716 183.258 70.4889 183.319 70.8062 183.44C71.1329 183.552 71.4362 183.711 71.7162 183.916V183.44H73.9562V189.236C73.9562 189.992 74.0496 190.58 74.2362 191H72.1362C72.0709 190.869 72.0149 190.701 71.9682 190.496C71.3896 190.953 70.7036 191.182 69.9102 191.182ZM68.5522 187.234C68.5522 187.663 68.6362 188.055 68.8042 188.41C68.9816 188.765 69.2102 189.049 69.4902 189.264C69.7796 189.469 70.0829 189.572 70.4002 189.572C70.6242 189.572 70.8762 189.525 71.1562 189.432C71.4362 189.329 71.6789 189.115 71.8842 188.788V185.652C71.6789 185.325 71.4362 185.115 71.1562 185.022C70.8856 184.929 70.6336 184.882 70.4002 184.882C70.0829 184.882 69.7796 184.985 69.4902 185.19C69.2102 185.395 68.9816 185.68 68.8042 186.044C68.6362 186.399 68.5522 186.795 68.5522 187.234ZM77.5982 183.44V184.252C77.8409 183.991 78.1302 183.79 78.4662 183.65C78.8115 183.501 79.1522 183.426 79.4882 183.426C79.7215 183.426 79.9409 183.459 80.1462 183.524V185.246C79.8849 185.181 79.6375 185.148 79.4042 185.148C79.0495 185.148 78.7135 185.209 78.3962 185.33C78.0789 185.442 77.8129 185.624 77.5982 185.876V191H75.3582V183.44H77.5982ZM84.237 191.182C83.5464 191.182 82.9397 191.019 82.417 190.692C81.8944 190.356 81.493 189.889 81.213 189.292C80.933 188.695 80.793 188.013 80.793 187.248C80.793 186.473 80.933 185.787 81.213 185.19C81.5024 184.583 81.9037 184.112 82.417 183.776C82.9397 183.44 83.5464 183.272 84.237 183.272C84.5544 183.272 84.8717 183.328 85.189 183.44C85.5157 183.552 85.819 183.715 86.099 183.93V180.234H88.339V189.25C88.339 189.997 88.4324 190.58 88.619 191H86.519C86.4537 190.869 86.3977 190.701 86.351 190.496C85.763 190.953 85.0584 191.182 84.237 191.182ZM82.935 187.248C82.935 187.677 83.019 188.069 83.187 188.424C83.3644 188.779 83.593 189.063 83.873 189.278C84.1624 189.483 84.4657 189.586 84.783 189.586C85.035 189.586 85.3104 189.525 85.609 189.404C85.917 189.283 86.169 189.031 86.365 188.648V185.834C86.169 185.442 85.917 185.185 85.609 185.064C85.3104 184.943 85.035 184.882 84.783 184.882C84.4657 184.882 84.1624 184.985 83.873 185.19C83.593 185.395 83.3644 185.68 83.187 186.044C83.019 186.408 82.935 186.809 82.935 187.248ZM92.779 191.168C92.2097 191.196 91.631 191.149 91.043 191.028C90.4643 190.916 89.9603 190.739 89.531 190.496V188.48C89.9137 188.76 90.371 188.993 90.903 189.18C91.4443 189.357 91.9203 189.432 92.331 189.404C92.6203 189.385 92.8303 189.325 92.961 189.222C93.0917 189.11 93.1663 188.998 93.185 188.886C93.2317 188.597 93.1617 188.377 92.975 188.228C92.7883 188.079 92.4383 187.934 91.925 187.794C91.3557 187.635 90.903 187.453 90.567 187.248C90.231 187.033 89.9743 186.795 89.797 186.534C89.629 186.263 89.545 185.923 89.545 185.512C89.545 185.083 89.657 184.7 89.881 184.364C90.105 184.019 90.4597 183.748 90.945 183.552C91.4303 183.356 91.953 183.258 92.513 183.258C92.933 183.258 93.3577 183.3 93.787 183.384C94.2163 183.459 94.5757 183.561 94.865 183.692V185.498C94.5663 185.349 94.2117 185.218 93.801 185.106C93.3997 184.985 93.0497 184.924 92.751 184.924C92.1163 184.924 91.771 185.092 91.715 185.428C91.687 185.624 91.7757 185.797 91.981 185.946C92.1957 186.095 92.499 186.231 92.891 186.352C93.451 186.529 93.9083 186.711 94.263 186.898C94.627 187.085 94.9117 187.327 95.117 187.626C95.3223 187.925 95.425 188.307 95.425 188.774C95.425 189.465 95.1777 190.029 94.683 190.468C94.1883 190.897 93.5537 191.131 92.779 191.168Z" fill="#0C3B56"/>
<path d="M231.079 167.714C234.908 137.6 236.823 122.543 244.366 111.921C250.319 103.538 258.622 97.1083 268.228 93.4435C280.4 88.7994 295.457 90.7143 325.571 94.544L335.611 95.8207C365.725 99.6504 380.782 101.565 391.404 109.108C399.787 115.061 406.217 123.364 409.882 132.97C414.526 145.142 412.611 160.199 408.781 190.313C405.467 216.374 403.81 229.404 397.282 238.596C392.131 245.85 384.945 251.415 376.633 254.586C366.099 258.605 353.069 256.948 327.009 253.634L294.399 249.487C268.339 246.173 255.309 244.516 246.116 237.988C238.862 232.837 233.298 225.651 230.126 217.338C226.107 206.805 227.764 193.775 231.079 167.714Z" fill="#14AEEC"/>
<rect x="258.965" y="133.023" width="132.559" height="75.2361" rx="20" transform="rotate(7.2476 258.965 133.023)" fill="#010101"/>
<path d="M273.575 245.33C274.764 235.978 275.359 231.301 278.634 228.765C281.909 226.229 286.586 226.824 295.938 228.013L330.893 232.459C340.246 233.648 344.922 234.243 347.458 237.518C349.994 240.793 349.4 245.469 348.21 254.822L348.074 255.892C347.836 257.763 347.717 258.698 347.062 259.205C346.407 259.712 345.472 259.593 343.601 259.356L276.902 250.873C275.032 250.635 274.096 250.516 273.589 249.861C273.082 249.206 273.201 248.271 273.439 246.401L273.575 245.33Z" fill="#8CE2F9"/>
<path d="M409.617 155.342C409.751 154.292 409.818 153.766 410.063 153.385C410.311 153.001 410.683 152.713 411.117 152.569C411.547 152.427 412.072 152.494 413.122 152.627C416.273 153.028 417.848 153.228 418.991 153.965C420.145 154.708 421.009 155.823 421.44 157.126C421.866 158.417 421.666 159.993 421.265 163.143L414.373 217.342C413.972 220.493 413.772 222.068 413.036 223.211C412.293 224.365 411.177 225.229 409.874 225.66C408.583 226.086 407.008 225.886 403.857 225.485C402.807 225.352 402.282 225.285 401.901 225.04C401.516 224.792 401.228 224.42 401.084 223.986C400.942 223.555 401.009 223.03 401.143 221.98L409.617 155.342Z" fill="#8CE2F9"/>
<path d="M239.023 133.647C239.156 132.597 239.223 132.072 239.081 131.641C238.937 131.207 238.649 130.835 238.265 130.587C237.884 130.342 237.359 130.275 236.308 130.142C233.158 129.741 231.582 129.541 230.292 129.967C228.989 130.398 227.873 131.262 227.13 132.416C226.394 133.559 226.193 135.134 225.793 138.285L218.9 192.484C218.499 195.634 218.299 197.21 218.725 198.501C219.156 199.804 220.02 200.919 221.174 201.662C222.317 202.399 223.892 202.599 227.043 203C228.093 203.133 228.618 203.2 229.048 203.058C229.483 202.914 229.855 202.626 230.102 202.242C230.348 201.861 230.415 201.335 230.548 200.285L239.023 133.647Z" fill="#8CE2F9"/>
<path d="M296.574 92.8722C296.693 91.9369 296.753 91.4693 297.08 91.2157C297.408 90.9621 297.875 91.0216 298.811 91.1405L362.37 99.2235C363.305 99.3425 363.773 99.4019 364.026 99.7294C364.28 100.057 364.22 100.525 364.101 101.46L358.478 145.678L290.951 137.091L296.574 92.8722Z" fill="#3F7B8D"/>
<path d="M303.936 91.792L357.247 98.5717L353.936 124.606C353.579 127.412 353.4 128.815 352.418 129.576C351.435 130.336 350.033 130.158 347.227 129.801L305.82 124.535C303.014 124.179 301.611 124 300.85 123.018C300.09 122.035 300.268 120.632 300.625 117.826L303.936 91.792Z" fill="#8CE2F9"/>
<path d="M366.556 171.209L333.725 181.331C332.925 181.578 332.764 182.639 333.454 183.112L360.841 201.875" stroke="#EBBA48" stroke-width="11" stroke-linecap="round"/>
<path d="M275.386 189.443L308.217 179.32C309.017 179.073 309.178 178.012 308.488 177.539L281.101 158.777" stroke="#EBBA48" stroke-width="11" stroke-linecap="round"/>
<rect x="223.846" y="139.391" width="3.58268" height="50.1574" rx="1.79134" transform="rotate(7.2476 223.846 139.391)" fill="#14AEEC"/>
</g>
<defs>
<clipPath id="clip0_750_3281">
<path d="M0 0H402V214C402 230.569 388.569 244 372 244H30C13.4315 244 0 230.569 0 214V0Z" fill="white"/>
</clipPath>
</defs>
</svg>
