<svg width="402" height="244" viewBox="0 0 402 244" fill="none" xmlns="http://www.w3.org/2000/svg">
<g clip-path="url(#clip0_710_3311)">
<rect width="402" height="244" fill="#D0EEFF"/>
<path opacity="0.3" d="M366.678 638.144L285.399 638.35L315.41 268.886L333.739 268.84L366.678 638.144ZM503.287 615.511L424.842 632.526L334.468 269.419L352.157 265.582L503.287 615.511ZM314.897 268.177L227.398 631.737L148.822 615.116L297.178 264.432L314.897 268.177ZM627.938 565.379L557.661 598.05L353.05 265.989L368.897 258.621L627.938 565.379ZM296.902 263.638L94.9248 596.728L24.3906 564.414L280.997 256.35L296.902 263.638ZM732.156 491.154L674.825 537.26L369.889 258.831L382.814 248.437L732.156 491.154ZM280.993 255.531L-21.7295 535.496L-79.4277 489.685L267.983 245.199L280.993 255.531ZM808.849 397.89L768.361 454.289L383.842 248.433L392.97 235.716L808.849 397.89ZM268.245 244.406L-114.639 452.207L-155.576 396.014L259.013 231.735L268.245 244.406ZM852.802 291.926L831.913 354.786L393.96 235.501L398.671 221.324L852.802 291.926ZM259.522 231.022L-177.476 352.528L-198.863 289.772L254.701 216.87L259.522 231.022ZM861.159 245.519L399.558 220.912L399.531 206.244L861.027 180.471L861.159 245.519ZM255.336 201.621L255.42 216.286L-205.971 243.23L-206.359 178.187L255.336 201.621ZM854.104 133.912L400.257 205.664L395.488 191.5L832.964 71.1064L854.104 133.912ZM260.877 187.021L256.224 201.206L-198.19 131.755L-177.549 68.8438L260.877 187.021ZM811.234 27.5615L395.995 190.79L386.815 178.095L770.522 -28.7363L811.234 27.5615ZM270.941 174.061L261.861 186.802L-154.658 25.6816L-114.392 -30.8232L270.941 174.061ZM735.459 -66.3027L387.078 177.301L374.11 166.939L677.945 -112.261L735.459 -66.3027ZM284.854 163.627L271.97 174.056L-78.332 -67.7764L-21.1797 -114.028L284.854 163.627ZM631.941 -141.292L374.112 166.117L358.233 158.791L561.532 -173.786L631.941 -141.292ZM301.666 156.428L285.851 163.833L25.5918 -142.266L95.7383 -175.113L301.666 156.428ZM507.71 -192.313L357.965 157.997L340.266 154.202L429.197 -209.132L507.71 -192.313ZM320.231 152.947L302.559 156.83L150.043 -192.712L228.425 -209.929L320.231 152.947ZM339.745 153.493H321.422L289.947 -215.891H371.22L339.745 153.493Z" fill="#FCFEFF"/>
<rect x="40" y="66" width="102" height="32" rx="8" fill="#9367DA"/>
<circle cx="53" cy="82" r="3" fill="white"/>
<path d="M66.256 87.144C65.168 87.144 64.2133 86.9093 63.392 86.44C62.5813 85.9707 61.9573 85.2987 61.52 84.424C61.0827 83.5493 60.864 82.5253 60.864 81.352C60.864 80.1787 61.0827 79.16 61.52 78.296C61.9573 77.4213 62.5813 76.7493 63.392 76.28C64.2133 75.8107 65.168 75.576 66.256 75.576C66.96 75.576 67.6213 75.6827 68.24 75.896C68.8587 76.0987 69.408 76.3973 69.888 76.792C70.0267 76.8987 70.1227 77.0107 70.176 77.128C70.2293 77.2453 70.256 77.3893 70.256 77.56C70.256 77.7947 70.192 77.992 70.064 78.152C69.936 78.312 69.7813 78.392 69.6 78.392C69.3867 78.392 69.168 78.3173 68.944 78.168C68.4853 77.8267 68.0587 77.592 67.664 77.464C67.2693 77.3253 66.832 77.256 66.352 77.256C65.2427 77.256 64.4 77.6027 63.824 78.296C63.2587 78.9893 62.976 80.008 62.976 81.352C62.976 82.7067 63.2587 83.7307 63.824 84.424C64.4 85.1173 65.2427 85.464 66.352 85.464C66.8107 85.464 67.232 85.3947 67.616 85.256C68.0107 85.1173 68.4533 84.8827 68.944 84.552C69.0507 84.488 69.1573 84.4347 69.264 84.392C69.3707 84.3493 69.4827 84.328 69.6 84.328C69.7813 84.328 69.936 84.408 70.064 84.568C70.192 84.728 70.256 84.9253 70.256 85.16C70.256 85.32 70.2293 85.464 70.176 85.592C70.1227 85.7093 70.0267 85.8213 69.888 85.928C69.408 86.3227 68.8587 86.6267 68.24 86.84C67.6213 87.0427 66.96 87.144 66.256 87.144ZM76.7158 87.144C75.1691 87.144 73.9958 86.744 73.1957 85.944C72.3958 85.144 71.9958 83.976 71.9958 82.44V76.664C71.9958 76.3547 72.0864 76.1093 72.2678 75.928C72.4491 75.736 72.6944 75.64 73.0038 75.64C73.3131 75.64 73.5584 75.736 73.7398 75.928C73.9211 76.1093 74.0118 76.3547 74.0118 76.664V82.552C74.0118 83.5227 74.2411 84.2587 74.6998 84.76C75.1584 85.2507 75.8304 85.496 76.7158 85.496C77.5904 85.496 78.2571 85.2453 78.7158 84.744C79.1744 84.2427 79.4038 83.512 79.4038 82.552V76.664C79.4038 76.3547 79.4944 76.1093 79.6758 75.928C79.8571 75.736 80.1024 75.64 80.4118 75.64C80.7211 75.64 80.9664 75.736 81.1478 75.928C81.3291 76.1093 81.4198 76.3547 81.4198 76.664V82.44C81.4198 83.9653 81.0198 85.1333 80.2198 85.944C79.4198 86.744 78.2518 87.144 76.7158 87.144ZM92.6101 75.64C92.9195 75.64 93.1648 75.736 93.3461 75.928C93.5275 76.1093 93.6181 76.3547 93.6181 76.664V86.056C93.6181 86.3653 93.5221 86.616 93.3301 86.808C93.1488 87 92.9088 87.096 92.6101 87.096C92.3008 87.096 92.0555 87 91.8741 86.808C91.6928 86.616 91.6021 86.3653 91.6021 86.056V82.104H85.8261V86.056C85.8261 86.3653 85.7301 86.616 85.5381 86.808C85.3568 87 85.1115 87.096 84.8021 87.096C84.5035 87.096 84.2581 87 84.0661 86.808C83.8848 86.616 83.7941 86.3653 83.7941 86.056V76.664C83.7941 76.3547 83.8848 76.1093 84.0661 75.928C84.2475 75.736 84.4928 75.64 84.8021 75.64C85.1115 75.64 85.3568 75.736 85.5381 75.928C85.7301 76.1093 85.8261 76.3547 85.8261 76.664V80.44H91.6021V76.664C91.6021 76.3547 91.6928 76.1093 91.8741 75.928C92.0555 75.736 92.3008 75.64 92.6101 75.64ZM104.796 85.448C105.009 85.6507 105.116 85.88 105.116 86.136C105.116 86.3813 105.02 86.6 104.828 86.792C104.647 86.9733 104.428 87.064 104.172 87.064C103.905 87.064 103.66 86.952 103.436 86.728L98.1081 81.736V86.056C98.1081 86.3653 98.0121 86.616 97.8201 86.808C97.6388 87 97.3881 87.096 97.0681 87.096C96.7588 87.096 96.5081 87 96.3161 86.808C96.1348 86.616 96.0441 86.3653 96.0441 86.056V76.664C96.0441 76.3547 96.1348 76.1093 96.3161 75.928C96.5081 75.736 96.7588 75.64 97.0681 75.64C97.3881 75.64 97.6388 75.736 97.8201 75.928C98.0121 76.1093 98.1081 76.3547 98.1081 76.664V80.776L103.26 75.944C103.452 75.752 103.671 75.656 103.916 75.656C104.161 75.656 104.375 75.752 104.556 75.944C104.748 76.1253 104.844 76.3387 104.844 76.584C104.844 76.8293 104.737 77.0533 104.524 77.256L100.22 81.192L104.796 85.448ZM106.683 83.512C106.374 83.512 106.139 83.4427 105.979 83.304C105.83 83.1653 105.755 82.9733 105.755 82.728C105.755 82.4827 105.83 82.2907 105.979 82.152C106.139 82.0027 106.374 81.928 106.683 81.928H109.979C110.289 81.928 110.518 82.0027 110.667 82.152C110.827 82.2907 110.907 82.4827 110.907 82.728C110.907 82.9733 110.827 83.1653 110.667 83.304C110.518 83.4427 110.289 83.512 109.979 83.512H106.683ZM116.604 87.144C115.783 87.144 115.004 87.0373 114.268 86.824C113.543 86.6 112.951 86.3013 112.492 85.928C112.247 85.7467 112.124 85.4907 112.124 85.16C112.124 84.936 112.188 84.744 112.316 84.584C112.455 84.4133 112.615 84.328 112.796 84.328C112.988 84.328 113.207 84.4027 113.452 84.552C113.911 84.8827 114.391 85.1227 114.892 85.272C115.394 85.4213 115.948 85.496 116.556 85.496C117.335 85.496 117.932 85.3627 118.348 85.096C118.764 84.8187 118.972 84.4187 118.972 83.896C118.972 83.4907 118.775 83.1813 118.38 82.968C117.996 82.744 117.351 82.5307 116.444 82.328C115.506 82.1253 114.743 81.8907 114.156 81.624C113.57 81.3573 113.127 81.016 112.828 80.6C112.53 80.184 112.38 79.656 112.38 79.016C112.38 78.3547 112.567 77.7627 112.94 77.24C113.314 76.7173 113.831 76.312 114.492 76.024C115.164 75.7253 115.916 75.576 116.748 75.576C118.274 75.576 119.516 75.9813 120.476 76.792C120.615 76.9093 120.711 77.0267 120.764 77.144C120.828 77.2507 120.86 77.3893 120.86 77.56C120.86 77.784 120.791 77.9813 120.652 78.152C120.524 78.312 120.37 78.392 120.188 78.392C120.082 78.392 119.98 78.376 119.884 78.344C119.799 78.312 119.682 78.2533 119.532 78.168C119.095 77.848 118.668 77.6133 118.252 77.464C117.847 77.304 117.346 77.224 116.748 77.224C116.023 77.224 115.447 77.3733 115.02 77.672C114.604 77.96 114.396 78.3653 114.396 78.888C114.396 79.3253 114.583 79.6613 114.956 79.896C115.33 80.1307 115.964 80.3493 116.86 80.552C117.81 80.7653 118.578 81.0053 119.164 81.272C119.762 81.528 120.215 81.8587 120.524 82.264C120.844 82.6693 121.004 83.176 121.004 83.784C121.004 84.4453 120.818 85.032 120.444 85.544C120.082 86.0453 119.564 86.44 118.892 86.728C118.231 87.0053 117.468 87.144 116.604 87.144ZM129.867 85.352C130.507 85.352 130.827 85.624 130.827 86.168C130.827 86.7227 130.507 87 129.867 87H123.051C122.773 87 122.549 86.92 122.379 86.76C122.219 86.5893 122.139 86.376 122.139 86.12C122.139 85.864 122.224 85.6187 122.395 85.384L128.123 77.368H123.115C122.475 77.368 122.155 77.096 122.155 76.552C122.155 75.9973 122.475 75.72 123.115 75.72H129.723C130 75.72 130.219 75.8053 130.378 75.976C130.549 76.136 130.635 76.3387 130.635 76.584C130.635 76.8293 130.544 77.0747 130.363 77.32L124.635 85.352H129.867Z" fill="white"/>
<path d="M52.22 139.34C50.6253 139.34 49.2993 139.245 48.242 139.054C47.1847 138.881 46.2313 138.577 45.382 138.144C45.2607 138.56 45.174 138.829 45.122 138.95C45.0353 139.279 44.9747 139.496 44.94 139.6H41.352C42.1667 137.329 42.7647 135.223 43.146 133.282C43.5273 131.341 43.7613 129.243 43.848 126.99H40.78V123.61H47.228C47.228 125.846 47.15 127.848 46.994 129.616C46.838 131.384 46.5693 133.143 46.188 134.894C46.968 135.327 47.826 135.639 48.762 135.83C49.7153 136.003 50.868 136.09 52.22 136.09H64.96V139.34H52.22ZM45.356 116.2L47.15 121.842H43.64L41.846 116.2H45.356ZM48.398 129.772H55.262V127.718H49.1V124.598H50.192L51.752 120.698H48.892V117.526H53.026L53.598 116.07H57.134L56.562 117.526H64.128V120.698H55.288L53.728 124.598H55.262V121.712H58.59V124.598H63.582V127.718H58.59V129.772H64.622V132.944H58.59V135.466H55.262V132.944H48.398V129.772ZM84.824 137.312C82.7613 138.629 79.9187 139.401 76.296 139.626V136.61C78.1853 136.506 79.7713 136.237 81.054 135.804L76.868 134.114L78.194 131.02H76.036V128.056H79.468L80.456 125.794H76.27V122.778H78.87L78.116 120.178H76.53V117.214H81.886V115.784H85.214V117.214H90.57V120.178H89.192L88.23 122.778H90.83V125.794H83.94L82.952 128.056H91.064V131.02H89.556C88.9147 132.649 88.1867 133.975 87.372 134.998L90.752 136.324V139.678L84.824 137.312ZM67.196 128.42L70.03 127.692V122.96H67.456V119.684H70.03V116.07H73.384V119.684H75.334V122.96H73.384V126.834L75.334 126.34V129.954L73.384 130.448V139.6H67.898V136.324H70.03V131.306L67.196 132.034V128.42ZM84.356 133.828C85.1533 133.065 85.786 132.129 86.254 131.02H81.626L80.976 132.502L84.356 133.828ZM82.12 122.778H85.032L85.994 120.178H81.366L82.12 122.778ZM102.244 131.306C101.395 131.895 100.407 132.389 99.28 132.788V129.304C100.077 128.992 100.762 128.55 101.334 127.978C101.923 127.389 102.374 126.695 102.686 125.898H99.436V122.778H103.05V120.724H100.164V117.656H103.05V116.252H106.404V117.656H109.732V116.252H113.086V117.656H115.946V120.724H113.086V122.778H116.7V125.898H113.45C113.745 126.695 114.187 127.389 114.776 127.978C115.365 128.567 116.059 129.009 116.856 129.304V132.788C115.747 132.389 114.759 131.895 113.892 131.306V134.998H105.598V136.48H116.492V139.6H102.244V131.306ZM92.936 139.6C94.1493 136.064 94.9987 132.372 95.484 128.524H98.812C98.3613 132.788 97.6073 136.48 96.55 139.6H92.936ZM93.274 122.388L98.864 123.922V127.406L93.274 125.924V122.388ZM93.768 116.2L98.812 117.656V121.192L93.768 119.736V116.2ZM110.824 127.666C110.564 127.129 110.356 126.539 110.2 125.898H105.936C105.78 126.539 105.572 127.129 105.312 127.666H110.824ZM110.668 132.242V130.63H105.598V132.242H110.668ZM109.732 122.778V120.724H106.404V122.778H109.732ZM132.69 115.94V118.956H142.102V133.646H132.69V139.6H129.31V133.646H119.898V118.956H129.31V115.94H132.69ZM129.31 130.292V122.31H123.278V130.292H129.31ZM138.722 130.292V122.31H132.69V130.292H138.722ZM152.294 116.564H168.258V121.764H164.878V119.762H155.674V121.764H152.294V116.564ZM145.066 139.6C146.539 135.977 147.527 132.285 148.03 128.524H151.436C150.899 132.84 150.015 136.532 148.784 139.6H145.066ZM145.3 122.388L151.514 123.922V127.328L145.3 125.846V122.388ZM145.82 116.2L151.462 117.656V121.114L145.82 119.658V116.2ZM151.514 139.34C152.069 138.213 152.545 136.844 152.944 135.232C153.343 133.603 153.611 132.06 153.75 130.604H152.034V127.406H158.586V125.3H161.914V127.406H168.83V130.604H166.75C166.889 132.06 167.157 133.603 167.556 135.232C167.955 136.844 168.431 138.213 168.986 139.34H165.476C165.008 138.3 164.618 136.974 164.306 135.362C163.994 133.733 163.777 132.147 163.656 130.604H161.862V139.6H158.638V130.604H156.844C156.723 132.147 156.506 133.733 156.194 135.362C155.882 136.974 155.492 138.3 155.024 139.34H151.514ZM152.112 123.272C154.435 122.891 156.731 122.033 159.002 120.698V124.026C157.13 125.135 154.833 125.915 152.112 126.366V123.272ZM161.498 120.698C163.769 122.033 166.065 122.891 168.388 123.272V126.366C165.667 125.915 163.37 125.135 161.498 124.026V120.698Z" fill="#0C3B56"/>
<path d="M40.84 167.916C44.984 167.617 49.086 167.123 53.146 166.432V168.07C49.5527 168.77 45.4507 169.26 40.84 169.54V167.916ZM40.56 163.954C41.4653 163.581 42.156 163.025 42.632 162.288H40.7V160.608H46.076V159.936H41.358V158.312H42.996L44.774 156.52H47.196L45.418 158.312H49.534L48.876 157.346H51.116L52.88 159.936H47.924V160.608H53.3V162.288H51.452C51.9093 162.96 52.572 163.473 53.44 163.828V165.774C52.9733 165.615 52.5253 165.41 52.096 165.158V165.788C48.876 166.357 45.334 166.782 41.47 167.062V165.522C44.6247 165.289 47.8167 164.92 51.046 164.416C50.6167 164.033 50.2527 163.613 49.954 163.156V163.912C47.966 164.257 45.712 164.528 43.192 164.724V164.206C42.492 164.878 41.6147 165.401 40.56 165.774V163.954ZM44.046 163.156C46.2113 162.941 48.0547 162.708 49.576 162.456L49.492 162.288H44.508C44.3867 162.559 44.2327 162.848 44.046 163.156ZM61.784 167.608H64.822L65.06 162.932H55.834L56.394 156.688H58.228L58.144 157.668H66.88V159.432H57.976L57.822 161.168H66.95L66.53 169.4H61.784V167.608ZM54.42 164.542H63.8V166.32H54.42V164.542ZM75.938 163.702V162.092H72.298V160.328H75.938V158.788C74.9767 158.825 73.9127 158.844 72.746 158.844V157.08C75.7047 157.08 78.4347 156.959 80.936 156.716V158.48C80.236 158.545 79.1767 158.625 77.758 158.718V160.328H81.384V162.092H77.758V163.702H80.88V169.26H72.802V163.702H75.938ZM68.518 169.4C69.358 167.431 69.9273 165.443 70.226 163.436H72.032C71.696 165.751 71.1827 167.739 70.492 169.4H68.518ZM68.7 160.09L72.004 160.916V162.792L68.7 161.994V160.09ZM68.98 156.8L72.018 157.584V159.488L68.98 158.704V156.8ZM79.074 167.51V165.452H74.608V167.51H79.074ZM87.614 169.372C87.866 168.971 88.0247 168.709 88.09 168.588H82.728V166.796H83.036L84.002 162.568H82.728V160.804H88.258V162.568H85.794L84.828 166.796H86.41L86.214 164.458H87.88L88.202 168.392C88.8087 167.309 89.252 166.194 89.532 165.046C89.812 163.898 89.952 162.699 89.952 161.448V160.734H88.622V158.942H89.952V156.688H91.744V158.942H95.048V169.372H92.01V167.58H93.256V160.734H91.744V161.448C91.744 163.007 91.5993 164.397 91.31 165.62C91.0207 166.843 90.5447 168.093 89.882 169.372H87.614ZM82.994 157.528H87.992V159.292H82.994V157.528ZM97.61 167.748H99.346C99.3087 167.011 99.2713 166.465 99.234 166.11L96.812 167.342V165.452L98.982 164.36C98.9167 164.052 98.8233 163.674 98.702 163.226L96.812 164.178V162.26L98.114 161.602C97.9087 161.098 97.6287 160.51 97.274 159.838H99.318C99.458 160.118 99.598 160.421 99.738 160.748L101.418 159.894V161.812L100.354 162.358C100.643 163.273 100.844 164.267 100.956 165.34C101.077 166.413 101.138 167.767 101.138 169.4H97.61V167.748ZM96.84 157.304H99.71V156.59H101.53V157.304H104.47V156.59H106.29V157.304H109.16V159.054H106.29V159.656H104.47V159.054H101.53V159.656H99.71V159.054H96.84V157.304ZM101.6 167.342C102.449 166.997 103.093 166.53 103.532 165.942C103.971 165.345 104.255 164.579 104.386 163.646H101.782V161.882H104.47V159.908H106.234V161.882H109.16V163.646H106.164C106.127 164.001 106.071 164.341 105.996 164.668H107.55L109.51 169.4H107.606L105.87 165.2C105.562 166.273 105.053 167.155 104.344 167.846C103.644 168.527 102.729 169.059 101.6 169.442V167.342ZM108.152 159.964L108.404 161.574H107.004L106.752 159.964H108.152ZM122.74 162.12H115.796V156.926H122.74V162.12ZM110.56 163.842C111.969 163.03 112.954 161.891 113.514 160.426H115.418C115.11 161.518 114.615 162.507 113.934 163.394V169.47H112.114V165.116C111.638 165.452 111.12 165.76 110.56 166.04V163.842ZM110.56 160.062C111.867 159.222 112.767 158.102 113.262 156.702H115.068C114.405 159.185 112.903 161.033 110.56 162.246V160.062ZM115.208 164.696H120.472V164.08H115.488V162.624H123.048V164.08H122.264V164.696H123.44V166.152H122.264V169.4H119.184V167.86H120.472V166.152H115.208V164.696ZM117.63 166.53L118.61 169.092H116.846L115.866 166.53H117.63ZM120.92 160.762V160.118H117.616V160.762H120.92ZM120.92 158.928V158.298H117.616V158.928H120.92ZM130.384 161.392C131.373 161.261 132.167 161.079 132.764 160.846L132.008 159.544C131.523 159.843 130.981 160.071 130.384 160.23V158.438C131.252 158.093 131.896 157.547 132.316 156.8H137.216C137.095 158.284 136.759 159.465 136.208 160.342C135.667 161.21 134.925 161.854 133.982 162.274C133.039 162.694 131.84 162.969 130.384 163.1V161.392ZM124.7 167.678C126.809 167.491 128.485 166.861 129.726 165.788H125.05V164.024H130.076V163.212H131.924V164.024H136.95V165.788H132.274C133.515 166.861 135.191 167.491 137.3 167.678V169.456C134.509 169.232 132.409 168.415 131 167.006C129.591 168.415 127.491 169.232 124.7 169.456V167.678ZM124.91 161L127.948 159.894V156.8H129.754V162.89H127.948V161.686L124.91 162.792V161ZM126.926 157.01L127.542 159.656H125.848L125.232 157.01H126.926ZM134.122 160.034C134.561 159.642 134.897 159.133 135.13 158.508H133.226L134.122 160.034ZM138.42 169.4C138.653 168.448 138.817 167.519 138.91 166.614C139.003 165.699 139.05 164.654 139.05 163.478V156.996H145.448V158.718H140.702V159.838H145.448V161.518H142.942V162.778H145.224V169.232C145.803 168.093 146.204 166.983 146.428 165.9C146.661 164.808 146.778 163.557 146.778 162.148V160.454H145.728V158.634H146.778V156.66H148.57V158.634H151.104V169.4H148.318V167.58H149.396V160.454H148.472V162.148C148.472 163.511 148.365 164.775 148.15 165.942C147.935 167.109 147.581 168.261 147.086 169.4H142.886V167.706H143.712V164.458H142.9V164.472C142.9 165.405 142.844 166.269 142.732 167.062C142.62 167.855 142.433 168.635 142.172 169.4H140.492C140.819 168.616 141.043 167.851 141.164 167.104C141.285 166.348 141.346 165.471 141.346 164.472V161.518H140.702V163.478C140.702 164.589 140.66 165.62 140.576 166.572C140.492 167.524 140.357 168.467 140.17 169.4H138.42Z" fill="#0C3B56"/>
<path d="M231.079 167.714C234.908 137.6 236.823 122.543 244.366 111.921C250.319 103.538 258.622 97.1083 268.228 93.4435C280.4 88.7994 295.457 90.7143 325.571 94.544L335.611 95.8207C365.725 99.6504 380.782 101.565 391.404 109.108C399.787 115.061 406.217 123.364 409.882 132.97C414.526 145.142 412.611 160.199 408.781 190.313C405.467 216.374 403.81 229.404 397.282 238.596C392.131 245.85 384.945 251.415 376.633 254.586C366.099 258.605 353.069 256.948 327.009 253.634L294.399 249.487C268.339 246.173 255.309 244.516 246.116 237.988C238.862 232.837 233.298 225.651 230.126 217.338C226.107 206.805 227.764 193.775 231.079 167.714Z" fill="#14AEEC"/>
<rect x="258.965" y="133.023" width="132.559" height="75.2361" rx="20" transform="rotate(7.2476 258.965 133.023)" fill="#010101"/>
<path d="M273.575 245.33C274.764 235.978 275.359 231.301 278.634 228.765C281.909 226.229 286.586 226.824 295.938 228.013L330.893 232.459C340.246 233.648 344.922 234.243 347.458 237.518C349.994 240.793 349.4 245.469 348.21 254.822L348.074 255.892C347.836 257.763 347.717 258.698 347.062 259.205C346.407 259.712 345.472 259.593 343.601 259.356L276.902 250.873C275.032 250.635 274.096 250.516 273.589 249.861C273.082 249.206 273.201 248.271 273.439 246.401L273.575 245.33Z" fill="#8CE2F9"/>
<path d="M409.617 155.342C409.751 154.292 409.818 153.766 410.063 153.385C410.311 153.001 410.683 152.713 411.117 152.569C411.547 152.427 412.072 152.494 413.122 152.627C416.273 153.028 417.848 153.228 418.991 153.965C420.145 154.708 421.009 155.823 421.44 157.126C421.866 158.417 421.666 159.993 421.265 163.143L414.373 217.342C413.972 220.493 413.772 222.068 413.036 223.211C412.293 224.365 411.177 225.229 409.874 225.66C408.583 226.086 407.008 225.886 403.857 225.485C402.807 225.352 402.282 225.285 401.901 225.04C401.516 224.792 401.228 224.42 401.084 223.986C400.942 223.555 401.009 223.03 401.143 221.98L409.617 155.342Z" fill="#8CE2F9"/>
<path d="M239.023 133.647C239.156 132.597 239.223 132.072 239.081 131.641C238.937 131.207 238.649 130.835 238.265 130.587C237.884 130.342 237.359 130.275 236.308 130.142C233.158 129.741 231.582 129.541 230.292 129.967C228.989 130.398 227.873 131.262 227.13 132.416C226.394 133.559 226.193 135.134 225.793 138.285L218.9 192.484C218.499 195.634 218.299 197.21 218.725 198.501C219.156 199.804 220.02 200.919 221.174 201.662C222.317 202.399 223.892 202.599 227.043 203C228.093 203.133 228.618 203.2 229.048 203.058C229.483 202.914 229.855 202.626 230.102 202.242C230.348 201.861 230.415 201.335 230.548 200.285L239.023 133.647Z" fill="#8CE2F9"/>
<path d="M296.574 92.8722C296.693 91.9369 296.753 91.4693 297.08 91.2157C297.408 90.9621 297.875 91.0216 298.811 91.1405L362.37 99.2235C363.305 99.3425 363.773 99.4019 364.026 99.7294C364.28 100.057 364.22 100.525 364.101 101.46L358.478 145.678L290.951 137.091L296.574 92.8722Z" fill="#3F7B8D"/>
<path d="M303.936 91.792L357.247 98.5717L353.936 124.606C353.579 127.412 353.4 128.815 352.418 129.576C351.435 130.336 350.033 130.158 347.227 129.801L305.82 124.535C303.014 124.179 301.611 124 300.85 123.018C300.09 122.035 300.268 120.632 300.625 117.826L303.936 91.792Z" fill="#8CE2F9"/>
<path d="M366.556 171.209L333.725 181.331C332.925 181.578 332.764 182.639 333.454 183.112L360.841 201.875" stroke="#EBBA48" stroke-width="11" stroke-linecap="round"/>
<path d="M275.386 189.443L308.217 179.32C309.017 179.073 309.178 178.012 308.488 177.539L281.101 158.777" stroke="#EBBA48" stroke-width="11" stroke-linecap="round"/>
<rect x="223.846" y="139.391" width="3.58268" height="50.1574" rx="1.79134" transform="rotate(7.2476 223.846 139.391)" fill="#14AEEC"/>
</g>
<defs>
<clipPath id="clip0_710_3311">
<path d="M0 0H402V214C402 230.569 388.569 244 372 244H30C13.4315 244 0 230.569 0 214V0Z" fill="white"/>
</clipPath>
</defs>
</svg>

