<svg width="402" height="244" viewBox="0 0 402 244" fill="none" xmlns="http://www.w3.org/2000/svg">
<g clip-path="url(#clip0_861_2894)">
<rect width="402" height="244" fill="#D0EEFF"/>
<path opacity="0.3" d="M366.678 638.144L285.399 638.35L315.41 268.886L333.739 268.84L366.678 638.144ZM503.287 615.511L424.842 632.526L334.468 269.419L352.157 265.582L503.287 615.511ZM314.897 268.177L227.398 631.737L148.822 615.116L297.178 264.432L314.897 268.177ZM627.938 565.379L557.661 598.05L353.05 265.989L368.897 258.621L627.938 565.379ZM296.902 263.638L94.9248 596.728L24.3906 564.414L280.997 256.35L296.902 263.638ZM732.156 491.154L674.825 537.26L369.889 258.831L382.814 248.437L732.156 491.154ZM280.993 255.531L-21.7295 535.496L-79.4277 489.685L267.983 245.199L280.993 255.531ZM808.849 397.89L768.361 454.289L383.842 248.433L392.97 235.716L808.849 397.89ZM268.245 244.406L-114.639 452.207L-155.576 396.014L259.013 231.735L268.245 244.406ZM852.802 291.926L831.913 354.786L393.96 235.501L398.671 221.324L852.802 291.926ZM259.522 231.022L-177.476 352.528L-198.863 289.772L254.701 216.87L259.522 231.022ZM861.159 245.519L399.558 220.912L399.531 206.244L861.027 180.471L861.159 245.519ZM255.336 201.621L255.42 216.286L-205.971 243.23L-206.359 178.187L255.336 201.621ZM854.104 133.912L400.257 205.664L395.488 191.5L832.964 71.1064L854.104 133.912ZM260.877 187.021L256.224 201.206L-198.19 131.755L-177.549 68.8438L260.877 187.021ZM811.234 27.5615L395.995 190.79L386.815 178.095L770.522 -28.7363L811.234 27.5615ZM270.941 174.061L261.861 186.802L-154.658 25.6816L-114.392 -30.8232L270.941 174.061ZM735.459 -66.3027L387.078 177.301L374.11 166.939L677.945 -112.261L735.459 -66.3027ZM284.854 163.627L271.97 174.056L-78.332 -67.7764L-21.1797 -114.028L284.854 163.627ZM631.941 -141.292L374.112 166.117L358.233 158.791L561.532 -173.786L631.941 -141.292ZM301.666 156.428L285.851 163.833L25.5918 -142.266L95.7383 -175.113L301.666 156.428ZM507.71 -192.313L357.965 157.997L340.266 154.202L429.197 -209.132L507.71 -192.313ZM320.231 152.947L302.559 156.83L150.043 -192.712L228.425 -209.929L320.231 152.947ZM339.745 153.493H321.422L289.947 -215.891H371.22L339.745 153.493Z" fill="#FCFEFF"/>
<rect x="40" y="59" width="102" height="32" rx="8" fill="#9367DA"/>
<circle cx="53" cy="75" r="3" fill="white"/>
<path d="M66.256 80.144C65.168 80.144 64.2133 79.9093 63.392 79.44C62.5813 78.9707 61.9573 78.2987 61.52 77.424C61.0827 76.5493 60.864 75.5253 60.864 74.352C60.864 73.1787 61.0827 72.16 61.52 71.296C61.9573 70.4213 62.5813 69.7493 63.392 69.28C64.2133 68.8107 65.168 68.576 66.256 68.576C66.96 68.576 67.6213 68.6827 68.24 68.896C68.8587 69.0987 69.408 69.3973 69.888 69.792C70.0267 69.8987 70.1227 70.0107 70.176 70.128C70.2293 70.2453 70.256 70.3893 70.256 70.56C70.256 70.7947 70.192 70.992 70.064 71.152C69.936 71.312 69.7813 71.392 69.6 71.392C69.3867 71.392 69.168 71.3173 68.944 71.168C68.4853 70.8267 68.0587 70.592 67.664 70.464C67.2693 70.3253 66.832 70.256 66.352 70.256C65.2427 70.256 64.4 70.6027 63.824 71.296C63.2587 71.9893 62.976 73.008 62.976 74.352C62.976 75.7067 63.2587 76.7307 63.824 77.424C64.4 78.1173 65.2427 78.464 66.352 78.464C66.8107 78.464 67.232 78.3947 67.616 78.256C68.0107 78.1173 68.4533 77.8827 68.944 77.552C69.0507 77.488 69.1573 77.4347 69.264 77.392C69.3707 77.3493 69.4827 77.328 69.6 77.328C69.7813 77.328 69.936 77.408 70.064 77.568C70.192 77.728 70.256 77.9253 70.256 78.16C70.256 78.32 70.2293 78.464 70.176 78.592C70.1227 78.7093 70.0267 78.8213 69.888 78.928C69.408 79.3227 68.8587 79.6267 68.24 79.84C67.6213 80.0427 66.96 80.144 66.256 80.144ZM76.7158 80.144C75.1691 80.144 73.9958 79.744 73.1957 78.944C72.3958 78.144 71.9958 76.976 71.9958 75.44V69.664C71.9958 69.3547 72.0864 69.1093 72.2678 68.928C72.4491 68.736 72.6944 68.64 73.0038 68.64C73.3131 68.64 73.5584 68.736 73.7398 68.928C73.9211 69.1093 74.0118 69.3547 74.0118 69.664V75.552C74.0118 76.5227 74.2411 77.2587 74.6998 77.76C75.1584 78.2507 75.8304 78.496 76.7158 78.496C77.5904 78.496 78.2571 78.2453 78.7158 77.744C79.1744 77.2427 79.4038 76.512 79.4038 75.552V69.664C79.4038 69.3547 79.4944 69.1093 79.6758 68.928C79.8571 68.736 80.1024 68.64 80.4118 68.64C80.7211 68.64 80.9664 68.736 81.1478 68.928C81.3291 69.1093 81.4198 69.3547 81.4198 69.664V75.44C81.4198 76.9653 81.0198 78.1333 80.2198 78.944C79.4198 79.744 78.2518 80.144 76.7158 80.144ZM92.6101 68.64C92.9195 68.64 93.1648 68.736 93.3461 68.928C93.5275 69.1093 93.6181 69.3547 93.6181 69.664V79.056C93.6181 79.3653 93.5221 79.616 93.3301 79.808C93.1488 80 92.9088 80.096 92.6101 80.096C92.3008 80.096 92.0555 80 91.8741 79.808C91.6928 79.616 91.6021 79.3653 91.6021 79.056V75.104H85.8261V79.056C85.8261 79.3653 85.7301 79.616 85.5381 79.808C85.3568 80 85.1115 80.096 84.8021 80.096C84.5035 80.096 84.2581 80 84.0661 79.808C83.8848 79.616 83.7941 79.3653 83.7941 79.056V69.664C83.7941 69.3547 83.8848 69.1093 84.0661 68.928C84.2475 68.736 84.4928 68.64 84.8021 68.64C85.1115 68.64 85.3568 68.736 85.5381 68.928C85.7301 69.1093 85.8261 69.3547 85.8261 69.664V73.44H91.6021V69.664C91.6021 69.3547 91.6928 69.1093 91.8741 68.928C92.0555 68.736 92.3008 68.64 92.6101 68.64ZM104.796 78.448C105.009 78.6507 105.116 78.88 105.116 79.136C105.116 79.3813 105.02 79.6 104.828 79.792C104.647 79.9733 104.428 80.064 104.172 80.064C103.905 80.064 103.66 79.952 103.436 79.728L98.1081 74.736V79.056C98.1081 79.3653 98.0121 79.616 97.8201 79.808C97.6388 80 97.3881 80.096 97.0681 80.096C96.7588 80.096 96.5081 80 96.3161 79.808C96.1348 79.616 96.0441 79.3653 96.0441 79.056V69.664C96.0441 69.3547 96.1348 69.1093 96.3161 68.928C96.5081 68.736 96.7588 68.64 97.0681 68.64C97.3881 68.64 97.6388 68.736 97.8201 68.928C98.0121 69.1093 98.1081 69.3547 98.1081 69.664V73.776L103.26 68.944C103.452 68.752 103.671 68.656 103.916 68.656C104.161 68.656 104.375 68.752 104.556 68.944C104.748 69.1253 104.844 69.3387 104.844 69.584C104.844 69.8293 104.737 70.0533 104.524 70.256L100.22 74.192L104.796 78.448ZM106.683 76.512C106.374 76.512 106.139 76.4427 105.979 76.304C105.83 76.1653 105.755 75.9733 105.755 75.728C105.755 75.4827 105.83 75.2907 105.979 75.152C106.139 75.0027 106.374 74.928 106.683 74.928H109.979C110.289 74.928 110.518 75.0027 110.667 75.152C110.827 75.2907 110.907 75.4827 110.907 75.728C110.907 75.9733 110.827 76.1653 110.667 76.304C110.518 76.4427 110.289 76.512 109.979 76.512H106.683ZM116.604 80.144C115.783 80.144 115.004 80.0373 114.268 79.824C113.543 79.6 112.951 79.3013 112.492 78.928C112.247 78.7467 112.124 78.4907 112.124 78.16C112.124 77.936 112.188 77.744 112.316 77.584C112.455 77.4133 112.615 77.328 112.796 77.328C112.988 77.328 113.207 77.4027 113.452 77.552C113.911 77.8827 114.391 78.1227 114.892 78.272C115.394 78.4213 115.948 78.496 116.556 78.496C117.335 78.496 117.932 78.3627 118.348 78.096C118.764 77.8187 118.972 77.4187 118.972 76.896C118.972 76.4907 118.775 76.1813 118.38 75.968C117.996 75.744 117.351 75.5307 116.444 75.328C115.506 75.1253 114.743 74.8907 114.156 74.624C113.57 74.3573 113.127 74.016 112.828 73.6C112.53 73.184 112.38 72.656 112.38 72.016C112.38 71.3547 112.567 70.7627 112.94 70.24C113.314 69.7173 113.831 69.312 114.492 69.024C115.164 68.7253 115.916 68.576 116.748 68.576C118.274 68.576 119.516 68.9813 120.476 69.792C120.615 69.9093 120.711 70.0267 120.764 70.144C120.828 70.2507 120.86 70.3893 120.86 70.56C120.86 70.784 120.791 70.9813 120.652 71.152C120.524 71.312 120.37 71.392 120.188 71.392C120.082 71.392 119.98 71.376 119.884 71.344C119.799 71.312 119.682 71.2533 119.532 71.168C119.095 70.848 118.668 70.6133 118.252 70.464C117.847 70.304 117.346 70.224 116.748 70.224C116.023 70.224 115.447 70.3733 115.02 70.672C114.604 70.96 114.396 71.3653 114.396 71.888C114.396 72.3253 114.583 72.6613 114.956 72.896C115.33 73.1307 115.964 73.3493 116.86 73.552C117.81 73.7653 118.578 74.0053 119.164 74.272C119.762 74.528 120.215 74.8587 120.524 75.264C120.844 75.6693 121.004 76.176 121.004 76.784C121.004 77.4453 120.818 78.032 120.444 78.544C120.082 79.0453 119.564 79.44 118.892 79.728C118.231 80.0053 117.468 80.144 116.604 80.144ZM129.867 78.352C130.507 78.352 130.827 78.624 130.827 79.168C130.827 79.7227 130.507 80 129.867 80H123.051C122.773 80 122.549 79.92 122.379 79.76C122.219 79.5893 122.139 79.376 122.139 79.12C122.139 78.864 122.224 78.6187 122.395 78.384L128.123 70.368H123.115C122.475 70.368 122.155 70.096 122.155 69.552C122.155 68.9973 122.475 68.72 123.115 68.72H129.723C130 68.72 130.219 68.8053 130.378 68.976C130.549 69.136 130.635 69.3387 130.635 69.584C130.635 69.8293 130.544 70.0747 130.363 70.32L124.635 78.352H129.867Z" fill="white"/>
<path d="M51.232 127.338C49.256 127.338 47.4967 126.974 45.954 126.246C44.4287 125.518 43.224 124.461 42.34 123.074C41.4733 121.687 41.04 120.041 41.04 118.134C41.04 116.123 41.4647 114.399 42.314 112.96C43.1633 111.504 44.3507 110.395 45.876 109.632C47.4013 108.852 49.1433 108.462 51.102 108.462C52.0727 108.462 53.052 108.557 54.04 108.748C55.028 108.939 55.8427 109.181 56.484 109.476V112.7C54.7333 112.059 53.104 111.738 51.596 111.738C49.7933 111.738 48.3287 112.267 47.202 113.324C46.0927 114.381 45.538 115.985 45.538 118.134C45.538 119.278 45.8153 120.292 46.37 121.176C46.9247 122.043 47.6527 122.719 48.554 123.204C49.4553 123.689 50.426 123.967 51.466 124.036L52.038 124.062C52.8353 124.062 53.624 123.949 54.404 123.724C55.184 123.499 55.8773 123.195 56.484 122.814V126.402C55.7387 126.749 54.9413 126.991 54.092 127.13C53.26 127.269 52.3067 127.338 51.232 127.338ZM65.9374 127.338C64.4641 127.338 63.1641 127.035 62.0374 126.428C60.9281 125.821 60.0701 124.963 59.4634 123.854C58.8568 122.727 58.5534 121.401 58.5534 119.876C58.5534 117.536 59.2121 115.742 60.5294 114.494C61.8468 113.246 63.6494 112.622 65.9374 112.622C68.2081 112.622 70.0021 113.246 71.3194 114.494C72.6368 115.742 73.2954 117.536 73.2954 119.876C73.2954 121.401 72.9921 122.727 72.3854 123.854C71.7788 124.963 70.9208 125.821 69.8114 126.428C68.7021 127.035 67.4108 127.338 65.9374 127.338ZM62.6614 119.876C62.6614 121.211 62.9648 122.285 63.5714 123.1C64.1781 123.915 64.9668 124.322 65.9374 124.322C66.9081 124.322 67.6881 123.915 68.2774 123.1C68.8841 122.285 69.1874 121.211 69.1874 119.876C69.1874 118.489 68.8928 117.441 68.3034 116.73C67.7314 116.002 66.9428 115.638 65.9374 115.638C64.9321 115.638 64.1348 116.002 63.5454 116.73C62.9561 117.441 62.6614 118.489 62.6614 119.876ZM79.5342 112.908V114.598C80.1756 114.043 80.9036 113.61 81.7182 113.298C82.5502 112.986 83.3736 112.83 84.1882 112.83C85.5229 112.83 86.5802 113.22 87.3602 114C88.1576 114.78 88.5562 115.794 88.5562 117.042V126.948H84.3962V117.744C84.3962 117.241 84.1882 116.834 83.7722 116.522C83.3562 116.193 82.8622 116.028 82.2902 116.028C81.9262 116.028 81.4669 116.149 80.9122 116.392C80.3749 116.635 79.9156 116.929 79.5342 117.276V126.948H75.3742V112.908H79.5342ZM95.3272 112.908V114.598C95.9685 114.043 96.6965 113.61 97.5112 113.298C98.3432 112.986 99.1665 112.83 99.9812 112.83C101.316 112.83 102.373 113.22 103.153 114C103.951 114.78 104.349 115.794 104.349 117.042V126.948H100.189V117.744C100.189 117.241 99.9812 116.834 99.5652 116.522C99.1492 116.193 98.6552 116.028 98.0832 116.028C97.7192 116.028 97.2599 116.149 96.7052 116.392C96.1679 116.635 95.7085 116.929 95.3272 117.276V126.948H91.1672V112.908H95.3272ZM119.726 126.246C119.067 126.645 118.296 126.939 117.412 127.13C116.545 127.321 115.705 127.416 114.89 127.416C112.117 127.416 110.011 126.757 108.572 125.44C107.151 124.123 106.44 122.277 106.44 119.902C106.44 117.545 107.073 115.742 108.338 114.494C109.621 113.229 111.363 112.596 113.564 112.596C115.748 112.596 117.473 113.229 118.738 114.494C120.021 115.742 120.662 117.545 120.662 119.902C120.662 120.162 120.645 120.535 120.61 121.02H110.496C110.877 123.256 112.342 124.374 114.89 124.374C116.675 124.374 118.287 123.845 119.726 122.788V126.246ZM116.736 118.108C116.511 117.241 116.121 116.6 115.566 116.184C115.011 115.768 114.344 115.56 113.564 115.56C112.836 115.56 112.212 115.777 111.692 116.21C111.189 116.643 110.834 117.276 110.626 118.108H116.736ZM134.453 126.532C133.118 127.069 131.749 127.338 130.345 127.338C128.872 127.338 127.511 127.043 126.263 126.454C125.032 125.847 124.053 124.998 123.325 123.906C122.597 122.797 122.233 121.523 122.233 120.084C122.233 118.576 122.58 117.259 123.273 116.132C123.966 115.005 124.911 114.147 126.107 113.558C127.32 112.951 128.672 112.648 130.163 112.648C131.515 112.648 132.884 112.891 134.271 113.376V116.574C133.214 116.123 132.13 115.898 131.021 115.898C129.652 115.898 128.516 116.227 127.615 116.886C126.714 117.527 126.263 118.593 126.263 120.084C126.263 120.933 126.497 121.653 126.965 122.242C127.433 122.831 128.04 123.282 128.785 123.594C129.53 123.889 130.319 124.036 131.151 124.036C131.792 124.036 132.399 123.949 132.971 123.776C133.56 123.585 134.054 123.325 134.453 122.996V126.532ZM137.632 112.96V108.956H141.532V112.96H144.236V116.132H141.532V122.164C141.532 122.667 141.567 123.048 141.636 123.308C141.723 123.568 141.87 123.75 142.078 123.854C142.286 123.941 142.59 123.984 142.988 123.984C143.248 123.984 143.465 123.975 143.638 123.958C143.829 123.941 143.994 123.915 144.132 123.88V127.078C143.404 127.165 142.728 127.208 142.104 127.208C140.908 127.208 140.016 127.087 139.426 126.844C138.837 126.601 138.386 126.185 138.074 125.596C137.78 124.989 137.632 124.131 137.632 123.022V116.132H135.604V112.96H137.632ZM153.908 112.96V108.956H157.808V112.96H160.512V116.132H157.808V122.164C157.808 122.667 157.842 123.048 157.912 123.308C157.998 123.568 158.146 123.75 158.354 123.854C158.562 123.941 158.865 123.984 159.264 123.984C159.524 123.984 159.74 123.975 159.914 123.958C160.104 123.941 160.269 123.915 160.408 123.88V127.078C159.68 127.165 159.004 127.208 158.38 127.208C157.184 127.208 156.291 127.087 155.702 126.844C155.112 126.601 154.662 126.185 154.35 125.596C154.055 124.989 153.908 124.131 153.908 123.022V116.132H151.88V112.96H153.908ZM169.201 127.338C167.728 127.338 166.428 127.035 165.301 126.428C164.192 125.821 163.334 124.963 162.727 123.854C162.12 122.727 161.817 121.401 161.817 119.876C161.817 117.536 162.476 115.742 163.793 114.494C165.11 113.246 166.913 112.622 169.201 112.622C171.472 112.622 173.266 113.246 174.583 114.494C175.9 115.742 176.559 117.536 176.559 119.876C176.559 121.401 176.256 122.727 175.649 123.854C175.042 124.963 174.184 125.821 173.075 126.428C171.966 127.035 170.674 127.338 169.201 127.338ZM165.925 119.876C165.925 121.211 166.228 122.285 166.835 123.1C167.442 123.915 168.23 124.322 169.201 124.322C170.172 124.322 170.952 123.915 171.541 123.1C172.148 122.285 172.451 121.211 172.451 119.876C172.451 118.489 172.156 117.441 171.567 116.73C170.995 116.002 170.206 115.638 169.201 115.638C168.196 115.638 167.398 116.002 166.809 116.73C166.22 117.441 165.925 118.489 165.925 119.876ZM45.85 139.8V154.49H53.208V158H41.56V139.8H45.85ZM70.588 157.22C69.7907 157.601 68.9327 157.879 68.014 158.052C67.0953 158.243 66.0293 158.338 64.816 158.338C62.8227 158.338 61.0633 157.965 59.538 157.22C58.0127 156.475 56.808 155.417 55.924 154.048C55.0573 152.661 54.624 151.041 54.624 149.186C54.624 147.314 55.0487 145.65 55.898 144.194C56.7647 142.721 57.952 141.568 59.46 140.736C60.9853 139.887 62.7273 139.462 64.686 139.462C65.6393 139.462 66.6013 139.557 67.572 139.748C68.56 139.939 69.392 140.173 70.068 140.45V143.57C68.3173 142.981 66.688 142.686 65.18 142.686C63.308 142.686 61.7913 143.223 60.63 144.298C59.4687 145.373 58.888 147.002 58.888 149.186C58.888 150.365 59.1653 151.413 59.72 152.332C60.292 153.233 61.046 153.892 61.982 154.308C62.9353 154.724 63.958 154.932 65.05 154.932C65.778 154.932 66.4193 154.906 66.974 154.854V150.85H64.92V147.6H70.588V157.22ZM81.4586 158.338C79.0146 158.338 77.0646 157.679 75.6086 156.362C74.17 155.045 73.4506 153.233 73.4506 150.928V139.8H77.7406V150.928C77.7406 151.691 77.9053 152.349 78.2346 152.904C78.5813 153.459 79.0406 153.892 79.6126 154.204C80.1846 154.499 80.8 154.646 81.4586 154.646C82.1346 154.646 82.75 154.499 83.3046 154.204C83.8766 153.892 84.3273 153.459 84.6566 152.904C84.986 152.332 85.1506 151.673 85.1506 150.928V139.8H89.4406V150.928C89.4406 153.233 88.7126 155.045 87.2566 156.362C85.818 157.679 83.8853 158.338 81.4586 158.338Z" fill="#0C3B56"/>
<path d="M39.72 186.986C39.804 186.995 39.9253 187 40.084 187C40.4573 187 40.742 186.93 40.938 186.79C41.1433 186.641 41.2833 186.421 41.358 186.132C41.4327 185.843 41.47 185.451 41.47 184.956V177.2H43.78V185.46C43.78 187.905 42.4267 189.081 39.72 188.988V186.986ZM49.0171 187.182C48.2238 187.182 47.5238 187.019 46.9171 186.692C46.3198 186.365 45.8578 185.903 45.5311 185.306C45.2044 184.699 45.0411 183.985 45.0411 183.164C45.0411 181.904 45.3958 180.938 46.1051 180.266C46.8144 179.594 47.7851 179.258 49.0171 179.258C50.2398 179.258 51.2058 179.594 51.9151 180.266C52.6244 180.938 52.9791 181.904 52.9791 183.164C52.9791 183.985 52.8158 184.699 52.4891 185.306C52.1624 185.903 51.7004 186.365 51.1031 186.692C50.5058 187.019 49.8104 187.182 49.0171 187.182ZM47.2531 183.164C47.2531 183.883 47.4164 184.461 47.7431 184.9C48.0698 185.339 48.4944 185.558 49.0171 185.558C49.5398 185.558 49.9598 185.339 50.2771 184.9C50.6038 184.461 50.7671 183.883 50.7671 183.164C50.7671 182.417 50.6084 181.853 50.2911 181.47C49.9831 181.078 49.5584 180.882 49.0171 180.882C48.4758 180.882 48.0464 181.078 47.7291 181.47C47.4118 181.853 47.2531 182.417 47.2531 183.164ZM56.5204 179.44V187H54.2804V179.44H56.5204ZM54.2804 176.234H56.5204V178.474H54.2804V176.234ZM60.3443 179.412V180.322C60.6896 180.023 61.0816 179.79 61.5203 179.622C61.9683 179.454 62.4116 179.37 62.8503 179.37C63.569 179.37 64.1383 179.58 64.5583 180C64.9876 180.42 65.2023 180.966 65.2023 181.638V186.972H62.9623V182.016C62.9623 181.745 62.8503 181.526 62.6263 181.358C62.4023 181.181 62.1363 181.092 61.8283 181.092C61.6323 181.092 61.385 181.157 61.0863 181.288C60.797 181.419 60.5496 181.577 60.3443 181.764V186.972H58.1043V179.412H60.3443ZM73.4649 187.182C72.7556 187.182 72.1349 187.014 71.6029 186.678C71.0803 186.342 70.6743 185.88 70.3849 185.292C70.1049 184.704 69.9649 184.018 69.9649 183.234C69.9649 182.459 70.1049 181.773 70.3849 181.176C70.6743 180.569 71.0756 180.098 71.5889 179.762C72.1116 179.426 72.7183 179.258 73.4089 179.258C73.7263 179.258 74.0436 179.319 74.3609 179.44C74.6876 179.552 74.9909 179.711 75.2709 179.916V179.44H77.5109V185.236C77.5109 185.992 77.6043 186.58 77.7909 187H75.6909C75.6256 186.869 75.5696 186.701 75.5229 186.496C74.9443 186.953 74.2583 187.182 73.4649 187.182ZM72.1069 183.234C72.1069 183.663 72.1909 184.055 72.3589 184.41C72.5363 184.765 72.7649 185.049 73.0449 185.264C73.3343 185.469 73.6376 185.572 73.9549 185.572C74.1789 185.572 74.4309 185.525 74.7109 185.432C74.9909 185.329 75.2336 185.115 75.4389 184.788V181.652C75.2336 181.325 74.9909 181.115 74.7109 181.022C74.4403 180.929 74.1883 180.882 73.9549 180.882C73.6376 180.882 73.3343 180.985 73.0449 181.19C72.7649 181.395 72.5363 181.68 72.3589 182.044C72.1909 182.399 72.1069 182.795 72.1069 183.234ZM85.2129 186.748C84.4942 187.037 83.7569 187.182 83.0009 187.182C82.2076 187.182 81.4749 187.023 80.8029 186.706C80.1402 186.379 79.6129 185.922 79.2209 185.334C78.8289 184.737 78.6329 184.051 78.6329 183.276C78.6329 182.464 78.8196 181.755 79.1929 181.148C79.5662 180.541 80.0749 180.079 80.7189 179.762C81.3722 179.435 82.1002 179.272 82.9029 179.272C83.6309 179.272 84.3682 179.403 85.1149 179.664V181.386C84.5456 181.143 83.9622 181.022 83.3649 181.022C82.6276 181.022 82.0162 181.199 81.5309 181.554C81.0456 181.899 80.8029 182.473 80.8029 183.276C80.8029 183.733 80.9289 184.121 81.1809 184.438C81.4329 184.755 81.7596 184.998 82.1609 185.166C82.5622 185.325 82.9869 185.404 83.4349 185.404C83.7802 185.404 84.1069 185.357 84.4149 185.264C84.7322 185.161 84.9982 185.021 85.2129 184.844V186.748ZM86.9247 179.44V177.284H89.0247V179.44H90.4807V181.148H89.0247V184.396C89.0247 184.667 89.0434 184.872 89.0807 185.012C89.1274 185.152 89.2067 185.25 89.3187 185.306C89.4307 185.353 89.5941 185.376 89.8087 185.376C89.9487 185.376 90.0654 185.371 90.1587 185.362C90.2614 185.353 90.3501 185.339 90.4247 185.32V187.042C90.0327 187.089 89.6687 187.112 89.3327 187.112C88.6887 187.112 88.2081 187.047 87.8907 186.916C87.5734 186.785 87.3307 186.561 87.1627 186.244C87.0041 185.917 86.9247 185.455 86.9247 184.858V181.148H85.8327V179.44H86.9247ZM93.8857 179.44V187H91.6457V179.44H93.8857ZM91.6457 176.234H93.8857V178.474H91.6457V176.234ZM94.8395 179.44H97.1075L98.9135 185.628H98.9835L100.804 179.44H103.058L100.664 187H97.2335L94.8395 179.44ZM106.245 179.44V187H104.005V179.44H106.245ZM104.005 176.234H106.245V178.474H104.005V176.234ZM108.417 179.44V177.284H110.517V179.44H111.973V181.148H110.517V184.396C110.517 184.667 110.536 184.872 110.573 185.012C110.62 185.152 110.699 185.25 110.811 185.306C110.923 185.353 111.086 185.376 111.301 185.376C111.441 185.376 111.558 185.371 111.651 185.362C111.754 185.353 111.842 185.339 111.917 185.32V187.042C111.525 187.089 111.161 187.112 110.825 187.112C110.181 187.112 109.7 187.047 109.383 186.916C109.066 186.785 108.823 186.561 108.655 186.244C108.496 185.917 108.417 185.455 108.417 184.858V181.148H107.325V179.44H108.417ZM115.378 179.44V187H113.138V179.44H115.378ZM113.138 176.234H115.378V178.474H113.138V176.234ZM123.836 186.594C123.481 186.809 123.066 186.967 122.59 187.07C122.123 187.173 121.67 187.224 121.232 187.224C119.738 187.224 118.604 186.869 117.83 186.16C117.064 185.451 116.682 184.457 116.682 183.178C116.682 181.909 117.022 180.938 117.704 180.266C118.394 179.585 119.332 179.244 120.518 179.244C121.694 179.244 122.622 179.585 123.304 180.266C123.994 180.938 124.34 181.909 124.34 183.178C124.34 183.318 124.33 183.519 124.312 183.78H118.866C119.071 184.984 119.86 185.586 121.232 185.586C122.193 185.586 123.061 185.301 123.836 184.732V186.594ZM122.226 182.212C122.104 181.745 121.894 181.4 121.596 181.176C121.297 180.952 120.938 180.84 120.518 180.84C120.126 180.84 119.79 180.957 119.51 181.19C119.239 181.423 119.048 181.764 118.936 182.212H122.226ZM128.504 187.168C127.934 187.196 127.356 187.149 126.768 187.028C126.189 186.916 125.685 186.739 125.256 186.496V184.48C125.638 184.76 126.096 184.993 126.628 185.18C127.169 185.357 127.645 185.432 128.056 185.404C128.345 185.385 128.555 185.325 128.686 185.222C128.816 185.11 128.891 184.998 128.91 184.886C128.956 184.597 128.886 184.377 128.7 184.228C128.513 184.079 128.163 183.934 127.65 183.794C127.08 183.635 126.628 183.453 126.292 183.248C125.956 183.033 125.699 182.795 125.522 182.534C125.354 182.263 125.27 181.923 125.27 181.512C125.27 181.083 125.382 180.7 125.606 180.364C125.83 180.019 126.184 179.748 126.67 179.552C127.155 179.356 127.678 179.258 128.238 179.258C128.658 179.258 129.082 179.3 129.512 179.384C129.941 179.459 130.3 179.561 130.59 179.692V181.498C130.291 181.349 129.936 181.218 129.526 181.106C129.124 180.985 128.774 180.924 128.476 180.924C127.841 180.924 127.496 181.092 127.44 181.428C127.412 181.624 127.5 181.797 127.706 181.946C127.92 182.095 128.224 182.231 128.616 182.352C129.176 182.529 129.633 182.711 129.988 182.898C130.352 183.085 130.636 183.327 130.842 183.626C131.047 183.925 131.15 184.307 131.15 184.774C131.15 185.465 130.902 186.029 130.408 186.468C129.913 186.897 129.278 187.131 128.504 187.168ZM136.39 179.44V177.284H138.49V179.44H139.946V181.148H138.49V184.396C138.49 184.667 138.508 184.872 138.546 185.012C138.592 185.152 138.672 185.25 138.784 185.306C138.896 185.353 139.059 185.376 139.274 185.376C139.414 185.376 139.53 185.371 139.624 185.362C139.726 185.353 139.815 185.339 139.89 185.32V187.042C139.498 187.089 139.134 187.112 138.798 187.112C138.154 187.112 137.673 187.047 137.356 186.916C137.038 186.785 136.796 186.561 136.628 186.244C136.469 185.917 136.39 185.455 136.39 184.858V181.148H135.298V179.44H136.39ZM144.625 187.182C143.831 187.182 143.131 187.019 142.525 186.692C141.927 186.365 141.465 185.903 141.139 185.306C140.812 184.699 140.649 183.985 140.649 183.164C140.649 181.904 141.003 180.938 141.713 180.266C142.422 179.594 143.393 179.258 144.625 179.258C145.847 179.258 146.813 179.594 147.523 180.266C148.232 180.938 148.587 181.904 148.587 183.164C148.587 183.985 148.423 184.699 148.097 185.306C147.77 185.903 147.308 186.365 146.711 186.692C146.113 187.019 145.418 187.182 144.625 187.182ZM142.861 183.164C142.861 183.883 143.024 184.461 143.351 184.9C143.677 185.339 144.102 185.558 144.625 185.558C145.147 185.558 145.567 185.339 145.885 184.9C146.211 184.461 146.375 183.883 146.375 183.164C146.375 182.417 146.216 181.853 145.899 181.47C145.591 181.078 145.166 180.882 144.625 180.882C144.083 180.882 143.654 181.078 143.337 181.47C143.019 181.853 142.861 182.417 142.861 183.164ZM160.217 186.594C159.862 186.809 159.447 186.967 158.971 187.07C158.504 187.173 158.051 187.224 157.613 187.224C156.119 187.224 154.985 186.869 154.211 186.16C153.445 185.451 153.063 184.457 153.063 183.178C153.063 181.909 153.403 180.938 154.085 180.266C154.775 179.585 155.713 179.244 156.899 179.244C158.075 179.244 159.003 179.585 159.685 180.266C160.375 180.938 160.721 181.909 160.721 183.178C160.721 183.318 160.711 183.519 160.693 183.78H155.247C155.452 184.984 156.241 185.586 157.613 185.586C158.574 185.586 159.442 185.301 160.217 184.732V186.594ZM158.607 182.212C158.485 181.745 158.275 181.4 157.977 181.176C157.678 180.952 157.319 180.84 156.899 180.84C156.507 180.84 156.171 180.957 155.891 181.19C155.62 181.423 155.429 181.764 155.317 182.212H158.607ZM165.066 187.182C164.357 187.182 163.736 187.014 163.204 186.678C162.682 186.342 162.276 185.88 161.986 185.292C161.706 184.704 161.566 184.018 161.566 183.234C161.566 182.459 161.706 181.773 161.986 181.176C162.276 180.569 162.677 180.098 163.19 179.762C163.713 179.426 164.32 179.258 165.01 179.258C165.328 179.258 165.645 179.319 165.962 179.44C166.289 179.552 166.592 179.711 166.872 179.916V179.44H169.112V185.236C169.112 185.992 169.206 186.58 169.392 187H167.292C167.227 186.869 167.171 186.701 167.124 186.496C166.546 186.953 165.86 187.182 165.066 187.182ZM163.708 183.234C163.708 183.663 163.792 184.055 163.96 184.41C164.138 184.765 164.366 185.049 164.646 185.264C164.936 185.469 165.239 185.572 165.556 185.572C165.78 185.572 166.032 185.525 166.312 185.432C166.592 185.329 166.835 185.115 167.04 184.788V181.652C166.835 181.325 166.592 181.115 166.312 181.022C166.042 180.929 165.79 180.882 165.556 180.882C165.239 180.882 164.936 180.985 164.646 181.19C164.366 181.395 164.138 181.68 163.96 182.044C163.792 182.399 163.708 182.795 163.708 183.234ZM172.754 179.44V180.252C172.997 179.991 173.286 179.79 173.622 179.65C173.968 179.501 174.308 179.426 174.644 179.426C174.878 179.426 175.097 179.459 175.302 179.524V181.246C175.041 181.181 174.794 181.148 174.56 181.148C174.206 181.148 173.87 181.209 173.552 181.33C173.235 181.442 172.969 181.624 172.754 181.876V187H170.514V179.44H172.754ZM178.469 179.412V180.322C178.815 180.023 179.207 179.79 179.645 179.622C180.093 179.454 180.537 179.37 180.975 179.37C181.694 179.37 182.263 179.58 182.683 180C183.113 180.42 183.327 180.966 183.327 181.638V186.972H181.087V182.016C181.087 181.745 180.975 181.526 180.751 181.358C180.527 181.181 180.261 181.092 179.953 181.092C179.757 181.092 179.51 181.157 179.211 181.288C178.922 181.419 178.675 181.577 178.469 181.764V186.972H176.229V179.412H178.469ZM42.94 199.44V200.252C43.1827 199.991 43.472 199.79 43.808 199.65C44.1533 199.501 44.494 199.426 44.83 199.426C45.0633 199.426 45.2827 199.459 45.488 199.524V201.246C45.2267 201.181 44.9793 201.148 44.746 201.148C44.3913 201.148 44.0553 201.209 43.738 201.33C43.4207 201.442 43.1547 201.624 42.94 201.876V207H40.7V199.44H42.94ZM53.0154 206.594C52.6607 206.809 52.2454 206.967 51.7694 207.07C51.3027 207.173 50.8501 207.224 50.4114 207.224C48.9181 207.224 47.7841 206.869 47.0094 206.16C46.2441 205.451 45.8614 204.457 45.8614 203.178C45.8614 201.909 46.2021 200.938 46.8834 200.266C47.5741 199.585 48.5121 199.244 49.6974 199.244C50.8734 199.244 51.8021 199.585 52.4834 200.266C53.1741 200.938 53.5194 201.909 53.5194 203.178C53.5194 203.318 53.5101 203.519 53.4914 203.78H48.0454C48.2507 204.984 49.0394 205.586 50.4114 205.586C51.3727 205.586 52.2407 205.301 53.0154 204.732V206.594ZM51.4054 202.212C51.2841 201.745 51.0741 201.4 50.7754 201.176C50.4767 200.952 50.1174 200.84 49.6974 200.84C49.3054 200.84 48.9694 200.957 48.6894 201.19C48.4187 201.423 48.2274 201.764 48.1154 202.212H51.4054ZM59.9966 202.03H59.9266L58.9046 207H56.2586L54.0186 199.44H56.2306L57.6026 205.124H57.6586L58.9746 199.44H60.9766L62.2786 205.124H62.3346L63.7066 199.44H65.9186L63.6786 207H61.0326L59.9966 202.03ZM69.9102 207.182C69.2009 207.182 68.5802 207.014 68.0482 206.678C67.5256 206.342 67.1196 205.88 66.8302 205.292C66.5502 204.704 66.4102 204.018 66.4102 203.234C66.4102 202.459 66.5502 201.773 66.8302 201.176C67.1196 200.569 67.5209 200.098 68.0342 199.762C68.5569 199.426 69.1636 199.258 69.8542 199.258C70.1716 199.258 70.4889 199.319 70.8062 199.44C71.1329 199.552 71.4362 199.711 71.7162 199.916V199.44H73.9562V205.236C73.9562 205.992 74.0496 206.58 74.2362 207H72.1362C72.0709 206.869 72.0149 206.701 71.9682 206.496C71.3896 206.953 70.7036 207.182 69.9102 207.182ZM68.5522 203.234C68.5522 203.663 68.6362 204.055 68.8042 204.41C68.9816 204.765 69.2102 205.049 69.4902 205.264C69.7796 205.469 70.0829 205.572 70.4002 205.572C70.6242 205.572 70.8762 205.525 71.1562 205.432C71.4362 205.329 71.6789 205.115 71.8842 204.788V201.652C71.6789 201.325 71.4362 201.115 71.1562 201.022C70.8856 200.929 70.6336 200.882 70.4002 200.882C70.0829 200.882 69.7796 200.985 69.4902 201.19C69.2102 201.395 68.9816 201.68 68.8042 202.044C68.6362 202.399 68.5522 202.795 68.5522 203.234ZM77.5982 199.44V200.252C77.8409 199.991 78.1302 199.79 78.4662 199.65C78.8115 199.501 79.1522 199.426 79.4882 199.426C79.7215 199.426 79.9409 199.459 80.1462 199.524V201.246C79.8849 201.181 79.6375 201.148 79.4042 201.148C79.0495 201.148 78.7135 201.209 78.3962 201.33C78.0789 201.442 77.8129 201.624 77.5982 201.876V207H75.3582V199.44H77.5982ZM84.237 207.182C83.5464 207.182 82.9397 207.019 82.417 206.692C81.8944 206.356 81.493 205.889 81.213 205.292C80.933 204.695 80.793 204.013 80.793 203.248C80.793 202.473 80.933 201.787 81.213 201.19C81.5024 200.583 81.9037 200.112 82.417 199.776C82.9397 199.44 83.5464 199.272 84.237 199.272C84.5544 199.272 84.8717 199.328 85.189 199.44C85.5157 199.552 85.819 199.715 86.099 199.93V196.234H88.339V205.25C88.339 205.997 88.4324 206.58 88.619 207H86.519C86.4537 206.869 86.3977 206.701 86.351 206.496C85.763 206.953 85.0584 207.182 84.237 207.182ZM82.935 203.248C82.935 203.677 83.019 204.069 83.187 204.424C83.3644 204.779 83.593 205.063 83.873 205.278C84.1624 205.483 84.4657 205.586 84.783 205.586C85.035 205.586 85.3104 205.525 85.609 205.404C85.917 205.283 86.169 205.031 86.365 204.648V201.834C86.169 201.442 85.917 201.185 85.609 201.064C85.3104 200.943 85.035 200.882 84.783 200.882C84.4657 200.882 84.1624 200.985 83.873 201.19C83.593 201.395 83.3644 201.68 83.187 202.044C83.019 202.408 82.935 202.809 82.935 203.248ZM92.779 207.168C92.2097 207.196 91.631 207.149 91.043 207.028C90.4643 206.916 89.9603 206.739 89.531 206.496V204.48C89.9137 204.76 90.371 204.993 90.903 205.18C91.4443 205.357 91.9203 205.432 92.331 205.404C92.6203 205.385 92.8303 205.325 92.961 205.222C93.0917 205.11 93.1663 204.998 93.185 204.886C93.2317 204.597 93.1617 204.377 92.975 204.228C92.7883 204.079 92.4383 203.934 91.925 203.794C91.3557 203.635 90.903 203.453 90.567 203.248C90.231 203.033 89.9743 202.795 89.797 202.534C89.629 202.263 89.545 201.923 89.545 201.512C89.545 201.083 89.657 200.7 89.881 200.364C90.105 200.019 90.4597 199.748 90.945 199.552C91.4303 199.356 91.953 199.258 92.513 199.258C92.933 199.258 93.3577 199.3 93.787 199.384C94.2163 199.459 94.5757 199.561 94.865 199.692V201.498C94.5663 201.349 94.2117 201.218 93.801 201.106C93.3997 200.985 93.0497 200.924 92.751 200.924C92.1163 200.924 91.771 201.092 91.715 201.428C91.687 201.624 91.7757 201.797 91.981 201.946C92.1957 202.095 92.499 202.231 92.891 202.352C93.451 202.529 93.9083 202.711 94.263 202.898C94.627 203.085 94.9117 203.327 95.117 203.626C95.3223 203.925 95.425 204.307 95.425 204.774C95.425 205.465 95.1777 206.029 94.683 206.468C94.1883 206.897 93.5537 207.131 92.779 207.168Z" fill="#0C3B56"/>
<path d="M231.079 167.715C234.908 137.601 236.823 122.544 244.366 111.921C250.319 103.539 258.622 97.1088 268.228 93.444C280.4 88.7999 295.457 90.7147 325.571 94.5445L335.611 95.8212C365.725 99.6509 380.782 101.566 391.404 109.109C399.787 115.061 406.217 123.365 409.882 132.971C414.526 145.143 412.611 160.2 408.781 190.314V190.314C405.467 216.374 403.81 229.404 397.282 238.597C392.131 245.851 384.945 251.415 376.633 254.587C366.099 258.606 353.069 256.949 327.009 253.634L294.399 249.487C268.339 246.173 255.309 244.516 246.116 237.989C238.862 232.837 233.298 225.651 230.126 217.339C226.107 206.805 227.764 193.775 231.079 167.715V167.715Z" fill="#14AEEC"/>
<rect x="258.965" y="133.023" width="132.559" height="75.2361" rx="20" transform="rotate(7.2476 258.965 133.023)" fill="#010101"/>
<path d="M273.575 245.331C274.764 235.978 275.359 231.302 278.634 228.766C281.909 226.23 286.586 226.824 295.938 228.014L330.893 232.459C340.246 233.649 344.922 234.243 347.458 237.518C349.994 240.793 349.4 245.47 348.21 254.823L348.074 255.893C347.836 257.763 347.717 258.698 347.062 259.206C346.407 259.713 345.472 259.594 343.601 259.356L276.902 250.874C275.032 250.636 274.096 250.517 273.589 249.862C273.082 249.207 273.201 248.272 273.439 246.401L273.575 245.331Z" fill="#8CE2F9"/>
<path d="M409.617 155.342C409.751 154.292 409.818 153.767 410.063 153.386C410.311 153.001 410.683 152.713 411.117 152.57C411.547 152.428 412.072 152.494 413.122 152.628V152.628C416.273 153.029 417.848 153.229 418.991 153.965C420.145 154.708 421.009 155.824 421.44 157.127C421.866 158.418 421.666 159.993 421.265 163.144L414.373 217.343C413.972 220.494 413.772 222.069 413.036 223.212C412.293 224.366 411.177 225.23 409.874 225.66C408.583 226.087 407.008 225.887 403.857 225.486V225.486C402.807 225.352 402.282 225.286 401.901 225.04C401.516 224.792 401.228 224.42 401.084 223.986C400.942 223.556 401.009 223.031 401.143 221.981L409.617 155.342Z" fill="#8CE2F9"/>
<path d="M239.023 133.647C239.156 132.597 239.223 132.072 239.081 131.642C238.937 131.207 238.649 130.835 238.265 130.588C237.884 130.342 237.359 130.276 236.308 130.142V130.142C233.158 129.741 231.582 129.541 230.292 129.968C228.989 130.398 227.873 131.262 227.13 132.416C226.394 133.559 226.193 135.134 225.793 138.285L218.9 192.484C218.499 195.635 218.299 197.21 218.725 198.501C219.156 199.804 220.02 200.92 221.174 201.663C222.317 202.399 223.892 202.599 227.043 203V203C228.093 203.134 228.618 203.2 229.048 203.058C229.483 202.915 229.855 202.627 230.102 202.242C230.348 201.861 230.415 201.336 230.548 200.286L239.023 133.647Z" fill="#8CE2F9"/>
<path d="M296.574 92.8722C296.693 91.9369 296.753 91.4693 297.08 91.2157C297.408 90.9621 297.875 91.0216 298.811 91.1405L362.37 99.2235C363.305 99.3425 363.773 99.4019 364.026 99.7294C364.28 100.057 364.22 100.525 364.101 101.46L358.478 145.678L290.951 137.091L296.574 92.8722Z" fill="#3F7B8D"/>
<path d="M303.936 91.792L357.247 98.5717L353.936 124.606C353.579 127.412 353.4 128.815 352.418 129.576C351.435 130.336 350.033 130.158 347.227 129.801L305.82 124.535C303.014 124.179 301.611 124 300.85 123.018C300.09 122.035 300.268 120.632 300.625 117.826L303.936 91.792Z" fill="#8CE2F9"/>
<rect x="223.846" y="139.392" width="3.58268" height="50.1574" rx="1.79134" transform="rotate(7.2476 223.846 139.392)" fill="#14AEEC"/>
<path d="M275.158 192.573C273.803 192.4 272.807 191.904 272.173 191.084C271.538 190.263 271.309 189.159 271.486 187.77L274.858 161.284C275.03 159.928 275.564 158.904 276.458 158.212C277.39 157.49 278.551 157.218 279.939 157.395C281.361 157.576 282.433 158.132 283.154 159.064C283.88 159.963 284.157 161.09 283.984 162.446L281.01 185.807L292.418 187.26C295.294 187.626 296.575 189.049 296.259 191.529C296.099 192.786 295.618 193.665 294.814 194.168C294.044 194.675 292.932 194.835 291.477 194.65L275.158 192.573ZM327.185 179.136C328.276 179.274 329.095 179.698 329.644 180.406C330.229 181.086 330.457 181.938 330.326 182.963L329.228 191.593C329.017 193.247 328.723 194.503 328.345 195.362C328.004 196.192 327.471 196.813 326.746 197.225C326.055 197.641 325.041 197.949 323.705 198.148C322.374 198.315 320.904 198.38 319.296 198.343C317.716 198.344 316.249 198.258 314.893 198.085C311.09 197.601 307.874 196.469 305.245 194.689C302.652 192.881 300.783 190.542 299.636 187.675C298.493 184.774 298.157 181.472 298.629 177.768C299.092 174.131 300.238 171.068 302.067 168.579C303.9 166.057 306.281 164.243 309.211 163.138C312.141 162.032 315.441 161.713 319.111 162.18C321.426 162.475 323.457 163.019 325.204 163.813C326.988 164.578 328.602 165.623 330.047 166.949C330.558 167.418 330.9 167.898 331.073 168.391C331.278 168.887 331.335 169.499 331.242 170.227C331.112 171.252 330.719 172.092 330.064 172.748C329.414 173.371 328.692 173.632 327.898 173.531C327.369 173.463 326.915 173.338 326.535 173.156C326.192 172.944 325.746 172.618 325.197 172.179C324.058 171.362 322.962 170.735 321.908 170.298C320.888 169.866 319.75 169.57 318.493 169.41C315.352 169.01 312.893 169.587 311.115 171.142C309.371 172.701 308.268 175.299 307.805 178.936C307.329 182.673 307.769 185.551 309.124 187.572C310.517 189.564 312.867 190.771 316.174 191.191C317.761 191.394 319.353 191.428 320.949 191.295L321.776 184.798L318.205 184.343C317.114 184.204 316.304 183.832 315.776 183.228C315.253 182.59 315.054 181.775 315.18 180.783C315.307 179.791 315.701 179.068 316.364 178.615C317.03 178.128 317.909 177.955 319.001 178.094L327.185 179.136ZM349.421 202.481C344.362 201.837 340.674 200.057 338.357 197.141C336.073 194.229 335.247 190.293 335.878 185.333L337.918 169.312C338.091 167.957 338.624 166.933 339.519 166.24C340.451 165.519 341.595 165.244 342.95 165.417C344.306 165.589 345.328 166.14 346.017 167.067C346.742 167.966 347.019 169.093 346.846 170.449L344.762 186.817C344.442 189.33 344.758 191.336 345.71 192.835C346.661 194.334 348.195 195.218 350.312 195.487C352.428 195.757 354.134 195.285 355.431 194.073C356.728 192.86 357.537 190.997 357.857 188.484L359.94 172.116C360.113 170.76 360.647 169.736 361.541 169.044C362.473 168.322 363.617 168.048 364.973 168.221C366.328 168.393 367.367 168.945 368.088 169.877C368.814 170.776 369.091 171.903 368.918 173.259L366.878 189.28C366.251 194.207 364.432 197.806 361.421 200.077C358.447 202.319 354.447 203.121 349.421 202.481Z" fill="#EBBA48"/>
</g>
<defs>
<clipPath id="clip0_861_2894">
<path d="M0 0H402V214C402 230.569 388.569 244 372 244H30C13.4315 244 0 230.569 0 214V0Z" fill="white"/>
</clipPath>
</defs>
</svg>
