<svg width="402" height="244" viewBox="0 0 402 244" fill="none" xmlns="http://www.w3.org/2000/svg">
<g clip-path="url(#clip0_710_3311)">
<rect width="402" height="244" fill="#D0EEFF"/>
<path opacity="0.3" d="M366.678 638.144L285.399 638.35L315.41 268.886L333.739 268.84L366.678 638.144ZM503.287 615.511L424.842 632.526L334.468 269.419L352.157 265.582L503.287 615.511ZM314.897 268.177L227.398 631.737L148.822 615.116L297.178 264.432L314.897 268.177ZM627.938 565.379L557.661 598.05L353.05 265.989L368.897 258.621L627.938 565.379ZM296.902 263.638L94.9248 596.728L24.3906 564.414L280.997 256.35L296.902 263.638ZM732.156 491.154L674.825 537.26L369.889 258.831L382.814 248.437L732.156 491.154ZM280.993 255.531L-21.7295 535.496L-79.4277 489.685L267.983 245.199L280.993 255.531ZM808.849 397.89L768.361 454.289L383.842 248.433L392.97 235.716L808.849 397.89ZM268.245 244.406L-114.639 452.207L-155.576 396.014L259.013 231.735L268.245 244.406ZM852.802 291.926L831.913 354.786L393.96 235.501L398.671 221.324L852.802 291.926ZM259.522 231.022L-177.476 352.528L-198.863 289.772L254.701 216.87L259.522 231.022ZM861.159 245.519L399.558 220.912L399.531 206.244L861.027 180.471L861.159 245.519ZM255.336 201.621L255.42 216.286L-205.971 243.23L-206.359 178.187L255.336 201.621ZM854.104 133.912L400.257 205.664L395.488 191.5L832.964 71.1064L854.104 133.912ZM260.877 187.021L256.224 201.206L-198.19 131.755L-177.549 68.8438L260.877 187.021ZM811.234 27.5615L395.995 190.79L386.815 178.095L770.522 -28.7363L811.234 27.5615ZM270.941 174.061L261.861 186.802L-154.658 25.6816L-114.392 -30.8232L270.941 174.061ZM735.459 -66.3027L387.078 177.301L374.11 166.939L677.945 -112.261L735.459 -66.3027ZM284.854 163.627L271.97 174.056L-78.332 -67.7764L-21.1797 -114.028L284.854 163.627ZM631.941 -141.292L374.112 166.117L358.233 158.791L561.532 -173.786L631.941 -141.292ZM301.666 156.428L285.851 163.833L25.5918 -142.266L95.7383 -175.113L301.666 156.428ZM507.71 -192.313L357.965 157.997L340.266 154.202L429.197 -209.132L507.71 -192.313ZM320.231 152.947L302.559 156.83L150.043 -192.712L228.425 -209.929L320.231 152.947ZM339.745 153.493H321.422L289.947 -215.891H371.22L339.745 153.493Z" fill="#FCFEFF"/>
<rect x="40" y="88" width="102" height="32" rx="8" fill="#9367DA"/>
<circle cx="53" cy="104" r="3" fill="white"/>
<path d="M66.256 109.144C65.168 109.144 64.2133 108.909 63.392 108.44C62.5813 107.971 61.9573 107.299 61.52 106.424C61.0827 105.549 60.864 104.525 60.864 103.352C60.864 102.179 61.0827 101.16 61.52 100.296C61.9573 99.4213 62.5813 98.7493 63.392 98.28C64.2133 97.8107 65.168 97.576 66.256 97.576C66.96 97.576 67.6213 97.6827 68.24 97.896C68.8587 98.0987 69.408 98.3973 69.888 98.792C70.0267 98.8987 70.1227 99.0107 70.176 99.128C70.2293 99.2453 70.256 99.3893 70.256 99.56C70.256 99.7947 70.192 99.992 70.064 100.152C69.936 100.312 69.7813 100.392 69.6 100.392C69.3867 100.392 69.168 100.317 68.944 100.168C68.4853 99.8267 68.0587 99.592 67.664 99.464C67.2693 99.3253 66.832 99.256 66.352 99.256C65.2427 99.256 64.4 99.6027 63.824 100.296C63.2587 100.989 62.976 102.008 62.976 103.352C62.976 104.707 63.2587 105.731 63.824 106.424C64.4 107.117 65.2427 107.464 66.352 107.464C66.8107 107.464 67.232 107.395 67.616 107.256C68.0107 107.117 68.4533 106.883 68.944 106.552C69.0507 106.488 69.1573 106.435 69.264 106.392C69.3707 106.349 69.4827 106.328 69.6 106.328C69.7813 106.328 69.936 106.408 70.064 106.568C70.192 106.728 70.256 106.925 70.256 107.16C70.256 107.32 70.2293 107.464 70.176 107.592C70.1227 107.709 70.0267 107.821 69.888 107.928C69.408 108.323 68.8587 108.627 68.24 108.84C67.6213 109.043 66.96 109.144 66.256 109.144ZM76.7158 109.144C75.1691 109.144 73.9958 108.744 73.1957 107.944C72.3958 107.144 71.9958 105.976 71.9958 104.44V98.664C71.9958 98.3547 72.0864 98.1093 72.2678 97.928C72.4491 97.736 72.6944 97.64 73.0038 97.64C73.3131 97.64 73.5584 97.736 73.7398 97.928C73.9211 98.1093 74.0118 98.3547 74.0118 98.664V104.552C74.0118 105.523 74.2411 106.259 74.6998 106.76C75.1584 107.251 75.8304 107.496 76.7158 107.496C77.5904 107.496 78.2571 107.245 78.7158 106.744C79.1744 106.243 79.4038 105.512 79.4038 104.552V98.664C79.4038 98.3547 79.4944 98.1093 79.6758 97.928C79.8571 97.736 80.1024 97.64 80.4118 97.64C80.7211 97.64 80.9664 97.736 81.1478 97.928C81.3291 98.1093 81.4198 98.3547 81.4198 98.664V104.44C81.4198 105.965 81.0198 107.133 80.2198 107.944C79.4198 108.744 78.2518 109.144 76.7158 109.144ZM92.6101 97.64C92.9195 97.64 93.1648 97.736 93.3461 97.928C93.5275 98.1093 93.6181 98.3547 93.6181 98.664V108.056C93.6181 108.365 93.5221 108.616 93.3301 108.808C93.1488 109 92.9088 109.096 92.6101 109.096C92.3008 109.096 92.0555 109 91.8741 108.808C91.6928 108.616 91.6021 108.365 91.6021 108.056V104.104H85.8261V108.056C85.8261 108.365 85.7301 108.616 85.5381 108.808C85.3568 109 85.1115 109.096 84.8021 109.096C84.5035 109.096 84.2581 109 84.0661 108.808C83.8848 108.616 83.7941 108.365 83.7941 108.056V98.664C83.7941 98.3547 83.8848 98.1093 84.0661 97.928C84.2475 97.736 84.4928 97.64 84.8021 97.64C85.1115 97.64 85.3568 97.736 85.5381 97.928C85.7301 98.1093 85.8261 98.3547 85.8261 98.664V102.44H91.6021V98.664C91.6021 98.3547 91.6928 98.1093 91.8741 97.928C92.0555 97.736 92.3008 97.64 92.6101 97.64ZM104.796 107.448C105.009 107.651 105.116 107.88 105.116 108.136C105.116 108.381 105.02 108.6 104.828 108.792C104.647 108.973 104.428 109.064 104.172 109.064C103.905 109.064 103.66 108.952 103.436 108.728L98.1081 103.736V108.056C98.1081 108.365 98.0121 108.616 97.8201 108.808C97.6388 109 97.3881 109.096 97.0681 109.096C96.7588 109.096 96.5081 109 96.3161 108.808C96.1348 108.616 96.0441 108.365 96.0441 108.056V98.664C96.0441 98.3547 96.1348 98.1093 96.3161 97.928C96.5081 97.736 96.7588 97.64 97.0681 97.64C97.3881 97.64 97.6388 97.736 97.8201 97.928C98.0121 98.1093 98.1081 98.3547 98.1081 98.664V102.776L103.26 97.944C103.452 97.752 103.671 97.656 103.916 97.656C104.161 97.656 104.375 97.752 104.556 97.944C104.748 98.1253 104.844 98.3387 104.844 98.584C104.844 98.8293 104.737 99.0533 104.524 99.256L100.22 103.192L104.796 107.448ZM106.683 105.512C106.374 105.512 106.139 105.443 105.979 105.304C105.83 105.165 105.755 104.973 105.755 104.728C105.755 104.483 105.83 104.291 105.979 104.152C106.139 104.003 106.374 103.928 106.683 103.928H109.979C110.289 103.928 110.518 104.003 110.667 104.152C110.827 104.291 110.907 104.483 110.907 104.728C110.907 104.973 110.827 105.165 110.667 105.304C110.518 105.443 110.289 105.512 109.979 105.512H106.683ZM116.604 109.144C115.783 109.144 115.004 109.037 114.268 108.824C113.543 108.6 112.951 108.301 112.492 107.928C112.247 107.747 112.124 107.491 112.124 107.16C112.124 106.936 112.188 106.744 112.316 106.584C112.455 106.413 112.615 106.328 112.796 106.328C112.988 106.328 113.207 106.403 113.452 106.552C113.911 106.883 114.391 107.123 114.892 107.272C115.394 107.421 115.948 107.496 116.556 107.496C117.335 107.496 117.932 107.363 118.348 107.096C118.764 106.819 118.972 106.419 118.972 105.896C118.972 105.491 118.775 105.181 118.38 104.968C117.996 104.744 117.351 104.531 116.444 104.328C115.506 104.125 114.743 103.891 114.156 103.624C113.57 103.357 113.127 103.016 112.828 102.6C112.53 102.184 112.38 101.656 112.38 101.016C112.38 100.355 112.567 99.7627 112.94 99.24C113.314 98.7173 113.831 98.312 114.492 98.024C115.164 97.7253 115.916 97.576 116.748 97.576C118.274 97.576 119.516 97.9813 120.476 98.792C120.615 98.9093 120.711 99.0267 120.764 99.144C120.828 99.2507 120.86 99.3893 120.86 99.56C120.86 99.784 120.791 99.9813 120.652 100.152C120.524 100.312 120.37 100.392 120.188 100.392C120.082 100.392 119.98 100.376 119.884 100.344C119.799 100.312 119.682 100.253 119.532 100.168C119.095 99.848 118.668 99.6133 118.252 99.464C117.847 99.304 117.346 99.224 116.748 99.224C116.023 99.224 115.447 99.3733 115.02 99.672C114.604 99.96 114.396 100.365 114.396 100.888C114.396 101.325 114.583 101.661 114.956 101.896C115.33 102.131 115.964 102.349 116.86 102.552C117.81 102.765 118.578 103.005 119.164 103.272C119.762 103.528 120.215 103.859 120.524 104.264C120.844 104.669 121.004 105.176 121.004 105.784C121.004 106.445 120.818 107.032 120.444 107.544C120.082 108.045 119.564 108.44 118.892 108.728C118.231 109.005 117.468 109.144 116.604 109.144ZM129.867 107.352C130.507 107.352 130.827 107.624 130.827 108.168C130.827 108.723 130.507 109 129.867 109H123.051C122.773 109 122.549 108.92 122.379 108.76C122.219 108.589 122.139 108.376 122.139 108.12C122.139 107.864 122.224 107.619 122.395 107.384L128.123 99.368H123.115C122.475 99.368 122.155 99.096 122.155 98.552C122.155 97.9973 122.475 97.72 123.115 97.72H129.723C130 97.72 130.219 97.8053 130.378 97.976C130.549 98.136 130.635 98.3387 130.635 98.584C130.635 98.8293 130.544 99.0747 130.363 99.32L124.635 107.352H129.867Z" fill="white"/>
<path d="M52.22 161.34C50.6253 161.34 49.2993 161.245 48.242 161.054C47.1847 160.881 46.2313 160.577 45.382 160.144C45.2607 160.56 45.174 160.829 45.122 160.95C45.0353 161.279 44.9747 161.496 44.94 161.6H41.352C42.1667 159.329 42.7647 157.223 43.146 155.282C43.5273 153.341 43.7613 151.243 43.848 148.99H40.78V145.61H47.228C47.228 147.846 47.15 149.848 46.994 151.616C46.838 153.384 46.5693 155.143 46.188 156.894C46.968 157.327 47.826 157.639 48.762 157.83C49.7153 158.003 50.868 158.09 52.22 158.09H64.96V161.34H52.22ZM45.356 138.2L47.15 143.842H43.64L41.846 138.2H45.356ZM48.398 151.772H55.262V149.718H49.1V146.598H50.192L51.752 142.698H48.892V139.526H53.026L53.598 138.07H57.134L56.562 139.526H64.128V142.698H55.288L53.728 146.598H55.262V143.712H58.59V146.598H63.582V149.718H58.59V151.772H64.622V154.944H58.59V157.466H55.262V154.944H48.398V151.772ZM84.824 159.312C82.7613 160.629 79.9187 161.401 76.296 161.626V158.61C78.1853 158.506 79.7713 158.237 81.054 157.804L76.868 156.114L78.194 153.02H76.036V150.056H79.468L80.456 147.794H76.27V144.778H78.87L78.116 142.178H76.53V139.214H81.886V137.784H85.214V139.214H90.57V142.178H89.192L88.23 144.778H90.83V147.794H83.94L82.952 150.056H91.064V153.02H89.556C88.9147 154.649 88.1867 155.975 87.372 156.998L90.752 158.324V161.678L84.824 159.312ZM67.196 150.42L70.03 149.692V144.96H67.456V141.684H70.03V138.07H73.384V141.684H75.334V144.96H73.384V148.834L75.334 148.34V151.954L73.384 152.448V161.6H67.898V158.324H70.03V153.306L67.196 154.034V150.42ZM84.356 155.828C85.1533 155.065 85.786 154.129 86.254 153.02H81.626L80.976 154.502L84.356 155.828ZM82.12 144.778H85.032L85.994 142.178H81.366L82.12 144.778ZM102.244 153.306C101.395 153.895 100.407 154.389 99.28 154.788V151.304C100.077 150.992 100.762 150.55 101.334 149.978C101.923 149.389 102.374 148.695 102.686 147.898H99.436V144.778H103.05V142.724H100.164V139.656H103.05V138.252H106.404V139.656H109.732V138.252H113.086V139.656H115.946V142.724H113.086V144.778H116.7V147.898H113.45C113.745 148.695 114.187 149.389 114.776 149.978C115.365 150.567 116.059 151.009 116.856 151.304V154.788C115.747 154.389 114.759 153.895 113.892 153.306V156.998H105.598V158.48H116.492V161.6H102.244V153.306ZM92.936 161.6C94.1493 158.064 94.9987 154.372 95.484 150.524H98.812C98.3613 154.788 97.6073 158.48 96.55 161.6H92.936ZM93.274 144.388L98.864 145.922V149.406L93.274 147.924V144.388ZM93.768 138.2L98.812 139.656V143.192L93.768 141.736V138.2ZM110.824 149.666C110.564 149.129 110.356 148.539 110.2 147.898H105.936C105.78 148.539 105.572 149.129 105.312 149.666H110.824ZM110.668 154.242V152.63H105.598V154.242H110.668ZM109.732 144.778V142.724H106.404V144.778H109.732ZM132.69 137.94V140.956H142.102V155.646H132.69V161.6H129.31V155.646H119.898V140.956H129.31V137.94H132.69ZM129.31 152.292V144.31H123.278V152.292H129.31ZM138.722 152.292V144.31H132.69V152.292H138.722ZM152.294 138.564H168.258V143.764H164.878V141.762H155.674V143.764H152.294V138.564ZM145.066 161.6C146.539 157.977 147.527 154.285 148.03 150.524H151.436C150.899 154.84 150.015 158.532 148.784 161.6H145.066ZM145.3 144.388L151.514 145.922V149.328L145.3 147.846V144.388ZM145.82 138.2L151.462 139.656V143.114L145.82 141.658V138.2ZM151.514 161.34C152.069 160.213 152.545 158.844 152.944 157.232C153.343 155.603 153.611 154.06 153.75 152.604H152.034V149.406H158.586V147.3H161.914V149.406H168.83V152.604H166.75C166.889 154.06 167.157 155.603 167.556 157.232C167.955 158.844 168.431 160.213 168.986 161.34H165.476C165.008 160.3 164.618 158.974 164.306 157.362C163.994 155.733 163.777 154.147 163.656 152.604H161.862V161.6H158.638V152.604H156.844C156.723 154.147 156.506 155.733 156.194 157.362C155.882 158.974 155.492 160.3 155.024 161.34H151.514ZM152.112 145.272C154.435 144.891 156.731 144.033 159.002 142.698V146.026C157.13 147.135 154.833 147.915 152.112 148.366V145.272ZM161.498 142.698C163.769 144.033 166.065 144.891 168.388 145.272V148.366C165.667 147.915 163.37 147.135 161.498 146.026V142.698Z" fill="#0C3B56"/>
<path d="M40.84 189.916C44.984 189.617 49.086 189.123 53.146 188.432V190.07C49.5527 190.77 45.4507 191.26 40.84 191.54V189.916ZM40.56 185.954C41.4653 185.581 42.156 185.025 42.632 184.288H40.7V182.608H46.076V181.936H41.358V180.312H42.996L44.774 178.52H47.196L45.418 180.312H49.534L48.876 179.346H51.116L52.88 181.936H47.924V182.608H53.3V184.288H51.452C51.9093 184.96 52.572 185.473 53.44 185.828V187.774C52.9733 187.615 52.5253 187.41 52.096 187.158V187.788C48.876 188.357 45.334 188.782 41.47 189.062V187.522C44.6247 187.289 47.8167 186.92 51.046 186.416C50.6167 186.033 50.2527 185.613 49.954 185.156V185.912C47.966 186.257 45.712 186.528 43.192 186.724V186.206C42.492 186.878 41.6147 187.401 40.56 187.774V185.954ZM44.046 185.156C46.2113 184.941 48.0547 184.708 49.576 184.456L49.492 184.288H44.508C44.3867 184.559 44.2327 184.848 44.046 185.156ZM61.784 189.608H64.822L65.06 184.932H55.834L56.394 178.688H58.228L58.144 179.668H66.88V181.432H57.976L57.822 183.168H66.95L66.53 191.4H61.784V189.608ZM54.42 186.542H63.8V188.32H54.42V186.542ZM75.938 185.702V184.092H72.298V182.328H75.938V180.788C74.9767 180.825 73.9127 180.844 72.746 180.844V179.08C75.7047 179.08 78.4347 178.959 80.936 178.716V180.48C80.236 180.545 79.1767 180.625 77.758 180.718V182.328H81.384V184.092H77.758V185.702H80.88V191.26H72.802V185.702H75.938ZM68.518 191.4C69.358 189.431 69.9273 187.443 70.226 185.436H72.032C71.696 187.751 71.1827 189.739 70.492 191.4H68.518ZM68.7 182.09L72.004 182.916V184.792L68.7 183.994V182.09ZM68.98 178.8L72.018 179.584V181.488L68.98 180.704V178.8ZM79.074 189.51V187.452H74.608V189.51H79.074ZM87.614 191.372C87.866 190.971 88.0247 190.709 88.09 190.588H82.728V188.796H83.036L84.002 184.568H82.728V182.804H88.258V184.568H85.794L84.828 188.796H86.41L86.214 186.458H87.88L88.202 190.392C88.8087 189.309 89.252 188.194 89.532 187.046C89.812 185.898 89.952 184.699 89.952 183.448V182.734H88.622V180.942H89.952V178.688H91.744V180.942H95.048V191.372H92.01V189.58H93.256V182.734H91.744V183.448C91.744 185.007 91.5993 186.397 91.31 187.62C91.0207 188.843 90.5447 190.093 89.882 191.372H87.614ZM82.994 179.528H87.992V181.292H82.994V179.528ZM97.61 189.748H99.346C99.3087 189.011 99.2713 188.465 99.234 188.11L96.812 189.342V187.452L98.982 186.36C98.9167 186.052 98.8233 185.674 98.702 185.226L96.812 186.178V184.26L98.114 183.602C97.9087 183.098 97.6287 182.51 97.274 181.838H99.318C99.458 182.118 99.598 182.421 99.738 182.748L101.418 181.894V183.812L100.354 184.358C100.643 185.273 100.844 186.267 100.956 187.34C101.077 188.413 101.138 189.767 101.138 191.4H97.61V189.748ZM96.84 179.304H99.71V178.59H101.53V179.304H104.47V178.59H106.29V179.304H109.16V181.054H106.29V181.656H104.47V181.054H101.53V181.656H99.71V181.054H96.84V179.304ZM101.6 189.342C102.449 188.997 103.093 188.53 103.532 187.942C103.971 187.345 104.255 186.579 104.386 185.646H101.782V183.882H104.47V181.908H106.234V183.882H109.16V185.646H106.164C106.127 186.001 106.071 186.341 105.996 186.668H107.55L109.51 191.4H107.606L105.87 187.2C105.562 188.273 105.053 189.155 104.344 189.846C103.644 190.527 102.729 191.059 101.6 191.442V189.342ZM108.152 181.964L108.404 183.574H107.004L106.752 181.964H108.152ZM122.74 184.12H115.796V178.926H122.74V184.12ZM110.56 185.842C111.969 185.03 112.954 183.891 113.514 182.426H115.418C115.11 183.518 114.615 184.507 113.934 185.394V191.47H112.114V187.116C111.638 187.452 111.12 187.76 110.56 188.04V185.842ZM110.56 182.062C111.867 181.222 112.767 180.102 113.262 178.702H115.068C114.405 181.185 112.903 183.033 110.56 184.246V182.062ZM115.208 186.696H120.472V186.08H115.488V184.624H123.048V186.08H122.264V186.696H123.44V188.152H122.264V191.4H119.184V189.86H120.472V188.152H115.208V186.696ZM117.63 188.53L118.61 191.092H116.846L115.866 188.53H117.63ZM120.92 182.762V182.118H117.616V182.762H120.92ZM120.92 180.928V180.298H117.616V180.928H120.92ZM130.384 183.392C131.373 183.261 132.167 183.079 132.764 182.846L132.008 181.544C131.523 181.843 130.981 182.071 130.384 182.23V180.438C131.252 180.093 131.896 179.547 132.316 178.8H137.216C137.095 180.284 136.759 181.465 136.208 182.342C135.667 183.21 134.925 183.854 133.982 184.274C133.039 184.694 131.84 184.969 130.384 185.1V183.392ZM124.7 189.678C126.809 189.491 128.485 188.861 129.726 187.788H125.05V186.024H130.076V185.212H131.924V186.024H136.95V187.788H132.274C133.515 188.861 135.191 189.491 137.3 189.678V191.456C134.509 191.232 132.409 190.415 131 189.006C129.591 190.415 127.491 191.232 124.7 191.456V189.678ZM124.91 183L127.948 181.894V178.8H129.754V184.89H127.948V183.686L124.91 184.792V183ZM126.926 179.01L127.542 181.656H125.848L125.232 179.01H126.926ZM134.122 182.034C134.561 181.642 134.897 181.133 135.13 180.508H133.226L134.122 182.034ZM138.42 191.4C138.653 190.448 138.817 189.519 138.91 188.614C139.003 187.699 139.05 186.654 139.05 185.478V178.996H145.448V180.718H140.702V181.838H145.448V183.518H142.942V184.778H145.224V191.232C145.803 190.093 146.204 188.983 146.428 187.9C146.661 186.808 146.778 185.557 146.778 184.148V182.454H145.728V180.634H146.778V178.66H148.57V180.634H151.104V191.4H148.318V189.58H149.396V182.454H148.472V184.148C148.472 185.511 148.365 186.775 148.15 187.942C147.935 189.109 147.581 190.261 147.086 191.4H142.886V189.706H143.712V186.458H142.9V186.472C142.9 187.405 142.844 188.269 142.732 189.062C142.62 189.855 142.433 190.635 142.172 191.4H140.492C140.819 190.616 141.043 189.851 141.164 189.104C141.285 188.348 141.346 187.471 141.346 186.472V183.518H140.702V185.478C140.702 186.589 140.66 187.62 140.576 188.572C140.492 189.524 140.357 190.467 140.17 191.4H138.42Z" fill="#0C3B56"/>
<path d="M231.079 167.715C234.908 137.601 236.823 122.544 244.366 111.921C250.319 103.539 258.622 97.1088 268.228 93.444C280.4 88.7999 295.457 90.7147 325.571 94.5445L335.611 95.8212C365.725 99.6509 380.782 101.566 391.404 109.109C399.787 115.061 406.217 123.365 409.882 132.971C414.526 145.143 412.611 160.2 408.781 190.314C405.467 216.374 403.81 229.404 397.282 238.597C392.131 245.851 384.945 251.415 376.633 254.587C366.099 258.606 353.069 256.949 327.009 253.634L294.399 249.487C268.339 246.173 255.309 244.516 246.116 237.989C238.862 232.837 233.298 225.651 230.126 217.339C226.107 206.805 227.764 193.775 231.079 167.715Z" fill="#14AEEC"/>
<rect x="258.965" y="133.023" width="132.559" height="75.2361" rx="20" transform="rotate(7.2476 258.965 133.023)" fill="#010101"/>
<path d="M273.575 245.331C274.764 235.978 275.359 231.302 278.634 228.766C281.909 226.23 286.586 226.824 295.938 228.014L330.893 232.459C340.246 233.649 344.922 234.243 347.458 237.518C349.994 240.793 349.4 245.47 348.21 254.823L348.074 255.893C347.836 257.763 347.717 258.698 347.062 259.206C346.407 259.713 345.472 259.594 343.601 259.356L276.902 250.874C275.032 250.636 274.096 250.517 273.589 249.862C273.082 249.207 273.201 248.272 273.439 246.401L273.575 245.331Z" fill="#8CE2F9"/>
<path d="M409.617 155.342C409.751 154.292 409.818 153.767 410.063 153.386C410.311 153.001 410.683 152.713 411.117 152.57C411.547 152.428 412.072 152.494 413.122 152.628C416.273 153.029 417.848 153.229 418.991 153.965C420.145 154.708 421.009 155.824 421.44 157.127C421.866 158.418 421.666 159.993 421.265 163.144L414.373 217.343C413.972 220.494 413.772 222.069 413.036 223.212C412.293 224.366 411.177 225.23 409.874 225.66C408.583 226.087 407.008 225.887 403.857 225.486C402.807 225.352 402.282 225.286 401.901 225.04C401.516 224.792 401.228 224.42 401.084 223.986C400.942 223.556 401.009 223.031 401.143 221.981L409.617 155.342Z" fill="#8CE2F9"/>
<path d="M239.023 133.647C239.156 132.597 239.223 132.072 239.081 131.642C238.937 131.207 238.649 130.835 238.265 130.588C237.884 130.342 237.359 130.276 236.308 130.142C233.158 129.741 231.582 129.541 230.292 129.968C228.989 130.398 227.873 131.262 227.13 132.416C226.394 133.559 226.193 135.134 225.793 138.285L218.9 192.484C218.499 195.635 218.299 197.21 218.725 198.501C219.156 199.804 220.02 200.92 221.174 201.663C222.317 202.399 223.892 202.599 227.043 203C228.093 203.134 228.618 203.2 229.048 203.058C229.483 202.915 229.855 202.627 230.102 202.242C230.348 201.861 230.415 201.336 230.548 200.286L239.023 133.647Z" fill="#8CE2F9"/>
<path d="M296.574 92.8722C296.693 91.9369 296.753 91.4693 297.08 91.2157C297.408 90.9621 297.875 91.0216 298.811 91.1405L362.37 99.2235C363.305 99.3425 363.773 99.4019 364.026 99.7294C364.28 100.057 364.22 100.525 364.101 101.46L358.478 145.678L290.951 137.091L296.574 92.8722Z" fill="#3F7B8D"/>
<path d="M303.936 91.792L357.247 98.5717L353.936 124.606C353.579 127.412 353.4 128.815 352.418 129.576C351.435 130.336 350.033 130.158 347.227 129.801L305.82 124.535C303.014 124.179 301.611 124 300.85 123.018C300.09 122.035 300.268 120.632 300.625 117.826L303.936 91.792Z" fill="#8CE2F9"/>
<rect x="223.846" y="139.392" width="3.58268" height="50.1574" rx="1.79134" transform="rotate(7.2476 223.846 139.392)" fill="#14AEEC"/>
<path d="M275.158 192.573C273.803 192.4 272.807 191.904 272.173 191.084C271.538 190.263 271.309 189.159 271.486 187.77L274.858 161.284C275.03 159.928 275.564 158.904 276.458 158.212C277.39 157.49 278.551 157.218 279.939 157.395C281.361 157.576 282.433 158.132 283.154 159.064C283.88 159.963 284.157 161.09 283.984 162.446L281.01 185.807L292.418 187.26C295.294 187.626 296.575 189.049 296.259 191.529C296.099 192.786 295.618 193.665 294.814 194.168C294.044 194.675 292.932 194.835 291.477 194.65L275.158 192.573ZM327.185 179.136C328.276 179.274 329.095 179.698 329.644 180.406C330.229 181.086 330.457 181.938 330.326 182.963L329.228 191.593C329.017 193.247 328.723 194.503 328.345 195.362C328.004 196.192 327.471 196.813 326.746 197.225C326.055 197.641 325.041 197.949 323.705 198.148C322.374 198.315 320.904 198.38 319.296 198.343C317.716 198.344 316.249 198.258 314.893 198.085C311.09 197.601 307.874 196.469 305.245 194.689C302.652 192.881 300.783 190.542 299.636 187.675C298.493 184.774 298.157 181.472 298.629 177.768C299.092 174.131 300.238 171.068 302.067 168.579C303.9 166.057 306.281 164.243 309.211 163.138C312.141 162.032 315.441 161.713 319.111 162.18C321.426 162.475 323.457 163.019 325.204 163.813C326.988 164.578 328.602 165.623 330.047 166.949C330.558 167.418 330.9 167.898 331.073 168.391C331.278 168.887 331.335 169.499 331.242 170.227C331.112 171.252 330.719 172.092 330.064 172.748C329.414 173.371 328.692 173.632 327.898 173.531C327.369 173.463 326.915 173.338 326.535 173.156C326.192 172.944 325.746 172.618 325.197 172.179C324.058 171.362 322.962 170.735 321.908 170.298C320.888 169.866 319.75 169.57 318.493 169.41C315.352 169.01 312.893 169.587 311.115 171.142C309.371 172.701 308.268 175.299 307.805 178.936C307.329 182.673 307.769 185.551 309.124 187.572C310.517 189.564 312.867 190.771 316.174 191.191C317.761 191.394 319.353 191.428 320.949 191.295L321.776 184.798L318.205 184.343C317.114 184.204 316.304 183.832 315.776 183.228C315.253 182.59 315.054 181.775 315.18 180.783C315.307 179.791 315.701 179.068 316.364 178.615C317.03 178.128 317.909 177.955 319.001 178.094L327.185 179.136ZM349.421 202.481C344.362 201.837 340.674 200.057 338.357 197.141C336.073 194.229 335.247 190.293 335.878 185.333L337.918 169.312C338.091 167.957 338.624 166.933 339.519 166.24C340.451 165.519 341.595 165.244 342.95 165.417C344.306 165.589 345.328 166.14 346.017 167.067C346.742 167.966 347.019 169.093 346.846 170.449L344.762 186.817C344.442 189.33 344.758 191.336 345.71 192.835C346.661 194.334 348.195 195.218 350.312 195.487C352.428 195.757 354.134 195.285 355.431 194.073C356.728 192.86 357.537 190.997 357.857 188.484L359.94 172.116C360.113 170.76 360.647 169.736 361.541 169.044C362.473 168.322 363.617 168.048 364.973 168.221C366.328 168.393 367.367 168.945 368.088 169.877C368.814 170.776 369.091 171.903 368.918 173.259L366.878 189.28C366.251 194.207 364.432 197.806 361.421 200.077C358.447 202.319 354.447 203.121 349.421 202.481Z" fill="#EBBA48"/>
</g>
<defs>
<clipPath id="clip0_710_3311">
<path d="M0 0H402V214C402 230.569 388.569 244 372 244H30C13.4315 244 0 230.569 0 214V0Z" fill="white"/>
</clipPath>
</defs>
</svg>


